G04 #@! TF.GenerationSoftware,KiCad,Pcbnew,(5.99.0-218-ga43b00b66)*
G04 #@! TF.CreationDate,2019-10-21T15:16:46-04:00*
G04 #@! TF.ProjectId,output3,6f757470-7574-4332-9e6b-696361645f70,rev?*
G04 #@! TF.SameCoordinates,Original*
G04 #@! TF.FileFunction,Legend,Top*
G04 #@! TF.FilePolarity,Positive*
%FSLAX46Y46*%
G04 Gerber Fmt 4.6, Leading zero omitted, Abs format (unit mm)*
G04 Created by KiCad (PCBNEW (5.99.0-218-ga43b00b66)) date 2019-10-21 15:16:46*
%MOMM*%
%LPD*%
G04 APERTURE LIST*
%ADD10C,0.050000*%
%ADD11C,0.150000*%
%ADD12C,0.120000*%
G04 APERTURE END LIST*
D10*
X76200000Y-44850000D02*
X76600000Y-44850000D01*
X79500000Y-77350000D02*
X76500000Y-77350000D01*
X76600000Y-44850000D02*
X76700000Y-44850000D01*
X76700000Y-44850000D02*
X79200000Y-44850000D01*
X79200000Y-75750000D02*
X79500000Y-75750000D01*
X79500000Y-75750000D02*
X79500000Y-77350000D01*
X79200000Y-44850000D02*
X79200000Y-75750000D01*
X73600000Y-44850000D02*
X73700000Y-44850000D01*
X73600000Y-45050000D02*
X73600000Y-44850000D01*
X73600000Y-75850000D02*
X73600000Y-45050000D01*
X73500000Y-75850000D02*
X73600000Y-75850000D01*
X73500000Y-77350000D02*
X73500000Y-75850000D01*
X76500000Y-77350000D02*
X73500000Y-77350000D01*
X73700000Y-44850000D02*
X76200000Y-44850000D01*
X77200000Y-45847615D02*
X78700000Y-45847615D01*
X78700000Y-45847615D02*
X78700000Y-47347615D01*
X78700000Y-47347615D02*
X77200000Y-47347615D01*
X77200000Y-47347615D02*
X77200000Y-45847615D01*
D11*
X77200000Y-47447615D02*
G75*
G03X77200000Y-47447615I-100000J0D01*
G01*
D10*
X77200228Y-47747710D02*
X78700228Y-47747995D01*
X78700228Y-47747995D02*
X78699943Y-49247995D01*
X78699943Y-49247995D02*
X77199943Y-49247710D01*
X77199943Y-49247710D02*
X77200228Y-47747710D01*
D11*
X77199924Y-49347691D02*
G75*
G03X77199924Y-49347691I-100000J0D01*
G01*
D10*
X77200912Y-53447994D02*
X78700912Y-53449135D01*
X78700912Y-53449135D02*
X78699772Y-54949134D01*
X78699772Y-54949134D02*
X77199772Y-54947994D01*
X77199772Y-54947994D02*
X77200912Y-53447994D01*
D11*
X77199696Y-55047918D02*
G75*
G03X77199696Y-55047918I-100000J0D01*
G01*
D12*
X78161228Y-77060493D02*
X77835671Y-77059503D01*
X78164329Y-76040497D02*
X77838772Y-76039507D01*
D10*
X77203422Y-74349006D02*
X78703416Y-74353281D01*
X78703416Y-74353281D02*
X78699140Y-75853275D01*
X78699140Y-75853275D02*
X77199146Y-75849000D01*
X77199146Y-75849000D02*
X77203422Y-74349006D01*
D11*
X77198860Y-75948714D02*
G75*
G03X77198860Y-75948714I-99999J0D01*
G01*
D10*
X77203194Y-72448918D02*
X78703188Y-72452909D01*
X78703188Y-72452909D02*
X78699198Y-73952904D01*
X78699198Y-73952904D02*
X77199203Y-73948913D01*
X77199203Y-73948913D02*
X77203194Y-72448918D01*
D11*
X77198936Y-74048646D02*
G75*
G03X77198936Y-74048646I-99999J0D01*
G01*
D10*
X77202965Y-70548829D02*
X78702961Y-70552534D01*
X78702961Y-70552534D02*
X78699255Y-72052530D01*
X78699255Y-72052530D02*
X77199260Y-72048824D01*
X77199260Y-72048824D02*
X77202965Y-70548829D01*
D11*
X77199013Y-72148577D02*
G75*
G03X77199013Y-72148577I-100000J0D01*
G01*
D10*
X77202737Y-68648738D02*
X78702733Y-68652159D01*
X78702733Y-68652159D02*
X78699313Y-70152155D01*
X78699313Y-70152155D02*
X77199317Y-70148734D01*
X77199317Y-70148734D02*
X77202737Y-68648738D01*
D11*
X77199089Y-70248506D02*
G75*
G03X77199089Y-70248506I-100000J0D01*
G01*
D10*
X77202509Y-66748648D02*
X78702506Y-66751783D01*
X78702506Y-66751783D02*
X78699370Y-68251780D01*
X78699370Y-68251780D02*
X77199374Y-68248644D01*
X77199374Y-68248644D02*
X77202509Y-66748648D01*
D11*
X77199165Y-68348435D02*
G75*
G03X77199165Y-68348435I-100000J0D01*
G01*
D10*
X77202281Y-64848555D02*
X78702278Y-64851406D01*
X78702278Y-64851406D02*
X78699428Y-66351403D01*
X78699428Y-66351403D02*
X77199430Y-66348552D01*
X77199430Y-66348552D02*
X77202281Y-64848555D01*
D11*
X77199241Y-66448362D02*
G75*
G03X77199241Y-66448362I-100000J0D01*
G01*
D10*
X77202053Y-62948463D02*
X78702051Y-62951028D01*
X78702051Y-62951028D02*
X78699485Y-64451026D01*
X78699485Y-64451026D02*
X77199487Y-64448460D01*
X77199487Y-64448460D02*
X77202053Y-62948463D01*
D11*
X77199316Y-64548289D02*
G75*
G03X77199316Y-64548289I-100000J0D01*
G01*
D10*
X77201825Y-61048370D02*
X78701823Y-61050651D01*
X78701823Y-61050651D02*
X78699543Y-62550649D01*
X78699543Y-62550649D02*
X77199544Y-62548369D01*
X77199544Y-62548369D02*
X77201825Y-61048370D01*
D11*
X77199391Y-62648216D02*
G75*
G03X77199391Y-62648216I-99999J0D01*
G01*
D10*
X77201597Y-59148277D02*
X78701595Y-59150272D01*
X78701595Y-59150272D02*
X78699600Y-60650271D01*
X78699600Y-60650271D02*
X77199601Y-60648276D01*
X77199601Y-60648276D02*
X77201597Y-59148277D01*
D11*
X77199468Y-60748143D02*
G75*
G03X77199468Y-60748143I-100000J0D01*
G01*
D10*
X77200684Y-51547899D02*
X78700684Y-51548754D01*
X78700684Y-51548754D02*
X78699829Y-53048754D01*
X78699829Y-53048754D02*
X77199829Y-53047899D01*
X77199829Y-53047899D02*
X77200684Y-51547899D01*
D11*
X77199772Y-53147842D02*
G75*
G03X77199772Y-53147842I-100000J0D01*
G01*
D10*
X77200456Y-49647804D02*
X78700456Y-49648374D01*
X78700456Y-49648374D02*
X78699886Y-51148374D01*
X78699886Y-51148374D02*
X77199886Y-51147804D01*
X77199886Y-51147804D02*
X77200456Y-49647804D01*
D11*
X77199848Y-51247766D02*
G75*
G03X77199848Y-51247766I-100000J0D01*
G01*
D10*
X77201368Y-57248183D02*
X78701367Y-57249893D01*
X78701367Y-57249893D02*
X78699657Y-58749892D01*
X78699657Y-58749892D02*
X77199658Y-58748182D01*
X77199658Y-58748182D02*
X77201368Y-57248183D01*
D11*
X77199544Y-58848068D02*
G75*
G03X77199544Y-58848068I-100000J0D01*
G01*
D10*
X77201140Y-55348088D02*
X78701140Y-55349514D01*
X78701140Y-55349514D02*
X78699714Y-56849513D01*
X78699714Y-56849513D02*
X77199715Y-56848088D01*
X77199715Y-56848088D02*
X77201140Y-55348088D01*
D11*
X77199620Y-56947993D02*
G75*
G03X77199620Y-56947993I-100000J0D01*
G01*
X74200000Y-47447615D02*
G75*
G03X74200000Y-47447615I-100000J0D01*
G01*
D10*
X74200000Y-47347615D02*
X74200000Y-45847615D01*
X75700000Y-47347615D02*
X74200000Y-47347615D01*
X75700000Y-45847615D02*
X75700000Y-47347615D01*
X74200000Y-45847615D02*
X75700000Y-45847615D01*
D11*
X74199924Y-49347691D02*
G75*
G03X74199924Y-49347691I-100000J0D01*
G01*
D10*
X74199943Y-49247710D02*
X74200228Y-47747710D01*
X75699943Y-49247995D02*
X74199943Y-49247710D01*
X75700228Y-47747995D02*
X75699943Y-49247995D01*
X74200228Y-47747710D02*
X75700228Y-47747995D01*
D11*
X74199848Y-51247766D02*
G75*
G03X74199848Y-51247766I-100000J0D01*
G01*
D10*
X74199886Y-51147804D02*
X74200456Y-49647804D01*
X75699886Y-51148374D02*
X74199886Y-51147804D01*
X75700456Y-49648374D02*
X75699886Y-51148374D01*
X74200456Y-49647804D02*
X75700456Y-49648374D01*
D11*
X74199772Y-53147842D02*
G75*
G03X74199772Y-53147842I-100000J0D01*
G01*
D10*
X74199829Y-53047899D02*
X74200684Y-51547899D01*
X75699829Y-53048754D02*
X74199829Y-53047899D01*
X75700684Y-51548754D02*
X75699829Y-53048754D01*
X74200684Y-51547899D02*
X75700684Y-51548754D01*
D11*
X74199696Y-55047918D02*
G75*
G03X74199696Y-55047918I-100000J0D01*
G01*
D10*
X74199772Y-54947994D02*
X74200912Y-53447994D01*
X75699772Y-54949134D02*
X74199772Y-54947994D01*
X75700912Y-53449135D02*
X75699772Y-54949134D01*
X74200912Y-53447994D02*
X75700912Y-53449135D01*
D11*
X74199620Y-56947993D02*
G75*
G03X74199620Y-56947993I-100000J0D01*
G01*
D10*
X74199715Y-56848088D02*
X74201140Y-55348088D01*
X75699714Y-56849513D02*
X74199715Y-56848088D01*
X75701140Y-55349514D02*
X75699714Y-56849513D01*
X74201140Y-55348088D02*
X75701140Y-55349514D01*
D11*
X74199544Y-58848068D02*
G75*
G03X74199544Y-58848068I-100000J0D01*
G01*
D10*
X74199658Y-58748182D02*
X74201368Y-57248183D01*
X75699657Y-58749892D02*
X74199658Y-58748182D01*
X75701367Y-57249893D02*
X75699657Y-58749892D01*
X74201368Y-57248183D02*
X75701367Y-57249893D01*
D11*
X74199468Y-60748143D02*
G75*
G03X74199468Y-60748143I-100000J0D01*
G01*
D10*
X74199601Y-60648276D02*
X74201597Y-59148277D01*
X75699600Y-60650271D02*
X74199601Y-60648276D01*
X75701595Y-59150272D02*
X75699600Y-60650271D01*
X74201597Y-59148277D02*
X75701595Y-59150272D01*
D11*
X74199391Y-62648216D02*
G75*
G03X74199391Y-62648216I-99999J0D01*
G01*
D10*
X74199544Y-62548369D02*
X74201825Y-61048370D01*
X75699543Y-62550649D02*
X74199544Y-62548369D01*
X75701823Y-61050651D02*
X75699543Y-62550649D01*
X74201825Y-61048370D02*
X75701823Y-61050651D01*
D11*
X74199316Y-64548289D02*
G75*
G03X74199316Y-64548289I-100000J0D01*
G01*
D10*
X74199487Y-64448460D02*
X74202053Y-62948463D01*
X75699485Y-64451026D02*
X74199487Y-64448460D01*
X75702051Y-62951028D02*
X75699485Y-64451026D01*
X74202053Y-62948463D02*
X75702051Y-62951028D01*
D11*
X74199241Y-66448362D02*
G75*
G03X74199241Y-66448362I-100000J0D01*
G01*
D10*
X74199430Y-66348552D02*
X74202281Y-64848555D01*
X75699428Y-66351403D02*
X74199430Y-66348552D01*
X75702278Y-64851406D02*
X75699428Y-66351403D01*
X74202281Y-64848555D02*
X75702278Y-64851406D01*
D11*
X74199165Y-68348435D02*
G75*
G03X74199165Y-68348435I-100000J0D01*
G01*
D10*
X74199374Y-68248644D02*
X74202509Y-66748648D01*
X75699370Y-68251780D02*
X74199374Y-68248644D01*
X75702506Y-66751783D02*
X75699370Y-68251780D01*
X74202509Y-66748648D02*
X75702506Y-66751783D01*
D11*
X74199089Y-70248506D02*
G75*
G03X74199089Y-70248506I-100000J0D01*
G01*
D10*
X74199317Y-70148734D02*
X74202737Y-68648738D01*
X75699313Y-70152155D02*
X74199317Y-70148734D01*
X75702733Y-68652159D02*
X75699313Y-70152155D01*
X74202737Y-68648738D02*
X75702733Y-68652159D01*
D11*
X74199013Y-72148577D02*
G75*
G03X74199013Y-72148577I-100000J0D01*
G01*
D10*
X74199260Y-72048824D02*
X74202965Y-70548829D01*
X75699255Y-72052530D02*
X74199260Y-72048824D01*
X75702961Y-70552534D02*
X75699255Y-72052530D01*
X74202965Y-70548829D02*
X75702961Y-70552534D01*
D11*
X74198936Y-74048646D02*
G75*
G03X74198936Y-74048646I-99999J0D01*
G01*
D10*
X74199203Y-73948913D02*
X74203194Y-72448918D01*
X75699198Y-73952904D02*
X74199203Y-73948913D01*
X75703188Y-72452909D02*
X75699198Y-73952904D01*
X74203194Y-72448918D02*
X75703188Y-72452909D01*
D11*
X74198860Y-75948714D02*
G75*
G03X74198860Y-75948714I-99999J0D01*
G01*
D10*
X74199146Y-75849000D02*
X74203422Y-74349006D01*
X75699140Y-75853275D02*
X74199146Y-75849000D01*
X75703416Y-74353281D02*
X75699140Y-75853275D01*
X74203422Y-74349006D02*
X75703416Y-74353281D01*
D12*
X75164329Y-76040497D02*
X74838772Y-76039507D01*
X75161228Y-77060493D02*
X74835671Y-77059503D01*
M02*
