G04 #@! TF.GenerationSoftware,KiCad,Pcbnew,(5.99.0-286-g11f0acefe)*
G04 #@! TF.CreationDate,2019-12-02T23:07:16-05:00*
G04 #@! TF.ProjectId,Controller,436f6e74-726f-46c6-9c65-722e6b696361,rev?*
G04 #@! TF.SameCoordinates,Original*
G04 #@! TF.FileFunction,Soldermask,Bot*
G04 #@! TF.FilePolarity,Negative*
%FSLAX46Y46*%
G04 Gerber Fmt 4.6, Leading zero omitted, Abs format (unit mm)*
G04 Created by KiCad (PCBNEW (5.99.0-286-g11f0acefe)) date 2019-12-02 23:07:16*
%MOMM*%
%LPD*%
G04 APERTURE LIST*
G04 APERTURE END LIST*
G36*
X131877542Y-64149111D02*
G01*
X131899506Y-64149130D01*
X132019500Y-64165034D01*
X132149510Y-64179617D01*
X132172187Y-64185271D01*
X132192022Y-64187900D01*
X132310493Y-64219755D01*
X132439660Y-64251960D01*
X132459540Y-64259831D01*
X132476975Y-64264519D01*
X132591663Y-64312142D01*
X132717694Y-64362041D01*
X132734639Y-64371511D01*
X132749490Y-64377678D01*
X132858170Y-64440551D01*
X132978726Y-64507927D01*
X132992679Y-64518365D01*
X133004910Y-64525441D01*
X133105502Y-64602768D01*
X133218171Y-64687055D01*
X133229205Y-64697860D01*
X133238852Y-64705276D01*
X133329208Y-64795790D01*
X133431822Y-64896277D01*
X133440114Y-64906891D01*
X133447318Y-64914107D01*
X133525475Y-65016148D01*
X133615925Y-65131919D01*
X133621740Y-65141830D01*
X133626746Y-65148366D01*
X133690964Y-65259819D01*
X133767246Y-65389838D01*
X133770933Y-65398609D01*
X133774060Y-65404036D01*
X133822838Y-65522087D01*
X133883126Y-65665506D01*
X133885099Y-65672767D01*
X133886747Y-65676756D01*
X133918943Y-65797335D01*
X133961529Y-65954078D01*
X133962262Y-65959571D01*
X133962867Y-65961837D01*
X133977739Y-66075565D01*
X134001078Y-66250484D01*
X134001005Y-66253484D01*
X134001128Y-66254427D01*
X134000870Y-66549506D01*
X133992165Y-66615183D01*
X133991087Y-66659303D01*
X133973921Y-66752833D01*
X133962100Y-66842022D01*
X133947772Y-66895311D01*
X133937106Y-66953423D01*
X133908348Y-67041929D01*
X133885481Y-67126975D01*
X133863569Y-67179744D01*
X133844699Y-67237820D01*
X133805358Y-67319931D01*
X133772322Y-67399490D01*
X133742740Y-67450624D01*
X133715491Y-67507498D01*
X133666737Y-67582003D01*
X133624559Y-67654910D01*
X133587369Y-67703289D01*
X133551752Y-67757718D01*
X133494885Y-67823599D01*
X133444724Y-67888852D01*
X133400165Y-67933333D01*
X133356358Y-67984084D01*
X133292772Y-68040538D01*
X133235893Y-68097318D01*
X133184378Y-68136775D01*
X133132742Y-68182620D01*
X133063896Y-68229057D01*
X133001634Y-68276746D01*
X132943733Y-68310108D01*
X132884832Y-68349837D01*
X132812249Y-68385868D01*
X132745964Y-68424060D01*
X132682405Y-68450323D01*
X132616985Y-68482797D01*
X132542182Y-68508262D01*
X132473244Y-68536747D01*
X132404914Y-68554992D01*
X132333906Y-68579165D01*
X132258359Y-68594124D01*
X132188163Y-68612867D01*
X132116125Y-68622287D01*
X132040568Y-68637248D01*
X131965693Y-68641959D01*
X131895573Y-68651128D01*
X131820983Y-68651063D01*
X131742125Y-68656024D01*
X131669278Y-68650930D01*
X131600494Y-68650870D01*
X131524639Y-68640816D01*
X131443821Y-68635165D01*
X131374244Y-68620883D01*
X131307978Y-68612100D01*
X131232214Y-68591728D01*
X131150895Y-68575036D01*
X131085708Y-68552335D01*
X131023025Y-68535481D01*
X130948786Y-68504654D01*
X130868496Y-68476694D01*
X130808653Y-68446465D01*
X130750510Y-68422322D01*
X130679276Y-68381112D01*
X130601583Y-68341867D01*
X130547907Y-68305114D01*
X130495090Y-68274559D01*
X130428312Y-68223225D01*
X130354847Y-68172923D01*
X130307985Y-68130729D01*
X130261148Y-68094724D01*
X130200290Y-68033760D01*
X130132622Y-67972831D01*
X130093037Y-67926318D01*
X130052682Y-67885893D01*
X129999146Y-67815997D01*
X129938813Y-67745106D01*
X129906799Y-67695431D01*
X129873254Y-67651634D01*
X129828346Y-67573695D01*
X129776825Y-67493749D01*
X129752511Y-67442079D01*
X129725940Y-67395964D01*
X129690857Y-67311058D01*
X129649503Y-67223176D01*
X129632840Y-67170646D01*
X129613253Y-67123244D01*
X129589059Y-67032632D01*
X129559084Y-66938141D01*
X129549859Y-66885826D01*
X129537133Y-66838163D01*
X129524727Y-66743288D01*
X129507158Y-66643651D01*
X129505017Y-66592562D01*
X129498872Y-66545573D01*
X129498957Y-66448001D01*
X129494635Y-66344880D01*
X129499090Y-66295926D01*
X129499130Y-66250494D01*
X129512199Y-66151888D01*
X129521738Y-66047078D01*
X129532186Y-66001092D01*
X129537900Y-65957978D01*
X129564220Y-65860090D01*
X129587988Y-65755476D01*
X129603733Y-65713138D01*
X129614519Y-65673025D01*
X129654105Y-65577693D01*
X129692222Y-65475198D01*
X129712503Y-65437055D01*
X129727678Y-65400510D01*
X129780297Y-65309554D01*
X129832610Y-65211168D01*
X129856597Y-65177663D01*
X129875441Y-65145090D01*
X129940627Y-65060292D01*
X130006684Y-64968024D01*
X130033534Y-64939432D01*
X130055276Y-64911148D01*
X130132264Y-64834294D01*
X130211386Y-64750038D01*
X130240251Y-64726497D01*
X130264107Y-64702682D01*
X130351900Y-64635438D01*
X130443120Y-64561041D01*
X130473160Y-64542560D01*
X130498366Y-64523254D01*
X130595744Y-64467146D01*
X130697814Y-64404352D01*
X130728224Y-64390812D01*
X130754036Y-64375940D01*
X130859559Y-64332338D01*
X130970994Y-64282724D01*
X131001021Y-64273887D01*
X131026756Y-64263253D01*
X131138815Y-64233332D01*
X131257861Y-64198295D01*
X131286829Y-64193811D01*
X131311837Y-64187133D01*
X131428547Y-64171871D01*
X131553373Y-64152547D01*
X131580702Y-64151975D01*
X131604427Y-64148872D01*
X131723818Y-64148976D01*
X131852341Y-64146284D01*
X131877542Y-64149111D01*
G37*
G36*
X148269899Y-62501959D02*
G01*
X148286769Y-62513231D01*
X148298041Y-62530101D01*
X148304448Y-62562312D01*
X148304448Y-64087688D01*
X148301999Y-64100000D01*
X148298041Y-64119899D01*
X148286769Y-64136769D01*
X148269899Y-64148041D01*
X148250000Y-64151999D01*
X148237688Y-64154448D01*
X146962312Y-64154448D01*
X146930101Y-64148041D01*
X146913231Y-64136769D01*
X146901959Y-64119899D01*
X146895552Y-64087688D01*
X146895552Y-62562312D01*
X146901959Y-62530101D01*
X146913231Y-62513231D01*
X146930101Y-62501959D01*
X146962312Y-62495552D01*
X148237688Y-62495552D01*
X148269899Y-62501959D01*
G37*
G36*
X143769899Y-62501959D02*
G01*
X143786769Y-62513231D01*
X143798041Y-62530101D01*
X143804448Y-62562312D01*
X143804448Y-64087688D01*
X143801999Y-64100000D01*
X143798041Y-64119899D01*
X143786769Y-64136769D01*
X143769899Y-64148041D01*
X143750000Y-64151999D01*
X143737688Y-64154448D01*
X142462312Y-64154448D01*
X142430101Y-64148041D01*
X142413231Y-64136769D01*
X142401959Y-64119899D01*
X142395552Y-64087688D01*
X142395552Y-62562312D01*
X142401959Y-62530101D01*
X142413231Y-62513231D01*
X142430101Y-62501959D01*
X142462312Y-62495552D01*
X143737688Y-62495552D01*
X143769899Y-62501959D01*
G37*
G36*
X141569899Y-62401959D02*
G01*
X141586769Y-62413231D01*
X141598041Y-62430101D01*
X141604448Y-62462312D01*
X141604448Y-63987688D01*
X141601999Y-64000000D01*
X141598041Y-64019899D01*
X141586769Y-64036769D01*
X141569899Y-64048041D01*
X141550000Y-64051999D01*
X141537688Y-64054448D01*
X140262312Y-64054448D01*
X140230101Y-64048041D01*
X140213231Y-64036769D01*
X140201959Y-64019899D01*
X140195552Y-63987688D01*
X140195552Y-62462312D01*
X140201959Y-62430101D01*
X140213231Y-62413231D01*
X140230101Y-62401959D01*
X140262312Y-62395552D01*
X141537688Y-62395552D01*
X141569899Y-62401959D01*
G37*
G36*
X137069899Y-62401959D02*
G01*
X137086769Y-62413231D01*
X137098041Y-62430101D01*
X137104448Y-62462312D01*
X137104448Y-63987688D01*
X137101999Y-64000000D01*
X137098041Y-64019899D01*
X137086769Y-64036769D01*
X137069899Y-64048041D01*
X137050000Y-64051999D01*
X137037688Y-64054448D01*
X135762312Y-64054448D01*
X135730101Y-64048041D01*
X135713231Y-64036769D01*
X135701959Y-64019899D01*
X135695552Y-63987688D01*
X135695552Y-62462312D01*
X135701959Y-62430101D01*
X135713231Y-62413231D01*
X135730101Y-62401959D01*
X135762312Y-62395552D01*
X137037688Y-62395552D01*
X137069899Y-62401959D01*
G37*
G36*
X129163649Y-62101959D02*
G01*
X129180519Y-62113231D01*
X129191791Y-62130101D01*
X129198198Y-62162312D01*
X129198198Y-63837688D01*
X129195749Y-63850000D01*
X129191791Y-63869899D01*
X129180519Y-63886769D01*
X129163649Y-63898041D01*
X129143750Y-63901999D01*
X129131438Y-63904448D01*
X127456062Y-63904448D01*
X127423851Y-63898041D01*
X127406981Y-63886769D01*
X127395709Y-63869899D01*
X127389302Y-63837688D01*
X127389302Y-62162312D01*
X127395709Y-62130101D01*
X127406981Y-62113231D01*
X127423851Y-62101959D01*
X127456062Y-62095552D01*
X129131438Y-62095552D01*
X129163649Y-62101959D01*
G37*
G36*
X152411822Y-60960654D02*
G01*
X152537309Y-60981428D01*
X152543609Y-60984366D01*
X152553536Y-60986152D01*
X152617682Y-61018907D01*
X152677055Y-61046593D01*
X152687418Y-61054516D01*
X152704309Y-61063141D01*
X152754762Y-61106004D01*
X152802365Y-61142399D01*
X152814489Y-61156746D01*
X152833327Y-61172750D01*
X152869153Y-61221431D01*
X152904182Y-61262883D01*
X152915612Y-61284563D01*
X152933669Y-61309099D01*
X152955086Y-61359433D01*
X152977749Y-61402417D01*
X152985776Y-61431558D01*
X152999953Y-61464876D01*
X153008243Y-61513124D01*
X153019638Y-61554491D01*
X153021519Y-61590385D01*
X153028622Y-61631723D01*
X153025946Y-61674861D01*
X153027893Y-61712016D01*
X153021093Y-61753096D01*
X153018140Y-61800690D01*
X153007276Y-61836561D01*
X153002131Y-61867639D01*
X152984552Y-61911590D01*
X152969068Y-61962713D01*
X152953125Y-61990160D01*
X152943550Y-62014100D01*
X152913753Y-62057945D01*
X152884038Y-62109103D01*
X152866161Y-62127974D01*
X152854888Y-62144562D01*
X152812254Y-62184879D01*
X152767612Y-62232004D01*
X152750687Y-62243101D01*
X152740279Y-62252943D01*
X152685171Y-62286055D01*
X152626036Y-62324826D01*
X152612419Y-62329769D01*
X152605069Y-62334185D01*
X152538958Y-62356434D01*
X152466903Y-62382588D01*
X152458239Y-62383598D01*
X152455568Y-62384497D01*
X152381689Y-62392523D01*
X152341138Y-62397251D01*
X151921283Y-62397251D01*
X151835678Y-62381848D01*
X151710191Y-62361074D01*
X151703891Y-62358136D01*
X151693964Y-62356350D01*
X151629818Y-62323595D01*
X151570445Y-62295909D01*
X151560082Y-62287986D01*
X151543191Y-62279361D01*
X151492738Y-62236498D01*
X151445135Y-62200103D01*
X151433011Y-62185756D01*
X151414173Y-62169752D01*
X151378347Y-62121071D01*
X151343318Y-62079619D01*
X151331888Y-62057939D01*
X151313831Y-62033403D01*
X151292414Y-61983069D01*
X151269751Y-61940085D01*
X151261724Y-61910944D01*
X151247547Y-61877626D01*
X151239257Y-61829378D01*
X151227862Y-61788011D01*
X151225981Y-61752117D01*
X151218878Y-61710779D01*
X151221554Y-61667641D01*
X151219607Y-61630486D01*
X151226407Y-61589406D01*
X151229360Y-61541812D01*
X151240224Y-61505941D01*
X151245369Y-61474863D01*
X151262948Y-61430912D01*
X151278432Y-61379789D01*
X151294375Y-61352342D01*
X151303950Y-61328402D01*
X151333747Y-61284557D01*
X151363462Y-61233399D01*
X151381339Y-61214528D01*
X151392612Y-61197940D01*
X151435246Y-61157623D01*
X151479888Y-61110498D01*
X151496813Y-61099401D01*
X151507221Y-61089559D01*
X151562329Y-61056447D01*
X151621464Y-61017676D01*
X151635081Y-61012733D01*
X151642431Y-61008317D01*
X151708542Y-60986068D01*
X151780597Y-60959914D01*
X151789261Y-60958904D01*
X151791932Y-60958005D01*
X151865811Y-60949979D01*
X151906362Y-60945251D01*
X152326217Y-60945251D01*
X152411822Y-60960654D01*
G37*
G36*
X149480642Y-60775720D02*
G01*
X149522576Y-60793090D01*
X149538178Y-60795897D01*
X149576092Y-60815257D01*
X149626843Y-60836279D01*
X149645904Y-60850905D01*
X149659485Y-60857840D01*
X149701877Y-60893854D01*
X149752388Y-60932613D01*
X149761544Y-60944545D01*
X149766286Y-60948574D01*
X149804958Y-61001124D01*
X149848722Y-61058158D01*
X149876909Y-61126207D01*
X149904226Y-61190405D01*
X149904740Y-61193396D01*
X149909281Y-61204359D01*
X149917988Y-61270498D01*
X149927960Y-61328531D01*
X149927213Y-61340569D01*
X149929936Y-61361251D01*
X149922360Y-61418801D01*
X149919282Y-61468405D01*
X149913174Y-61488572D01*
X149909281Y-61518143D01*
X149890448Y-61563610D01*
X149878660Y-61602531D01*
X149863553Y-61628540D01*
X149848722Y-61664344D01*
X149824173Y-61696338D01*
X149808268Y-61723719D01*
X149781393Y-61752089D01*
X149752388Y-61789889D01*
X149727477Y-61809004D01*
X149711890Y-61825458D01*
X149671660Y-61851834D01*
X149626843Y-61886223D01*
X149606105Y-61894813D01*
X149594687Y-61902299D01*
X149540886Y-61921828D01*
X149480642Y-61946782D01*
X149467300Y-61948539D01*
X149462951Y-61950117D01*
X149396168Y-61957903D01*
X149363142Y-61962251D01*
X148884358Y-61962251D01*
X148766858Y-61946782D01*
X148724924Y-61929412D01*
X148709322Y-61926605D01*
X148671408Y-61907245D01*
X148620657Y-61886223D01*
X148601596Y-61871597D01*
X148588015Y-61864662D01*
X148545623Y-61828648D01*
X148495112Y-61789889D01*
X148485956Y-61777957D01*
X148481214Y-61773928D01*
X148442542Y-61721378D01*
X148398778Y-61664344D01*
X148370591Y-61596295D01*
X148343274Y-61532097D01*
X148342760Y-61529106D01*
X148338219Y-61518143D01*
X148329512Y-61452004D01*
X148319540Y-61393971D01*
X148320287Y-61381933D01*
X148317564Y-61361251D01*
X148325140Y-61303701D01*
X148328218Y-61254097D01*
X148334326Y-61233930D01*
X148338219Y-61204359D01*
X148357052Y-61158892D01*
X148368840Y-61119971D01*
X148383947Y-61093962D01*
X148398778Y-61058158D01*
X148423327Y-61026164D01*
X148439232Y-60998783D01*
X148466107Y-60970413D01*
X148495112Y-60932613D01*
X148520023Y-60913498D01*
X148535610Y-60897044D01*
X148575840Y-60870668D01*
X148620657Y-60836279D01*
X148641395Y-60827689D01*
X148652813Y-60820203D01*
X148706614Y-60800674D01*
X148766858Y-60775720D01*
X148780200Y-60773963D01*
X148784549Y-60772385D01*
X148851332Y-60764599D01*
X148884358Y-60760251D01*
X149363142Y-60760251D01*
X149480642Y-60775720D01*
G37*
G36*
X128343652Y-59559283D02*
G01*
X128388387Y-59559595D01*
X128432210Y-59568590D01*
X128482110Y-59573835D01*
X128523882Y-59587408D01*
X128561473Y-59595124D01*
X128608601Y-59614935D01*
X128662238Y-59632363D01*
X128694849Y-59651191D01*
X128724364Y-59663598D01*
X128772051Y-59695763D01*
X128826261Y-59727061D01*
X128849576Y-59748054D01*
X128870851Y-59762404D01*
X128915933Y-59807802D01*
X128967011Y-59853793D01*
X128981753Y-59874083D01*
X128995358Y-59887784D01*
X129034393Y-59946537D01*
X129078336Y-60007019D01*
X129085971Y-60024168D01*
X129093138Y-60034955D01*
X129122615Y-60106472D01*
X129155371Y-60180042D01*
X129157961Y-60192225D01*
X129160474Y-60198323D01*
X129177042Y-60281997D01*
X129194749Y-60365301D01*
X129194749Y-60554699D01*
X129191865Y-60568269D01*
X129191780Y-60574331D01*
X129173092Y-60656585D01*
X129155371Y-60739958D01*
X129152879Y-60745555D01*
X129152828Y-60745780D01*
X129080960Y-60907197D01*
X129080828Y-60907385D01*
X129078336Y-60912981D01*
X129028230Y-60981946D01*
X128979107Y-61051582D01*
X128974335Y-61056126D01*
X128967011Y-61066207D01*
X128907146Y-61120110D01*
X128851146Y-61173438D01*
X128840214Y-61180376D01*
X128826261Y-61192939D01*
X128761514Y-61230321D01*
X128701961Y-61268114D01*
X128683959Y-61275097D01*
X128662238Y-61287637D01*
X128596865Y-61308878D01*
X128537218Y-61332014D01*
X128511950Y-61336469D01*
X128482110Y-61346165D01*
X128419845Y-61352709D01*
X128363210Y-61362695D01*
X128331209Y-61362025D01*
X128293750Y-61365962D01*
X128237652Y-61360066D01*
X128186549Y-61358996D01*
X128149073Y-61350756D01*
X128105390Y-61346165D01*
X128057667Y-61330659D01*
X128013975Y-61321052D01*
X127972980Y-61303142D01*
X127925262Y-61287637D01*
X127887223Y-61265675D01*
X127852060Y-61250313D01*
X127810087Y-61221141D01*
X127761239Y-61192939D01*
X127733254Y-61167741D01*
X127706965Y-61149470D01*
X127667007Y-61108092D01*
X127620489Y-61066207D01*
X127602046Y-61040823D01*
X127584223Y-61022366D01*
X127549571Y-60968597D01*
X127509164Y-60912981D01*
X127498962Y-60890066D01*
X127488504Y-60873839D01*
X127462539Y-60808261D01*
X127432129Y-60739958D01*
X127428226Y-60721596D01*
X127423457Y-60709551D01*
X127409490Y-60633448D01*
X127392751Y-60554699D01*
X127392751Y-60542246D01*
X127391561Y-60535762D01*
X127392751Y-60450535D01*
X127392751Y-60365301D01*
X127394025Y-60359308D01*
X127394028Y-60359077D01*
X127430765Y-60186246D01*
X127430855Y-60186036D01*
X127432129Y-60180042D01*
X127466792Y-60102188D01*
X127500372Y-60023839D01*
X127504098Y-60018397D01*
X127509164Y-60007019D01*
X127556496Y-59941872D01*
X127600202Y-59878041D01*
X127609456Y-59868979D01*
X127620489Y-59853793D01*
X127676047Y-59803769D01*
X127726443Y-59754417D01*
X127742598Y-59743846D01*
X127761239Y-59727061D01*
X127820776Y-59692687D01*
X127874301Y-59657662D01*
X127898090Y-59648050D01*
X127925262Y-59632363D01*
X127984795Y-59613019D01*
X128038126Y-59591472D01*
X128069570Y-59585474D01*
X128105390Y-59573835D01*
X128161494Y-59567938D01*
X128211695Y-59558362D01*
X128250062Y-59558630D01*
X128293750Y-59554038D01*
X128343652Y-59559283D01*
G37*
G36*
X133276231Y-60273001D02*
G01*
X133276964Y-60273001D01*
X133279829Y-60273571D01*
X133362918Y-60286731D01*
X133373760Y-60292255D01*
X133382215Y-60293937D01*
X133398768Y-60304998D01*
X133439054Y-60325524D01*
X133458316Y-60344786D01*
X133471443Y-60353557D01*
X133480214Y-60366684D01*
X133499476Y-60385946D01*
X133520002Y-60426232D01*
X133531063Y-60442785D01*
X133532745Y-60451240D01*
X133538269Y-60462082D01*
X133551429Y-60545171D01*
X133551999Y-60548036D01*
X133551999Y-60548769D01*
X133553194Y-60556314D01*
X133553194Y-61043686D01*
X133551999Y-61051231D01*
X133551999Y-61051964D01*
X133551429Y-61054829D01*
X133538269Y-61137918D01*
X133532745Y-61148760D01*
X133531063Y-61157215D01*
X133520002Y-61173768D01*
X133499476Y-61214054D01*
X133480214Y-61233316D01*
X133471443Y-61246443D01*
X133458316Y-61255214D01*
X133439054Y-61274476D01*
X133398768Y-61295002D01*
X133382215Y-61306063D01*
X133373760Y-61307745D01*
X133362918Y-61313269D01*
X133279829Y-61326429D01*
X133276964Y-61326999D01*
X133276231Y-61326999D01*
X133268686Y-61328194D01*
X132856314Y-61328194D01*
X132848769Y-61326999D01*
X132848036Y-61326999D01*
X132845171Y-61326429D01*
X132762082Y-61313269D01*
X132751240Y-61307745D01*
X132742785Y-61306063D01*
X132726232Y-61295002D01*
X132685946Y-61274476D01*
X132666684Y-61255214D01*
X132653557Y-61246443D01*
X132644786Y-61233316D01*
X132625524Y-61214054D01*
X132604998Y-61173768D01*
X132593937Y-61157215D01*
X132592255Y-61148760D01*
X132586731Y-61137918D01*
X132573571Y-61054829D01*
X132573001Y-61051964D01*
X132573001Y-61051231D01*
X132571806Y-61043686D01*
X132571806Y-60556314D01*
X132573001Y-60548769D01*
X132573001Y-60548036D01*
X132573571Y-60545171D01*
X132586731Y-60462082D01*
X132592255Y-60451240D01*
X132593937Y-60442785D01*
X132604998Y-60426232D01*
X132625524Y-60385946D01*
X132644786Y-60366684D01*
X132653557Y-60353557D01*
X132666684Y-60344786D01*
X132685946Y-60325524D01*
X132726232Y-60304998D01*
X132742785Y-60293937D01*
X132751240Y-60292255D01*
X132762082Y-60286731D01*
X132845171Y-60273571D01*
X132848036Y-60273001D01*
X132848769Y-60273001D01*
X132856314Y-60271806D01*
X133268686Y-60271806D01*
X133276231Y-60273001D01*
G37*
G36*
X134851231Y-60273001D02*
G01*
X134851964Y-60273001D01*
X134854829Y-60273571D01*
X134937918Y-60286731D01*
X134948760Y-60292255D01*
X134957215Y-60293937D01*
X134973768Y-60304998D01*
X135014054Y-60325524D01*
X135033316Y-60344786D01*
X135046443Y-60353557D01*
X135055214Y-60366684D01*
X135074476Y-60385946D01*
X135095002Y-60426232D01*
X135106063Y-60442785D01*
X135107745Y-60451240D01*
X135113269Y-60462082D01*
X135126429Y-60545171D01*
X135126999Y-60548036D01*
X135126999Y-60548769D01*
X135128194Y-60556314D01*
X135128194Y-61043686D01*
X135126999Y-61051231D01*
X135126999Y-61051964D01*
X135126429Y-61054829D01*
X135113269Y-61137918D01*
X135107745Y-61148760D01*
X135106063Y-61157215D01*
X135095002Y-61173768D01*
X135074476Y-61214054D01*
X135055214Y-61233316D01*
X135046443Y-61246443D01*
X135033316Y-61255214D01*
X135014054Y-61274476D01*
X134973768Y-61295002D01*
X134957215Y-61306063D01*
X134948760Y-61307745D01*
X134937918Y-61313269D01*
X134854829Y-61326429D01*
X134851964Y-61326999D01*
X134851231Y-61326999D01*
X134843686Y-61328194D01*
X134431314Y-61328194D01*
X134423769Y-61326999D01*
X134423036Y-61326999D01*
X134420171Y-61326429D01*
X134337082Y-61313269D01*
X134326240Y-61307745D01*
X134317785Y-61306063D01*
X134301232Y-61295002D01*
X134260946Y-61274476D01*
X134241684Y-61255214D01*
X134228557Y-61246443D01*
X134219786Y-61233316D01*
X134200524Y-61214054D01*
X134179998Y-61173768D01*
X134168937Y-61157215D01*
X134167255Y-61148760D01*
X134161731Y-61137918D01*
X134148571Y-61054829D01*
X134148001Y-61051964D01*
X134148001Y-61051231D01*
X134146806Y-61043686D01*
X134146806Y-60556314D01*
X134148001Y-60548769D01*
X134148001Y-60548036D01*
X134148571Y-60545171D01*
X134161731Y-60462082D01*
X134167255Y-60451240D01*
X134168937Y-60442785D01*
X134179998Y-60426232D01*
X134200524Y-60385946D01*
X134219786Y-60366684D01*
X134228557Y-60353557D01*
X134241684Y-60344786D01*
X134260946Y-60325524D01*
X134301232Y-60304998D01*
X134317785Y-60293937D01*
X134326240Y-60292255D01*
X134337082Y-60286731D01*
X134420171Y-60273571D01*
X134423036Y-60273001D01*
X134423769Y-60273001D01*
X134431314Y-60271806D01*
X134843686Y-60271806D01*
X134851231Y-60273001D01*
G37*
G36*
X134851231Y-58573001D02*
G01*
X134851964Y-58573001D01*
X134854829Y-58573571D01*
X134937918Y-58586731D01*
X134948760Y-58592255D01*
X134957215Y-58593937D01*
X134973768Y-58604998D01*
X135014054Y-58625524D01*
X135033316Y-58644786D01*
X135046443Y-58653557D01*
X135055214Y-58666684D01*
X135074476Y-58685946D01*
X135095002Y-58726232D01*
X135106063Y-58742785D01*
X135107745Y-58751240D01*
X135113269Y-58762082D01*
X135126429Y-58845171D01*
X135126999Y-58848036D01*
X135126999Y-58848769D01*
X135128194Y-58856314D01*
X135128194Y-59343686D01*
X135126999Y-59351231D01*
X135126999Y-59351964D01*
X135126429Y-59354829D01*
X135113269Y-59437918D01*
X135107745Y-59448760D01*
X135106063Y-59457215D01*
X135095002Y-59473768D01*
X135074476Y-59514054D01*
X135055214Y-59533316D01*
X135046443Y-59546443D01*
X135033316Y-59555214D01*
X135014054Y-59574476D01*
X134973768Y-59595002D01*
X134957215Y-59606063D01*
X134948760Y-59607745D01*
X134937918Y-59613269D01*
X134854829Y-59626429D01*
X134851964Y-59626999D01*
X134851231Y-59626999D01*
X134843686Y-59628194D01*
X134431314Y-59628194D01*
X134423769Y-59626999D01*
X134423036Y-59626999D01*
X134420171Y-59626429D01*
X134337082Y-59613269D01*
X134326240Y-59607745D01*
X134317785Y-59606063D01*
X134301232Y-59595002D01*
X134260946Y-59574476D01*
X134241684Y-59555214D01*
X134228557Y-59546443D01*
X134219786Y-59533316D01*
X134200524Y-59514054D01*
X134179998Y-59473768D01*
X134168937Y-59457215D01*
X134167255Y-59448760D01*
X134161731Y-59437918D01*
X134148571Y-59354829D01*
X134148001Y-59351964D01*
X134148001Y-59351231D01*
X134146806Y-59343686D01*
X134146806Y-58856314D01*
X134148001Y-58848769D01*
X134148001Y-58848036D01*
X134148571Y-58845171D01*
X134161731Y-58762082D01*
X134167255Y-58751240D01*
X134168937Y-58742785D01*
X134179998Y-58726232D01*
X134200524Y-58685946D01*
X134219786Y-58666684D01*
X134228557Y-58653557D01*
X134241684Y-58644786D01*
X134260946Y-58625524D01*
X134301232Y-58604998D01*
X134317785Y-58593937D01*
X134326240Y-58592255D01*
X134337082Y-58586731D01*
X134420171Y-58573571D01*
X134423036Y-58573001D01*
X134423769Y-58573001D01*
X134431314Y-58571806D01*
X134843686Y-58571806D01*
X134851231Y-58573001D01*
G37*
G36*
X133276231Y-58573001D02*
G01*
X133276964Y-58573001D01*
X133279829Y-58573571D01*
X133362918Y-58586731D01*
X133373760Y-58592255D01*
X133382215Y-58593937D01*
X133398768Y-58604998D01*
X133439054Y-58625524D01*
X133458316Y-58644786D01*
X133471443Y-58653557D01*
X133480214Y-58666684D01*
X133499476Y-58685946D01*
X133520002Y-58726232D01*
X133531063Y-58742785D01*
X133532745Y-58751240D01*
X133538269Y-58762082D01*
X133551429Y-58845171D01*
X133551999Y-58848036D01*
X133551999Y-58848769D01*
X133553194Y-58856314D01*
X133553194Y-59343686D01*
X133551999Y-59351231D01*
X133551999Y-59351964D01*
X133551429Y-59354829D01*
X133538269Y-59437918D01*
X133532745Y-59448760D01*
X133531063Y-59457215D01*
X133520002Y-59473768D01*
X133499476Y-59514054D01*
X133480214Y-59533316D01*
X133471443Y-59546443D01*
X133458316Y-59555214D01*
X133439054Y-59574476D01*
X133398768Y-59595002D01*
X133382215Y-59606063D01*
X133373760Y-59607745D01*
X133362918Y-59613269D01*
X133279829Y-59626429D01*
X133276964Y-59626999D01*
X133276231Y-59626999D01*
X133268686Y-59628194D01*
X132856314Y-59628194D01*
X132848769Y-59626999D01*
X132848036Y-59626999D01*
X132845171Y-59626429D01*
X132762082Y-59613269D01*
X132751240Y-59607745D01*
X132742785Y-59606063D01*
X132726232Y-59595002D01*
X132685946Y-59574476D01*
X132666684Y-59555214D01*
X132653557Y-59546443D01*
X132644786Y-59533316D01*
X132625524Y-59514054D01*
X132604998Y-59473768D01*
X132593937Y-59457215D01*
X132592255Y-59448760D01*
X132586731Y-59437918D01*
X132573571Y-59354829D01*
X132573001Y-59351964D01*
X132573001Y-59351231D01*
X132571806Y-59343686D01*
X132571806Y-58856314D01*
X132573001Y-58848769D01*
X132573001Y-58848036D01*
X132573571Y-58845171D01*
X132586731Y-58762082D01*
X132592255Y-58751240D01*
X132593937Y-58742785D01*
X132604998Y-58726232D01*
X132625524Y-58685946D01*
X132644786Y-58666684D01*
X132653557Y-58653557D01*
X132666684Y-58644786D01*
X132685946Y-58625524D01*
X132726232Y-58604998D01*
X132742785Y-58593937D01*
X132751240Y-58592255D01*
X132762082Y-58586731D01*
X132845171Y-58573571D01*
X132848036Y-58573001D01*
X132848769Y-58573001D01*
X132856314Y-58571806D01*
X133268686Y-58571806D01*
X133276231Y-58573001D01*
G37*
G36*
X148269899Y-54551959D02*
G01*
X148286769Y-54563231D01*
X148298041Y-54580101D01*
X148304448Y-54612312D01*
X148304448Y-55987355D01*
X148324291Y-56054935D01*
X148377521Y-56101058D01*
X148447236Y-56111082D01*
X148520193Y-56073320D01*
X148535613Y-56057043D01*
X148575834Y-56030673D01*
X148620657Y-55996279D01*
X148641395Y-55987689D01*
X148652813Y-55980203D01*
X148706614Y-55960674D01*
X148766858Y-55935720D01*
X148780200Y-55933963D01*
X148784549Y-55932385D01*
X148851332Y-55924599D01*
X148884358Y-55920251D01*
X149363142Y-55920251D01*
X149480642Y-55935720D01*
X149522576Y-55953090D01*
X149538178Y-55955897D01*
X149576092Y-55975257D01*
X149626843Y-55996279D01*
X149645904Y-56010905D01*
X149659485Y-56017840D01*
X149701877Y-56053854D01*
X149752388Y-56092613D01*
X149761544Y-56104545D01*
X149766286Y-56108574D01*
X149804958Y-56161124D01*
X149848722Y-56218158D01*
X149876909Y-56286207D01*
X149904226Y-56350405D01*
X149904740Y-56353396D01*
X149909281Y-56364359D01*
X149917988Y-56430498D01*
X149927960Y-56488531D01*
X149927213Y-56500569D01*
X149929936Y-56521251D01*
X149922360Y-56578801D01*
X149919282Y-56628405D01*
X149913174Y-56648572D01*
X149909281Y-56678143D01*
X149890448Y-56723610D01*
X149878660Y-56762531D01*
X149863553Y-56788540D01*
X149848722Y-56824344D01*
X149824173Y-56856338D01*
X149808268Y-56883719D01*
X149781393Y-56912089D01*
X149752388Y-56949889D01*
X149727477Y-56969004D01*
X149711890Y-56985458D01*
X149671660Y-57011834D01*
X149626843Y-57046223D01*
X149606105Y-57054813D01*
X149594687Y-57062299D01*
X149540886Y-57081828D01*
X149480642Y-57106782D01*
X149467300Y-57108539D01*
X149462951Y-57110117D01*
X149396168Y-57117903D01*
X149363142Y-57122251D01*
X148884358Y-57122251D01*
X148766858Y-57106782D01*
X148724924Y-57089412D01*
X148709322Y-57086605D01*
X148671408Y-57067245D01*
X148620657Y-57046223D01*
X148601596Y-57031597D01*
X148588015Y-57024662D01*
X148545623Y-56988648D01*
X148495112Y-56949889D01*
X148485956Y-56937957D01*
X148481214Y-56933928D01*
X148442542Y-56881378D01*
X148398778Y-56824344D01*
X148370591Y-56756295D01*
X148343274Y-56692097D01*
X148342760Y-56689106D01*
X148338219Y-56678143D01*
X148329512Y-56612004D01*
X148319540Y-56553971D01*
X148320287Y-56541933D01*
X148317564Y-56521251D01*
X148325140Y-56463701D01*
X148328218Y-56414097D01*
X148334326Y-56393930D01*
X148338219Y-56364359D01*
X148342991Y-56352838D01*
X148343480Y-56295250D01*
X148305906Y-56235678D01*
X148223250Y-56204448D01*
X146962312Y-56204448D01*
X146930101Y-56198041D01*
X146913231Y-56186769D01*
X146901959Y-56169899D01*
X146895552Y-56137688D01*
X146895552Y-54612312D01*
X146901959Y-54580101D01*
X146913231Y-54563231D01*
X146930101Y-54551959D01*
X146962312Y-54545552D01*
X148237688Y-54545552D01*
X148269899Y-54551959D01*
G37*
G36*
X152411822Y-55500654D02*
G01*
X152537309Y-55521428D01*
X152543609Y-55524366D01*
X152553536Y-55526152D01*
X152617682Y-55558907D01*
X152677055Y-55586593D01*
X152687418Y-55594516D01*
X152704309Y-55603141D01*
X152754762Y-55646004D01*
X152802365Y-55682399D01*
X152814489Y-55696746D01*
X152833327Y-55712750D01*
X152869153Y-55761431D01*
X152904182Y-55802883D01*
X152915612Y-55824563D01*
X152933669Y-55849099D01*
X152955086Y-55899433D01*
X152977749Y-55942417D01*
X152985776Y-55971558D01*
X152999953Y-56004876D01*
X153008243Y-56053124D01*
X153019638Y-56094491D01*
X153021519Y-56130385D01*
X153028622Y-56171723D01*
X153025946Y-56214861D01*
X153027893Y-56252016D01*
X153021093Y-56293096D01*
X153018140Y-56340690D01*
X153007276Y-56376561D01*
X153002131Y-56407639D01*
X152984552Y-56451590D01*
X152969068Y-56502713D01*
X152953125Y-56530160D01*
X152943550Y-56554100D01*
X152913753Y-56597945D01*
X152884038Y-56649103D01*
X152866161Y-56667974D01*
X152854888Y-56684562D01*
X152812254Y-56724879D01*
X152767612Y-56772004D01*
X152750687Y-56783101D01*
X152740279Y-56792943D01*
X152685171Y-56826055D01*
X152626036Y-56864826D01*
X152612419Y-56869769D01*
X152605069Y-56874185D01*
X152538958Y-56896434D01*
X152466903Y-56922588D01*
X152458239Y-56923598D01*
X152455568Y-56924497D01*
X152381689Y-56932523D01*
X152341138Y-56937251D01*
X151921283Y-56937251D01*
X151835678Y-56921848D01*
X151710191Y-56901074D01*
X151703891Y-56898136D01*
X151693964Y-56896350D01*
X151629818Y-56863595D01*
X151570445Y-56835909D01*
X151560082Y-56827986D01*
X151543191Y-56819361D01*
X151492738Y-56776498D01*
X151445135Y-56740103D01*
X151433011Y-56725756D01*
X151414173Y-56709752D01*
X151378347Y-56661071D01*
X151343318Y-56619619D01*
X151331888Y-56597939D01*
X151313831Y-56573403D01*
X151292414Y-56523069D01*
X151269751Y-56480085D01*
X151261724Y-56450944D01*
X151247547Y-56417626D01*
X151239257Y-56369378D01*
X151227862Y-56328011D01*
X151225981Y-56292117D01*
X151218878Y-56250779D01*
X151221554Y-56207641D01*
X151219607Y-56170486D01*
X151226407Y-56129406D01*
X151229360Y-56081812D01*
X151240224Y-56045941D01*
X151245369Y-56014863D01*
X151262948Y-55970912D01*
X151278432Y-55919789D01*
X151294375Y-55892342D01*
X151303950Y-55868402D01*
X151333747Y-55824557D01*
X151363462Y-55773399D01*
X151381339Y-55754528D01*
X151392612Y-55737940D01*
X151435246Y-55697623D01*
X151479888Y-55650498D01*
X151496813Y-55639401D01*
X151507221Y-55629559D01*
X151562329Y-55596447D01*
X151621464Y-55557676D01*
X151635081Y-55552733D01*
X151642431Y-55548317D01*
X151708542Y-55526068D01*
X151780597Y-55499914D01*
X151789261Y-55498904D01*
X151791932Y-55498005D01*
X151865811Y-55489979D01*
X151906362Y-55485251D01*
X152326217Y-55485251D01*
X152411822Y-55500654D01*
G37*
G36*
X143769899Y-54551959D02*
G01*
X143786769Y-54563231D01*
X143798041Y-54580101D01*
X143804448Y-54612312D01*
X143804448Y-56137688D01*
X143801999Y-56150000D01*
X143798041Y-56169899D01*
X143786769Y-56186769D01*
X143769899Y-56198041D01*
X143750000Y-56201999D01*
X143737688Y-56204448D01*
X142462312Y-56204448D01*
X142430101Y-56198041D01*
X142413231Y-56186769D01*
X142401959Y-56169899D01*
X142395552Y-56137688D01*
X142395552Y-54612312D01*
X142401959Y-54580101D01*
X142413231Y-54563231D01*
X142430101Y-54551959D01*
X142462312Y-54545552D01*
X143737688Y-54545552D01*
X143769899Y-54551959D01*
G37*
G36*
X141569899Y-54451959D02*
G01*
X141586769Y-54463231D01*
X141598041Y-54480101D01*
X141604448Y-54512312D01*
X141604448Y-56037688D01*
X141601999Y-56050000D01*
X141598041Y-56069899D01*
X141586769Y-56086769D01*
X141569899Y-56098041D01*
X141550000Y-56101999D01*
X141537688Y-56104448D01*
X140262312Y-56104448D01*
X140230101Y-56098041D01*
X140213231Y-56086769D01*
X140201959Y-56069899D01*
X140195552Y-56037688D01*
X140195552Y-54512312D01*
X140201959Y-54480101D01*
X140213231Y-54463231D01*
X140230101Y-54451959D01*
X140262312Y-54445552D01*
X141537688Y-54445552D01*
X141569899Y-54451959D01*
G37*
G36*
X137069899Y-54451959D02*
G01*
X137086769Y-54463231D01*
X137098041Y-54480101D01*
X137104448Y-54512312D01*
X137104448Y-56037688D01*
X137101999Y-56050000D01*
X137098041Y-56069899D01*
X137086769Y-56086769D01*
X137069899Y-56098041D01*
X137050000Y-56101999D01*
X137037688Y-56104448D01*
X135762312Y-56104448D01*
X135730101Y-56098041D01*
X135713231Y-56086769D01*
X135701959Y-56069899D01*
X135695552Y-56037688D01*
X135695552Y-54512312D01*
X135701959Y-54480101D01*
X135713231Y-54463231D01*
X135730101Y-54451959D01*
X135762312Y-54445552D01*
X137037688Y-54445552D01*
X137069899Y-54451959D01*
G37*
G36*
X136176231Y-52273001D02*
G01*
X136176964Y-52273001D01*
X136179829Y-52273571D01*
X136262918Y-52286731D01*
X136273760Y-52292255D01*
X136282215Y-52293937D01*
X136298768Y-52304998D01*
X136339054Y-52325524D01*
X136358316Y-52344786D01*
X136371443Y-52353557D01*
X136380214Y-52366684D01*
X136399476Y-52385946D01*
X136420002Y-52426232D01*
X136431063Y-52442785D01*
X136432745Y-52451240D01*
X136438269Y-52462082D01*
X136451429Y-52545171D01*
X136451999Y-52548036D01*
X136451999Y-52548769D01*
X136453194Y-52556314D01*
X136453194Y-53043686D01*
X136451999Y-53051231D01*
X136451999Y-53051964D01*
X136451429Y-53054829D01*
X136438269Y-53137918D01*
X136432745Y-53148760D01*
X136431063Y-53157215D01*
X136420002Y-53173768D01*
X136399476Y-53214054D01*
X136380214Y-53233316D01*
X136371443Y-53246443D01*
X136358316Y-53255214D01*
X136339054Y-53274476D01*
X136298768Y-53295002D01*
X136282215Y-53306063D01*
X136273760Y-53307745D01*
X136262918Y-53313269D01*
X136179829Y-53326429D01*
X136176964Y-53326999D01*
X136176231Y-53326999D01*
X136168686Y-53328194D01*
X135756314Y-53328194D01*
X135748769Y-53326999D01*
X135748036Y-53326999D01*
X135745171Y-53326429D01*
X135662082Y-53313269D01*
X135651240Y-53307745D01*
X135642785Y-53306063D01*
X135626232Y-53295002D01*
X135585946Y-53274476D01*
X135566684Y-53255214D01*
X135553557Y-53246443D01*
X135544786Y-53233316D01*
X135525524Y-53214054D01*
X135504998Y-53173768D01*
X135493937Y-53157215D01*
X135492255Y-53148760D01*
X135486731Y-53137918D01*
X135473571Y-53054829D01*
X135473001Y-53051964D01*
X135473001Y-53051231D01*
X135471806Y-53043686D01*
X135471806Y-52556314D01*
X135473001Y-52548769D01*
X135473001Y-52548036D01*
X135473571Y-52545171D01*
X135486731Y-52462082D01*
X135492255Y-52451240D01*
X135493937Y-52442785D01*
X135504998Y-52426232D01*
X135525524Y-52385946D01*
X135544786Y-52366684D01*
X135553557Y-52353557D01*
X135566684Y-52344786D01*
X135585946Y-52325524D01*
X135626232Y-52304998D01*
X135642785Y-52293937D01*
X135651240Y-52292255D01*
X135662082Y-52286731D01*
X135745171Y-52273571D01*
X135748036Y-52273001D01*
X135748769Y-52273001D01*
X135756314Y-52271806D01*
X136168686Y-52271806D01*
X136176231Y-52273001D01*
G37*
G36*
X137751231Y-52273001D02*
G01*
X137751964Y-52273001D01*
X137754829Y-52273571D01*
X137837918Y-52286731D01*
X137848760Y-52292255D01*
X137857215Y-52293937D01*
X137873768Y-52304998D01*
X137914054Y-52325524D01*
X137933316Y-52344786D01*
X137946443Y-52353557D01*
X137955214Y-52366684D01*
X137974476Y-52385946D01*
X137995002Y-52426232D01*
X138006063Y-52442785D01*
X138007745Y-52451240D01*
X138013269Y-52462082D01*
X138026429Y-52545171D01*
X138026999Y-52548036D01*
X138026999Y-52548769D01*
X138028194Y-52556314D01*
X138028194Y-53043686D01*
X138026999Y-53051231D01*
X138026999Y-53051964D01*
X138026429Y-53054829D01*
X138013269Y-53137918D01*
X138007745Y-53148760D01*
X138006063Y-53157215D01*
X137995002Y-53173768D01*
X137974476Y-53214054D01*
X137955214Y-53233316D01*
X137946443Y-53246443D01*
X137933316Y-53255214D01*
X137914054Y-53274476D01*
X137873768Y-53295002D01*
X137857215Y-53306063D01*
X137848760Y-53307745D01*
X137837918Y-53313269D01*
X137754829Y-53326429D01*
X137751964Y-53326999D01*
X137751231Y-53326999D01*
X137743686Y-53328194D01*
X137331314Y-53328194D01*
X137323769Y-53326999D01*
X137323036Y-53326999D01*
X137320171Y-53326429D01*
X137237082Y-53313269D01*
X137226240Y-53307745D01*
X137217785Y-53306063D01*
X137201232Y-53295002D01*
X137160946Y-53274476D01*
X137141684Y-53255214D01*
X137128557Y-53246443D01*
X137119786Y-53233316D01*
X137100524Y-53214054D01*
X137079998Y-53173768D01*
X137068937Y-53157215D01*
X137067255Y-53148760D01*
X137061731Y-53137918D01*
X137048571Y-53054829D01*
X137048001Y-53051964D01*
X137048001Y-53051231D01*
X137046806Y-53043686D01*
X137046806Y-52556314D01*
X137048001Y-52548769D01*
X137048001Y-52548036D01*
X137048571Y-52545171D01*
X137061731Y-52462082D01*
X137067255Y-52451240D01*
X137068937Y-52442785D01*
X137079998Y-52426232D01*
X137100524Y-52385946D01*
X137119786Y-52366684D01*
X137128557Y-52353557D01*
X137141684Y-52344786D01*
X137160946Y-52325524D01*
X137201232Y-52304998D01*
X137217785Y-52293937D01*
X137226240Y-52292255D01*
X137237082Y-52286731D01*
X137320171Y-52273571D01*
X137323036Y-52273001D01*
X137323769Y-52273001D01*
X137331314Y-52271806D01*
X137743686Y-52271806D01*
X137751231Y-52273001D01*
G37*
G36*
X131050655Y-50555687D02*
G01*
X131096064Y-50556004D01*
X131140544Y-50565135D01*
X131191203Y-50570459D01*
X131233616Y-50584240D01*
X131271765Y-50592071D01*
X131319591Y-50612175D01*
X131374050Y-50629870D01*
X131407156Y-50648984D01*
X131437112Y-50661576D01*
X131485514Y-50694223D01*
X131540549Y-50725998D01*
X131564220Y-50747312D01*
X131585814Y-50761877D01*
X131631577Y-50807960D01*
X131683423Y-50854643D01*
X131698385Y-50875236D01*
X131712197Y-50889145D01*
X131751831Y-50948799D01*
X131796429Y-51010182D01*
X131804177Y-51027585D01*
X131811458Y-51038543D01*
X131841397Y-51111181D01*
X131874627Y-51185817D01*
X131877255Y-51198181D01*
X131879806Y-51204370D01*
X131896621Y-51289292D01*
X131914599Y-51373872D01*
X131914599Y-51566128D01*
X131911674Y-51579889D01*
X131911588Y-51586044D01*
X131892622Y-51669521D01*
X131874627Y-51754183D01*
X131872096Y-51759868D01*
X131872044Y-51760096D01*
X131799094Y-51923945D01*
X131798958Y-51924138D01*
X131796429Y-51929818D01*
X131745585Y-51999798D01*
X131695702Y-52070512D01*
X131690855Y-52075128D01*
X131683423Y-52085357D01*
X131622674Y-52140056D01*
X131565810Y-52194207D01*
X131554710Y-52201251D01*
X131540549Y-52214002D01*
X131474834Y-52251942D01*
X131414369Y-52290315D01*
X131396092Y-52297404D01*
X131374050Y-52310130D01*
X131307708Y-52331686D01*
X131247147Y-52355176D01*
X131221491Y-52359700D01*
X131191203Y-52369541D01*
X131128004Y-52376183D01*
X131070509Y-52386321D01*
X131038022Y-52385641D01*
X131000000Y-52389637D01*
X130943058Y-52383652D01*
X130891181Y-52382566D01*
X130853138Y-52374201D01*
X130808797Y-52369541D01*
X130760355Y-52353801D01*
X130716006Y-52344050D01*
X130674395Y-52325871D01*
X130625950Y-52310130D01*
X130587335Y-52287836D01*
X130551642Y-52272242D01*
X130509034Y-52242629D01*
X130459451Y-52214002D01*
X130431045Y-52188425D01*
X130404358Y-52169877D01*
X130363795Y-52127873D01*
X130316577Y-52085357D01*
X130297857Y-52059591D01*
X130279761Y-52040852D01*
X130244581Y-51986263D01*
X130203571Y-51929818D01*
X130193216Y-51906560D01*
X130182599Y-51890086D01*
X130156240Y-51823511D01*
X130125373Y-51754183D01*
X130121411Y-51735545D01*
X130116572Y-51723322D01*
X130102398Y-51646094D01*
X130085401Y-51566128D01*
X130085401Y-51553483D01*
X130084193Y-51546901D01*
X130085401Y-51460378D01*
X130085401Y-51373872D01*
X130086694Y-51367790D01*
X130086697Y-51367553D01*
X130123987Y-51192117D01*
X130124080Y-51191900D01*
X130125373Y-51185817D01*
X130160557Y-51106793D01*
X130194649Y-51027250D01*
X130198431Y-51021727D01*
X130203571Y-51010182D01*
X130251598Y-50944078D01*
X130295982Y-50879258D01*
X130305379Y-50870056D01*
X130316577Y-50854643D01*
X130372955Y-50803880D01*
X130424128Y-50753767D01*
X130440533Y-50743032D01*
X130459451Y-50725998D01*
X130519882Y-50691108D01*
X130574220Y-50655551D01*
X130598367Y-50645795D01*
X130625950Y-50629870D01*
X130686384Y-50610234D01*
X130740518Y-50588362D01*
X130772437Y-50582273D01*
X130808797Y-50570459D01*
X130865745Y-50564474D01*
X130916707Y-50554752D01*
X130955654Y-50555024D01*
X131000000Y-50550363D01*
X131050655Y-50555687D01*
G37*
G36*
X133590655Y-50555687D02*
G01*
X133636064Y-50556004D01*
X133680544Y-50565135D01*
X133731203Y-50570459D01*
X133773616Y-50584240D01*
X133811765Y-50592071D01*
X133859591Y-50612175D01*
X133914050Y-50629870D01*
X133947156Y-50648984D01*
X133977112Y-50661576D01*
X134025514Y-50694223D01*
X134080549Y-50725998D01*
X134104220Y-50747312D01*
X134125814Y-50761877D01*
X134171577Y-50807960D01*
X134223423Y-50854643D01*
X134238385Y-50875236D01*
X134252197Y-50889145D01*
X134291831Y-50948799D01*
X134336429Y-51010182D01*
X134344177Y-51027585D01*
X134351458Y-51038543D01*
X134381397Y-51111181D01*
X134414627Y-51185817D01*
X134417255Y-51198181D01*
X134419806Y-51204370D01*
X134436621Y-51289292D01*
X134454599Y-51373872D01*
X134454599Y-51566128D01*
X134451674Y-51579889D01*
X134451588Y-51586044D01*
X134432622Y-51669521D01*
X134414627Y-51754183D01*
X134412096Y-51759868D01*
X134412044Y-51760096D01*
X134339094Y-51923945D01*
X134338958Y-51924138D01*
X134336429Y-51929818D01*
X134285585Y-51999798D01*
X134235702Y-52070512D01*
X134230855Y-52075128D01*
X134223423Y-52085357D01*
X134162674Y-52140056D01*
X134105810Y-52194207D01*
X134094710Y-52201251D01*
X134080549Y-52214002D01*
X134014834Y-52251942D01*
X133954369Y-52290315D01*
X133936092Y-52297404D01*
X133914050Y-52310130D01*
X133847708Y-52331686D01*
X133787147Y-52355176D01*
X133761491Y-52359700D01*
X133731203Y-52369541D01*
X133668004Y-52376183D01*
X133610509Y-52386321D01*
X133578022Y-52385641D01*
X133540000Y-52389637D01*
X133483058Y-52383652D01*
X133431181Y-52382566D01*
X133393138Y-52374201D01*
X133348797Y-52369541D01*
X133300355Y-52353801D01*
X133256006Y-52344050D01*
X133214395Y-52325871D01*
X133165950Y-52310130D01*
X133127335Y-52287836D01*
X133091642Y-52272242D01*
X133049034Y-52242629D01*
X132999451Y-52214002D01*
X132971045Y-52188425D01*
X132944358Y-52169877D01*
X132903795Y-52127873D01*
X132856577Y-52085357D01*
X132837857Y-52059591D01*
X132819761Y-52040852D01*
X132784581Y-51986263D01*
X132743571Y-51929818D01*
X132733216Y-51906560D01*
X132722599Y-51890086D01*
X132696240Y-51823511D01*
X132665373Y-51754183D01*
X132661411Y-51735545D01*
X132656572Y-51723322D01*
X132642398Y-51646094D01*
X132625401Y-51566128D01*
X132625401Y-51553483D01*
X132624193Y-51546901D01*
X132625401Y-51460378D01*
X132625401Y-51373872D01*
X132626694Y-51367790D01*
X132626697Y-51367553D01*
X132663987Y-51192117D01*
X132664080Y-51191900D01*
X132665373Y-51185817D01*
X132700557Y-51106793D01*
X132734649Y-51027250D01*
X132738431Y-51021727D01*
X132743571Y-51010182D01*
X132791598Y-50944078D01*
X132835982Y-50879258D01*
X132845379Y-50870056D01*
X132856577Y-50854643D01*
X132912955Y-50803880D01*
X132964128Y-50753767D01*
X132980533Y-50743032D01*
X132999451Y-50725998D01*
X133059882Y-50691108D01*
X133114220Y-50655551D01*
X133138367Y-50645795D01*
X133165950Y-50629870D01*
X133226384Y-50610234D01*
X133280518Y-50588362D01*
X133312437Y-50582273D01*
X133348797Y-50570459D01*
X133405745Y-50564474D01*
X133456707Y-50554752D01*
X133495654Y-50555024D01*
X133540000Y-50550363D01*
X133590655Y-50555687D01*
G37*
G36*
X141158058Y-50580495D02*
G01*
X141209192Y-50580852D01*
X141247958Y-50589945D01*
X141281203Y-50593439D01*
X141328825Y-50608912D01*
X141384147Y-50621888D01*
X141414852Y-50636864D01*
X141441343Y-50645471D01*
X141489468Y-50673256D01*
X141545663Y-50700664D01*
X141567882Y-50718528D01*
X141587157Y-50729657D01*
X141632493Y-50770477D01*
X141685712Y-50813267D01*
X141699909Y-50831179D01*
X141712289Y-50842326D01*
X141751285Y-50895999D01*
X141797334Y-50954099D01*
X141804765Y-50969610D01*
X141811256Y-50978543D01*
X141840290Y-51043754D01*
X141874982Y-51116161D01*
X141877539Y-51127417D01*
X141879741Y-51132362D01*
X141895395Y-51206009D01*
X141914795Y-51291398D01*
X141914718Y-51296917D01*
X141914749Y-51297063D01*
X141914749Y-51465437D01*
X141912196Y-51477447D01*
X141911973Y-51493433D01*
X141893531Y-51565258D01*
X141879741Y-51630138D01*
X141872967Y-51645353D01*
X141867283Y-51667490D01*
X141836071Y-51728222D01*
X141811256Y-51783957D01*
X141798172Y-51801966D01*
X141785141Y-51827321D01*
X141744955Y-51875213D01*
X141712289Y-51920174D01*
X141691589Y-51938813D01*
X141669630Y-51964982D01*
X141624372Y-51999335D01*
X141587157Y-52032843D01*
X141558201Y-52049561D01*
X141526491Y-52073630D01*
X141479927Y-52094752D01*
X141441343Y-52117029D01*
X141404250Y-52129081D01*
X141362839Y-52147866D01*
X141318291Y-52157011D01*
X141281203Y-52169061D01*
X141236903Y-52173717D01*
X141186806Y-52184001D01*
X141147000Y-52183167D01*
X141113750Y-52186662D01*
X141063946Y-52181427D01*
X141007142Y-52180237D01*
X140973994Y-52171972D01*
X140946297Y-52169061D01*
X140893454Y-52151891D01*
X140832777Y-52136763D01*
X140807328Y-52123908D01*
X140786157Y-52117029D01*
X140733322Y-52086524D01*
X140672377Y-52055739D01*
X140654767Y-52041171D01*
X140640343Y-52032843D01*
X140591052Y-51988461D01*
X140533913Y-51941192D01*
X140523417Y-51927563D01*
X140515211Y-51920174D01*
X140473251Y-51862421D01*
X140424268Y-51798815D01*
X140419427Y-51788338D01*
X140416244Y-51783957D01*
X140385604Y-51715140D01*
X140348891Y-51635685D01*
X140311529Y-51459908D01*
X140312751Y-51372393D01*
X140312751Y-51297063D01*
X140313877Y-51291766D01*
X140314038Y-51280223D01*
X140332920Y-51202176D01*
X140347759Y-51132362D01*
X140352250Y-51122276D01*
X140356294Y-51105559D01*
X140389264Y-51039141D01*
X140416244Y-50978543D01*
X140426033Y-50965070D01*
X140436196Y-50944596D01*
X140479354Y-50891680D01*
X140515211Y-50842326D01*
X140531754Y-50827431D01*
X140549774Y-50805336D01*
X140599048Y-50766839D01*
X140640343Y-50729657D01*
X140664463Y-50715731D01*
X140691382Y-50694700D01*
X140742789Y-50670510D01*
X140786157Y-50645471D01*
X140817953Y-50635140D01*
X140853982Y-50618186D01*
X140903933Y-50607204D01*
X140946297Y-50593439D01*
X140985081Y-50589362D01*
X141029493Y-50579598D01*
X141074959Y-50579915D01*
X141113750Y-50575838D01*
X141158058Y-50580495D01*
G37*
G36*
X146038058Y-50580495D02*
G01*
X146089192Y-50580852D01*
X146127958Y-50589945D01*
X146161203Y-50593439D01*
X146208825Y-50608912D01*
X146264147Y-50621888D01*
X146294852Y-50636864D01*
X146321343Y-50645471D01*
X146369468Y-50673256D01*
X146425663Y-50700664D01*
X146447882Y-50718528D01*
X146467157Y-50729657D01*
X146512493Y-50770477D01*
X146565712Y-50813267D01*
X146579909Y-50831179D01*
X146592289Y-50842326D01*
X146631285Y-50895999D01*
X146677334Y-50954099D01*
X146684765Y-50969610D01*
X146691256Y-50978543D01*
X146720290Y-51043754D01*
X146754982Y-51116161D01*
X146757539Y-51127417D01*
X146759741Y-51132362D01*
X146775395Y-51206009D01*
X146794795Y-51291398D01*
X146794718Y-51296917D01*
X146794749Y-51297063D01*
X146794749Y-51465437D01*
X146792196Y-51477447D01*
X146791973Y-51493433D01*
X146773531Y-51565258D01*
X146759741Y-51630138D01*
X146752967Y-51645353D01*
X146747283Y-51667490D01*
X146716071Y-51728222D01*
X146691256Y-51783957D01*
X146678172Y-51801966D01*
X146665141Y-51827321D01*
X146624955Y-51875213D01*
X146592289Y-51920174D01*
X146571589Y-51938813D01*
X146549630Y-51964982D01*
X146504372Y-51999335D01*
X146467157Y-52032843D01*
X146438201Y-52049561D01*
X146406491Y-52073630D01*
X146359927Y-52094752D01*
X146321343Y-52117029D01*
X146284250Y-52129081D01*
X146242839Y-52147866D01*
X146198291Y-52157011D01*
X146161203Y-52169061D01*
X146116903Y-52173717D01*
X146066806Y-52184001D01*
X146027000Y-52183167D01*
X145993750Y-52186662D01*
X145943946Y-52181427D01*
X145887142Y-52180237D01*
X145853994Y-52171972D01*
X145826297Y-52169061D01*
X145773454Y-52151891D01*
X145712777Y-52136763D01*
X145687328Y-52123908D01*
X145666157Y-52117029D01*
X145613322Y-52086524D01*
X145552377Y-52055739D01*
X145534767Y-52041171D01*
X145520343Y-52032843D01*
X145471052Y-51988461D01*
X145413913Y-51941192D01*
X145403417Y-51927563D01*
X145395211Y-51920174D01*
X145353251Y-51862421D01*
X145304268Y-51798815D01*
X145299427Y-51788338D01*
X145296244Y-51783957D01*
X145265604Y-51715140D01*
X145228891Y-51635685D01*
X145191529Y-51459908D01*
X145192751Y-51372393D01*
X145192751Y-51297063D01*
X145193877Y-51291766D01*
X145194038Y-51280223D01*
X145212920Y-51202176D01*
X145227759Y-51132362D01*
X145232250Y-51122276D01*
X145236294Y-51105559D01*
X145269264Y-51039141D01*
X145296244Y-50978543D01*
X145306033Y-50965070D01*
X145316196Y-50944596D01*
X145359354Y-50891680D01*
X145395211Y-50842326D01*
X145411754Y-50827431D01*
X145429774Y-50805336D01*
X145479048Y-50766839D01*
X145520343Y-50729657D01*
X145544463Y-50715731D01*
X145571382Y-50694700D01*
X145622789Y-50670510D01*
X145666157Y-50645471D01*
X145697953Y-50635140D01*
X145733982Y-50618186D01*
X145783933Y-50607204D01*
X145826297Y-50593439D01*
X145865081Y-50589362D01*
X145909493Y-50579598D01*
X145954959Y-50579915D01*
X145993750Y-50575838D01*
X146038058Y-50580495D01*
G37*
G36*
X150677542Y-47549111D02*
G01*
X150699506Y-47549130D01*
X150819500Y-47565034D01*
X150949510Y-47579617D01*
X150972187Y-47585271D01*
X150992022Y-47587900D01*
X151110493Y-47619755D01*
X151239660Y-47651960D01*
X151259540Y-47659831D01*
X151276975Y-47664519D01*
X151391663Y-47712142D01*
X151517694Y-47762041D01*
X151534639Y-47771511D01*
X151549490Y-47777678D01*
X151658170Y-47840551D01*
X151778726Y-47907927D01*
X151792679Y-47918365D01*
X151804910Y-47925441D01*
X151905502Y-48002768D01*
X152018171Y-48087055D01*
X152029205Y-48097860D01*
X152038852Y-48105276D01*
X152129208Y-48195790D01*
X152231822Y-48296277D01*
X152240114Y-48306891D01*
X152247318Y-48314107D01*
X152325475Y-48416148D01*
X152415925Y-48531919D01*
X152421740Y-48541830D01*
X152426746Y-48548366D01*
X152490964Y-48659819D01*
X152567246Y-48789838D01*
X152570933Y-48798609D01*
X152574060Y-48804036D01*
X152622838Y-48922087D01*
X152683126Y-49065506D01*
X152685099Y-49072767D01*
X152686747Y-49076756D01*
X152718943Y-49197335D01*
X152761529Y-49354078D01*
X152762262Y-49359571D01*
X152762867Y-49361837D01*
X152777739Y-49475565D01*
X152801078Y-49650484D01*
X152801005Y-49653484D01*
X152801128Y-49654427D01*
X152800870Y-49949506D01*
X152792165Y-50015183D01*
X152791087Y-50059303D01*
X152773921Y-50152833D01*
X152762100Y-50242022D01*
X152747772Y-50295311D01*
X152737106Y-50353423D01*
X152708348Y-50441929D01*
X152685481Y-50526975D01*
X152663569Y-50579744D01*
X152644699Y-50637820D01*
X152605358Y-50719931D01*
X152572322Y-50799490D01*
X152542740Y-50850624D01*
X152515491Y-50907498D01*
X152466737Y-50982003D01*
X152424559Y-51054910D01*
X152387369Y-51103289D01*
X152351752Y-51157718D01*
X152294885Y-51223599D01*
X152244724Y-51288852D01*
X152200165Y-51333333D01*
X152156358Y-51384084D01*
X152092772Y-51440538D01*
X152035893Y-51497318D01*
X151984378Y-51536775D01*
X151932742Y-51582620D01*
X151863896Y-51629057D01*
X151801634Y-51676746D01*
X151743733Y-51710108D01*
X151684832Y-51749837D01*
X151612249Y-51785868D01*
X151545964Y-51824060D01*
X151482405Y-51850323D01*
X151416985Y-51882797D01*
X151342182Y-51908262D01*
X151273244Y-51936747D01*
X151204914Y-51954992D01*
X151133906Y-51979165D01*
X151058359Y-51994124D01*
X150988163Y-52012867D01*
X150916125Y-52022287D01*
X150840568Y-52037248D01*
X150765693Y-52041959D01*
X150695573Y-52051128D01*
X150620983Y-52051063D01*
X150542125Y-52056024D01*
X150469278Y-52050930D01*
X150400494Y-52050870D01*
X150324639Y-52040816D01*
X150243821Y-52035165D01*
X150174244Y-52020883D01*
X150107978Y-52012100D01*
X150032214Y-51991728D01*
X149950895Y-51975036D01*
X149885708Y-51952335D01*
X149823025Y-51935481D01*
X149748786Y-51904654D01*
X149668496Y-51876694D01*
X149608653Y-51846465D01*
X149550510Y-51822322D01*
X149479276Y-51781112D01*
X149401583Y-51741867D01*
X149347907Y-51705114D01*
X149295090Y-51674559D01*
X149228312Y-51623225D01*
X149154847Y-51572923D01*
X149107985Y-51530729D01*
X149061148Y-51494724D01*
X149000290Y-51433760D01*
X148932622Y-51372831D01*
X148893037Y-51326318D01*
X148852682Y-51285893D01*
X148799146Y-51215997D01*
X148738813Y-51145106D01*
X148706799Y-51095431D01*
X148673254Y-51051634D01*
X148628346Y-50973695D01*
X148576825Y-50893749D01*
X148552511Y-50842079D01*
X148525940Y-50795964D01*
X148490857Y-50711058D01*
X148449503Y-50623176D01*
X148432840Y-50570646D01*
X148413253Y-50523244D01*
X148389059Y-50432632D01*
X148359084Y-50338141D01*
X148349859Y-50285826D01*
X148337133Y-50238163D01*
X148324727Y-50143288D01*
X148307158Y-50043651D01*
X148305017Y-49992562D01*
X148298872Y-49945573D01*
X148298957Y-49848001D01*
X148294635Y-49744880D01*
X148299090Y-49695926D01*
X148299130Y-49650494D01*
X148312199Y-49551888D01*
X148321738Y-49447078D01*
X148332186Y-49401092D01*
X148337900Y-49357978D01*
X148364220Y-49260090D01*
X148387988Y-49155476D01*
X148403733Y-49113138D01*
X148414519Y-49073025D01*
X148454105Y-48977693D01*
X148492222Y-48875198D01*
X148512503Y-48837055D01*
X148527678Y-48800510D01*
X148580297Y-48709554D01*
X148632610Y-48611168D01*
X148656597Y-48577663D01*
X148675441Y-48545090D01*
X148740627Y-48460292D01*
X148806684Y-48368024D01*
X148833534Y-48339432D01*
X148855276Y-48311148D01*
X148932264Y-48234294D01*
X149011386Y-48150038D01*
X149040251Y-48126497D01*
X149064107Y-48102682D01*
X149151900Y-48035438D01*
X149243120Y-47961041D01*
X149273160Y-47942560D01*
X149298366Y-47923254D01*
X149395744Y-47867146D01*
X149497814Y-47804352D01*
X149528224Y-47790812D01*
X149554036Y-47775940D01*
X149659559Y-47732338D01*
X149770994Y-47682724D01*
X149801021Y-47673887D01*
X149826756Y-47663253D01*
X149938815Y-47633332D01*
X150057861Y-47598295D01*
X150086829Y-47593811D01*
X150111837Y-47587133D01*
X150228547Y-47571871D01*
X150353373Y-47552547D01*
X150380702Y-47551975D01*
X150404427Y-47548872D01*
X150523818Y-47548976D01*
X150652341Y-47546284D01*
X150677542Y-47549111D01*
G37*
G36*
X136176231Y-50623001D02*
G01*
X136176964Y-50623001D01*
X136179829Y-50623571D01*
X136262918Y-50636731D01*
X136273760Y-50642255D01*
X136282215Y-50643937D01*
X136298768Y-50654998D01*
X136339054Y-50675524D01*
X136358316Y-50694786D01*
X136371443Y-50703557D01*
X136380214Y-50716684D01*
X136399476Y-50735946D01*
X136420002Y-50776232D01*
X136431063Y-50792785D01*
X136432745Y-50801240D01*
X136438269Y-50812082D01*
X136451429Y-50895171D01*
X136451999Y-50898036D01*
X136451999Y-50898769D01*
X136453194Y-50906314D01*
X136453194Y-51393686D01*
X136451999Y-51401231D01*
X136451999Y-51401964D01*
X136451429Y-51404829D01*
X136438269Y-51487918D01*
X136432745Y-51498760D01*
X136431063Y-51507215D01*
X136420002Y-51523768D01*
X136399476Y-51564054D01*
X136380214Y-51583316D01*
X136371443Y-51596443D01*
X136358316Y-51605214D01*
X136339054Y-51624476D01*
X136298768Y-51645002D01*
X136282215Y-51656063D01*
X136273760Y-51657745D01*
X136262918Y-51663269D01*
X136179829Y-51676429D01*
X136176964Y-51676999D01*
X136176231Y-51676999D01*
X136168686Y-51678194D01*
X135756314Y-51678194D01*
X135748769Y-51676999D01*
X135748036Y-51676999D01*
X135745171Y-51676429D01*
X135662082Y-51663269D01*
X135651240Y-51657745D01*
X135642785Y-51656063D01*
X135626232Y-51645002D01*
X135585946Y-51624476D01*
X135566684Y-51605214D01*
X135553557Y-51596443D01*
X135544786Y-51583316D01*
X135525524Y-51564054D01*
X135504998Y-51523768D01*
X135493937Y-51507215D01*
X135492255Y-51498760D01*
X135486731Y-51487918D01*
X135473571Y-51404829D01*
X135473001Y-51401964D01*
X135473001Y-51401231D01*
X135471806Y-51393686D01*
X135471806Y-50906314D01*
X135473001Y-50898769D01*
X135473001Y-50898036D01*
X135473571Y-50895171D01*
X135486731Y-50812082D01*
X135492255Y-50801240D01*
X135493937Y-50792785D01*
X135504998Y-50776232D01*
X135525524Y-50735946D01*
X135544786Y-50716684D01*
X135553557Y-50703557D01*
X135566684Y-50694786D01*
X135585946Y-50675524D01*
X135626232Y-50654998D01*
X135642785Y-50643937D01*
X135651240Y-50642255D01*
X135662082Y-50636731D01*
X135745171Y-50623571D01*
X135748036Y-50623001D01*
X135748769Y-50623001D01*
X135756314Y-50621806D01*
X136168686Y-50621806D01*
X136176231Y-50623001D01*
G37*
G36*
X137751231Y-50623001D02*
G01*
X137751964Y-50623001D01*
X137754829Y-50623571D01*
X137837918Y-50636731D01*
X137848760Y-50642255D01*
X137857215Y-50643937D01*
X137873768Y-50654998D01*
X137914054Y-50675524D01*
X137933316Y-50694786D01*
X137946443Y-50703557D01*
X137955214Y-50716684D01*
X137974476Y-50735946D01*
X137995002Y-50776232D01*
X138006063Y-50792785D01*
X138007745Y-50801240D01*
X138013269Y-50812082D01*
X138026429Y-50895171D01*
X138026999Y-50898036D01*
X138026999Y-50898769D01*
X138028194Y-50906314D01*
X138028194Y-51393686D01*
X138026999Y-51401231D01*
X138026999Y-51401964D01*
X138026429Y-51404829D01*
X138013269Y-51487918D01*
X138007745Y-51498760D01*
X138006063Y-51507215D01*
X137995002Y-51523768D01*
X137974476Y-51564054D01*
X137955214Y-51583316D01*
X137946443Y-51596443D01*
X137933316Y-51605214D01*
X137914054Y-51624476D01*
X137873768Y-51645002D01*
X137857215Y-51656063D01*
X137848760Y-51657745D01*
X137837918Y-51663269D01*
X137754829Y-51676429D01*
X137751964Y-51676999D01*
X137751231Y-51676999D01*
X137743686Y-51678194D01*
X137331314Y-51678194D01*
X137323769Y-51676999D01*
X137323036Y-51676999D01*
X137320171Y-51676429D01*
X137237082Y-51663269D01*
X137226240Y-51657745D01*
X137217785Y-51656063D01*
X137201232Y-51645002D01*
X137160946Y-51624476D01*
X137141684Y-51605214D01*
X137128557Y-51596443D01*
X137119786Y-51583316D01*
X137100524Y-51564054D01*
X137079998Y-51523768D01*
X137068937Y-51507215D01*
X137067255Y-51498760D01*
X137061731Y-51487918D01*
X137048571Y-51404829D01*
X137048001Y-51401964D01*
X137048001Y-51401231D01*
X137046806Y-51393686D01*
X137046806Y-50906314D01*
X137048001Y-50898769D01*
X137048001Y-50898036D01*
X137048571Y-50895171D01*
X137061731Y-50812082D01*
X137067255Y-50801240D01*
X137068937Y-50792785D01*
X137079998Y-50776232D01*
X137100524Y-50735946D01*
X137119786Y-50716684D01*
X137128557Y-50703557D01*
X137141684Y-50694786D01*
X137160946Y-50675524D01*
X137201232Y-50654998D01*
X137217785Y-50643937D01*
X137226240Y-50642255D01*
X137237082Y-50636731D01*
X137320171Y-50623571D01*
X137323036Y-50623001D01*
X137323769Y-50623001D01*
X137331314Y-50621806D01*
X137743686Y-50621806D01*
X137751231Y-50623001D01*
G37*
G36*
X131050655Y-48015687D02*
G01*
X131096064Y-48016004D01*
X131140544Y-48025135D01*
X131191203Y-48030459D01*
X131233616Y-48044240D01*
X131271765Y-48052071D01*
X131319591Y-48072175D01*
X131374050Y-48089870D01*
X131407156Y-48108984D01*
X131437112Y-48121576D01*
X131485514Y-48154223D01*
X131540549Y-48185998D01*
X131564220Y-48207312D01*
X131585814Y-48221877D01*
X131631577Y-48267960D01*
X131683423Y-48314643D01*
X131698385Y-48335236D01*
X131712197Y-48349145D01*
X131751831Y-48408799D01*
X131796429Y-48470182D01*
X131804177Y-48487585D01*
X131811458Y-48498543D01*
X131841397Y-48571181D01*
X131874627Y-48645817D01*
X131877255Y-48658181D01*
X131879806Y-48664370D01*
X131896621Y-48749292D01*
X131914599Y-48833872D01*
X131914599Y-49026128D01*
X131911674Y-49039889D01*
X131911588Y-49046044D01*
X131892622Y-49129521D01*
X131874627Y-49214183D01*
X131872096Y-49219868D01*
X131872044Y-49220096D01*
X131799094Y-49383945D01*
X131798958Y-49384138D01*
X131796429Y-49389818D01*
X131745585Y-49459798D01*
X131695702Y-49530512D01*
X131690855Y-49535128D01*
X131683423Y-49545357D01*
X131622674Y-49600056D01*
X131565810Y-49654207D01*
X131554710Y-49661251D01*
X131540549Y-49674002D01*
X131474834Y-49711942D01*
X131414369Y-49750315D01*
X131396092Y-49757404D01*
X131374050Y-49770130D01*
X131307708Y-49791686D01*
X131247147Y-49815176D01*
X131221491Y-49819700D01*
X131191203Y-49829541D01*
X131128004Y-49836183D01*
X131070509Y-49846321D01*
X131038022Y-49845641D01*
X131000000Y-49849637D01*
X130943058Y-49843652D01*
X130891181Y-49842566D01*
X130853138Y-49834201D01*
X130808797Y-49829541D01*
X130760355Y-49813801D01*
X130716006Y-49804050D01*
X130674395Y-49785871D01*
X130625950Y-49770130D01*
X130587335Y-49747836D01*
X130551642Y-49732242D01*
X130509034Y-49702629D01*
X130459451Y-49674002D01*
X130431045Y-49648425D01*
X130404358Y-49629877D01*
X130363795Y-49587873D01*
X130316577Y-49545357D01*
X130297857Y-49519591D01*
X130279761Y-49500852D01*
X130244581Y-49446263D01*
X130203571Y-49389818D01*
X130193216Y-49366560D01*
X130182599Y-49350086D01*
X130156240Y-49283511D01*
X130125373Y-49214183D01*
X130121411Y-49195545D01*
X130116572Y-49183322D01*
X130102398Y-49106094D01*
X130085401Y-49026128D01*
X130085401Y-49013483D01*
X130084193Y-49006901D01*
X130085401Y-48920378D01*
X130085401Y-48833872D01*
X130086694Y-48827790D01*
X130086697Y-48827553D01*
X130123987Y-48652117D01*
X130124080Y-48651900D01*
X130125373Y-48645817D01*
X130160557Y-48566793D01*
X130194649Y-48487250D01*
X130198431Y-48481727D01*
X130203571Y-48470182D01*
X130251598Y-48404078D01*
X130295982Y-48339258D01*
X130305379Y-48330056D01*
X130316577Y-48314643D01*
X130372955Y-48263880D01*
X130424128Y-48213767D01*
X130440533Y-48203032D01*
X130459451Y-48185998D01*
X130519882Y-48151108D01*
X130574220Y-48115551D01*
X130598367Y-48105795D01*
X130625950Y-48089870D01*
X130686384Y-48070234D01*
X130740518Y-48048362D01*
X130772437Y-48042273D01*
X130808797Y-48030459D01*
X130865745Y-48024474D01*
X130916707Y-48014752D01*
X130955654Y-48015024D01*
X131000000Y-48010363D01*
X131050655Y-48015687D01*
G37*
G36*
X133590655Y-48015687D02*
G01*
X133636064Y-48016004D01*
X133680544Y-48025135D01*
X133731203Y-48030459D01*
X133773616Y-48044240D01*
X133811765Y-48052071D01*
X133859591Y-48072175D01*
X133914050Y-48089870D01*
X133947156Y-48108984D01*
X133977112Y-48121576D01*
X134025514Y-48154223D01*
X134080549Y-48185998D01*
X134104220Y-48207312D01*
X134125814Y-48221877D01*
X134171577Y-48267960D01*
X134223423Y-48314643D01*
X134238385Y-48335236D01*
X134252197Y-48349145D01*
X134291831Y-48408799D01*
X134336429Y-48470182D01*
X134344177Y-48487585D01*
X134351458Y-48498543D01*
X134381397Y-48571181D01*
X134414627Y-48645817D01*
X134417255Y-48658181D01*
X134419806Y-48664370D01*
X134436621Y-48749292D01*
X134454599Y-48833872D01*
X134454599Y-49026128D01*
X134451674Y-49039889D01*
X134451588Y-49046044D01*
X134432622Y-49129521D01*
X134414627Y-49214183D01*
X134412096Y-49219868D01*
X134412044Y-49220096D01*
X134339094Y-49383945D01*
X134338958Y-49384138D01*
X134336429Y-49389818D01*
X134285585Y-49459798D01*
X134235702Y-49530512D01*
X134230855Y-49535128D01*
X134223423Y-49545357D01*
X134162674Y-49600056D01*
X134105810Y-49654207D01*
X134094710Y-49661251D01*
X134080549Y-49674002D01*
X134014834Y-49711942D01*
X133954369Y-49750315D01*
X133936092Y-49757404D01*
X133914050Y-49770130D01*
X133847708Y-49791686D01*
X133787147Y-49815176D01*
X133761491Y-49819700D01*
X133731203Y-49829541D01*
X133668004Y-49836183D01*
X133610509Y-49846321D01*
X133578022Y-49845641D01*
X133540000Y-49849637D01*
X133483058Y-49843652D01*
X133431181Y-49842566D01*
X133393138Y-49834201D01*
X133348797Y-49829541D01*
X133300355Y-49813801D01*
X133256006Y-49804050D01*
X133214395Y-49785871D01*
X133165950Y-49770130D01*
X133127335Y-49747836D01*
X133091642Y-49732242D01*
X133049034Y-49702629D01*
X132999451Y-49674002D01*
X132971045Y-49648425D01*
X132944358Y-49629877D01*
X132903795Y-49587873D01*
X132856577Y-49545357D01*
X132837857Y-49519591D01*
X132819761Y-49500852D01*
X132784581Y-49446263D01*
X132743571Y-49389818D01*
X132733216Y-49366560D01*
X132722599Y-49350086D01*
X132696240Y-49283511D01*
X132665373Y-49214183D01*
X132661411Y-49195545D01*
X132656572Y-49183322D01*
X132642398Y-49106094D01*
X132625401Y-49026128D01*
X132625401Y-49013483D01*
X132624193Y-49006901D01*
X132625401Y-48920378D01*
X132625401Y-48833872D01*
X132626694Y-48827790D01*
X132626697Y-48827553D01*
X132663987Y-48652117D01*
X132664080Y-48651900D01*
X132665373Y-48645817D01*
X132700557Y-48566793D01*
X132734649Y-48487250D01*
X132738431Y-48481727D01*
X132743571Y-48470182D01*
X132791598Y-48404078D01*
X132835982Y-48339258D01*
X132845379Y-48330056D01*
X132856577Y-48314643D01*
X132912955Y-48263880D01*
X132964128Y-48213767D01*
X132980533Y-48203032D01*
X132999451Y-48185998D01*
X133059882Y-48151108D01*
X133114220Y-48115551D01*
X133138367Y-48105795D01*
X133165950Y-48089870D01*
X133226384Y-48070234D01*
X133280518Y-48048362D01*
X133312437Y-48042273D01*
X133348797Y-48030459D01*
X133405745Y-48024474D01*
X133456707Y-48014752D01*
X133495654Y-48015024D01*
X133540000Y-48010363D01*
X133590655Y-48015687D01*
G37*
G36*
X131050655Y-45475687D02*
G01*
X131096064Y-45476004D01*
X131140544Y-45485135D01*
X131191203Y-45490459D01*
X131233616Y-45504240D01*
X131271765Y-45512071D01*
X131319591Y-45532175D01*
X131374050Y-45549870D01*
X131407156Y-45568984D01*
X131437112Y-45581576D01*
X131485514Y-45614223D01*
X131540549Y-45645998D01*
X131564220Y-45667312D01*
X131585814Y-45681877D01*
X131631577Y-45727960D01*
X131683423Y-45774643D01*
X131698385Y-45795236D01*
X131712197Y-45809145D01*
X131751831Y-45868799D01*
X131796429Y-45930182D01*
X131804177Y-45947585D01*
X131811458Y-45958543D01*
X131841397Y-46031181D01*
X131874627Y-46105817D01*
X131877255Y-46118181D01*
X131879806Y-46124370D01*
X131896621Y-46209292D01*
X131914599Y-46293872D01*
X131914599Y-46486128D01*
X131911674Y-46499889D01*
X131911588Y-46506044D01*
X131892622Y-46589521D01*
X131874627Y-46674183D01*
X131872096Y-46679868D01*
X131872044Y-46680096D01*
X131799094Y-46843945D01*
X131798958Y-46844138D01*
X131796429Y-46849818D01*
X131745585Y-46919798D01*
X131695702Y-46990512D01*
X131690855Y-46995128D01*
X131683423Y-47005357D01*
X131622674Y-47060056D01*
X131565810Y-47114207D01*
X131554710Y-47121251D01*
X131540549Y-47134002D01*
X131474834Y-47171942D01*
X131414369Y-47210315D01*
X131396092Y-47217404D01*
X131374050Y-47230130D01*
X131307708Y-47251686D01*
X131247147Y-47275176D01*
X131221491Y-47279700D01*
X131191203Y-47289541D01*
X131128004Y-47296183D01*
X131070509Y-47306321D01*
X131038022Y-47305641D01*
X131000000Y-47309637D01*
X130943058Y-47303652D01*
X130891181Y-47302566D01*
X130853138Y-47294201D01*
X130808797Y-47289541D01*
X130760355Y-47273801D01*
X130716006Y-47264050D01*
X130674395Y-47245871D01*
X130625950Y-47230130D01*
X130587335Y-47207836D01*
X130551642Y-47192242D01*
X130509034Y-47162629D01*
X130459451Y-47134002D01*
X130431045Y-47108425D01*
X130404358Y-47089877D01*
X130363795Y-47047873D01*
X130316577Y-47005357D01*
X130297857Y-46979591D01*
X130279761Y-46960852D01*
X130244581Y-46906263D01*
X130203571Y-46849818D01*
X130193216Y-46826560D01*
X130182599Y-46810086D01*
X130156240Y-46743511D01*
X130125373Y-46674183D01*
X130121411Y-46655545D01*
X130116572Y-46643322D01*
X130102398Y-46566094D01*
X130085401Y-46486128D01*
X130085401Y-46473483D01*
X130084193Y-46466901D01*
X130085401Y-46380378D01*
X130085401Y-46293872D01*
X130086694Y-46287790D01*
X130086697Y-46287553D01*
X130123987Y-46112117D01*
X130124080Y-46111900D01*
X130125373Y-46105817D01*
X130160557Y-46026793D01*
X130194649Y-45947250D01*
X130198431Y-45941727D01*
X130203571Y-45930182D01*
X130251598Y-45864078D01*
X130295982Y-45799258D01*
X130305379Y-45790056D01*
X130316577Y-45774643D01*
X130372955Y-45723880D01*
X130424128Y-45673767D01*
X130440533Y-45663032D01*
X130459451Y-45645998D01*
X130519882Y-45611108D01*
X130574220Y-45575551D01*
X130598367Y-45565795D01*
X130625950Y-45549870D01*
X130686384Y-45530234D01*
X130740518Y-45508362D01*
X130772437Y-45502273D01*
X130808797Y-45490459D01*
X130865745Y-45484474D01*
X130916707Y-45474752D01*
X130955654Y-45475024D01*
X131000000Y-45470363D01*
X131050655Y-45475687D01*
G37*
G36*
X133590655Y-45475687D02*
G01*
X133636064Y-45476004D01*
X133680544Y-45485135D01*
X133731203Y-45490459D01*
X133773616Y-45504240D01*
X133811765Y-45512071D01*
X133859591Y-45532175D01*
X133914050Y-45549870D01*
X133947156Y-45568984D01*
X133977112Y-45581576D01*
X134025514Y-45614223D01*
X134080549Y-45645998D01*
X134104220Y-45667312D01*
X134125814Y-45681877D01*
X134171577Y-45727960D01*
X134223423Y-45774643D01*
X134238385Y-45795236D01*
X134252197Y-45809145D01*
X134291831Y-45868799D01*
X134336429Y-45930182D01*
X134344177Y-45947585D01*
X134351458Y-45958543D01*
X134381397Y-46031181D01*
X134414627Y-46105817D01*
X134417255Y-46118181D01*
X134419806Y-46124370D01*
X134436621Y-46209292D01*
X134454599Y-46293872D01*
X134454599Y-46486128D01*
X134451674Y-46499889D01*
X134451588Y-46506044D01*
X134432622Y-46589521D01*
X134414627Y-46674183D01*
X134412096Y-46679868D01*
X134412044Y-46680096D01*
X134339094Y-46843945D01*
X134338958Y-46844138D01*
X134336429Y-46849818D01*
X134285585Y-46919798D01*
X134235702Y-46990512D01*
X134230855Y-46995128D01*
X134223423Y-47005357D01*
X134162674Y-47060056D01*
X134105810Y-47114207D01*
X134094710Y-47121251D01*
X134080549Y-47134002D01*
X134014834Y-47171942D01*
X133954369Y-47210315D01*
X133936092Y-47217404D01*
X133914050Y-47230130D01*
X133847708Y-47251686D01*
X133787147Y-47275176D01*
X133761491Y-47279700D01*
X133731203Y-47289541D01*
X133668004Y-47296183D01*
X133610509Y-47306321D01*
X133578022Y-47305641D01*
X133540000Y-47309637D01*
X133483058Y-47303652D01*
X133431181Y-47302566D01*
X133393138Y-47294201D01*
X133348797Y-47289541D01*
X133300355Y-47273801D01*
X133256006Y-47264050D01*
X133214395Y-47245871D01*
X133165950Y-47230130D01*
X133127335Y-47207836D01*
X133091642Y-47192242D01*
X133049034Y-47162629D01*
X132999451Y-47134002D01*
X132971045Y-47108425D01*
X132944358Y-47089877D01*
X132903795Y-47047873D01*
X132856577Y-47005357D01*
X132837857Y-46979591D01*
X132819761Y-46960852D01*
X132784581Y-46906263D01*
X132743571Y-46849818D01*
X132733216Y-46826560D01*
X132722599Y-46810086D01*
X132696240Y-46743511D01*
X132665373Y-46674183D01*
X132661411Y-46655545D01*
X132656572Y-46643322D01*
X132642398Y-46566094D01*
X132625401Y-46486128D01*
X132625401Y-46473483D01*
X132624193Y-46466901D01*
X132625401Y-46380378D01*
X132625401Y-46293872D01*
X132626694Y-46287790D01*
X132626697Y-46287553D01*
X132663987Y-46112117D01*
X132664080Y-46111900D01*
X132665373Y-46105817D01*
X132700557Y-46026793D01*
X132734649Y-45947250D01*
X132738431Y-45941727D01*
X132743571Y-45930182D01*
X132791598Y-45864078D01*
X132835982Y-45799258D01*
X132845379Y-45790056D01*
X132856577Y-45774643D01*
X132912955Y-45723880D01*
X132964128Y-45673767D01*
X132980533Y-45663032D01*
X132999451Y-45645998D01*
X133059882Y-45611108D01*
X133114220Y-45575551D01*
X133138367Y-45565795D01*
X133165950Y-45549870D01*
X133226384Y-45530234D01*
X133280518Y-45508362D01*
X133312437Y-45502273D01*
X133348797Y-45490459D01*
X133405745Y-45484474D01*
X133456707Y-45474752D01*
X133495654Y-45475024D01*
X133540000Y-45470363D01*
X133590655Y-45475687D01*
G37*
G36*
X133590655Y-42935687D02*
G01*
X133636064Y-42936004D01*
X133680544Y-42945135D01*
X133731203Y-42950459D01*
X133773616Y-42964240D01*
X133811765Y-42972071D01*
X133859591Y-42992175D01*
X133914050Y-43009870D01*
X133947156Y-43028984D01*
X133977112Y-43041576D01*
X134025514Y-43074223D01*
X134080549Y-43105998D01*
X134104220Y-43127312D01*
X134125814Y-43141877D01*
X134171577Y-43187960D01*
X134223423Y-43234643D01*
X134238385Y-43255236D01*
X134252197Y-43269145D01*
X134291831Y-43328799D01*
X134336429Y-43390182D01*
X134344177Y-43407585D01*
X134351458Y-43418543D01*
X134381397Y-43491181D01*
X134414627Y-43565817D01*
X134417255Y-43578181D01*
X134419806Y-43584370D01*
X134436621Y-43669292D01*
X134454599Y-43753872D01*
X134454599Y-43946128D01*
X134451674Y-43959889D01*
X134451588Y-43966044D01*
X134432622Y-44049521D01*
X134414627Y-44134183D01*
X134412096Y-44139868D01*
X134412044Y-44140096D01*
X134339094Y-44303945D01*
X134338958Y-44304138D01*
X134336429Y-44309818D01*
X134285585Y-44379798D01*
X134235702Y-44450512D01*
X134230855Y-44455128D01*
X134223423Y-44465357D01*
X134162674Y-44520056D01*
X134105810Y-44574207D01*
X134094710Y-44581251D01*
X134080549Y-44594002D01*
X134014834Y-44631942D01*
X133954369Y-44670315D01*
X133936092Y-44677404D01*
X133914050Y-44690130D01*
X133847708Y-44711686D01*
X133787147Y-44735176D01*
X133761491Y-44739700D01*
X133731203Y-44749541D01*
X133668004Y-44756183D01*
X133610509Y-44766321D01*
X133578022Y-44765641D01*
X133540000Y-44769637D01*
X133483058Y-44763652D01*
X133431181Y-44762566D01*
X133393138Y-44754201D01*
X133348797Y-44749541D01*
X133300355Y-44733801D01*
X133256006Y-44724050D01*
X133214395Y-44705871D01*
X133165950Y-44690130D01*
X133127335Y-44667836D01*
X133091642Y-44652242D01*
X133049034Y-44622629D01*
X132999451Y-44594002D01*
X132971045Y-44568425D01*
X132944358Y-44549877D01*
X132903795Y-44507873D01*
X132856577Y-44465357D01*
X132837857Y-44439591D01*
X132819761Y-44420852D01*
X132784581Y-44366263D01*
X132743571Y-44309818D01*
X132733216Y-44286560D01*
X132722599Y-44270086D01*
X132696240Y-44203511D01*
X132665373Y-44134183D01*
X132661411Y-44115545D01*
X132656572Y-44103322D01*
X132642398Y-44026094D01*
X132625401Y-43946128D01*
X132625401Y-43933483D01*
X132624193Y-43926901D01*
X132625401Y-43840378D01*
X132625401Y-43753872D01*
X132626694Y-43747790D01*
X132626697Y-43747553D01*
X132663987Y-43572117D01*
X132664080Y-43571900D01*
X132665373Y-43565817D01*
X132700557Y-43486793D01*
X132734649Y-43407250D01*
X132738431Y-43401727D01*
X132743571Y-43390182D01*
X132791598Y-43324078D01*
X132835982Y-43259258D01*
X132845379Y-43250056D01*
X132856577Y-43234643D01*
X132912955Y-43183880D01*
X132964128Y-43133767D01*
X132980533Y-43123032D01*
X132999451Y-43105998D01*
X133059882Y-43071108D01*
X133114220Y-43035551D01*
X133138367Y-43025795D01*
X133165950Y-43009870D01*
X133226384Y-42990234D01*
X133280518Y-42968362D01*
X133312437Y-42962273D01*
X133348797Y-42950459D01*
X133405745Y-42944474D01*
X133456707Y-42934752D01*
X133495654Y-42935024D01*
X133540000Y-42930363D01*
X133590655Y-42935687D01*
G37*
G36*
X131883499Y-42938359D02*
G01*
X131900369Y-42949631D01*
X131911641Y-42966501D01*
X131918048Y-42998712D01*
X131918048Y-44701288D01*
X131915599Y-44713600D01*
X131911641Y-44733499D01*
X131900369Y-44750369D01*
X131883499Y-44761641D01*
X131863600Y-44765599D01*
X131851288Y-44768048D01*
X130148712Y-44768048D01*
X130116501Y-44761641D01*
X130099631Y-44750369D01*
X130088359Y-44733499D01*
X130081952Y-44701288D01*
X130081952Y-42998712D01*
X130088359Y-42966501D01*
X130099631Y-42949631D01*
X130116501Y-42938359D01*
X130148712Y-42931952D01*
X131851288Y-42931952D01*
X131883499Y-42938359D01*
G37*
G36*
X142979903Y-40811781D02*
G01*
X143024638Y-40812093D01*
X143068461Y-40821088D01*
X143118361Y-40826333D01*
X143160133Y-40839906D01*
X143197724Y-40847622D01*
X143244852Y-40867433D01*
X143298489Y-40884861D01*
X143331100Y-40903689D01*
X143360615Y-40916096D01*
X143408302Y-40948261D01*
X143462512Y-40979559D01*
X143485827Y-41000552D01*
X143507102Y-41014902D01*
X143552184Y-41060300D01*
X143603262Y-41106291D01*
X143618004Y-41126581D01*
X143631609Y-41140282D01*
X143670644Y-41199035D01*
X143714587Y-41259517D01*
X143722222Y-41276666D01*
X143729389Y-41287453D01*
X143758866Y-41358970D01*
X143791622Y-41432540D01*
X143794212Y-41444723D01*
X143796725Y-41450821D01*
X143813293Y-41534495D01*
X143831000Y-41617799D01*
X143831000Y-41807197D01*
X143828116Y-41820767D01*
X143828031Y-41826829D01*
X143809343Y-41909083D01*
X143791622Y-41992456D01*
X143789130Y-41998053D01*
X143789079Y-41998278D01*
X143717211Y-42159695D01*
X143717079Y-42159883D01*
X143714587Y-42165479D01*
X143664481Y-42234444D01*
X143615358Y-42304080D01*
X143610586Y-42308624D01*
X143603262Y-42318705D01*
X143543397Y-42372608D01*
X143487397Y-42425936D01*
X143476465Y-42432874D01*
X143462512Y-42445437D01*
X143397765Y-42482819D01*
X143338212Y-42520612D01*
X143320210Y-42527595D01*
X143298489Y-42540135D01*
X143233116Y-42561376D01*
X143173469Y-42584512D01*
X143148201Y-42588967D01*
X143118361Y-42598663D01*
X143056096Y-42605207D01*
X142999461Y-42615193D01*
X142967460Y-42614523D01*
X142930001Y-42618460D01*
X142873903Y-42612564D01*
X142822800Y-42611494D01*
X142785324Y-42603254D01*
X142741641Y-42598663D01*
X142693918Y-42583157D01*
X142650226Y-42573550D01*
X142609231Y-42555640D01*
X142561513Y-42540135D01*
X142523474Y-42518173D01*
X142488311Y-42502811D01*
X142446338Y-42473639D01*
X142397490Y-42445437D01*
X142369505Y-42420239D01*
X142343216Y-42401968D01*
X142303258Y-42360590D01*
X142256740Y-42318705D01*
X142238297Y-42293321D01*
X142220474Y-42274864D01*
X142185822Y-42221095D01*
X142145415Y-42165479D01*
X142135213Y-42142564D01*
X142124755Y-42126337D01*
X142098790Y-42060759D01*
X142068380Y-41992456D01*
X142064477Y-41974094D01*
X142059708Y-41962049D01*
X142045741Y-41885946D01*
X142029002Y-41807197D01*
X142029002Y-41794744D01*
X142027812Y-41788260D01*
X142029002Y-41703033D01*
X142029002Y-41617799D01*
X142030276Y-41611806D01*
X142030279Y-41611575D01*
X142067016Y-41438744D01*
X142067106Y-41438534D01*
X142068380Y-41432540D01*
X142103043Y-41354686D01*
X142136623Y-41276337D01*
X142140349Y-41270895D01*
X142145415Y-41259517D01*
X142192747Y-41194370D01*
X142236453Y-41130539D01*
X142245707Y-41121477D01*
X142256740Y-41106291D01*
X142312298Y-41056267D01*
X142362694Y-41006915D01*
X142378849Y-40996344D01*
X142397490Y-40979559D01*
X142457027Y-40945185D01*
X142510552Y-40910160D01*
X142534341Y-40900548D01*
X142561513Y-40884861D01*
X142621046Y-40865517D01*
X142674377Y-40843970D01*
X142705821Y-40837972D01*
X142741641Y-40826333D01*
X142797745Y-40820436D01*
X142847946Y-40810860D01*
X142886313Y-40811128D01*
X142930001Y-40806536D01*
X142979903Y-40811781D01*
G37*
G36*
X140439903Y-40811781D02*
G01*
X140484638Y-40812093D01*
X140528461Y-40821088D01*
X140578361Y-40826333D01*
X140620133Y-40839906D01*
X140657724Y-40847622D01*
X140704852Y-40867433D01*
X140758489Y-40884861D01*
X140791100Y-40903689D01*
X140820615Y-40916096D01*
X140868302Y-40948261D01*
X140922512Y-40979559D01*
X140945827Y-41000552D01*
X140967102Y-41014902D01*
X141012184Y-41060300D01*
X141063262Y-41106291D01*
X141078004Y-41126581D01*
X141091609Y-41140282D01*
X141130644Y-41199035D01*
X141174587Y-41259517D01*
X141182222Y-41276666D01*
X141189389Y-41287453D01*
X141218866Y-41358970D01*
X141251622Y-41432540D01*
X141254212Y-41444723D01*
X141256725Y-41450821D01*
X141273293Y-41534495D01*
X141291000Y-41617799D01*
X141291000Y-41807197D01*
X141288116Y-41820767D01*
X141288031Y-41826829D01*
X141269343Y-41909083D01*
X141251622Y-41992456D01*
X141249130Y-41998053D01*
X141249079Y-41998278D01*
X141177211Y-42159695D01*
X141177079Y-42159883D01*
X141174587Y-42165479D01*
X141124481Y-42234444D01*
X141075358Y-42304080D01*
X141070586Y-42308624D01*
X141063262Y-42318705D01*
X141003397Y-42372608D01*
X140947397Y-42425936D01*
X140936465Y-42432874D01*
X140922512Y-42445437D01*
X140857765Y-42482819D01*
X140798212Y-42520612D01*
X140780210Y-42527595D01*
X140758489Y-42540135D01*
X140693116Y-42561376D01*
X140633469Y-42584512D01*
X140608201Y-42588967D01*
X140578361Y-42598663D01*
X140516096Y-42605207D01*
X140459461Y-42615193D01*
X140427460Y-42614523D01*
X140390001Y-42618460D01*
X140333903Y-42612564D01*
X140282800Y-42611494D01*
X140245324Y-42603254D01*
X140201641Y-42598663D01*
X140153918Y-42583157D01*
X140110226Y-42573550D01*
X140069231Y-42555640D01*
X140021513Y-42540135D01*
X139983474Y-42518173D01*
X139948311Y-42502811D01*
X139906338Y-42473639D01*
X139857490Y-42445437D01*
X139829505Y-42420239D01*
X139803216Y-42401968D01*
X139763258Y-42360590D01*
X139716740Y-42318705D01*
X139698297Y-42293321D01*
X139680474Y-42274864D01*
X139645822Y-42221095D01*
X139605415Y-42165479D01*
X139595213Y-42142564D01*
X139584755Y-42126337D01*
X139558790Y-42060759D01*
X139528380Y-41992456D01*
X139524477Y-41974094D01*
X139519708Y-41962049D01*
X139505741Y-41885946D01*
X139489002Y-41807197D01*
X139489002Y-41794744D01*
X139487812Y-41788260D01*
X139489002Y-41703033D01*
X139489002Y-41617799D01*
X139490276Y-41611806D01*
X139490279Y-41611575D01*
X139527016Y-41438744D01*
X139527106Y-41438534D01*
X139528380Y-41432540D01*
X139563043Y-41354686D01*
X139596623Y-41276337D01*
X139600349Y-41270895D01*
X139605415Y-41259517D01*
X139652747Y-41194370D01*
X139696453Y-41130539D01*
X139705707Y-41121477D01*
X139716740Y-41106291D01*
X139772298Y-41056267D01*
X139822694Y-41006915D01*
X139838849Y-40996344D01*
X139857490Y-40979559D01*
X139917027Y-40945185D01*
X139970552Y-40910160D01*
X139994341Y-40900548D01*
X140021513Y-40884861D01*
X140081046Y-40865517D01*
X140134377Y-40843970D01*
X140165821Y-40837972D01*
X140201641Y-40826333D01*
X140257745Y-40820436D01*
X140307946Y-40810860D01*
X140346313Y-40811128D01*
X140390001Y-40806536D01*
X140439903Y-40811781D01*
G37*
G36*
X149189903Y-40811780D02*
G01*
X149234638Y-40812092D01*
X149278461Y-40821087D01*
X149328361Y-40826332D01*
X149370133Y-40839905D01*
X149407724Y-40847621D01*
X149454852Y-40867432D01*
X149508489Y-40884860D01*
X149541100Y-40903688D01*
X149570615Y-40916095D01*
X149618302Y-40948260D01*
X149672512Y-40979558D01*
X149695827Y-41000551D01*
X149717102Y-41014901D01*
X149762184Y-41060299D01*
X149813262Y-41106290D01*
X149828004Y-41126580D01*
X149841609Y-41140281D01*
X149880644Y-41199034D01*
X149924587Y-41259516D01*
X149932222Y-41276665D01*
X149939389Y-41287452D01*
X149968866Y-41358969D01*
X150001622Y-41432539D01*
X150004212Y-41444722D01*
X150006725Y-41450820D01*
X150023293Y-41534494D01*
X150041000Y-41617798D01*
X150041000Y-41807196D01*
X150038116Y-41820766D01*
X150038031Y-41826828D01*
X150019343Y-41909082D01*
X150001622Y-41992455D01*
X149999130Y-41998052D01*
X149999079Y-41998277D01*
X149927211Y-42159694D01*
X149927079Y-42159882D01*
X149924587Y-42165478D01*
X149874481Y-42234443D01*
X149825358Y-42304079D01*
X149820586Y-42308623D01*
X149813262Y-42318704D01*
X149753397Y-42372607D01*
X149697397Y-42425935D01*
X149686465Y-42432873D01*
X149672512Y-42445436D01*
X149607765Y-42482818D01*
X149548212Y-42520611D01*
X149530210Y-42527594D01*
X149508489Y-42540134D01*
X149443116Y-42561375D01*
X149383469Y-42584511D01*
X149358201Y-42588966D01*
X149328361Y-42598662D01*
X149266096Y-42605206D01*
X149209461Y-42615192D01*
X149177460Y-42614522D01*
X149140001Y-42618459D01*
X149083903Y-42612563D01*
X149032800Y-42611493D01*
X148995324Y-42603253D01*
X148951641Y-42598662D01*
X148903918Y-42583156D01*
X148860226Y-42573549D01*
X148819231Y-42555639D01*
X148771513Y-42540134D01*
X148733474Y-42518172D01*
X148698311Y-42502810D01*
X148656338Y-42473638D01*
X148607490Y-42445436D01*
X148579505Y-42420238D01*
X148553216Y-42401967D01*
X148513258Y-42360589D01*
X148466740Y-42318704D01*
X148448297Y-42293320D01*
X148430474Y-42274863D01*
X148395822Y-42221094D01*
X148355415Y-42165478D01*
X148345213Y-42142563D01*
X148334755Y-42126336D01*
X148308790Y-42060758D01*
X148278380Y-41992455D01*
X148274477Y-41974093D01*
X148269708Y-41962048D01*
X148255741Y-41885945D01*
X148239002Y-41807196D01*
X148239002Y-41794743D01*
X148237812Y-41788259D01*
X148239002Y-41703032D01*
X148239002Y-41617798D01*
X148240276Y-41611805D01*
X148240279Y-41611574D01*
X148277016Y-41438743D01*
X148277106Y-41438533D01*
X148278380Y-41432539D01*
X148313043Y-41354685D01*
X148346623Y-41276336D01*
X148350349Y-41270894D01*
X148355415Y-41259516D01*
X148402747Y-41194369D01*
X148446453Y-41130538D01*
X148455707Y-41121476D01*
X148466740Y-41106290D01*
X148522298Y-41056266D01*
X148572694Y-41006914D01*
X148588849Y-40996343D01*
X148607490Y-40979558D01*
X148667027Y-40945184D01*
X148720552Y-40910159D01*
X148744341Y-40900547D01*
X148771513Y-40884860D01*
X148831046Y-40865516D01*
X148884377Y-40843969D01*
X148915821Y-40837971D01*
X148951641Y-40826332D01*
X149007745Y-40820435D01*
X149057946Y-40810859D01*
X149096313Y-40811127D01*
X149140001Y-40806535D01*
X149189903Y-40811780D01*
G37*
G36*
X151729903Y-40811780D02*
G01*
X151774638Y-40812092D01*
X151818461Y-40821087D01*
X151868361Y-40826332D01*
X151910133Y-40839905D01*
X151947724Y-40847621D01*
X151994852Y-40867432D01*
X152048489Y-40884860D01*
X152081100Y-40903688D01*
X152110615Y-40916095D01*
X152158302Y-40948260D01*
X152212512Y-40979558D01*
X152235827Y-41000551D01*
X152257102Y-41014901D01*
X152302184Y-41060299D01*
X152353262Y-41106290D01*
X152368004Y-41126580D01*
X152381609Y-41140281D01*
X152420644Y-41199034D01*
X152464587Y-41259516D01*
X152472222Y-41276665D01*
X152479389Y-41287452D01*
X152508866Y-41358969D01*
X152541622Y-41432539D01*
X152544212Y-41444722D01*
X152546725Y-41450820D01*
X152563293Y-41534494D01*
X152581000Y-41617798D01*
X152581000Y-41807196D01*
X152578116Y-41820766D01*
X152578031Y-41826828D01*
X152559343Y-41909082D01*
X152541622Y-41992455D01*
X152539130Y-41998052D01*
X152539079Y-41998277D01*
X152467211Y-42159694D01*
X152467079Y-42159882D01*
X152464587Y-42165478D01*
X152414481Y-42234443D01*
X152365358Y-42304079D01*
X152360586Y-42308623D01*
X152353262Y-42318704D01*
X152293397Y-42372607D01*
X152237397Y-42425935D01*
X152226465Y-42432873D01*
X152212512Y-42445436D01*
X152147765Y-42482818D01*
X152088212Y-42520611D01*
X152070210Y-42527594D01*
X152048489Y-42540134D01*
X151983116Y-42561375D01*
X151923469Y-42584511D01*
X151898201Y-42588966D01*
X151868361Y-42598662D01*
X151806096Y-42605206D01*
X151749461Y-42615192D01*
X151717460Y-42614522D01*
X151680001Y-42618459D01*
X151623903Y-42612563D01*
X151572800Y-42611493D01*
X151535324Y-42603253D01*
X151491641Y-42598662D01*
X151443918Y-42583156D01*
X151400226Y-42573549D01*
X151359231Y-42555639D01*
X151311513Y-42540134D01*
X151273474Y-42518172D01*
X151238311Y-42502810D01*
X151196338Y-42473638D01*
X151147490Y-42445436D01*
X151119505Y-42420238D01*
X151093216Y-42401967D01*
X151053258Y-42360589D01*
X151006740Y-42318704D01*
X150988297Y-42293320D01*
X150970474Y-42274863D01*
X150935822Y-42221094D01*
X150895415Y-42165478D01*
X150885213Y-42142563D01*
X150874755Y-42126336D01*
X150848790Y-42060758D01*
X150818380Y-41992455D01*
X150814477Y-41974093D01*
X150809708Y-41962048D01*
X150795741Y-41885945D01*
X150779002Y-41807196D01*
X150779002Y-41794743D01*
X150777812Y-41788259D01*
X150779002Y-41703032D01*
X150779002Y-41617798D01*
X150780276Y-41611805D01*
X150780279Y-41611574D01*
X150817016Y-41438743D01*
X150817106Y-41438533D01*
X150818380Y-41432539D01*
X150853043Y-41354685D01*
X150886623Y-41276336D01*
X150890349Y-41270894D01*
X150895415Y-41259516D01*
X150942747Y-41194369D01*
X150986453Y-41130538D01*
X150995707Y-41121476D01*
X151006740Y-41106290D01*
X151062298Y-41056266D01*
X151112694Y-41006914D01*
X151128849Y-40996343D01*
X151147490Y-40979558D01*
X151207027Y-40945184D01*
X151260552Y-40910159D01*
X151284341Y-40900547D01*
X151311513Y-40884860D01*
X151371046Y-40865516D01*
X151424377Y-40843969D01*
X151455821Y-40837971D01*
X151491641Y-40826332D01*
X151547745Y-40820435D01*
X151597946Y-40810859D01*
X151636313Y-40811127D01*
X151680001Y-40806535D01*
X151729903Y-40811780D01*
G37*
G36*
X138719900Y-40814457D02*
G01*
X138736770Y-40825729D01*
X138748042Y-40842599D01*
X138754449Y-40874810D01*
X138754449Y-42550186D01*
X138752000Y-42562497D01*
X138752000Y-42562498D01*
X138748042Y-42582397D01*
X138736770Y-42599267D01*
X138719900Y-42610539D01*
X138700001Y-42614497D01*
X138687689Y-42616946D01*
X137012313Y-42616946D01*
X136980102Y-42610539D01*
X136963232Y-42599267D01*
X136951960Y-42582397D01*
X136945553Y-42550186D01*
X136945553Y-40874810D01*
X136951960Y-40842599D01*
X136963232Y-40825729D01*
X136980102Y-40814457D01*
X137012313Y-40808050D01*
X138687689Y-40808050D01*
X138719900Y-40814457D01*
G37*
G36*
X147469900Y-40814456D02*
G01*
X147486770Y-40825728D01*
X147498042Y-40842598D01*
X147504449Y-40874809D01*
X147504449Y-42550185D01*
X147502000Y-42562497D01*
X147498042Y-42582396D01*
X147486770Y-42599266D01*
X147469900Y-42610538D01*
X147450001Y-42614496D01*
X147437689Y-42616945D01*
X145762313Y-42616945D01*
X145730102Y-42610538D01*
X145713232Y-42599266D01*
X145701960Y-42582396D01*
X145695553Y-42550185D01*
X145695553Y-40874809D01*
X145701960Y-40842598D01*
X145713232Y-40825728D01*
X145730102Y-40814456D01*
X145762313Y-40808049D01*
X147437689Y-40808049D01*
X147469900Y-40814456D01*
G37*
M02*
