G04 #@! TF.GenerationSoftware,KiCad,Pcbnew,(5.99.0-286-g11f0acefe)*
G04 #@! TF.CreationDate,2019-12-02T23:07:14-05:00*
G04 #@! TF.ProjectId,Controller,436f6e74-726f-46c6-9c65-722e6b696361,rev?*
G04 #@! TF.SameCoordinates,Original*
G04 #@! TF.FileFunction,Copper,L2,Bot*
G04 #@! TF.FilePolarity,Positive*
%FSLAX46Y46*%
G04 Gerber Fmt 4.6, Leading zero omitted, Abs format (unit mm)*
G04 Created by KiCad (PCBNEW (5.99.0-286-g11f0acefe)) date 2019-12-02 23:07:14*
%MOMM*%
%LPD*%
G04 APERTURE LIST*
%ADD10C,4.400000*%
%ADD11O,1.727200X1.727200*%
%ADD12R,1.727200X1.727200*%
%ADD13C,1.500000*%
%ADD14R,1.300000X1.550000*%
%ADD15O,1.700000X1.700000*%
%ADD16R,1.700000X1.700000*%
%ADD17O,1.700000X1.350000*%
%ADD18O,1.500000X1.100000*%
%ADD19C,0.800000*%
%ADD20C,0.500000*%
%ADD21C,0.160000*%
%ADD22C,0.250000*%
%ADD23C,0.200000*%
%ADD24C,0.254000*%
G04 APERTURE END LIST*
D10*
X150550000Y-49800000D03*
X131750000Y-66400000D03*
D11*
X133540000Y-51470000D03*
X131000000Y-51470000D03*
X133540000Y-48930000D03*
X131000000Y-48930000D03*
X133540000Y-46390000D03*
X131000000Y-46390000D03*
X133540000Y-43850000D03*
D12*
X131000000Y-43850000D03*
D13*
X141113750Y-51381250D03*
X145993750Y-51381250D03*
D14*
X143100000Y-55375000D03*
X147600000Y-55375000D03*
X147600000Y-63325000D03*
X143100000Y-63325000D03*
X136400000Y-55275000D03*
X140900000Y-55275000D03*
X140900000Y-63225000D03*
X136400000Y-63225000D03*
G04 #@! TA.AperFunction,SMDPad,CuDef*
G36*
X134939962Y-58641651D02*
G01*
X135010930Y-58689070D01*
X135058349Y-58760038D01*
X135075000Y-58843750D01*
X135075000Y-59356250D01*
X135058349Y-59439962D01*
X135010930Y-59510930D01*
X134939962Y-59558349D01*
X134856250Y-59575000D01*
X134418750Y-59575000D01*
X134335038Y-59558349D01*
X134264070Y-59510930D01*
X134216651Y-59439962D01*
X134200000Y-59356250D01*
X134200000Y-58843750D01*
X134216651Y-58760038D01*
X134264070Y-58689070D01*
X134335038Y-58641651D01*
X134418750Y-58625000D01*
X134856250Y-58625000D01*
X134939962Y-58641651D01*
G37*
G04 #@! TD.AperFunction*
G04 #@! TA.AperFunction,SMDPad,CuDef*
G36*
X133364962Y-58641651D02*
G01*
X133435930Y-58689070D01*
X133483349Y-58760038D01*
X133500000Y-58843750D01*
X133500000Y-59356250D01*
X133483349Y-59439962D01*
X133435930Y-59510930D01*
X133364962Y-59558349D01*
X133281250Y-59575000D01*
X132843750Y-59575000D01*
X132760038Y-59558349D01*
X132689070Y-59510930D01*
X132641651Y-59439962D01*
X132625000Y-59356250D01*
X132625000Y-58843750D01*
X132641651Y-58760038D01*
X132689070Y-58689070D01*
X132760038Y-58641651D01*
X132843750Y-58625000D01*
X133281250Y-58625000D01*
X133364962Y-58641651D01*
G37*
G04 #@! TD.AperFunction*
G04 #@! TA.AperFunction,SMDPad,CuDef*
G36*
X136264962Y-50691651D02*
G01*
X136335930Y-50739070D01*
X136383349Y-50810038D01*
X136400000Y-50893750D01*
X136400000Y-51406250D01*
X136383349Y-51489962D01*
X136335930Y-51560930D01*
X136264962Y-51608349D01*
X136181250Y-51625000D01*
X135743750Y-51625000D01*
X135660038Y-51608349D01*
X135589070Y-51560930D01*
X135541651Y-51489962D01*
X135525000Y-51406250D01*
X135525000Y-50893750D01*
X135541651Y-50810038D01*
X135589070Y-50739070D01*
X135660038Y-50691651D01*
X135743750Y-50675000D01*
X136181250Y-50675000D01*
X136264962Y-50691651D01*
G37*
G04 #@! TD.AperFunction*
G04 #@! TA.AperFunction,SMDPad,CuDef*
G36*
X137839962Y-50691651D02*
G01*
X137910930Y-50739070D01*
X137958349Y-50810038D01*
X137975000Y-50893750D01*
X137975000Y-51406250D01*
X137958349Y-51489962D01*
X137910930Y-51560930D01*
X137839962Y-51608349D01*
X137756250Y-51625000D01*
X137318750Y-51625000D01*
X137235038Y-51608349D01*
X137164070Y-51560930D01*
X137116651Y-51489962D01*
X137100000Y-51406250D01*
X137100000Y-50893750D01*
X137116651Y-50810038D01*
X137164070Y-50739070D01*
X137235038Y-50691651D01*
X137318750Y-50675000D01*
X137756250Y-50675000D01*
X137839962Y-50691651D01*
G37*
G04 #@! TD.AperFunction*
D15*
X151680001Y-41712497D03*
X149140001Y-41712497D03*
D16*
X146600001Y-41712497D03*
D15*
X142930001Y-41712498D03*
X140390001Y-41712498D03*
D16*
X137850001Y-41712498D03*
D17*
X152123750Y-56211251D03*
X152123750Y-61671251D03*
D18*
X149123750Y-56521251D03*
X149123750Y-61361251D03*
G04 #@! TA.AperFunction,SMDPad,CuDef*
G36*
X134939962Y-60341651D02*
G01*
X135010930Y-60389070D01*
X135058349Y-60460038D01*
X135075000Y-60543750D01*
X135075000Y-61056250D01*
X135058349Y-61139962D01*
X135010930Y-61210930D01*
X134939962Y-61258349D01*
X134856250Y-61275000D01*
X134418750Y-61275000D01*
X134335038Y-61258349D01*
X134264070Y-61210930D01*
X134216651Y-61139962D01*
X134200000Y-61056250D01*
X134200000Y-60543750D01*
X134216651Y-60460038D01*
X134264070Y-60389070D01*
X134335038Y-60341651D01*
X134418750Y-60325000D01*
X134856250Y-60325000D01*
X134939962Y-60341651D01*
G37*
G04 #@! TD.AperFunction*
G04 #@! TA.AperFunction,SMDPad,CuDef*
G36*
X133364962Y-60341651D02*
G01*
X133435930Y-60389070D01*
X133483349Y-60460038D01*
X133500000Y-60543750D01*
X133500000Y-61056250D01*
X133483349Y-61139962D01*
X133435930Y-61210930D01*
X133364962Y-61258349D01*
X133281250Y-61275000D01*
X132843750Y-61275000D01*
X132760038Y-61258349D01*
X132689070Y-61210930D01*
X132641651Y-61139962D01*
X132625000Y-61056250D01*
X132625000Y-60543750D01*
X132641651Y-60460038D01*
X132689070Y-60389070D01*
X132760038Y-60341651D01*
X132843750Y-60325000D01*
X133281250Y-60325000D01*
X133364962Y-60341651D01*
G37*
G04 #@! TD.AperFunction*
G04 #@! TA.AperFunction,SMDPad,CuDef*
G36*
X137839962Y-52341651D02*
G01*
X137910930Y-52389070D01*
X137958349Y-52460038D01*
X137975000Y-52543750D01*
X137975000Y-53056250D01*
X137958349Y-53139962D01*
X137910930Y-53210930D01*
X137839962Y-53258349D01*
X137756250Y-53275000D01*
X137318750Y-53275000D01*
X137235038Y-53258349D01*
X137164070Y-53210930D01*
X137116651Y-53139962D01*
X137100000Y-53056250D01*
X137100000Y-52543750D01*
X137116651Y-52460038D01*
X137164070Y-52389070D01*
X137235038Y-52341651D01*
X137318750Y-52325000D01*
X137756250Y-52325000D01*
X137839962Y-52341651D01*
G37*
G04 #@! TD.AperFunction*
G04 #@! TA.AperFunction,SMDPad,CuDef*
G36*
X136264962Y-52341651D02*
G01*
X136335930Y-52389070D01*
X136383349Y-52460038D01*
X136400000Y-52543750D01*
X136400000Y-53056250D01*
X136383349Y-53139962D01*
X136335930Y-53210930D01*
X136264962Y-53258349D01*
X136181250Y-53275000D01*
X135743750Y-53275000D01*
X135660038Y-53258349D01*
X135589070Y-53210930D01*
X135541651Y-53139962D01*
X135525000Y-53056250D01*
X135525000Y-52543750D01*
X135541651Y-52460038D01*
X135589070Y-52389070D01*
X135660038Y-52341651D01*
X135743750Y-52325000D01*
X136181250Y-52325000D01*
X136264962Y-52341651D01*
G37*
G04 #@! TD.AperFunction*
D15*
X128293750Y-60460000D03*
D16*
X128293750Y-63000000D03*
D19*
X141500000Y-44500000D03*
X141204662Y-49204662D03*
X136000000Y-49000000D03*
X145000000Y-53000000D03*
X142500000Y-53000000D03*
X140900000Y-59600000D03*
X135000000Y-66100000D03*
X152100000Y-67500000D03*
X139000000Y-66900000D03*
X150950000Y-67600000D03*
X152350000Y-53900000D03*
X147150000Y-56850000D03*
X143800000Y-49200000D03*
X139649998Y-55314452D03*
X139075010Y-51900000D03*
X140900000Y-55275000D03*
X133500000Y-53900000D03*
X151137340Y-65637340D03*
X151300000Y-64150000D03*
X146200000Y-48100000D03*
X136300000Y-64600000D03*
X135000000Y-63950000D03*
X131969193Y-59115011D03*
X128650000Y-53400000D03*
X128600000Y-56050000D03*
X140650000Y-46500000D03*
X137900000Y-50100000D03*
X147200000Y-65500000D03*
X142950000Y-67000000D03*
X130412500Y-56300000D03*
X133012500Y-56300000D03*
X147450001Y-43612499D03*
X142600001Y-45562498D03*
X139400001Y-44112498D03*
X142593750Y-65481250D03*
X145593749Y-62881248D03*
X147393750Y-59681248D03*
X146443750Y-58131251D03*
D20*
X142600001Y-45562498D02*
X144550001Y-43612498D01*
X144550001Y-43612498D02*
X144830000Y-43612498D01*
X142600001Y-45562498D02*
X142034316Y-45562498D01*
X142034316Y-45562498D02*
X141971818Y-45500000D01*
X141971818Y-45500000D02*
X140500000Y-45500000D01*
X140500000Y-45500000D02*
X139400001Y-44400001D01*
X139400001Y-44400001D02*
X139400001Y-44112498D01*
X142930001Y-41712498D02*
X144830002Y-43612499D01*
X144830002Y-43612499D02*
X147450001Y-43612499D01*
X135350000Y-41350000D02*
X136500000Y-42500000D01*
X130962798Y-41350000D02*
X135350000Y-41350000D01*
X126800000Y-45512798D02*
X130962798Y-41350000D01*
X136500000Y-42500000D02*
X136500000Y-42872499D01*
X126800000Y-58966250D02*
X126800000Y-45512798D01*
X128293750Y-60460000D02*
X126800000Y-58966250D01*
X136500000Y-42872499D02*
X137739999Y-44112498D01*
X137739999Y-44112498D02*
X138834316Y-44112498D01*
X138834316Y-44112498D02*
X139400001Y-44112498D01*
X137850001Y-41712498D02*
X137850001Y-41850001D01*
D21*
X141500000Y-44500000D02*
X141500000Y-42822497D01*
X141500000Y-42822497D02*
X140390001Y-41712498D01*
D22*
X140900000Y-59600000D02*
X140900000Y-55275000D01*
D23*
X131750000Y-66400000D02*
X131750000Y-63288731D01*
X131750000Y-63288731D02*
X128921269Y-60460000D01*
X128921269Y-60460000D02*
X128293750Y-60460000D01*
X150750000Y-63650000D02*
X150450000Y-63950000D01*
X150450000Y-63950000D02*
X150450000Y-64950000D01*
X150750000Y-53850000D02*
X150750000Y-63650000D01*
X147850000Y-50950000D02*
X150750000Y-53850000D01*
X147850000Y-50315685D02*
X147850000Y-50950000D01*
X146200000Y-48100000D02*
X146200000Y-48665685D01*
X146200000Y-48665685D02*
X147850000Y-50315685D01*
X137300000Y-68400000D02*
X135000000Y-66100000D01*
X151200000Y-68400000D02*
X137300000Y-68400000D01*
X152100000Y-67500000D02*
X151200000Y-68400000D01*
X139800000Y-67700000D02*
X139000000Y-66900000D01*
X150284315Y-67700000D02*
X139800000Y-67700000D01*
X150950000Y-67600000D02*
X150384315Y-67600000D01*
X150384315Y-67600000D02*
X150284315Y-67700000D01*
D22*
X152350000Y-55060001D02*
X152350000Y-53900000D01*
X152123750Y-56211251D02*
X152123750Y-55286251D01*
X152123750Y-55286251D02*
X152350000Y-55060001D01*
X147150000Y-56850000D02*
X148795001Y-56850000D01*
X148795001Y-56850000D02*
X149123750Y-56521251D01*
X143800000Y-49200000D02*
X143800000Y-46762497D01*
X143800000Y-46762497D02*
X142600001Y-45562498D01*
X139649998Y-54949998D02*
X139649998Y-55314452D01*
X138350000Y-53650000D02*
X139649998Y-54949998D01*
X138350000Y-51525000D02*
X138350000Y-53650000D01*
X137975000Y-51150000D02*
X138350000Y-51525000D01*
X140900000Y-55275000D02*
X140900000Y-53724990D01*
X139475009Y-52299999D02*
X139075010Y-51900000D01*
X137537500Y-51150000D02*
X137975000Y-51150000D01*
X140900000Y-53724990D02*
X139475009Y-52299999D01*
X141050000Y-47650000D02*
X132280000Y-47650000D01*
X143750000Y-50350000D02*
X141050000Y-47650000D01*
X132280000Y-47650000D02*
X131000000Y-48930000D01*
X143750000Y-53450000D02*
X143750000Y-50350000D01*
X145537500Y-56537500D02*
X145537500Y-55237500D01*
X145537500Y-55237500D02*
X143750000Y-53450000D01*
X145537500Y-56537500D02*
X145450000Y-56625000D01*
X146700000Y-55375000D02*
X145537500Y-56537500D01*
X133012500Y-54387500D02*
X133500000Y-53900000D01*
X133012500Y-56300000D02*
X133012500Y-54387500D01*
X147850000Y-64750000D02*
X146896816Y-64750000D01*
X145593749Y-63446933D02*
X145593749Y-62881248D01*
X146896816Y-64750000D02*
X145593749Y-63446933D01*
X148300000Y-65200000D02*
X147850000Y-64750000D01*
X148300000Y-65800000D02*
X148300000Y-65200000D01*
X149250000Y-66750000D02*
X148300000Y-65800000D01*
X151050000Y-66750000D02*
X149250000Y-66750000D01*
X152700000Y-65100000D02*
X151050000Y-66750000D01*
X150737341Y-65237341D02*
X151137340Y-65637340D01*
X152700000Y-64984315D02*
X152700000Y-65100000D01*
X150450000Y-64950000D02*
X150737341Y-65237341D01*
X151300000Y-64150000D02*
X151865685Y-64150000D01*
X151865685Y-64150000D02*
X152700000Y-64984315D01*
X136300000Y-64600000D02*
X136300000Y-63325000D01*
X136300000Y-63325000D02*
X136400000Y-63225000D01*
X134637500Y-59100000D02*
X134637500Y-60800000D01*
X133850000Y-62800000D02*
X135000000Y-63950000D01*
X133850000Y-59450000D02*
X133850000Y-62800000D01*
X133062500Y-59100000D02*
X133500000Y-59100000D01*
X133500000Y-59100000D02*
X133850000Y-59450000D01*
X131969193Y-59115011D02*
X131969193Y-59706693D01*
X131969193Y-59706693D02*
X133062500Y-60800000D01*
X136400000Y-53937500D02*
X134786186Y-53937500D01*
X134786186Y-53937500D02*
X133540000Y-52691314D01*
X133540000Y-52691314D02*
X133540000Y-51470000D01*
X128600000Y-53450000D02*
X128650000Y-53400000D01*
X128600000Y-56050000D02*
X128600000Y-53450000D01*
D20*
X137850001Y-40999999D02*
X137850001Y-41712498D01*
D22*
X140650000Y-46500000D02*
X133650000Y-46500000D01*
X133650000Y-46500000D02*
X133540000Y-46390000D01*
X133540000Y-43850000D02*
X139137503Y-43850000D01*
X139137503Y-43850000D02*
X139400001Y-44112498D01*
X145450000Y-59800000D02*
X147600000Y-61950000D01*
X147600000Y-61950000D02*
X147600000Y-63325000D01*
X145450000Y-56625000D02*
X145450000Y-59800000D01*
X147600000Y-55375000D02*
X146700000Y-55375000D01*
X137537500Y-50462500D02*
X137900000Y-50100000D01*
X137537500Y-51150000D02*
X137537500Y-50462500D01*
X135962500Y-52800000D02*
X135962500Y-51150000D01*
X136400000Y-55275000D02*
X136400000Y-53937500D01*
X136400000Y-53937500D02*
X137537500Y-52800000D01*
X136400000Y-63225000D02*
X136400000Y-55275000D01*
X143100000Y-63325000D02*
X143100000Y-64975000D01*
X143100000Y-64975000D02*
X142593750Y-65481250D01*
X140900000Y-55275000D02*
X143000000Y-55275000D01*
X143000000Y-55275000D02*
X143100000Y-55375000D01*
X140900000Y-63225000D02*
X140900000Y-62200000D01*
X140900000Y-62200000D02*
X140900000Y-59600000D01*
X143100000Y-63325000D02*
X141000000Y-63325000D01*
X141000000Y-63325000D02*
X140900000Y-63225000D01*
X145700000Y-67000000D02*
X147200000Y-65500000D01*
X142950000Y-67000000D02*
X145700000Y-67000000D01*
X133012500Y-56300000D02*
X130412500Y-56300000D01*
X147450001Y-43612499D02*
X149780000Y-43612498D01*
X149780000Y-43612498D02*
X151679999Y-41712498D01*
X147450001Y-43612499D02*
X144830000Y-43612498D01*
X142993751Y-65481251D02*
X142593750Y-65481250D01*
X145593749Y-62881248D02*
X142993751Y-65481251D01*
X146443750Y-58731250D02*
X147393750Y-59681248D01*
X146443750Y-58131251D02*
X146443750Y-58731250D01*
G36*
X145145045Y-40642311D02*
G01*
X145108164Y-40851473D01*
X145108164Y-42579085D01*
X145188796Y-42880009D01*
X145336186Y-43055662D01*
X145529815Y-43167453D01*
X145738977Y-43204334D01*
X147466589Y-43204334D01*
X147767513Y-43123702D01*
X147943166Y-42976312D01*
X148054957Y-42782683D01*
X148063523Y-42734101D01*
X148141494Y-42817568D01*
X148341961Y-42970007D01*
X148565247Y-43086489D01*
X148804967Y-43163687D01*
X149054267Y-43199389D01*
X149306018Y-43192577D01*
X149553023Y-43143445D01*
X149788217Y-43053398D01*
X150004878Y-42925009D01*
X150196808Y-42761952D01*
X150358522Y-42568888D01*
X150409502Y-42481472D01*
X150509576Y-42633530D01*
X150681494Y-42817568D01*
X150881961Y-42970007D01*
X151105247Y-43086489D01*
X151344967Y-43163687D01*
X151552001Y-43193336D01*
X151552001Y-41584497D01*
X151808001Y-41584497D01*
X151808001Y-43200139D01*
X152093023Y-43143445D01*
X152328217Y-43053398D01*
X152544878Y-42925009D01*
X152736808Y-42761952D01*
X152866002Y-42607713D01*
X152866002Y-48166215D01*
X152790350Y-48055935D01*
X152642772Y-47888248D01*
X150731019Y-49800000D01*
X152642449Y-51711429D01*
X152750207Y-51594442D01*
X152866002Y-51433592D01*
X152866001Y-55030484D01*
X152801825Y-54996720D01*
X152571275Y-54925132D01*
X152251750Y-54891549D01*
X152251750Y-57530168D01*
X152538316Y-57503837D01*
X152769860Y-57438535D01*
X152866001Y-57391123D01*
X152866001Y-60490484D01*
X152801825Y-60456720D01*
X152571275Y-60385132D01*
X152251750Y-60351549D01*
X152251750Y-62990168D01*
X152538316Y-62963837D01*
X152769860Y-62898535D01*
X152866001Y-62851123D01*
X152866001Y-66803704D01*
X152734891Y-66672594D01*
X152499109Y-66536466D01*
X152236128Y-66466000D01*
X151963872Y-66466000D01*
X151700891Y-66536466D01*
X151465109Y-66672594D01*
X151445555Y-66692149D01*
X151366388Y-66646442D01*
X151536449Y-66600874D01*
X151772231Y-66464746D01*
X151964746Y-66272231D01*
X152100874Y-66036449D01*
X152171340Y-65773468D01*
X152171340Y-65501212D01*
X152100874Y-65238231D01*
X151964746Y-65002449D01*
X151772231Y-64809934D01*
X151536449Y-64673806D01*
X151273468Y-64603340D01*
X151184000Y-64603340D01*
X151184000Y-64254031D01*
X151351220Y-64086812D01*
X151377774Y-64034697D01*
X151412149Y-63987383D01*
X151430223Y-63931758D01*
X151456776Y-63879646D01*
X151465926Y-63821876D01*
X151483999Y-63766254D01*
X151483999Y-63708279D01*
X151484000Y-63708273D01*
X151484000Y-62897682D01*
X151676225Y-62957370D01*
X151995750Y-62990953D01*
X151995750Y-60352334D01*
X151709184Y-60378665D01*
X151484000Y-60442173D01*
X151484000Y-57437682D01*
X151676225Y-57497370D01*
X151995750Y-57530953D01*
X151995750Y-54892334D01*
X151709184Y-54918665D01*
X151484000Y-54982173D01*
X151484000Y-53791727D01*
X151483999Y-53791721D01*
X151483999Y-53733746D01*
X151465926Y-53678124D01*
X151456776Y-53620354D01*
X151430223Y-53568242D01*
X151412149Y-53512617D01*
X151377774Y-53465303D01*
X151351219Y-53413187D01*
X151313819Y-53375787D01*
X151313816Y-53375783D01*
X150572833Y-52634801D01*
X150673843Y-52636476D01*
X151013711Y-52601054D01*
X151346862Y-52525058D01*
X151668471Y-52409588D01*
X151973878Y-52256319D01*
X152258659Y-52067468D01*
X152462586Y-51893606D01*
X148457531Y-47888551D01*
X148331125Y-48028695D01*
X148134396Y-48308092D01*
X147972658Y-48609101D01*
X147848254Y-48927360D01*
X147776840Y-49204494D01*
X147129831Y-48557485D01*
X147163534Y-48499109D01*
X147234000Y-48236128D01*
X147234000Y-47963872D01*
X147165173Y-47707005D01*
X148638025Y-47707005D01*
X150550000Y-49618981D01*
X152461541Y-47707439D01*
X152309663Y-47571881D01*
X152029240Y-47376617D01*
X151727388Y-47216458D01*
X151408482Y-47093722D01*
X151077140Y-47010188D01*
X150738164Y-46967065D01*
X150396461Y-46964977D01*
X150056982Y-47003956D01*
X149724645Y-47083437D01*
X149404263Y-47202267D01*
X149100478Y-47358727D01*
X148817689Y-47550549D01*
X148638025Y-47707005D01*
X147165173Y-47707005D01*
X147163534Y-47700891D01*
X147027406Y-47465109D01*
X146834891Y-47272594D01*
X146599109Y-47136466D01*
X146336128Y-47066000D01*
X146063872Y-47066000D01*
X145800891Y-47136466D01*
X145565109Y-47272594D01*
X145372594Y-47465109D01*
X145236466Y-47700891D01*
X145166000Y-47963872D01*
X145166000Y-48236128D01*
X145236466Y-48499109D01*
X145372594Y-48734891D01*
X145485732Y-48848028D01*
X145493224Y-48895331D01*
X145519779Y-48947448D01*
X145537851Y-49003066D01*
X145572226Y-49050381D01*
X145598781Y-49102497D01*
X145640815Y-49144531D01*
X145640821Y-49144538D01*
X146669675Y-50173392D01*
X146552291Y-50108859D01*
X146318142Y-50030059D01*
X146073740Y-49993969D01*
X145826810Y-50001729D01*
X145585156Y-50053094D01*
X145356417Y-50146441D01*
X145147824Y-50278818D01*
X144965970Y-50446042D01*
X144816602Y-50642827D01*
X144704443Y-50862952D01*
X144633036Y-51099460D01*
X144604642Y-51344875D01*
X144620154Y-51591440D01*
X144679084Y-51831361D01*
X144779569Y-52057054D01*
X144918434Y-52261386D01*
X145091287Y-52437899D01*
X145292666Y-52581011D01*
X145516206Y-52686201D01*
X145754840Y-52750143D01*
X146001025Y-52770816D01*
X146246982Y-52747567D01*
X146484933Y-52681128D01*
X146707359Y-52573604D01*
X146907229Y-52428390D01*
X147078224Y-52250078D01*
X147214941Y-52044303D01*
X147313057Y-51817569D01*
X147369852Y-51575424D01*
X147371576Y-51509608D01*
X150016000Y-54154032D01*
X150016000Y-55556457D01*
X149995904Y-55539594D01*
X149792432Y-55427735D01*
X149570684Y-55357392D01*
X149251750Y-55323871D01*
X149251750Y-57718033D01*
X149554835Y-57688316D01*
X149777118Y-57621204D01*
X149982133Y-57512196D01*
X150016000Y-57484575D01*
X150016001Y-60396457D01*
X149995904Y-60379594D01*
X149792432Y-60267735D01*
X149570684Y-60197392D01*
X149251750Y-60163871D01*
X149251750Y-62558033D01*
X149554835Y-62528316D01*
X149777118Y-62461204D01*
X149982133Y-62352196D01*
X150016001Y-62324574D01*
X150016001Y-63345968D01*
X149888330Y-63473638D01*
X149888326Y-63473643D01*
X149848780Y-63513189D01*
X149822225Y-63565304D01*
X149787851Y-63612618D01*
X149769777Y-63668243D01*
X149743224Y-63720355D01*
X149734074Y-63778125D01*
X149716001Y-63833747D01*
X149716001Y-63891722D01*
X149716000Y-63891728D01*
X149716001Y-64752845D01*
X149691001Y-64829787D01*
X149691001Y-65070213D01*
X149765297Y-65298874D01*
X149871070Y-65444457D01*
X150103340Y-65676728D01*
X150103340Y-65773468D01*
X150173806Y-66036449D01*
X150309934Y-66272231D01*
X150502449Y-66464746D01*
X150720952Y-66590898D01*
X150550891Y-66636466D01*
X150315109Y-66772594D01*
X150201972Y-66885732D01*
X150154670Y-66893224D01*
X150102555Y-66919778D01*
X150046933Y-66937851D01*
X150008189Y-66966000D01*
X146807387Y-66966000D01*
X147239388Y-66534000D01*
X147336128Y-66534000D01*
X147599109Y-66463534D01*
X147834891Y-66327406D01*
X148027406Y-66134891D01*
X148163534Y-65899109D01*
X148234000Y-65636128D01*
X148234000Y-65363872D01*
X148163534Y-65100891D01*
X148027406Y-64865109D01*
X147904134Y-64741837D01*
X148266588Y-64741837D01*
X148567512Y-64661205D01*
X148743165Y-64513815D01*
X148854956Y-64320186D01*
X148891837Y-64111024D01*
X148891837Y-62547710D01*
X148995750Y-62558631D01*
X148995750Y-60164469D01*
X148692665Y-60194186D01*
X148470382Y-60261298D01*
X148265367Y-60370306D01*
X148085431Y-60517058D01*
X147937424Y-60695966D01*
X147826988Y-60900215D01*
X147778912Y-61055525D01*
X147438635Y-60715248D01*
X147529878Y-60715248D01*
X147792859Y-60644782D01*
X148028641Y-60508654D01*
X148221156Y-60316139D01*
X148357284Y-60080357D01*
X148427750Y-59817376D01*
X148427750Y-59545120D01*
X148357284Y-59282139D01*
X148221156Y-59046357D01*
X148028641Y-58853842D01*
X147792859Y-58717714D01*
X147529878Y-58647248D01*
X147433137Y-58647248D01*
X147373963Y-58588074D01*
X147407284Y-58530360D01*
X147477750Y-58267379D01*
X147477750Y-57995123D01*
X147407284Y-57732142D01*
X147271156Y-57496360D01*
X147078641Y-57303845D01*
X146842859Y-57167717D01*
X146579878Y-57097251D01*
X146307622Y-57097251D01*
X146209000Y-57123677D01*
X146209000Y-56939387D01*
X146522058Y-56626329D01*
X146536185Y-56643165D01*
X146729814Y-56754956D01*
X146938976Y-56791837D01*
X147769125Y-56791837D01*
X147820658Y-56966929D01*
X147928232Y-57172700D01*
X148073726Y-57353656D01*
X148251596Y-57502908D01*
X148455068Y-57614767D01*
X148676816Y-57685110D01*
X148995750Y-57718631D01*
X148995750Y-55324468D01*
X148891837Y-55334657D01*
X148891837Y-54583412D01*
X148811205Y-54282489D01*
X148663815Y-54106835D01*
X148470186Y-53995044D01*
X148261024Y-53958163D01*
X146933412Y-53958163D01*
X146632489Y-54038795D01*
X146456835Y-54186185D01*
X146345044Y-54379814D01*
X146308163Y-54588976D01*
X146308163Y-54721510D01*
X146302196Y-54725846D01*
X146248310Y-54753302D01*
X146178304Y-54823309D01*
X146159198Y-54785810D01*
X146115757Y-54742369D01*
X146115751Y-54742362D01*
X144509000Y-53135613D01*
X144509000Y-50229786D01*
X144490310Y-50172265D01*
X144480850Y-50112533D01*
X144453392Y-50058642D01*
X144434703Y-50001125D01*
X144399153Y-49952195D01*
X144371698Y-49898310D01*
X144328257Y-49854869D01*
X144328251Y-49854862D01*
X141672047Y-47198661D01*
X141672045Y-47198657D01*
X141525308Y-47051921D01*
X141613534Y-46899109D01*
X141684000Y-46636128D01*
X141684000Y-46363872D01*
X141613534Y-46100891D01*
X141477406Y-45865109D01*
X141284891Y-45672594D01*
X141049109Y-45536466D01*
X140786128Y-45466000D01*
X140513872Y-45466000D01*
X140250891Y-45536466D01*
X140015109Y-45672594D01*
X139946704Y-45741000D01*
X134892663Y-45741000D01*
X134787518Y-45551703D01*
X134628438Y-45353494D01*
X134438237Y-45184922D01*
X134334129Y-45120246D01*
X134412803Y-45073625D01*
X134606493Y-44909074D01*
X134769688Y-44714240D01*
X134897723Y-44494695D01*
X134986937Y-44256715D01*
X135040358Y-43978000D01*
X133412000Y-43978000D01*
X133412000Y-43722000D01*
X133668000Y-43722000D01*
X135037361Y-43722000D01*
X134995137Y-43473676D01*
X134910927Y-43233881D01*
X134787518Y-43011703D01*
X134628438Y-42813494D01*
X134438237Y-42644922D01*
X134222354Y-42510807D01*
X133986958Y-42414983D01*
X133668000Y-42344563D01*
X133668000Y-43722000D01*
X133412000Y-43722000D01*
X133412000Y-42356889D01*
X133232641Y-42378750D01*
X132989144Y-42451571D01*
X132761399Y-42564378D01*
X132555917Y-42713943D01*
X132462557Y-42809781D01*
X132424805Y-42668889D01*
X132277415Y-42493235D01*
X132083786Y-42381444D01*
X131874624Y-42344563D01*
X130119812Y-42344563D01*
X129818889Y-42425195D01*
X129643235Y-42572585D01*
X129531444Y-42766214D01*
X129494563Y-42975376D01*
X129494563Y-44730188D01*
X129575195Y-45031112D01*
X129722585Y-45206765D01*
X129916214Y-45318556D01*
X129947585Y-45324088D01*
X129838573Y-45435992D01*
X129694436Y-45645320D01*
X129587631Y-45875940D01*
X129521209Y-46121258D01*
X129497070Y-46374261D01*
X129515906Y-46627714D01*
X129577175Y-46874369D01*
X129679127Y-47107175D01*
X129818848Y-47319475D01*
X129992341Y-47505199D01*
X130194646Y-47659035D01*
X130198500Y-47661046D01*
X130015917Y-47793943D01*
X129838573Y-47975992D01*
X129694436Y-48185320D01*
X129587631Y-48415940D01*
X129521209Y-48661258D01*
X129497070Y-48914261D01*
X129515906Y-49167714D01*
X129577175Y-49414369D01*
X129679127Y-49647175D01*
X129818848Y-49859475D01*
X129992341Y-50045199D01*
X130194646Y-50199035D01*
X130198500Y-50201046D01*
X130015917Y-50333943D01*
X129838573Y-50515992D01*
X129694436Y-50725320D01*
X129587631Y-50955940D01*
X129521209Y-51201258D01*
X129497070Y-51454261D01*
X129515906Y-51707714D01*
X129577175Y-51954369D01*
X129679127Y-52187175D01*
X129818848Y-52399475D01*
X129992341Y-52585199D01*
X130194646Y-52739035D01*
X130419979Y-52856585D01*
X130661896Y-52934490D01*
X130913481Y-52970519D01*
X131167540Y-52963645D01*
X131416807Y-52914062D01*
X131654157Y-52823190D01*
X131872803Y-52693625D01*
X132066493Y-52529074D01*
X132229688Y-52334240D01*
X132270198Y-52264776D01*
X132358848Y-52399475D01*
X132532341Y-52585199D01*
X132734646Y-52739035D01*
X132781001Y-52763217D01*
X132781001Y-52811527D01*
X132799688Y-52869038D01*
X132809150Y-52928781D01*
X132836609Y-52982671D01*
X132855297Y-53040188D01*
X132890846Y-53089117D01*
X132918302Y-53143003D01*
X133088657Y-53313359D01*
X133088661Y-53313361D01*
X134178600Y-54403301D01*
X134334496Y-54559198D01*
X134388382Y-54586654D01*
X134437311Y-54622203D01*
X134494828Y-54640891D01*
X134548718Y-54668350D01*
X134608461Y-54677812D01*
X134665972Y-54696499D01*
X134725936Y-54696499D01*
X134725942Y-54696500D01*
X135108163Y-54696500D01*
X135108163Y-56066588D01*
X135188795Y-56367512D01*
X135336185Y-56543165D01*
X135529814Y-56654956D01*
X135641001Y-56674561D01*
X135641001Y-58495851D01*
X135640162Y-58491996D01*
X135505094Y-58281824D01*
X135319773Y-58121243D01*
X135096719Y-58019378D01*
X134863013Y-57985776D01*
X134407453Y-57985776D01*
X134066996Y-58059838D01*
X133856824Y-58194906D01*
X133845228Y-58208288D01*
X133744773Y-58121243D01*
X133521719Y-58019378D01*
X133288013Y-57985776D01*
X132832453Y-57985776D01*
X132491996Y-58059838D01*
X132354963Y-58147903D01*
X132105321Y-58081011D01*
X131833065Y-58081011D01*
X131570084Y-58151477D01*
X131334302Y-58287605D01*
X131141787Y-58480120D01*
X131005659Y-58715902D01*
X130935193Y-58978883D01*
X130935193Y-59251139D01*
X131005659Y-59514120D01*
X131141787Y-59749902D01*
X131210194Y-59818308D01*
X131210194Y-59826906D01*
X131228881Y-59884419D01*
X131238343Y-59944160D01*
X131265801Y-59998051D01*
X131284490Y-60055568D01*
X131320038Y-60104494D01*
X131347496Y-60158383D01*
X131397275Y-60208161D01*
X131985776Y-60796663D01*
X131985776Y-61067547D01*
X132059838Y-61408004D01*
X132194906Y-61618176D01*
X132380227Y-61778757D01*
X132603281Y-61880622D01*
X132836987Y-61914224D01*
X133091001Y-61914224D01*
X133091001Y-62920213D01*
X133109690Y-62977732D01*
X133119151Y-63037467D01*
X133146608Y-63091355D01*
X133165297Y-63148875D01*
X133200849Y-63197806D01*
X133228303Y-63251690D01*
X133278082Y-63301468D01*
X133966000Y-63989387D01*
X133966000Y-64086128D01*
X134036466Y-64349109D01*
X134172594Y-64584891D01*
X134365109Y-64777406D01*
X134600891Y-64913534D01*
X134863872Y-64984000D01*
X135136128Y-64984000D01*
X135319268Y-64934927D01*
X135336466Y-64999109D01*
X135424098Y-65150893D01*
X135399109Y-65136466D01*
X135136128Y-65066000D01*
X134863872Y-65066000D01*
X134600891Y-65136466D01*
X134365109Y-65272594D01*
X134356843Y-65280860D01*
X134341699Y-65240677D01*
X134183650Y-64937715D01*
X133990350Y-64655935D01*
X133842772Y-64488248D01*
X131931019Y-66400000D01*
X133842449Y-68311429D01*
X133950207Y-68194442D01*
X134149848Y-67917122D01*
X134314730Y-67617823D01*
X134442460Y-67300884D01*
X134518994Y-67016251D01*
X134600891Y-67063534D01*
X134863872Y-67134000D01*
X134995969Y-67134000D01*
X136227968Y-68366000D01*
X133534980Y-68366000D01*
X131750000Y-66581019D01*
X129965020Y-68366000D01*
X127081659Y-68366000D01*
X127080909Y-68365804D01*
X127064984Y-68364087D01*
X126928114Y-68350184D01*
X126859170Y-68328579D01*
X126795975Y-68293549D01*
X126741118Y-68246531D01*
X126696836Y-68189443D01*
X126664934Y-68124608D01*
X126644736Y-68047066D01*
X126636651Y-67942008D01*
X126634000Y-67930101D01*
X126634000Y-66538693D01*
X128914212Y-66538693D01*
X128951413Y-66878371D01*
X129029152Y-67211120D01*
X129146304Y-67532119D01*
X129301170Y-67836720D01*
X129491509Y-68120509D01*
X129656726Y-68312254D01*
X131568981Y-66400000D01*
X129657531Y-64488551D01*
X129531125Y-64628695D01*
X129334396Y-64908092D01*
X129172658Y-65209101D01*
X129048254Y-65527360D01*
X128962986Y-65858259D01*
X128918088Y-66197006D01*
X128914212Y-66538693D01*
X126634000Y-66538693D01*
X126634000Y-60588000D01*
X126796418Y-60588000D01*
X126883846Y-60939970D01*
X126984873Y-61170662D01*
X127123325Y-61381033D01*
X127279134Y-61547827D01*
X127126239Y-61588795D01*
X126950585Y-61736185D01*
X126838794Y-61929814D01*
X126801913Y-62138976D01*
X126801913Y-63866588D01*
X126882545Y-64167512D01*
X127029935Y-64343165D01*
X127223564Y-64454956D01*
X127432726Y-64491837D01*
X129160338Y-64491837D01*
X129461262Y-64411205D01*
X129585443Y-64307005D01*
X129838025Y-64307005D01*
X131750000Y-66218981D01*
X133661541Y-64307439D01*
X133509663Y-64171881D01*
X133229240Y-63976617D01*
X132927388Y-63816458D01*
X132608482Y-63693722D01*
X132277140Y-63610188D01*
X131938164Y-63567065D01*
X131596461Y-63564977D01*
X131256982Y-63603956D01*
X130924645Y-63683437D01*
X130604263Y-63802267D01*
X130300478Y-63958727D01*
X130017689Y-64150549D01*
X129838025Y-64307005D01*
X129585443Y-64307005D01*
X129636915Y-64263815D01*
X129748706Y-64070186D01*
X129785587Y-63861024D01*
X129785587Y-62133412D01*
X129704955Y-61832489D01*
X129557565Y-61656835D01*
X129363936Y-61545044D01*
X129318166Y-61536973D01*
X129350557Y-61509455D01*
X129512271Y-61316391D01*
X129639143Y-61098840D01*
X129727546Y-60863022D01*
X129780258Y-60588000D01*
X126796418Y-60588000D01*
X126634000Y-60588000D01*
X126634000Y-60332000D01*
X126790943Y-60332000D01*
X128165750Y-60332000D01*
X128421750Y-60332000D01*
X129777315Y-60332000D01*
X129735672Y-60087094D01*
X129652227Y-59849476D01*
X129529938Y-59629315D01*
X129372304Y-59432907D01*
X129183830Y-59265866D01*
X128969906Y-59132969D01*
X128736649Y-59038016D01*
X128421750Y-58968492D01*
X128421750Y-60332000D01*
X128165750Y-60332000D01*
X128165750Y-58980590D01*
X127989181Y-59002112D01*
X127747897Y-59074272D01*
X127522220Y-59186053D01*
X127318604Y-59334261D01*
X127142870Y-59514656D01*
X127000043Y-59722083D01*
X126894207Y-59950609D01*
X126790943Y-60332000D01*
X126634000Y-60332000D01*
X126634000Y-41081659D01*
X126634196Y-41080909D01*
X126635913Y-41064984D01*
X126649816Y-40928114D01*
X126671421Y-40859170D01*
X126706449Y-40795978D01*
X126753471Y-40741117D01*
X126810561Y-40696834D01*
X126875388Y-40664935D01*
X126952939Y-40644735D01*
X127057992Y-40636651D01*
X127069899Y-40634000D01*
X128036470Y-40634000D01*
X136399844Y-40633999D01*
X136395045Y-40642312D01*
X136358164Y-40851474D01*
X136358164Y-42579086D01*
X136438796Y-42880010D01*
X136586186Y-43055663D01*
X136779815Y-43167454D01*
X136988977Y-43204335D01*
X138716589Y-43204335D01*
X139017513Y-43123703D01*
X139193166Y-42976313D01*
X139304957Y-42782684D01*
X139313523Y-42734102D01*
X139391494Y-42817569D01*
X139591961Y-42970008D01*
X139815247Y-43086490D01*
X140054967Y-43163688D01*
X140304267Y-43199390D01*
X140556018Y-43192578D01*
X140786001Y-43146832D01*
X140786000Y-43751704D01*
X140672594Y-43865109D01*
X140536466Y-44100891D01*
X140466000Y-44363872D01*
X140466000Y-44636128D01*
X140536466Y-44899109D01*
X140672594Y-45134891D01*
X140865109Y-45327406D01*
X141100891Y-45463534D01*
X141363872Y-45534000D01*
X141636128Y-45534000D01*
X141899109Y-45463534D01*
X142134891Y-45327406D01*
X142327406Y-45134891D01*
X142463534Y-44899109D01*
X142534000Y-44636128D01*
X142534000Y-44363872D01*
X142463534Y-44100891D01*
X142327406Y-43865109D01*
X142214000Y-43751704D01*
X142214000Y-43012805D01*
X142355247Y-43086490D01*
X142594967Y-43163688D01*
X142802001Y-43193337D01*
X142802001Y-41840498D01*
X143058001Y-41840498D01*
X143058001Y-43200140D01*
X143343023Y-43143446D01*
X143578217Y-43053399D01*
X143794878Y-42925010D01*
X143986808Y-42761953D01*
X144148522Y-42568889D01*
X144275394Y-42351338D01*
X144363797Y-42115520D01*
X144416509Y-41840498D01*
X143058001Y-41840498D01*
X142802001Y-41840498D01*
X142802001Y-41584498D01*
X144413566Y-41584498D01*
X144371923Y-41339592D01*
X144288478Y-41101974D01*
X144166189Y-40881813D01*
X144008555Y-40685405D01*
X143950553Y-40633999D01*
X145149844Y-40633999D01*
X145145045Y-40642311D01*
G37*
D24*
X145145045Y-40642311D02*
X145108164Y-40851473D01*
X145108164Y-42579085D01*
X145188796Y-42880009D01*
X145336186Y-43055662D01*
X145529815Y-43167453D01*
X145738977Y-43204334D01*
X147466589Y-43204334D01*
X147767513Y-43123702D01*
X147943166Y-42976312D01*
X148054957Y-42782683D01*
X148063523Y-42734101D01*
X148141494Y-42817568D01*
X148341961Y-42970007D01*
X148565247Y-43086489D01*
X148804967Y-43163687D01*
X149054267Y-43199389D01*
X149306018Y-43192577D01*
X149553023Y-43143445D01*
X149788217Y-43053398D01*
X150004878Y-42925009D01*
X150196808Y-42761952D01*
X150358522Y-42568888D01*
X150409502Y-42481472D01*
X150509576Y-42633530D01*
X150681494Y-42817568D01*
X150881961Y-42970007D01*
X151105247Y-43086489D01*
X151344967Y-43163687D01*
X151552001Y-43193336D01*
X151552001Y-41584497D01*
X151808001Y-41584497D01*
X151808001Y-43200139D01*
X152093023Y-43143445D01*
X152328217Y-43053398D01*
X152544878Y-42925009D01*
X152736808Y-42761952D01*
X152866002Y-42607713D01*
X152866002Y-48166215D01*
X152790350Y-48055935D01*
X152642772Y-47888248D01*
X150731019Y-49800000D01*
X152642449Y-51711429D01*
X152750207Y-51594442D01*
X152866002Y-51433592D01*
X152866001Y-55030484D01*
X152801825Y-54996720D01*
X152571275Y-54925132D01*
X152251750Y-54891549D01*
X152251750Y-57530168D01*
X152538316Y-57503837D01*
X152769860Y-57438535D01*
X152866001Y-57391123D01*
X152866001Y-60490484D01*
X152801825Y-60456720D01*
X152571275Y-60385132D01*
X152251750Y-60351549D01*
X152251750Y-62990168D01*
X152538316Y-62963837D01*
X152769860Y-62898535D01*
X152866001Y-62851123D01*
X152866001Y-66803704D01*
X152734891Y-66672594D01*
X152499109Y-66536466D01*
X152236128Y-66466000D01*
X151963872Y-66466000D01*
X151700891Y-66536466D01*
X151465109Y-66672594D01*
X151445555Y-66692149D01*
X151366388Y-66646442D01*
X151536449Y-66600874D01*
X151772231Y-66464746D01*
X151964746Y-66272231D01*
X152100874Y-66036449D01*
X152171340Y-65773468D01*
X152171340Y-65501212D01*
X152100874Y-65238231D01*
X151964746Y-65002449D01*
X151772231Y-64809934D01*
X151536449Y-64673806D01*
X151273468Y-64603340D01*
X151184000Y-64603340D01*
X151184000Y-64254031D01*
X151351220Y-64086812D01*
X151377774Y-64034697D01*
X151412149Y-63987383D01*
X151430223Y-63931758D01*
X151456776Y-63879646D01*
X151465926Y-63821876D01*
X151483999Y-63766254D01*
X151483999Y-63708279D01*
X151484000Y-63708273D01*
X151484000Y-62897682D01*
X151676225Y-62957370D01*
X151995750Y-62990953D01*
X151995750Y-60352334D01*
X151709184Y-60378665D01*
X151484000Y-60442173D01*
X151484000Y-57437682D01*
X151676225Y-57497370D01*
X151995750Y-57530953D01*
X151995750Y-54892334D01*
X151709184Y-54918665D01*
X151484000Y-54982173D01*
X151484000Y-53791727D01*
X151483999Y-53791721D01*
X151483999Y-53733746D01*
X151465926Y-53678124D01*
X151456776Y-53620354D01*
X151430223Y-53568242D01*
X151412149Y-53512617D01*
X151377774Y-53465303D01*
X151351219Y-53413187D01*
X151313819Y-53375787D01*
X151313816Y-53375783D01*
X150572833Y-52634801D01*
X150673843Y-52636476D01*
X151013711Y-52601054D01*
X151346862Y-52525058D01*
X151668471Y-52409588D01*
X151973878Y-52256319D01*
X152258659Y-52067468D01*
X152462586Y-51893606D01*
X148457531Y-47888551D01*
X148331125Y-48028695D01*
X148134396Y-48308092D01*
X147972658Y-48609101D01*
X147848254Y-48927360D01*
X147776840Y-49204494D01*
X147129831Y-48557485D01*
X147163534Y-48499109D01*
X147234000Y-48236128D01*
X147234000Y-47963872D01*
X147165173Y-47707005D01*
X148638025Y-47707005D01*
X150550000Y-49618981D01*
X152461541Y-47707439D01*
X152309663Y-47571881D01*
X152029240Y-47376617D01*
X151727388Y-47216458D01*
X151408482Y-47093722D01*
X151077140Y-47010188D01*
X150738164Y-46967065D01*
X150396461Y-46964977D01*
X150056982Y-47003956D01*
X149724645Y-47083437D01*
X149404263Y-47202267D01*
X149100478Y-47358727D01*
X148817689Y-47550549D01*
X148638025Y-47707005D01*
X147165173Y-47707005D01*
X147163534Y-47700891D01*
X147027406Y-47465109D01*
X146834891Y-47272594D01*
X146599109Y-47136466D01*
X146336128Y-47066000D01*
X146063872Y-47066000D01*
X145800891Y-47136466D01*
X145565109Y-47272594D01*
X145372594Y-47465109D01*
X145236466Y-47700891D01*
X145166000Y-47963872D01*
X145166000Y-48236128D01*
X145236466Y-48499109D01*
X145372594Y-48734891D01*
X145485732Y-48848028D01*
X145493224Y-48895331D01*
X145519779Y-48947448D01*
X145537851Y-49003066D01*
X145572226Y-49050381D01*
X145598781Y-49102497D01*
X145640815Y-49144531D01*
X145640821Y-49144538D01*
X146669675Y-50173392D01*
X146552291Y-50108859D01*
X146318142Y-50030059D01*
X146073740Y-49993969D01*
X145826810Y-50001729D01*
X145585156Y-50053094D01*
X145356417Y-50146441D01*
X145147824Y-50278818D01*
X144965970Y-50446042D01*
X144816602Y-50642827D01*
X144704443Y-50862952D01*
X144633036Y-51099460D01*
X144604642Y-51344875D01*
X144620154Y-51591440D01*
X144679084Y-51831361D01*
X144779569Y-52057054D01*
X144918434Y-52261386D01*
X145091287Y-52437899D01*
X145292666Y-52581011D01*
X145516206Y-52686201D01*
X145754840Y-52750143D01*
X146001025Y-52770816D01*
X146246982Y-52747567D01*
X146484933Y-52681128D01*
X146707359Y-52573604D01*
X146907229Y-52428390D01*
X147078224Y-52250078D01*
X147214941Y-52044303D01*
X147313057Y-51817569D01*
X147369852Y-51575424D01*
X147371576Y-51509608D01*
X150016000Y-54154032D01*
X150016000Y-55556457D01*
X149995904Y-55539594D01*
X149792432Y-55427735D01*
X149570684Y-55357392D01*
X149251750Y-55323871D01*
X149251750Y-57718033D01*
X149554835Y-57688316D01*
X149777118Y-57621204D01*
X149982133Y-57512196D01*
X150016000Y-57484575D01*
X150016001Y-60396457D01*
X149995904Y-60379594D01*
X149792432Y-60267735D01*
X149570684Y-60197392D01*
X149251750Y-60163871D01*
X149251750Y-62558033D01*
X149554835Y-62528316D01*
X149777118Y-62461204D01*
X149982133Y-62352196D01*
X150016001Y-62324574D01*
X150016001Y-63345968D01*
X149888330Y-63473638D01*
X149888326Y-63473643D01*
X149848780Y-63513189D01*
X149822225Y-63565304D01*
X149787851Y-63612618D01*
X149769777Y-63668243D01*
X149743224Y-63720355D01*
X149734074Y-63778125D01*
X149716001Y-63833747D01*
X149716001Y-63891722D01*
X149716000Y-63891728D01*
X149716001Y-64752845D01*
X149691001Y-64829787D01*
X149691001Y-65070213D01*
X149765297Y-65298874D01*
X149871070Y-65444457D01*
X150103340Y-65676728D01*
X150103340Y-65773468D01*
X150173806Y-66036449D01*
X150309934Y-66272231D01*
X150502449Y-66464746D01*
X150720952Y-66590898D01*
X150550891Y-66636466D01*
X150315109Y-66772594D01*
X150201972Y-66885732D01*
X150154670Y-66893224D01*
X150102555Y-66919778D01*
X150046933Y-66937851D01*
X150008189Y-66966000D01*
X146807387Y-66966000D01*
X147239388Y-66534000D01*
X147336128Y-66534000D01*
X147599109Y-66463534D01*
X147834891Y-66327406D01*
X148027406Y-66134891D01*
X148163534Y-65899109D01*
X148234000Y-65636128D01*
X148234000Y-65363872D01*
X148163534Y-65100891D01*
X148027406Y-64865109D01*
X147904134Y-64741837D01*
X148266588Y-64741837D01*
X148567512Y-64661205D01*
X148743165Y-64513815D01*
X148854956Y-64320186D01*
X148891837Y-64111024D01*
X148891837Y-62547710D01*
X148995750Y-62558631D01*
X148995750Y-60164469D01*
X148692665Y-60194186D01*
X148470382Y-60261298D01*
X148265367Y-60370306D01*
X148085431Y-60517058D01*
X147937424Y-60695966D01*
X147826988Y-60900215D01*
X147778912Y-61055525D01*
X147438635Y-60715248D01*
X147529878Y-60715248D01*
X147792859Y-60644782D01*
X148028641Y-60508654D01*
X148221156Y-60316139D01*
X148357284Y-60080357D01*
X148427750Y-59817376D01*
X148427750Y-59545120D01*
X148357284Y-59282139D01*
X148221156Y-59046357D01*
X148028641Y-58853842D01*
X147792859Y-58717714D01*
X147529878Y-58647248D01*
X147433137Y-58647248D01*
X147373963Y-58588074D01*
X147407284Y-58530360D01*
X147477750Y-58267379D01*
X147477750Y-57995123D01*
X147407284Y-57732142D01*
X147271156Y-57496360D01*
X147078641Y-57303845D01*
X146842859Y-57167717D01*
X146579878Y-57097251D01*
X146307622Y-57097251D01*
X146209000Y-57123677D01*
X146209000Y-56939387D01*
X146522058Y-56626329D01*
X146536185Y-56643165D01*
X146729814Y-56754956D01*
X146938976Y-56791837D01*
X147769125Y-56791837D01*
X147820658Y-56966929D01*
X147928232Y-57172700D01*
X148073726Y-57353656D01*
X148251596Y-57502908D01*
X148455068Y-57614767D01*
X148676816Y-57685110D01*
X148995750Y-57718631D01*
X148995750Y-55324468D01*
X148891837Y-55334657D01*
X148891837Y-54583412D01*
X148811205Y-54282489D01*
X148663815Y-54106835D01*
X148470186Y-53995044D01*
X148261024Y-53958163D01*
X146933412Y-53958163D01*
X146632489Y-54038795D01*
X146456835Y-54186185D01*
X146345044Y-54379814D01*
X146308163Y-54588976D01*
X146308163Y-54721510D01*
X146302196Y-54725846D01*
X146248310Y-54753302D01*
X146178304Y-54823309D01*
X146159198Y-54785810D01*
X146115757Y-54742369D01*
X146115751Y-54742362D01*
X144509000Y-53135613D01*
X144509000Y-50229786D01*
X144490310Y-50172265D01*
X144480850Y-50112533D01*
X144453392Y-50058642D01*
X144434703Y-50001125D01*
X144399153Y-49952195D01*
X144371698Y-49898310D01*
X144328257Y-49854869D01*
X144328251Y-49854862D01*
X141672047Y-47198661D01*
X141672045Y-47198657D01*
X141525308Y-47051921D01*
X141613534Y-46899109D01*
X141684000Y-46636128D01*
X141684000Y-46363872D01*
X141613534Y-46100891D01*
X141477406Y-45865109D01*
X141284891Y-45672594D01*
X141049109Y-45536466D01*
X140786128Y-45466000D01*
X140513872Y-45466000D01*
X140250891Y-45536466D01*
X140015109Y-45672594D01*
X139946704Y-45741000D01*
X134892663Y-45741000D01*
X134787518Y-45551703D01*
X134628438Y-45353494D01*
X134438237Y-45184922D01*
X134334129Y-45120246D01*
X134412803Y-45073625D01*
X134606493Y-44909074D01*
X134769688Y-44714240D01*
X134897723Y-44494695D01*
X134986937Y-44256715D01*
X135040358Y-43978000D01*
X133412000Y-43978000D01*
X133412000Y-43722000D01*
X133668000Y-43722000D01*
X135037361Y-43722000D01*
X134995137Y-43473676D01*
X134910927Y-43233881D01*
X134787518Y-43011703D01*
X134628438Y-42813494D01*
X134438237Y-42644922D01*
X134222354Y-42510807D01*
X133986958Y-42414983D01*
X133668000Y-42344563D01*
X133668000Y-43722000D01*
X133412000Y-43722000D01*
X133412000Y-42356889D01*
X133232641Y-42378750D01*
X132989144Y-42451571D01*
X132761399Y-42564378D01*
X132555917Y-42713943D01*
X132462557Y-42809781D01*
X132424805Y-42668889D01*
X132277415Y-42493235D01*
X132083786Y-42381444D01*
X131874624Y-42344563D01*
X130119812Y-42344563D01*
X129818889Y-42425195D01*
X129643235Y-42572585D01*
X129531444Y-42766214D01*
X129494563Y-42975376D01*
X129494563Y-44730188D01*
X129575195Y-45031112D01*
X129722585Y-45206765D01*
X129916214Y-45318556D01*
X129947585Y-45324088D01*
X129838573Y-45435992D01*
X129694436Y-45645320D01*
X129587631Y-45875940D01*
X129521209Y-46121258D01*
X129497070Y-46374261D01*
X129515906Y-46627714D01*
X129577175Y-46874369D01*
X129679127Y-47107175D01*
X129818848Y-47319475D01*
X129992341Y-47505199D01*
X130194646Y-47659035D01*
X130198500Y-47661046D01*
X130015917Y-47793943D01*
X129838573Y-47975992D01*
X129694436Y-48185320D01*
X129587631Y-48415940D01*
X129521209Y-48661258D01*
X129497070Y-48914261D01*
X129515906Y-49167714D01*
X129577175Y-49414369D01*
X129679127Y-49647175D01*
X129818848Y-49859475D01*
X129992341Y-50045199D01*
X130194646Y-50199035D01*
X130198500Y-50201046D01*
X130015917Y-50333943D01*
X129838573Y-50515992D01*
X129694436Y-50725320D01*
X129587631Y-50955940D01*
X129521209Y-51201258D01*
X129497070Y-51454261D01*
X129515906Y-51707714D01*
X129577175Y-51954369D01*
X129679127Y-52187175D01*
X129818848Y-52399475D01*
X129992341Y-52585199D01*
X130194646Y-52739035D01*
X130419979Y-52856585D01*
X130661896Y-52934490D01*
X130913481Y-52970519D01*
X131167540Y-52963645D01*
X131416807Y-52914062D01*
X131654157Y-52823190D01*
X131872803Y-52693625D01*
X132066493Y-52529074D01*
X132229688Y-52334240D01*
X132270198Y-52264776D01*
X132358848Y-52399475D01*
X132532341Y-52585199D01*
X132734646Y-52739035D01*
X132781001Y-52763217D01*
X132781001Y-52811527D01*
X132799688Y-52869038D01*
X132809150Y-52928781D01*
X132836609Y-52982671D01*
X132855297Y-53040188D01*
X132890846Y-53089117D01*
X132918302Y-53143003D01*
X133088657Y-53313359D01*
X133088661Y-53313361D01*
X134178600Y-54403301D01*
X134334496Y-54559198D01*
X134388382Y-54586654D01*
X134437311Y-54622203D01*
X134494828Y-54640891D01*
X134548718Y-54668350D01*
X134608461Y-54677812D01*
X134665972Y-54696499D01*
X134725936Y-54696499D01*
X134725942Y-54696500D01*
X135108163Y-54696500D01*
X135108163Y-56066588D01*
X135188795Y-56367512D01*
X135336185Y-56543165D01*
X135529814Y-56654956D01*
X135641001Y-56674561D01*
X135641001Y-58495851D01*
X135640162Y-58491996D01*
X135505094Y-58281824D01*
X135319773Y-58121243D01*
X135096719Y-58019378D01*
X134863013Y-57985776D01*
X134407453Y-57985776D01*
X134066996Y-58059838D01*
X133856824Y-58194906D01*
X133845228Y-58208288D01*
X133744773Y-58121243D01*
X133521719Y-58019378D01*
X133288013Y-57985776D01*
X132832453Y-57985776D01*
X132491996Y-58059838D01*
X132354963Y-58147903D01*
X132105321Y-58081011D01*
X131833065Y-58081011D01*
X131570084Y-58151477D01*
X131334302Y-58287605D01*
X131141787Y-58480120D01*
X131005659Y-58715902D01*
X130935193Y-58978883D01*
X130935193Y-59251139D01*
X131005659Y-59514120D01*
X131141787Y-59749902D01*
X131210194Y-59818308D01*
X131210194Y-59826906D01*
X131228881Y-59884419D01*
X131238343Y-59944160D01*
X131265801Y-59998051D01*
X131284490Y-60055568D01*
X131320038Y-60104494D01*
X131347496Y-60158383D01*
X131397275Y-60208161D01*
X131985776Y-60796663D01*
X131985776Y-61067547D01*
X132059838Y-61408004D01*
X132194906Y-61618176D01*
X132380227Y-61778757D01*
X132603281Y-61880622D01*
X132836987Y-61914224D01*
X133091001Y-61914224D01*
X133091001Y-62920213D01*
X133109690Y-62977732D01*
X133119151Y-63037467D01*
X133146608Y-63091355D01*
X133165297Y-63148875D01*
X133200849Y-63197806D01*
X133228303Y-63251690D01*
X133278082Y-63301468D01*
X133966000Y-63989387D01*
X133966000Y-64086128D01*
X134036466Y-64349109D01*
X134172594Y-64584891D01*
X134365109Y-64777406D01*
X134600891Y-64913534D01*
X134863872Y-64984000D01*
X135136128Y-64984000D01*
X135319268Y-64934927D01*
X135336466Y-64999109D01*
X135424098Y-65150893D01*
X135399109Y-65136466D01*
X135136128Y-65066000D01*
X134863872Y-65066000D01*
X134600891Y-65136466D01*
X134365109Y-65272594D01*
X134356843Y-65280860D01*
X134341699Y-65240677D01*
X134183650Y-64937715D01*
X133990350Y-64655935D01*
X133842772Y-64488248D01*
X131931019Y-66400000D01*
X133842449Y-68311429D01*
X133950207Y-68194442D01*
X134149848Y-67917122D01*
X134314730Y-67617823D01*
X134442460Y-67300884D01*
X134518994Y-67016251D01*
X134600891Y-67063534D01*
X134863872Y-67134000D01*
X134995969Y-67134000D01*
X136227968Y-68366000D01*
X133534980Y-68366000D01*
X131750000Y-66581019D01*
X129965020Y-68366000D01*
X127081659Y-68366000D01*
X127080909Y-68365804D01*
X127064984Y-68364087D01*
X126928114Y-68350184D01*
X126859170Y-68328579D01*
X126795975Y-68293549D01*
X126741118Y-68246531D01*
X126696836Y-68189443D01*
X126664934Y-68124608D01*
X126644736Y-68047066D01*
X126636651Y-67942008D01*
X126634000Y-67930101D01*
X126634000Y-66538693D01*
X128914212Y-66538693D01*
X128951413Y-66878371D01*
X129029152Y-67211120D01*
X129146304Y-67532119D01*
X129301170Y-67836720D01*
X129491509Y-68120509D01*
X129656726Y-68312254D01*
X131568981Y-66400000D01*
X129657531Y-64488551D01*
X129531125Y-64628695D01*
X129334396Y-64908092D01*
X129172658Y-65209101D01*
X129048254Y-65527360D01*
X128962986Y-65858259D01*
X128918088Y-66197006D01*
X128914212Y-66538693D01*
X126634000Y-66538693D01*
X126634000Y-60588000D01*
X126796418Y-60588000D01*
X126883846Y-60939970D01*
X126984873Y-61170662D01*
X127123325Y-61381033D01*
X127279134Y-61547827D01*
X127126239Y-61588795D01*
X126950585Y-61736185D01*
X126838794Y-61929814D01*
X126801913Y-62138976D01*
X126801913Y-63866588D01*
X126882545Y-64167512D01*
X127029935Y-64343165D01*
X127223564Y-64454956D01*
X127432726Y-64491837D01*
X129160338Y-64491837D01*
X129461262Y-64411205D01*
X129585443Y-64307005D01*
X129838025Y-64307005D01*
X131750000Y-66218981D01*
X133661541Y-64307439D01*
X133509663Y-64171881D01*
X133229240Y-63976617D01*
X132927388Y-63816458D01*
X132608482Y-63693722D01*
X132277140Y-63610188D01*
X131938164Y-63567065D01*
X131596461Y-63564977D01*
X131256982Y-63603956D01*
X130924645Y-63683437D01*
X130604263Y-63802267D01*
X130300478Y-63958727D01*
X130017689Y-64150549D01*
X129838025Y-64307005D01*
X129585443Y-64307005D01*
X129636915Y-64263815D01*
X129748706Y-64070186D01*
X129785587Y-63861024D01*
X129785587Y-62133412D01*
X129704955Y-61832489D01*
X129557565Y-61656835D01*
X129363936Y-61545044D01*
X129318166Y-61536973D01*
X129350557Y-61509455D01*
X129512271Y-61316391D01*
X129639143Y-61098840D01*
X129727546Y-60863022D01*
X129780258Y-60588000D01*
X126796418Y-60588000D01*
X126634000Y-60588000D01*
X126634000Y-60332000D01*
X126790943Y-60332000D01*
X128165750Y-60332000D01*
X128421750Y-60332000D01*
X129777315Y-60332000D01*
X129735672Y-60087094D01*
X129652227Y-59849476D01*
X129529938Y-59629315D01*
X129372304Y-59432907D01*
X129183830Y-59265866D01*
X128969906Y-59132969D01*
X128736649Y-59038016D01*
X128421750Y-58968492D01*
X128421750Y-60332000D01*
X128165750Y-60332000D01*
X128165750Y-58980590D01*
X127989181Y-59002112D01*
X127747897Y-59074272D01*
X127522220Y-59186053D01*
X127318604Y-59334261D01*
X127142870Y-59514656D01*
X127000043Y-59722083D01*
X126894207Y-59950609D01*
X126790943Y-60332000D01*
X126634000Y-60332000D01*
X126634000Y-41081659D01*
X126634196Y-41080909D01*
X126635913Y-41064984D01*
X126649816Y-40928114D01*
X126671421Y-40859170D01*
X126706449Y-40795978D01*
X126753471Y-40741117D01*
X126810561Y-40696834D01*
X126875388Y-40664935D01*
X126952939Y-40644735D01*
X127057992Y-40636651D01*
X127069899Y-40634000D01*
X128036470Y-40634000D01*
X136399844Y-40633999D01*
X136395045Y-40642312D01*
X136358164Y-40851474D01*
X136358164Y-42579086D01*
X136438796Y-42880010D01*
X136586186Y-43055663D01*
X136779815Y-43167454D01*
X136988977Y-43204335D01*
X138716589Y-43204335D01*
X139017513Y-43123703D01*
X139193166Y-42976313D01*
X139304957Y-42782684D01*
X139313523Y-42734102D01*
X139391494Y-42817569D01*
X139591961Y-42970008D01*
X139815247Y-43086490D01*
X140054967Y-43163688D01*
X140304267Y-43199390D01*
X140556018Y-43192578D01*
X140786001Y-43146832D01*
X140786000Y-43751704D01*
X140672594Y-43865109D01*
X140536466Y-44100891D01*
X140466000Y-44363872D01*
X140466000Y-44636128D01*
X140536466Y-44899109D01*
X140672594Y-45134891D01*
X140865109Y-45327406D01*
X141100891Y-45463534D01*
X141363872Y-45534000D01*
X141636128Y-45534000D01*
X141899109Y-45463534D01*
X142134891Y-45327406D01*
X142327406Y-45134891D01*
X142463534Y-44899109D01*
X142534000Y-44636128D01*
X142534000Y-44363872D01*
X142463534Y-44100891D01*
X142327406Y-43865109D01*
X142214000Y-43751704D01*
X142214000Y-43012805D01*
X142355247Y-43086490D01*
X142594967Y-43163688D01*
X142802001Y-43193337D01*
X142802001Y-41840498D01*
X143058001Y-41840498D01*
X143058001Y-43200140D01*
X143343023Y-43143446D01*
X143578217Y-43053399D01*
X143794878Y-42925010D01*
X143986808Y-42761953D01*
X144148522Y-42568889D01*
X144275394Y-42351338D01*
X144363797Y-42115520D01*
X144416509Y-41840498D01*
X143058001Y-41840498D01*
X142802001Y-41840498D01*
X142802001Y-41584498D01*
X144413566Y-41584498D01*
X144371923Y-41339592D01*
X144288478Y-41101974D01*
X144166189Y-40881813D01*
X144008555Y-40685405D01*
X143950553Y-40633999D01*
X145149844Y-40633999D01*
X145145045Y-40642311D01*
G36*
X142991001Y-50664389D02*
G01*
X142991000Y-53510243D01*
X142991001Y-53510249D01*
X142991001Y-53570213D01*
X143009688Y-53627724D01*
X143019150Y-53687467D01*
X143046609Y-53741357D01*
X143065297Y-53798874D01*
X143100846Y-53847803D01*
X143128302Y-53901689D01*
X143228000Y-54001388D01*
X143228000Y-55247000D01*
X144391837Y-55247000D01*
X144391837Y-55165225D01*
X144778501Y-55551890D01*
X144778500Y-56257954D01*
X144765296Y-56276127D01*
X144746609Y-56333644D01*
X144719150Y-56387533D01*
X144709688Y-56447276D01*
X144691001Y-56504787D01*
X144691001Y-56564751D01*
X144691000Y-56564757D01*
X144691001Y-59699743D01*
X144691001Y-59920213D01*
X144709690Y-59977732D01*
X144719151Y-60037467D01*
X144746608Y-60091355D01*
X144765297Y-60148875D01*
X144800849Y-60197806D01*
X144828303Y-60251690D01*
X146596014Y-62019401D01*
X146456835Y-62136185D01*
X146345044Y-62329814D01*
X146308163Y-62538976D01*
X146308163Y-64116588D01*
X146388795Y-64417512D01*
X146536185Y-64593165D01*
X146619435Y-64641229D01*
X146565109Y-64672594D01*
X146372594Y-64865109D01*
X146236466Y-65100891D01*
X146166000Y-65363872D01*
X146166000Y-65460612D01*
X145385613Y-66241000D01*
X143653296Y-66241000D01*
X143584891Y-66172594D01*
X143349109Y-66036466D01*
X143086128Y-65966000D01*
X142813872Y-65966000D01*
X142550891Y-66036466D01*
X142315109Y-66172594D01*
X142122594Y-66365109D01*
X141986466Y-66600891D01*
X141916000Y-66863872D01*
X141916000Y-66966000D01*
X140104032Y-66966000D01*
X140034000Y-66895968D01*
X140034000Y-66763872D01*
X139963534Y-66500891D01*
X139827406Y-66265109D01*
X139634891Y-66072594D01*
X139399109Y-65936466D01*
X139136128Y-65866000D01*
X138863872Y-65866000D01*
X138600891Y-65936466D01*
X138365109Y-66072594D01*
X138172594Y-66265109D01*
X138036466Y-66500891D01*
X137966000Y-66763872D01*
X137966000Y-67036128D01*
X138036466Y-67299109D01*
X138172594Y-67534891D01*
X138303703Y-67666000D01*
X137604032Y-67666000D01*
X136034000Y-66095969D01*
X136034000Y-65963872D01*
X135963534Y-65700891D01*
X135875902Y-65549107D01*
X135900891Y-65563534D01*
X136163872Y-65634000D01*
X136436128Y-65634000D01*
X136699109Y-65563534D01*
X136934891Y-65427406D01*
X137127406Y-65234891D01*
X137263534Y-64999109D01*
X137334000Y-64736128D01*
X137334000Y-64570184D01*
X137367512Y-64561205D01*
X137543165Y-64413815D01*
X137654956Y-64220186D01*
X137691837Y-64011024D01*
X137691837Y-63353000D01*
X139608163Y-63353000D01*
X139608163Y-64016588D01*
X139688795Y-64317512D01*
X139836185Y-64493165D01*
X140029814Y-64604956D01*
X140238976Y-64641837D01*
X140772000Y-64641837D01*
X140772000Y-63353000D01*
X139608163Y-63353000D01*
X137691837Y-63353000D01*
X137691837Y-62438976D01*
X139608163Y-62438976D01*
X139608163Y-63097000D01*
X140772000Y-63097000D01*
X140772000Y-61808163D01*
X141028000Y-61808163D01*
X141028000Y-64641837D01*
X141566588Y-64641837D01*
X141867512Y-64561205D01*
X141950756Y-64491355D01*
X142036185Y-64593165D01*
X142229814Y-64704956D01*
X142438976Y-64741837D01*
X142972000Y-64741837D01*
X142972000Y-63453000D01*
X143228000Y-63453000D01*
X143228000Y-64741837D01*
X143766588Y-64741837D01*
X144067512Y-64661205D01*
X144243165Y-64513815D01*
X144354956Y-64320186D01*
X144391837Y-64111024D01*
X144391837Y-63453000D01*
X143228000Y-63453000D01*
X142972000Y-63453000D01*
X142972000Y-61908163D01*
X143228000Y-61908163D01*
X143228000Y-63197000D01*
X144391837Y-63197000D01*
X144391837Y-62533412D01*
X144311205Y-62232489D01*
X144163815Y-62056835D01*
X143970186Y-61945044D01*
X143761024Y-61908163D01*
X143228000Y-61908163D01*
X142972000Y-61908163D01*
X142433412Y-61908163D01*
X142132489Y-61988795D01*
X142049244Y-62058646D01*
X141963815Y-61956835D01*
X141770186Y-61845044D01*
X141561024Y-61808163D01*
X141028000Y-61808163D01*
X140772000Y-61808163D01*
X140233412Y-61808163D01*
X139932489Y-61888795D01*
X139756835Y-62036185D01*
X139645044Y-62229814D01*
X139608163Y-62438976D01*
X137691837Y-62438976D01*
X137691837Y-62433412D01*
X137611205Y-62132489D01*
X137463815Y-61956835D01*
X137270186Y-61845044D01*
X137159000Y-61825439D01*
X137159000Y-56667075D01*
X137367512Y-56611205D01*
X137543165Y-56463815D01*
X137654956Y-56270186D01*
X137691837Y-56061024D01*
X137691837Y-54483412D01*
X137611205Y-54182489D01*
X137463815Y-54006835D01*
X137425927Y-53984960D01*
X137496663Y-53914224D01*
X137632784Y-53914224D01*
X137646608Y-53941355D01*
X137665297Y-53998875D01*
X137700849Y-54047806D01*
X137728303Y-54101690D01*
X137778082Y-54151468D01*
X138655925Y-55029312D01*
X138615998Y-55178324D01*
X138615998Y-55450580D01*
X138686464Y-55713561D01*
X138822592Y-55949343D01*
X139015107Y-56141858D01*
X139250889Y-56277986D01*
X139513870Y-56348452D01*
X139683688Y-56348452D01*
X139688795Y-56367512D01*
X139836185Y-56543165D01*
X140029814Y-56654956D01*
X140238976Y-56691837D01*
X140772000Y-56691837D01*
X140772000Y-53858163D01*
X141028000Y-53858163D01*
X141028000Y-56691837D01*
X141566588Y-56691837D01*
X141867512Y-56611205D01*
X141950756Y-56541355D01*
X142036185Y-56643165D01*
X142229814Y-56754956D01*
X142438976Y-56791837D01*
X142972000Y-56791837D01*
X142972000Y-55503000D01*
X143228000Y-55503000D01*
X143228000Y-56791837D01*
X143766588Y-56791837D01*
X144067512Y-56711205D01*
X144243165Y-56563815D01*
X144354956Y-56370186D01*
X144391837Y-56161024D01*
X144391837Y-55503000D01*
X143228000Y-55503000D01*
X142972000Y-55503000D01*
X142972000Y-53958163D01*
X142433412Y-53958163D01*
X142132489Y-54038795D01*
X142049244Y-54108646D01*
X141963815Y-54006835D01*
X141770186Y-53895044D01*
X141561024Y-53858163D01*
X141028000Y-53858163D01*
X140772000Y-53858163D01*
X140233412Y-53858163D01*
X139932489Y-53938795D01*
X139812699Y-54039311D01*
X139109000Y-53335613D01*
X139109000Y-51464756D01*
X139108999Y-51464750D01*
X139108999Y-51404786D01*
X139090312Y-51347275D01*
X139089932Y-51344875D01*
X139724642Y-51344875D01*
X139740154Y-51591440D01*
X139799084Y-51831361D01*
X139899569Y-52057054D01*
X140038434Y-52261386D01*
X140211287Y-52437899D01*
X140412666Y-52581011D01*
X140636206Y-52686201D01*
X140874840Y-52750143D01*
X141121025Y-52770816D01*
X141366982Y-52747567D01*
X141604933Y-52681128D01*
X141827359Y-52573604D01*
X142027229Y-52428390D01*
X142198224Y-52250078D01*
X142334941Y-52044303D01*
X142433057Y-51817569D01*
X142489852Y-51575424D01*
X142498129Y-51259362D01*
X142454084Y-51014576D01*
X142367969Y-50783018D01*
X142242209Y-50570369D01*
X142080779Y-50383352D01*
X141888784Y-50227878D01*
X141672291Y-50108859D01*
X141438142Y-50030059D01*
X141193740Y-49993969D01*
X140946810Y-50001729D01*
X140705156Y-50053094D01*
X140476417Y-50146441D01*
X140267824Y-50278818D01*
X140085970Y-50446042D01*
X139936602Y-50642827D01*
X139824443Y-50862952D01*
X139753036Y-51099460D01*
X139724642Y-51344875D01*
X139089932Y-51344875D01*
X139080850Y-51287532D01*
X139053391Y-51233642D01*
X139034703Y-51176125D01*
X138999155Y-51127198D01*
X138971697Y-51073309D01*
X138815800Y-50917413D01*
X138680342Y-50781955D01*
X138727406Y-50734891D01*
X138863534Y-50499109D01*
X138934000Y-50236128D01*
X138934000Y-49963872D01*
X138863534Y-49700891D01*
X138727406Y-49465109D01*
X138534891Y-49272594D01*
X138299109Y-49136466D01*
X138036128Y-49066000D01*
X137763872Y-49066000D01*
X137500891Y-49136466D01*
X137265109Y-49272594D01*
X137072594Y-49465109D01*
X136936466Y-49700891D01*
X136866000Y-49963872D01*
X136866000Y-50095453D01*
X136852797Y-50113625D01*
X136834108Y-50171142D01*
X136815853Y-50206971D01*
X136756824Y-50244906D01*
X136745228Y-50258288D01*
X136644773Y-50171243D01*
X136421719Y-50069378D01*
X136188013Y-50035776D01*
X135732453Y-50035776D01*
X135391996Y-50109838D01*
X135181824Y-50244906D01*
X135021243Y-50430227D01*
X134919378Y-50653281D01*
X134894729Y-50824719D01*
X134787518Y-50631703D01*
X134628438Y-50433494D01*
X134438237Y-50264922D01*
X134334129Y-50200246D01*
X134412803Y-50153625D01*
X134606493Y-49989074D01*
X134769688Y-49794240D01*
X134897723Y-49574695D01*
X134986937Y-49336715D01*
X135034893Y-49086509D01*
X135037842Y-48804832D01*
X134995137Y-48553676D01*
X134944330Y-48409000D01*
X140735614Y-48409000D01*
X142991001Y-50664389D01*
G37*
X142991001Y-50664389D02*
X142991000Y-53510243D01*
X142991001Y-53510249D01*
X142991001Y-53570213D01*
X143009688Y-53627724D01*
X143019150Y-53687467D01*
X143046609Y-53741357D01*
X143065297Y-53798874D01*
X143100846Y-53847803D01*
X143128302Y-53901689D01*
X143228000Y-54001388D01*
X143228000Y-55247000D01*
X144391837Y-55247000D01*
X144391837Y-55165225D01*
X144778501Y-55551890D01*
X144778500Y-56257954D01*
X144765296Y-56276127D01*
X144746609Y-56333644D01*
X144719150Y-56387533D01*
X144709688Y-56447276D01*
X144691001Y-56504787D01*
X144691001Y-56564751D01*
X144691000Y-56564757D01*
X144691001Y-59699743D01*
X144691001Y-59920213D01*
X144709690Y-59977732D01*
X144719151Y-60037467D01*
X144746608Y-60091355D01*
X144765297Y-60148875D01*
X144800849Y-60197806D01*
X144828303Y-60251690D01*
X146596014Y-62019401D01*
X146456835Y-62136185D01*
X146345044Y-62329814D01*
X146308163Y-62538976D01*
X146308163Y-64116588D01*
X146388795Y-64417512D01*
X146536185Y-64593165D01*
X146619435Y-64641229D01*
X146565109Y-64672594D01*
X146372594Y-64865109D01*
X146236466Y-65100891D01*
X146166000Y-65363872D01*
X146166000Y-65460612D01*
X145385613Y-66241000D01*
X143653296Y-66241000D01*
X143584891Y-66172594D01*
X143349109Y-66036466D01*
X143086128Y-65966000D01*
X142813872Y-65966000D01*
X142550891Y-66036466D01*
X142315109Y-66172594D01*
X142122594Y-66365109D01*
X141986466Y-66600891D01*
X141916000Y-66863872D01*
X141916000Y-66966000D01*
X140104032Y-66966000D01*
X140034000Y-66895968D01*
X140034000Y-66763872D01*
X139963534Y-66500891D01*
X139827406Y-66265109D01*
X139634891Y-66072594D01*
X139399109Y-65936466D01*
X139136128Y-65866000D01*
X138863872Y-65866000D01*
X138600891Y-65936466D01*
X138365109Y-66072594D01*
X138172594Y-66265109D01*
X138036466Y-66500891D01*
X137966000Y-66763872D01*
X137966000Y-67036128D01*
X138036466Y-67299109D01*
X138172594Y-67534891D01*
X138303703Y-67666000D01*
X137604032Y-67666000D01*
X136034000Y-66095969D01*
X136034000Y-65963872D01*
X135963534Y-65700891D01*
X135875902Y-65549107D01*
X135900891Y-65563534D01*
X136163872Y-65634000D01*
X136436128Y-65634000D01*
X136699109Y-65563534D01*
X136934891Y-65427406D01*
X137127406Y-65234891D01*
X137263534Y-64999109D01*
X137334000Y-64736128D01*
X137334000Y-64570184D01*
X137367512Y-64561205D01*
X137543165Y-64413815D01*
X137654956Y-64220186D01*
X137691837Y-64011024D01*
X137691837Y-63353000D01*
X139608163Y-63353000D01*
X139608163Y-64016588D01*
X139688795Y-64317512D01*
X139836185Y-64493165D01*
X140029814Y-64604956D01*
X140238976Y-64641837D01*
X140772000Y-64641837D01*
X140772000Y-63353000D01*
X139608163Y-63353000D01*
X137691837Y-63353000D01*
X137691837Y-62438976D01*
X139608163Y-62438976D01*
X139608163Y-63097000D01*
X140772000Y-63097000D01*
X140772000Y-61808163D01*
X141028000Y-61808163D01*
X141028000Y-64641837D01*
X141566588Y-64641837D01*
X141867512Y-64561205D01*
X141950756Y-64491355D01*
X142036185Y-64593165D01*
X142229814Y-64704956D01*
X142438976Y-64741837D01*
X142972000Y-64741837D01*
X142972000Y-63453000D01*
X143228000Y-63453000D01*
X143228000Y-64741837D01*
X143766588Y-64741837D01*
X144067512Y-64661205D01*
X144243165Y-64513815D01*
X144354956Y-64320186D01*
X144391837Y-64111024D01*
X144391837Y-63453000D01*
X143228000Y-63453000D01*
X142972000Y-63453000D01*
X142972000Y-61908163D01*
X143228000Y-61908163D01*
X143228000Y-63197000D01*
X144391837Y-63197000D01*
X144391837Y-62533412D01*
X144311205Y-62232489D01*
X144163815Y-62056835D01*
X143970186Y-61945044D01*
X143761024Y-61908163D01*
X143228000Y-61908163D01*
X142972000Y-61908163D01*
X142433412Y-61908163D01*
X142132489Y-61988795D01*
X142049244Y-62058646D01*
X141963815Y-61956835D01*
X141770186Y-61845044D01*
X141561024Y-61808163D01*
X141028000Y-61808163D01*
X140772000Y-61808163D01*
X140233412Y-61808163D01*
X139932489Y-61888795D01*
X139756835Y-62036185D01*
X139645044Y-62229814D01*
X139608163Y-62438976D01*
X137691837Y-62438976D01*
X137691837Y-62433412D01*
X137611205Y-62132489D01*
X137463815Y-61956835D01*
X137270186Y-61845044D01*
X137159000Y-61825439D01*
X137159000Y-56667075D01*
X137367512Y-56611205D01*
X137543165Y-56463815D01*
X137654956Y-56270186D01*
X137691837Y-56061024D01*
X137691837Y-54483412D01*
X137611205Y-54182489D01*
X137463815Y-54006835D01*
X137425927Y-53984960D01*
X137496663Y-53914224D01*
X137632784Y-53914224D01*
X137646608Y-53941355D01*
X137665297Y-53998875D01*
X137700849Y-54047806D01*
X137728303Y-54101690D01*
X137778082Y-54151468D01*
X138655925Y-55029312D01*
X138615998Y-55178324D01*
X138615998Y-55450580D01*
X138686464Y-55713561D01*
X138822592Y-55949343D01*
X139015107Y-56141858D01*
X139250889Y-56277986D01*
X139513870Y-56348452D01*
X139683688Y-56348452D01*
X139688795Y-56367512D01*
X139836185Y-56543165D01*
X140029814Y-56654956D01*
X140238976Y-56691837D01*
X140772000Y-56691837D01*
X140772000Y-53858163D01*
X141028000Y-53858163D01*
X141028000Y-56691837D01*
X141566588Y-56691837D01*
X141867512Y-56611205D01*
X141950756Y-56541355D01*
X142036185Y-56643165D01*
X142229814Y-56754956D01*
X142438976Y-56791837D01*
X142972000Y-56791837D01*
X142972000Y-55503000D01*
X143228000Y-55503000D01*
X143228000Y-56791837D01*
X143766588Y-56791837D01*
X144067512Y-56711205D01*
X144243165Y-56563815D01*
X144354956Y-56370186D01*
X144391837Y-56161024D01*
X144391837Y-55503000D01*
X143228000Y-55503000D01*
X142972000Y-55503000D01*
X142972000Y-53958163D01*
X142433412Y-53958163D01*
X142132489Y-54038795D01*
X142049244Y-54108646D01*
X141963815Y-54006835D01*
X141770186Y-53895044D01*
X141561024Y-53858163D01*
X141028000Y-53858163D01*
X140772000Y-53858163D01*
X140233412Y-53858163D01*
X139932489Y-53938795D01*
X139812699Y-54039311D01*
X139109000Y-53335613D01*
X139109000Y-51464756D01*
X139108999Y-51464750D01*
X139108999Y-51404786D01*
X139090312Y-51347275D01*
X139089932Y-51344875D01*
X139724642Y-51344875D01*
X139740154Y-51591440D01*
X139799084Y-51831361D01*
X139899569Y-52057054D01*
X140038434Y-52261386D01*
X140211287Y-52437899D01*
X140412666Y-52581011D01*
X140636206Y-52686201D01*
X140874840Y-52750143D01*
X141121025Y-52770816D01*
X141366982Y-52747567D01*
X141604933Y-52681128D01*
X141827359Y-52573604D01*
X142027229Y-52428390D01*
X142198224Y-52250078D01*
X142334941Y-52044303D01*
X142433057Y-51817569D01*
X142489852Y-51575424D01*
X142498129Y-51259362D01*
X142454084Y-51014576D01*
X142367969Y-50783018D01*
X142242209Y-50570369D01*
X142080779Y-50383352D01*
X141888784Y-50227878D01*
X141672291Y-50108859D01*
X141438142Y-50030059D01*
X141193740Y-49993969D01*
X140946810Y-50001729D01*
X140705156Y-50053094D01*
X140476417Y-50146441D01*
X140267824Y-50278818D01*
X140085970Y-50446042D01*
X139936602Y-50642827D01*
X139824443Y-50862952D01*
X139753036Y-51099460D01*
X139724642Y-51344875D01*
X139089932Y-51344875D01*
X139080850Y-51287532D01*
X139053391Y-51233642D01*
X139034703Y-51176125D01*
X138999155Y-51127198D01*
X138971697Y-51073309D01*
X138815800Y-50917413D01*
X138680342Y-50781955D01*
X138727406Y-50734891D01*
X138863534Y-50499109D01*
X138934000Y-50236128D01*
X138934000Y-49963872D01*
X138863534Y-49700891D01*
X138727406Y-49465109D01*
X138534891Y-49272594D01*
X138299109Y-49136466D01*
X138036128Y-49066000D01*
X137763872Y-49066000D01*
X137500891Y-49136466D01*
X137265109Y-49272594D01*
X137072594Y-49465109D01*
X136936466Y-49700891D01*
X136866000Y-49963872D01*
X136866000Y-50095453D01*
X136852797Y-50113625D01*
X136834108Y-50171142D01*
X136815853Y-50206971D01*
X136756824Y-50244906D01*
X136745228Y-50258288D01*
X136644773Y-50171243D01*
X136421719Y-50069378D01*
X136188013Y-50035776D01*
X135732453Y-50035776D01*
X135391996Y-50109838D01*
X135181824Y-50244906D01*
X135021243Y-50430227D01*
X134919378Y-50653281D01*
X134894729Y-50824719D01*
X134787518Y-50631703D01*
X134628438Y-50433494D01*
X134438237Y-50264922D01*
X134334129Y-50200246D01*
X134412803Y-50153625D01*
X134606493Y-49989074D01*
X134769688Y-49794240D01*
X134897723Y-49574695D01*
X134986937Y-49336715D01*
X135034893Y-49086509D01*
X135037842Y-48804832D01*
X134995137Y-48553676D01*
X134944330Y-48409000D01*
X140735614Y-48409000D01*
X142991001Y-50664389D01*
M02*
