G04 #@! TF.GenerationSoftware,KiCad,Pcbnew,(5.99.0-286-g11f0acefe)*
G04 #@! TF.CreationDate,2019-12-02T23:07:15-05:00*
G04 #@! TF.ProjectId,Controller,436f6e74-726f-46c6-9c65-722e6b696361,rev?*
G04 #@! TF.SameCoordinates,Original*
G04 #@! TF.FileFunction,Legend,Top*
G04 #@! TF.FilePolarity,Positive*
%FSLAX46Y46*%
G04 Gerber Fmt 4.6, Leading zero omitted, Abs format (unit mm)*
G04 Created by KiCad (PCBNEW (5.99.0-286-g11f0acefe)) date 2019-12-02 23:07:15*
%MOMM*%
%LPD*%
G04 APERTURE LIST*
%ADD10C,0.254000*%
%ADD11C,0.152400*%
%ADD12C,0.120000*%
%ADD13C,0.150000*%
G04 APERTURE END LIST*
D10*
X129222000Y-40548000D02*
X153860000Y-40548000D01*
X153860000Y-40548000D02*
X153860000Y-54772000D01*
X153860000Y-54772000D02*
X129222000Y-54772000D01*
X129222000Y-54772000D02*
X129222000Y-40548000D01*
D11*
X132270000Y-42580000D02*
X129730000Y-42580000D01*
X129730000Y-42580000D02*
X129730000Y-45120000D01*
X129730000Y-45120000D02*
X129730000Y-52740000D01*
X129730000Y-52740000D02*
X134810000Y-52740000D01*
X134810000Y-52740000D02*
X134810000Y-42580000D01*
X134810000Y-42580000D02*
X132270000Y-42580000D01*
D12*
X146678750Y-53906250D02*
X140428750Y-53906250D01*
X146678750Y-48856250D02*
X140428750Y-48856250D01*
X146678750Y-48856250D02*
G75*
G02X146678750Y-53906250I0J-2525000D01*
G01*
X140428750Y-48856250D02*
G75*
G03X140428750Y-53906250I0J-2525000D01*
G01*
X133213751Y-63209999D02*
X134973751Y-63209999D01*
X134973751Y-60139999D02*
X132543751Y-60139999D01*
X131462500Y-57910000D02*
X133262500Y-57910000D01*
X133262500Y-54690000D02*
X130812500Y-54690000D01*
X140393750Y-54521250D02*
X138443750Y-54521250D01*
X140393750Y-54521250D02*
X142343750Y-54521250D01*
X140393750Y-64641250D02*
X138443750Y-64641250D01*
X140393750Y-64641250D02*
X143843750Y-64641250D01*
X134856529Y-59510000D02*
X134530971Y-59510000D01*
X134856529Y-58490000D02*
X134530971Y-58490000D01*
X144740000Y-47225277D02*
X144740000Y-46899719D01*
X145760000Y-47225277D02*
X145760000Y-46899719D01*
X138890000Y-47475277D02*
X138890000Y-47149719D01*
X139910000Y-47475277D02*
X139910000Y-47149719D01*
X137290000Y-47462779D02*
X137290000Y-47137221D01*
X138310000Y-47462779D02*
X138310000Y-47137221D01*
X149694030Y-66291249D02*
X149368472Y-66291249D01*
X149694030Y-65271249D02*
X149368472Y-65271249D01*
X149694030Y-67891251D02*
X149368472Y-67891251D01*
X149694030Y-66871251D02*
X149368472Y-66871251D01*
X145283748Y-65856528D02*
X145283748Y-65530970D01*
X146303748Y-65856528D02*
X146303748Y-65530970D01*
X128290000Y-45662779D02*
X128290000Y-45337221D01*
X129310000Y-45662779D02*
X129310000Y-45337221D01*
X129310000Y-48437221D02*
X129310000Y-48762779D01*
X128290000Y-48437221D02*
X128290000Y-48762779D01*
X137275278Y-66360000D02*
X136949720Y-66360000D01*
X137275278Y-65340000D02*
X136949720Y-65340000D01*
X150930000Y-44852498D02*
X150000000Y-44852498D01*
X147770000Y-44852498D02*
X148700000Y-44852498D01*
X147770000Y-44852498D02*
X147770000Y-47012498D01*
X150930000Y-44852498D02*
X150930000Y-46312498D01*
X143980001Y-44602498D02*
X143050001Y-44602498D01*
X140820001Y-44602498D02*
X141750001Y-44602498D01*
X140820001Y-44602498D02*
X140820001Y-46762498D01*
X143980001Y-44602498D02*
X143980001Y-46062498D01*
X145270001Y-40272497D02*
X153010001Y-40272497D01*
X153010001Y-40272497D02*
X153010001Y-37612497D01*
X153010001Y-37612497D02*
X145270001Y-37612497D01*
X145270001Y-37612497D02*
X145270001Y-40272497D01*
X146220001Y-37612497D02*
X146220001Y-31612497D01*
X146220001Y-31612497D02*
X146980001Y-31612497D01*
X146980001Y-31612497D02*
X146980001Y-37612497D01*
X146280001Y-37612497D02*
X146280001Y-31612497D01*
X146400001Y-37612497D02*
X146400001Y-31612497D01*
X146520001Y-37612497D02*
X146520001Y-31612497D01*
X146640001Y-37612497D02*
X146640001Y-31612497D01*
X146760001Y-37612497D02*
X146760001Y-31612497D01*
X146880001Y-37612497D02*
X146880001Y-31612497D01*
X146220001Y-40602497D02*
X146220001Y-40272497D01*
X146980001Y-40602497D02*
X146980001Y-40272497D01*
X147870001Y-40272497D02*
X147870001Y-37612497D01*
X148760001Y-37612497D02*
X148760001Y-31612497D01*
X148760001Y-31612497D02*
X149520001Y-31612497D01*
X149520001Y-31612497D02*
X149520001Y-37612497D01*
X148760001Y-40669568D02*
X148760001Y-40272497D01*
X149520001Y-40669568D02*
X149520001Y-40272497D01*
X150410001Y-40272497D02*
X150410001Y-37612497D01*
X151300001Y-37612497D02*
X151300001Y-31612497D01*
X151300001Y-31612497D02*
X152060001Y-31612497D01*
X152060001Y-31612497D02*
X152060001Y-37612497D01*
X151300001Y-40669568D02*
X151300001Y-40272497D01*
X152060001Y-40669568D02*
X152060001Y-40272497D01*
X146600001Y-42982497D02*
X145330001Y-42982497D01*
X145330001Y-42982497D02*
X145330001Y-41712497D01*
X136520001Y-40272498D02*
X144260001Y-40272498D01*
X144260001Y-40272498D02*
X144260001Y-37612498D01*
X144260001Y-37612498D02*
X136520001Y-37612498D01*
X136520001Y-37612498D02*
X136520001Y-40272498D01*
X137470001Y-37612498D02*
X137470001Y-31612498D01*
X137470001Y-31612498D02*
X138230001Y-31612498D01*
X138230001Y-31612498D02*
X138230001Y-37612498D01*
X137530001Y-37612498D02*
X137530001Y-31612498D01*
X137650001Y-37612498D02*
X137650001Y-31612498D01*
X137770001Y-37612498D02*
X137770001Y-31612498D01*
X137890001Y-37612498D02*
X137890001Y-31612498D01*
X138010001Y-37612498D02*
X138010001Y-31612498D01*
X138130001Y-37612498D02*
X138130001Y-31612498D01*
X137470001Y-40602498D02*
X137470001Y-40272498D01*
X138230001Y-40602498D02*
X138230001Y-40272498D01*
X139120001Y-40272498D02*
X139120001Y-37612498D01*
X140010001Y-37612498D02*
X140010001Y-31612498D01*
X140010001Y-31612498D02*
X140770001Y-31612498D01*
X140770001Y-31612498D02*
X140770001Y-37612498D01*
X140010001Y-40669569D02*
X140010001Y-40272498D01*
X140770001Y-40669569D02*
X140770001Y-40272498D01*
X141660001Y-40272498D02*
X141660001Y-37612498D01*
X142550001Y-37612498D02*
X142550001Y-31612498D01*
X142550001Y-31612498D02*
X143310001Y-31612498D01*
X143310001Y-31612498D02*
X143310001Y-37612498D01*
X142550001Y-40669569D02*
X142550001Y-40272498D01*
X143310001Y-40669569D02*
X143310001Y-40272498D01*
X137850001Y-42982498D02*
X136580001Y-42982498D01*
X136580001Y-42982498D02*
X136580001Y-41712498D01*
X150943750Y-63091251D02*
X149393750Y-63091251D01*
X150943750Y-63091251D02*
X150943750Y-62791251D01*
X153743750Y-62791251D02*
X150943750Y-62791251D01*
X150943750Y-54791251D02*
X149393750Y-54791251D01*
X150943750Y-55091251D02*
X150943750Y-54791251D01*
X153743750Y-55091251D02*
X150943750Y-55091251D01*
X147693750Y-59841251D02*
X148143750Y-60241251D01*
X147693750Y-60641251D02*
X147693750Y-59841251D01*
X148143750Y-60241251D02*
X147693750Y-60641251D01*
X130483750Y-62050282D02*
X130483750Y-61724724D01*
X131503750Y-62050282D02*
X131503750Y-61724724D01*
X134752500Y-56462779D02*
X134752500Y-56137221D01*
X135772500Y-56462779D02*
X135772500Y-56137221D01*
X129002500Y-55912779D02*
X129002500Y-55587221D01*
X130022500Y-55912779D02*
X130022500Y-55587221D01*
X137687221Y-44252497D02*
X138012779Y-44252497D01*
X137687221Y-45272497D02*
X138012779Y-45272497D01*
X145687221Y-43902498D02*
X146012779Y-43902498D01*
X145687221Y-44922498D02*
X146012779Y-44922498D01*
X136140000Y-52862779D02*
X136140000Y-52537221D01*
X137160000Y-52862779D02*
X137160000Y-52537221D01*
X150237221Y-53340000D02*
X150562779Y-53340000D01*
X150237221Y-54360000D02*
X150562779Y-54360000D01*
X146303750Y-62318471D02*
X146303750Y-62644029D01*
X145283750Y-62318471D02*
X145283750Y-62644029D01*
X149368471Y-63671250D02*
X149694029Y-63671250D01*
X149368471Y-64691250D02*
X149694029Y-64691250D01*
X140330973Y-65371249D02*
X140656531Y-65371249D01*
X140330973Y-66391249D02*
X140656531Y-66391249D01*
X129310000Y-51537221D02*
X129310000Y-51862779D01*
X128290000Y-51537221D02*
X128290000Y-51862779D01*
X129623750Y-59130000D02*
X126963750Y-59130000D01*
X129623750Y-61730000D02*
X129623750Y-59130000D01*
X126963750Y-61730000D02*
X126963750Y-59130000D01*
X129623750Y-61730000D02*
X126963750Y-61730000D01*
X129623750Y-63000000D02*
X129623750Y-64330000D01*
X129623750Y-64330000D02*
X128293750Y-64330000D01*
D13*
X148835714Y-49952380D02*
X148835714Y-48952380D01*
X148835714Y-49428571D02*
X149407142Y-49428571D01*
X149407142Y-49952380D02*
X149407142Y-48952380D01*
X150407142Y-49952380D02*
X149835714Y-49952380D01*
X150121428Y-49952380D02*
X150121428Y-48952380D01*
X150026190Y-49095238D01*
X149930952Y-49190476D01*
X149835714Y-49238095D01*
X151026190Y-48952380D02*
X151121428Y-48952380D01*
X151216666Y-49000000D01*
X151264285Y-49047619D01*
X151311904Y-49142857D01*
X151359523Y-49333333D01*
X151359523Y-49571428D01*
X151311904Y-49761904D01*
X151264285Y-49857142D01*
X151216666Y-49904761D01*
X151121428Y-49952380D01*
X151026190Y-49952380D01*
X150930952Y-49904761D01*
X150883333Y-49857142D01*
X150835714Y-49761904D01*
X150788095Y-49571428D01*
X150788095Y-49333333D01*
X150835714Y-49142857D01*
X150883333Y-49047619D01*
X150930952Y-49000000D01*
X151026190Y-48952380D01*
X151740476Y-49047619D02*
X151788095Y-49000000D01*
X151883333Y-48952380D01*
X152121428Y-48952380D01*
X152216666Y-49000000D01*
X152264285Y-49047619D01*
X152311904Y-49142857D01*
X152311904Y-49238095D01*
X152264285Y-49380952D01*
X151692857Y-49952380D01*
X152311904Y-49952380D01*
X130785714Y-66952380D02*
X130785714Y-65952380D01*
X130785714Y-66428571D02*
X131357142Y-66428571D01*
X131357142Y-66952380D02*
X131357142Y-65952380D01*
X132357142Y-66952380D02*
X131785714Y-66952380D01*
X132071428Y-66952380D02*
X132071428Y-65952380D01*
X131976190Y-66095238D01*
X131880952Y-66190476D01*
X131785714Y-66238095D01*
X132976190Y-65952380D02*
X133071428Y-65952380D01*
X133166666Y-66000000D01*
X133214285Y-66047619D01*
X133261904Y-66142857D01*
X133309523Y-66333333D01*
X133309523Y-66571428D01*
X133261904Y-66761904D01*
X133214285Y-66857142D01*
X133166666Y-66904761D01*
X133071428Y-66952380D01*
X132976190Y-66952380D01*
X132880952Y-66904761D01*
X132833333Y-66857142D01*
X132785714Y-66761904D01*
X132738095Y-66571428D01*
X132738095Y-66333333D01*
X132785714Y-66142857D01*
X132833333Y-66047619D01*
X132880952Y-66000000D01*
X132976190Y-65952380D01*
X134261904Y-66952380D02*
X133690476Y-66952380D01*
X133976190Y-66952380D02*
X133976190Y-65952380D01*
X133880952Y-66095238D01*
X133785714Y-66190476D01*
X133690476Y-66238095D01*
X129539714Y-38730380D02*
X129539714Y-39539904D01*
X129587333Y-39635142D01*
X129634952Y-39682761D01*
X129730190Y-39730380D01*
X129920666Y-39730380D01*
X130015904Y-39682761D01*
X130063523Y-39635142D01*
X130111142Y-39539904D01*
X130111142Y-38730380D01*
X131111142Y-39730380D02*
X130539714Y-39730380D01*
X130825428Y-39730380D02*
X130825428Y-38730380D01*
X130730190Y-38873238D01*
X130634952Y-38968476D01*
X130539714Y-39016095D01*
X131730190Y-38730380D02*
X131825428Y-38730380D01*
X131920666Y-38778000D01*
X131968285Y-38825619D01*
X132015904Y-38920857D01*
X132063523Y-39111333D01*
X132063523Y-39349428D01*
X132015904Y-39539904D01*
X131968285Y-39635142D01*
X131920666Y-39682761D01*
X131825428Y-39730380D01*
X131730190Y-39730380D01*
X131634952Y-39682761D01*
X131587333Y-39635142D01*
X131539714Y-39539904D01*
X131492095Y-39349428D01*
X131492095Y-39111333D01*
X131539714Y-38920857D01*
X131587333Y-38825619D01*
X131634952Y-38778000D01*
X131730190Y-38730380D01*
X133015904Y-39730380D02*
X132444476Y-39730380D01*
X132730190Y-39730380D02*
X132730190Y-38730380D01*
X132634952Y-38873238D01*
X132539714Y-38968476D01*
X132444476Y-39016095D01*
X142125178Y-54882440D02*
X142125178Y-55358630D01*
X141791845Y-54358630D02*
X142125178Y-54882440D01*
X142458511Y-54358630D01*
X143315654Y-55358630D02*
X142744226Y-55358630D01*
X143029940Y-55358630D02*
X143029940Y-54358630D01*
X142934702Y-54501488D01*
X142839464Y-54596726D01*
X142744226Y-54644345D01*
X143934702Y-54358630D02*
X144029940Y-54358630D01*
X144125178Y-54406250D01*
X144172797Y-54453869D01*
X144220416Y-54549107D01*
X144268035Y-54739583D01*
X144268035Y-54977678D01*
X144220416Y-55168154D01*
X144172797Y-55263392D01*
X144125178Y-55311011D01*
X144029940Y-55358630D01*
X143934702Y-55358630D01*
X143839464Y-55311011D01*
X143791845Y-55263392D01*
X143744226Y-55168154D01*
X143696607Y-54977678D01*
X143696607Y-54739583D01*
X143744226Y-54549107D01*
X143791845Y-54453869D01*
X143839464Y-54406250D01*
X143934702Y-54358630D01*
X145220416Y-55358630D02*
X144648988Y-55358630D01*
X144934702Y-55358630D02*
X144934702Y-54358630D01*
X144839464Y-54501488D01*
X144744226Y-54596726D01*
X144648988Y-54644345D01*
X133285714Y-63452380D02*
X133285714Y-64261904D01*
X133333333Y-64357142D01*
X133380952Y-64404761D01*
X133476190Y-64452380D01*
X133666666Y-64452380D01*
X133761904Y-64404761D01*
X133809523Y-64357142D01*
X133857142Y-64261904D01*
X133857142Y-63452380D01*
X134857142Y-64452380D02*
X134285714Y-64452380D01*
X134571428Y-64452380D02*
X134571428Y-63452380D01*
X134476190Y-63595238D01*
X134380952Y-63690476D01*
X134285714Y-63738095D01*
X135476190Y-63452380D02*
X135571428Y-63452380D01*
X135666666Y-63500000D01*
X135714285Y-63547619D01*
X135761904Y-63642857D01*
X135809523Y-63833333D01*
X135809523Y-64071428D01*
X135761904Y-64261904D01*
X135714285Y-64357142D01*
X135666666Y-64404761D01*
X135571428Y-64452380D01*
X135476190Y-64452380D01*
X135380952Y-64404761D01*
X135333333Y-64357142D01*
X135285714Y-64261904D01*
X135238095Y-64071428D01*
X135238095Y-63833333D01*
X135285714Y-63642857D01*
X135333333Y-63547619D01*
X135380952Y-63500000D01*
X135476190Y-63452380D01*
X136666666Y-63785714D02*
X136666666Y-64452380D01*
X136428571Y-63404761D02*
X136190476Y-64119047D01*
X136809523Y-64119047D01*
X130285714Y-52952380D02*
X130285714Y-53761904D01*
X130333333Y-53857142D01*
X130380952Y-53904761D01*
X130476190Y-53952380D01*
X130666666Y-53952380D01*
X130761904Y-53904761D01*
X130809523Y-53857142D01*
X130857142Y-53761904D01*
X130857142Y-52952380D01*
X131857142Y-53952380D02*
X131285714Y-53952380D01*
X131571428Y-53952380D02*
X131571428Y-52952380D01*
X131476190Y-53095238D01*
X131380952Y-53190476D01*
X131285714Y-53238095D01*
X132476190Y-52952380D02*
X132571428Y-52952380D01*
X132666666Y-53000000D01*
X132714285Y-53047619D01*
X132761904Y-53142857D01*
X132809523Y-53333333D01*
X132809523Y-53571428D01*
X132761904Y-53761904D01*
X132714285Y-53857142D01*
X132666666Y-53904761D01*
X132571428Y-53952380D01*
X132476190Y-53952380D01*
X132380952Y-53904761D01*
X132333333Y-53857142D01*
X132285714Y-53761904D01*
X132238095Y-53571428D01*
X132238095Y-53333333D01*
X132285714Y-53142857D01*
X132333333Y-53047619D01*
X132380952Y-53000000D01*
X132476190Y-52952380D01*
X133142857Y-52952380D02*
X133761904Y-52952380D01*
X133428571Y-53333333D01*
X133571428Y-53333333D01*
X133666666Y-53380952D01*
X133714285Y-53428571D01*
X133761904Y-53523809D01*
X133761904Y-53761904D01*
X133714285Y-53857142D01*
X133666666Y-53904761D01*
X133571428Y-53952380D01*
X133285714Y-53952380D01*
X133190476Y-53904761D01*
X133142857Y-53857142D01*
X139952380Y-58714285D02*
X140761904Y-58714285D01*
X140857142Y-58666666D01*
X140904761Y-58619047D01*
X140952380Y-58523809D01*
X140952380Y-58333333D01*
X140904761Y-58238095D01*
X140857142Y-58190476D01*
X140761904Y-58142857D01*
X139952380Y-58142857D01*
X140952380Y-57142857D02*
X140952380Y-57714285D01*
X140952380Y-57428571D02*
X139952380Y-57428571D01*
X140095238Y-57523809D01*
X140190476Y-57619047D01*
X140238095Y-57714285D01*
X139952380Y-56523809D02*
X139952380Y-56428571D01*
X140000000Y-56333333D01*
X140047619Y-56285714D01*
X140142857Y-56238095D01*
X140333333Y-56190476D01*
X140571428Y-56190476D01*
X140761904Y-56238095D01*
X140857142Y-56285714D01*
X140904761Y-56333333D01*
X140952380Y-56428571D01*
X140952380Y-56523809D01*
X140904761Y-56619047D01*
X140857142Y-56666666D01*
X140761904Y-56714285D01*
X140571428Y-56761904D01*
X140333333Y-56761904D01*
X140142857Y-56714285D01*
X140047619Y-56666666D01*
X140000000Y-56619047D01*
X139952380Y-56523809D01*
X140047619Y-55809523D02*
X140000000Y-55761904D01*
X139952380Y-55666666D01*
X139952380Y-55428571D01*
X140000000Y-55333333D01*
X140047619Y-55285714D01*
X140142857Y-55238095D01*
X140238095Y-55238095D01*
X140380952Y-55285714D01*
X140952380Y-55857142D01*
X140952380Y-55238095D01*
X136880952Y-59952380D02*
X136547619Y-59476190D01*
X136309523Y-59952380D02*
X136309523Y-58952380D01*
X136690476Y-58952380D01*
X136785714Y-59000000D01*
X136833333Y-59047619D01*
X136880952Y-59142857D01*
X136880952Y-59285714D01*
X136833333Y-59380952D01*
X136785714Y-59428571D01*
X136690476Y-59476190D01*
X136309523Y-59476190D01*
X137833333Y-59952380D02*
X137261904Y-59952380D01*
X137547619Y-59952380D02*
X137547619Y-58952380D01*
X137452380Y-59095238D01*
X137357142Y-59190476D01*
X137261904Y-59238095D01*
X138785714Y-59952380D02*
X138214285Y-59952380D01*
X138500000Y-59952380D02*
X138500000Y-58952380D01*
X138404761Y-59095238D01*
X138309523Y-59190476D01*
X138214285Y-59238095D01*
X139119047Y-58952380D02*
X139738095Y-58952380D01*
X139404761Y-59333333D01*
X139547619Y-59333333D01*
X139642857Y-59380952D01*
X139690476Y-59428571D01*
X139738095Y-59523809D01*
X139738095Y-59761904D01*
X139690476Y-59857142D01*
X139642857Y-59904761D01*
X139547619Y-59952380D01*
X139261904Y-59952380D01*
X139166666Y-59904761D01*
X139119047Y-59857142D01*
X144272380Y-48181545D02*
X143796190Y-48514878D01*
X144272380Y-48752974D02*
X143272380Y-48752974D01*
X143272380Y-48372021D01*
X143320000Y-48276783D01*
X143367619Y-48229164D01*
X143462857Y-48181545D01*
X143605714Y-48181545D01*
X143700952Y-48229164D01*
X143748571Y-48276783D01*
X143796190Y-48372021D01*
X143796190Y-48752974D01*
X144272380Y-47229164D02*
X144272380Y-47800593D01*
X144272380Y-47514878D02*
X143272380Y-47514878D01*
X143415238Y-47610117D01*
X143510476Y-47705355D01*
X143558095Y-47800593D01*
X144272380Y-46276783D02*
X144272380Y-46848212D01*
X144272380Y-46562498D02*
X143272380Y-46562498D01*
X143415238Y-46657736D01*
X143510476Y-46752974D01*
X143558095Y-46848212D01*
X143272380Y-45657736D02*
X143272380Y-45562498D01*
X143320000Y-45467259D01*
X143367619Y-45419640D01*
X143462857Y-45372021D01*
X143653333Y-45324402D01*
X143891428Y-45324402D01*
X144081904Y-45372021D01*
X144177142Y-45419640D01*
X144224761Y-45467259D01*
X144272380Y-45562498D01*
X144272380Y-45657736D01*
X144224761Y-45752974D01*
X144177142Y-45800593D01*
X144081904Y-45848212D01*
X143891428Y-45895831D01*
X143653333Y-45895831D01*
X143462857Y-45848212D01*
X143367619Y-45800593D01*
X143320000Y-45752974D01*
X143272380Y-45657736D01*
X139952380Y-52119047D02*
X139476190Y-52452380D01*
X139952380Y-52690476D02*
X138952380Y-52690476D01*
X138952380Y-52309523D01*
X139000000Y-52214285D01*
X139047619Y-52166666D01*
X139142857Y-52119047D01*
X139285714Y-52119047D01*
X139380952Y-52166666D01*
X139428571Y-52214285D01*
X139476190Y-52309523D01*
X139476190Y-52690476D01*
X139952380Y-51166666D02*
X139952380Y-51738095D01*
X139952380Y-51452380D02*
X138952380Y-51452380D01*
X139095238Y-51547619D01*
X139190476Y-51642857D01*
X139238095Y-51738095D01*
X138952380Y-50547619D02*
X138952380Y-50452380D01*
X139000000Y-50357142D01*
X139047619Y-50309523D01*
X139142857Y-50261904D01*
X139333333Y-50214285D01*
X139571428Y-50214285D01*
X139761904Y-50261904D01*
X139857142Y-50309523D01*
X139904761Y-50357142D01*
X139952380Y-50452380D01*
X139952380Y-50547619D01*
X139904761Y-50642857D01*
X139857142Y-50690476D01*
X139761904Y-50738095D01*
X139571428Y-50785714D01*
X139333333Y-50785714D01*
X139142857Y-50738095D01*
X139047619Y-50690476D01*
X139000000Y-50642857D01*
X138952380Y-50547619D01*
X139952380Y-49738095D02*
X139952380Y-49547619D01*
X139904761Y-49452380D01*
X139857142Y-49404761D01*
X139714285Y-49309523D01*
X139523809Y-49261904D01*
X139142857Y-49261904D01*
X139047619Y-49309523D01*
X139000000Y-49357142D01*
X138952380Y-49452380D01*
X138952380Y-49642857D01*
X139000000Y-49738095D01*
X139047619Y-49785714D01*
X139142857Y-49833333D01*
X139380952Y-49833333D01*
X139476190Y-49785714D01*
X139523809Y-49738095D01*
X139571428Y-49642857D01*
X139571428Y-49452380D01*
X139523809Y-49357142D01*
X139476190Y-49309523D01*
X139380952Y-49261904D01*
X136822380Y-48419047D02*
X136346190Y-48752380D01*
X136822380Y-48990476D02*
X135822380Y-48990476D01*
X135822380Y-48609523D01*
X135870000Y-48514285D01*
X135917619Y-48466666D01*
X136012857Y-48419047D01*
X136155714Y-48419047D01*
X136250952Y-48466666D01*
X136298571Y-48514285D01*
X136346190Y-48609523D01*
X136346190Y-48990476D01*
X136822380Y-47466666D02*
X136822380Y-48038095D01*
X136822380Y-47752380D02*
X135822380Y-47752380D01*
X135965238Y-47847619D01*
X136060476Y-47942857D01*
X136108095Y-48038095D01*
X135822380Y-46847619D02*
X135822380Y-46752380D01*
X135870000Y-46657142D01*
X135917619Y-46609523D01*
X136012857Y-46561904D01*
X136203333Y-46514285D01*
X136441428Y-46514285D01*
X136631904Y-46561904D01*
X136727142Y-46609523D01*
X136774761Y-46657142D01*
X136822380Y-46752380D01*
X136822380Y-46847619D01*
X136774761Y-46942857D01*
X136727142Y-46990476D01*
X136631904Y-47038095D01*
X136441428Y-47085714D01*
X136203333Y-47085714D01*
X136012857Y-47038095D01*
X135917619Y-46990476D01*
X135870000Y-46942857D01*
X135822380Y-46847619D01*
X136250952Y-45942857D02*
X136203333Y-46038095D01*
X136155714Y-46085714D01*
X136060476Y-46133333D01*
X136012857Y-46133333D01*
X135917619Y-46085714D01*
X135870000Y-46038095D01*
X135822380Y-45942857D01*
X135822380Y-45752380D01*
X135870000Y-45657142D01*
X135917619Y-45609523D01*
X136012857Y-45561904D01*
X136060476Y-45561904D01*
X136155714Y-45609523D01*
X136203333Y-45657142D01*
X136250952Y-45752380D01*
X136250952Y-45942857D01*
X136298571Y-46038095D01*
X136346190Y-46085714D01*
X136441428Y-46133333D01*
X136631904Y-46133333D01*
X136727142Y-46085714D01*
X136774761Y-46038095D01*
X136822380Y-45942857D01*
X136822380Y-45752380D01*
X136774761Y-45657142D01*
X136727142Y-45609523D01*
X136631904Y-45561904D01*
X136441428Y-45561904D01*
X136346190Y-45609523D01*
X136298571Y-45657142D01*
X136250952Y-45752380D01*
X145380952Y-58452380D02*
X145047619Y-57976190D01*
X144809523Y-58452380D02*
X144809523Y-57452380D01*
X145190476Y-57452380D01*
X145285714Y-57500000D01*
X145333333Y-57547619D01*
X145380952Y-57642857D01*
X145380952Y-57785714D01*
X145333333Y-57880952D01*
X145285714Y-57928571D01*
X145190476Y-57976190D01*
X144809523Y-57976190D01*
X146333333Y-58452380D02*
X145761904Y-58452380D01*
X146047619Y-58452380D02*
X146047619Y-57452380D01*
X145952380Y-57595238D01*
X145857142Y-57690476D01*
X145761904Y-57738095D01*
X146952380Y-57452380D02*
X147047619Y-57452380D01*
X147142857Y-57500000D01*
X147190476Y-57547619D01*
X147238095Y-57642857D01*
X147285714Y-57833333D01*
X147285714Y-58071428D01*
X147238095Y-58261904D01*
X147190476Y-58357142D01*
X147142857Y-58404761D01*
X147047619Y-58452380D01*
X146952380Y-58452380D01*
X146857142Y-58404761D01*
X146809523Y-58357142D01*
X146761904Y-58261904D01*
X146714285Y-58071428D01*
X146714285Y-57833333D01*
X146761904Y-57642857D01*
X146809523Y-57547619D01*
X146857142Y-57500000D01*
X146952380Y-57452380D01*
X147619047Y-57452380D02*
X148285714Y-57452380D01*
X147857142Y-58452380D01*
X145380952Y-59952380D02*
X145047619Y-59476190D01*
X144809523Y-59952380D02*
X144809523Y-58952380D01*
X145190476Y-58952380D01*
X145285714Y-59000000D01*
X145333333Y-59047619D01*
X145380952Y-59142857D01*
X145380952Y-59285714D01*
X145333333Y-59380952D01*
X145285714Y-59428571D01*
X145190476Y-59476190D01*
X144809523Y-59476190D01*
X146333333Y-59952380D02*
X145761904Y-59952380D01*
X146047619Y-59952380D02*
X146047619Y-58952380D01*
X145952380Y-59095238D01*
X145857142Y-59190476D01*
X145761904Y-59238095D01*
X146952380Y-58952380D02*
X147047619Y-58952380D01*
X147142857Y-59000000D01*
X147190476Y-59047619D01*
X147238095Y-59142857D01*
X147285714Y-59333333D01*
X147285714Y-59571428D01*
X147238095Y-59761904D01*
X147190476Y-59857142D01*
X147142857Y-59904761D01*
X147047619Y-59952380D01*
X146952380Y-59952380D01*
X146857142Y-59904761D01*
X146809523Y-59857142D01*
X146761904Y-59761904D01*
X146714285Y-59571428D01*
X146714285Y-59333333D01*
X146761904Y-59142857D01*
X146809523Y-59047619D01*
X146857142Y-59000000D01*
X146952380Y-58952380D01*
X148142857Y-58952380D02*
X147952380Y-58952380D01*
X147857142Y-59000000D01*
X147809523Y-59047619D01*
X147714285Y-59190476D01*
X147666666Y-59380952D01*
X147666666Y-59761904D01*
X147714285Y-59857142D01*
X147761904Y-59904761D01*
X147857142Y-59952380D01*
X148047619Y-59952380D01*
X148142857Y-59904761D01*
X148190476Y-59857142D01*
X148238095Y-59761904D01*
X148238095Y-59523809D01*
X148190476Y-59428571D01*
X148142857Y-59380952D01*
X148047619Y-59333333D01*
X147857142Y-59333333D01*
X147761904Y-59380952D01*
X147714285Y-59428571D01*
X147666666Y-59523809D01*
X144816128Y-67119047D02*
X144339938Y-67452380D01*
X144816128Y-67690476D02*
X143816128Y-67690476D01*
X143816128Y-67309523D01*
X143863748Y-67214285D01*
X143911367Y-67166666D01*
X144006605Y-67119047D01*
X144149462Y-67119047D01*
X144244700Y-67166666D01*
X144292319Y-67214285D01*
X144339938Y-67309523D01*
X144339938Y-67690476D01*
X144816128Y-66166666D02*
X144816128Y-66738095D01*
X144816128Y-66452380D02*
X143816128Y-66452380D01*
X143958986Y-66547619D01*
X144054224Y-66642857D01*
X144101843Y-66738095D01*
X143816128Y-65547619D02*
X143816128Y-65452380D01*
X143863748Y-65357142D01*
X143911367Y-65309523D01*
X144006605Y-65261904D01*
X144197081Y-65214285D01*
X144435176Y-65214285D01*
X144625652Y-65261904D01*
X144720890Y-65309523D01*
X144768509Y-65357142D01*
X144816128Y-65452380D01*
X144816128Y-65547619D01*
X144768509Y-65642857D01*
X144720890Y-65690476D01*
X144625652Y-65738095D01*
X144435176Y-65785714D01*
X144197081Y-65785714D01*
X144006605Y-65738095D01*
X143911367Y-65690476D01*
X143863748Y-65642857D01*
X143816128Y-65547619D01*
X143816128Y-64309523D02*
X143816128Y-64785714D01*
X144292319Y-64833333D01*
X144244700Y-64785714D01*
X144197081Y-64690476D01*
X144197081Y-64452380D01*
X144244700Y-64357142D01*
X144292319Y-64309523D01*
X144387557Y-64261904D01*
X144625652Y-64261904D01*
X144720890Y-64309523D01*
X144768509Y-64357142D01*
X144816128Y-64452380D01*
X144816128Y-64690476D01*
X144768509Y-64785714D01*
X144720890Y-64833333D01*
X127822380Y-45119047D02*
X127346190Y-45452380D01*
X127822380Y-45690476D02*
X126822380Y-45690476D01*
X126822380Y-45309523D01*
X126870000Y-45214285D01*
X126917619Y-45166666D01*
X127012857Y-45119047D01*
X127155714Y-45119047D01*
X127250952Y-45166666D01*
X127298571Y-45214285D01*
X127346190Y-45309523D01*
X127346190Y-45690476D01*
X127822380Y-44166666D02*
X127822380Y-44738095D01*
X127822380Y-44452380D02*
X126822380Y-44452380D01*
X126965238Y-44547619D01*
X127060476Y-44642857D01*
X127108095Y-44738095D01*
X126822380Y-43547619D02*
X126822380Y-43452380D01*
X126870000Y-43357142D01*
X126917619Y-43309523D01*
X127012857Y-43261904D01*
X127203333Y-43214285D01*
X127441428Y-43214285D01*
X127631904Y-43261904D01*
X127727142Y-43309523D01*
X127774761Y-43357142D01*
X127822380Y-43452380D01*
X127822380Y-43547619D01*
X127774761Y-43642857D01*
X127727142Y-43690476D01*
X127631904Y-43738095D01*
X127441428Y-43785714D01*
X127203333Y-43785714D01*
X127012857Y-43738095D01*
X126917619Y-43690476D01*
X126870000Y-43642857D01*
X126822380Y-43547619D01*
X127155714Y-42357142D02*
X127822380Y-42357142D01*
X126774761Y-42595238D02*
X127489047Y-42833333D01*
X127489047Y-42214285D01*
X127952380Y-49119047D02*
X127476190Y-49452380D01*
X127952380Y-49690476D02*
X126952380Y-49690476D01*
X126952380Y-49309523D01*
X127000000Y-49214285D01*
X127047619Y-49166666D01*
X127142857Y-49119047D01*
X127285714Y-49119047D01*
X127380952Y-49166666D01*
X127428571Y-49214285D01*
X127476190Y-49309523D01*
X127476190Y-49690476D01*
X127952380Y-48166666D02*
X127952380Y-48738095D01*
X127952380Y-48452380D02*
X126952380Y-48452380D01*
X127095238Y-48547619D01*
X127190476Y-48642857D01*
X127238095Y-48738095D01*
X126952380Y-47547619D02*
X126952380Y-47452380D01*
X127000000Y-47357142D01*
X127047619Y-47309523D01*
X127142857Y-47261904D01*
X127333333Y-47214285D01*
X127571428Y-47214285D01*
X127761904Y-47261904D01*
X127857142Y-47309523D01*
X127904761Y-47357142D01*
X127952380Y-47452380D01*
X127952380Y-47547619D01*
X127904761Y-47642857D01*
X127857142Y-47690476D01*
X127761904Y-47738095D01*
X127571428Y-47785714D01*
X127333333Y-47785714D01*
X127142857Y-47738095D01*
X127047619Y-47690476D01*
X127000000Y-47642857D01*
X126952380Y-47547619D01*
X126952380Y-46880952D02*
X126952380Y-46261904D01*
X127333333Y-46595238D01*
X127333333Y-46452380D01*
X127380952Y-46357142D01*
X127428571Y-46309523D01*
X127523809Y-46261904D01*
X127761904Y-46261904D01*
X127857142Y-46309523D01*
X127904761Y-46357142D01*
X127952380Y-46452380D01*
X127952380Y-46738095D01*
X127904761Y-46833333D01*
X127857142Y-46880952D01*
X135993451Y-67732380D02*
X135660118Y-67256190D01*
X135422022Y-67732380D02*
X135422022Y-66732380D01*
X135802975Y-66732380D01*
X135898213Y-66780000D01*
X135945832Y-66827619D01*
X135993451Y-66922857D01*
X135993451Y-67065714D01*
X135945832Y-67160952D01*
X135898213Y-67208571D01*
X135802975Y-67256190D01*
X135422022Y-67256190D01*
X136945832Y-67732380D02*
X136374403Y-67732380D01*
X136660118Y-67732380D02*
X136660118Y-66732380D01*
X136564879Y-66875238D01*
X136469641Y-66970476D01*
X136374403Y-67018095D01*
X137564879Y-66732380D02*
X137660118Y-66732380D01*
X137755356Y-66780000D01*
X137802975Y-66827619D01*
X137850594Y-66922857D01*
X137898213Y-67113333D01*
X137898213Y-67351428D01*
X137850594Y-67541904D01*
X137802975Y-67637142D01*
X137755356Y-67684761D01*
X137660118Y-67732380D01*
X137564879Y-67732380D01*
X137469641Y-67684761D01*
X137422022Y-67637142D01*
X137374403Y-67541904D01*
X137326784Y-67351428D01*
X137326784Y-67113333D01*
X137374403Y-66922857D01*
X137422022Y-66827619D01*
X137469641Y-66780000D01*
X137564879Y-66732380D01*
X138850594Y-67732380D02*
X138279165Y-67732380D01*
X138564879Y-67732380D02*
X138564879Y-66732380D01*
X138469641Y-66875238D01*
X138374403Y-66970476D01*
X138279165Y-67018095D01*
X148452380Y-44547619D02*
X148357142Y-44500000D01*
X148261904Y-44404761D01*
X148119047Y-44261904D01*
X148023809Y-44214285D01*
X147928571Y-44214285D01*
X147976190Y-44452380D02*
X147880952Y-44404761D01*
X147785714Y-44309523D01*
X147738095Y-44119047D01*
X147738095Y-43785714D01*
X147785714Y-43595238D01*
X147880952Y-43500000D01*
X147976190Y-43452380D01*
X148166666Y-43452380D01*
X148261904Y-43500000D01*
X148357142Y-43595238D01*
X148404761Y-43785714D01*
X148404761Y-44119047D01*
X148357142Y-44309523D01*
X148261904Y-44404761D01*
X148166666Y-44452380D01*
X147976190Y-44452380D01*
X149357142Y-44452380D02*
X148785714Y-44452380D01*
X149071428Y-44452380D02*
X149071428Y-43452380D01*
X148976190Y-43595238D01*
X148880952Y-43690476D01*
X148785714Y-43738095D01*
X149976190Y-43452380D02*
X150071428Y-43452380D01*
X150166666Y-43500000D01*
X150214285Y-43547619D01*
X150261904Y-43642857D01*
X150309523Y-43833333D01*
X150309523Y-44071428D01*
X150261904Y-44261904D01*
X150214285Y-44357142D01*
X150166666Y-44404761D01*
X150071428Y-44452380D01*
X149976190Y-44452380D01*
X149880952Y-44404761D01*
X149833333Y-44357142D01*
X149785714Y-44261904D01*
X149738095Y-44071428D01*
X149738095Y-43833333D01*
X149785714Y-43642857D01*
X149833333Y-43547619D01*
X149880952Y-43500000D01*
X149976190Y-43452380D01*
X150690476Y-43547619D02*
X150738095Y-43500000D01*
X150833333Y-43452380D01*
X151071428Y-43452380D01*
X151166666Y-43500000D01*
X151214285Y-43547619D01*
X151261904Y-43642857D01*
X151261904Y-43738095D01*
X151214285Y-43880952D01*
X150642857Y-44452380D01*
X151261904Y-44452380D01*
X140952380Y-44047619D02*
X140857142Y-44000000D01*
X140761904Y-43904761D01*
X140619047Y-43761904D01*
X140523809Y-43714285D01*
X140428571Y-43714285D01*
X140476190Y-43952380D02*
X140380952Y-43904761D01*
X140285714Y-43809523D01*
X140238095Y-43619047D01*
X140238095Y-43285714D01*
X140285714Y-43095238D01*
X140380952Y-43000000D01*
X140476190Y-42952380D01*
X140666666Y-42952380D01*
X140761904Y-43000000D01*
X140857142Y-43095238D01*
X140904761Y-43285714D01*
X140904761Y-43619047D01*
X140857142Y-43809523D01*
X140761904Y-43904761D01*
X140666666Y-43952380D01*
X140476190Y-43952380D01*
X141857142Y-43952380D02*
X141285714Y-43952380D01*
X141571428Y-43952380D02*
X141571428Y-42952380D01*
X141476190Y-43095238D01*
X141380952Y-43190476D01*
X141285714Y-43238095D01*
X142476190Y-42952380D02*
X142571428Y-42952380D01*
X142666666Y-43000000D01*
X142714285Y-43047619D01*
X142761904Y-43142857D01*
X142809523Y-43333333D01*
X142809523Y-43571428D01*
X142761904Y-43761904D01*
X142714285Y-43857142D01*
X142666666Y-43904761D01*
X142571428Y-43952380D01*
X142476190Y-43952380D01*
X142380952Y-43904761D01*
X142333333Y-43857142D01*
X142285714Y-43761904D01*
X142238095Y-43571428D01*
X142238095Y-43333333D01*
X142285714Y-43142857D01*
X142333333Y-43047619D01*
X142380952Y-43000000D01*
X142476190Y-42952380D01*
X143761904Y-43952380D02*
X143190476Y-43952380D01*
X143476190Y-43952380D02*
X143476190Y-42952380D01*
X143380952Y-43095238D01*
X143285714Y-43190476D01*
X143190476Y-43238095D01*
X143782381Y-38613211D02*
X144496667Y-38613211D01*
X144639524Y-38660830D01*
X144734762Y-38756068D01*
X144782381Y-38898925D01*
X144782381Y-38994163D01*
X144782381Y-37613211D02*
X144782381Y-38184639D01*
X144782381Y-37898925D02*
X143782381Y-37898925D01*
X143925239Y-37994163D01*
X144020477Y-38089401D01*
X144068096Y-38184639D01*
X143782381Y-36994163D02*
X143782381Y-36898925D01*
X143830001Y-36803687D01*
X143877620Y-36756068D01*
X143972858Y-36708449D01*
X144163334Y-36660830D01*
X144401429Y-36660830D01*
X144591905Y-36708449D01*
X144687143Y-36756068D01*
X144734762Y-36803687D01*
X144782381Y-36898925D01*
X144782381Y-36994163D01*
X144734762Y-37089401D01*
X144687143Y-37137020D01*
X144591905Y-37184639D01*
X144401429Y-37232258D01*
X144163334Y-37232258D01*
X143972858Y-37184639D01*
X143877620Y-37137020D01*
X143830001Y-37089401D01*
X143782381Y-36994163D01*
X143782381Y-36327497D02*
X143782381Y-35708449D01*
X144163334Y-36041782D01*
X144163334Y-35898925D01*
X144210953Y-35803687D01*
X144258572Y-35756068D01*
X144353810Y-35708449D01*
X144591905Y-35708449D01*
X144687143Y-35756068D01*
X144734762Y-35803687D01*
X144782381Y-35898925D01*
X144782381Y-36184639D01*
X144734762Y-36279877D01*
X144687143Y-36327497D01*
X135032381Y-38613212D02*
X135746667Y-38613212D01*
X135889524Y-38660831D01*
X135984762Y-38756069D01*
X136032381Y-38898926D01*
X136032381Y-38994164D01*
X136032381Y-37613212D02*
X136032381Y-38184640D01*
X136032381Y-37898926D02*
X135032381Y-37898926D01*
X135175239Y-37994164D01*
X135270477Y-38089402D01*
X135318096Y-38184640D01*
X135032381Y-36994164D02*
X135032381Y-36898926D01*
X135080001Y-36803688D01*
X135127620Y-36756069D01*
X135222858Y-36708450D01*
X135413334Y-36660831D01*
X135651429Y-36660831D01*
X135841905Y-36708450D01*
X135937143Y-36756069D01*
X135984762Y-36803688D01*
X136032381Y-36898926D01*
X136032381Y-36994164D01*
X135984762Y-37089402D01*
X135937143Y-37137021D01*
X135841905Y-37184640D01*
X135651429Y-37232259D01*
X135413334Y-37232259D01*
X135222858Y-37184640D01*
X135127620Y-37137021D01*
X135080001Y-37089402D01*
X135032381Y-36994164D01*
X135127620Y-36279878D02*
X135080001Y-36232259D01*
X135032381Y-36137021D01*
X135032381Y-35898926D01*
X135080001Y-35803688D01*
X135127620Y-35756069D01*
X135222858Y-35708450D01*
X135318096Y-35708450D01*
X135460953Y-35756069D01*
X136032381Y-36327498D01*
X136032381Y-35708450D01*
X150452380Y-60285714D02*
X151166666Y-60285714D01*
X151309523Y-60333333D01*
X151404761Y-60428571D01*
X151452380Y-60571428D01*
X151452380Y-60666666D01*
X151452380Y-59285714D02*
X151452380Y-59857142D01*
X151452380Y-59571428D02*
X150452380Y-59571428D01*
X150595238Y-59666666D01*
X150690476Y-59761904D01*
X150738095Y-59857142D01*
X150452380Y-58666666D02*
X150452380Y-58571428D01*
X150500000Y-58476190D01*
X150547619Y-58428571D01*
X150642857Y-58380952D01*
X150833333Y-58333333D01*
X151071428Y-58333333D01*
X151261904Y-58380952D01*
X151357142Y-58428571D01*
X151404761Y-58476190D01*
X151452380Y-58571428D01*
X151452380Y-58666666D01*
X151404761Y-58761904D01*
X151357142Y-58809523D01*
X151261904Y-58857142D01*
X151071428Y-58904761D01*
X150833333Y-58904761D01*
X150642857Y-58857142D01*
X150547619Y-58809523D01*
X150500000Y-58761904D01*
X150452380Y-58666666D01*
X151452380Y-57380952D02*
X151452380Y-57952380D01*
X151452380Y-57666666D02*
X150452380Y-57666666D01*
X150595238Y-57761904D01*
X150690476Y-57857142D01*
X150738095Y-57952380D01*
X131357142Y-59619047D02*
X131404761Y-59666666D01*
X131452380Y-59809523D01*
X131452380Y-59904761D01*
X131404761Y-60047619D01*
X131309523Y-60142857D01*
X131214285Y-60190476D01*
X131023809Y-60238095D01*
X130880952Y-60238095D01*
X130690476Y-60190476D01*
X130595238Y-60142857D01*
X130500000Y-60047619D01*
X130452380Y-59904761D01*
X130452380Y-59809523D01*
X130500000Y-59666666D01*
X130547619Y-59619047D01*
X131452380Y-58666666D02*
X131452380Y-59238095D01*
X131452380Y-58952380D02*
X130452380Y-58952380D01*
X130595238Y-59047619D01*
X130690476Y-59142857D01*
X130738095Y-59238095D01*
X131452380Y-57714285D02*
X131452380Y-58285714D01*
X131452380Y-58000000D02*
X130452380Y-58000000D01*
X130595238Y-58095238D01*
X130690476Y-58190476D01*
X130738095Y-58285714D01*
X131452380Y-56761904D02*
X131452380Y-57333333D01*
X131452380Y-57047619D02*
X130452380Y-57047619D01*
X130595238Y-57142857D01*
X130690476Y-57238095D01*
X130738095Y-57333333D01*
X137857142Y-58119047D02*
X137904761Y-58166666D01*
X137952380Y-58309523D01*
X137952380Y-58404761D01*
X137904761Y-58547619D01*
X137809523Y-58642857D01*
X137714285Y-58690476D01*
X137523809Y-58738095D01*
X137380952Y-58738095D01*
X137190476Y-58690476D01*
X137095238Y-58642857D01*
X137000000Y-58547619D01*
X136952380Y-58404761D01*
X136952380Y-58309523D01*
X137000000Y-58166666D01*
X137047619Y-58119047D01*
X137952380Y-57166666D02*
X137952380Y-57738095D01*
X137952380Y-57452380D02*
X136952380Y-57452380D01*
X137095238Y-57547619D01*
X137190476Y-57642857D01*
X137238095Y-57738095D01*
X137952380Y-56214285D02*
X137952380Y-56785714D01*
X137952380Y-56500000D02*
X136952380Y-56500000D01*
X137095238Y-56595238D01*
X137190476Y-56690476D01*
X137238095Y-56785714D01*
X136952380Y-55595238D02*
X136952380Y-55500000D01*
X137000000Y-55404761D01*
X137047619Y-55357142D01*
X137142857Y-55309523D01*
X137333333Y-55261904D01*
X137571428Y-55261904D01*
X137761904Y-55309523D01*
X137857142Y-55357142D01*
X137904761Y-55404761D01*
X137952380Y-55500000D01*
X137952380Y-55595238D01*
X137904761Y-55690476D01*
X137857142Y-55738095D01*
X137761904Y-55785714D01*
X137571428Y-55833333D01*
X137333333Y-55833333D01*
X137142857Y-55785714D01*
X137047619Y-55738095D01*
X137000000Y-55690476D01*
X136952380Y-55595238D01*
X128439642Y-56869047D02*
X128487261Y-56916666D01*
X128534880Y-57059523D01*
X128534880Y-57154761D01*
X128487261Y-57297619D01*
X128392023Y-57392857D01*
X128296785Y-57440476D01*
X128106309Y-57488095D01*
X127963452Y-57488095D01*
X127772976Y-57440476D01*
X127677738Y-57392857D01*
X127582500Y-57297619D01*
X127534880Y-57154761D01*
X127534880Y-57059523D01*
X127582500Y-56916666D01*
X127630119Y-56869047D01*
X128534880Y-55916666D02*
X128534880Y-56488095D01*
X128534880Y-56202380D02*
X127534880Y-56202380D01*
X127677738Y-56297619D01*
X127772976Y-56392857D01*
X127820595Y-56488095D01*
X127534880Y-55297619D02*
X127534880Y-55202380D01*
X127582500Y-55107142D01*
X127630119Y-55059523D01*
X127725357Y-55011904D01*
X127915833Y-54964285D01*
X128153928Y-54964285D01*
X128344404Y-55011904D01*
X128439642Y-55059523D01*
X128487261Y-55107142D01*
X128534880Y-55202380D01*
X128534880Y-55297619D01*
X128487261Y-55392857D01*
X128439642Y-55440476D01*
X128344404Y-55488095D01*
X128153928Y-55535714D01*
X127915833Y-55535714D01*
X127725357Y-55488095D01*
X127630119Y-55440476D01*
X127582500Y-55392857D01*
X127534880Y-55297619D01*
X128534880Y-54488095D02*
X128534880Y-54297619D01*
X128487261Y-54202380D01*
X128439642Y-54154761D01*
X128296785Y-54059523D01*
X128106309Y-54011904D01*
X127725357Y-54011904D01*
X127630119Y-54059523D01*
X127582500Y-54107142D01*
X127534880Y-54202380D01*
X127534880Y-54392857D01*
X127582500Y-54488095D01*
X127630119Y-54535714D01*
X127725357Y-54583333D01*
X127963452Y-54583333D01*
X128058690Y-54535714D01*
X128106309Y-54488095D01*
X128153928Y-54392857D01*
X128153928Y-54202380D01*
X128106309Y-54107142D01*
X128058690Y-54059523D01*
X127963452Y-54011904D01*
X136730952Y-43689639D02*
X136683333Y-43737258D01*
X136540476Y-43784877D01*
X136445238Y-43784877D01*
X136302380Y-43737258D01*
X136207142Y-43642020D01*
X136159523Y-43546782D01*
X136111904Y-43356306D01*
X136111904Y-43213449D01*
X136159523Y-43022973D01*
X136207142Y-42927735D01*
X136302380Y-42832497D01*
X136445238Y-42784877D01*
X136540476Y-42784877D01*
X136683333Y-42832497D01*
X136730952Y-42880116D01*
X137683333Y-43784877D02*
X137111904Y-43784877D01*
X137397619Y-43784877D02*
X137397619Y-42784877D01*
X137302380Y-42927735D01*
X137207142Y-43022973D01*
X137111904Y-43070592D01*
X138302380Y-42784877D02*
X138397619Y-42784877D01*
X138492857Y-42832497D01*
X138540476Y-42880116D01*
X138588095Y-42975354D01*
X138635714Y-43165830D01*
X138635714Y-43403925D01*
X138588095Y-43594401D01*
X138540476Y-43689639D01*
X138492857Y-43737258D01*
X138397619Y-43784877D01*
X138302380Y-43784877D01*
X138207142Y-43737258D01*
X138159523Y-43689639D01*
X138111904Y-43594401D01*
X138064285Y-43403925D01*
X138064285Y-43165830D01*
X138111904Y-42975354D01*
X138159523Y-42880116D01*
X138207142Y-42832497D01*
X138302380Y-42784877D01*
X139207142Y-43213449D02*
X139111904Y-43165830D01*
X139064285Y-43118211D01*
X139016666Y-43022973D01*
X139016666Y-42975354D01*
X139064285Y-42880116D01*
X139111904Y-42832497D01*
X139207142Y-42784877D01*
X139397619Y-42784877D01*
X139492857Y-42832497D01*
X139540476Y-42880116D01*
X139588095Y-42975354D01*
X139588095Y-43022973D01*
X139540476Y-43118211D01*
X139492857Y-43165830D01*
X139397619Y-43213449D01*
X139207142Y-43213449D01*
X139111904Y-43261068D01*
X139064285Y-43308687D01*
X139016666Y-43403925D01*
X139016666Y-43594401D01*
X139064285Y-43689639D01*
X139111904Y-43737258D01*
X139207142Y-43784877D01*
X139397619Y-43784877D01*
X139492857Y-43737258D01*
X139540476Y-43689639D01*
X139588095Y-43594401D01*
X139588095Y-43403925D01*
X139540476Y-43308687D01*
X139492857Y-43261068D01*
X139397619Y-43213449D01*
X144730952Y-43339640D02*
X144683333Y-43387259D01*
X144540476Y-43434878D01*
X144445238Y-43434878D01*
X144302380Y-43387259D01*
X144207142Y-43292021D01*
X144159523Y-43196783D01*
X144111904Y-43006307D01*
X144111904Y-42863450D01*
X144159523Y-42672974D01*
X144207142Y-42577736D01*
X144302380Y-42482498D01*
X144445238Y-42434878D01*
X144540476Y-42434878D01*
X144683333Y-42482498D01*
X144730952Y-42530117D01*
X145683333Y-43434878D02*
X145111904Y-43434878D01*
X145397619Y-43434878D02*
X145397619Y-42434878D01*
X145302380Y-42577736D01*
X145207142Y-42672974D01*
X145111904Y-42720593D01*
X146302380Y-42434878D02*
X146397619Y-42434878D01*
X146492857Y-42482498D01*
X146540476Y-42530117D01*
X146588095Y-42625355D01*
X146635714Y-42815831D01*
X146635714Y-43053926D01*
X146588095Y-43244402D01*
X146540476Y-43339640D01*
X146492857Y-43387259D01*
X146397619Y-43434878D01*
X146302380Y-43434878D01*
X146207142Y-43387259D01*
X146159523Y-43339640D01*
X146111904Y-43244402D01*
X146064285Y-43053926D01*
X146064285Y-42815831D01*
X146111904Y-42625355D01*
X146159523Y-42530117D01*
X146207142Y-42482498D01*
X146302380Y-42434878D01*
X146969047Y-42434878D02*
X147635714Y-42434878D01*
X147207142Y-43434878D01*
X138357142Y-53119047D02*
X138404761Y-53166666D01*
X138452380Y-53309523D01*
X138452380Y-53404761D01*
X138404761Y-53547619D01*
X138309523Y-53642857D01*
X138214285Y-53690476D01*
X138023809Y-53738095D01*
X137880952Y-53738095D01*
X137690476Y-53690476D01*
X137595238Y-53642857D01*
X137500000Y-53547619D01*
X137452380Y-53404761D01*
X137452380Y-53309523D01*
X137500000Y-53166666D01*
X137547619Y-53119047D01*
X138452380Y-52166666D02*
X138452380Y-52738095D01*
X138452380Y-52452380D02*
X137452380Y-52452380D01*
X137595238Y-52547619D01*
X137690476Y-52642857D01*
X137738095Y-52738095D01*
X137452380Y-51547619D02*
X137452380Y-51452380D01*
X137500000Y-51357142D01*
X137547619Y-51309523D01*
X137642857Y-51261904D01*
X137833333Y-51214285D01*
X138071428Y-51214285D01*
X138261904Y-51261904D01*
X138357142Y-51309523D01*
X138404761Y-51357142D01*
X138452380Y-51452380D01*
X138452380Y-51547619D01*
X138404761Y-51642857D01*
X138357142Y-51690476D01*
X138261904Y-51738095D01*
X138071428Y-51785714D01*
X137833333Y-51785714D01*
X137642857Y-51738095D01*
X137547619Y-51690476D01*
X137500000Y-51642857D01*
X137452380Y-51547619D01*
X137452380Y-50357142D02*
X137452380Y-50547619D01*
X137500000Y-50642857D01*
X137547619Y-50690476D01*
X137690476Y-50785714D01*
X137880952Y-50833333D01*
X138261904Y-50833333D01*
X138357142Y-50785714D01*
X138404761Y-50738095D01*
X138452380Y-50642857D01*
X138452380Y-50452380D01*
X138404761Y-50357142D01*
X138357142Y-50309523D01*
X138261904Y-50261904D01*
X138023809Y-50261904D01*
X137928571Y-50309523D01*
X137880952Y-50357142D01*
X137833333Y-50452380D01*
X137833333Y-50642857D01*
X137880952Y-50738095D01*
X137928571Y-50785714D01*
X138023809Y-50833333D01*
X149880952Y-56357142D02*
X149833333Y-56404761D01*
X149690476Y-56452380D01*
X149595238Y-56452380D01*
X149452380Y-56404761D01*
X149357142Y-56309523D01*
X149309523Y-56214285D01*
X149261904Y-56023809D01*
X149261904Y-55880952D01*
X149309523Y-55690476D01*
X149357142Y-55595238D01*
X149452380Y-55500000D01*
X149595238Y-55452380D01*
X149690476Y-55452380D01*
X149833333Y-55500000D01*
X149880952Y-55547619D01*
X150833333Y-56452380D02*
X150261904Y-56452380D01*
X150547619Y-56452380D02*
X150547619Y-55452380D01*
X150452380Y-55595238D01*
X150357142Y-55690476D01*
X150261904Y-55738095D01*
X151452380Y-55452380D02*
X151547619Y-55452380D01*
X151642857Y-55500000D01*
X151690476Y-55547619D01*
X151738095Y-55642857D01*
X151785714Y-55833333D01*
X151785714Y-56071428D01*
X151738095Y-56261904D01*
X151690476Y-56357142D01*
X151642857Y-56404761D01*
X151547619Y-56452380D01*
X151452380Y-56452380D01*
X151357142Y-56404761D01*
X151309523Y-56357142D01*
X151261904Y-56261904D01*
X151214285Y-56071428D01*
X151214285Y-55833333D01*
X151261904Y-55642857D01*
X151309523Y-55547619D01*
X151357142Y-55500000D01*
X151452380Y-55452380D01*
X152690476Y-55452380D02*
X152214285Y-55452380D01*
X152166666Y-55928571D01*
X152214285Y-55880952D01*
X152309523Y-55833333D01*
X152547619Y-55833333D01*
X152642857Y-55880952D01*
X152690476Y-55928571D01*
X152738095Y-56023809D01*
X152738095Y-56261904D01*
X152690476Y-56357142D01*
X152642857Y-56404761D01*
X152547619Y-56452380D01*
X152309523Y-56452380D01*
X152214285Y-56404761D01*
X152166666Y-56357142D01*
X144857142Y-63119047D02*
X144904761Y-63166666D01*
X144952380Y-63309523D01*
X144952380Y-63404761D01*
X144904761Y-63547619D01*
X144809523Y-63642857D01*
X144714285Y-63690476D01*
X144523809Y-63738095D01*
X144380952Y-63738095D01*
X144190476Y-63690476D01*
X144095238Y-63642857D01*
X144000000Y-63547619D01*
X143952380Y-63404761D01*
X143952380Y-63309523D01*
X144000000Y-63166666D01*
X144047619Y-63119047D01*
X144952380Y-62166666D02*
X144952380Y-62738095D01*
X144952380Y-62452380D02*
X143952380Y-62452380D01*
X144095238Y-62547619D01*
X144190476Y-62642857D01*
X144238095Y-62738095D01*
X143952380Y-61547619D02*
X143952380Y-61452380D01*
X144000000Y-61357142D01*
X144047619Y-61309523D01*
X144142857Y-61261904D01*
X144333333Y-61214285D01*
X144571428Y-61214285D01*
X144761904Y-61261904D01*
X144857142Y-61309523D01*
X144904761Y-61357142D01*
X144952380Y-61452380D01*
X144952380Y-61547619D01*
X144904761Y-61642857D01*
X144857142Y-61690476D01*
X144761904Y-61738095D01*
X144571428Y-61785714D01*
X144333333Y-61785714D01*
X144142857Y-61738095D01*
X144047619Y-61690476D01*
X144000000Y-61642857D01*
X143952380Y-61547619D01*
X144285714Y-60357142D02*
X144952380Y-60357142D01*
X143904761Y-60595238D02*
X144619047Y-60833333D01*
X144619047Y-60214285D01*
X145380952Y-56857142D02*
X145333333Y-56904761D01*
X145190476Y-56952380D01*
X145095238Y-56952380D01*
X144952380Y-56904761D01*
X144857142Y-56809523D01*
X144809523Y-56714285D01*
X144761904Y-56523809D01*
X144761904Y-56380952D01*
X144809523Y-56190476D01*
X144857142Y-56095238D01*
X144952380Y-56000000D01*
X145095238Y-55952380D01*
X145190476Y-55952380D01*
X145333333Y-56000000D01*
X145380952Y-56047619D01*
X146333333Y-56952380D02*
X145761904Y-56952380D01*
X146047619Y-56952380D02*
X146047619Y-55952380D01*
X145952380Y-56095238D01*
X145857142Y-56190476D01*
X145761904Y-56238095D01*
X146952380Y-55952380D02*
X147047619Y-55952380D01*
X147142857Y-56000000D01*
X147190476Y-56047619D01*
X147238095Y-56142857D01*
X147285714Y-56333333D01*
X147285714Y-56571428D01*
X147238095Y-56761904D01*
X147190476Y-56857142D01*
X147142857Y-56904761D01*
X147047619Y-56952380D01*
X146952380Y-56952380D01*
X146857142Y-56904761D01*
X146809523Y-56857142D01*
X146761904Y-56761904D01*
X146714285Y-56571428D01*
X146714285Y-56333333D01*
X146761904Y-56142857D01*
X146809523Y-56047619D01*
X146857142Y-56000000D01*
X146952380Y-55952380D01*
X147619047Y-55952380D02*
X148238095Y-55952380D01*
X147904761Y-56333333D01*
X148047619Y-56333333D01*
X148142857Y-56380952D01*
X148190476Y-56428571D01*
X148238095Y-56523809D01*
X148238095Y-56761904D01*
X148190476Y-56857142D01*
X148142857Y-56904761D01*
X148047619Y-56952380D01*
X147761904Y-56952380D01*
X147666666Y-56904761D01*
X147619047Y-56857142D01*
X140380952Y-67857142D02*
X140333333Y-67904761D01*
X140190476Y-67952380D01*
X140095238Y-67952380D01*
X139952380Y-67904761D01*
X139857142Y-67809523D01*
X139809523Y-67714285D01*
X139761904Y-67523809D01*
X139761904Y-67380952D01*
X139809523Y-67190476D01*
X139857142Y-67095238D01*
X139952380Y-67000000D01*
X140095238Y-66952380D01*
X140190476Y-66952380D01*
X140333333Y-67000000D01*
X140380952Y-67047619D01*
X141333333Y-67952380D02*
X140761904Y-67952380D01*
X141047619Y-67952380D02*
X141047619Y-66952380D01*
X140952380Y-67095238D01*
X140857142Y-67190476D01*
X140761904Y-67238095D01*
X141952380Y-66952380D02*
X142047619Y-66952380D01*
X142142857Y-67000000D01*
X142190476Y-67047619D01*
X142238095Y-67142857D01*
X142285714Y-67333333D01*
X142285714Y-67571428D01*
X142238095Y-67761904D01*
X142190476Y-67857142D01*
X142142857Y-67904761D01*
X142047619Y-67952380D01*
X141952380Y-67952380D01*
X141857142Y-67904761D01*
X141809523Y-67857142D01*
X141761904Y-67761904D01*
X141714285Y-67571428D01*
X141714285Y-67333333D01*
X141761904Y-67142857D01*
X141809523Y-67047619D01*
X141857142Y-67000000D01*
X141952380Y-66952380D01*
X142666666Y-67047619D02*
X142714285Y-67000000D01*
X142809523Y-66952380D01*
X143047619Y-66952380D01*
X143142857Y-67000000D01*
X143190476Y-67047619D01*
X143238095Y-67142857D01*
X143238095Y-67238095D01*
X143190476Y-67380952D01*
X142619047Y-67952380D01*
X143238095Y-67952380D01*
X127857142Y-52819047D02*
X127904761Y-52866666D01*
X127952380Y-53009523D01*
X127952380Y-53104761D01*
X127904761Y-53247619D01*
X127809523Y-53342857D01*
X127714285Y-53390476D01*
X127523809Y-53438095D01*
X127380952Y-53438095D01*
X127190476Y-53390476D01*
X127095238Y-53342857D01*
X127000000Y-53247619D01*
X126952380Y-53104761D01*
X126952380Y-53009523D01*
X127000000Y-52866666D01*
X127047619Y-52819047D01*
X127952380Y-51866666D02*
X127952380Y-52438095D01*
X127952380Y-52152380D02*
X126952380Y-52152380D01*
X127095238Y-52247619D01*
X127190476Y-52342857D01*
X127238095Y-52438095D01*
X126952380Y-51247619D02*
X126952380Y-51152380D01*
X127000000Y-51057142D01*
X127047619Y-51009523D01*
X127142857Y-50961904D01*
X127333333Y-50914285D01*
X127571428Y-50914285D01*
X127761904Y-50961904D01*
X127857142Y-51009523D01*
X127904761Y-51057142D01*
X127952380Y-51152380D01*
X127952380Y-51247619D01*
X127904761Y-51342857D01*
X127857142Y-51390476D01*
X127761904Y-51438095D01*
X127571428Y-51485714D01*
X127333333Y-51485714D01*
X127142857Y-51438095D01*
X127047619Y-51390476D01*
X127000000Y-51342857D01*
X126952380Y-51247619D01*
X127952380Y-49961904D02*
X127952380Y-50533333D01*
X127952380Y-50247619D02*
X126952380Y-50247619D01*
X127095238Y-50342857D01*
X127190476Y-50438095D01*
X127238095Y-50533333D01*
X126555654Y-65258571D02*
X126698511Y-65306190D01*
X126746130Y-65353809D01*
X126793750Y-65449047D01*
X126793750Y-65591904D01*
X126746130Y-65687142D01*
X126698511Y-65734761D01*
X126603273Y-65782380D01*
X126222321Y-65782380D01*
X126222321Y-64782380D01*
X126555654Y-64782380D01*
X126650892Y-64830000D01*
X126698511Y-64877619D01*
X126746130Y-64972857D01*
X126746130Y-65068095D01*
X126698511Y-65163333D01*
X126650892Y-65210952D01*
X126555654Y-65258571D01*
X126222321Y-65258571D01*
X127079464Y-64782380D02*
X127650892Y-64782380D01*
X127365178Y-65782380D02*
X127365178Y-64782380D01*
X128508035Y-65782380D02*
X127936607Y-65782380D01*
X128222321Y-65782380D02*
X128222321Y-64782380D01*
X128127083Y-64925238D01*
X128031845Y-65020476D01*
X127936607Y-65068095D01*
X129127083Y-64782380D02*
X129222321Y-64782380D01*
X129317559Y-64830000D01*
X129365178Y-64877619D01*
X129412797Y-64972857D01*
X129460416Y-65163333D01*
X129460416Y-65401428D01*
X129412797Y-65591904D01*
X129365178Y-65687142D01*
X129317559Y-65734761D01*
X129222321Y-65782380D01*
X129127083Y-65782380D01*
X129031845Y-65734761D01*
X128984226Y-65687142D01*
X128936607Y-65591904D01*
X128888988Y-65401428D01*
X128888988Y-65163333D01*
X128936607Y-64972857D01*
X128984226Y-64877619D01*
X129031845Y-64830000D01*
X129127083Y-64782380D01*
X130412797Y-65782380D02*
X129841369Y-65782380D01*
X130127083Y-65782380D02*
X130127083Y-64782380D01*
X130031845Y-64925238D01*
X129936607Y-65020476D01*
X129841369Y-65068095D01*
M02*
