G04 #@! TF.GenerationSoftware,KiCad,Pcbnew,(5.99.0-286-g11f0acefe)*
G04 #@! TF.CreationDate,2019-12-02T23:07:14-05:00*
G04 #@! TF.ProjectId,Controller,436f6e74-726f-46c6-9c65-722e6b696361,rev?*
G04 #@! TF.SameCoordinates,Original*
G04 #@! TF.FileFunction,Copper,L1,Top*
G04 #@! TF.FilePolarity,Positive*
%FSLAX46Y46*%
G04 Gerber Fmt 4.6, Leading zero omitted, Abs format (unit mm)*
G04 Created by KiCad (PCBNEW (5.99.0-286-g11f0acefe)) date 2019-12-02 23:07:14*
%MOMM*%
%LPD*%
G04 APERTURE LIST*
%ADD10C,4.400000*%
%ADD11O,1.727200X1.727200*%
%ADD12R,1.727200X1.727200*%
%ADD13C,1.500000*%
%ADD14R,1.220000X0.650000*%
%ADD15R,1.060000X0.650000*%
%ADD16R,0.800000X0.900000*%
%ADD17O,1.700000X1.700000*%
%ADD18R,1.700000X1.700000*%
%ADD19R,2.500000X1.430000*%
%ADD20O,1.700000X1.350000*%
%ADD21O,1.500000X1.100000*%
%ADD22R,1.650000X0.400000*%
%ADD23R,1.500000X2.000000*%
%ADD24R,0.700000X1.825000*%
%ADD25R,2.000000X1.350000*%
%ADD26C,0.800000*%
%ADD27C,0.500000*%
%ADD28C,0.250000*%
%ADD29C,0.160000*%
%ADD30C,0.200000*%
%ADD31C,0.254000*%
G04 APERTURE END LIST*
D10*
X150550000Y-49800000D03*
X131750000Y-66400000D03*
D11*
X133540000Y-51470000D03*
X131000000Y-51470000D03*
X133540000Y-48930000D03*
X131000000Y-48930000D03*
X133540000Y-46390000D03*
X131000000Y-46390000D03*
X133540000Y-43850000D03*
D12*
X131000000Y-43850000D03*
D13*
X141113750Y-51381250D03*
X145993750Y-51381250D03*
D14*
X135403751Y-60699999D03*
X135403751Y-62599999D03*
X132783751Y-62599999D03*
X132783751Y-61649999D03*
X132783751Y-60699999D03*
D15*
X133462500Y-55350000D03*
X133462500Y-57250000D03*
X131262500Y-57250000D03*
X131262500Y-56300000D03*
X131262500Y-55350000D03*
G04 #@! TA.AperFunction,SMDPad,CuDef*
G36*
X138801153Y-63737668D02*
G01*
X138849816Y-63770184D01*
X138882332Y-63818847D01*
X138893750Y-63876250D01*
X138893750Y-64176250D01*
X138882332Y-64233653D01*
X138849816Y-64282316D01*
X138801153Y-64314832D01*
X138743750Y-64326250D01*
X137093750Y-64326250D01*
X137036347Y-64314832D01*
X136987684Y-64282316D01*
X136955168Y-64233653D01*
X136943750Y-64176250D01*
X136943750Y-63876250D01*
X136955168Y-63818847D01*
X136987684Y-63770184D01*
X137036347Y-63737668D01*
X137093750Y-63726250D01*
X138743750Y-63726250D01*
X138801153Y-63737668D01*
G37*
G04 #@! TD.AperFunction*
G04 #@! TA.AperFunction,SMDPad,CuDef*
G36*
X138801153Y-62467668D02*
G01*
X138849816Y-62500184D01*
X138882332Y-62548847D01*
X138893750Y-62606250D01*
X138893750Y-62906250D01*
X138882332Y-62963653D01*
X138849816Y-63012316D01*
X138801153Y-63044832D01*
X138743750Y-63056250D01*
X137093750Y-63056250D01*
X137036347Y-63044832D01*
X136987684Y-63012316D01*
X136955168Y-62963653D01*
X136943750Y-62906250D01*
X136943750Y-62606250D01*
X136955168Y-62548847D01*
X136987684Y-62500184D01*
X137036347Y-62467668D01*
X137093750Y-62456250D01*
X138743750Y-62456250D01*
X138801153Y-62467668D01*
G37*
G04 #@! TD.AperFunction*
G04 #@! TA.AperFunction,SMDPad,CuDef*
G36*
X138801153Y-61197668D02*
G01*
X138849816Y-61230184D01*
X138882332Y-61278847D01*
X138893750Y-61336250D01*
X138893750Y-61636250D01*
X138882332Y-61693653D01*
X138849816Y-61742316D01*
X138801153Y-61774832D01*
X138743750Y-61786250D01*
X137093750Y-61786250D01*
X137036347Y-61774832D01*
X136987684Y-61742316D01*
X136955168Y-61693653D01*
X136943750Y-61636250D01*
X136943750Y-61336250D01*
X136955168Y-61278847D01*
X136987684Y-61230184D01*
X137036347Y-61197668D01*
X137093750Y-61186250D01*
X138743750Y-61186250D01*
X138801153Y-61197668D01*
G37*
G04 #@! TD.AperFunction*
G04 #@! TA.AperFunction,SMDPad,CuDef*
G36*
X138801153Y-59927668D02*
G01*
X138849816Y-59960184D01*
X138882332Y-60008847D01*
X138893750Y-60066250D01*
X138893750Y-60366250D01*
X138882332Y-60423653D01*
X138849816Y-60472316D01*
X138801153Y-60504832D01*
X138743750Y-60516250D01*
X137093750Y-60516250D01*
X137036347Y-60504832D01*
X136987684Y-60472316D01*
X136955168Y-60423653D01*
X136943750Y-60366250D01*
X136943750Y-60066250D01*
X136955168Y-60008847D01*
X136987684Y-59960184D01*
X137036347Y-59927668D01*
X137093750Y-59916250D01*
X138743750Y-59916250D01*
X138801153Y-59927668D01*
G37*
G04 #@! TD.AperFunction*
G04 #@! TA.AperFunction,SMDPad,CuDef*
G36*
X138801153Y-58657668D02*
G01*
X138849816Y-58690184D01*
X138882332Y-58738847D01*
X138893750Y-58796250D01*
X138893750Y-59096250D01*
X138882332Y-59153653D01*
X138849816Y-59202316D01*
X138801153Y-59234832D01*
X138743750Y-59246250D01*
X137093750Y-59246250D01*
X137036347Y-59234832D01*
X136987684Y-59202316D01*
X136955168Y-59153653D01*
X136943750Y-59096250D01*
X136943750Y-58796250D01*
X136955168Y-58738847D01*
X136987684Y-58690184D01*
X137036347Y-58657668D01*
X137093750Y-58646250D01*
X138743750Y-58646250D01*
X138801153Y-58657668D01*
G37*
G04 #@! TD.AperFunction*
G04 #@! TA.AperFunction,SMDPad,CuDef*
G36*
X138801153Y-57387668D02*
G01*
X138849816Y-57420184D01*
X138882332Y-57468847D01*
X138893750Y-57526250D01*
X138893750Y-57826250D01*
X138882332Y-57883653D01*
X138849816Y-57932316D01*
X138801153Y-57964832D01*
X138743750Y-57976250D01*
X137093750Y-57976250D01*
X137036347Y-57964832D01*
X136987684Y-57932316D01*
X136955168Y-57883653D01*
X136943750Y-57826250D01*
X136943750Y-57526250D01*
X136955168Y-57468847D01*
X136987684Y-57420184D01*
X137036347Y-57387668D01*
X137093750Y-57376250D01*
X138743750Y-57376250D01*
X138801153Y-57387668D01*
G37*
G04 #@! TD.AperFunction*
G04 #@! TA.AperFunction,SMDPad,CuDef*
G36*
X138801153Y-56117668D02*
G01*
X138849816Y-56150184D01*
X138882332Y-56198847D01*
X138893750Y-56256250D01*
X138893750Y-56556250D01*
X138882332Y-56613653D01*
X138849816Y-56662316D01*
X138801153Y-56694832D01*
X138743750Y-56706250D01*
X137093750Y-56706250D01*
X137036347Y-56694832D01*
X136987684Y-56662316D01*
X136955168Y-56613653D01*
X136943750Y-56556250D01*
X136943750Y-56256250D01*
X136955168Y-56198847D01*
X136987684Y-56150184D01*
X137036347Y-56117668D01*
X137093750Y-56106250D01*
X138743750Y-56106250D01*
X138801153Y-56117668D01*
G37*
G04 #@! TD.AperFunction*
G04 #@! TA.AperFunction,SMDPad,CuDef*
G36*
X138801153Y-54847668D02*
G01*
X138849816Y-54880184D01*
X138882332Y-54928847D01*
X138893750Y-54986250D01*
X138893750Y-55286250D01*
X138882332Y-55343653D01*
X138849816Y-55392316D01*
X138801153Y-55424832D01*
X138743750Y-55436250D01*
X137093750Y-55436250D01*
X137036347Y-55424832D01*
X136987684Y-55392316D01*
X136955168Y-55343653D01*
X136943750Y-55286250D01*
X136943750Y-54986250D01*
X136955168Y-54928847D01*
X136987684Y-54880184D01*
X137036347Y-54847668D01*
X137093750Y-54836250D01*
X138743750Y-54836250D01*
X138801153Y-54847668D01*
G37*
G04 #@! TD.AperFunction*
G04 #@! TA.AperFunction,SMDPad,CuDef*
G36*
X143751153Y-54847668D02*
G01*
X143799816Y-54880184D01*
X143832332Y-54928847D01*
X143843750Y-54986250D01*
X143843750Y-55286250D01*
X143832332Y-55343653D01*
X143799816Y-55392316D01*
X143751153Y-55424832D01*
X143693750Y-55436250D01*
X142043750Y-55436250D01*
X141986347Y-55424832D01*
X141937684Y-55392316D01*
X141905168Y-55343653D01*
X141893750Y-55286250D01*
X141893750Y-54986250D01*
X141905168Y-54928847D01*
X141937684Y-54880184D01*
X141986347Y-54847668D01*
X142043750Y-54836250D01*
X143693750Y-54836250D01*
X143751153Y-54847668D01*
G37*
G04 #@! TD.AperFunction*
G04 #@! TA.AperFunction,SMDPad,CuDef*
G36*
X143751153Y-56117668D02*
G01*
X143799816Y-56150184D01*
X143832332Y-56198847D01*
X143843750Y-56256250D01*
X143843750Y-56556250D01*
X143832332Y-56613653D01*
X143799816Y-56662316D01*
X143751153Y-56694832D01*
X143693750Y-56706250D01*
X142043750Y-56706250D01*
X141986347Y-56694832D01*
X141937684Y-56662316D01*
X141905168Y-56613653D01*
X141893750Y-56556250D01*
X141893750Y-56256250D01*
X141905168Y-56198847D01*
X141937684Y-56150184D01*
X141986347Y-56117668D01*
X142043750Y-56106250D01*
X143693750Y-56106250D01*
X143751153Y-56117668D01*
G37*
G04 #@! TD.AperFunction*
G04 #@! TA.AperFunction,SMDPad,CuDef*
G36*
X143751153Y-57387668D02*
G01*
X143799816Y-57420184D01*
X143832332Y-57468847D01*
X143843750Y-57526250D01*
X143843750Y-57826250D01*
X143832332Y-57883653D01*
X143799816Y-57932316D01*
X143751153Y-57964832D01*
X143693750Y-57976250D01*
X142043750Y-57976250D01*
X141986347Y-57964832D01*
X141937684Y-57932316D01*
X141905168Y-57883653D01*
X141893750Y-57826250D01*
X141893750Y-57526250D01*
X141905168Y-57468847D01*
X141937684Y-57420184D01*
X141986347Y-57387668D01*
X142043750Y-57376250D01*
X143693750Y-57376250D01*
X143751153Y-57387668D01*
G37*
G04 #@! TD.AperFunction*
G04 #@! TA.AperFunction,SMDPad,CuDef*
G36*
X143751153Y-58657668D02*
G01*
X143799816Y-58690184D01*
X143832332Y-58738847D01*
X143843750Y-58796250D01*
X143843750Y-59096250D01*
X143832332Y-59153653D01*
X143799816Y-59202316D01*
X143751153Y-59234832D01*
X143693750Y-59246250D01*
X142043750Y-59246250D01*
X141986347Y-59234832D01*
X141937684Y-59202316D01*
X141905168Y-59153653D01*
X141893750Y-59096250D01*
X141893750Y-58796250D01*
X141905168Y-58738847D01*
X141937684Y-58690184D01*
X141986347Y-58657668D01*
X142043750Y-58646250D01*
X143693750Y-58646250D01*
X143751153Y-58657668D01*
G37*
G04 #@! TD.AperFunction*
G04 #@! TA.AperFunction,SMDPad,CuDef*
G36*
X143751153Y-59927668D02*
G01*
X143799816Y-59960184D01*
X143832332Y-60008847D01*
X143843750Y-60066250D01*
X143843750Y-60366250D01*
X143832332Y-60423653D01*
X143799816Y-60472316D01*
X143751153Y-60504832D01*
X143693750Y-60516250D01*
X142043750Y-60516250D01*
X141986347Y-60504832D01*
X141937684Y-60472316D01*
X141905168Y-60423653D01*
X141893750Y-60366250D01*
X141893750Y-60066250D01*
X141905168Y-60008847D01*
X141937684Y-59960184D01*
X141986347Y-59927668D01*
X142043750Y-59916250D01*
X143693750Y-59916250D01*
X143751153Y-59927668D01*
G37*
G04 #@! TD.AperFunction*
G04 #@! TA.AperFunction,SMDPad,CuDef*
G36*
X143751153Y-61197668D02*
G01*
X143799816Y-61230184D01*
X143832332Y-61278847D01*
X143843750Y-61336250D01*
X143843750Y-61636250D01*
X143832332Y-61693653D01*
X143799816Y-61742316D01*
X143751153Y-61774832D01*
X143693750Y-61786250D01*
X142043750Y-61786250D01*
X141986347Y-61774832D01*
X141937684Y-61742316D01*
X141905168Y-61693653D01*
X141893750Y-61636250D01*
X141893750Y-61336250D01*
X141905168Y-61278847D01*
X141937684Y-61230184D01*
X141986347Y-61197668D01*
X142043750Y-61186250D01*
X143693750Y-61186250D01*
X143751153Y-61197668D01*
G37*
G04 #@! TD.AperFunction*
G04 #@! TA.AperFunction,SMDPad,CuDef*
G36*
X143751153Y-62467668D02*
G01*
X143799816Y-62500184D01*
X143832332Y-62548847D01*
X143843750Y-62606250D01*
X143843750Y-62906250D01*
X143832332Y-62963653D01*
X143799816Y-63012316D01*
X143751153Y-63044832D01*
X143693750Y-63056250D01*
X142043750Y-63056250D01*
X141986347Y-63044832D01*
X141937684Y-63012316D01*
X141905168Y-62963653D01*
X141893750Y-62906250D01*
X141893750Y-62606250D01*
X141905168Y-62548847D01*
X141937684Y-62500184D01*
X141986347Y-62467668D01*
X142043750Y-62456250D01*
X143693750Y-62456250D01*
X143751153Y-62467668D01*
G37*
G04 #@! TD.AperFunction*
G04 #@! TA.AperFunction,SMDPad,CuDef*
G36*
X143751153Y-63737668D02*
G01*
X143799816Y-63770184D01*
X143832332Y-63818847D01*
X143843750Y-63876250D01*
X143843750Y-64176250D01*
X143832332Y-64233653D01*
X143799816Y-64282316D01*
X143751153Y-64314832D01*
X143693750Y-64326250D01*
X142043750Y-64326250D01*
X141986347Y-64314832D01*
X141937684Y-64282316D01*
X141905168Y-64233653D01*
X141893750Y-64176250D01*
X141893750Y-63876250D01*
X141905168Y-63818847D01*
X141937684Y-63770184D01*
X141986347Y-63737668D01*
X142043750Y-63726250D01*
X143693750Y-63726250D01*
X143751153Y-63737668D01*
G37*
G04 #@! TD.AperFunction*
G04 #@! TA.AperFunction,SMDPad,CuDef*
G36*
X134208712Y-58541651D02*
G01*
X134279680Y-58589070D01*
X134327099Y-58660038D01*
X134343750Y-58743750D01*
X134343750Y-59256250D01*
X134327099Y-59339962D01*
X134279680Y-59410930D01*
X134208712Y-59458349D01*
X134125000Y-59475000D01*
X133687500Y-59475000D01*
X133603788Y-59458349D01*
X133532820Y-59410930D01*
X133485401Y-59339962D01*
X133468750Y-59256250D01*
X133468750Y-58743750D01*
X133485401Y-58660038D01*
X133532820Y-58589070D01*
X133603788Y-58541651D01*
X133687500Y-58525000D01*
X134125000Y-58525000D01*
X134208712Y-58541651D01*
G37*
G04 #@! TD.AperFunction*
G04 #@! TA.AperFunction,SMDPad,CuDef*
G36*
X135783712Y-58541651D02*
G01*
X135854680Y-58589070D01*
X135902099Y-58660038D01*
X135918750Y-58743750D01*
X135918750Y-59256250D01*
X135902099Y-59339962D01*
X135854680Y-59410930D01*
X135783712Y-59458349D01*
X135700000Y-59475000D01*
X135262500Y-59475000D01*
X135178788Y-59458349D01*
X135107820Y-59410930D01*
X135060401Y-59339962D01*
X135043750Y-59256250D01*
X135043750Y-58743750D01*
X135060401Y-58660038D01*
X135107820Y-58589070D01*
X135178788Y-58541651D01*
X135262500Y-58525000D01*
X135700000Y-58525000D01*
X135783712Y-58541651D01*
G37*
G04 #@! TD.AperFunction*
G04 #@! TA.AperFunction,SMDPad,CuDef*
G36*
X145589962Y-45854149D02*
G01*
X145660930Y-45901568D01*
X145708349Y-45972536D01*
X145725000Y-46056248D01*
X145725000Y-46493748D01*
X145708349Y-46577460D01*
X145660930Y-46648428D01*
X145589962Y-46695847D01*
X145506250Y-46712498D01*
X144993750Y-46712498D01*
X144910038Y-46695847D01*
X144839070Y-46648428D01*
X144791651Y-46577460D01*
X144775000Y-46493748D01*
X144775000Y-46056248D01*
X144791651Y-45972536D01*
X144839070Y-45901568D01*
X144910038Y-45854149D01*
X144993750Y-45837498D01*
X145506250Y-45837498D01*
X145589962Y-45854149D01*
G37*
G04 #@! TD.AperFunction*
G04 #@! TA.AperFunction,SMDPad,CuDef*
G36*
X145589962Y-47429149D02*
G01*
X145660930Y-47476568D01*
X145708349Y-47547536D01*
X145725000Y-47631248D01*
X145725000Y-48068748D01*
X145708349Y-48152460D01*
X145660930Y-48223428D01*
X145589962Y-48270847D01*
X145506250Y-48287498D01*
X144993750Y-48287498D01*
X144910038Y-48270847D01*
X144839070Y-48223428D01*
X144791651Y-48152460D01*
X144775000Y-48068748D01*
X144775000Y-47631248D01*
X144791651Y-47547536D01*
X144839070Y-47476568D01*
X144910038Y-47429149D01*
X144993750Y-47412498D01*
X145506250Y-47412498D01*
X145589962Y-47429149D01*
G37*
G04 #@! TD.AperFunction*
G04 #@! TA.AperFunction,SMDPad,CuDef*
G36*
X139739962Y-46104149D02*
G01*
X139810930Y-46151568D01*
X139858349Y-46222536D01*
X139875000Y-46306248D01*
X139875000Y-46743748D01*
X139858349Y-46827460D01*
X139810930Y-46898428D01*
X139739962Y-46945847D01*
X139656250Y-46962498D01*
X139143750Y-46962498D01*
X139060038Y-46945847D01*
X138989070Y-46898428D01*
X138941651Y-46827460D01*
X138925000Y-46743748D01*
X138925000Y-46306248D01*
X138941651Y-46222536D01*
X138989070Y-46151568D01*
X139060038Y-46104149D01*
X139143750Y-46087498D01*
X139656250Y-46087498D01*
X139739962Y-46104149D01*
G37*
G04 #@! TD.AperFunction*
G04 #@! TA.AperFunction,SMDPad,CuDef*
G36*
X139739962Y-47679149D02*
G01*
X139810930Y-47726568D01*
X139858349Y-47797536D01*
X139875000Y-47881248D01*
X139875000Y-48318748D01*
X139858349Y-48402460D01*
X139810930Y-48473428D01*
X139739962Y-48520847D01*
X139656250Y-48537498D01*
X139143750Y-48537498D01*
X139060038Y-48520847D01*
X138989070Y-48473428D01*
X138941651Y-48402460D01*
X138925000Y-48318748D01*
X138925000Y-47881248D01*
X138941651Y-47797536D01*
X138989070Y-47726568D01*
X139060038Y-47679149D01*
X139143750Y-47662498D01*
X139656250Y-47662498D01*
X139739962Y-47679149D01*
G37*
G04 #@! TD.AperFunction*
G04 #@! TA.AperFunction,SMDPad,CuDef*
G36*
X138139962Y-46091651D02*
G01*
X138210930Y-46139070D01*
X138258349Y-46210038D01*
X138275000Y-46293750D01*
X138275000Y-46731250D01*
X138258349Y-46814962D01*
X138210930Y-46885930D01*
X138139962Y-46933349D01*
X138056250Y-46950000D01*
X137543750Y-46950000D01*
X137460038Y-46933349D01*
X137389070Y-46885930D01*
X137341651Y-46814962D01*
X137325000Y-46731250D01*
X137325000Y-46293750D01*
X137341651Y-46210038D01*
X137389070Y-46139070D01*
X137460038Y-46091651D01*
X137543750Y-46075000D01*
X138056250Y-46075000D01*
X138139962Y-46091651D01*
G37*
G04 #@! TD.AperFunction*
G04 #@! TA.AperFunction,SMDPad,CuDef*
G36*
X138139962Y-47666651D02*
G01*
X138210930Y-47714070D01*
X138258349Y-47785038D01*
X138275000Y-47868750D01*
X138275000Y-48306250D01*
X138258349Y-48389962D01*
X138210930Y-48460930D01*
X138139962Y-48508349D01*
X138056250Y-48525000D01*
X137543750Y-48525000D01*
X137460038Y-48508349D01*
X137389070Y-48460930D01*
X137341651Y-48389962D01*
X137325000Y-48306250D01*
X137325000Y-47868750D01*
X137341651Y-47785038D01*
X137389070Y-47714070D01*
X137460038Y-47666651D01*
X137543750Y-47650000D01*
X138056250Y-47650000D01*
X138139962Y-47666651D01*
G37*
G04 #@! TD.AperFunction*
G04 #@! TA.AperFunction,SMDPad,CuDef*
G36*
X149046213Y-65322900D02*
G01*
X149117181Y-65370319D01*
X149164600Y-65441287D01*
X149181251Y-65524999D01*
X149181251Y-66037499D01*
X149164600Y-66121211D01*
X149117181Y-66192179D01*
X149046213Y-66239598D01*
X148962501Y-66256249D01*
X148525001Y-66256249D01*
X148441289Y-66239598D01*
X148370321Y-66192179D01*
X148322902Y-66121211D01*
X148306251Y-66037499D01*
X148306251Y-65524999D01*
X148322902Y-65441287D01*
X148370321Y-65370319D01*
X148441289Y-65322900D01*
X148525001Y-65306249D01*
X148962501Y-65306249D01*
X149046213Y-65322900D01*
G37*
G04 #@! TD.AperFunction*
G04 #@! TA.AperFunction,SMDPad,CuDef*
G36*
X150621213Y-65322900D02*
G01*
X150692181Y-65370319D01*
X150739600Y-65441287D01*
X150756251Y-65524999D01*
X150756251Y-66037499D01*
X150739600Y-66121211D01*
X150692181Y-66192179D01*
X150621213Y-66239598D01*
X150537501Y-66256249D01*
X150100001Y-66256249D01*
X150016289Y-66239598D01*
X149945321Y-66192179D01*
X149897902Y-66121211D01*
X149881251Y-66037499D01*
X149881251Y-65524999D01*
X149897902Y-65441287D01*
X149945321Y-65370319D01*
X150016289Y-65322900D01*
X150100001Y-65306249D01*
X150537501Y-65306249D01*
X150621213Y-65322900D01*
G37*
G04 #@! TD.AperFunction*
G04 #@! TA.AperFunction,SMDPad,CuDef*
G36*
X149046213Y-66922902D02*
G01*
X149117181Y-66970321D01*
X149164600Y-67041289D01*
X149181251Y-67125001D01*
X149181251Y-67637501D01*
X149164600Y-67721213D01*
X149117181Y-67792181D01*
X149046213Y-67839600D01*
X148962501Y-67856251D01*
X148525001Y-67856251D01*
X148441289Y-67839600D01*
X148370321Y-67792181D01*
X148322902Y-67721213D01*
X148306251Y-67637501D01*
X148306251Y-67125001D01*
X148322902Y-67041289D01*
X148370321Y-66970321D01*
X148441289Y-66922902D01*
X148525001Y-66906251D01*
X148962501Y-66906251D01*
X149046213Y-66922902D01*
G37*
G04 #@! TD.AperFunction*
G04 #@! TA.AperFunction,SMDPad,CuDef*
G36*
X150621213Y-66922902D02*
G01*
X150692181Y-66970321D01*
X150739600Y-67041289D01*
X150756251Y-67125001D01*
X150756251Y-67637501D01*
X150739600Y-67721213D01*
X150692181Y-67792181D01*
X150621213Y-67839600D01*
X150537501Y-67856251D01*
X150100001Y-67856251D01*
X150016289Y-67839600D01*
X149945321Y-67792181D01*
X149897902Y-67721213D01*
X149881251Y-67637501D01*
X149881251Y-67125001D01*
X149897902Y-67041289D01*
X149945321Y-66970321D01*
X150016289Y-66922902D01*
X150100001Y-66906251D01*
X150537501Y-66906251D01*
X150621213Y-66922902D01*
G37*
G04 #@! TD.AperFunction*
G04 #@! TA.AperFunction,SMDPad,CuDef*
G36*
X146133710Y-64485400D02*
G01*
X146204678Y-64532819D01*
X146252097Y-64603787D01*
X146268748Y-64687499D01*
X146268748Y-65124999D01*
X146252097Y-65208711D01*
X146204678Y-65279679D01*
X146133710Y-65327098D01*
X146049998Y-65343749D01*
X145537498Y-65343749D01*
X145453786Y-65327098D01*
X145382818Y-65279679D01*
X145335399Y-65208711D01*
X145318748Y-65124999D01*
X145318748Y-64687499D01*
X145335399Y-64603787D01*
X145382818Y-64532819D01*
X145453786Y-64485400D01*
X145537498Y-64468749D01*
X146049998Y-64468749D01*
X146133710Y-64485400D01*
G37*
G04 #@! TD.AperFunction*
G04 #@! TA.AperFunction,SMDPad,CuDef*
G36*
X146133710Y-66060400D02*
G01*
X146204678Y-66107819D01*
X146252097Y-66178787D01*
X146268748Y-66262499D01*
X146268748Y-66699999D01*
X146252097Y-66783711D01*
X146204678Y-66854679D01*
X146133710Y-66902098D01*
X146049998Y-66918749D01*
X145537498Y-66918749D01*
X145453786Y-66902098D01*
X145382818Y-66854679D01*
X145335399Y-66783711D01*
X145318748Y-66699999D01*
X145318748Y-66262499D01*
X145335399Y-66178787D01*
X145382818Y-66107819D01*
X145453786Y-66060400D01*
X145537498Y-66043749D01*
X146049998Y-66043749D01*
X146133710Y-66060400D01*
G37*
G04 #@! TD.AperFunction*
G04 #@! TA.AperFunction,SMDPad,CuDef*
G36*
X129139962Y-44291651D02*
G01*
X129210930Y-44339070D01*
X129258349Y-44410038D01*
X129275000Y-44493750D01*
X129275000Y-44931250D01*
X129258349Y-45014962D01*
X129210930Y-45085930D01*
X129139962Y-45133349D01*
X129056250Y-45150000D01*
X128543750Y-45150000D01*
X128460038Y-45133349D01*
X128389070Y-45085930D01*
X128341651Y-45014962D01*
X128325000Y-44931250D01*
X128325000Y-44493750D01*
X128341651Y-44410038D01*
X128389070Y-44339070D01*
X128460038Y-44291651D01*
X128543750Y-44275000D01*
X129056250Y-44275000D01*
X129139962Y-44291651D01*
G37*
G04 #@! TD.AperFunction*
G04 #@! TA.AperFunction,SMDPad,CuDef*
G36*
X129139962Y-45866651D02*
G01*
X129210930Y-45914070D01*
X129258349Y-45985038D01*
X129275000Y-46068750D01*
X129275000Y-46506250D01*
X129258349Y-46589962D01*
X129210930Y-46660930D01*
X129139962Y-46708349D01*
X129056250Y-46725000D01*
X128543750Y-46725000D01*
X128460038Y-46708349D01*
X128389070Y-46660930D01*
X128341651Y-46589962D01*
X128325000Y-46506250D01*
X128325000Y-46068750D01*
X128341651Y-45985038D01*
X128389070Y-45914070D01*
X128460038Y-45866651D01*
X128543750Y-45850000D01*
X129056250Y-45850000D01*
X129139962Y-45866651D01*
G37*
G04 #@! TD.AperFunction*
G04 #@! TA.AperFunction,SMDPad,CuDef*
G36*
X129139962Y-48966651D02*
G01*
X129210930Y-49014070D01*
X129258349Y-49085038D01*
X129275000Y-49168750D01*
X129275000Y-49606250D01*
X129258349Y-49689962D01*
X129210930Y-49760930D01*
X129139962Y-49808349D01*
X129056250Y-49825000D01*
X128543750Y-49825000D01*
X128460038Y-49808349D01*
X128389070Y-49760930D01*
X128341651Y-49689962D01*
X128325000Y-49606250D01*
X128325000Y-49168750D01*
X128341651Y-49085038D01*
X128389070Y-49014070D01*
X128460038Y-48966651D01*
X128543750Y-48950000D01*
X129056250Y-48950000D01*
X129139962Y-48966651D01*
G37*
G04 #@! TD.AperFunction*
G04 #@! TA.AperFunction,SMDPad,CuDef*
G36*
X129139962Y-47391651D02*
G01*
X129210930Y-47439070D01*
X129258349Y-47510038D01*
X129275000Y-47593750D01*
X129275000Y-48031250D01*
X129258349Y-48114962D01*
X129210930Y-48185930D01*
X129139962Y-48233349D01*
X129056250Y-48250000D01*
X128543750Y-48250000D01*
X128460038Y-48233349D01*
X128389070Y-48185930D01*
X128341651Y-48114962D01*
X128325000Y-48031250D01*
X128325000Y-47593750D01*
X128341651Y-47510038D01*
X128389070Y-47439070D01*
X128460038Y-47391651D01*
X128543750Y-47375000D01*
X129056250Y-47375000D01*
X129139962Y-47391651D01*
G37*
G04 #@! TD.AperFunction*
G04 #@! TA.AperFunction,SMDPad,CuDef*
G36*
X136627461Y-65391651D02*
G01*
X136698429Y-65439070D01*
X136745848Y-65510038D01*
X136762499Y-65593750D01*
X136762499Y-66106250D01*
X136745848Y-66189962D01*
X136698429Y-66260930D01*
X136627461Y-66308349D01*
X136543749Y-66325000D01*
X136106249Y-66325000D01*
X136022537Y-66308349D01*
X135951569Y-66260930D01*
X135904150Y-66189962D01*
X135887499Y-66106250D01*
X135887499Y-65593750D01*
X135904150Y-65510038D01*
X135951569Y-65439070D01*
X136022537Y-65391651D01*
X136106249Y-65375000D01*
X136543749Y-65375000D01*
X136627461Y-65391651D01*
G37*
G04 #@! TD.AperFunction*
G04 #@! TA.AperFunction,SMDPad,CuDef*
G36*
X138202461Y-65391651D02*
G01*
X138273429Y-65439070D01*
X138320848Y-65510038D01*
X138337499Y-65593750D01*
X138337499Y-66106250D01*
X138320848Y-66189962D01*
X138273429Y-66260930D01*
X138202461Y-66308349D01*
X138118749Y-66325000D01*
X137681249Y-66325000D01*
X137597537Y-66308349D01*
X137526569Y-66260930D01*
X137479150Y-66189962D01*
X137462499Y-66106250D01*
X137462499Y-65593750D01*
X137479150Y-65510038D01*
X137526569Y-65439070D01*
X137597537Y-65391651D01*
X137681249Y-65375000D01*
X138118749Y-65375000D01*
X138202461Y-65391651D01*
G37*
G04 #@! TD.AperFunction*
D16*
X149350000Y-44612498D03*
X150300000Y-46612498D03*
X148400000Y-46612498D03*
X142400001Y-44362498D03*
X143350001Y-46362498D03*
X141450001Y-46362498D03*
D17*
X151680001Y-41712497D03*
X149140001Y-41712497D03*
D18*
X146600001Y-41712497D03*
D17*
X142930001Y-41712498D03*
X140390001Y-41712498D03*
D18*
X137850001Y-41712498D03*
D19*
X152393750Y-57981251D03*
X152393750Y-59901251D03*
D20*
X152123750Y-56211251D03*
X152123750Y-61671251D03*
D21*
X149123750Y-56521251D03*
X149123750Y-61361251D03*
D22*
X149243750Y-57641251D03*
X149243750Y-58291251D03*
X149243750Y-58941251D03*
X149243750Y-59591251D03*
X149243750Y-60241251D03*
D23*
X149123750Y-56041251D03*
X149143750Y-61791251D03*
D24*
X150443750Y-55941251D03*
X150443750Y-61891251D03*
D25*
X151193750Y-61671251D03*
X151193750Y-56191251D03*
G04 #@! TA.AperFunction,SMDPad,CuDef*
G36*
X131333712Y-60679154D02*
G01*
X131404680Y-60726573D01*
X131452099Y-60797541D01*
X131468750Y-60881253D01*
X131468750Y-61318753D01*
X131452099Y-61402465D01*
X131404680Y-61473433D01*
X131333712Y-61520852D01*
X131250000Y-61537503D01*
X130737500Y-61537503D01*
X130653788Y-61520852D01*
X130582820Y-61473433D01*
X130535401Y-61402465D01*
X130518750Y-61318753D01*
X130518750Y-60881253D01*
X130535401Y-60797541D01*
X130582820Y-60726573D01*
X130653788Y-60679154D01*
X130737500Y-60662503D01*
X131250000Y-60662503D01*
X131333712Y-60679154D01*
G37*
G04 #@! TD.AperFunction*
G04 #@! TA.AperFunction,SMDPad,CuDef*
G36*
X131333712Y-62254154D02*
G01*
X131404680Y-62301573D01*
X131452099Y-62372541D01*
X131468750Y-62456253D01*
X131468750Y-62893753D01*
X131452099Y-62977465D01*
X131404680Y-63048433D01*
X131333712Y-63095852D01*
X131250000Y-63112503D01*
X130737500Y-63112503D01*
X130653788Y-63095852D01*
X130582820Y-63048433D01*
X130535401Y-62977465D01*
X130518750Y-62893753D01*
X130518750Y-62456253D01*
X130535401Y-62372541D01*
X130582820Y-62301573D01*
X130653788Y-62254154D01*
X130737500Y-62237503D01*
X131250000Y-62237503D01*
X131333712Y-62254154D01*
G37*
G04 #@! TD.AperFunction*
G04 #@! TA.AperFunction,SMDPad,CuDef*
G36*
X135602462Y-55091651D02*
G01*
X135673430Y-55139070D01*
X135720849Y-55210038D01*
X135737500Y-55293750D01*
X135737500Y-55731250D01*
X135720849Y-55814962D01*
X135673430Y-55885930D01*
X135602462Y-55933349D01*
X135518750Y-55950000D01*
X135006250Y-55950000D01*
X134922538Y-55933349D01*
X134851570Y-55885930D01*
X134804151Y-55814962D01*
X134787500Y-55731250D01*
X134787500Y-55293750D01*
X134804151Y-55210038D01*
X134851570Y-55139070D01*
X134922538Y-55091651D01*
X135006250Y-55075000D01*
X135518750Y-55075000D01*
X135602462Y-55091651D01*
G37*
G04 #@! TD.AperFunction*
G04 #@! TA.AperFunction,SMDPad,CuDef*
G36*
X135602462Y-56666651D02*
G01*
X135673430Y-56714070D01*
X135720849Y-56785038D01*
X135737500Y-56868750D01*
X135737500Y-57306250D01*
X135720849Y-57389962D01*
X135673430Y-57460930D01*
X135602462Y-57508349D01*
X135518750Y-57525000D01*
X135006250Y-57525000D01*
X134922538Y-57508349D01*
X134851570Y-57460930D01*
X134804151Y-57389962D01*
X134787500Y-57306250D01*
X134787500Y-56868750D01*
X134804151Y-56785038D01*
X134851570Y-56714070D01*
X134922538Y-56666651D01*
X135006250Y-56650000D01*
X135518750Y-56650000D01*
X135602462Y-56666651D01*
G37*
G04 #@! TD.AperFunction*
G04 #@! TA.AperFunction,SMDPad,CuDef*
G36*
X129852462Y-54541651D02*
G01*
X129923430Y-54589070D01*
X129970849Y-54660038D01*
X129987500Y-54743750D01*
X129987500Y-55181250D01*
X129970849Y-55264962D01*
X129923430Y-55335930D01*
X129852462Y-55383349D01*
X129768750Y-55400000D01*
X129256250Y-55400000D01*
X129172538Y-55383349D01*
X129101570Y-55335930D01*
X129054151Y-55264962D01*
X129037500Y-55181250D01*
X129037500Y-54743750D01*
X129054151Y-54660038D01*
X129101570Y-54589070D01*
X129172538Y-54541651D01*
X129256250Y-54525000D01*
X129768750Y-54525000D01*
X129852462Y-54541651D01*
G37*
G04 #@! TD.AperFunction*
G04 #@! TA.AperFunction,SMDPad,CuDef*
G36*
X129852462Y-56116651D02*
G01*
X129923430Y-56164070D01*
X129970849Y-56235038D01*
X129987500Y-56318750D01*
X129987500Y-56756250D01*
X129970849Y-56839962D01*
X129923430Y-56910930D01*
X129852462Y-56958349D01*
X129768750Y-56975000D01*
X129256250Y-56975000D01*
X129172538Y-56958349D01*
X129101570Y-56910930D01*
X129054151Y-56839962D01*
X129037500Y-56756250D01*
X129037500Y-56318750D01*
X129054151Y-56235038D01*
X129101570Y-56164070D01*
X129172538Y-56116651D01*
X129256250Y-56100000D01*
X129768750Y-56100000D01*
X129852462Y-56116651D01*
G37*
G04 #@! TD.AperFunction*
G04 #@! TA.AperFunction,SMDPad,CuDef*
G36*
X138939962Y-44304148D02*
G01*
X139010930Y-44351567D01*
X139058349Y-44422535D01*
X139075000Y-44506247D01*
X139075000Y-45018747D01*
X139058349Y-45102459D01*
X139010930Y-45173427D01*
X138939962Y-45220846D01*
X138856250Y-45237497D01*
X138418750Y-45237497D01*
X138335038Y-45220846D01*
X138264070Y-45173427D01*
X138216651Y-45102459D01*
X138200000Y-45018747D01*
X138200000Y-44506247D01*
X138216651Y-44422535D01*
X138264070Y-44351567D01*
X138335038Y-44304148D01*
X138418750Y-44287497D01*
X138856250Y-44287497D01*
X138939962Y-44304148D01*
G37*
G04 #@! TD.AperFunction*
G04 #@! TA.AperFunction,SMDPad,CuDef*
G36*
X137364962Y-44304148D02*
G01*
X137435930Y-44351567D01*
X137483349Y-44422535D01*
X137500000Y-44506247D01*
X137500000Y-45018747D01*
X137483349Y-45102459D01*
X137435930Y-45173427D01*
X137364962Y-45220846D01*
X137281250Y-45237497D01*
X136843750Y-45237497D01*
X136760038Y-45220846D01*
X136689070Y-45173427D01*
X136641651Y-45102459D01*
X136625000Y-45018747D01*
X136625000Y-44506247D01*
X136641651Y-44422535D01*
X136689070Y-44351567D01*
X136760038Y-44304148D01*
X136843750Y-44287497D01*
X137281250Y-44287497D01*
X137364962Y-44304148D01*
G37*
G04 #@! TD.AperFunction*
G04 #@! TA.AperFunction,SMDPad,CuDef*
G36*
X146939962Y-43954149D02*
G01*
X147010930Y-44001568D01*
X147058349Y-44072536D01*
X147075000Y-44156248D01*
X147075000Y-44668748D01*
X147058349Y-44752460D01*
X147010930Y-44823428D01*
X146939962Y-44870847D01*
X146856250Y-44887498D01*
X146418750Y-44887498D01*
X146335038Y-44870847D01*
X146264070Y-44823428D01*
X146216651Y-44752460D01*
X146200000Y-44668748D01*
X146200000Y-44156248D01*
X146216651Y-44072536D01*
X146264070Y-44001568D01*
X146335038Y-43954149D01*
X146418750Y-43937498D01*
X146856250Y-43937498D01*
X146939962Y-43954149D01*
G37*
G04 #@! TD.AperFunction*
G04 #@! TA.AperFunction,SMDPad,CuDef*
G36*
X145364962Y-43954149D02*
G01*
X145435930Y-44001568D01*
X145483349Y-44072536D01*
X145500000Y-44156248D01*
X145500000Y-44668748D01*
X145483349Y-44752460D01*
X145435930Y-44823428D01*
X145364962Y-44870847D01*
X145281250Y-44887498D01*
X144843750Y-44887498D01*
X144760038Y-44870847D01*
X144689070Y-44823428D01*
X144641651Y-44752460D01*
X144625000Y-44668748D01*
X144625000Y-44156248D01*
X144641651Y-44072536D01*
X144689070Y-44001568D01*
X144760038Y-43954149D01*
X144843750Y-43937498D01*
X145281250Y-43937498D01*
X145364962Y-43954149D01*
G37*
G04 #@! TD.AperFunction*
G04 #@! TA.AperFunction,SMDPad,CuDef*
G36*
X136989962Y-51491651D02*
G01*
X137060930Y-51539070D01*
X137108349Y-51610038D01*
X137125000Y-51693750D01*
X137125000Y-52131250D01*
X137108349Y-52214962D01*
X137060930Y-52285930D01*
X136989962Y-52333349D01*
X136906250Y-52350000D01*
X136393750Y-52350000D01*
X136310038Y-52333349D01*
X136239070Y-52285930D01*
X136191651Y-52214962D01*
X136175000Y-52131250D01*
X136175000Y-51693750D01*
X136191651Y-51610038D01*
X136239070Y-51539070D01*
X136310038Y-51491651D01*
X136393750Y-51475000D01*
X136906250Y-51475000D01*
X136989962Y-51491651D01*
G37*
G04 #@! TD.AperFunction*
G04 #@! TA.AperFunction,SMDPad,CuDef*
G36*
X136989962Y-53066651D02*
G01*
X137060930Y-53114070D01*
X137108349Y-53185038D01*
X137125000Y-53268750D01*
X137125000Y-53706250D01*
X137108349Y-53789962D01*
X137060930Y-53860930D01*
X136989962Y-53908349D01*
X136906250Y-53925000D01*
X136393750Y-53925000D01*
X136310038Y-53908349D01*
X136239070Y-53860930D01*
X136191651Y-53789962D01*
X136175000Y-53706250D01*
X136175000Y-53268750D01*
X136191651Y-53185038D01*
X136239070Y-53114070D01*
X136310038Y-53066651D01*
X136393750Y-53050000D01*
X136906250Y-53050000D01*
X136989962Y-53066651D01*
G37*
G04 #@! TD.AperFunction*
G04 #@! TA.AperFunction,SMDPad,CuDef*
G36*
X151489962Y-53391651D02*
G01*
X151560930Y-53439070D01*
X151608349Y-53510038D01*
X151625000Y-53593750D01*
X151625000Y-54106250D01*
X151608349Y-54189962D01*
X151560930Y-54260930D01*
X151489962Y-54308349D01*
X151406250Y-54325000D01*
X150968750Y-54325000D01*
X150885038Y-54308349D01*
X150814070Y-54260930D01*
X150766651Y-54189962D01*
X150750000Y-54106250D01*
X150750000Y-53593750D01*
X150766651Y-53510038D01*
X150814070Y-53439070D01*
X150885038Y-53391651D01*
X150968750Y-53375000D01*
X151406250Y-53375000D01*
X151489962Y-53391651D01*
G37*
G04 #@! TD.AperFunction*
G04 #@! TA.AperFunction,SMDPad,CuDef*
G36*
X149914962Y-53391651D02*
G01*
X149985930Y-53439070D01*
X150033349Y-53510038D01*
X150050000Y-53593750D01*
X150050000Y-54106250D01*
X150033349Y-54189962D01*
X149985930Y-54260930D01*
X149914962Y-54308349D01*
X149831250Y-54325000D01*
X149393750Y-54325000D01*
X149310038Y-54308349D01*
X149239070Y-54260930D01*
X149191651Y-54189962D01*
X149175000Y-54106250D01*
X149175000Y-53593750D01*
X149191651Y-53510038D01*
X149239070Y-53439070D01*
X149310038Y-53391651D01*
X149393750Y-53375000D01*
X149831250Y-53375000D01*
X149914962Y-53391651D01*
G37*
G04 #@! TD.AperFunction*
G04 #@! TA.AperFunction,SMDPad,CuDef*
G36*
X146133712Y-62847901D02*
G01*
X146204680Y-62895320D01*
X146252099Y-62966288D01*
X146268750Y-63050000D01*
X146268750Y-63487500D01*
X146252099Y-63571212D01*
X146204680Y-63642180D01*
X146133712Y-63689599D01*
X146050000Y-63706250D01*
X145537500Y-63706250D01*
X145453788Y-63689599D01*
X145382820Y-63642180D01*
X145335401Y-63571212D01*
X145318750Y-63487500D01*
X145318750Y-63050000D01*
X145335401Y-62966288D01*
X145382820Y-62895320D01*
X145453788Y-62847901D01*
X145537500Y-62831250D01*
X146050000Y-62831250D01*
X146133712Y-62847901D01*
G37*
G04 #@! TD.AperFunction*
G04 #@! TA.AperFunction,SMDPad,CuDef*
G36*
X146133712Y-61272901D02*
G01*
X146204680Y-61320320D01*
X146252099Y-61391288D01*
X146268750Y-61475000D01*
X146268750Y-61912500D01*
X146252099Y-61996212D01*
X146204680Y-62067180D01*
X146133712Y-62114599D01*
X146050000Y-62131250D01*
X145537500Y-62131250D01*
X145453788Y-62114599D01*
X145382820Y-62067180D01*
X145335401Y-61996212D01*
X145318750Y-61912500D01*
X145318750Y-61475000D01*
X145335401Y-61391288D01*
X145382820Y-61320320D01*
X145453788Y-61272901D01*
X145537500Y-61256250D01*
X146050000Y-61256250D01*
X146133712Y-61272901D01*
G37*
G04 #@! TD.AperFunction*
G04 #@! TA.AperFunction,SMDPad,CuDef*
G36*
X150621212Y-63722901D02*
G01*
X150692180Y-63770320D01*
X150739599Y-63841288D01*
X150756250Y-63925000D01*
X150756250Y-64437500D01*
X150739599Y-64521212D01*
X150692180Y-64592180D01*
X150621212Y-64639599D01*
X150537500Y-64656250D01*
X150100000Y-64656250D01*
X150016288Y-64639599D01*
X149945320Y-64592180D01*
X149897901Y-64521212D01*
X149881250Y-64437500D01*
X149881250Y-63925000D01*
X149897901Y-63841288D01*
X149945320Y-63770320D01*
X150016288Y-63722901D01*
X150100000Y-63706250D01*
X150537500Y-63706250D01*
X150621212Y-63722901D01*
G37*
G04 #@! TD.AperFunction*
G04 #@! TA.AperFunction,SMDPad,CuDef*
G36*
X149046212Y-63722901D02*
G01*
X149117180Y-63770320D01*
X149164599Y-63841288D01*
X149181250Y-63925000D01*
X149181250Y-64437500D01*
X149164599Y-64521212D01*
X149117180Y-64592180D01*
X149046212Y-64639599D01*
X148962500Y-64656250D01*
X148525000Y-64656250D01*
X148441288Y-64639599D01*
X148370320Y-64592180D01*
X148322901Y-64521212D01*
X148306250Y-64437500D01*
X148306250Y-63925000D01*
X148322901Y-63841288D01*
X148370320Y-63770320D01*
X148441288Y-63722901D01*
X148525000Y-63706250D01*
X148962500Y-63706250D01*
X149046212Y-63722901D01*
G37*
G04 #@! TD.AperFunction*
G04 #@! TA.AperFunction,SMDPad,CuDef*
G36*
X141583714Y-65422900D02*
G01*
X141654682Y-65470319D01*
X141702101Y-65541287D01*
X141718752Y-65624999D01*
X141718752Y-66137499D01*
X141702101Y-66221211D01*
X141654682Y-66292179D01*
X141583714Y-66339598D01*
X141500002Y-66356249D01*
X141062502Y-66356249D01*
X140978790Y-66339598D01*
X140907822Y-66292179D01*
X140860403Y-66221211D01*
X140843752Y-66137499D01*
X140843752Y-65624999D01*
X140860403Y-65541287D01*
X140907822Y-65470319D01*
X140978790Y-65422900D01*
X141062502Y-65406249D01*
X141500002Y-65406249D01*
X141583714Y-65422900D01*
G37*
G04 #@! TD.AperFunction*
G04 #@! TA.AperFunction,SMDPad,CuDef*
G36*
X140008714Y-65422900D02*
G01*
X140079682Y-65470319D01*
X140127101Y-65541287D01*
X140143752Y-65624999D01*
X140143752Y-66137499D01*
X140127101Y-66221211D01*
X140079682Y-66292179D01*
X140008714Y-66339598D01*
X139925002Y-66356249D01*
X139487502Y-66356249D01*
X139403790Y-66339598D01*
X139332822Y-66292179D01*
X139285403Y-66221211D01*
X139268752Y-66137499D01*
X139268752Y-65624999D01*
X139285403Y-65541287D01*
X139332822Y-65470319D01*
X139403790Y-65422900D01*
X139487502Y-65406249D01*
X139925002Y-65406249D01*
X140008714Y-65422900D01*
G37*
G04 #@! TD.AperFunction*
G04 #@! TA.AperFunction,SMDPad,CuDef*
G36*
X129139962Y-52066651D02*
G01*
X129210930Y-52114070D01*
X129258349Y-52185038D01*
X129275000Y-52268750D01*
X129275000Y-52706250D01*
X129258349Y-52789962D01*
X129210930Y-52860930D01*
X129139962Y-52908349D01*
X129056250Y-52925000D01*
X128543750Y-52925000D01*
X128460038Y-52908349D01*
X128389070Y-52860930D01*
X128341651Y-52789962D01*
X128325000Y-52706250D01*
X128325000Y-52268750D01*
X128341651Y-52185038D01*
X128389070Y-52114070D01*
X128460038Y-52066651D01*
X128543750Y-52050000D01*
X129056250Y-52050000D01*
X129139962Y-52066651D01*
G37*
G04 #@! TD.AperFunction*
G04 #@! TA.AperFunction,SMDPad,CuDef*
G36*
X129139962Y-50491651D02*
G01*
X129210930Y-50539070D01*
X129258349Y-50610038D01*
X129275000Y-50693750D01*
X129275000Y-51131250D01*
X129258349Y-51214962D01*
X129210930Y-51285930D01*
X129139962Y-51333349D01*
X129056250Y-51350000D01*
X128543750Y-51350000D01*
X128460038Y-51333349D01*
X128389070Y-51285930D01*
X128341651Y-51214962D01*
X128325000Y-51131250D01*
X128325000Y-50693750D01*
X128341651Y-50610038D01*
X128389070Y-50539070D01*
X128460038Y-50491651D01*
X128543750Y-50475000D01*
X129056250Y-50475000D01*
X129139962Y-50491651D01*
G37*
G04 #@! TD.AperFunction*
D17*
X128293750Y-60460000D03*
D18*
X128293750Y-63000000D03*
D26*
X141500000Y-44500000D03*
X141204662Y-49204662D03*
X136000000Y-49000000D03*
X145000000Y-53000000D03*
X142500000Y-53000000D03*
X140900000Y-59600000D03*
X135000000Y-66100000D03*
X152100000Y-67500000D03*
X139000000Y-66900000D03*
X150950000Y-67600000D03*
X152350000Y-53900000D03*
X147150000Y-56850000D03*
X143800000Y-49200000D03*
X139649998Y-55314452D03*
X139075010Y-51900000D03*
X140900000Y-55275000D03*
X133500000Y-53900000D03*
X151137340Y-65637340D03*
X151300000Y-64150000D03*
X146200000Y-48100000D03*
X136300000Y-64600000D03*
X135000000Y-63950000D03*
X131969193Y-59115011D03*
X128650000Y-53400000D03*
X128600000Y-56050000D03*
X140650000Y-46500000D03*
X137900000Y-50100000D03*
X147200000Y-65500000D03*
X142950000Y-67000000D03*
X130412500Y-56300000D03*
X133012500Y-56300000D03*
X147450001Y-43612499D03*
X142600001Y-45562498D03*
X139400001Y-44112498D03*
X142593750Y-65481250D03*
X145593749Y-62881248D03*
X147393750Y-59681248D03*
X146443750Y-58131251D03*
D27*
X139512499Y-43012499D02*
X138212498Y-41712498D01*
X138212498Y-41712498D02*
X137850001Y-41712498D01*
X145250001Y-41712497D02*
X143949999Y-43012499D01*
X146600001Y-41712497D02*
X145250001Y-41712497D01*
X143949999Y-43012499D02*
X139512499Y-43012499D01*
D28*
X141349999Y-44362497D02*
X141500000Y-44500000D01*
D29*
X141637502Y-44362498D02*
X141500000Y-44500000D01*
D28*
X141500000Y-44500000D02*
X142400001Y-44362499D01*
D29*
X142400001Y-44362498D02*
X141637502Y-44362498D01*
D28*
X141204662Y-49204662D02*
X141209325Y-49200000D01*
X135000000Y-65500000D02*
X135000000Y-63950000D01*
X135000000Y-65850000D02*
X135000000Y-65500000D01*
D30*
X135000000Y-66100000D02*
X135000000Y-65534315D01*
X135000000Y-65534315D02*
X135000000Y-65500000D01*
X152450000Y-67150000D02*
X152100000Y-67500000D01*
D28*
X139000000Y-66900000D02*
X136899999Y-66900000D01*
D30*
X150731251Y-67381251D02*
X150950000Y-67600000D01*
X150318751Y-67381251D02*
X150731251Y-67381251D01*
D28*
X152350000Y-53900000D02*
X151237500Y-53900000D01*
X151237500Y-53900000D02*
X151187500Y-53850000D01*
X147150000Y-57400000D02*
X147150000Y-56850000D01*
X147391251Y-57641251D02*
X147150000Y-57400000D01*
X149243750Y-57641251D02*
X147391251Y-57641251D01*
X151193750Y-56191251D02*
X149273750Y-56191251D01*
X149273750Y-56191251D02*
X149123750Y-56041251D01*
X149750000Y-52050000D02*
X149862500Y-52050000D01*
X149862500Y-52050000D02*
X151187500Y-53375000D01*
X151187500Y-53375000D02*
X151187500Y-53850000D01*
X149750000Y-47862498D02*
X149750000Y-52050000D01*
X150300000Y-46612498D02*
X150300000Y-47312498D01*
X150300000Y-47312498D02*
X149750000Y-47862498D01*
X141209325Y-49200000D02*
X143800000Y-49200000D01*
X139075010Y-51900000D02*
X139075010Y-51334315D01*
X139075010Y-51334315D02*
X141204662Y-49204662D01*
X139650000Y-56150000D02*
X139700000Y-64050000D01*
X139706252Y-54956252D02*
X139650000Y-56150000D01*
X139649998Y-55880137D02*
X139650000Y-55880139D01*
X139649998Y-55314452D02*
X139649998Y-55880137D01*
X139650000Y-55880139D02*
X139650000Y-56150000D01*
X136650000Y-51912500D02*
X139062510Y-51912500D01*
X139062510Y-51912500D02*
X139075010Y-51900000D01*
X133500000Y-53900000D02*
X134662500Y-53900000D01*
X134662500Y-53900000D02*
X136650000Y-51912500D01*
X133906250Y-59000000D02*
X133906250Y-58443750D01*
X133906250Y-58443750D02*
X135262500Y-57087500D01*
X151193750Y-56191251D02*
X149453750Y-56191251D01*
X149453750Y-56191251D02*
X149123750Y-56521251D01*
X151193750Y-56191251D02*
X150693750Y-56191251D01*
X150693750Y-56191251D02*
X150443750Y-55941251D01*
X152123750Y-56211251D02*
X151213750Y-56211251D01*
X151213750Y-56211251D02*
X151193750Y-56191251D01*
X152393750Y-57981251D02*
X152393750Y-56481251D01*
X152393750Y-56481251D02*
X152123750Y-56211251D01*
X152393750Y-59901251D02*
X152393750Y-57981251D01*
X152123750Y-61671251D02*
X152123750Y-60171251D01*
X152123750Y-60171251D02*
X152393750Y-59901251D01*
X149143750Y-61791251D02*
X150343750Y-61791251D01*
X150343750Y-61791251D02*
X150443750Y-61891251D01*
X149123750Y-61361251D02*
X151813750Y-61361251D01*
X151813750Y-61361251D02*
X152123750Y-61671251D01*
X152450000Y-63900000D02*
X152450000Y-67150000D01*
X151831250Y-63281250D02*
X152450000Y-63900000D01*
X148318750Y-63281250D02*
X148743752Y-63706251D01*
X147493751Y-62456250D02*
X148318750Y-63281250D01*
X148318750Y-63281250D02*
X151831250Y-63281250D01*
X139700000Y-64050000D02*
X139706252Y-65881249D01*
X137918750Y-64026250D02*
X139676250Y-64026250D01*
X139676250Y-64026250D02*
X139700000Y-64050000D01*
X135866484Y-55512500D02*
X136978984Y-54400000D01*
X135262500Y-55512500D02*
X135866484Y-55512500D01*
X139150000Y-54400000D02*
X139706252Y-54956252D01*
X136978984Y-54400000D02*
X139150000Y-54400000D01*
X150993431Y-65781249D02*
X151137340Y-65637340D01*
X150318751Y-65781249D02*
X150993431Y-65781249D01*
X151268750Y-64181250D02*
X151300000Y-64150000D01*
X150318750Y-64181250D02*
X151268750Y-64181250D01*
X146200000Y-48100000D02*
X145500002Y-48100000D01*
X145500002Y-48100000D02*
X145250000Y-47849998D01*
X136324999Y-64624999D02*
X136300000Y-64600000D01*
X136324999Y-65850000D02*
X136324999Y-64624999D01*
X135000000Y-63950000D02*
X135000000Y-63003750D01*
X135000000Y-63003750D02*
X135403751Y-62599999D01*
X132783751Y-60699999D02*
X132783751Y-59929569D01*
X130993751Y-59017449D02*
X130993751Y-61100002D01*
X133906252Y-59000001D02*
X133296260Y-58390009D01*
X131621191Y-58390009D02*
X130993751Y-59017449D01*
X133296260Y-58390009D02*
X131621191Y-58390009D01*
X132783751Y-59929569D02*
X131969193Y-59115011D01*
X133462500Y-55350000D02*
X135100000Y-55350000D01*
X135100000Y-55350000D02*
X135262500Y-55512500D01*
X131000000Y-51470000D02*
X131000000Y-52887500D01*
X131000000Y-52887500D02*
X133462500Y-55350000D01*
X128650000Y-53400000D02*
X128650000Y-52637500D01*
X128650000Y-52637500D02*
X128800000Y-52487500D01*
X128712490Y-56162490D02*
X128600000Y-56050000D01*
X128712490Y-56212490D02*
X128712490Y-56162490D01*
D27*
X127350000Y-54900000D02*
X127350000Y-43350000D01*
D28*
X127412500Y-54962500D02*
X127350000Y-54900000D01*
D27*
X127350000Y-57100000D02*
X127350000Y-54900000D01*
D28*
X129512500Y-54962500D02*
X127412500Y-54962500D01*
X128800000Y-52487500D02*
X128800000Y-52925000D01*
X128800000Y-52925000D02*
X128712490Y-53012510D01*
X128712490Y-56212490D02*
X129037500Y-56537500D01*
X129037500Y-56537500D02*
X129512500Y-56537500D01*
X132250000Y-48100000D02*
X132250000Y-50220000D01*
X132250000Y-50220000D02*
X131000000Y-51470000D01*
X131891399Y-47741399D02*
X132250000Y-48100000D01*
X129275000Y-47812500D02*
X129346101Y-47741399D01*
X128800000Y-47812500D02*
X129275000Y-47812500D01*
X129346101Y-47741399D02*
X131891399Y-47741399D01*
X128800000Y-49387500D02*
X130542500Y-49387500D01*
X130542500Y-49387500D02*
X131000000Y-48930000D01*
X131000000Y-51470000D02*
X128920000Y-51470000D01*
X128920000Y-51470000D02*
X128800000Y-51350000D01*
X128800000Y-51350000D02*
X128800000Y-50912500D01*
X128800000Y-46287500D02*
X128800000Y-47812500D01*
X131000000Y-46390000D02*
X129322500Y-44712500D01*
X129322500Y-44712500D02*
X128800000Y-44712500D01*
D27*
X127350000Y-43350000D02*
X128987502Y-41712498D01*
X128987502Y-41712498D02*
X137850001Y-41712498D01*
X126550000Y-57900000D02*
X127350000Y-57100000D01*
X126550000Y-62606250D02*
X126550000Y-57900000D01*
X128293750Y-63000000D02*
X126943750Y-63000000D01*
X126943750Y-63000000D02*
X126550000Y-62606250D01*
D28*
X140674998Y-46524998D02*
X140650000Y-46500000D01*
X141287500Y-46524998D02*
X140674998Y-46524998D01*
X149612500Y-53850000D02*
X148462500Y-53850000D01*
X148462500Y-53850000D02*
X145993750Y-51381250D01*
X137900000Y-50100000D02*
X139400000Y-48600000D01*
X139400000Y-48600000D02*
X139400000Y-48099998D01*
X147200000Y-65500000D02*
X146774997Y-65500000D01*
X146774997Y-65500000D02*
X145793748Y-66481249D01*
X136324999Y-66325000D02*
X136324999Y-65850000D01*
X140039768Y-65881249D02*
X141158519Y-67000000D01*
X136899999Y-66900000D02*
X136324999Y-66325000D01*
X141158519Y-67000000D02*
X142950000Y-67000000D01*
X139706252Y-65881249D02*
X140039768Y-65881249D01*
X144193750Y-63031252D02*
X144193750Y-67481252D01*
X144512487Y-67799989D02*
X148325011Y-67799989D01*
X148325011Y-67799989D02*
X148743750Y-67381250D01*
X144043750Y-62881250D02*
X144193750Y-63031252D01*
X143368750Y-62756248D02*
X143493748Y-62881250D01*
X144193750Y-67481252D02*
X144512487Y-67799989D01*
X143493748Y-62881250D02*
X144043750Y-62881250D01*
X142868750Y-62756253D02*
X143368750Y-62756248D01*
X131057500Y-57250000D02*
X131262500Y-57250000D01*
X136650000Y-53487500D02*
X139007500Y-53487500D01*
X139007500Y-53487500D02*
X141113750Y-51381250D01*
X141124990Y-47324990D02*
X141649998Y-47849998D01*
X141649998Y-47849998D02*
X145250000Y-47849998D01*
X134551399Y-45201399D02*
X136674990Y-47324990D01*
X136674990Y-47324990D02*
X141124990Y-47324990D01*
X131000000Y-44963600D02*
X131237799Y-45201399D01*
X131237799Y-45201399D02*
X134551399Y-45201399D01*
X131000000Y-43850000D02*
X131000000Y-44963600D01*
X137800000Y-48087500D02*
X134382500Y-48087500D01*
X134382500Y-48087500D02*
X133540000Y-48930000D01*
X137899999Y-65850000D02*
X139675003Y-65850000D01*
X139675003Y-65850000D02*
X139706252Y-65881249D01*
X133112500Y-56300000D02*
X133012500Y-56300000D01*
X133375000Y-56562500D02*
X133112500Y-56300000D01*
X134262500Y-56562500D02*
X133375000Y-56562500D01*
X135262500Y-57087500D02*
X134787500Y-57087500D01*
X134787500Y-57087500D02*
X134262500Y-56562500D01*
X131262500Y-56300000D02*
X129750000Y-56300000D01*
X129750000Y-56300000D02*
X129512500Y-56537500D01*
X131262500Y-57250000D02*
X132042500Y-57250000D01*
X132042500Y-57250000D02*
X132262500Y-57030000D01*
X132262500Y-57030000D02*
X132262500Y-55570000D01*
X132262500Y-55570000D02*
X132042500Y-55350000D01*
X132042500Y-55350000D02*
X131262500Y-55350000D01*
X129512500Y-54962500D02*
X130875000Y-54962500D01*
X130875000Y-54962500D02*
X131262500Y-55350000D01*
X146650000Y-44412498D02*
X147450001Y-43612499D01*
X146637501Y-44412497D02*
X146650000Y-44412498D01*
X143350000Y-45662498D02*
X143349999Y-46362498D01*
X142600001Y-45562498D02*
X142600001Y-45612497D01*
X142600001Y-45612497D02*
X143349999Y-46362498D01*
X138750001Y-44762498D02*
X139400001Y-44112498D01*
X138637500Y-44762497D02*
X138750001Y-44762498D01*
X148399999Y-46612498D02*
X147750000Y-46612497D01*
X147750000Y-46612497D02*
X147275010Y-47087488D01*
X147275010Y-47087488D02*
X144060011Y-47087487D01*
X144060011Y-47087487D02*
X144010000Y-47137498D01*
X144010000Y-47137498D02*
X142175001Y-47137499D01*
X141450000Y-46412498D02*
X141449999Y-46362498D01*
X142175001Y-47137499D02*
X141450000Y-46412498D01*
X139399999Y-46524999D02*
X141287500Y-46524998D01*
X141287500Y-46524998D02*
X141449999Y-46362498D01*
X139950010Y-45762488D02*
X141349999Y-44362497D01*
X137800000Y-46074998D02*
X138112510Y-45762488D01*
X138112510Y-45762488D02*
X139950010Y-45762488D01*
X137800000Y-46512498D02*
X137800000Y-46074998D01*
X137850001Y-41712498D02*
X137849999Y-44412499D01*
X137500000Y-44762499D02*
X137062500Y-44762498D01*
X137849999Y-44412499D02*
X137500000Y-44762499D01*
X150299999Y-46612499D02*
X150300001Y-43092498D01*
X150300001Y-43092498D02*
X151679999Y-41712498D01*
X146016484Y-46274997D02*
X147678983Y-44612498D01*
X145250001Y-46274998D02*
X146016484Y-46274997D01*
X147678983Y-44612498D02*
X149350001Y-44612497D01*
X146600001Y-41712497D02*
X146600000Y-42874998D01*
X146600000Y-42874998D02*
X145062500Y-44412498D01*
X149139999Y-41712498D02*
X149139999Y-44402499D01*
X149139999Y-44402499D02*
X149350001Y-44612497D01*
X136443749Y-59449997D02*
X135993751Y-59000000D01*
X135993751Y-59000000D02*
X135481250Y-59000000D01*
X136443749Y-60200002D02*
X136443749Y-59449997D01*
X135943750Y-60699998D02*
X136443749Y-60200002D01*
X135403750Y-60700001D02*
X135943750Y-60699998D01*
X128293748Y-60460000D02*
X130791249Y-60459998D01*
X130993752Y-60662502D02*
X130993751Y-61100002D01*
X130791249Y-60459998D02*
X130993752Y-60662502D01*
X131543748Y-61650001D02*
X131543750Y-61175000D01*
X131543750Y-61175000D02*
X131468750Y-61100000D01*
X131468750Y-61100000D02*
X130993751Y-61100002D01*
X132783750Y-61650000D02*
X131543748Y-61650001D01*
X130993751Y-62675002D02*
X132708748Y-62675004D01*
X132708748Y-62675004D02*
X132783750Y-62600000D01*
X128293750Y-63000000D02*
X130668755Y-63000000D01*
X130668755Y-63000000D02*
X130993751Y-62675002D01*
X141106248Y-51373748D02*
X141113750Y-51381250D01*
X142868750Y-55136247D02*
X141113750Y-53381250D01*
X141113750Y-53381250D02*
X141113750Y-51381250D01*
X144518749Y-56406249D02*
X145993749Y-54931249D01*
X145993749Y-54931249D02*
X145993750Y-51381250D01*
X142868750Y-56406253D02*
X144518749Y-56406249D01*
X139706249Y-65881249D02*
X139706250Y-65406249D01*
X138326251Y-64026252D02*
X137918751Y-64026250D01*
X142593750Y-65481250D02*
X142593748Y-64301249D01*
X142593748Y-64301249D02*
X142868753Y-64026250D01*
X142593750Y-65481250D02*
X141681248Y-65481249D01*
X141681248Y-65481249D02*
X141281249Y-65881249D01*
X145793750Y-63081250D02*
X145593749Y-62881248D01*
X145793750Y-63268750D02*
X145793750Y-63081250D01*
X146943750Y-64231249D02*
X146943749Y-62368749D01*
X146268749Y-61693749D02*
X145793750Y-61693750D01*
X146943749Y-62368749D02*
X146268749Y-61693749D01*
X145793751Y-64906247D02*
X146268750Y-64906247D01*
X146268750Y-64906247D02*
X146943750Y-64231249D01*
X144743751Y-62331251D02*
X144743752Y-67031249D01*
X144956259Y-67243759D02*
X146631241Y-67243759D01*
X146631241Y-67243759D02*
X148093749Y-65781251D01*
X143893748Y-61481251D02*
X144743751Y-62331251D01*
X148093749Y-65781251D02*
X148743750Y-65781248D01*
X143453750Y-61481252D02*
X143893748Y-61481251D01*
X142868749Y-61486252D02*
X143448748Y-61486250D01*
X143448748Y-61486250D02*
X143453750Y-61481252D01*
X144743752Y-67031249D02*
X144956259Y-67243759D01*
X145793750Y-61031251D02*
X144978752Y-60216252D01*
X144978752Y-60216252D02*
X142868749Y-60216249D01*
X145793750Y-61693750D02*
X145793750Y-61031251D01*
X147493750Y-60916250D02*
X147493751Y-62456250D01*
X148743752Y-63706251D02*
X148743751Y-64181251D01*
X149243751Y-60241251D02*
X148168750Y-60241249D01*
X148168750Y-60241249D02*
X147493750Y-60916250D01*
X147393750Y-59681248D02*
X149153751Y-59681250D01*
X149153751Y-59681250D02*
X149243752Y-59591248D01*
X145988749Y-57676252D02*
X146443750Y-58131251D01*
X142868751Y-57676251D02*
X145988749Y-57676252D01*
X149243752Y-58941251D02*
X142873751Y-58941248D01*
X142873751Y-58941248D02*
X142868751Y-58946252D01*
G36*
X134034250Y-60136424D02*
G01*
X134223135Y-60095334D01*
X134188795Y-60154813D01*
X134151914Y-60363975D01*
X134151914Y-61041587D01*
X134232546Y-61342511D01*
X134379936Y-61518164D01*
X134573565Y-61629955D01*
X134703576Y-61652880D01*
X134476240Y-61713794D01*
X134300586Y-61861184D01*
X134188795Y-62054813D01*
X134151914Y-62263975D01*
X134151914Y-62941587D01*
X134232546Y-63242511D01*
X134238316Y-63249388D01*
X134172594Y-63315109D01*
X134036466Y-63550891D01*
X133966000Y-63813872D01*
X133966000Y-64086128D01*
X134036466Y-64349109D01*
X134172594Y-64584891D01*
X134241001Y-64653297D01*
X134241000Y-65047649D01*
X134183650Y-64937715D01*
X133990350Y-64655935D01*
X133842772Y-64488248D01*
X131931019Y-66400000D01*
X133842449Y-68311429D01*
X133950207Y-68194442D01*
X134149848Y-67917122D01*
X134314730Y-67617823D01*
X134442460Y-67300884D01*
X134518994Y-67016251D01*
X134600891Y-67063534D01*
X134863872Y-67134000D01*
X135136128Y-67134000D01*
X135399109Y-67063534D01*
X135634891Y-66927406D01*
X135705068Y-66857228D01*
X135850051Y-66923439D01*
X135873656Y-66947045D01*
X135873658Y-66947046D01*
X136292412Y-67365801D01*
X136448309Y-67521698D01*
X136502195Y-67549154D01*
X136551123Y-67584703D01*
X136608647Y-67603394D01*
X136662533Y-67630850D01*
X136722266Y-67640311D01*
X136779785Y-67659000D01*
X138296704Y-67659000D01*
X138365109Y-67727406D01*
X138600891Y-67863534D01*
X138863872Y-67934000D01*
X139136128Y-67934000D01*
X139399109Y-67863534D01*
X139634891Y-67727406D01*
X139827406Y-67534891D01*
X139963534Y-67299109D01*
X140034000Y-67036128D01*
X140034000Y-66974220D01*
X140054822Y-66969690D01*
X140706829Y-67621698D01*
X140760715Y-67649154D01*
X140809644Y-67684703D01*
X140867161Y-67703391D01*
X140921051Y-67730850D01*
X140980794Y-67740312D01*
X141038305Y-67758999D01*
X141098269Y-67758999D01*
X141098275Y-67759000D01*
X142246704Y-67759000D01*
X142315109Y-67827406D01*
X142550891Y-67963534D01*
X142813872Y-68034000D01*
X143086128Y-68034000D01*
X143349109Y-67963534D01*
X143530067Y-67859058D01*
X143544599Y-67879058D01*
X143572053Y-67932942D01*
X143890440Y-68251328D01*
X143890442Y-68251332D01*
X144005111Y-68366000D01*
X133534980Y-68366000D01*
X131750000Y-66581019D01*
X129965020Y-68366000D01*
X127081659Y-68366000D01*
X127080909Y-68365804D01*
X127064984Y-68364087D01*
X126928114Y-68350184D01*
X126859170Y-68328579D01*
X126795975Y-68293549D01*
X126741118Y-68246531D01*
X126696836Y-68189443D01*
X126664934Y-68124608D01*
X126644736Y-68047066D01*
X126636651Y-67942008D01*
X126634000Y-67930101D01*
X126634000Y-66538693D01*
X128914212Y-66538693D01*
X128951413Y-66878371D01*
X129029152Y-67211120D01*
X129146304Y-67532119D01*
X129301170Y-67836720D01*
X129491509Y-68120509D01*
X129656726Y-68312254D01*
X131568981Y-66400000D01*
X129657531Y-64488551D01*
X129531125Y-64628695D01*
X129334396Y-64908092D01*
X129172658Y-65209101D01*
X129048254Y-65527360D01*
X128962986Y-65858259D01*
X128918088Y-66197006D01*
X128914212Y-66538693D01*
X126634000Y-66538693D01*
X126634000Y-63831220D01*
X126682994Y-63854222D01*
X126717756Y-63859418D01*
X126751974Y-63872245D01*
X126804474Y-63876147D01*
X126882545Y-64167512D01*
X127029935Y-64343165D01*
X127223564Y-64454956D01*
X127432726Y-64491837D01*
X129160338Y-64491837D01*
X129461262Y-64411205D01*
X129636915Y-64263815D01*
X129748706Y-64070186D01*
X129785587Y-63861024D01*
X129785587Y-63759000D01*
X130720917Y-63759000D01*
X130604263Y-63802267D01*
X130300478Y-63958727D01*
X130017689Y-64150549D01*
X129838025Y-64307005D01*
X131750000Y-66218981D01*
X133661541Y-64307439D01*
X133509663Y-64171881D01*
X133229240Y-63976617D01*
X132927388Y-63816458D01*
X132608482Y-63693722D01*
X132277140Y-63610188D01*
X131938164Y-63567065D01*
X131775400Y-63566070D01*
X131811926Y-63542597D01*
X131866458Y-63479664D01*
X131953565Y-63529955D01*
X132162727Y-63566836D01*
X133410339Y-63566836D01*
X133711263Y-63486204D01*
X133886916Y-63338814D01*
X133998707Y-63145185D01*
X134035588Y-62936023D01*
X134035588Y-62258411D01*
X134006621Y-62150304D01*
X134035588Y-61986023D01*
X134035588Y-61777999D01*
X133800922Y-61777999D01*
X133613937Y-61670043D01*
X133483926Y-61647118D01*
X133711263Y-61586204D01*
X133787780Y-61521999D01*
X134035588Y-61521999D01*
X134035588Y-61308411D01*
X134006621Y-61200304D01*
X134035588Y-61036023D01*
X134035588Y-60358411D01*
X133954956Y-60057488D01*
X133807566Y-59881835D01*
X133778250Y-59864909D01*
X133778250Y-58872000D01*
X134034250Y-58872000D01*
X134034250Y-60136424D01*
G37*
D31*
X134034250Y-60136424D02*
X134223135Y-60095334D01*
X134188795Y-60154813D01*
X134151914Y-60363975D01*
X134151914Y-61041587D01*
X134232546Y-61342511D01*
X134379936Y-61518164D01*
X134573565Y-61629955D01*
X134703576Y-61652880D01*
X134476240Y-61713794D01*
X134300586Y-61861184D01*
X134188795Y-62054813D01*
X134151914Y-62263975D01*
X134151914Y-62941587D01*
X134232546Y-63242511D01*
X134238316Y-63249388D01*
X134172594Y-63315109D01*
X134036466Y-63550891D01*
X133966000Y-63813872D01*
X133966000Y-64086128D01*
X134036466Y-64349109D01*
X134172594Y-64584891D01*
X134241001Y-64653297D01*
X134241000Y-65047649D01*
X134183650Y-64937715D01*
X133990350Y-64655935D01*
X133842772Y-64488248D01*
X131931019Y-66400000D01*
X133842449Y-68311429D01*
X133950207Y-68194442D01*
X134149848Y-67917122D01*
X134314730Y-67617823D01*
X134442460Y-67300884D01*
X134518994Y-67016251D01*
X134600891Y-67063534D01*
X134863872Y-67134000D01*
X135136128Y-67134000D01*
X135399109Y-67063534D01*
X135634891Y-66927406D01*
X135705068Y-66857228D01*
X135850051Y-66923439D01*
X135873656Y-66947045D01*
X135873658Y-66947046D01*
X136292412Y-67365801D01*
X136448309Y-67521698D01*
X136502195Y-67549154D01*
X136551123Y-67584703D01*
X136608647Y-67603394D01*
X136662533Y-67630850D01*
X136722266Y-67640311D01*
X136779785Y-67659000D01*
X138296704Y-67659000D01*
X138365109Y-67727406D01*
X138600891Y-67863534D01*
X138863872Y-67934000D01*
X139136128Y-67934000D01*
X139399109Y-67863534D01*
X139634891Y-67727406D01*
X139827406Y-67534891D01*
X139963534Y-67299109D01*
X140034000Y-67036128D01*
X140034000Y-66974220D01*
X140054822Y-66969690D01*
X140706829Y-67621698D01*
X140760715Y-67649154D01*
X140809644Y-67684703D01*
X140867161Y-67703391D01*
X140921051Y-67730850D01*
X140980794Y-67740312D01*
X141038305Y-67758999D01*
X141098269Y-67758999D01*
X141098275Y-67759000D01*
X142246704Y-67759000D01*
X142315109Y-67827406D01*
X142550891Y-67963534D01*
X142813872Y-68034000D01*
X143086128Y-68034000D01*
X143349109Y-67963534D01*
X143530067Y-67859058D01*
X143544599Y-67879058D01*
X143572053Y-67932942D01*
X143890440Y-68251328D01*
X143890442Y-68251332D01*
X144005111Y-68366000D01*
X133534980Y-68366000D01*
X131750000Y-66581019D01*
X129965020Y-68366000D01*
X127081659Y-68366000D01*
X127080909Y-68365804D01*
X127064984Y-68364087D01*
X126928114Y-68350184D01*
X126859170Y-68328579D01*
X126795975Y-68293549D01*
X126741118Y-68246531D01*
X126696836Y-68189443D01*
X126664934Y-68124608D01*
X126644736Y-68047066D01*
X126636651Y-67942008D01*
X126634000Y-67930101D01*
X126634000Y-66538693D01*
X128914212Y-66538693D01*
X128951413Y-66878371D01*
X129029152Y-67211120D01*
X129146304Y-67532119D01*
X129301170Y-67836720D01*
X129491509Y-68120509D01*
X129656726Y-68312254D01*
X131568981Y-66400000D01*
X129657531Y-64488551D01*
X129531125Y-64628695D01*
X129334396Y-64908092D01*
X129172658Y-65209101D01*
X129048254Y-65527360D01*
X128962986Y-65858259D01*
X128918088Y-66197006D01*
X128914212Y-66538693D01*
X126634000Y-66538693D01*
X126634000Y-63831220D01*
X126682994Y-63854222D01*
X126717756Y-63859418D01*
X126751974Y-63872245D01*
X126804474Y-63876147D01*
X126882545Y-64167512D01*
X127029935Y-64343165D01*
X127223564Y-64454956D01*
X127432726Y-64491837D01*
X129160338Y-64491837D01*
X129461262Y-64411205D01*
X129636915Y-64263815D01*
X129748706Y-64070186D01*
X129785587Y-63861024D01*
X129785587Y-63759000D01*
X130720917Y-63759000D01*
X130604263Y-63802267D01*
X130300478Y-63958727D01*
X130017689Y-64150549D01*
X129838025Y-64307005D01*
X131750000Y-66218981D01*
X133661541Y-64307439D01*
X133509663Y-64171881D01*
X133229240Y-63976617D01*
X132927388Y-63816458D01*
X132608482Y-63693722D01*
X132277140Y-63610188D01*
X131938164Y-63567065D01*
X131775400Y-63566070D01*
X131811926Y-63542597D01*
X131866458Y-63479664D01*
X131953565Y-63529955D01*
X132162727Y-63566836D01*
X133410339Y-63566836D01*
X133711263Y-63486204D01*
X133886916Y-63338814D01*
X133998707Y-63145185D01*
X134035588Y-62936023D01*
X134035588Y-62258411D01*
X134006621Y-62150304D01*
X134035588Y-61986023D01*
X134035588Y-61777999D01*
X133800922Y-61777999D01*
X133613937Y-61670043D01*
X133483926Y-61647118D01*
X133711263Y-61586204D01*
X133787780Y-61521999D01*
X134035588Y-61521999D01*
X134035588Y-61308411D01*
X134006621Y-61200304D01*
X134035588Y-61036023D01*
X134035588Y-60358411D01*
X133954956Y-60057488D01*
X133807566Y-59881835D01*
X133778250Y-59864909D01*
X133778250Y-58872000D01*
X134034250Y-58872000D01*
X134034250Y-60136424D01*
G36*
X140354750Y-53441493D02*
G01*
X140354751Y-53441499D01*
X140354751Y-53501463D01*
X140373438Y-53558974D01*
X140382900Y-53618717D01*
X140410359Y-53672607D01*
X140429047Y-53730124D01*
X140464596Y-53779053D01*
X140492052Y-53832939D01*
X140662407Y-54003295D01*
X140662409Y-54003296D01*
X141328621Y-54669507D01*
X141287813Y-54754245D01*
X141254012Y-54978502D01*
X141254012Y-55296371D01*
X141306188Y-55572126D01*
X141423598Y-55775487D01*
X141390356Y-55811313D01*
X141287813Y-56024245D01*
X141254012Y-56248502D01*
X141254012Y-56566371D01*
X141306188Y-56842126D01*
X141423598Y-57045487D01*
X141390356Y-57081313D01*
X141287813Y-57294245D01*
X141254012Y-57518502D01*
X141254012Y-57836371D01*
X141306188Y-58112126D01*
X141423598Y-58315487D01*
X141390356Y-58351313D01*
X141287813Y-58564245D01*
X141254012Y-58788502D01*
X141254012Y-59106371D01*
X141306188Y-59382126D01*
X141423598Y-59585487D01*
X141390356Y-59621313D01*
X141287813Y-59834245D01*
X141254012Y-60058502D01*
X141254012Y-60376371D01*
X141306188Y-60652126D01*
X141423598Y-60855487D01*
X141390356Y-60891313D01*
X141287813Y-61104245D01*
X141254012Y-61328502D01*
X141254012Y-61646371D01*
X141306188Y-61922126D01*
X141423598Y-62125487D01*
X141390356Y-62161313D01*
X141287813Y-62374245D01*
X141254012Y-62598502D01*
X141254012Y-62916371D01*
X141306188Y-63192126D01*
X141423598Y-63395487D01*
X141390356Y-63431313D01*
X141287813Y-63644246D01*
X141249529Y-63898250D01*
X142996750Y-63898250D01*
X142996750Y-64965988D01*
X143434750Y-64965988D01*
X143434751Y-66085911D01*
X143349109Y-66036466D01*
X143086128Y-65966000D01*
X142813872Y-65966000D01*
X142550891Y-66036466D01*
X142357414Y-66148169D01*
X142357976Y-66144262D01*
X142357976Y-66009249D01*
X141241156Y-66009249D01*
X141153252Y-65921346D01*
X141153252Y-64744825D01*
X140710747Y-64841087D01*
X140500576Y-64976155D01*
X140488980Y-64989537D01*
X140462132Y-64966273D01*
X140459360Y-64154250D01*
X141247933Y-64154250D01*
X141306188Y-64462126D01*
X141425564Y-64668893D01*
X141535829Y-64771203D01*
X141409252Y-64753004D01*
X141409252Y-65753249D01*
X142357976Y-65753249D01*
X142357976Y-65613702D01*
X142283914Y-65273245D01*
X142148846Y-65063073D01*
X142036804Y-64965988D01*
X142740750Y-64965988D01*
X142740750Y-64154250D01*
X141247933Y-64154250D01*
X140459360Y-64154250D01*
X140459195Y-64106025D01*
X140459362Y-64104927D01*
X140459000Y-64047768D01*
X140459000Y-63929784D01*
X140458238Y-63927440D01*
X140409112Y-56165466D01*
X140416423Y-56010323D01*
X140477404Y-55949343D01*
X140613532Y-55713561D01*
X140683998Y-55450580D01*
X140683998Y-55178324D01*
X140613532Y-54915343D01*
X140477404Y-54679561D01*
X140361986Y-54564144D01*
X140348521Y-54534326D01*
X140295737Y-54476322D01*
X140285183Y-54461795D01*
X140255581Y-54432194D01*
X140186704Y-54356504D01*
X140170850Y-54347462D01*
X139772046Y-53948659D01*
X139772045Y-53948657D01*
X139695887Y-53872499D01*
X140354750Y-53213636D01*
X140354750Y-53441493D01*
G37*
X140354750Y-53441493D02*
X140354751Y-53441499D01*
X140354751Y-53501463D01*
X140373438Y-53558974D01*
X140382900Y-53618717D01*
X140410359Y-53672607D01*
X140429047Y-53730124D01*
X140464596Y-53779053D01*
X140492052Y-53832939D01*
X140662407Y-54003295D01*
X140662409Y-54003296D01*
X141328621Y-54669507D01*
X141287813Y-54754245D01*
X141254012Y-54978502D01*
X141254012Y-55296371D01*
X141306188Y-55572126D01*
X141423598Y-55775487D01*
X141390356Y-55811313D01*
X141287813Y-56024245D01*
X141254012Y-56248502D01*
X141254012Y-56566371D01*
X141306188Y-56842126D01*
X141423598Y-57045487D01*
X141390356Y-57081313D01*
X141287813Y-57294245D01*
X141254012Y-57518502D01*
X141254012Y-57836371D01*
X141306188Y-58112126D01*
X141423598Y-58315487D01*
X141390356Y-58351313D01*
X141287813Y-58564245D01*
X141254012Y-58788502D01*
X141254012Y-59106371D01*
X141306188Y-59382126D01*
X141423598Y-59585487D01*
X141390356Y-59621313D01*
X141287813Y-59834245D01*
X141254012Y-60058502D01*
X141254012Y-60376371D01*
X141306188Y-60652126D01*
X141423598Y-60855487D01*
X141390356Y-60891313D01*
X141287813Y-61104245D01*
X141254012Y-61328502D01*
X141254012Y-61646371D01*
X141306188Y-61922126D01*
X141423598Y-62125487D01*
X141390356Y-62161313D01*
X141287813Y-62374245D01*
X141254012Y-62598502D01*
X141254012Y-62916371D01*
X141306188Y-63192126D01*
X141423598Y-63395487D01*
X141390356Y-63431313D01*
X141287813Y-63644246D01*
X141249529Y-63898250D01*
X142996750Y-63898250D01*
X142996750Y-64965988D01*
X143434750Y-64965988D01*
X143434751Y-66085911D01*
X143349109Y-66036466D01*
X143086128Y-65966000D01*
X142813872Y-65966000D01*
X142550891Y-66036466D01*
X142357414Y-66148169D01*
X142357976Y-66144262D01*
X142357976Y-66009249D01*
X141241156Y-66009249D01*
X141153252Y-65921346D01*
X141153252Y-64744825D01*
X140710747Y-64841087D01*
X140500576Y-64976155D01*
X140488980Y-64989537D01*
X140462132Y-64966273D01*
X140459360Y-64154250D01*
X141247933Y-64154250D01*
X141306188Y-64462126D01*
X141425564Y-64668893D01*
X141535829Y-64771203D01*
X141409252Y-64753004D01*
X141409252Y-65753249D01*
X142357976Y-65753249D01*
X142357976Y-65613702D01*
X142283914Y-65273245D01*
X142148846Y-65063073D01*
X142036804Y-64965988D01*
X142740750Y-64965988D01*
X142740750Y-64154250D01*
X141247933Y-64154250D01*
X140459360Y-64154250D01*
X140459195Y-64106025D01*
X140459362Y-64104927D01*
X140459000Y-64047768D01*
X140459000Y-63929784D01*
X140458238Y-63927440D01*
X140409112Y-56165466D01*
X140416423Y-56010323D01*
X140477404Y-55949343D01*
X140613532Y-55713561D01*
X140683998Y-55450580D01*
X140683998Y-55178324D01*
X140613532Y-54915343D01*
X140477404Y-54679561D01*
X140361986Y-54564144D01*
X140348521Y-54534326D01*
X140295737Y-54476322D01*
X140285183Y-54461795D01*
X140255581Y-54432194D01*
X140186704Y-54356504D01*
X140170850Y-54347462D01*
X139772046Y-53948659D01*
X139772045Y-53948657D01*
X139695887Y-53872499D01*
X140354750Y-53213636D01*
X140354750Y-53441493D01*
G36*
X151691000Y-64214387D02*
G01*
X151691000Y-64763036D01*
X151536449Y-64673806D01*
X151368925Y-64628918D01*
X151395474Y-64444263D01*
X151395474Y-64309250D01*
X150190750Y-64309250D01*
X150190750Y-64053250D01*
X151395474Y-64053250D01*
X151395474Y-64040250D01*
X151516863Y-64040250D01*
X151691000Y-64214387D01*
G37*
X151691000Y-64214387D02*
X151691000Y-64763036D01*
X151536449Y-64673806D01*
X151368925Y-64628918D01*
X151395474Y-64444263D01*
X151395474Y-64309250D01*
X150190750Y-64309250D01*
X150190750Y-64053250D01*
X151395474Y-64053250D01*
X151395474Y-64040250D01*
X151516863Y-64040250D01*
X151691000Y-64214387D01*
G36*
X128607406Y-55743176D02*
G01*
X128620788Y-55754772D01*
X128533743Y-55855227D01*
X128431878Y-56078281D01*
X128384255Y-56409500D01*
X129640500Y-56409500D01*
X129640500Y-57614224D01*
X129780047Y-57614224D01*
X130090663Y-57546654D01*
X130090663Y-57591588D01*
X130171295Y-57892512D01*
X130318685Y-58068165D01*
X130512314Y-58179956D01*
X130721476Y-58216837D01*
X131456876Y-58216837D01*
X131334302Y-58287605D01*
X131141787Y-58480120D01*
X131005659Y-58715902D01*
X130935193Y-58978883D01*
X130935193Y-59251139D01*
X131005659Y-59514120D01*
X131141787Y-59749902D01*
X131334302Y-59942417D01*
X131570084Y-60078545D01*
X131607102Y-60088464D01*
X131597196Y-60105622D01*
X131490469Y-60056881D01*
X131256763Y-60023279D01*
X131121750Y-60023279D01*
X131121750Y-61228003D01*
X129857326Y-61228003D01*
X129953588Y-61670508D01*
X130088656Y-61880679D01*
X130102038Y-61892275D01*
X130014993Y-61992730D01*
X129913128Y-62215784D01*
X129909502Y-62241000D01*
X129785587Y-62241000D01*
X129785587Y-62133412D01*
X129704955Y-61832489D01*
X129557565Y-61656835D01*
X129363936Y-61545044D01*
X129318166Y-61536973D01*
X129350557Y-61509455D01*
X129512271Y-61316391D01*
X129639143Y-61098840D01*
X129686691Y-60972003D01*
X129865505Y-60972003D01*
X130865750Y-60972003D01*
X130865750Y-60023279D01*
X130726203Y-60023279D01*
X130385746Y-60097341D01*
X130175574Y-60232409D01*
X130014993Y-60417730D01*
X129913128Y-60640784D01*
X129865505Y-60972003D01*
X129686691Y-60972003D01*
X129727546Y-60863022D01*
X129780258Y-60588000D01*
X128165750Y-60588000D01*
X128165750Y-60332000D01*
X128421750Y-60332000D01*
X129777315Y-60332000D01*
X129735672Y-60087094D01*
X129652227Y-59849476D01*
X129529938Y-59629315D01*
X129372304Y-59432907D01*
X129183830Y-59265866D01*
X128969906Y-59132969D01*
X128736649Y-59038016D01*
X128421750Y-58968492D01*
X128421750Y-60332000D01*
X128165750Y-60332000D01*
X128165750Y-58980590D01*
X127989181Y-59002112D01*
X127747897Y-59074272D01*
X127522220Y-59186053D01*
X127434000Y-59250267D01*
X127434000Y-58266163D01*
X127905052Y-57795111D01*
X127928821Y-57780114D01*
X127995137Y-57705026D01*
X128019913Y-57680251D01*
X128036140Y-57658599D01*
X128096443Y-57590321D01*
X128111754Y-57557707D01*
X128133361Y-57528878D01*
X128165338Y-57443576D01*
X128204222Y-57360756D01*
X128209418Y-57325994D01*
X128222245Y-57291776D01*
X128229875Y-57189115D01*
X128234000Y-57161513D01*
X128234000Y-57133605D01*
X128241011Y-57039258D01*
X128234000Y-57006414D01*
X128234000Y-56665500D01*
X128376076Y-56665500D01*
X128472338Y-57108005D01*
X128607406Y-57318176D01*
X128792727Y-57478757D01*
X129015781Y-57580622D01*
X129249487Y-57614224D01*
X129384500Y-57614224D01*
X129384500Y-56665500D01*
X128376076Y-56665500D01*
X128234000Y-56665500D01*
X128234000Y-55721500D01*
X128593476Y-55721500D01*
X128607406Y-55743176D01*
G37*
X128607406Y-55743176D02*
X128620788Y-55754772D01*
X128533743Y-55855227D01*
X128431878Y-56078281D01*
X128384255Y-56409500D01*
X129640500Y-56409500D01*
X129640500Y-57614224D01*
X129780047Y-57614224D01*
X130090663Y-57546654D01*
X130090663Y-57591588D01*
X130171295Y-57892512D01*
X130318685Y-58068165D01*
X130512314Y-58179956D01*
X130721476Y-58216837D01*
X131456876Y-58216837D01*
X131334302Y-58287605D01*
X131141787Y-58480120D01*
X131005659Y-58715902D01*
X130935193Y-58978883D01*
X130935193Y-59251139D01*
X131005659Y-59514120D01*
X131141787Y-59749902D01*
X131334302Y-59942417D01*
X131570084Y-60078545D01*
X131607102Y-60088464D01*
X131597196Y-60105622D01*
X131490469Y-60056881D01*
X131256763Y-60023279D01*
X131121750Y-60023279D01*
X131121750Y-61228003D01*
X129857326Y-61228003D01*
X129953588Y-61670508D01*
X130088656Y-61880679D01*
X130102038Y-61892275D01*
X130014993Y-61992730D01*
X129913128Y-62215784D01*
X129909502Y-62241000D01*
X129785587Y-62241000D01*
X129785587Y-62133412D01*
X129704955Y-61832489D01*
X129557565Y-61656835D01*
X129363936Y-61545044D01*
X129318166Y-61536973D01*
X129350557Y-61509455D01*
X129512271Y-61316391D01*
X129639143Y-61098840D01*
X129686691Y-60972003D01*
X129865505Y-60972003D01*
X130865750Y-60972003D01*
X130865750Y-60023279D01*
X130726203Y-60023279D01*
X130385746Y-60097341D01*
X130175574Y-60232409D01*
X130014993Y-60417730D01*
X129913128Y-60640784D01*
X129865505Y-60972003D01*
X129686691Y-60972003D01*
X129727546Y-60863022D01*
X129780258Y-60588000D01*
X128165750Y-60588000D01*
X128165750Y-60332000D01*
X128421750Y-60332000D01*
X129777315Y-60332000D01*
X129735672Y-60087094D01*
X129652227Y-59849476D01*
X129529938Y-59629315D01*
X129372304Y-59432907D01*
X129183830Y-59265866D01*
X128969906Y-59132969D01*
X128736649Y-59038016D01*
X128421750Y-58968492D01*
X128421750Y-60332000D01*
X128165750Y-60332000D01*
X128165750Y-58980590D01*
X127989181Y-59002112D01*
X127747897Y-59074272D01*
X127522220Y-59186053D01*
X127434000Y-59250267D01*
X127434000Y-58266163D01*
X127905052Y-57795111D01*
X127928821Y-57780114D01*
X127995137Y-57705026D01*
X128019913Y-57680251D01*
X128036140Y-57658599D01*
X128096443Y-57590321D01*
X128111754Y-57557707D01*
X128133361Y-57528878D01*
X128165338Y-57443576D01*
X128204222Y-57360756D01*
X128209418Y-57325994D01*
X128222245Y-57291776D01*
X128229875Y-57189115D01*
X128234000Y-57161513D01*
X128234000Y-57133605D01*
X128241011Y-57039258D01*
X128234000Y-57006414D01*
X128234000Y-56665500D01*
X128376076Y-56665500D01*
X128472338Y-57108005D01*
X128607406Y-57318176D01*
X128792727Y-57478757D01*
X129015781Y-57580622D01*
X129249487Y-57614224D01*
X129384500Y-57614224D01*
X129384500Y-56665500D01*
X128376076Y-56665500D01*
X128234000Y-56665500D01*
X128234000Y-55721500D01*
X128593476Y-55721500D01*
X128607406Y-55743176D01*
G36*
X147967362Y-54428251D02*
G01*
X147967369Y-54428257D01*
X148010810Y-54471698D01*
X148045266Y-54489254D01*
X147880585Y-54627436D01*
X147768794Y-54821065D01*
X147731913Y-55030227D01*
X147731913Y-55913251D01*
X149251750Y-55913251D01*
X149251750Y-56649251D01*
X147731913Y-56649251D01*
X147731913Y-57057839D01*
X147798655Y-57306924D01*
X147752752Y-57567251D01*
X148056900Y-57567251D01*
X147925586Y-57677436D01*
X147903753Y-57715251D01*
X147738707Y-57715251D01*
X147800563Y-57946103D01*
X147776913Y-58080228D01*
X147776913Y-58182251D01*
X147477750Y-58182251D01*
X147477750Y-57995123D01*
X147407284Y-57732142D01*
X147271156Y-57496360D01*
X147078641Y-57303845D01*
X146842859Y-57167717D01*
X146579878Y-57097251D01*
X146483134Y-57097251D01*
X146440439Y-57054555D01*
X146386550Y-57027097D01*
X146337621Y-56991548D01*
X146280103Y-56972859D01*
X146226217Y-56945403D01*
X146166480Y-56935942D01*
X146108960Y-56917252D01*
X145905112Y-56917253D01*
X145081132Y-56917253D01*
X146571999Y-55426386D01*
X146572002Y-55426382D01*
X146615445Y-55382939D01*
X146642900Y-55329057D01*
X146678452Y-55280124D01*
X146697142Y-55222603D01*
X146724598Y-55168717D01*
X146734059Y-55108980D01*
X146752748Y-55051463D01*
X146752748Y-54830992D01*
X146752749Y-53213636D01*
X147967362Y-54428251D01*
G37*
X147967362Y-54428251D02*
X147967369Y-54428257D01*
X148010810Y-54471698D01*
X148045266Y-54489254D01*
X147880585Y-54627436D01*
X147768794Y-54821065D01*
X147731913Y-55030227D01*
X147731913Y-55913251D01*
X149251750Y-55913251D01*
X149251750Y-56649251D01*
X147731913Y-56649251D01*
X147731913Y-57057839D01*
X147798655Y-57306924D01*
X147752752Y-57567251D01*
X148056900Y-57567251D01*
X147925586Y-57677436D01*
X147903753Y-57715251D01*
X147738707Y-57715251D01*
X147800563Y-57946103D01*
X147776913Y-58080228D01*
X147776913Y-58182251D01*
X147477750Y-58182251D01*
X147477750Y-57995123D01*
X147407284Y-57732142D01*
X147271156Y-57496360D01*
X147078641Y-57303845D01*
X146842859Y-57167717D01*
X146579878Y-57097251D01*
X146483134Y-57097251D01*
X146440439Y-57054555D01*
X146386550Y-57027097D01*
X146337621Y-56991548D01*
X146280103Y-56972859D01*
X146226217Y-56945403D01*
X146166480Y-56935942D01*
X146108960Y-56917252D01*
X145905112Y-56917253D01*
X145081132Y-56917253D01*
X146571999Y-55426386D01*
X146572002Y-55426382D01*
X146615445Y-55382939D01*
X146642900Y-55329057D01*
X146678452Y-55280124D01*
X146697142Y-55222603D01*
X146724598Y-55168717D01*
X146734059Y-55108980D01*
X146752748Y-55051463D01*
X146752748Y-54830992D01*
X146752749Y-53213636D01*
X147967362Y-54428251D01*
G36*
X136473598Y-57045487D02*
G01*
X136440356Y-57081313D01*
X136375735Y-57215500D01*
X135134500Y-57215500D01*
X135134500Y-56959500D01*
X136398924Y-56959500D01*
X136383791Y-56889936D01*
X136473598Y-57045487D01*
G37*
X136473598Y-57045487D02*
X136440356Y-57081313D01*
X136375735Y-57215500D01*
X135134500Y-57215500D01*
X135134500Y-56959500D01*
X136398924Y-56959500D01*
X136383791Y-56889936D01*
X136473598Y-57045487D01*
G36*
X151808001Y-43200139D02*
G01*
X152093023Y-43143445D01*
X152328217Y-43053398D01*
X152544878Y-42925009D01*
X152736808Y-42761952D01*
X152866002Y-42607713D01*
X152866002Y-48166215D01*
X152790350Y-48055935D01*
X152642772Y-47888248D01*
X150731019Y-49800000D01*
X152642449Y-51711429D01*
X152750207Y-51594442D01*
X152866002Y-51433592D01*
X152866001Y-55030484D01*
X152801825Y-54996720D01*
X152571275Y-54925132D01*
X152251750Y-54891549D01*
X152251750Y-56339251D01*
X151995750Y-56339251D01*
X151995750Y-54874414D01*
X151782509Y-54874414D01*
X151968176Y-54755094D01*
X152128757Y-54569773D01*
X152230622Y-54346719D01*
X152264224Y-54113013D01*
X152264224Y-53978000D01*
X151059500Y-53978000D01*
X151059500Y-53722000D01*
X151315500Y-53722000D01*
X152264224Y-53722000D01*
X152264224Y-53582453D01*
X152190162Y-53241996D01*
X152055094Y-53031824D01*
X151869773Y-52871243D01*
X151646719Y-52769378D01*
X151315500Y-52721755D01*
X151315500Y-53722000D01*
X151059500Y-53722000D01*
X151059500Y-52713576D01*
X150616995Y-52809838D01*
X150406824Y-52944906D01*
X150395228Y-52958288D01*
X150294773Y-52871243D01*
X150071719Y-52769378D01*
X149838013Y-52735776D01*
X149382453Y-52735776D01*
X149041996Y-52809838D01*
X148831824Y-52944906D01*
X148738499Y-53052610D01*
X147578320Y-51892431D01*
X148638589Y-51892431D01*
X148767102Y-52009571D01*
X149045465Y-52207759D01*
X149345623Y-52371071D01*
X149663225Y-52497140D01*
X149993674Y-52584140D01*
X150332181Y-52630810D01*
X150673843Y-52636476D01*
X151013711Y-52601054D01*
X151346862Y-52525058D01*
X151668471Y-52409588D01*
X151973878Y-52256319D01*
X152258659Y-52067468D01*
X152462586Y-51893606D01*
X150550000Y-49981019D01*
X148638589Y-51892431D01*
X147578320Y-51892431D01*
X147349231Y-51663343D01*
X147369852Y-51575424D01*
X147378129Y-51259362D01*
X147334084Y-51014576D01*
X147247969Y-50783018D01*
X147122209Y-50570369D01*
X146960779Y-50383352D01*
X146768784Y-50227878D01*
X146552291Y-50108859D01*
X146318142Y-50030059D01*
X146073740Y-49993969D01*
X145826810Y-50001729D01*
X145585156Y-50053094D01*
X145356417Y-50146441D01*
X145147824Y-50278818D01*
X144965970Y-50446042D01*
X144816602Y-50642827D01*
X144704443Y-50862952D01*
X144633036Y-51099460D01*
X144604642Y-51344875D01*
X144620154Y-51591440D01*
X144679084Y-51831361D01*
X144779569Y-52057054D01*
X144918434Y-52261386D01*
X145091287Y-52437899D01*
X145234750Y-52539853D01*
X145234749Y-54616862D01*
X144470333Y-55381279D01*
X144483488Y-55293998D01*
X144483488Y-54976129D01*
X144431312Y-54700374D01*
X144311936Y-54493607D01*
X144138687Y-54332856D01*
X143925755Y-54230313D01*
X143701498Y-54196512D01*
X143002402Y-54196512D01*
X141872750Y-53066863D01*
X141872750Y-52540626D01*
X142027229Y-52428390D01*
X142198224Y-52250078D01*
X142334941Y-52044303D01*
X142433057Y-51817569D01*
X142489852Y-51575424D01*
X142498129Y-51259362D01*
X142454084Y-51014576D01*
X142367969Y-50783018D01*
X142242209Y-50570369D01*
X142080779Y-50383352D01*
X141888784Y-50227878D01*
X141672291Y-50108859D01*
X141438142Y-50030059D01*
X141193740Y-49993969D01*
X140946810Y-50001729D01*
X140705156Y-50053094D01*
X140476417Y-50146441D01*
X140267824Y-50278818D01*
X140085970Y-50446042D01*
X139936602Y-50642827D01*
X139824443Y-50862952D01*
X139753036Y-51099460D01*
X139724642Y-51344875D01*
X139740154Y-51591440D01*
X139757905Y-51663708D01*
X138693114Y-52728500D01*
X137569024Y-52728500D01*
X137555094Y-52706824D01*
X137541712Y-52695228D01*
X137628757Y-52594773D01*
X137730622Y-52371719D01*
X137778245Y-52040500D01*
X135513576Y-52040500D01*
X135609838Y-52483005D01*
X135744906Y-52693176D01*
X135758288Y-52704772D01*
X135671243Y-52805227D01*
X135569378Y-53028281D01*
X135535776Y-53261987D01*
X135535776Y-53717547D01*
X135609838Y-54058004D01*
X135744906Y-54268176D01*
X135901624Y-54403973D01*
X135812079Y-54493518D01*
X135759219Y-54469378D01*
X135525513Y-54435776D01*
X134994953Y-54435776D01*
X134654496Y-54509838D01*
X134528204Y-54591000D01*
X134455959Y-54591000D01*
X134406315Y-54531836D01*
X134212686Y-54420044D01*
X134003524Y-54383163D01*
X133569050Y-54383163D01*
X131876430Y-52690544D01*
X132066493Y-52529074D01*
X132229688Y-52334240D01*
X132270198Y-52264776D01*
X132358848Y-52399475D01*
X132532341Y-52585199D01*
X132734646Y-52739035D01*
X132959979Y-52856585D01*
X133201896Y-52934490D01*
X133453481Y-52970519D01*
X133707540Y-52963645D01*
X133956807Y-52914062D01*
X134194157Y-52823190D01*
X134412803Y-52693625D01*
X134606493Y-52529074D01*
X134769688Y-52334240D01*
X134897723Y-52114695D01*
X134986937Y-51876715D01*
X135004611Y-51784500D01*
X135521755Y-51784500D01*
X136522000Y-51784500D01*
X136522000Y-50835776D01*
X136382453Y-50835776D01*
X136041996Y-50909838D01*
X135831824Y-51044906D01*
X135671243Y-51230227D01*
X135569378Y-51453281D01*
X135521755Y-51784500D01*
X135004611Y-51784500D01*
X135034893Y-51626509D01*
X135037842Y-51344832D01*
X134995137Y-51093676D01*
X134910927Y-50853881D01*
X134787518Y-50631703D01*
X134628438Y-50433494D01*
X134438237Y-50264922D01*
X134334129Y-50200246D01*
X134412803Y-50153625D01*
X134606493Y-49989074D01*
X134769688Y-49794240D01*
X134897723Y-49574695D01*
X134986937Y-49336715D01*
X135034893Y-49086509D01*
X135037406Y-48846500D01*
X136880976Y-48846500D01*
X136894906Y-48868176D01*
X137080227Y-49028757D01*
X137303281Y-49130622D01*
X137469595Y-49154534D01*
X137265109Y-49272594D01*
X137072594Y-49465109D01*
X136936466Y-49700891D01*
X136866000Y-49963872D01*
X136866000Y-50236128D01*
X136936466Y-50499109D01*
X137072594Y-50734891D01*
X137257818Y-50920115D01*
X137146719Y-50869378D01*
X136913013Y-50835776D01*
X136778000Y-50835776D01*
X136778000Y-51784500D01*
X137786424Y-51784500D01*
X137690162Y-51341995D01*
X137555094Y-51131824D01*
X137427149Y-51020959D01*
X137500891Y-51063534D01*
X137763872Y-51134000D01*
X138036128Y-51134000D01*
X138299109Y-51063534D01*
X138534891Y-50927406D01*
X138727406Y-50734891D01*
X138863534Y-50499109D01*
X138934000Y-50236128D01*
X138934000Y-50139386D01*
X139134693Y-49938693D01*
X147714212Y-49938693D01*
X147751413Y-50278371D01*
X147829152Y-50611120D01*
X147946304Y-50932119D01*
X148101170Y-51236720D01*
X148291509Y-51520509D01*
X148456726Y-51712254D01*
X150368981Y-49800000D01*
X148457531Y-47888551D01*
X148331125Y-48028695D01*
X148134396Y-48308092D01*
X147972658Y-48609101D01*
X147848254Y-48927360D01*
X147762986Y-49258259D01*
X147718088Y-49597006D01*
X147714212Y-49938693D01*
X139134693Y-49938693D01*
X139960363Y-49113024D01*
X140008005Y-49102660D01*
X140218176Y-48967592D01*
X140378757Y-48782271D01*
X140480622Y-48559217D01*
X140514224Y-48325511D01*
X140514224Y-48083990D01*
X140810603Y-48083990D01*
X141042411Y-48315799D01*
X141198308Y-48471696D01*
X141252194Y-48499152D01*
X141301123Y-48534701D01*
X141358640Y-48553389D01*
X141412530Y-48580848D01*
X141472273Y-48590310D01*
X141529784Y-48608997D01*
X141589748Y-48608997D01*
X141589754Y-48608998D01*
X144330976Y-48608998D01*
X144344906Y-48630674D01*
X144530227Y-48791255D01*
X144753281Y-48893120D01*
X144986987Y-48926722D01*
X145517548Y-48926722D01*
X145556049Y-48918346D01*
X145565109Y-48927406D01*
X145800891Y-49063534D01*
X146063872Y-49134000D01*
X146336128Y-49134000D01*
X146599109Y-49063534D01*
X146834891Y-48927406D01*
X147027406Y-48734891D01*
X147163534Y-48499109D01*
X147234000Y-48236128D01*
X147234000Y-47963872D01*
X147202547Y-47846488D01*
X147335253Y-47846488D01*
X147335259Y-47846487D01*
X147395223Y-47846487D01*
X147452734Y-47827800D01*
X147512477Y-47818338D01*
X147566367Y-47790879D01*
X147623884Y-47772191D01*
X147672813Y-47736642D01*
X147726699Y-47709186D01*
X147772597Y-47663287D01*
X147779814Y-47667454D01*
X147988976Y-47704335D01*
X148641091Y-47704335D01*
X148638025Y-47707005D01*
X150550000Y-49618981D01*
X152461541Y-47707439D01*
X152309663Y-47571881D01*
X152029240Y-47376617D01*
X151727388Y-47216458D01*
X151408482Y-47093722D01*
X151341263Y-47076776D01*
X151341837Y-47073521D01*
X151341837Y-46740498D01*
X150172000Y-46740498D01*
X150172000Y-45536027D01*
X150190312Y-45520661D01*
X150428000Y-45520661D01*
X150428000Y-46484498D01*
X151341837Y-46484498D01*
X151341837Y-46145910D01*
X151261205Y-45844987D01*
X151113815Y-45669333D01*
X150920186Y-45557542D01*
X150711024Y-45520661D01*
X150428000Y-45520661D01*
X150190312Y-45520661D01*
X150243165Y-45476313D01*
X150354956Y-45282684D01*
X150391837Y-45073522D01*
X150391837Y-44145910D01*
X150311205Y-43844987D01*
X150163815Y-43669333D01*
X149970186Y-43557542D01*
X149898999Y-43544990D01*
X149898999Y-42987751D01*
X150004878Y-42925009D01*
X150196808Y-42761952D01*
X150358522Y-42568888D01*
X150409502Y-42481472D01*
X150509576Y-42633530D01*
X150681494Y-42817568D01*
X150881961Y-42970007D01*
X151105247Y-43086489D01*
X151344967Y-43163687D01*
X151552001Y-43193336D01*
X151552001Y-41584497D01*
X151808001Y-41584497D01*
X151808001Y-43200139D01*
G37*
X151808001Y-43200139D02*
X152093023Y-43143445D01*
X152328217Y-43053398D01*
X152544878Y-42925009D01*
X152736808Y-42761952D01*
X152866002Y-42607713D01*
X152866002Y-48166215D01*
X152790350Y-48055935D01*
X152642772Y-47888248D01*
X150731019Y-49800000D01*
X152642449Y-51711429D01*
X152750207Y-51594442D01*
X152866002Y-51433592D01*
X152866001Y-55030484D01*
X152801825Y-54996720D01*
X152571275Y-54925132D01*
X152251750Y-54891549D01*
X152251750Y-56339251D01*
X151995750Y-56339251D01*
X151995750Y-54874414D01*
X151782509Y-54874414D01*
X151968176Y-54755094D01*
X152128757Y-54569773D01*
X152230622Y-54346719D01*
X152264224Y-54113013D01*
X152264224Y-53978000D01*
X151059500Y-53978000D01*
X151059500Y-53722000D01*
X151315500Y-53722000D01*
X152264224Y-53722000D01*
X152264224Y-53582453D01*
X152190162Y-53241996D01*
X152055094Y-53031824D01*
X151869773Y-52871243D01*
X151646719Y-52769378D01*
X151315500Y-52721755D01*
X151315500Y-53722000D01*
X151059500Y-53722000D01*
X151059500Y-52713576D01*
X150616995Y-52809838D01*
X150406824Y-52944906D01*
X150395228Y-52958288D01*
X150294773Y-52871243D01*
X150071719Y-52769378D01*
X149838013Y-52735776D01*
X149382453Y-52735776D01*
X149041996Y-52809838D01*
X148831824Y-52944906D01*
X148738499Y-53052610D01*
X147578320Y-51892431D01*
X148638589Y-51892431D01*
X148767102Y-52009571D01*
X149045465Y-52207759D01*
X149345623Y-52371071D01*
X149663225Y-52497140D01*
X149993674Y-52584140D01*
X150332181Y-52630810D01*
X150673843Y-52636476D01*
X151013711Y-52601054D01*
X151346862Y-52525058D01*
X151668471Y-52409588D01*
X151973878Y-52256319D01*
X152258659Y-52067468D01*
X152462586Y-51893606D01*
X150550000Y-49981019D01*
X148638589Y-51892431D01*
X147578320Y-51892431D01*
X147349231Y-51663343D01*
X147369852Y-51575424D01*
X147378129Y-51259362D01*
X147334084Y-51014576D01*
X147247969Y-50783018D01*
X147122209Y-50570369D01*
X146960779Y-50383352D01*
X146768784Y-50227878D01*
X146552291Y-50108859D01*
X146318142Y-50030059D01*
X146073740Y-49993969D01*
X145826810Y-50001729D01*
X145585156Y-50053094D01*
X145356417Y-50146441D01*
X145147824Y-50278818D01*
X144965970Y-50446042D01*
X144816602Y-50642827D01*
X144704443Y-50862952D01*
X144633036Y-51099460D01*
X144604642Y-51344875D01*
X144620154Y-51591440D01*
X144679084Y-51831361D01*
X144779569Y-52057054D01*
X144918434Y-52261386D01*
X145091287Y-52437899D01*
X145234750Y-52539853D01*
X145234749Y-54616862D01*
X144470333Y-55381279D01*
X144483488Y-55293998D01*
X144483488Y-54976129D01*
X144431312Y-54700374D01*
X144311936Y-54493607D01*
X144138687Y-54332856D01*
X143925755Y-54230313D01*
X143701498Y-54196512D01*
X143002402Y-54196512D01*
X141872750Y-53066863D01*
X141872750Y-52540626D01*
X142027229Y-52428390D01*
X142198224Y-52250078D01*
X142334941Y-52044303D01*
X142433057Y-51817569D01*
X142489852Y-51575424D01*
X142498129Y-51259362D01*
X142454084Y-51014576D01*
X142367969Y-50783018D01*
X142242209Y-50570369D01*
X142080779Y-50383352D01*
X141888784Y-50227878D01*
X141672291Y-50108859D01*
X141438142Y-50030059D01*
X141193740Y-49993969D01*
X140946810Y-50001729D01*
X140705156Y-50053094D01*
X140476417Y-50146441D01*
X140267824Y-50278818D01*
X140085970Y-50446042D01*
X139936602Y-50642827D01*
X139824443Y-50862952D01*
X139753036Y-51099460D01*
X139724642Y-51344875D01*
X139740154Y-51591440D01*
X139757905Y-51663708D01*
X138693114Y-52728500D01*
X137569024Y-52728500D01*
X137555094Y-52706824D01*
X137541712Y-52695228D01*
X137628757Y-52594773D01*
X137730622Y-52371719D01*
X137778245Y-52040500D01*
X135513576Y-52040500D01*
X135609838Y-52483005D01*
X135744906Y-52693176D01*
X135758288Y-52704772D01*
X135671243Y-52805227D01*
X135569378Y-53028281D01*
X135535776Y-53261987D01*
X135535776Y-53717547D01*
X135609838Y-54058004D01*
X135744906Y-54268176D01*
X135901624Y-54403973D01*
X135812079Y-54493518D01*
X135759219Y-54469378D01*
X135525513Y-54435776D01*
X134994953Y-54435776D01*
X134654496Y-54509838D01*
X134528204Y-54591000D01*
X134455959Y-54591000D01*
X134406315Y-54531836D01*
X134212686Y-54420044D01*
X134003524Y-54383163D01*
X133569050Y-54383163D01*
X131876430Y-52690544D01*
X132066493Y-52529074D01*
X132229688Y-52334240D01*
X132270198Y-52264776D01*
X132358848Y-52399475D01*
X132532341Y-52585199D01*
X132734646Y-52739035D01*
X132959979Y-52856585D01*
X133201896Y-52934490D01*
X133453481Y-52970519D01*
X133707540Y-52963645D01*
X133956807Y-52914062D01*
X134194157Y-52823190D01*
X134412803Y-52693625D01*
X134606493Y-52529074D01*
X134769688Y-52334240D01*
X134897723Y-52114695D01*
X134986937Y-51876715D01*
X135004611Y-51784500D01*
X135521755Y-51784500D01*
X136522000Y-51784500D01*
X136522000Y-50835776D01*
X136382453Y-50835776D01*
X136041996Y-50909838D01*
X135831824Y-51044906D01*
X135671243Y-51230227D01*
X135569378Y-51453281D01*
X135521755Y-51784500D01*
X135004611Y-51784500D01*
X135034893Y-51626509D01*
X135037842Y-51344832D01*
X134995137Y-51093676D01*
X134910927Y-50853881D01*
X134787518Y-50631703D01*
X134628438Y-50433494D01*
X134438237Y-50264922D01*
X134334129Y-50200246D01*
X134412803Y-50153625D01*
X134606493Y-49989074D01*
X134769688Y-49794240D01*
X134897723Y-49574695D01*
X134986937Y-49336715D01*
X135034893Y-49086509D01*
X135037406Y-48846500D01*
X136880976Y-48846500D01*
X136894906Y-48868176D01*
X137080227Y-49028757D01*
X137303281Y-49130622D01*
X137469595Y-49154534D01*
X137265109Y-49272594D01*
X137072594Y-49465109D01*
X136936466Y-49700891D01*
X136866000Y-49963872D01*
X136866000Y-50236128D01*
X136936466Y-50499109D01*
X137072594Y-50734891D01*
X137257818Y-50920115D01*
X137146719Y-50869378D01*
X136913013Y-50835776D01*
X136778000Y-50835776D01*
X136778000Y-51784500D01*
X137786424Y-51784500D01*
X137690162Y-51341995D01*
X137555094Y-51131824D01*
X137427149Y-51020959D01*
X137500891Y-51063534D01*
X137763872Y-51134000D01*
X138036128Y-51134000D01*
X138299109Y-51063534D01*
X138534891Y-50927406D01*
X138727406Y-50734891D01*
X138863534Y-50499109D01*
X138934000Y-50236128D01*
X138934000Y-50139386D01*
X139134693Y-49938693D01*
X147714212Y-49938693D01*
X147751413Y-50278371D01*
X147829152Y-50611120D01*
X147946304Y-50932119D01*
X148101170Y-51236720D01*
X148291509Y-51520509D01*
X148456726Y-51712254D01*
X150368981Y-49800000D01*
X148457531Y-47888551D01*
X148331125Y-48028695D01*
X148134396Y-48308092D01*
X147972658Y-48609101D01*
X147848254Y-48927360D01*
X147762986Y-49258259D01*
X147718088Y-49597006D01*
X147714212Y-49938693D01*
X139134693Y-49938693D01*
X139960363Y-49113024D01*
X140008005Y-49102660D01*
X140218176Y-48967592D01*
X140378757Y-48782271D01*
X140480622Y-48559217D01*
X140514224Y-48325511D01*
X140514224Y-48083990D01*
X140810603Y-48083990D01*
X141042411Y-48315799D01*
X141198308Y-48471696D01*
X141252194Y-48499152D01*
X141301123Y-48534701D01*
X141358640Y-48553389D01*
X141412530Y-48580848D01*
X141472273Y-48590310D01*
X141529784Y-48608997D01*
X141589748Y-48608997D01*
X141589754Y-48608998D01*
X144330976Y-48608998D01*
X144344906Y-48630674D01*
X144530227Y-48791255D01*
X144753281Y-48893120D01*
X144986987Y-48926722D01*
X145517548Y-48926722D01*
X145556049Y-48918346D01*
X145565109Y-48927406D01*
X145800891Y-49063534D01*
X146063872Y-49134000D01*
X146336128Y-49134000D01*
X146599109Y-49063534D01*
X146834891Y-48927406D01*
X147027406Y-48734891D01*
X147163534Y-48499109D01*
X147234000Y-48236128D01*
X147234000Y-47963872D01*
X147202547Y-47846488D01*
X147335253Y-47846488D01*
X147335259Y-47846487D01*
X147395223Y-47846487D01*
X147452734Y-47827800D01*
X147512477Y-47818338D01*
X147566367Y-47790879D01*
X147623884Y-47772191D01*
X147672813Y-47736642D01*
X147726699Y-47709186D01*
X147772597Y-47663287D01*
X147779814Y-47667454D01*
X147988976Y-47704335D01*
X148641091Y-47704335D01*
X148638025Y-47707005D01*
X150550000Y-49618981D01*
X152461541Y-47707439D01*
X152309663Y-47571881D01*
X152029240Y-47376617D01*
X151727388Y-47216458D01*
X151408482Y-47093722D01*
X151341263Y-47076776D01*
X151341837Y-47073521D01*
X151341837Y-46740498D01*
X150172000Y-46740498D01*
X150172000Y-45536027D01*
X150190312Y-45520661D01*
X150428000Y-45520661D01*
X150428000Y-46484498D01*
X151341837Y-46484498D01*
X151341837Y-46145910D01*
X151261205Y-45844987D01*
X151113815Y-45669333D01*
X150920186Y-45557542D01*
X150711024Y-45520661D01*
X150428000Y-45520661D01*
X150190312Y-45520661D01*
X150243165Y-45476313D01*
X150354956Y-45282684D01*
X150391837Y-45073522D01*
X150391837Y-44145910D01*
X150311205Y-43844987D01*
X150163815Y-43669333D01*
X149970186Y-43557542D01*
X149898999Y-43544990D01*
X149898999Y-42987751D01*
X150004878Y-42925009D01*
X150196808Y-42761952D01*
X150358522Y-42568888D01*
X150409502Y-42481472D01*
X150509576Y-42633530D01*
X150681494Y-42817568D01*
X150881961Y-42970007D01*
X151105247Y-43086489D01*
X151344967Y-43163687D01*
X151552001Y-43193336D01*
X151552001Y-41584497D01*
X151808001Y-41584497D01*
X151808001Y-43200139D01*
G36*
X129818848Y-52399475D02*
G01*
X129992341Y-52585199D01*
X130194647Y-52739035D01*
X130241001Y-52763217D01*
X130241001Y-53007713D01*
X130259690Y-53065232D01*
X130269151Y-53124967D01*
X130296608Y-53178855D01*
X130315297Y-53236375D01*
X130350849Y-53285306D01*
X130378303Y-53339190D01*
X131422277Y-54383163D01*
X131369050Y-54383163D01*
X131326690Y-54340803D01*
X131272801Y-54313344D01*
X131223873Y-54277796D01*
X131166359Y-54259110D01*
X131112468Y-54231650D01*
X131052726Y-54222188D01*
X130995213Y-54203501D01*
X130935250Y-54203501D01*
X130935244Y-54203500D01*
X130431524Y-54203500D01*
X130417594Y-54181824D01*
X130232273Y-54021243D01*
X130009219Y-53919378D01*
X129775513Y-53885776D01*
X129244953Y-53885776D01*
X128904496Y-53959838D01*
X128694324Y-54094906D01*
X128600227Y-54203500D01*
X128234000Y-54203500D01*
X128234000Y-53498983D01*
X128303281Y-53530622D01*
X128536987Y-53564224D01*
X128672000Y-53564224D01*
X128672000Y-52615500D01*
X128928000Y-52615500D01*
X128928000Y-53564224D01*
X129067547Y-53564224D01*
X129408004Y-53490162D01*
X129618176Y-53355094D01*
X129778757Y-53169773D01*
X129880622Y-52946719D01*
X129928245Y-52615500D01*
X128928000Y-52615500D01*
X128672000Y-52615500D01*
X128672000Y-52359500D01*
X129792539Y-52359500D01*
X129818848Y-52399475D01*
G37*
X129818848Y-52399475D02*
X129992341Y-52585199D01*
X130194647Y-52739035D01*
X130241001Y-52763217D01*
X130241001Y-53007713D01*
X130259690Y-53065232D01*
X130269151Y-53124967D01*
X130296608Y-53178855D01*
X130315297Y-53236375D01*
X130350849Y-53285306D01*
X130378303Y-53339190D01*
X131422277Y-54383163D01*
X131369050Y-54383163D01*
X131326690Y-54340803D01*
X131272801Y-54313344D01*
X131223873Y-54277796D01*
X131166359Y-54259110D01*
X131112468Y-54231650D01*
X131052726Y-54222188D01*
X130995213Y-54203501D01*
X130935250Y-54203501D01*
X130935244Y-54203500D01*
X130431524Y-54203500D01*
X130417594Y-54181824D01*
X130232273Y-54021243D01*
X130009219Y-53919378D01*
X129775513Y-53885776D01*
X129244953Y-53885776D01*
X128904496Y-53959838D01*
X128694324Y-54094906D01*
X128600227Y-54203500D01*
X128234000Y-54203500D01*
X128234000Y-53498983D01*
X128303281Y-53530622D01*
X128536987Y-53564224D01*
X128672000Y-53564224D01*
X128672000Y-52615500D01*
X128928000Y-52615500D01*
X128928000Y-53564224D01*
X129067547Y-53564224D01*
X129408004Y-53490162D01*
X129618176Y-53355094D01*
X129778757Y-53169773D01*
X129880622Y-52946719D01*
X129928245Y-52615500D01*
X128928000Y-52615500D01*
X128672000Y-52615500D01*
X128672000Y-52359500D01*
X129792539Y-52359500D01*
X129818848Y-52399475D01*
G36*
X144019378Y-43915779D02*
G01*
X143985776Y-44149485D01*
X143985776Y-44680045D01*
X144059838Y-45020502D01*
X144194906Y-45230674D01*
X144380227Y-45391255D01*
X144427221Y-45412716D01*
X144290581Y-45570407D01*
X144163816Y-45419333D01*
X143970187Y-45307542D01*
X143761025Y-45270661D01*
X143478001Y-45270661D01*
X143478001Y-46378498D01*
X143222001Y-46378499D01*
X143222001Y-45286027D01*
X143293166Y-45226313D01*
X143404957Y-45032684D01*
X143441838Y-44823522D01*
X143441838Y-43896499D01*
X143850969Y-43896499D01*
X143878376Y-43902701D01*
X143978337Y-43896499D01*
X144013399Y-43896499D01*
X144029218Y-43894233D01*
X144019378Y-43915779D01*
G37*
X144019378Y-43915779D02*
X143985776Y-44149485D01*
X143985776Y-44680045D01*
X144059838Y-45020502D01*
X144194906Y-45230674D01*
X144380227Y-45391255D01*
X144427221Y-45412716D01*
X144290581Y-45570407D01*
X144163816Y-45419333D01*
X143970187Y-45307542D01*
X143761025Y-45270661D01*
X143478001Y-45270661D01*
X143478001Y-46378498D01*
X143222001Y-46378499D01*
X143222001Y-45286027D01*
X143293166Y-45226313D01*
X143404957Y-45032684D01*
X143441838Y-44823522D01*
X143441838Y-43896499D01*
X143850969Y-43896499D01*
X143878376Y-43902701D01*
X143978337Y-43896499D01*
X144013399Y-43896499D01*
X144029218Y-43894233D01*
X144019378Y-43915779D01*
G36*
X136438796Y-42880010D02*
G01*
X136586186Y-43055663D01*
X136779815Y-43167454D01*
X136988977Y-43204335D01*
X137091000Y-43204335D01*
X137091000Y-43648273D01*
X136832453Y-43648273D01*
X136491996Y-43722335D01*
X136281824Y-43857403D01*
X136121243Y-44042724D01*
X136019378Y-44265778D01*
X135985776Y-44499484D01*
X135985776Y-45030044D01*
X136059838Y-45370501D01*
X136194906Y-45580673D01*
X136380227Y-45741254D01*
X136603281Y-45843119D01*
X136802288Y-45871732D01*
X136719378Y-46053281D01*
X136688868Y-46265481D01*
X135173446Y-44750060D01*
X135173444Y-44750056D01*
X135003089Y-44579702D01*
X134949200Y-44552243D01*
X134900272Y-44516695D01*
X134887343Y-44512494D01*
X134897723Y-44494695D01*
X134986937Y-44256715D01*
X135040358Y-43978000D01*
X133412000Y-43978000D01*
X133412000Y-43722000D01*
X135037361Y-43722000D01*
X134995137Y-43473676D01*
X134910927Y-43233881D01*
X134787518Y-43011703D01*
X134628438Y-42813494D01*
X134438237Y-42644922D01*
X134360290Y-42596498D01*
X136362830Y-42596498D01*
X136438796Y-42880010D01*
G37*
X136438796Y-42880010D02*
X136586186Y-43055663D01*
X136779815Y-43167454D01*
X136988977Y-43204335D01*
X137091000Y-43204335D01*
X137091000Y-43648273D01*
X136832453Y-43648273D01*
X136491996Y-43722335D01*
X136281824Y-43857403D01*
X136121243Y-44042724D01*
X136019378Y-44265778D01*
X135985776Y-44499484D01*
X135985776Y-45030044D01*
X136059838Y-45370501D01*
X136194906Y-45580673D01*
X136380227Y-45741254D01*
X136603281Y-45843119D01*
X136802288Y-45871732D01*
X136719378Y-46053281D01*
X136688868Y-46265481D01*
X135173446Y-44750060D01*
X135173444Y-44750056D01*
X135003089Y-44579702D01*
X134949200Y-44552243D01*
X134900272Y-44516695D01*
X134887343Y-44512494D01*
X134897723Y-44494695D01*
X134986937Y-44256715D01*
X135040358Y-43978000D01*
X133412000Y-43978000D01*
X133412000Y-43722000D01*
X135037361Y-43722000D01*
X134995137Y-43473676D01*
X134910927Y-43233881D01*
X134787518Y-43011703D01*
X134628438Y-42813494D01*
X134438237Y-42644922D01*
X134360290Y-42596498D01*
X136362830Y-42596498D01*
X136438796Y-42880010D01*
G36*
X138817388Y-43567552D02*
G01*
X138832385Y-43591321D01*
X138903454Y-43654087D01*
X138765500Y-43634252D01*
X138765500Y-44634497D01*
X139714224Y-44634497D01*
X139714224Y-44494950D01*
X139640162Y-44154493D01*
X139505094Y-43944321D01*
X139449679Y-43896304D01*
X139450986Y-43896499D01*
X139478894Y-43896499D01*
X139573241Y-43903510D01*
X139606085Y-43896499D01*
X140654471Y-43896499D01*
X140536466Y-44100891D01*
X140535825Y-44103283D01*
X139714224Y-44924886D01*
X139714224Y-44890497D01*
X138509500Y-44890497D01*
X138509500Y-44796060D01*
X138534702Y-44761373D01*
X138553391Y-44703854D01*
X138580848Y-44649966D01*
X138590309Y-44590231D01*
X138608998Y-44532712D01*
X138608998Y-44312241D01*
X138608999Y-43359163D01*
X138817388Y-43567552D01*
G37*
X138817388Y-43567552D02*
X138832385Y-43591321D01*
X138903454Y-43654087D01*
X138765500Y-43634252D01*
X138765500Y-44634497D01*
X139714224Y-44634497D01*
X139714224Y-44494950D01*
X139640162Y-44154493D01*
X139505094Y-43944321D01*
X139449679Y-43896304D01*
X139450986Y-43896499D01*
X139478894Y-43896499D01*
X139573241Y-43903510D01*
X139606085Y-43896499D01*
X140654471Y-43896499D01*
X140536466Y-44100891D01*
X140535825Y-44103283D01*
X139714224Y-44924886D01*
X139714224Y-44890497D01*
X138509500Y-44890497D01*
X138509500Y-44796060D01*
X138534702Y-44761373D01*
X138553391Y-44703854D01*
X138580848Y-44649966D01*
X138590309Y-44590231D01*
X138608998Y-44532712D01*
X138608998Y-44312241D01*
X138608999Y-43359163D01*
X138817388Y-43567552D01*
G36*
X148141494Y-42817568D02*
G01*
X148341961Y-42970007D01*
X148380999Y-42990372D01*
X148381000Y-43853498D01*
X147799690Y-43853499D01*
X147799687Y-43853498D01*
X147650823Y-43853498D01*
X147640162Y-43804493D01*
X147505094Y-43594322D01*
X147319773Y-43433741D01*
X147178953Y-43369431D01*
X147221696Y-43326688D01*
X147249151Y-43272806D01*
X147284703Y-43223873D01*
X147291052Y-43204334D01*
X147466589Y-43204334D01*
X147767513Y-43123702D01*
X147943166Y-42976312D01*
X148054957Y-42782683D01*
X148063523Y-42734101D01*
X148141494Y-42817568D01*
G37*
X148141494Y-42817568D02*
X148341961Y-42970007D01*
X148380999Y-42990372D01*
X148381000Y-43853498D01*
X147799690Y-43853499D01*
X147799687Y-43853498D01*
X147650823Y-43853498D01*
X147640162Y-43804493D01*
X147505094Y-43594322D01*
X147319773Y-43433741D01*
X147178953Y-43369431D01*
X147221696Y-43326688D01*
X147249151Y-43272806D01*
X147284703Y-43223873D01*
X147291052Y-43204334D01*
X147466589Y-43204334D01*
X147767513Y-43123702D01*
X147943166Y-42976312D01*
X148054957Y-42782683D01*
X148063523Y-42734101D01*
X148141494Y-42817568D01*
M02*
