G04 #@! TF.GenerationSoftware,KiCad,Pcbnew,(5.99.0-286-g11f0acefe)*
G04 #@! TF.CreationDate,2019-12-02T23:07:15-05:00*
G04 #@! TF.ProjectId,Controller,436f6e74-726f-46c6-9c65-722e6b696361,rev?*
G04 #@! TF.SameCoordinates,Original*
G04 #@! TF.FileFunction,Legend,Bot*
G04 #@! TF.FilePolarity,Positive*
%FSLAX46Y46*%
G04 Gerber Fmt 4.6, Leading zero omitted, Abs format (unit mm)*
G04 Created by KiCad (PCBNEW (5.99.0-286-g11f0acefe)) date 2019-12-02 23:07:15*
%MOMM*%
%LPD*%
G04 APERTURE LIST*
%ADD10C,0.150000*%
%ADD11C,0.250000*%
%ADD12C,0.300000*%
%ADD13C,0.120000*%
G04 APERTURE END LIST*
D10*
X138500000Y-43751000D02*
X138557142Y-43722428D01*
X138642857Y-43722428D01*
X138728571Y-43751000D01*
X138785714Y-43808142D01*
X138814285Y-43865285D01*
X138842857Y-43979571D01*
X138842857Y-44065285D01*
X138814285Y-44179571D01*
X138785714Y-44236714D01*
X138728571Y-44293857D01*
X138642857Y-44322428D01*
X138585714Y-44322428D01*
X138500000Y-44293857D01*
X138471428Y-44265285D01*
X138471428Y-44065285D01*
X138585714Y-44065285D01*
X138214285Y-44322428D02*
X138214285Y-43722428D01*
X137871428Y-44322428D01*
X137871428Y-43722428D01*
X137585714Y-44322428D02*
X137585714Y-43722428D01*
X137442857Y-43722428D01*
X137357142Y-43751000D01*
X137300000Y-43808142D01*
X137271428Y-43865285D01*
X137242857Y-43979571D01*
X137242857Y-44065285D01*
X137271428Y-44179571D01*
X137300000Y-44236714D01*
X137357142Y-44293857D01*
X137442857Y-44322428D01*
X137585714Y-44322428D01*
X136614285Y-43722428D02*
X136271428Y-43722428D01*
X136442857Y-44322428D02*
X136442857Y-43722428D01*
X136128571Y-43722428D02*
X135728571Y-44322428D01*
X135728571Y-43722428D02*
X136128571Y-44322428D01*
X135500000Y-44322428D02*
X135500000Y-43722428D01*
X135357142Y-43722428D01*
X135271428Y-43751000D01*
X135214285Y-43808142D01*
X135185714Y-43865285D01*
X135157142Y-43979571D01*
X135157142Y-44065285D01*
X135185714Y-44179571D01*
X135214285Y-44236714D01*
X135271428Y-44293857D01*
X135357142Y-44322428D01*
X135500000Y-44322428D01*
X139457142Y-45288428D02*
X139457142Y-44688428D01*
X139314285Y-44688428D01*
X139228571Y-44717000D01*
X139171428Y-44774142D01*
X139142857Y-44831285D01*
X139114285Y-44945571D01*
X139114285Y-45031285D01*
X139142857Y-45145571D01*
X139171428Y-45202714D01*
X139228571Y-45259857D01*
X139314285Y-45288428D01*
X139457142Y-45288428D01*
X138742857Y-44688428D02*
X138628571Y-44688428D01*
X138571428Y-44717000D01*
X138514285Y-44774142D01*
X138485714Y-44888428D01*
X138485714Y-45088428D01*
X138514285Y-45202714D01*
X138571428Y-45259857D01*
X138628571Y-45288428D01*
X138742857Y-45288428D01*
X138800000Y-45259857D01*
X138857142Y-45202714D01*
X138885714Y-45088428D01*
X138885714Y-44888428D01*
X138857142Y-44774142D01*
X138800000Y-44717000D01*
X138742857Y-44688428D01*
X138228571Y-44688428D02*
X138228571Y-45174142D01*
X138200000Y-45231285D01*
X138171428Y-45259857D01*
X138114285Y-45288428D01*
X138000000Y-45288428D01*
X137942857Y-45259857D01*
X137914285Y-45231285D01*
X137885714Y-45174142D01*
X137885714Y-44688428D01*
X137685714Y-44688428D02*
X137342857Y-44688428D01*
X137514285Y-45288428D02*
X137514285Y-44688428D01*
X136342857Y-45231285D02*
X136371428Y-45259857D01*
X136457142Y-45288428D01*
X136514285Y-45288428D01*
X136600000Y-45259857D01*
X136657142Y-45202714D01*
X136685714Y-45145571D01*
X136714285Y-45031285D01*
X136714285Y-44945571D01*
X136685714Y-44831285D01*
X136657142Y-44774142D01*
X136600000Y-44717000D01*
X136514285Y-44688428D01*
X136457142Y-44688428D01*
X136371428Y-44717000D01*
X136342857Y-44745571D01*
X136085714Y-45288428D02*
X136085714Y-44688428D01*
X136085714Y-44974142D02*
X135742857Y-44974142D01*
X135742857Y-45288428D02*
X135742857Y-44688428D01*
X135457142Y-45288428D02*
X135457142Y-44688428D01*
X135228571Y-44688428D01*
X135171428Y-44717000D01*
X135142857Y-44745571D01*
X135114285Y-44802714D01*
X135114285Y-44888428D01*
X135142857Y-44945571D01*
X135171428Y-44974142D01*
X135228571Y-45002714D01*
X135457142Y-45002714D01*
X134857142Y-45288428D02*
X134857142Y-44688428D01*
X134714285Y-44688428D01*
X134628571Y-44717000D01*
X134571428Y-44774142D01*
X134542857Y-44831285D01*
X134514285Y-44945571D01*
X134514285Y-45031285D01*
X134542857Y-45145571D01*
X134571428Y-45202714D01*
X134628571Y-45259857D01*
X134714285Y-45288428D01*
X134857142Y-45288428D01*
X139014285Y-46225857D02*
X138928571Y-46254428D01*
X138785714Y-46254428D01*
X138728571Y-46225857D01*
X138700000Y-46197285D01*
X138671428Y-46140142D01*
X138671428Y-46083000D01*
X138700000Y-46025857D01*
X138728571Y-45997285D01*
X138785714Y-45968714D01*
X138900000Y-45940142D01*
X138957142Y-45911571D01*
X138985714Y-45883000D01*
X139014285Y-45825857D01*
X139014285Y-45768714D01*
X138985714Y-45711571D01*
X138957142Y-45683000D01*
X138900000Y-45654428D01*
X138757142Y-45654428D01*
X138671428Y-45683000D01*
X138414285Y-45940142D02*
X138214285Y-45940142D01*
X138128571Y-46254428D02*
X138414285Y-46254428D01*
X138414285Y-45654428D01*
X138128571Y-45654428D01*
X137585714Y-46254428D02*
X137871428Y-46254428D01*
X137871428Y-45654428D01*
X137271428Y-45654428D02*
X137214285Y-45654428D01*
X137157142Y-45683000D01*
X137128571Y-45711571D01*
X137100000Y-45768714D01*
X137071428Y-45883000D01*
X137071428Y-46025857D01*
X137100000Y-46140142D01*
X137128571Y-46197285D01*
X137157142Y-46225857D01*
X137214285Y-46254428D01*
X137271428Y-46254428D01*
X137328571Y-46225857D01*
X137357142Y-46197285D01*
X137385714Y-46140142D01*
X137414285Y-46025857D01*
X137414285Y-45883000D01*
X137385714Y-45768714D01*
X137357142Y-45711571D01*
X137328571Y-45683000D01*
X137271428Y-45654428D01*
X136014285Y-46254428D02*
X136214285Y-45968714D01*
X136357142Y-46254428D02*
X136357142Y-45654428D01*
X136128571Y-45654428D01*
X136071428Y-45683000D01*
X136042857Y-45711571D01*
X136014285Y-45768714D01*
X136014285Y-45854428D01*
X136042857Y-45911571D01*
X136071428Y-45940142D01*
X136128571Y-45968714D01*
X136357142Y-45968714D01*
X135785714Y-46225857D02*
X135700000Y-46254428D01*
X135557142Y-46254428D01*
X135500000Y-46225857D01*
X135471428Y-46197285D01*
X135442857Y-46140142D01*
X135442857Y-46083000D01*
X135471428Y-46025857D01*
X135500000Y-45997285D01*
X135557142Y-45968714D01*
X135671428Y-45940142D01*
X135728571Y-45911571D01*
X135757142Y-45883000D01*
X135785714Y-45825857D01*
X135785714Y-45768714D01*
X135757142Y-45711571D01*
X135728571Y-45683000D01*
X135671428Y-45654428D01*
X135528571Y-45654428D01*
X135442857Y-45683000D01*
X135271428Y-45654428D02*
X134928571Y-45654428D01*
X135100000Y-46254428D02*
X135100000Y-45654428D01*
X138542857Y-47220428D02*
X138742857Y-46934714D01*
X138885714Y-47220428D02*
X138885714Y-46620428D01*
X138657142Y-46620428D01*
X138600000Y-46649000D01*
X138571428Y-46677571D01*
X138542857Y-46734714D01*
X138542857Y-46820428D01*
X138571428Y-46877571D01*
X138600000Y-46906142D01*
X138657142Y-46934714D01*
X138885714Y-46934714D01*
X138342857Y-46620428D02*
X137942857Y-47220428D01*
X137942857Y-46620428D02*
X138342857Y-47220428D01*
X137714285Y-47220428D02*
X137714285Y-46620428D01*
X137571428Y-46620428D01*
X137485714Y-46649000D01*
X137428571Y-46706142D01*
X137400000Y-46763285D01*
X137371428Y-46877571D01*
X137371428Y-46963285D01*
X137400000Y-47077571D01*
X137428571Y-47134714D01*
X137485714Y-47191857D01*
X137571428Y-47220428D01*
X137714285Y-47220428D01*
X136342857Y-46649000D02*
X136400000Y-46620428D01*
X136485714Y-46620428D01*
X136571428Y-46649000D01*
X136628571Y-46706142D01*
X136657142Y-46763285D01*
X136685714Y-46877571D01*
X136685714Y-46963285D01*
X136657142Y-47077571D01*
X136628571Y-47134714D01*
X136571428Y-47191857D01*
X136485714Y-47220428D01*
X136428571Y-47220428D01*
X136342857Y-47191857D01*
X136314285Y-47163285D01*
X136314285Y-46963285D01*
X136428571Y-46963285D01*
X136057142Y-47220428D02*
X136057142Y-46620428D01*
X135714285Y-47220428D01*
X135714285Y-46620428D01*
X135428571Y-47220428D02*
X135428571Y-46620428D01*
X135285714Y-46620428D01*
X135200000Y-46649000D01*
X135142857Y-46706142D01*
X135114285Y-46763285D01*
X135085714Y-46877571D01*
X135085714Y-46963285D01*
X135114285Y-47077571D01*
X135142857Y-47134714D01*
X135200000Y-47191857D01*
X135285714Y-47220428D01*
X135428571Y-47220428D01*
D11*
X145976190Y-44251666D02*
X145500000Y-44251666D01*
X146071428Y-44537380D02*
X145738095Y-43537380D01*
X145404761Y-44537380D01*
X144738095Y-44013571D02*
X144595238Y-44061190D01*
X144547619Y-44108809D01*
X144500000Y-44204047D01*
X144500000Y-44346904D01*
X144547619Y-44442142D01*
X144595238Y-44489761D01*
X144690476Y-44537380D01*
X145071428Y-44537380D01*
X145071428Y-43537380D01*
X144738095Y-43537380D01*
X144642857Y-43585000D01*
X144595238Y-43632619D01*
X144547619Y-43727857D01*
X144547619Y-43823095D01*
X144595238Y-43918333D01*
X144642857Y-43965952D01*
X144738095Y-44013571D01*
X145071428Y-44013571D01*
X143547619Y-44537380D02*
X144119047Y-44537380D01*
X143833333Y-44537380D02*
X143833333Y-43537380D01*
X143928571Y-43680238D01*
X144023809Y-43775476D01*
X144119047Y-43823095D01*
X143261904Y-43537380D02*
X142690476Y-43537380D01*
X142976190Y-44537380D02*
X142976190Y-43537380D01*
X142071428Y-43537380D02*
X142071428Y-44251666D01*
X142119047Y-44394523D01*
X142214285Y-44489761D01*
X142357142Y-44537380D01*
X142452380Y-44537380D01*
X147571428Y-45623571D02*
X147238095Y-45623571D01*
X147095238Y-46147380D02*
X147571428Y-46147380D01*
X147571428Y-45147380D01*
X147095238Y-45147380D01*
X146761904Y-45480714D02*
X146523809Y-46147380D01*
X146285714Y-45480714D02*
X146523809Y-46147380D01*
X146619047Y-46385476D01*
X146666666Y-46433095D01*
X146761904Y-46480714D01*
X145523809Y-46099761D02*
X145619047Y-46147380D01*
X145809523Y-46147380D01*
X145904761Y-46099761D01*
X145952380Y-46004523D01*
X145952380Y-45623571D01*
X145904761Y-45528333D01*
X145809523Y-45480714D01*
X145619047Y-45480714D01*
X145523809Y-45528333D01*
X145476190Y-45623571D01*
X145476190Y-45718809D01*
X145952380Y-45814047D01*
X144714285Y-45623571D02*
X144571428Y-45671190D01*
X144523809Y-45718809D01*
X144476190Y-45814047D01*
X144476190Y-45956904D01*
X144523809Y-46052142D01*
X144571428Y-46099761D01*
X144666666Y-46147380D01*
X145047619Y-46147380D01*
X145047619Y-45147380D01*
X144714285Y-45147380D01*
X144619047Y-45195000D01*
X144571428Y-45242619D01*
X144523809Y-45337857D01*
X144523809Y-45433095D01*
X144571428Y-45528333D01*
X144619047Y-45575952D01*
X144714285Y-45623571D01*
X145047619Y-45623571D01*
X143619047Y-46147380D02*
X143619047Y-45623571D01*
X143666666Y-45528333D01*
X143761904Y-45480714D01*
X143952380Y-45480714D01*
X144047619Y-45528333D01*
X143619047Y-46099761D02*
X143714285Y-46147380D01*
X143952380Y-46147380D01*
X144047619Y-46099761D01*
X144095238Y-46004523D01*
X144095238Y-45909285D01*
X144047619Y-45814047D01*
X143952380Y-45766428D01*
X143714285Y-45766428D01*
X143619047Y-45718809D01*
X142714285Y-45480714D02*
X142714285Y-46147380D01*
X143142857Y-45480714D02*
X143142857Y-46004523D01*
X143095238Y-46099761D01*
X143000000Y-46147380D01*
X142857142Y-46147380D01*
X142761904Y-46099761D01*
X142714285Y-46052142D01*
X142238095Y-46147380D02*
X142238095Y-45147380D01*
X142238095Y-45528333D02*
X142142857Y-45480714D01*
X141952380Y-45480714D01*
X141857142Y-45528333D01*
X141809523Y-45575952D01*
X141761904Y-45671190D01*
X141761904Y-45956904D01*
X141809523Y-46052142D01*
X141857142Y-46099761D01*
X141952380Y-46147380D01*
X142142857Y-46147380D01*
X142238095Y-46099761D01*
X141190476Y-46147380D02*
X141285714Y-46099761D01*
X141333333Y-46004523D01*
X141333333Y-45147380D01*
X140428571Y-46099761D02*
X140523809Y-46147380D01*
X140714285Y-46147380D01*
X140809523Y-46099761D01*
X140857142Y-46004523D01*
X140857142Y-45623571D01*
X140809523Y-45528333D01*
X140714285Y-45480714D01*
X140523809Y-45480714D01*
X140428571Y-45528333D01*
X140380952Y-45623571D01*
X140380952Y-45718809D01*
X140857142Y-45814047D01*
X146904761Y-47662142D02*
X146952380Y-47709761D01*
X147095238Y-47757380D01*
X147190476Y-47757380D01*
X147333333Y-47709761D01*
X147428571Y-47614523D01*
X147476190Y-47519285D01*
X147523809Y-47328809D01*
X147523809Y-47185952D01*
X147476190Y-46995476D01*
X147428571Y-46900238D01*
X147333333Y-46805000D01*
X147190476Y-46757380D01*
X147095238Y-46757380D01*
X146952380Y-46805000D01*
X146904761Y-46852619D01*
X146333333Y-47757380D02*
X146428571Y-47709761D01*
X146476190Y-47662142D01*
X146523809Y-47566904D01*
X146523809Y-47281190D01*
X146476190Y-47185952D01*
X146428571Y-47138333D01*
X146333333Y-47090714D01*
X146190476Y-47090714D01*
X146095238Y-47138333D01*
X146047619Y-47185952D01*
X146000000Y-47281190D01*
X146000000Y-47566904D01*
X146047619Y-47662142D01*
X146095238Y-47709761D01*
X146190476Y-47757380D01*
X146333333Y-47757380D01*
X145571428Y-47090714D02*
X145571428Y-47757380D01*
X145571428Y-47185952D02*
X145523809Y-47138333D01*
X145428571Y-47090714D01*
X145285714Y-47090714D01*
X145190476Y-47138333D01*
X145142857Y-47233571D01*
X145142857Y-47757380D01*
X144809523Y-47090714D02*
X144428571Y-47090714D01*
X144666666Y-46757380D02*
X144666666Y-47614523D01*
X144619047Y-47709761D01*
X144523809Y-47757380D01*
X144428571Y-47757380D01*
X144095238Y-47757380D02*
X144095238Y-47090714D01*
X144095238Y-47281190D02*
X144047619Y-47185952D01*
X144000000Y-47138333D01*
X143904761Y-47090714D01*
X143809523Y-47090714D01*
X143333333Y-47757380D02*
X143428571Y-47709761D01*
X143476190Y-47662142D01*
X143523809Y-47566904D01*
X143523809Y-47281190D01*
X143476190Y-47185952D01*
X143428571Y-47138333D01*
X143333333Y-47090714D01*
X143190476Y-47090714D01*
X143095238Y-47138333D01*
X143047619Y-47185952D01*
X143000000Y-47281190D01*
X143000000Y-47566904D01*
X143047619Y-47662142D01*
X143095238Y-47709761D01*
X143190476Y-47757380D01*
X143333333Y-47757380D01*
X142428571Y-47757380D02*
X142523809Y-47709761D01*
X142571428Y-47614523D01*
X142571428Y-46757380D01*
X141904761Y-47757380D02*
X142000000Y-47709761D01*
X142047619Y-47614523D01*
X142047619Y-46757380D01*
X141142857Y-47709761D02*
X141238095Y-47757380D01*
X141428571Y-47757380D01*
X141523809Y-47709761D01*
X141571428Y-47614523D01*
X141571428Y-47233571D01*
X141523809Y-47138333D01*
X141428571Y-47090714D01*
X141238095Y-47090714D01*
X141142857Y-47138333D01*
X141095238Y-47233571D01*
X141095238Y-47328809D01*
X141571428Y-47424047D01*
X140666666Y-47757380D02*
X140666666Y-47090714D01*
X140666666Y-47281190D02*
X140619047Y-47185952D01*
X140571428Y-47138333D01*
X140476190Y-47090714D01*
X140380952Y-47090714D01*
X147261904Y-49367380D02*
X147595238Y-48891190D01*
X147833333Y-49367380D02*
X147833333Y-48367380D01*
X147452380Y-48367380D01*
X147357142Y-48415000D01*
X147309523Y-48462619D01*
X147261904Y-48557857D01*
X147261904Y-48700714D01*
X147309523Y-48795952D01*
X147357142Y-48843571D01*
X147452380Y-48891190D01*
X147833333Y-48891190D01*
X146452380Y-49319761D02*
X146547619Y-49367380D01*
X146738095Y-49367380D01*
X146833333Y-49319761D01*
X146880952Y-49224523D01*
X146880952Y-48843571D01*
X146833333Y-48748333D01*
X146738095Y-48700714D01*
X146547619Y-48700714D01*
X146452380Y-48748333D01*
X146404761Y-48843571D01*
X146404761Y-48938809D01*
X146880952Y-49034047D01*
X146071428Y-48700714D02*
X145833333Y-49367380D01*
X145595238Y-48700714D01*
X145023809Y-48367380D02*
X144928571Y-48367380D01*
X144833333Y-48415000D01*
X144785714Y-48462619D01*
X144738095Y-48557857D01*
X144690476Y-48748333D01*
X144690476Y-48986428D01*
X144738095Y-49176904D01*
X144785714Y-49272142D01*
X144833333Y-49319761D01*
X144928571Y-49367380D01*
X145023809Y-49367380D01*
X145119047Y-49319761D01*
X145166666Y-49272142D01*
X145214285Y-49176904D01*
X145261904Y-48986428D01*
X145261904Y-48748333D01*
X145214285Y-48557857D01*
X145166666Y-48462619D01*
X145119047Y-48415000D01*
X145023809Y-48367380D01*
X143547619Y-48462619D02*
X143500000Y-48415000D01*
X143404761Y-48367380D01*
X143166666Y-48367380D01*
X143071428Y-48415000D01*
X143023809Y-48462619D01*
X142976190Y-48557857D01*
X142976190Y-48653095D01*
X143023809Y-48795952D01*
X143595238Y-49367380D01*
X142976190Y-49367380D01*
X142357142Y-48367380D02*
X142261904Y-48367380D01*
X142166666Y-48415000D01*
X142119047Y-48462619D01*
X142071428Y-48557857D01*
X142023809Y-48748333D01*
X142023809Y-48986428D01*
X142071428Y-49176904D01*
X142119047Y-49272142D01*
X142166666Y-49319761D01*
X142261904Y-49367380D01*
X142357142Y-49367380D01*
X142452380Y-49319761D01*
X142500000Y-49272142D01*
X142547619Y-49176904D01*
X142595238Y-48986428D01*
X142595238Y-48748333D01*
X142547619Y-48557857D01*
X142500000Y-48462619D01*
X142452380Y-48415000D01*
X142357142Y-48367380D01*
X141071428Y-49367380D02*
X141642857Y-49367380D01*
X141357142Y-49367380D02*
X141357142Y-48367380D01*
X141452380Y-48510238D01*
X141547619Y-48605476D01*
X141642857Y-48653095D01*
X140595238Y-49367380D02*
X140404761Y-49367380D01*
X140309523Y-49319761D01*
X140261904Y-49272142D01*
X140166666Y-49129285D01*
X140119047Y-48938809D01*
X140119047Y-48557857D01*
X140166666Y-48462619D01*
X140214285Y-48415000D01*
X140309523Y-48367380D01*
X140500000Y-48367380D01*
X140595238Y-48415000D01*
X140642857Y-48462619D01*
X140690476Y-48557857D01*
X140690476Y-48795952D01*
X140642857Y-48891190D01*
X140595238Y-48938809D01*
X140500000Y-48986428D01*
X140309523Y-48986428D01*
X140214285Y-48938809D01*
X140166666Y-48891190D01*
X140119047Y-48795952D01*
D12*
X142214285Y-53607142D02*
X142000000Y-53678571D01*
X141642857Y-53678571D01*
X141500000Y-53607142D01*
X141428571Y-53535714D01*
X141357142Y-53392857D01*
X141357142Y-53250000D01*
X141428571Y-53107142D01*
X141500000Y-53035714D01*
X141642857Y-52964285D01*
X141928571Y-52892857D01*
X142071428Y-52821428D01*
X142142857Y-52750000D01*
X142214285Y-52607142D01*
X142214285Y-52464285D01*
X142142857Y-52321428D01*
X142071428Y-52250000D01*
X141928571Y-52178571D01*
X141571428Y-52178571D01*
X141357142Y-52250000D01*
X140714285Y-52892857D02*
X140214285Y-52892857D01*
X140000000Y-53678571D02*
X140714285Y-53678571D01*
X140714285Y-52178571D01*
X140000000Y-52178571D01*
X138642857Y-53678571D02*
X139357142Y-53678571D01*
X139357142Y-52178571D01*
X149178571Y-53678571D02*
X149678571Y-52964285D01*
X150035714Y-53678571D02*
X150035714Y-52178571D01*
X149464285Y-52178571D01*
X149321428Y-52250000D01*
X149250000Y-52321428D01*
X149178571Y-52464285D01*
X149178571Y-52678571D01*
X149250000Y-52821428D01*
X149321428Y-52892857D01*
X149464285Y-52964285D01*
X150035714Y-52964285D01*
X148535714Y-52892857D02*
X148035714Y-52892857D01*
X147821428Y-53678571D02*
X148535714Y-53678571D01*
X148535714Y-52178571D01*
X147821428Y-52178571D01*
X147250000Y-53607142D02*
X147035714Y-53678571D01*
X146678571Y-53678571D01*
X146535714Y-53607142D01*
X146464285Y-53535714D01*
X146392857Y-53392857D01*
X146392857Y-53250000D01*
X146464285Y-53107142D01*
X146535714Y-53035714D01*
X146678571Y-52964285D01*
X146964285Y-52892857D01*
X147107142Y-52821428D01*
X147178571Y-52750000D01*
X147250000Y-52607142D01*
X147250000Y-52464285D01*
X147178571Y-52321428D01*
X147107142Y-52250000D01*
X146964285Y-52178571D01*
X146607142Y-52178571D01*
X146392857Y-52250000D01*
X145750000Y-52892857D02*
X145250000Y-52892857D01*
X145035714Y-53678571D02*
X145750000Y-53678571D01*
X145750000Y-52178571D01*
X145035714Y-52178571D01*
X144607142Y-52178571D02*
X143750000Y-52178571D01*
X144178571Y-53678571D02*
X144178571Y-52178571D01*
D13*
X148580000Y-56120000D02*
X148550000Y-56120000D01*
X142120000Y-56120000D02*
X142150000Y-56120000D01*
X142120000Y-62580000D02*
X142150000Y-62580000D01*
X148550000Y-62580000D02*
X148580000Y-62580000D01*
X146650000Y-56120000D02*
X144050000Y-56120000D01*
X148580000Y-62580000D02*
X148580000Y-56120000D01*
X146650000Y-62580000D02*
X144050000Y-62580000D01*
X142120000Y-62580000D02*
X142120000Y-56120000D01*
X141880000Y-56020000D02*
X141850000Y-56020000D01*
X135420000Y-56020000D02*
X135450000Y-56020000D01*
X135420000Y-62480000D02*
X135450000Y-62480000D01*
X141850000Y-62480000D02*
X141880000Y-62480000D01*
X139950000Y-56020000D02*
X137350000Y-56020000D01*
X141880000Y-62480000D02*
X141880000Y-56020000D01*
X139950000Y-62480000D02*
X137350000Y-62480000D01*
X135420000Y-62480000D02*
X135420000Y-56020000D01*
X133687221Y-59610000D02*
X134012779Y-59610000D01*
X133687221Y-58590000D02*
X134012779Y-58590000D01*
X136912779Y-50640000D02*
X136587221Y-50640000D01*
X136912779Y-51660000D02*
X136587221Y-51660000D01*
X134650000Y-61535000D02*
X132365000Y-61535000D01*
X132365000Y-61535000D02*
X132365000Y-60065000D01*
X132365000Y-60065000D02*
X134650000Y-60065000D01*
X137550000Y-53535000D02*
X135265000Y-53535000D01*
X135265000Y-53535000D02*
X135265000Y-52065000D01*
X135265000Y-52065000D02*
X137550000Y-52065000D01*
D10*
X147285714Y-63904761D02*
X147142857Y-63952380D01*
X146904761Y-63952380D01*
X146809523Y-63904761D01*
X146761904Y-63857142D01*
X146714285Y-63761904D01*
X146714285Y-63666666D01*
X146761904Y-63571428D01*
X146809523Y-63523809D01*
X146904761Y-63476190D01*
X147095238Y-63428571D01*
X147190476Y-63380952D01*
X147238095Y-63333333D01*
X147285714Y-63238095D01*
X147285714Y-63142857D01*
X147238095Y-63047619D01*
X147190476Y-63000000D01*
X147095238Y-62952380D01*
X146857142Y-62952380D01*
X146714285Y-63000000D01*
X146380952Y-62952380D02*
X146142857Y-63952380D01*
X145952380Y-63238095D01*
X145761904Y-63952380D01*
X145523809Y-62952380D01*
X144619047Y-63952380D02*
X145190476Y-63952380D01*
X144904761Y-63952380D02*
X144904761Y-62952380D01*
X145000000Y-63095238D01*
X145095238Y-63190476D01*
X145190476Y-63238095D01*
X144000000Y-62952380D02*
X143904761Y-62952380D01*
X143809523Y-63000000D01*
X143761904Y-63047619D01*
X143714285Y-63142857D01*
X143666666Y-63333333D01*
X143666666Y-63571428D01*
X143714285Y-63761904D01*
X143761904Y-63857142D01*
X143809523Y-63904761D01*
X143904761Y-63952380D01*
X144000000Y-63952380D01*
X144095238Y-63904761D01*
X144142857Y-63857142D01*
X144190476Y-63761904D01*
X144238095Y-63571428D01*
X144238095Y-63333333D01*
X144190476Y-63142857D01*
X144142857Y-63047619D01*
X144095238Y-63000000D01*
X144000000Y-62952380D01*
X143285714Y-63047619D02*
X143238095Y-63000000D01*
X143142857Y-62952380D01*
X142904761Y-62952380D01*
X142809523Y-63000000D01*
X142761904Y-63047619D01*
X142714285Y-63142857D01*
X142714285Y-63238095D01*
X142761904Y-63380952D01*
X143333333Y-63952380D01*
X142714285Y-63952380D01*
X141285714Y-63904761D02*
X141142857Y-63952380D01*
X140904761Y-63952380D01*
X140809523Y-63904761D01*
X140761904Y-63857142D01*
X140714285Y-63761904D01*
X140714285Y-63666666D01*
X140761904Y-63571428D01*
X140809523Y-63523809D01*
X140904761Y-63476190D01*
X141095238Y-63428571D01*
X141190476Y-63380952D01*
X141238095Y-63333333D01*
X141285714Y-63238095D01*
X141285714Y-63142857D01*
X141238095Y-63047619D01*
X141190476Y-63000000D01*
X141095238Y-62952380D01*
X140857142Y-62952380D01*
X140714285Y-63000000D01*
X140380952Y-62952380D02*
X140142857Y-63952380D01*
X139952380Y-63238095D01*
X139761904Y-63952380D01*
X139523809Y-62952380D01*
X138619047Y-63952380D02*
X139190476Y-63952380D01*
X138904761Y-63952380D02*
X138904761Y-62952380D01*
X139000000Y-63095238D01*
X139095238Y-63190476D01*
X139190476Y-63238095D01*
X138000000Y-62952380D02*
X137904761Y-62952380D01*
X137809523Y-63000000D01*
X137761904Y-63047619D01*
X137714285Y-63142857D01*
X137666666Y-63333333D01*
X137666666Y-63571428D01*
X137714285Y-63761904D01*
X137761904Y-63857142D01*
X137809523Y-63904761D01*
X137904761Y-63952380D01*
X138000000Y-63952380D01*
X138095238Y-63904761D01*
X138142857Y-63857142D01*
X138190476Y-63761904D01*
X138238095Y-63571428D01*
X138238095Y-63333333D01*
X138190476Y-63142857D01*
X138142857Y-63047619D01*
X138095238Y-63000000D01*
X138000000Y-62952380D01*
X136714285Y-63952380D02*
X137285714Y-63952380D01*
X137000000Y-63952380D02*
X137000000Y-62952380D01*
X137095238Y-63095238D01*
X137190476Y-63190476D01*
X137285714Y-63238095D01*
X131619047Y-59452380D02*
X131952380Y-58976190D01*
X132190476Y-59452380D02*
X132190476Y-58452380D01*
X131809523Y-58452380D01*
X131714285Y-58500000D01*
X131666666Y-58547619D01*
X131619047Y-58642857D01*
X131619047Y-58785714D01*
X131666666Y-58880952D01*
X131714285Y-58928571D01*
X131809523Y-58976190D01*
X132190476Y-58976190D01*
X130666666Y-59452380D02*
X131238095Y-59452380D01*
X130952380Y-59452380D02*
X130952380Y-58452380D01*
X131047619Y-58595238D01*
X131142857Y-58690476D01*
X131238095Y-58738095D01*
X129714285Y-59452380D02*
X130285714Y-59452380D01*
X130000000Y-59452380D02*
X130000000Y-58452380D01*
X130095238Y-58595238D01*
X130190476Y-58690476D01*
X130285714Y-58738095D01*
X129333333Y-58547619D02*
X129285714Y-58500000D01*
X129190476Y-58452380D01*
X128952380Y-58452380D01*
X128857142Y-58500000D01*
X128809523Y-58547619D01*
X128761904Y-58642857D01*
X128761904Y-58738095D01*
X128809523Y-58880952D01*
X129380952Y-59452380D01*
X128761904Y-59452380D01*
X133619047Y-54452380D02*
X133952380Y-53976190D01*
X134190476Y-54452380D02*
X134190476Y-53452380D01*
X133809523Y-53452380D01*
X133714285Y-53500000D01*
X133666666Y-53547619D01*
X133619047Y-53642857D01*
X133619047Y-53785714D01*
X133666666Y-53880952D01*
X133714285Y-53928571D01*
X133809523Y-53976190D01*
X134190476Y-53976190D01*
X132666666Y-54452380D02*
X133238095Y-54452380D01*
X132952380Y-54452380D02*
X132952380Y-53452380D01*
X133047619Y-53595238D01*
X133142857Y-53690476D01*
X133238095Y-53738095D01*
X132047619Y-53452380D02*
X131952380Y-53452380D01*
X131857142Y-53500000D01*
X131809523Y-53547619D01*
X131761904Y-53642857D01*
X131714285Y-53833333D01*
X131714285Y-54071428D01*
X131761904Y-54261904D01*
X131809523Y-54357142D01*
X131857142Y-54404761D01*
X131952380Y-54452380D01*
X132047619Y-54452380D01*
X132142857Y-54404761D01*
X132190476Y-54357142D01*
X132238095Y-54261904D01*
X132285714Y-54071428D01*
X132285714Y-53833333D01*
X132238095Y-53642857D01*
X132190476Y-53547619D01*
X132142857Y-53500000D01*
X132047619Y-53452380D01*
X131333333Y-53547619D02*
X131285714Y-53500000D01*
X131190476Y-53452380D01*
X130952380Y-53452380D01*
X130857142Y-53500000D01*
X130809523Y-53547619D01*
X130761904Y-53642857D01*
X130761904Y-53738095D01*
X130809523Y-53880952D01*
X131380952Y-54452380D01*
X130761904Y-54452380D01*
X132190476Y-61452380D02*
X132190476Y-60452380D01*
X131952380Y-60452380D01*
X131809523Y-60500000D01*
X131714285Y-60595238D01*
X131666666Y-60690476D01*
X131619047Y-60880952D01*
X131619047Y-61023809D01*
X131666666Y-61214285D01*
X131714285Y-61309523D01*
X131809523Y-61404761D01*
X131952380Y-61452380D01*
X132190476Y-61452380D01*
X130666666Y-61452380D02*
X131238095Y-61452380D01*
X130952380Y-61452380D02*
X130952380Y-60452380D01*
X131047619Y-60595238D01*
X131142857Y-60690476D01*
X131238095Y-60738095D01*
X130047619Y-60452380D02*
X129952380Y-60452380D01*
X129857142Y-60500000D01*
X129809523Y-60547619D01*
X129761904Y-60642857D01*
X129714285Y-60833333D01*
X129714285Y-61071428D01*
X129761904Y-61261904D01*
X129809523Y-61357142D01*
X129857142Y-61404761D01*
X129952380Y-61452380D01*
X130047619Y-61452380D01*
X130142857Y-61404761D01*
X130190476Y-61357142D01*
X130238095Y-61261904D01*
X130285714Y-61071428D01*
X130285714Y-60833333D01*
X130238095Y-60642857D01*
X130190476Y-60547619D01*
X130142857Y-60500000D01*
X130047619Y-60452380D01*
X129333333Y-60547619D02*
X129285714Y-60500000D01*
X129190476Y-60452380D01*
X128952380Y-60452380D01*
X128857142Y-60500000D01*
X128809523Y-60547619D01*
X128761904Y-60642857D01*
X128761904Y-60738095D01*
X128809523Y-60880952D01*
X129380952Y-61452380D01*
X128761904Y-61452380D01*
X134190476Y-55952380D02*
X134190476Y-54952380D01*
X133952380Y-54952380D01*
X133809523Y-55000000D01*
X133714285Y-55095238D01*
X133666666Y-55190476D01*
X133619047Y-55380952D01*
X133619047Y-55523809D01*
X133666666Y-55714285D01*
X133714285Y-55809523D01*
X133809523Y-55904761D01*
X133952380Y-55952380D01*
X134190476Y-55952380D01*
X132666666Y-55952380D02*
X133238095Y-55952380D01*
X132952380Y-55952380D02*
X132952380Y-54952380D01*
X133047619Y-55095238D01*
X133142857Y-55190476D01*
X133238095Y-55238095D01*
X132047619Y-54952380D02*
X131952380Y-54952380D01*
X131857142Y-55000000D01*
X131809523Y-55047619D01*
X131761904Y-55142857D01*
X131714285Y-55333333D01*
X131714285Y-55571428D01*
X131761904Y-55761904D01*
X131809523Y-55857142D01*
X131857142Y-55904761D01*
X131952380Y-55952380D01*
X132047619Y-55952380D01*
X132142857Y-55904761D01*
X132190476Y-55857142D01*
X132238095Y-55761904D01*
X132285714Y-55571428D01*
X132285714Y-55333333D01*
X132238095Y-55142857D01*
X132190476Y-55047619D01*
X132142857Y-55000000D01*
X132047619Y-54952380D01*
X130761904Y-55952380D02*
X131333333Y-55952380D01*
X131047619Y-55952380D02*
X131047619Y-54952380D01*
X131142857Y-55095238D01*
X131238095Y-55190476D01*
X131333333Y-55238095D01*
M02*
