M48
; DRILL file {KiCad (5.99.0-286-g11f0acefe)} date Mon 02 Dec 2019 11:07:11 PM EST
; FORMAT={-:-/ absolute / metric / decimal}
; #@! TF.CreationDate,2019-12-02T23:07:11-05:00
; #@! TF.GenerationSoftware,Kicad,Pcbnew,(5.99.0-286-g11f0acefe)
; #@! TF.FileFunction,Plated,1,2,PTH
FMAT,2
METRIC
T1C0.400
T2C0.650
T3C0.700
T4C0.800
T5C1.000
T6C1.016
T7C2.200
%
G90
G05
T1
X128.6Y-56.05
X128.65Y-53.4
X130.412Y-56.3
X131.969Y-59.115
X133.012Y-56.3
X133.5Y-53.9
X135.0Y-63.95
X135.0Y-66.1
X136.0Y-49.0
X136.3Y-64.6
X137.9Y-50.1
X139.0Y-66.9
X139.075Y-51.9
X139.4Y-44.112
X139.65Y-55.314
X140.65Y-46.5
X140.9Y-55.275
X140.9Y-59.6
X141.205Y-49.205
X141.5Y-44.5
X142.5Y-53.0
X142.594Y-65.481
X142.6Y-45.562
X142.95Y-67.0
X143.8Y-49.2
X145.0Y-53.0
X145.594Y-62.881
X146.2Y-48.1
X146.444Y-58.131
X147.15Y-56.85
X147.2Y-65.5
X147.394Y-59.681
X147.45Y-43.612
X150.95Y-67.6
X151.137Y-65.637
X151.3Y-64.15
X152.1Y-67.5
X152.35Y-53.9
T4
X141.114Y-51.381
X145.994Y-51.381
T5
X146.6Y-41.712
X149.14Y-41.712
X151.68Y-41.712
X128.294Y-60.46
X128.294Y-63.0
X137.85Y-41.712
X140.39Y-41.712
X142.93Y-41.712
T6
X131.0Y-43.85
X131.0Y-46.39
X131.0Y-48.93
X131.0Y-51.47
X133.54Y-43.85
X133.54Y-46.39
X133.54Y-48.93
X133.54Y-51.47
T7
X131.75Y-66.4
X150.55Y-49.8
T2
G00X149.324Y-56.521
M15
G01X148.924Y-56.521
M16
G05
G00X149.324Y-61.361
M15
G01X148.924Y-61.361
M16
G05
T3
G00X152.374Y-56.211
M15
G01X151.874Y-56.211
M16
G05
G00X152.374Y-61.671
M15
G01X151.874Y-61.671
M16
G05
T0
M30
