G04 #@! TF.GenerationSoftware,KiCad,Pcbnew,(5.99.0-286-g11f0acefe)*
G04 #@! TF.CreationDate,2020-01-02T20:44:45-05:00*
G04 #@! TF.ProjectId,output3,6f757470-7574-4332-9e6b-696361645f70,rev?*
G04 #@! TF.SameCoordinates,Original*
G04 #@! TF.FileFunction,Soldermask,Top*
G04 #@! TF.FilePolarity,Negative*
%FSLAX46Y46*%
G04 Gerber Fmt 4.6, Leading zero omitted, Abs format (unit mm)*
G04 Created by KiCad (PCBNEW (5.99.0-286-g11f0acefe)) date 2020-01-02 20:44:45*
%MOMM*%
%LPD*%
G04 APERTURE LIST*
%ADD10C,0.050000*%
%ADD11C,0.100000*%
G04 APERTURE END LIST*
D10*
X93750000Y-45080000D02*
X93750002Y-45099999D01*
X93750000Y-75280000D02*
X93750000Y-75300000D01*
X91050000Y-75280000D02*
X91050000Y-75290000D01*
X88350000Y-75290000D02*
X88350000Y-75300000D01*
X88350002Y-45089999D02*
X88350000Y-45100000D01*
X91050002Y-45079999D02*
X91050000Y-45090000D01*
X93750002Y-45099999D02*
G75*
G02X94300001Y-44550002I549998J-1D01*
G01*
D11*
G36*
X95100000Y-130050000D02*
G01*
X94350000Y-130050000D01*
X94700000Y-128650000D01*
X95100000Y-130050000D01*
G37*
X95100000Y-130050000D02*
X94350000Y-130050000D01*
X94700000Y-128650000D01*
X95100000Y-130050000D01*
G36*
X96150000Y-130050000D02*
G01*
X95300000Y-130050000D01*
X95700000Y-128600000D01*
X96150000Y-130050000D01*
G37*
X96150000Y-130050000D02*
X95300000Y-130050000D01*
X95700000Y-128600000D01*
X96150000Y-130050000D01*
G36*
X95200000Y-129450000D02*
G01*
X94800000Y-128350000D01*
X95550000Y-128350000D01*
X95200000Y-129450000D01*
G37*
X95200000Y-129450000D02*
X94800000Y-128350000D01*
X95550000Y-128350000D01*
X95200000Y-129450000D01*
D10*
X96350000Y-131800000D02*
G75*
G02X93950000Y-131800000I-1200000J0D01*
G01*
X94300000Y-127600000D02*
X94300000Y-75850000D01*
X94300000Y-75850000D02*
X93750000Y-75300000D01*
X94300000Y-44550000D02*
X95900003Y-44550001D01*
X96450000Y-45100000D02*
X96450000Y-75300000D01*
X96450000Y-75300000D02*
X95900000Y-75850000D01*
X95900003Y-44550001D02*
G75*
G02X96450000Y-45100000I-1J-549998D01*
G01*
X96350000Y-128000000D02*
X95900000Y-127600000D01*
X94300000Y-127600000D02*
X93950000Y-127950000D01*
X96350000Y-131800000D02*
X96350000Y-128000000D01*
X93950000Y-127950000D02*
X93950000Y-131800000D01*
X95900000Y-75850000D02*
X95900000Y-127600000D01*
X91050002Y-45079999D02*
G75*
G02X91600001Y-44530002I549998J-1D01*
G01*
D11*
G36*
X92400000Y-130030000D02*
G01*
X91650000Y-130030000D01*
X92000000Y-128630000D01*
X92400000Y-130030000D01*
G37*
X92400000Y-130030000D02*
X91650000Y-130030000D01*
X92000000Y-128630000D01*
X92400000Y-130030000D01*
G36*
X93450000Y-130030000D02*
G01*
X92600000Y-130030000D01*
X93000000Y-128580000D01*
X93450000Y-130030000D01*
G37*
X93450000Y-130030000D02*
X92600000Y-130030000D01*
X93000000Y-128580000D01*
X93450000Y-130030000D01*
G36*
X92500000Y-129430000D02*
G01*
X92100000Y-128330000D01*
X92850000Y-128330000D01*
X92500000Y-129430000D01*
G37*
X92500000Y-129430000D02*
X92100000Y-128330000D01*
X92850000Y-128330000D01*
X92500000Y-129430000D01*
D10*
X93650000Y-131780000D02*
G75*
G02X91250000Y-131780000I-1200000J0D01*
G01*
X91600000Y-127580000D02*
X91600000Y-75830000D01*
X91600000Y-75830000D02*
X91050000Y-75280000D01*
X91600000Y-44530000D02*
X93200003Y-44530001D01*
X93750000Y-75280000D02*
X93200000Y-75830000D01*
X93200003Y-44530001D02*
G75*
G02X93750000Y-45080000I-1J-549998D01*
G01*
X93650000Y-127980000D02*
X93200000Y-127580000D01*
X91600000Y-127580000D02*
X91250000Y-127930000D01*
X93650000Y-131780000D02*
X93650000Y-127980000D01*
X91250000Y-127930000D02*
X91250000Y-131780000D01*
X93200000Y-75830000D02*
X93200000Y-127580000D01*
X88350002Y-45089999D02*
G75*
G02X88900001Y-44540002I549998J-1D01*
G01*
D11*
G36*
X89700000Y-130040000D02*
G01*
X88950000Y-130040000D01*
X89300000Y-128640000D01*
X89700000Y-130040000D01*
G37*
X89700000Y-130040000D02*
X88950000Y-130040000D01*
X89300000Y-128640000D01*
X89700000Y-130040000D01*
G36*
X90750000Y-130040000D02*
G01*
X89900000Y-130040000D01*
X90300000Y-128590000D01*
X90750000Y-130040000D01*
G37*
X90750000Y-130040000D02*
X89900000Y-130040000D01*
X90300000Y-128590000D01*
X90750000Y-130040000D01*
G36*
X89800000Y-129440000D02*
G01*
X89400000Y-128340000D01*
X90150000Y-128340000D01*
X89800000Y-129440000D01*
G37*
X89800000Y-129440000D02*
X89400000Y-128340000D01*
X90150000Y-128340000D01*
X89800000Y-129440000D01*
D10*
X90950000Y-131790000D02*
G75*
G02X88550000Y-131790000I-1200000J0D01*
G01*
X88900000Y-127590000D02*
X88900000Y-75840000D01*
X88900000Y-75840000D02*
X88350000Y-75290000D01*
X88900000Y-44540000D02*
X90500003Y-44540001D01*
X91050000Y-75290000D02*
X90500000Y-75840000D01*
X90500003Y-44540001D02*
G75*
G02X91050000Y-45090000I-1J-549998D01*
G01*
X90950000Y-127990000D02*
X90500000Y-127590000D01*
X88900000Y-127590000D02*
X88550000Y-127940000D01*
X90950000Y-131790000D02*
X90950000Y-127990000D01*
X88550000Y-127940000D02*
X88550000Y-131790000D01*
X90500000Y-75840000D02*
X90500000Y-127590000D01*
X87800003Y-44550001D02*
G75*
G02X88350000Y-45100000I-1J-549998D01*
G01*
X85650002Y-45099999D02*
G75*
G02X86200001Y-44550002I549998J-1D01*
G01*
X85850000Y-127950000D02*
X85850000Y-131800000D01*
X86200000Y-127600000D02*
X85850000Y-127950000D01*
X88250000Y-128000000D02*
X87800000Y-127600000D01*
X88250000Y-131800000D02*
X88250000Y-128000000D01*
X87800000Y-75850000D02*
X87800000Y-127600000D01*
X88350000Y-75300000D02*
X87800000Y-75850000D01*
X86200000Y-44550000D02*
X87800003Y-44550001D01*
X85650000Y-75300000D02*
X85650002Y-45099999D01*
X86200000Y-75850000D02*
X85650000Y-75300000D01*
X86200000Y-127600000D02*
X86200000Y-75850000D01*
X88250000Y-131800000D02*
G75*
G02X85850000Y-131800000I-1200000J0D01*
G01*
D11*
G36*
X87100000Y-129450000D02*
G01*
X86700000Y-128350000D01*
X87450000Y-128350000D01*
X87100000Y-129450000D01*
G37*
X87100000Y-129450000D02*
X86700000Y-128350000D01*
X87450000Y-128350000D01*
X87100000Y-129450000D01*
G36*
X88050000Y-130050000D02*
G01*
X87200000Y-130050000D01*
X87600000Y-128600000D01*
X88050000Y-130050000D01*
G37*
X88050000Y-130050000D02*
X87200000Y-130050000D01*
X87600000Y-128600000D01*
X88050000Y-130050000D01*
G36*
X87000000Y-130050000D02*
G01*
X86250000Y-130050000D01*
X86600000Y-128650000D01*
X87000000Y-130050000D01*
G37*
X87000000Y-130050000D02*
X86250000Y-130050000D01*
X86600000Y-128650000D01*
X87000000Y-130050000D01*
G36*
X87117381Y-131246783D02*
G01*
X87140734Y-131245314D01*
X87191992Y-131256209D01*
X87235218Y-131261670D01*
X87256974Y-131270021D01*
X87288399Y-131276701D01*
X87327154Y-131296961D01*
X87359724Y-131309464D01*
X87385993Y-131327721D01*
X87422185Y-131346642D01*
X87447727Y-131370628D01*
X87469239Y-131385579D01*
X87496135Y-131416086D01*
X87532233Y-131449985D01*
X87545865Y-131472493D01*
X87557433Y-131485615D01*
X87580289Y-131529334D01*
X87610437Y-131579114D01*
X87615164Y-131596043D01*
X87619220Y-131603802D01*
X87633047Y-131660095D01*
X87651034Y-131724518D01*
X87649333Y-131887006D01*
X87629987Y-131951082D01*
X87614997Y-132007026D01*
X87610781Y-132014695D01*
X87605699Y-132031527D01*
X87574508Y-132080676D01*
X87550747Y-132123898D01*
X87538908Y-132136772D01*
X87524808Y-132158991D01*
X87488006Y-132192128D01*
X87460478Y-132222064D01*
X87438657Y-132236562D01*
X87412620Y-132260006D01*
X87376045Y-132278162D01*
X87349394Y-132295869D01*
X87316565Y-132307688D01*
X87277399Y-132327130D01*
X87245839Y-132333150D01*
X87223916Y-132341043D01*
X87180593Y-132345597D01*
X87129108Y-132355418D01*
X87105787Y-132353460D01*
X87091284Y-132354984D01*
X87039548Y-132347897D01*
X86978673Y-132342785D01*
X86964937Y-132337677D01*
X86959150Y-132336884D01*
X86902595Y-132314492D01*
X86837177Y-132290163D01*
X86778252Y-132247352D01*
X86726441Y-132210532D01*
X86724537Y-132208326D01*
X86715044Y-132201429D01*
X86675302Y-132151287D01*
X86639300Y-132109579D01*
X86634001Y-132099179D01*
X86621272Y-132083119D01*
X86599838Y-132032129D01*
X86578754Y-131990749D01*
X86574096Y-131970892D01*
X86562771Y-131943950D01*
X86556928Y-131897696D01*
X86548299Y-131860909D01*
X86548604Y-131831808D01*
X86543850Y-131794176D01*
X86549392Y-131756647D01*
X86549697Y-131727552D01*
X86559092Y-131690961D01*
X86565904Y-131644831D01*
X86577791Y-131618132D01*
X86582864Y-131598375D01*
X86604815Y-131557436D01*
X86627307Y-131506918D01*
X86640366Y-131491132D01*
X86645883Y-131480843D01*
X86682753Y-131439895D01*
X86723535Y-131390598D01*
X86733171Y-131383901D01*
X86735122Y-131381734D01*
X86787700Y-131346002D01*
X86847500Y-131304440D01*
X86913435Y-131281479D01*
X86970424Y-131260285D01*
X86976223Y-131259614D01*
X86990067Y-131254793D01*
X87051037Y-131250957D01*
X87102909Y-131244955D01*
X87117381Y-131246783D01*
G37*
G36*
X95217381Y-131246783D02*
G01*
X95240734Y-131245314D01*
X95291992Y-131256209D01*
X95335218Y-131261670D01*
X95356974Y-131270021D01*
X95388399Y-131276701D01*
X95427154Y-131296961D01*
X95459724Y-131309464D01*
X95485993Y-131327721D01*
X95522185Y-131346642D01*
X95547727Y-131370628D01*
X95569239Y-131385579D01*
X95596135Y-131416086D01*
X95632233Y-131449985D01*
X95645865Y-131472493D01*
X95657433Y-131485615D01*
X95680289Y-131529334D01*
X95710437Y-131579114D01*
X95715164Y-131596043D01*
X95719220Y-131603802D01*
X95733047Y-131660095D01*
X95751034Y-131724518D01*
X95749333Y-131887006D01*
X95729987Y-131951082D01*
X95714997Y-132007026D01*
X95710781Y-132014695D01*
X95705699Y-132031527D01*
X95674508Y-132080676D01*
X95650747Y-132123898D01*
X95638908Y-132136772D01*
X95624808Y-132158991D01*
X95588006Y-132192128D01*
X95560478Y-132222064D01*
X95538657Y-132236562D01*
X95512620Y-132260006D01*
X95476045Y-132278162D01*
X95449394Y-132295869D01*
X95416565Y-132307688D01*
X95377399Y-132327130D01*
X95345839Y-132333150D01*
X95323916Y-132341043D01*
X95280593Y-132345597D01*
X95229108Y-132355418D01*
X95205787Y-132353460D01*
X95191284Y-132354984D01*
X95139548Y-132347897D01*
X95078673Y-132342785D01*
X95064937Y-132337677D01*
X95059150Y-132336884D01*
X95002595Y-132314492D01*
X94937177Y-132290163D01*
X94878252Y-132247352D01*
X94826441Y-132210532D01*
X94824537Y-132208326D01*
X94815044Y-132201429D01*
X94775302Y-132151287D01*
X94739300Y-132109579D01*
X94734001Y-132099179D01*
X94721272Y-132083119D01*
X94699838Y-132032129D01*
X94678754Y-131990749D01*
X94674096Y-131970892D01*
X94662771Y-131943950D01*
X94656928Y-131897696D01*
X94648299Y-131860909D01*
X94648604Y-131831808D01*
X94643850Y-131794176D01*
X94649392Y-131756647D01*
X94649697Y-131727552D01*
X94659092Y-131690961D01*
X94665904Y-131644831D01*
X94677791Y-131618132D01*
X94682864Y-131598375D01*
X94704815Y-131557436D01*
X94727307Y-131506918D01*
X94740366Y-131491132D01*
X94745883Y-131480843D01*
X94782753Y-131439895D01*
X94823535Y-131390598D01*
X94833171Y-131383901D01*
X94835122Y-131381734D01*
X94887700Y-131346002D01*
X94947500Y-131304440D01*
X95013435Y-131281479D01*
X95070424Y-131260285D01*
X95076223Y-131259614D01*
X95090067Y-131254793D01*
X95151037Y-131250957D01*
X95202909Y-131244955D01*
X95217381Y-131246783D01*
G37*
G36*
X89817381Y-131236783D02*
G01*
X89840734Y-131235314D01*
X89891992Y-131246209D01*
X89935218Y-131251670D01*
X89956974Y-131260021D01*
X89988399Y-131266701D01*
X90027154Y-131286961D01*
X90059724Y-131299464D01*
X90085993Y-131317721D01*
X90122185Y-131336642D01*
X90147727Y-131360628D01*
X90169239Y-131375579D01*
X90196135Y-131406086D01*
X90232233Y-131439985D01*
X90245865Y-131462493D01*
X90257433Y-131475615D01*
X90280289Y-131519334D01*
X90310437Y-131569114D01*
X90315164Y-131586043D01*
X90319220Y-131593802D01*
X90333047Y-131650095D01*
X90351034Y-131714518D01*
X90349333Y-131877006D01*
X90329987Y-131941082D01*
X90314997Y-131997026D01*
X90310781Y-132004695D01*
X90305699Y-132021527D01*
X90274508Y-132070676D01*
X90250747Y-132113898D01*
X90238908Y-132126772D01*
X90224808Y-132148991D01*
X90188006Y-132182128D01*
X90160478Y-132212064D01*
X90138657Y-132226562D01*
X90112620Y-132250006D01*
X90076045Y-132268162D01*
X90049394Y-132285869D01*
X90016565Y-132297688D01*
X89977399Y-132317130D01*
X89945839Y-132323150D01*
X89923916Y-132331043D01*
X89880593Y-132335597D01*
X89829108Y-132345418D01*
X89805787Y-132343460D01*
X89791284Y-132344984D01*
X89739548Y-132337897D01*
X89678673Y-132332785D01*
X89664937Y-132327677D01*
X89659150Y-132326884D01*
X89602595Y-132304492D01*
X89537177Y-132280163D01*
X89478252Y-132237352D01*
X89426441Y-132200532D01*
X89424537Y-132198326D01*
X89415044Y-132191429D01*
X89375302Y-132141287D01*
X89339300Y-132099579D01*
X89334001Y-132089179D01*
X89321272Y-132073119D01*
X89299838Y-132022129D01*
X89278754Y-131980749D01*
X89274096Y-131960892D01*
X89262771Y-131933950D01*
X89256928Y-131887696D01*
X89248299Y-131850909D01*
X89248604Y-131821808D01*
X89243850Y-131784176D01*
X89249392Y-131746647D01*
X89249697Y-131717552D01*
X89259092Y-131680961D01*
X89265904Y-131634831D01*
X89277791Y-131608132D01*
X89282864Y-131588375D01*
X89304815Y-131547436D01*
X89327307Y-131496918D01*
X89340366Y-131481132D01*
X89345883Y-131470843D01*
X89382753Y-131429895D01*
X89423535Y-131380598D01*
X89433171Y-131373901D01*
X89435122Y-131371734D01*
X89487700Y-131336002D01*
X89547500Y-131294440D01*
X89613435Y-131271479D01*
X89670424Y-131250285D01*
X89676223Y-131249614D01*
X89690067Y-131244793D01*
X89751037Y-131240957D01*
X89802909Y-131234955D01*
X89817381Y-131236783D01*
G37*
G36*
X92517381Y-131226783D02*
G01*
X92540734Y-131225314D01*
X92591992Y-131236209D01*
X92635218Y-131241670D01*
X92656974Y-131250021D01*
X92688399Y-131256701D01*
X92727154Y-131276961D01*
X92759724Y-131289464D01*
X92785993Y-131307721D01*
X92822185Y-131326642D01*
X92847727Y-131350628D01*
X92869239Y-131365579D01*
X92896135Y-131396086D01*
X92932233Y-131429985D01*
X92945865Y-131452493D01*
X92957433Y-131465615D01*
X92980289Y-131509334D01*
X93010437Y-131559114D01*
X93015164Y-131576043D01*
X93019220Y-131583802D01*
X93033047Y-131640095D01*
X93051034Y-131704518D01*
X93049333Y-131867006D01*
X93029987Y-131931082D01*
X93014997Y-131987026D01*
X93010781Y-131994695D01*
X93005699Y-132011527D01*
X92974508Y-132060676D01*
X92950747Y-132103898D01*
X92938908Y-132116772D01*
X92924808Y-132138991D01*
X92888006Y-132172128D01*
X92860478Y-132202064D01*
X92838657Y-132216562D01*
X92812620Y-132240006D01*
X92776045Y-132258162D01*
X92749394Y-132275869D01*
X92716565Y-132287688D01*
X92677399Y-132307130D01*
X92645839Y-132313150D01*
X92623916Y-132321043D01*
X92580593Y-132325597D01*
X92529108Y-132335418D01*
X92505787Y-132333460D01*
X92491284Y-132334984D01*
X92439548Y-132327897D01*
X92378673Y-132322785D01*
X92364937Y-132317677D01*
X92359150Y-132316884D01*
X92302595Y-132294492D01*
X92237177Y-132270163D01*
X92178252Y-132227352D01*
X92126441Y-132190532D01*
X92124537Y-132188326D01*
X92115044Y-132181429D01*
X92075302Y-132131287D01*
X92039300Y-132089579D01*
X92034001Y-132079179D01*
X92021272Y-132063119D01*
X91999838Y-132012129D01*
X91978754Y-131970749D01*
X91974096Y-131950892D01*
X91962771Y-131923950D01*
X91956928Y-131877696D01*
X91948299Y-131840909D01*
X91948604Y-131811808D01*
X91943850Y-131774176D01*
X91949392Y-131736647D01*
X91949697Y-131707552D01*
X91959092Y-131670961D01*
X91965904Y-131624831D01*
X91977791Y-131598132D01*
X91982864Y-131578375D01*
X92004815Y-131537436D01*
X92027307Y-131486918D01*
X92040366Y-131471132D01*
X92045883Y-131460843D01*
X92082753Y-131419895D01*
X92123535Y-131370598D01*
X92133171Y-131363901D01*
X92135122Y-131361734D01*
X92187700Y-131326002D01*
X92247500Y-131284440D01*
X92313435Y-131261479D01*
X92370424Y-131240285D01*
X92376223Y-131239614D01*
X92390067Y-131234793D01*
X92451037Y-131230957D01*
X92502909Y-131224955D01*
X92517381Y-131226783D01*
G37*
G36*
X86891262Y-73396233D02*
G01*
X86903567Y-73398717D01*
X86920483Y-73402132D01*
X86923455Y-73402732D01*
X86939500Y-73413519D01*
X86940292Y-73414052D01*
X86946579Y-73423519D01*
X86949550Y-73427994D01*
X87003466Y-73473314D01*
X87073324Y-73482291D01*
X87157414Y-73428588D01*
X87166753Y-73414698D01*
X87183655Y-73403474D01*
X87196744Y-73400909D01*
X87203566Y-73399572D01*
X87203567Y-73399572D01*
X87215886Y-73397158D01*
X87791259Y-73398798D01*
X87823452Y-73405297D01*
X87840290Y-73416617D01*
X87851513Y-73433518D01*
X87857829Y-73465749D01*
X87856189Y-74041122D01*
X87853705Y-74053427D01*
X87852627Y-74058766D01*
X87849690Y-74073315D01*
X87840106Y-74087571D01*
X87838370Y-74090152D01*
X87824427Y-74099411D01*
X87779108Y-74153326D01*
X87770131Y-74223184D01*
X87823834Y-74307275D01*
X87834869Y-74314694D01*
X87837724Y-74316614D01*
X87848947Y-74333514D01*
X87855263Y-74365745D01*
X87853623Y-74941118D01*
X87851139Y-74953423D01*
X87850061Y-74958762D01*
X87847124Y-74973311D01*
X87835804Y-74990149D01*
X87818903Y-75001372D01*
X87812080Y-75002709D01*
X87798992Y-75005274D01*
X87798991Y-75005274D01*
X87786672Y-75007688D01*
X87211299Y-75006048D01*
X87186289Y-75000999D01*
X87179106Y-74999549D01*
X87173899Y-74996048D01*
X87162270Y-74988230D01*
X87161840Y-74987583D01*
X87153010Y-74974286D01*
X87099095Y-74928967D01*
X87029237Y-74919990D01*
X86945146Y-74973695D01*
X86936211Y-74986984D01*
X86935807Y-74987584D01*
X86918907Y-74998807D01*
X86909795Y-75000593D01*
X86898996Y-75002709D01*
X86898995Y-75002709D01*
X86886676Y-75005123D01*
X86311303Y-75003483D01*
X86279110Y-74996984D01*
X86262272Y-74985664D01*
X86251049Y-74968763D01*
X86244733Y-74936532D01*
X86246373Y-74361159D01*
X86250411Y-74341159D01*
X86252872Y-74328966D01*
X86256537Y-74323515D01*
X86264191Y-74312130D01*
X86264192Y-74312130D01*
X86264192Y-74312129D01*
X86278135Y-74302870D01*
X86323454Y-74248955D01*
X86327095Y-74220619D01*
X86870134Y-74220619D01*
X86923839Y-74304710D01*
X86937727Y-74314048D01*
X86946985Y-74327990D01*
X87000901Y-74373310D01*
X87070759Y-74382287D01*
X87154851Y-74328582D01*
X87155249Y-74327990D01*
X87164188Y-74314694D01*
X87178131Y-74305435D01*
X87223450Y-74251520D01*
X87232427Y-74181662D01*
X87178724Y-74097571D01*
X87164836Y-74088234D01*
X87164405Y-74087585D01*
X87155576Y-74074290D01*
X87101661Y-74028971D01*
X87031803Y-74019994D01*
X86947713Y-74073697D01*
X86938376Y-74087585D01*
X86938373Y-74087587D01*
X86924430Y-74096846D01*
X86879111Y-74150761D01*
X86870134Y-74220619D01*
X86327095Y-74220619D01*
X86332431Y-74179097D01*
X86278726Y-74095005D01*
X86264838Y-74085668D01*
X86264579Y-74085278D01*
X86253614Y-74068767D01*
X86247298Y-74036536D01*
X86248938Y-73461163D01*
X86252976Y-73441163D01*
X86255437Y-73428970D01*
X86259102Y-73423519D01*
X86266757Y-73412132D01*
X86283658Y-73400909D01*
X86292770Y-73399123D01*
X86303569Y-73397007D01*
X86303570Y-73397007D01*
X86315889Y-73394593D01*
X86891262Y-73396233D01*
G37*
G36*
X94991262Y-73396233D02*
G01*
X95003567Y-73398717D01*
X95020483Y-73402132D01*
X95023455Y-73402732D01*
X95039500Y-73413519D01*
X95040292Y-73414052D01*
X95046579Y-73423519D01*
X95049550Y-73427994D01*
X95103466Y-73473314D01*
X95173324Y-73482291D01*
X95257414Y-73428588D01*
X95266753Y-73414698D01*
X95283655Y-73403474D01*
X95296744Y-73400909D01*
X95303566Y-73399572D01*
X95303567Y-73399572D01*
X95315886Y-73397158D01*
X95891259Y-73398798D01*
X95923452Y-73405297D01*
X95940290Y-73416617D01*
X95951513Y-73433518D01*
X95957829Y-73465749D01*
X95956189Y-74041122D01*
X95953705Y-74053427D01*
X95952627Y-74058766D01*
X95949690Y-74073315D01*
X95940106Y-74087571D01*
X95938370Y-74090152D01*
X95924427Y-74099411D01*
X95879108Y-74153326D01*
X95870131Y-74223184D01*
X95923834Y-74307275D01*
X95934869Y-74314694D01*
X95937724Y-74316614D01*
X95948947Y-74333514D01*
X95955263Y-74365745D01*
X95953623Y-74941118D01*
X95951139Y-74953423D01*
X95950061Y-74958762D01*
X95947124Y-74973311D01*
X95935804Y-74990149D01*
X95918903Y-75001372D01*
X95912080Y-75002709D01*
X95898992Y-75005274D01*
X95898991Y-75005274D01*
X95886672Y-75007688D01*
X95311299Y-75006048D01*
X95286289Y-75000999D01*
X95279106Y-74999549D01*
X95273899Y-74996048D01*
X95262270Y-74988230D01*
X95261840Y-74987583D01*
X95253010Y-74974286D01*
X95199095Y-74928967D01*
X95129237Y-74919990D01*
X95045146Y-74973695D01*
X95036211Y-74986984D01*
X95035807Y-74987584D01*
X95018907Y-74998807D01*
X95009795Y-75000593D01*
X94998996Y-75002709D01*
X94998995Y-75002709D01*
X94986676Y-75005123D01*
X94411303Y-75003483D01*
X94379110Y-74996984D01*
X94362272Y-74985664D01*
X94351049Y-74968763D01*
X94344733Y-74936532D01*
X94346373Y-74361159D01*
X94350411Y-74341159D01*
X94352872Y-74328966D01*
X94356537Y-74323515D01*
X94364191Y-74312130D01*
X94364192Y-74312130D01*
X94364192Y-74312129D01*
X94378135Y-74302870D01*
X94423454Y-74248955D01*
X94427095Y-74220619D01*
X94970134Y-74220619D01*
X95023839Y-74304710D01*
X95037727Y-74314048D01*
X95046985Y-74327990D01*
X95100901Y-74373310D01*
X95170759Y-74382287D01*
X95254851Y-74328582D01*
X95255249Y-74327990D01*
X95264188Y-74314694D01*
X95278131Y-74305435D01*
X95323450Y-74251520D01*
X95332427Y-74181662D01*
X95278724Y-74097571D01*
X95264836Y-74088234D01*
X95264405Y-74087585D01*
X95255576Y-74074290D01*
X95201661Y-74028971D01*
X95131803Y-74019994D01*
X95047713Y-74073697D01*
X95038376Y-74087585D01*
X95038373Y-74087587D01*
X95024430Y-74096846D01*
X94979111Y-74150761D01*
X94970134Y-74220619D01*
X94427095Y-74220619D01*
X94432431Y-74179097D01*
X94378726Y-74095005D01*
X94364838Y-74085668D01*
X94364579Y-74085278D01*
X94353614Y-74068767D01*
X94347298Y-74036536D01*
X94348938Y-73461163D01*
X94352976Y-73441163D01*
X94355437Y-73428970D01*
X94359102Y-73423519D01*
X94366757Y-73412132D01*
X94383658Y-73400909D01*
X94392770Y-73399123D01*
X94403569Y-73397007D01*
X94403570Y-73397007D01*
X94415889Y-73394593D01*
X94991262Y-73396233D01*
G37*
G36*
X89591262Y-73386233D02*
G01*
X89603567Y-73388717D01*
X89620483Y-73392132D01*
X89623455Y-73392732D01*
X89639433Y-73403474D01*
X89640292Y-73404052D01*
X89647362Y-73414698D01*
X89649550Y-73417994D01*
X89703466Y-73463314D01*
X89773324Y-73472291D01*
X89857414Y-73418588D01*
X89866753Y-73404698D01*
X89883655Y-73393474D01*
X89896744Y-73390909D01*
X89903566Y-73389572D01*
X89903567Y-73389572D01*
X89915886Y-73387158D01*
X90491259Y-73388798D01*
X90523452Y-73395297D01*
X90540290Y-73406617D01*
X90551513Y-73423518D01*
X90557829Y-73455749D01*
X90556189Y-74031122D01*
X90549690Y-74063315D01*
X90540106Y-74077571D01*
X90538370Y-74080152D01*
X90524427Y-74089411D01*
X90479108Y-74143326D01*
X90470131Y-74213184D01*
X90523834Y-74297275D01*
X90535760Y-74305293D01*
X90537724Y-74306614D01*
X90548947Y-74323514D01*
X90555263Y-74355745D01*
X90553623Y-74931118D01*
X90547124Y-74963311D01*
X90535804Y-74980149D01*
X90518903Y-74991372D01*
X90512080Y-74992709D01*
X90498992Y-74995274D01*
X90498991Y-74995274D01*
X90486672Y-74997688D01*
X89911299Y-74996048D01*
X89886289Y-74990999D01*
X89879106Y-74989549D01*
X89873899Y-74986048D01*
X89862270Y-74978230D01*
X89861840Y-74977583D01*
X89853010Y-74964286D01*
X89799095Y-74918967D01*
X89729237Y-74909990D01*
X89645146Y-74963695D01*
X89636211Y-74976984D01*
X89635807Y-74977584D01*
X89618907Y-74988807D01*
X89609795Y-74990593D01*
X89598996Y-74992709D01*
X89598995Y-74992709D01*
X89586676Y-74995123D01*
X89011303Y-74993483D01*
X88979110Y-74986984D01*
X88962272Y-74975664D01*
X88951049Y-74958763D01*
X88944733Y-74926532D01*
X88946373Y-74351159D01*
X88952872Y-74318966D01*
X88964191Y-74302130D01*
X88964192Y-74302130D01*
X88964192Y-74302129D01*
X88978135Y-74292870D01*
X89023454Y-74238955D01*
X89027095Y-74210619D01*
X89570134Y-74210619D01*
X89623839Y-74294710D01*
X89637727Y-74304048D01*
X89646985Y-74317990D01*
X89700901Y-74363310D01*
X89770759Y-74372287D01*
X89854851Y-74318582D01*
X89857899Y-74314048D01*
X89864188Y-74304694D01*
X89878131Y-74295435D01*
X89923450Y-74241520D01*
X89932427Y-74171662D01*
X89878724Y-74087571D01*
X89864836Y-74078234D01*
X89864405Y-74077585D01*
X89855576Y-74064290D01*
X89801661Y-74018971D01*
X89731803Y-74009994D01*
X89647713Y-74063697D01*
X89638376Y-74077585D01*
X89638373Y-74077587D01*
X89624430Y-74086846D01*
X89579111Y-74140761D01*
X89570134Y-74210619D01*
X89027095Y-74210619D01*
X89032431Y-74169097D01*
X88978726Y-74085005D01*
X88964838Y-74075668D01*
X88964837Y-74075667D01*
X88953614Y-74058767D01*
X88947298Y-74026536D01*
X88948938Y-73451163D01*
X88955437Y-73418970D01*
X88966757Y-73402132D01*
X88983658Y-73390909D01*
X88992770Y-73389123D01*
X89003569Y-73387007D01*
X89003570Y-73387007D01*
X89015889Y-73384593D01*
X89591262Y-73386233D01*
G37*
G36*
X92291262Y-73376233D02*
G01*
X92303567Y-73378717D01*
X92323455Y-73382732D01*
X92339433Y-73393474D01*
X92340292Y-73394052D01*
X92347362Y-73404698D01*
X92349550Y-73407994D01*
X92403466Y-73453314D01*
X92473324Y-73462291D01*
X92557414Y-73408588D01*
X92566753Y-73394698D01*
X92583655Y-73383474D01*
X92596744Y-73380909D01*
X92603566Y-73379572D01*
X92603567Y-73379572D01*
X92615886Y-73377158D01*
X93191259Y-73378798D01*
X93223452Y-73385297D01*
X93240290Y-73396617D01*
X93251513Y-73413518D01*
X93257829Y-73445749D01*
X93256189Y-74021122D01*
X93253705Y-74033427D01*
X93252091Y-74041421D01*
X93249690Y-74053315D01*
X93241386Y-74065667D01*
X93238370Y-74070152D01*
X93224427Y-74079411D01*
X93179108Y-74133326D01*
X93170131Y-74203184D01*
X93223834Y-74287275D01*
X93235760Y-74295293D01*
X93237724Y-74296614D01*
X93248947Y-74313514D01*
X93255263Y-74345745D01*
X93253623Y-74921118D01*
X93251139Y-74933423D01*
X93249525Y-74941417D01*
X93247124Y-74953311D01*
X93235804Y-74970149D01*
X93218903Y-74981372D01*
X93212080Y-74982709D01*
X93198992Y-74985274D01*
X93198991Y-74985274D01*
X93186672Y-74987688D01*
X92611299Y-74986048D01*
X92586289Y-74980999D01*
X92579106Y-74979549D01*
X92575291Y-74976984D01*
X92562270Y-74968230D01*
X92560566Y-74965664D01*
X92553010Y-74954286D01*
X92499095Y-74908967D01*
X92429237Y-74899990D01*
X92345146Y-74953695D01*
X92340405Y-74960746D01*
X92335807Y-74967584D01*
X92318907Y-74978807D01*
X92309795Y-74980593D01*
X92298996Y-74982709D01*
X92298995Y-74982709D01*
X92286676Y-74985123D01*
X91711303Y-74983483D01*
X91679110Y-74976984D01*
X91662272Y-74965664D01*
X91651049Y-74948763D01*
X91644733Y-74916532D01*
X91646373Y-74341159D01*
X91649032Y-74327990D01*
X91652872Y-74308966D01*
X91655733Y-74304711D01*
X91664191Y-74292130D01*
X91664192Y-74292130D01*
X91664192Y-74292129D01*
X91678135Y-74282870D01*
X91723454Y-74228955D01*
X91727095Y-74200619D01*
X92270134Y-74200619D01*
X92323839Y-74284710D01*
X92337727Y-74294048D01*
X92346985Y-74307990D01*
X92400901Y-74353310D01*
X92470759Y-74362287D01*
X92554851Y-74308582D01*
X92555249Y-74307990D01*
X92564188Y-74294694D01*
X92578131Y-74285435D01*
X92623450Y-74231520D01*
X92632427Y-74161662D01*
X92578724Y-74077571D01*
X92564836Y-74068234D01*
X92563131Y-74065667D01*
X92555576Y-74054290D01*
X92501661Y-74008971D01*
X92431803Y-73999994D01*
X92347713Y-74053697D01*
X92338376Y-74067585D01*
X92338373Y-74067587D01*
X92324430Y-74076846D01*
X92279111Y-74130761D01*
X92270134Y-74200619D01*
X91727095Y-74200619D01*
X91732431Y-74159097D01*
X91678726Y-74075005D01*
X91677664Y-74074291D01*
X91664838Y-74065668D01*
X91664837Y-74065667D01*
X91653614Y-74048767D01*
X91647298Y-74016536D01*
X91648938Y-73441163D01*
X91651597Y-73427994D01*
X91655437Y-73408970D01*
X91658309Y-73404698D01*
X91666757Y-73392132D01*
X91683658Y-73380909D01*
X91692770Y-73379123D01*
X91703569Y-73377007D01*
X91703570Y-73377007D01*
X91715889Y-73374593D01*
X92291262Y-73376233D01*
G37*
G36*
X94991026Y-71496034D02*
G01*
X95003329Y-71498515D01*
X95023218Y-71502526D01*
X95040058Y-71513843D01*
X95049321Y-71527786D01*
X95103241Y-71573094D01*
X95173101Y-71582058D01*
X95257183Y-71528339D01*
X95266519Y-71514446D01*
X95278873Y-71506239D01*
X95283417Y-71503220D01*
X95283418Y-71503220D01*
X95283419Y-71503219D01*
X95303328Y-71499314D01*
X95303333Y-71499314D01*
X95315646Y-71496899D01*
X95891023Y-71498429D01*
X95903326Y-71500910D01*
X95923215Y-71504921D01*
X95940055Y-71516238D01*
X95951282Y-71533138D01*
X95955187Y-71553047D01*
X95955187Y-71553052D01*
X95957602Y-71565365D01*
X95956072Y-72140742D01*
X95953591Y-72153045D01*
X95949580Y-72172934D01*
X95938263Y-72189774D01*
X95924322Y-72199035D01*
X95879014Y-72252957D01*
X95870050Y-72322817D01*
X95923769Y-72406898D01*
X95937661Y-72416234D01*
X95948888Y-72433134D01*
X95952793Y-72453043D01*
X95952793Y-72453048D01*
X95955208Y-72465361D01*
X95953678Y-73040738D01*
X95951197Y-73053041D01*
X95947186Y-73072930D01*
X95935869Y-73089770D01*
X95918969Y-73100997D01*
X95899060Y-73104902D01*
X95899055Y-73104902D01*
X95886742Y-73107317D01*
X95311365Y-73105787D01*
X95279173Y-73099295D01*
X95273953Y-73095787D01*
X95262333Y-73087978D01*
X95253071Y-73074036D01*
X95199148Y-73028727D01*
X95129288Y-73019764D01*
X95045208Y-73073483D01*
X95035872Y-73087376D01*
X95018972Y-73098603D01*
X94999063Y-73102508D01*
X94999058Y-73102508D01*
X94986745Y-73104923D01*
X94411368Y-73103393D01*
X94379176Y-73096901D01*
X94376233Y-73094923D01*
X94362336Y-73085584D01*
X94351109Y-73068684D01*
X94347204Y-73048775D01*
X94347204Y-73048770D01*
X94344789Y-73036457D01*
X94346319Y-72461080D01*
X94352811Y-72428888D01*
X94356678Y-72423134D01*
X94364128Y-72412048D01*
X94378070Y-72402786D01*
X94423379Y-72348863D01*
X94427027Y-72320424D01*
X94970052Y-72320424D01*
X95023771Y-72404504D01*
X95037664Y-72413840D01*
X95046925Y-72427781D01*
X95100849Y-72473091D01*
X95170709Y-72482054D01*
X95254789Y-72428335D01*
X95264125Y-72414442D01*
X95278066Y-72405181D01*
X95323374Y-72351259D01*
X95332338Y-72281399D01*
X95278619Y-72197318D01*
X95271466Y-72192511D01*
X95264727Y-72187982D01*
X95255464Y-72174039D01*
X95201544Y-72128731D01*
X95131684Y-72119767D01*
X95047602Y-72173486D01*
X95038266Y-72187379D01*
X95024325Y-72196640D01*
X94979015Y-72250564D01*
X94970052Y-72320424D01*
X94427027Y-72320424D01*
X94432342Y-72279003D01*
X94378623Y-72194923D01*
X94364730Y-72185587D01*
X94353503Y-72168687D01*
X94349598Y-72148778D01*
X94349598Y-72148773D01*
X94347183Y-72136460D01*
X94348713Y-71561083D01*
X94355205Y-71528891D01*
X94355949Y-71527784D01*
X94366522Y-71512051D01*
X94377970Y-71504446D01*
X94383420Y-71500825D01*
X94383421Y-71500825D01*
X94383422Y-71500824D01*
X94403331Y-71496919D01*
X94403336Y-71496919D01*
X94415649Y-71494504D01*
X94991026Y-71496034D01*
G37*
G36*
X86891026Y-71496034D02*
G01*
X86903329Y-71498515D01*
X86923218Y-71502526D01*
X86940058Y-71513843D01*
X86949321Y-71527786D01*
X87003241Y-71573094D01*
X87073101Y-71582058D01*
X87157183Y-71528339D01*
X87166519Y-71514446D01*
X87178873Y-71506239D01*
X87183417Y-71503220D01*
X87183418Y-71503220D01*
X87183419Y-71503219D01*
X87203328Y-71499314D01*
X87203333Y-71499314D01*
X87215646Y-71496899D01*
X87791023Y-71498429D01*
X87803326Y-71500910D01*
X87823215Y-71504921D01*
X87840055Y-71516238D01*
X87851282Y-71533138D01*
X87855187Y-71553047D01*
X87855187Y-71553052D01*
X87857602Y-71565365D01*
X87856072Y-72140742D01*
X87853591Y-72153045D01*
X87849580Y-72172934D01*
X87838263Y-72189774D01*
X87824322Y-72199035D01*
X87779014Y-72252957D01*
X87770050Y-72322817D01*
X87823769Y-72406898D01*
X87837661Y-72416234D01*
X87848888Y-72433134D01*
X87852793Y-72453043D01*
X87852793Y-72453048D01*
X87855208Y-72465361D01*
X87853678Y-73040738D01*
X87851197Y-73053041D01*
X87847186Y-73072930D01*
X87835869Y-73089770D01*
X87818969Y-73100997D01*
X87799060Y-73104902D01*
X87799055Y-73104902D01*
X87786742Y-73107317D01*
X87211365Y-73105787D01*
X87179173Y-73099295D01*
X87173953Y-73095787D01*
X87162333Y-73087978D01*
X87153071Y-73074036D01*
X87099148Y-73028727D01*
X87029288Y-73019764D01*
X86945208Y-73073483D01*
X86935872Y-73087376D01*
X86918972Y-73098603D01*
X86899063Y-73102508D01*
X86899058Y-73102508D01*
X86886745Y-73104923D01*
X86311368Y-73103393D01*
X86279176Y-73096901D01*
X86276233Y-73094923D01*
X86262336Y-73085584D01*
X86251109Y-73068684D01*
X86247204Y-73048775D01*
X86247204Y-73048770D01*
X86244789Y-73036457D01*
X86246319Y-72461080D01*
X86252811Y-72428888D01*
X86256678Y-72423134D01*
X86264128Y-72412048D01*
X86278070Y-72402786D01*
X86323379Y-72348863D01*
X86327027Y-72320424D01*
X86870052Y-72320424D01*
X86923771Y-72404504D01*
X86937664Y-72413840D01*
X86946925Y-72427781D01*
X87000849Y-72473091D01*
X87070709Y-72482054D01*
X87154789Y-72428335D01*
X87164125Y-72414442D01*
X87178066Y-72405181D01*
X87223374Y-72351259D01*
X87232338Y-72281399D01*
X87178619Y-72197318D01*
X87171466Y-72192511D01*
X87164727Y-72187982D01*
X87155464Y-72174039D01*
X87101544Y-72128731D01*
X87031684Y-72119767D01*
X86947602Y-72173486D01*
X86938266Y-72187379D01*
X86924325Y-72196640D01*
X86879015Y-72250564D01*
X86870052Y-72320424D01*
X86327027Y-72320424D01*
X86332342Y-72279003D01*
X86278623Y-72194923D01*
X86264730Y-72185587D01*
X86253503Y-72168687D01*
X86249598Y-72148778D01*
X86249598Y-72148773D01*
X86247183Y-72136460D01*
X86248713Y-71561083D01*
X86255205Y-71528891D01*
X86255949Y-71527784D01*
X86266522Y-71512051D01*
X86277970Y-71504446D01*
X86283420Y-71500825D01*
X86283421Y-71500825D01*
X86283422Y-71500824D01*
X86303331Y-71496919D01*
X86303336Y-71496919D01*
X86315649Y-71494504D01*
X86891026Y-71496034D01*
G37*
G36*
X89591026Y-71486034D02*
G01*
X89603329Y-71488515D01*
X89623218Y-71492526D01*
X89640058Y-71503843D01*
X89649321Y-71517786D01*
X89703241Y-71563094D01*
X89773101Y-71572058D01*
X89857183Y-71518339D01*
X89866519Y-71504446D01*
X89878873Y-71496239D01*
X89883417Y-71493220D01*
X89883418Y-71493220D01*
X89883419Y-71493219D01*
X89903328Y-71489314D01*
X89903333Y-71489314D01*
X89915646Y-71486899D01*
X90491023Y-71488429D01*
X90503326Y-71490910D01*
X90523215Y-71494921D01*
X90540055Y-71506238D01*
X90551282Y-71523138D01*
X90555187Y-71543047D01*
X90555187Y-71543052D01*
X90557602Y-71555365D01*
X90556072Y-72130742D01*
X90553591Y-72143045D01*
X90549580Y-72162934D01*
X90538263Y-72179774D01*
X90524322Y-72189035D01*
X90479014Y-72242957D01*
X90470050Y-72312817D01*
X90523769Y-72396898D01*
X90537661Y-72406234D01*
X90548888Y-72423134D01*
X90552793Y-72443043D01*
X90552793Y-72443048D01*
X90555208Y-72455361D01*
X90553678Y-73030738D01*
X90551197Y-73043041D01*
X90547186Y-73062930D01*
X90535869Y-73079770D01*
X90525135Y-73086901D01*
X90523514Y-73087978D01*
X90518969Y-73090997D01*
X90499060Y-73094902D01*
X90499055Y-73094902D01*
X90486742Y-73097317D01*
X89911365Y-73095787D01*
X89879173Y-73089295D01*
X89877212Y-73087977D01*
X89862333Y-73077978D01*
X89853071Y-73064036D01*
X89799148Y-73018727D01*
X89729288Y-73009764D01*
X89645208Y-73063483D01*
X89635872Y-73077376D01*
X89624566Y-73084887D01*
X89619915Y-73087977D01*
X89618972Y-73088603D01*
X89599063Y-73092508D01*
X89599058Y-73092508D01*
X89586745Y-73094923D01*
X89011368Y-73093393D01*
X88993403Y-73089770D01*
X88979176Y-73086901D01*
X88962336Y-73075584D01*
X88951109Y-73058684D01*
X88947204Y-73038775D01*
X88947204Y-73038770D01*
X88944789Y-73026457D01*
X88946319Y-72451080D01*
X88952811Y-72418888D01*
X88956203Y-72413841D01*
X88964128Y-72402048D01*
X88978070Y-72392786D01*
X89023379Y-72338863D01*
X89027027Y-72310424D01*
X89570052Y-72310424D01*
X89623771Y-72394504D01*
X89637664Y-72403840D01*
X89646925Y-72417781D01*
X89700849Y-72463091D01*
X89770709Y-72472054D01*
X89854789Y-72418335D01*
X89864125Y-72404442D01*
X89878066Y-72395181D01*
X89923374Y-72341259D01*
X89932338Y-72271399D01*
X89878619Y-72187318D01*
X89871466Y-72182511D01*
X89864727Y-72177982D01*
X89855464Y-72164039D01*
X89801544Y-72118731D01*
X89731684Y-72109767D01*
X89647602Y-72163486D01*
X89638266Y-72177379D01*
X89625912Y-72185586D01*
X89624325Y-72186640D01*
X89579015Y-72240564D01*
X89570052Y-72310424D01*
X89027027Y-72310424D01*
X89032342Y-72269003D01*
X88978623Y-72184923D01*
X88964730Y-72175587D01*
X88953503Y-72158687D01*
X88949598Y-72138778D01*
X88949598Y-72138773D01*
X88947183Y-72126460D01*
X88948713Y-71551083D01*
X88955205Y-71518891D01*
X88958192Y-71514446D01*
X88966522Y-71502051D01*
X88977970Y-71494446D01*
X88983420Y-71490825D01*
X88983421Y-71490825D01*
X88983422Y-71490824D01*
X89003331Y-71486919D01*
X89003336Y-71486919D01*
X89015649Y-71484504D01*
X89591026Y-71486034D01*
G37*
G36*
X92291026Y-71476034D02*
G01*
X92303329Y-71478515D01*
X92323218Y-71482526D01*
X92340058Y-71493843D01*
X92349321Y-71507786D01*
X92403241Y-71553094D01*
X92473101Y-71562058D01*
X92557183Y-71508339D01*
X92566519Y-71494446D01*
X92577879Y-71486899D01*
X92583417Y-71483220D01*
X92583418Y-71483220D01*
X92583419Y-71483219D01*
X92603328Y-71479314D01*
X92603333Y-71479314D01*
X92615646Y-71476899D01*
X93191023Y-71478429D01*
X93203326Y-71480910D01*
X93223215Y-71484921D01*
X93240055Y-71496238D01*
X93251282Y-71513138D01*
X93255187Y-71533047D01*
X93255187Y-71533052D01*
X93257602Y-71545365D01*
X93256072Y-72120742D01*
X93253591Y-72133045D01*
X93249580Y-72152934D01*
X93238263Y-72169774D01*
X93224322Y-72179035D01*
X93179014Y-72232957D01*
X93170050Y-72302817D01*
X93223769Y-72386898D01*
X93237661Y-72396234D01*
X93248888Y-72413134D01*
X93252793Y-72433043D01*
X93252793Y-72433048D01*
X93255208Y-72445361D01*
X93253678Y-73020738D01*
X93251197Y-73033041D01*
X93247186Y-73052930D01*
X93235869Y-73069770D01*
X93227117Y-73075584D01*
X93223514Y-73077978D01*
X93218969Y-73080997D01*
X93199060Y-73084902D01*
X93199055Y-73084902D01*
X93186742Y-73087317D01*
X92611365Y-73085787D01*
X92579173Y-73079295D01*
X92577212Y-73077977D01*
X92562333Y-73067978D01*
X92553071Y-73054036D01*
X92499148Y-73008727D01*
X92429288Y-72999764D01*
X92345208Y-73053483D01*
X92335872Y-73067376D01*
X92325845Y-73074037D01*
X92319915Y-73077977D01*
X92318972Y-73078603D01*
X92299063Y-73082508D01*
X92299058Y-73082508D01*
X92286745Y-73084923D01*
X91711368Y-73083393D01*
X91693403Y-73079770D01*
X91679176Y-73076901D01*
X91662336Y-73065584D01*
X91651109Y-73048684D01*
X91647204Y-73028775D01*
X91647204Y-73028770D01*
X91644789Y-73016457D01*
X91646319Y-72441080D01*
X91652811Y-72408888D01*
X91656203Y-72403841D01*
X91664128Y-72392048D01*
X91678070Y-72382786D01*
X91723379Y-72328863D01*
X91727027Y-72300424D01*
X92270052Y-72300424D01*
X92323771Y-72384504D01*
X92337664Y-72393840D01*
X92346925Y-72407781D01*
X92400849Y-72453091D01*
X92470709Y-72462054D01*
X92554789Y-72408335D01*
X92564125Y-72394442D01*
X92578066Y-72385181D01*
X92623374Y-72331259D01*
X92632338Y-72261399D01*
X92578619Y-72177318D01*
X92565779Y-72168689D01*
X92564727Y-72167982D01*
X92555464Y-72154039D01*
X92501544Y-72108731D01*
X92431684Y-72099767D01*
X92347602Y-72153486D01*
X92338266Y-72167379D01*
X92325912Y-72175586D01*
X92324325Y-72176640D01*
X92279015Y-72230564D01*
X92270052Y-72300424D01*
X91727027Y-72300424D01*
X91732342Y-72259003D01*
X91678623Y-72174923D01*
X91664730Y-72165587D01*
X91653503Y-72148687D01*
X91649598Y-72128778D01*
X91649598Y-72128773D01*
X91647183Y-72116460D01*
X91648713Y-71541083D01*
X91655205Y-71508891D01*
X91658192Y-71504446D01*
X91666522Y-71492051D01*
X91680860Y-71482526D01*
X91683420Y-71480825D01*
X91683421Y-71480825D01*
X91683422Y-71480824D01*
X91703331Y-71476919D01*
X91703336Y-71476919D01*
X91715649Y-71474504D01*
X92291026Y-71476034D01*
G37*
G36*
X94990787Y-69595834D02*
G01*
X95003086Y-69598312D01*
X95003091Y-69598312D01*
X95022981Y-69602319D01*
X95039823Y-69613633D01*
X95049087Y-69627573D01*
X95103020Y-69672872D01*
X95172881Y-69681822D01*
X95256950Y-69628088D01*
X95266285Y-69614192D01*
X95275471Y-69608087D01*
X95283182Y-69602962D01*
X95315404Y-69596635D01*
X95890785Y-69598057D01*
X95903084Y-69600535D01*
X95903089Y-69600535D01*
X95922979Y-69604542D01*
X95939821Y-69615856D01*
X95941785Y-69618811D01*
X95951051Y-69632753D01*
X95957378Y-69664975D01*
X95955956Y-70240356D01*
X95953478Y-70252655D01*
X95953478Y-70252660D01*
X95949471Y-70272550D01*
X95938157Y-70289392D01*
X95933769Y-70292308D01*
X95924216Y-70298657D01*
X95878918Y-70352590D01*
X95869969Y-70422452D01*
X95923704Y-70506520D01*
X95937597Y-70515853D01*
X95948827Y-70532750D01*
X95955154Y-70564972D01*
X95953732Y-71140353D01*
X95951254Y-71152652D01*
X95951254Y-71152657D01*
X95947247Y-71172547D01*
X95935933Y-71189389D01*
X95935931Y-71189390D01*
X95919036Y-71200619D01*
X95886814Y-71206946D01*
X95311433Y-71205524D01*
X95299134Y-71203046D01*
X95299129Y-71203046D01*
X95279239Y-71199039D01*
X95262397Y-71187725D01*
X95253132Y-71173784D01*
X95199199Y-71128486D01*
X95129337Y-71119537D01*
X95045270Y-71173272D01*
X95035936Y-71187166D01*
X95035935Y-71187167D01*
X95019039Y-71198396D01*
X94986817Y-71204723D01*
X94411436Y-71203301D01*
X94399137Y-71200823D01*
X94399132Y-71200823D01*
X94379242Y-71196816D01*
X94362400Y-71185502D01*
X94358104Y-71179038D01*
X94351170Y-71168605D01*
X94344843Y-71136383D01*
X94346265Y-70561002D01*
X94348743Y-70548703D01*
X94348743Y-70548698D01*
X94352750Y-70528808D01*
X94364064Y-70511966D01*
X94378005Y-70502701D01*
X94423303Y-70448768D01*
X94426958Y-70420229D01*
X94969971Y-70420229D01*
X95023706Y-70504296D01*
X95037600Y-70513630D01*
X95046865Y-70527571D01*
X95100798Y-70572869D01*
X95170660Y-70581818D01*
X95254727Y-70528083D01*
X95264061Y-70514189D01*
X95278002Y-70504924D01*
X95323300Y-70450991D01*
X95332249Y-70381129D01*
X95278514Y-70297061D01*
X95264622Y-70287729D01*
X95262497Y-70284531D01*
X95255357Y-70273788D01*
X95201424Y-70228489D01*
X95131563Y-70219539D01*
X95047494Y-70273273D01*
X95038159Y-70287169D01*
X95032963Y-70290622D01*
X95024218Y-70296434D01*
X94978920Y-70350367D01*
X94969971Y-70420229D01*
X94426958Y-70420229D01*
X94432252Y-70378906D01*
X94378517Y-70294839D01*
X94364623Y-70285505D01*
X94364179Y-70284837D01*
X94353393Y-70268608D01*
X94347066Y-70236386D01*
X94348488Y-69661005D01*
X94350966Y-69648706D01*
X94350966Y-69648701D01*
X94354973Y-69628811D01*
X94366287Y-69611969D01*
X94377461Y-69604543D01*
X94383184Y-69600739D01*
X94415406Y-69594412D01*
X94990787Y-69595834D01*
G37*
G36*
X86890787Y-69595834D02*
G01*
X86903086Y-69598312D01*
X86903091Y-69598312D01*
X86922981Y-69602319D01*
X86939823Y-69613633D01*
X86949087Y-69627573D01*
X87003020Y-69672872D01*
X87072881Y-69681822D01*
X87156950Y-69628088D01*
X87166285Y-69614192D01*
X87175471Y-69608087D01*
X87183182Y-69602962D01*
X87215404Y-69596635D01*
X87790785Y-69598057D01*
X87803084Y-69600535D01*
X87803089Y-69600535D01*
X87822979Y-69604542D01*
X87839821Y-69615856D01*
X87841785Y-69618811D01*
X87851051Y-69632753D01*
X87857378Y-69664975D01*
X87855956Y-70240356D01*
X87853478Y-70252655D01*
X87853478Y-70252660D01*
X87849471Y-70272550D01*
X87838157Y-70289392D01*
X87833769Y-70292308D01*
X87824216Y-70298657D01*
X87778918Y-70352590D01*
X87769969Y-70422452D01*
X87823704Y-70506520D01*
X87837597Y-70515853D01*
X87848827Y-70532750D01*
X87855154Y-70564972D01*
X87853732Y-71140353D01*
X87851254Y-71152652D01*
X87851254Y-71152657D01*
X87847247Y-71172547D01*
X87835933Y-71189389D01*
X87835931Y-71189390D01*
X87819036Y-71200619D01*
X87786814Y-71206946D01*
X87211433Y-71205524D01*
X87199134Y-71203046D01*
X87199129Y-71203046D01*
X87179239Y-71199039D01*
X87162397Y-71187725D01*
X87153132Y-71173784D01*
X87099199Y-71128486D01*
X87029337Y-71119537D01*
X86945270Y-71173272D01*
X86935936Y-71187166D01*
X86935935Y-71187167D01*
X86919039Y-71198396D01*
X86886817Y-71204723D01*
X86311436Y-71203301D01*
X86299137Y-71200823D01*
X86299132Y-71200823D01*
X86279242Y-71196816D01*
X86262400Y-71185502D01*
X86258104Y-71179038D01*
X86251170Y-71168605D01*
X86244843Y-71136383D01*
X86246265Y-70561002D01*
X86248743Y-70548703D01*
X86248743Y-70548698D01*
X86252750Y-70528808D01*
X86264064Y-70511966D01*
X86278005Y-70502701D01*
X86323303Y-70448768D01*
X86326958Y-70420229D01*
X86869971Y-70420229D01*
X86923706Y-70504296D01*
X86937600Y-70513630D01*
X86946865Y-70527571D01*
X87000798Y-70572869D01*
X87070660Y-70581818D01*
X87154727Y-70528083D01*
X87164061Y-70514189D01*
X87178002Y-70504924D01*
X87223300Y-70450991D01*
X87232249Y-70381129D01*
X87178514Y-70297061D01*
X87164622Y-70287729D01*
X87162497Y-70284531D01*
X87155357Y-70273788D01*
X87101424Y-70228489D01*
X87031563Y-70219539D01*
X86947494Y-70273273D01*
X86938159Y-70287169D01*
X86932963Y-70290622D01*
X86924218Y-70296434D01*
X86878920Y-70350367D01*
X86869971Y-70420229D01*
X86326958Y-70420229D01*
X86332252Y-70378906D01*
X86278517Y-70294839D01*
X86264623Y-70285505D01*
X86264179Y-70284837D01*
X86253393Y-70268608D01*
X86247066Y-70236386D01*
X86248488Y-69661005D01*
X86250966Y-69648706D01*
X86250966Y-69648701D01*
X86254973Y-69628811D01*
X86266287Y-69611969D01*
X86277461Y-69604543D01*
X86283184Y-69600739D01*
X86315406Y-69594412D01*
X86890787Y-69595834D01*
G37*
G36*
X89590787Y-69585834D02*
G01*
X89603086Y-69588312D01*
X89603091Y-69588312D01*
X89622981Y-69592319D01*
X89639823Y-69603633D01*
X89646840Y-69614192D01*
X89649087Y-69617573D01*
X89703020Y-69662872D01*
X89772881Y-69671822D01*
X89856950Y-69618088D01*
X89866285Y-69604192D01*
X89874018Y-69599053D01*
X89883182Y-69592962D01*
X89915404Y-69586635D01*
X90490785Y-69588057D01*
X90503084Y-69590535D01*
X90503089Y-69590535D01*
X90522979Y-69594542D01*
X90539821Y-69605856D01*
X90541785Y-69608811D01*
X90551051Y-69622753D01*
X90557378Y-69654975D01*
X90555956Y-70230356D01*
X90553478Y-70242655D01*
X90553478Y-70242660D01*
X90549471Y-70262550D01*
X90538157Y-70279392D01*
X90527561Y-70286434D01*
X90524216Y-70288657D01*
X90478918Y-70342590D01*
X90469969Y-70412452D01*
X90523704Y-70496520D01*
X90537597Y-70505853D01*
X90548827Y-70522750D01*
X90555154Y-70554972D01*
X90553732Y-71130353D01*
X90551254Y-71142652D01*
X90551254Y-71142657D01*
X90547247Y-71162547D01*
X90535933Y-71179389D01*
X90535931Y-71179390D01*
X90519036Y-71190619D01*
X90486814Y-71196946D01*
X89911433Y-71195524D01*
X89899134Y-71193046D01*
X89899129Y-71193046D01*
X89879239Y-71189039D01*
X89862397Y-71177725D01*
X89853132Y-71163784D01*
X89799199Y-71118486D01*
X89729337Y-71109537D01*
X89645270Y-71163272D01*
X89636171Y-71176816D01*
X89635935Y-71177167D01*
X89619039Y-71188396D01*
X89586817Y-71194723D01*
X89011436Y-71193301D01*
X88999137Y-71190823D01*
X88999132Y-71190823D01*
X88979242Y-71186816D01*
X88962400Y-71175502D01*
X88957816Y-71168604D01*
X88951170Y-71158605D01*
X88944843Y-71126383D01*
X88946265Y-70551002D01*
X88948743Y-70538703D01*
X88948743Y-70538698D01*
X88952750Y-70518808D01*
X88964064Y-70501966D01*
X88978005Y-70492701D01*
X89023303Y-70438768D01*
X89026958Y-70410229D01*
X89569971Y-70410229D01*
X89623706Y-70494296D01*
X89630782Y-70499050D01*
X89637600Y-70503630D01*
X89646865Y-70517571D01*
X89700798Y-70562869D01*
X89770660Y-70571818D01*
X89854727Y-70518083D01*
X89864061Y-70504189D01*
X89878002Y-70494924D01*
X89923300Y-70440991D01*
X89932249Y-70371129D01*
X89878514Y-70287061D01*
X89864622Y-70277729D01*
X89859703Y-70270327D01*
X89855357Y-70263788D01*
X89801424Y-70218489D01*
X89731563Y-70209539D01*
X89647494Y-70263273D01*
X89638159Y-70277169D01*
X89632963Y-70280622D01*
X89624218Y-70286434D01*
X89578920Y-70340367D01*
X89569971Y-70410229D01*
X89026958Y-70410229D01*
X89032252Y-70368906D01*
X88978517Y-70284839D01*
X88964623Y-70275505D01*
X88962659Y-70272550D01*
X88953393Y-70258608D01*
X88947066Y-70226386D01*
X88948488Y-69651005D01*
X88950966Y-69638706D01*
X88950966Y-69638701D01*
X88954973Y-69618811D01*
X88966287Y-69601969D01*
X88977461Y-69594543D01*
X88983184Y-69590739D01*
X89015406Y-69584412D01*
X89590787Y-69585834D01*
G37*
G36*
X92290787Y-69575834D02*
G01*
X92303086Y-69578312D01*
X92303091Y-69578312D01*
X92322981Y-69582319D01*
X92339823Y-69593633D01*
X92347946Y-69605856D01*
X92349087Y-69607573D01*
X92403020Y-69652872D01*
X92472881Y-69661822D01*
X92556950Y-69608088D01*
X92566285Y-69594192D01*
X92574018Y-69589053D01*
X92583182Y-69582962D01*
X92615404Y-69576635D01*
X93190785Y-69578057D01*
X93203084Y-69580535D01*
X93203089Y-69580535D01*
X93222979Y-69584542D01*
X93239821Y-69595856D01*
X93243066Y-69600739D01*
X93251051Y-69612753D01*
X93257378Y-69644975D01*
X93255956Y-70220356D01*
X93253478Y-70232655D01*
X93253478Y-70232660D01*
X93249471Y-70252550D01*
X93238157Y-70269392D01*
X93227561Y-70276434D01*
X93224216Y-70278657D01*
X93178918Y-70332590D01*
X93169969Y-70402452D01*
X93223704Y-70486520D01*
X93237597Y-70495853D01*
X93248827Y-70512750D01*
X93255154Y-70544972D01*
X93253732Y-71120353D01*
X93251254Y-71132652D01*
X93251254Y-71132657D01*
X93247247Y-71152547D01*
X93235933Y-71169389D01*
X93235931Y-71169390D01*
X93219036Y-71180619D01*
X93186814Y-71186946D01*
X92611433Y-71185524D01*
X92599134Y-71183046D01*
X92599129Y-71183046D01*
X92579239Y-71179039D01*
X92562397Y-71167725D01*
X92553132Y-71153784D01*
X92499199Y-71108486D01*
X92429337Y-71099537D01*
X92345270Y-71153272D01*
X92335936Y-71167166D01*
X92335935Y-71167167D01*
X92319039Y-71178396D01*
X92286817Y-71184723D01*
X91711436Y-71183301D01*
X91699137Y-71180823D01*
X91699132Y-71180823D01*
X91679242Y-71176816D01*
X91662400Y-71165502D01*
X91657816Y-71158604D01*
X91651170Y-71148605D01*
X91644843Y-71116383D01*
X91646265Y-70541002D01*
X91648743Y-70528703D01*
X91648743Y-70528698D01*
X91652750Y-70508808D01*
X91664064Y-70491966D01*
X91678005Y-70482701D01*
X91723303Y-70428768D01*
X91726958Y-70400229D01*
X92269971Y-70400229D01*
X92323706Y-70484296D01*
X92330782Y-70489050D01*
X92337600Y-70493630D01*
X92346865Y-70507571D01*
X92400798Y-70552869D01*
X92470660Y-70561818D01*
X92554727Y-70508083D01*
X92564061Y-70494189D01*
X92578002Y-70484924D01*
X92623300Y-70430991D01*
X92632249Y-70361129D01*
X92578514Y-70277061D01*
X92564622Y-70267729D01*
X92559703Y-70260327D01*
X92555357Y-70253788D01*
X92501424Y-70208489D01*
X92431563Y-70199539D01*
X92347494Y-70253273D01*
X92338159Y-70267169D01*
X92328199Y-70273788D01*
X92324218Y-70276434D01*
X92278920Y-70330367D01*
X92269971Y-70400229D01*
X91726958Y-70400229D01*
X91732252Y-70358906D01*
X91678517Y-70274839D01*
X91664623Y-70265505D01*
X91662659Y-70262550D01*
X91653393Y-70248608D01*
X91647066Y-70216386D01*
X91648488Y-69641005D01*
X91650966Y-69628706D01*
X91650966Y-69628701D01*
X91654973Y-69608811D01*
X91666287Y-69591969D01*
X91677461Y-69584543D01*
X91683184Y-69580739D01*
X91715406Y-69574412D01*
X92290787Y-69575834D01*
G37*
G36*
X94990548Y-67695630D02*
G01*
X95002853Y-67698107D01*
X95002854Y-67698107D01*
X95022744Y-67702111D01*
X95037302Y-67711886D01*
X95039589Y-67713422D01*
X95048856Y-67727359D01*
X95102797Y-67772648D01*
X95172660Y-67781585D01*
X95256721Y-67727832D01*
X95257039Y-67727359D01*
X95266050Y-67713938D01*
X95282945Y-67702705D01*
X95282946Y-67702705D01*
X95282947Y-67702704D01*
X95315167Y-67696371D01*
X95890546Y-67697683D01*
X95902851Y-67700160D01*
X95902852Y-67700160D01*
X95915489Y-67702704D01*
X95922742Y-67704164D01*
X95937299Y-67713938D01*
X95939586Y-67715474D01*
X95949764Y-67730782D01*
X95950820Y-67732371D01*
X95957153Y-67764591D01*
X95955841Y-68339970D01*
X95953364Y-68352275D01*
X95953364Y-68352276D01*
X95949995Y-68369010D01*
X95949360Y-68372166D01*
X95939082Y-68387474D01*
X95938050Y-68389010D01*
X95924113Y-68398276D01*
X95878824Y-68452217D01*
X95869887Y-68522080D01*
X95923640Y-68606142D01*
X95937534Y-68615471D01*
X95947639Y-68630669D01*
X95948768Y-68632368D01*
X95955101Y-68664588D01*
X95953789Y-69239967D01*
X95951312Y-69252272D01*
X95951312Y-69252273D01*
X95947943Y-69269007D01*
X95947308Y-69272163D01*
X95936548Y-69288189D01*
X95935998Y-69289007D01*
X95921297Y-69298781D01*
X95919101Y-69300241D01*
X95886881Y-69306574D01*
X95311502Y-69305262D01*
X95299197Y-69302785D01*
X95299196Y-69302785D01*
X95279306Y-69298781D01*
X95262462Y-69287471D01*
X95262461Y-69287470D01*
X95253194Y-69273533D01*
X95199253Y-69228244D01*
X95129390Y-69219307D01*
X95045330Y-69273060D01*
X95036000Y-69286955D01*
X95021299Y-69296729D01*
X95019103Y-69298189D01*
X94986883Y-69304522D01*
X94411504Y-69303210D01*
X94399199Y-69300733D01*
X94399198Y-69300733D01*
X94379308Y-69296729D01*
X94376021Y-69294522D01*
X94362465Y-69285420D01*
X94361623Y-69284153D01*
X94351231Y-69268524D01*
X94351231Y-69268523D01*
X94351230Y-69268522D01*
X94344897Y-69236302D01*
X94346209Y-68660923D01*
X94352690Y-68628727D01*
X94360008Y-68617829D01*
X94364000Y-68611883D01*
X94364001Y-68611883D01*
X94364001Y-68611882D01*
X94377938Y-68602615D01*
X94423227Y-68548674D01*
X94426891Y-68520029D01*
X94969888Y-68520029D01*
X95023641Y-68604089D01*
X95037536Y-68613419D01*
X95037537Y-68613421D01*
X95037539Y-68613422D01*
X95046804Y-68627357D01*
X95100745Y-68672646D01*
X95170608Y-68681583D01*
X95254668Y-68627830D01*
X95263998Y-68613935D01*
X95277936Y-68604668D01*
X95323224Y-68550728D01*
X95332161Y-68480865D01*
X95278408Y-68396803D01*
X95264514Y-68387474D01*
X95264512Y-68387472D01*
X95255246Y-68373536D01*
X95201305Y-68328247D01*
X95131442Y-68319310D01*
X95047381Y-68373063D01*
X95038052Y-68386957D01*
X95038050Y-68386959D01*
X95024114Y-68396225D01*
X94978825Y-68450166D01*
X94969888Y-68520029D01*
X94426891Y-68520029D01*
X94432164Y-68478811D01*
X94378411Y-68394751D01*
X94364516Y-68385421D01*
X94353283Y-68368526D01*
X94353283Y-68368525D01*
X94353282Y-68368524D01*
X94346949Y-68336304D01*
X94348261Y-67760925D01*
X94352015Y-67742278D01*
X94354742Y-67728729D01*
X94360391Y-67720316D01*
X94366051Y-67711886D01*
X94366052Y-67711886D01*
X94366052Y-67711885D01*
X94382947Y-67700652D01*
X94382948Y-67700652D01*
X94382949Y-67700651D01*
X94415169Y-67694318D01*
X94990548Y-67695630D01*
G37*
G36*
X86890548Y-67695630D02*
G01*
X86902853Y-67698107D01*
X86902854Y-67698107D01*
X86922744Y-67702111D01*
X86937302Y-67711886D01*
X86939589Y-67713422D01*
X86948856Y-67727359D01*
X87002797Y-67772648D01*
X87072660Y-67781585D01*
X87156721Y-67727832D01*
X87157039Y-67727359D01*
X87166050Y-67713938D01*
X87182945Y-67702705D01*
X87182946Y-67702705D01*
X87182947Y-67702704D01*
X87215167Y-67696371D01*
X87790546Y-67697683D01*
X87802851Y-67700160D01*
X87802852Y-67700160D01*
X87815489Y-67702704D01*
X87822742Y-67704164D01*
X87837299Y-67713938D01*
X87839586Y-67715474D01*
X87849764Y-67730782D01*
X87850820Y-67732371D01*
X87857153Y-67764591D01*
X87855841Y-68339970D01*
X87853364Y-68352275D01*
X87853364Y-68352276D01*
X87849995Y-68369010D01*
X87849360Y-68372166D01*
X87839082Y-68387474D01*
X87838050Y-68389010D01*
X87824113Y-68398276D01*
X87778824Y-68452217D01*
X87769887Y-68522080D01*
X87823640Y-68606142D01*
X87837534Y-68615471D01*
X87847639Y-68630669D01*
X87848768Y-68632368D01*
X87855101Y-68664588D01*
X87853789Y-69239967D01*
X87851312Y-69252272D01*
X87851312Y-69252273D01*
X87847943Y-69269007D01*
X87847308Y-69272163D01*
X87836548Y-69288189D01*
X87835998Y-69289007D01*
X87821297Y-69298781D01*
X87819101Y-69300241D01*
X87786881Y-69306574D01*
X87211502Y-69305262D01*
X87199197Y-69302785D01*
X87199196Y-69302785D01*
X87179306Y-69298781D01*
X87162462Y-69287471D01*
X87162461Y-69287470D01*
X87153194Y-69273533D01*
X87099253Y-69228244D01*
X87029390Y-69219307D01*
X86945330Y-69273060D01*
X86936000Y-69286955D01*
X86921299Y-69296729D01*
X86919103Y-69298189D01*
X86886883Y-69304522D01*
X86311504Y-69303210D01*
X86299199Y-69300733D01*
X86299198Y-69300733D01*
X86279308Y-69296729D01*
X86276021Y-69294522D01*
X86262465Y-69285420D01*
X86261623Y-69284153D01*
X86251231Y-69268524D01*
X86251231Y-69268523D01*
X86251230Y-69268522D01*
X86244897Y-69236302D01*
X86246209Y-68660923D01*
X86252690Y-68628727D01*
X86260008Y-68617829D01*
X86264000Y-68611883D01*
X86264001Y-68611883D01*
X86264001Y-68611882D01*
X86277938Y-68602615D01*
X86323227Y-68548674D01*
X86326891Y-68520029D01*
X86869888Y-68520029D01*
X86923641Y-68604089D01*
X86937536Y-68613419D01*
X86937537Y-68613421D01*
X86937539Y-68613422D01*
X86946804Y-68627357D01*
X87000745Y-68672646D01*
X87070608Y-68681583D01*
X87154668Y-68627830D01*
X87163998Y-68613935D01*
X87177936Y-68604668D01*
X87223224Y-68550728D01*
X87232161Y-68480865D01*
X87178408Y-68396803D01*
X87164514Y-68387474D01*
X87164512Y-68387472D01*
X87155246Y-68373536D01*
X87101305Y-68328247D01*
X87031442Y-68319310D01*
X86947381Y-68373063D01*
X86938052Y-68386957D01*
X86938050Y-68386959D01*
X86924114Y-68396225D01*
X86878825Y-68450166D01*
X86869888Y-68520029D01*
X86326891Y-68520029D01*
X86332164Y-68478811D01*
X86278411Y-68394751D01*
X86264516Y-68385421D01*
X86253283Y-68368526D01*
X86253283Y-68368525D01*
X86253282Y-68368524D01*
X86246949Y-68336304D01*
X86248261Y-67760925D01*
X86252015Y-67742278D01*
X86254742Y-67728729D01*
X86260391Y-67720316D01*
X86266051Y-67711886D01*
X86266052Y-67711886D01*
X86266052Y-67711885D01*
X86282947Y-67700652D01*
X86282948Y-67700652D01*
X86282949Y-67700651D01*
X86315169Y-67694318D01*
X86890548Y-67695630D01*
G37*
G36*
X89590548Y-67685630D02*
G01*
X89602853Y-67688107D01*
X89602854Y-67688107D01*
X89622744Y-67692111D01*
X89638522Y-67702705D01*
X89639589Y-67703422D01*
X89648856Y-67717359D01*
X89702797Y-67762648D01*
X89772660Y-67771585D01*
X89856721Y-67717832D01*
X89857039Y-67717359D01*
X89866050Y-67703938D01*
X89882945Y-67692705D01*
X89882946Y-67692705D01*
X89882947Y-67692704D01*
X89915167Y-67686371D01*
X90490546Y-67687683D01*
X90502851Y-67690160D01*
X90502852Y-67690160D01*
X90515489Y-67692704D01*
X90522742Y-67694164D01*
X90537299Y-67703938D01*
X90539586Y-67705474D01*
X90547488Y-67717359D01*
X90550820Y-67722371D01*
X90557153Y-67754591D01*
X90555841Y-68329970D01*
X90553364Y-68342275D01*
X90553364Y-68342276D01*
X90551674Y-68350670D01*
X90549360Y-68362166D01*
X90539082Y-68377474D01*
X90538050Y-68379010D01*
X90524113Y-68388276D01*
X90478824Y-68442217D01*
X90469887Y-68512080D01*
X90523640Y-68596142D01*
X90537534Y-68605471D01*
X90547403Y-68620314D01*
X90548768Y-68622368D01*
X90555101Y-68654588D01*
X90553789Y-69229967D01*
X90551312Y-69242272D01*
X90551312Y-69242273D01*
X90549622Y-69250667D01*
X90547308Y-69262163D01*
X90536548Y-69278189D01*
X90535998Y-69279007D01*
X90521297Y-69288781D01*
X90519101Y-69290241D01*
X90486881Y-69296574D01*
X89911502Y-69295262D01*
X89899197Y-69292785D01*
X89899196Y-69292785D01*
X89879306Y-69288781D01*
X89862462Y-69277471D01*
X89862461Y-69277470D01*
X89853194Y-69263533D01*
X89799253Y-69218244D01*
X89729390Y-69209307D01*
X89645330Y-69263060D01*
X89636000Y-69276955D01*
X89620183Y-69287471D01*
X89619103Y-69288189D01*
X89586883Y-69294522D01*
X89011504Y-69293210D01*
X88999199Y-69290733D01*
X88999198Y-69290733D01*
X88979308Y-69286729D01*
X88979077Y-69286574D01*
X88962465Y-69275420D01*
X88960897Y-69273061D01*
X88951231Y-69258524D01*
X88951231Y-69258523D01*
X88951230Y-69258522D01*
X88944897Y-69226302D01*
X88946209Y-68650923D01*
X88950358Y-68630314D01*
X88952690Y-68618727D01*
X88964000Y-68601883D01*
X88964001Y-68601883D01*
X88964001Y-68601882D01*
X88977938Y-68592615D01*
X89023227Y-68538674D01*
X89026891Y-68510029D01*
X89569888Y-68510029D01*
X89623641Y-68594089D01*
X89637536Y-68603419D01*
X89637537Y-68603421D01*
X89637539Y-68603422D01*
X89646804Y-68617357D01*
X89700745Y-68662646D01*
X89770608Y-68671583D01*
X89854668Y-68617830D01*
X89863998Y-68603935D01*
X89877936Y-68594668D01*
X89923224Y-68540728D01*
X89932161Y-68470865D01*
X89878408Y-68386803D01*
X89864514Y-68377474D01*
X89864512Y-68377472D01*
X89855246Y-68363536D01*
X89801305Y-68318247D01*
X89731442Y-68309310D01*
X89647381Y-68363063D01*
X89638052Y-68376957D01*
X89638050Y-68376959D01*
X89624114Y-68386225D01*
X89578825Y-68440166D01*
X89569888Y-68510029D01*
X89026891Y-68510029D01*
X89032164Y-68468811D01*
X88978411Y-68384751D01*
X88964516Y-68375421D01*
X88953283Y-68358526D01*
X88953283Y-68358525D01*
X88953282Y-68358524D01*
X88946949Y-68326304D01*
X88948261Y-67750925D01*
X88952015Y-67732278D01*
X88954742Y-67718729D01*
X88960391Y-67710316D01*
X88966051Y-67701886D01*
X88966052Y-67701886D01*
X88966052Y-67701885D01*
X88982947Y-67690652D01*
X88982948Y-67690652D01*
X88982949Y-67690651D01*
X89015169Y-67684318D01*
X89590548Y-67685630D01*
G37*
G36*
X92290548Y-67675630D02*
G01*
X92302853Y-67678107D01*
X92302854Y-67678107D01*
X92322744Y-67682111D01*
X92338522Y-67692705D01*
X92339589Y-67693422D01*
X92348856Y-67707359D01*
X92402797Y-67752648D01*
X92472660Y-67761585D01*
X92556721Y-67707832D01*
X92557039Y-67707359D01*
X92566050Y-67693938D01*
X92582945Y-67682705D01*
X92582946Y-67682705D01*
X92582947Y-67682704D01*
X92615167Y-67676371D01*
X93190546Y-67677683D01*
X93202851Y-67680160D01*
X93202852Y-67680160D01*
X93215489Y-67682704D01*
X93222742Y-67684164D01*
X93237865Y-67694318D01*
X93239586Y-67695474D01*
X93247488Y-67707359D01*
X93250820Y-67712371D01*
X93257153Y-67744591D01*
X93255841Y-68319970D01*
X93253364Y-68332275D01*
X93253364Y-68332276D01*
X93251815Y-68339970D01*
X93249360Y-68352166D01*
X93238377Y-68368524D01*
X93238050Y-68369010D01*
X93224113Y-68378276D01*
X93178824Y-68432217D01*
X93169887Y-68502080D01*
X93223640Y-68586142D01*
X93237534Y-68595471D01*
X93247403Y-68610314D01*
X93248768Y-68612368D01*
X93255101Y-68644588D01*
X93253789Y-69219967D01*
X93247308Y-69252163D01*
X93236323Y-69268524D01*
X93235998Y-69269007D01*
X93221297Y-69278781D01*
X93219101Y-69280241D01*
X93186881Y-69286574D01*
X92611502Y-69285262D01*
X92599197Y-69282785D01*
X92599196Y-69282785D01*
X92579306Y-69278781D01*
X92562462Y-69267471D01*
X92562461Y-69267470D01*
X92553194Y-69253533D01*
X92499253Y-69208244D01*
X92429390Y-69199307D01*
X92345330Y-69253060D01*
X92336000Y-69266955D01*
X92320183Y-69277471D01*
X92319103Y-69278189D01*
X92286883Y-69284522D01*
X91711504Y-69283210D01*
X91699199Y-69280733D01*
X91699198Y-69280733D01*
X91679308Y-69276729D01*
X91662465Y-69265420D01*
X91660897Y-69263061D01*
X91651231Y-69248524D01*
X91651231Y-69248523D01*
X91651230Y-69248522D01*
X91644897Y-69216302D01*
X91646209Y-68640923D01*
X91650358Y-68620314D01*
X91652690Y-68608727D01*
X91664000Y-68591883D01*
X91664001Y-68591883D01*
X91664001Y-68591882D01*
X91677938Y-68582615D01*
X91723227Y-68528674D01*
X91726891Y-68500029D01*
X92269888Y-68500029D01*
X92323641Y-68584089D01*
X92337536Y-68593419D01*
X92337537Y-68593421D01*
X92337539Y-68593422D01*
X92346804Y-68607357D01*
X92400745Y-68652646D01*
X92470608Y-68661583D01*
X92554668Y-68607830D01*
X92563998Y-68593935D01*
X92577936Y-68584668D01*
X92623224Y-68530728D01*
X92632161Y-68460865D01*
X92578408Y-68376803D01*
X92564514Y-68367474D01*
X92564512Y-68367472D01*
X92555246Y-68353536D01*
X92501305Y-68308247D01*
X92431442Y-68299310D01*
X92347381Y-68353063D01*
X92338052Y-68366957D01*
X92338050Y-68366959D01*
X92324114Y-68376225D01*
X92278825Y-68430166D01*
X92269888Y-68500029D01*
X91726891Y-68500029D01*
X91732164Y-68458811D01*
X91678411Y-68374751D01*
X91664516Y-68365421D01*
X91653283Y-68348526D01*
X91653283Y-68348525D01*
X91653282Y-68348524D01*
X91646949Y-68316304D01*
X91648261Y-67740925D01*
X91650897Y-67727832D01*
X91654742Y-67708729D01*
X91658787Y-67702705D01*
X91666051Y-67691886D01*
X91666052Y-67691886D01*
X91666052Y-67691885D01*
X91682947Y-67680652D01*
X91682948Y-67680652D01*
X91682949Y-67680651D01*
X91715169Y-67674318D01*
X92290548Y-67675630D01*
G37*
G36*
X86890311Y-65795428D02*
G01*
X86922507Y-65801902D01*
X86939351Y-65813208D01*
X86939353Y-65813210D01*
X86948622Y-65827146D01*
X87002572Y-65872424D01*
X87072437Y-65881348D01*
X87156487Y-65827581D01*
X87165815Y-65813683D01*
X87171197Y-65810103D01*
X87182707Y-65802446D01*
X87214931Y-65796107D01*
X87790309Y-65797309D01*
X87822505Y-65803783D01*
X87839351Y-65815090D01*
X87850588Y-65831983D01*
X87856927Y-65864207D01*
X87855725Y-66439585D01*
X87849251Y-66471781D01*
X87837945Y-66488625D01*
X87837943Y-66488627D01*
X87826835Y-66496015D01*
X87824007Y-66497896D01*
X87778729Y-66551846D01*
X87769805Y-66621711D01*
X87823572Y-66705761D01*
X87837470Y-66715089D01*
X87839331Y-66717886D01*
X87848707Y-66731981D01*
X87855046Y-66764205D01*
X87853844Y-67339583D01*
X87847370Y-67371779D01*
X87836063Y-67388625D01*
X87819170Y-67399862D01*
X87786946Y-67406201D01*
X87211568Y-67404999D01*
X87179372Y-67398525D01*
X87162528Y-67387219D01*
X87162526Y-67387217D01*
X87153257Y-67373281D01*
X87099307Y-67328003D01*
X87029442Y-67319079D01*
X86945392Y-67372846D01*
X86936064Y-67386744D01*
X86934206Y-67387980D01*
X86919172Y-67397981D01*
X86886948Y-67404320D01*
X86311570Y-67403118D01*
X86279374Y-67396644D01*
X86262528Y-67385337D01*
X86251291Y-67368444D01*
X86244952Y-67336220D01*
X86246154Y-66760842D01*
X86252628Y-66728646D01*
X86263934Y-66711802D01*
X86263936Y-66711800D01*
X86277872Y-66702531D01*
X86323150Y-66648581D01*
X86326822Y-66619830D01*
X86869807Y-66619830D01*
X86923574Y-66703880D01*
X86937472Y-66713208D01*
X86946741Y-66727144D01*
X87000691Y-66772422D01*
X87070556Y-66781346D01*
X87154606Y-66727579D01*
X87163934Y-66713681D01*
X87177870Y-66704412D01*
X87223148Y-66650462D01*
X87232072Y-66580597D01*
X87178305Y-66496547D01*
X87164407Y-66487219D01*
X87155138Y-66473283D01*
X87101188Y-66428005D01*
X87031323Y-66419081D01*
X86947273Y-66472848D01*
X86937945Y-66486746D01*
X86926039Y-66494665D01*
X86924009Y-66496015D01*
X86878731Y-66549965D01*
X86869807Y-66619830D01*
X86326822Y-66619830D01*
X86332074Y-66578716D01*
X86278307Y-66494666D01*
X86264409Y-66485338D01*
X86262122Y-66481899D01*
X86253172Y-66468446D01*
X86246833Y-66436222D01*
X86248035Y-65860844D01*
X86254509Y-65828648D01*
X86265816Y-65811802D01*
X86282709Y-65800565D01*
X86314933Y-65794226D01*
X86890311Y-65795428D01*
G37*
G36*
X94990311Y-65795428D02*
G01*
X95022507Y-65801902D01*
X95039351Y-65813208D01*
X95039353Y-65813210D01*
X95048622Y-65827146D01*
X95102572Y-65872424D01*
X95172437Y-65881348D01*
X95256487Y-65827581D01*
X95265815Y-65813683D01*
X95271197Y-65810103D01*
X95282707Y-65802446D01*
X95314931Y-65796107D01*
X95890309Y-65797309D01*
X95922505Y-65803783D01*
X95939351Y-65815090D01*
X95950588Y-65831983D01*
X95956927Y-65864207D01*
X95955725Y-66439585D01*
X95949251Y-66471781D01*
X95937945Y-66488625D01*
X95937943Y-66488627D01*
X95926835Y-66496015D01*
X95924007Y-66497896D01*
X95878729Y-66551846D01*
X95869805Y-66621711D01*
X95923572Y-66705761D01*
X95937470Y-66715089D01*
X95939331Y-66717886D01*
X95948707Y-66731981D01*
X95955046Y-66764205D01*
X95953844Y-67339583D01*
X95947370Y-67371779D01*
X95936063Y-67388625D01*
X95919170Y-67399862D01*
X95886946Y-67406201D01*
X95311568Y-67404999D01*
X95279372Y-67398525D01*
X95262528Y-67387219D01*
X95262526Y-67387217D01*
X95253257Y-67373281D01*
X95199307Y-67328003D01*
X95129442Y-67319079D01*
X95045392Y-67372846D01*
X95036064Y-67386744D01*
X95034206Y-67387980D01*
X95019172Y-67397981D01*
X94986948Y-67404320D01*
X94411570Y-67403118D01*
X94379374Y-67396644D01*
X94362528Y-67385337D01*
X94351291Y-67368444D01*
X94344952Y-67336220D01*
X94346154Y-66760842D01*
X94352628Y-66728646D01*
X94363934Y-66711802D01*
X94363936Y-66711800D01*
X94377872Y-66702531D01*
X94423150Y-66648581D01*
X94426822Y-66619830D01*
X94969807Y-66619830D01*
X95023574Y-66703880D01*
X95037472Y-66713208D01*
X95046741Y-66727144D01*
X95100691Y-66772422D01*
X95170556Y-66781346D01*
X95254606Y-66727579D01*
X95263934Y-66713681D01*
X95277870Y-66704412D01*
X95323148Y-66650462D01*
X95332072Y-66580597D01*
X95278305Y-66496547D01*
X95264407Y-66487219D01*
X95255138Y-66473283D01*
X95201188Y-66428005D01*
X95131323Y-66419081D01*
X95047273Y-66472848D01*
X95037945Y-66486746D01*
X95026039Y-66494665D01*
X95024009Y-66496015D01*
X94978731Y-66549965D01*
X94969807Y-66619830D01*
X94426822Y-66619830D01*
X94432074Y-66578716D01*
X94378307Y-66494666D01*
X94364409Y-66485338D01*
X94362122Y-66481899D01*
X94353172Y-66468446D01*
X94346833Y-66436222D01*
X94348035Y-65860844D01*
X94354509Y-65828648D01*
X94365816Y-65811802D01*
X94382709Y-65800565D01*
X94414933Y-65794226D01*
X94990311Y-65795428D01*
G37*
G36*
X89590311Y-65785428D02*
G01*
X89622507Y-65791902D01*
X89639351Y-65803208D01*
X89639353Y-65803210D01*
X89647255Y-65815091D01*
X89648622Y-65817146D01*
X89702572Y-65862424D01*
X89772437Y-65871348D01*
X89856487Y-65817581D01*
X89865815Y-65803683D01*
X89870501Y-65800566D01*
X89882707Y-65792446D01*
X89914931Y-65786107D01*
X90490309Y-65787309D01*
X90522505Y-65793783D01*
X90539351Y-65805090D01*
X90550588Y-65821983D01*
X90556927Y-65854207D01*
X90555725Y-66429585D01*
X90549251Y-66461781D01*
X90537945Y-66478625D01*
X90537943Y-66478627D01*
X90525736Y-66486746D01*
X90524007Y-66487896D01*
X90478729Y-66541846D01*
X90469805Y-66611711D01*
X90523572Y-66695761D01*
X90537470Y-66705089D01*
X90539331Y-66707886D01*
X90548707Y-66721981D01*
X90555046Y-66754205D01*
X90553844Y-67329583D01*
X90547370Y-67361779D01*
X90536063Y-67378625D01*
X90519170Y-67389862D01*
X90486946Y-67396201D01*
X89911568Y-67394999D01*
X89879372Y-67388525D01*
X89862528Y-67377219D01*
X89862526Y-67377217D01*
X89853257Y-67363281D01*
X89799307Y-67318003D01*
X89729442Y-67309079D01*
X89645392Y-67362846D01*
X89636064Y-67376744D01*
X89634206Y-67377980D01*
X89619172Y-67387981D01*
X89586948Y-67394320D01*
X89011570Y-67393118D01*
X88979374Y-67386644D01*
X88962528Y-67375337D01*
X88951291Y-67358444D01*
X88944952Y-67326220D01*
X88946154Y-66750842D01*
X88952628Y-66718646D01*
X88963934Y-66701802D01*
X88963936Y-66701800D01*
X88977872Y-66692531D01*
X89023150Y-66638581D01*
X89026822Y-66609830D01*
X89569807Y-66609830D01*
X89623574Y-66693880D01*
X89637472Y-66703208D01*
X89646741Y-66717144D01*
X89700691Y-66762422D01*
X89770556Y-66771346D01*
X89854606Y-66717579D01*
X89863934Y-66703681D01*
X89877870Y-66694412D01*
X89923148Y-66640462D01*
X89932072Y-66570597D01*
X89878305Y-66486547D01*
X89864407Y-66477219D01*
X89855138Y-66463283D01*
X89801188Y-66418005D01*
X89731323Y-66409081D01*
X89647273Y-66462848D01*
X89637945Y-66476746D01*
X89626039Y-66484665D01*
X89624009Y-66486015D01*
X89578731Y-66539965D01*
X89569807Y-66609830D01*
X89026822Y-66609830D01*
X89032074Y-66568716D01*
X88978307Y-66484666D01*
X88964409Y-66475338D01*
X88959944Y-66468625D01*
X88953172Y-66458446D01*
X88946833Y-66426222D01*
X88948035Y-65850844D01*
X88954509Y-65818648D01*
X88965816Y-65801802D01*
X88982709Y-65790565D01*
X89014933Y-65784226D01*
X89590311Y-65785428D01*
G37*
G36*
X92290311Y-65775428D02*
G01*
X92322507Y-65781902D01*
X92339351Y-65793208D01*
X92339353Y-65793210D01*
X92347255Y-65805091D01*
X92348622Y-65807146D01*
X92402572Y-65852424D01*
X92472437Y-65861348D01*
X92556487Y-65807581D01*
X92565815Y-65793683D01*
X92570501Y-65790566D01*
X92582707Y-65782446D01*
X92614931Y-65776107D01*
X93190309Y-65777309D01*
X93222505Y-65783783D01*
X93239351Y-65795090D01*
X93250588Y-65811983D01*
X93256927Y-65844207D01*
X93255725Y-66419585D01*
X93249251Y-66451781D01*
X93237945Y-66468625D01*
X93237943Y-66468627D01*
X93225736Y-66476746D01*
X93224007Y-66477896D01*
X93178729Y-66531846D01*
X93169805Y-66601711D01*
X93223572Y-66685761D01*
X93237470Y-66695089D01*
X93238506Y-66696647D01*
X93248707Y-66711981D01*
X93255046Y-66744205D01*
X93253844Y-67319583D01*
X93247370Y-67351779D01*
X93236063Y-67368625D01*
X93219170Y-67379862D01*
X93186946Y-67386201D01*
X92611568Y-67384999D01*
X92579372Y-67378525D01*
X92562528Y-67367219D01*
X92562526Y-67367217D01*
X92553257Y-67353281D01*
X92499307Y-67308003D01*
X92429442Y-67299079D01*
X92345392Y-67352846D01*
X92336064Y-67366744D01*
X92333510Y-67368443D01*
X92319172Y-67377981D01*
X92286948Y-67384320D01*
X91711570Y-67383118D01*
X91679374Y-67376644D01*
X91662528Y-67365337D01*
X91651291Y-67348444D01*
X91644952Y-67316220D01*
X91646154Y-66740842D01*
X91652628Y-66708646D01*
X91663934Y-66691802D01*
X91663936Y-66691800D01*
X91677872Y-66682531D01*
X91723150Y-66628581D01*
X91726822Y-66599830D01*
X92269807Y-66599830D01*
X92323574Y-66683880D01*
X92337472Y-66693208D01*
X92345822Y-66705762D01*
X92346741Y-66707144D01*
X92400691Y-66752422D01*
X92470556Y-66761346D01*
X92554606Y-66707579D01*
X92563934Y-66693681D01*
X92577870Y-66684412D01*
X92623148Y-66630462D01*
X92632072Y-66560597D01*
X92578305Y-66476547D01*
X92564407Y-66467219D01*
X92555138Y-66453283D01*
X92501188Y-66408005D01*
X92431323Y-66399081D01*
X92347273Y-66452848D01*
X92337945Y-66466746D01*
X92326039Y-66474665D01*
X92324009Y-66476015D01*
X92278731Y-66529965D01*
X92269807Y-66599830D01*
X91726822Y-66599830D01*
X91732074Y-66558716D01*
X91678307Y-66474666D01*
X91664409Y-66465338D01*
X91660792Y-66459900D01*
X91653172Y-66448446D01*
X91646833Y-66416222D01*
X91648035Y-65840844D01*
X91654509Y-65808648D01*
X91665816Y-65791802D01*
X91682709Y-65780565D01*
X91714933Y-65774226D01*
X92290311Y-65775428D01*
G37*
G36*
X86890071Y-63895225D02*
G01*
X86902378Y-63897697D01*
X86902379Y-63897697D01*
X86905211Y-63898266D01*
X86922272Y-63901693D01*
X86937210Y-63911716D01*
X86939119Y-63912997D01*
X86948391Y-63926931D01*
X87002349Y-63972199D01*
X87072215Y-63981109D01*
X87156256Y-63927325D01*
X87165582Y-63913425D01*
X87182472Y-63902186D01*
X87214692Y-63895840D01*
X87790070Y-63896935D01*
X87802377Y-63899407D01*
X87802378Y-63899407D01*
X87807699Y-63900476D01*
X87822271Y-63903403D01*
X87839119Y-63914707D01*
X87850358Y-63931598D01*
X87856704Y-63963818D01*
X87855609Y-64539196D01*
X87849141Y-64571397D01*
X87837838Y-64588243D01*
X87837837Y-64588244D01*
X87823903Y-64597516D01*
X87778635Y-64651475D01*
X87769726Y-64721342D01*
X87823509Y-64805380D01*
X87837408Y-64814705D01*
X87848647Y-64831596D01*
X87854993Y-64863816D01*
X87853898Y-65439194D01*
X87847430Y-65471395D01*
X87836126Y-65488243D01*
X87819235Y-65499482D01*
X87787015Y-65505828D01*
X87211637Y-65504733D01*
X87199330Y-65502261D01*
X87199329Y-65502261D01*
X87190817Y-65500551D01*
X87179436Y-65498265D01*
X87162589Y-65486962D01*
X87153319Y-65473030D01*
X87099361Y-65427760D01*
X87029494Y-65418850D01*
X86945454Y-65472632D01*
X86942822Y-65476555D01*
X86937748Y-65484118D01*
X86936127Y-65486533D01*
X86919237Y-65497772D01*
X86887017Y-65504118D01*
X86311639Y-65503023D01*
X86299332Y-65500551D01*
X86299331Y-65500551D01*
X86292173Y-65499113D01*
X86279438Y-65496555D01*
X86262590Y-65485251D01*
X86251351Y-65468360D01*
X86245005Y-65436140D01*
X86246100Y-64860762D01*
X86252568Y-64828561D01*
X86263871Y-64811714D01*
X86275962Y-64803669D01*
X86277804Y-64802443D01*
X86323073Y-64748486D01*
X86326753Y-64719629D01*
X86869727Y-64719629D01*
X86923509Y-64803669D01*
X86930800Y-64808561D01*
X86937409Y-64812995D01*
X86941995Y-64819886D01*
X86946679Y-64826926D01*
X87000637Y-64872196D01*
X87070504Y-64881106D01*
X87154544Y-64827324D01*
X87160424Y-64818561D01*
X87163870Y-64813424D01*
X87177805Y-64804151D01*
X87223072Y-64750193D01*
X87231981Y-64680326D01*
X87178198Y-64596288D01*
X87164301Y-64586964D01*
X87163162Y-64585253D01*
X87155028Y-64573029D01*
X87101070Y-64527761D01*
X87031204Y-64518851D01*
X86947163Y-64572635D01*
X86943400Y-64578244D01*
X86937838Y-64586534D01*
X86929229Y-64592263D01*
X86923907Y-64595804D01*
X86878637Y-64649762D01*
X86869727Y-64719629D01*
X86326753Y-64719629D01*
X86331983Y-64678619D01*
X86278201Y-64594579D01*
X86269919Y-64589022D01*
X86264301Y-64585253D01*
X86263071Y-64583404D01*
X86253061Y-64568362D01*
X86246715Y-64536142D01*
X86247810Y-63960764D01*
X86254278Y-63928563D01*
X86265582Y-63911715D01*
X86282473Y-63900476D01*
X86314693Y-63894130D01*
X86890071Y-63895225D01*
G37*
G36*
X94990071Y-63895225D02*
G01*
X95002378Y-63897697D01*
X95002379Y-63897697D01*
X95005211Y-63898266D01*
X95022272Y-63901693D01*
X95037210Y-63911716D01*
X95039119Y-63912997D01*
X95048391Y-63926931D01*
X95102349Y-63972199D01*
X95172215Y-63981109D01*
X95256256Y-63927325D01*
X95265582Y-63913425D01*
X95282472Y-63902186D01*
X95314692Y-63895840D01*
X95890070Y-63896935D01*
X95902377Y-63899407D01*
X95902378Y-63899407D01*
X95907699Y-63900476D01*
X95922271Y-63903403D01*
X95939119Y-63914707D01*
X95950358Y-63931598D01*
X95956704Y-63963818D01*
X95955609Y-64539196D01*
X95949141Y-64571397D01*
X95937838Y-64588243D01*
X95937837Y-64588244D01*
X95923903Y-64597516D01*
X95878635Y-64651475D01*
X95869726Y-64721342D01*
X95923509Y-64805380D01*
X95937408Y-64814705D01*
X95948647Y-64831596D01*
X95954993Y-64863816D01*
X95953898Y-65439194D01*
X95947430Y-65471395D01*
X95936126Y-65488243D01*
X95919235Y-65499482D01*
X95887015Y-65505828D01*
X95311637Y-65504733D01*
X95299330Y-65502261D01*
X95299329Y-65502261D01*
X95290817Y-65500551D01*
X95279436Y-65498265D01*
X95262589Y-65486962D01*
X95253319Y-65473030D01*
X95199361Y-65427760D01*
X95129494Y-65418850D01*
X95045454Y-65472632D01*
X95042822Y-65476555D01*
X95037748Y-65484118D01*
X95036127Y-65486533D01*
X95019237Y-65497772D01*
X94987017Y-65504118D01*
X94411639Y-65503023D01*
X94399332Y-65500551D01*
X94399331Y-65500551D01*
X94392173Y-65499113D01*
X94379438Y-65496555D01*
X94362590Y-65485251D01*
X94351351Y-65468360D01*
X94345005Y-65436140D01*
X94346100Y-64860762D01*
X94352568Y-64828561D01*
X94363871Y-64811714D01*
X94375962Y-64803669D01*
X94377804Y-64802443D01*
X94423073Y-64748486D01*
X94426753Y-64719629D01*
X94969727Y-64719629D01*
X95023509Y-64803669D01*
X95030800Y-64808561D01*
X95037409Y-64812995D01*
X95041995Y-64819886D01*
X95046679Y-64826926D01*
X95100637Y-64872196D01*
X95170504Y-64881106D01*
X95254544Y-64827324D01*
X95260424Y-64818561D01*
X95263870Y-64813424D01*
X95277805Y-64804151D01*
X95323072Y-64750193D01*
X95331981Y-64680326D01*
X95278198Y-64596288D01*
X95264301Y-64586964D01*
X95263162Y-64585253D01*
X95255028Y-64573029D01*
X95201070Y-64527761D01*
X95131204Y-64518851D01*
X95047163Y-64572635D01*
X95043400Y-64578244D01*
X95037838Y-64586534D01*
X95029229Y-64592263D01*
X95023907Y-64595804D01*
X94978637Y-64649762D01*
X94969727Y-64719629D01*
X94426753Y-64719629D01*
X94431983Y-64678619D01*
X94378201Y-64594579D01*
X94369919Y-64589022D01*
X94364301Y-64585253D01*
X94363071Y-64583404D01*
X94353061Y-64568362D01*
X94346715Y-64536142D01*
X94347810Y-63960764D01*
X94354278Y-63928563D01*
X94365582Y-63911715D01*
X94382473Y-63900476D01*
X94414693Y-63894130D01*
X94990071Y-63895225D01*
G37*
G36*
X89590071Y-63885225D02*
G01*
X89602378Y-63887697D01*
X89602379Y-63887697D01*
X89605211Y-63888266D01*
X89622272Y-63891693D01*
X89639118Y-63902996D01*
X89639119Y-63902997D01*
X89648391Y-63916931D01*
X89702349Y-63962199D01*
X89772215Y-63971109D01*
X89856256Y-63917325D01*
X89865582Y-63903425D01*
X89882472Y-63892186D01*
X89914692Y-63885840D01*
X90490070Y-63886935D01*
X90502377Y-63889407D01*
X90502378Y-63889407D01*
X90507699Y-63890476D01*
X90522271Y-63893403D01*
X90539119Y-63904707D01*
X90550358Y-63921598D01*
X90556704Y-63953818D01*
X90555609Y-64529196D01*
X90549141Y-64561397D01*
X90537838Y-64578243D01*
X90537837Y-64578244D01*
X90524734Y-64586963D01*
X90523903Y-64587516D01*
X90478635Y-64641475D01*
X90469726Y-64711342D01*
X90523509Y-64795380D01*
X90537408Y-64804705D01*
X90548647Y-64821596D01*
X90554993Y-64853816D01*
X90553898Y-65429194D01*
X90547430Y-65461395D01*
X90536126Y-65478243D01*
X90519235Y-65489482D01*
X90487015Y-65495828D01*
X89911637Y-65494733D01*
X89899330Y-65492261D01*
X89899329Y-65492261D01*
X89890817Y-65490551D01*
X89879436Y-65488265D01*
X89862589Y-65476962D01*
X89853319Y-65463030D01*
X89799361Y-65417760D01*
X89729494Y-65408850D01*
X89645454Y-65462632D01*
X89642549Y-65466961D01*
X89638745Y-65472632D01*
X89636127Y-65476533D01*
X89619237Y-65487772D01*
X89587017Y-65494118D01*
X89011639Y-65493023D01*
X88999332Y-65490551D01*
X88999331Y-65490551D01*
X88992173Y-65489113D01*
X88979438Y-65486555D01*
X88962590Y-65475251D01*
X88951351Y-65458360D01*
X88945005Y-65426140D01*
X88946100Y-64850762D01*
X88952568Y-64818561D01*
X88963871Y-64801714D01*
X88975962Y-64793669D01*
X88977804Y-64792443D01*
X89023073Y-64738486D01*
X89026753Y-64709629D01*
X89569727Y-64709629D01*
X89623509Y-64793669D01*
X89635465Y-64801691D01*
X89637409Y-64802995D01*
X89644350Y-64813425D01*
X89646679Y-64816926D01*
X89700637Y-64862196D01*
X89770504Y-64871106D01*
X89854544Y-64817324D01*
X89860424Y-64808561D01*
X89863870Y-64803424D01*
X89877805Y-64794151D01*
X89923072Y-64740193D01*
X89931981Y-64670326D01*
X89878198Y-64586288D01*
X89864301Y-64576964D01*
X89863162Y-64575253D01*
X89855028Y-64563029D01*
X89801070Y-64517761D01*
X89731204Y-64508851D01*
X89647163Y-64562635D01*
X89643400Y-64568244D01*
X89637838Y-64576534D01*
X89629229Y-64582263D01*
X89623907Y-64585804D01*
X89578637Y-64639762D01*
X89569727Y-64709629D01*
X89026753Y-64709629D01*
X89031983Y-64668619D01*
X88978201Y-64584579D01*
X88969919Y-64579022D01*
X88964301Y-64575253D01*
X88962822Y-64573030D01*
X88953061Y-64558362D01*
X88946715Y-64526142D01*
X88947810Y-63950764D01*
X88954278Y-63918563D01*
X88965582Y-63901715D01*
X88982473Y-63890476D01*
X89014693Y-63884130D01*
X89590071Y-63885225D01*
G37*
G36*
X92290071Y-63875225D02*
G01*
X92302378Y-63877697D01*
X92302379Y-63877697D01*
X92305211Y-63878266D01*
X92322272Y-63881693D01*
X92339118Y-63892996D01*
X92339119Y-63892997D01*
X92348391Y-63906931D01*
X92402349Y-63952199D01*
X92472215Y-63961109D01*
X92556256Y-63907325D01*
X92563481Y-63896556D01*
X92565581Y-63893426D01*
X92565582Y-63893426D01*
X92565582Y-63893425D01*
X92582472Y-63882186D01*
X92614692Y-63875840D01*
X93190070Y-63876935D01*
X93202377Y-63879407D01*
X93202378Y-63879407D01*
X93207699Y-63880476D01*
X93222271Y-63883403D01*
X93239119Y-63894707D01*
X93250358Y-63911598D01*
X93256704Y-63943818D01*
X93255609Y-64519196D01*
X93249141Y-64551397D01*
X93238696Y-64566964D01*
X93237837Y-64568244D01*
X93224734Y-64576963D01*
X93223903Y-64577516D01*
X93178635Y-64631475D01*
X93169726Y-64701342D01*
X93223509Y-64785380D01*
X93237408Y-64794705D01*
X93248647Y-64811596D01*
X93254993Y-64843816D01*
X93253898Y-65419194D01*
X93247430Y-65451395D01*
X93236126Y-65468243D01*
X93219235Y-65479482D01*
X93187015Y-65485828D01*
X92611637Y-65484733D01*
X92599330Y-65482261D01*
X92599329Y-65482261D01*
X92590817Y-65480551D01*
X92579436Y-65478265D01*
X92562589Y-65466962D01*
X92553319Y-65453030D01*
X92499361Y-65407760D01*
X92429494Y-65398850D01*
X92345454Y-65452632D01*
X92341611Y-65458360D01*
X92338745Y-65462632D01*
X92336127Y-65466533D01*
X92319237Y-65477772D01*
X92287017Y-65484118D01*
X91711639Y-65483023D01*
X91699332Y-65480551D01*
X91699331Y-65480551D01*
X91692173Y-65479113D01*
X91679438Y-65476555D01*
X91662590Y-65465251D01*
X91651351Y-65448360D01*
X91645005Y-65416140D01*
X91646100Y-64840762D01*
X91652568Y-64808561D01*
X91663871Y-64791714D01*
X91675962Y-64783669D01*
X91677804Y-64782443D01*
X91723073Y-64728486D01*
X91726753Y-64699629D01*
X92269727Y-64699629D01*
X92323509Y-64783669D01*
X92335465Y-64791691D01*
X92337409Y-64792995D01*
X92345651Y-64805380D01*
X92346679Y-64806926D01*
X92400637Y-64852196D01*
X92470504Y-64861106D01*
X92554544Y-64807324D01*
X92559140Y-64800474D01*
X92563870Y-64793424D01*
X92577805Y-64784151D01*
X92623072Y-64730193D01*
X92631981Y-64660326D01*
X92578198Y-64576288D01*
X92564301Y-64566964D01*
X92563162Y-64565253D01*
X92555028Y-64553029D01*
X92501070Y-64507761D01*
X92431204Y-64498851D01*
X92347163Y-64552635D01*
X92337838Y-64566534D01*
X92328670Y-64572635D01*
X92323907Y-64575804D01*
X92278637Y-64629762D01*
X92269727Y-64699629D01*
X91726753Y-64699629D01*
X91731983Y-64658619D01*
X91678201Y-64574579D01*
X91668758Y-64568243D01*
X91664301Y-64565253D01*
X91662822Y-64563030D01*
X91653061Y-64548362D01*
X91646715Y-64516142D01*
X91647810Y-63940764D01*
X91654278Y-63908563D01*
X91665582Y-63891715D01*
X91682473Y-63880476D01*
X91714693Y-63874130D01*
X92290071Y-63875225D01*
G37*
G36*
X94989836Y-61995020D02*
G01*
X95022032Y-62001481D01*
X95026269Y-62004323D01*
X95037165Y-62011630D01*
X95038885Y-62012784D01*
X95048159Y-62026715D01*
X95102126Y-62071974D01*
X95171994Y-62080870D01*
X95256024Y-62027070D01*
X95259953Y-62021212D01*
X95265346Y-62013170D01*
X95282235Y-62001927D01*
X95284492Y-62001482D01*
X95314456Y-61995575D01*
X95889835Y-61996560D01*
X95922031Y-62003021D01*
X95926206Y-62005821D01*
X95938883Y-62014323D01*
X95942676Y-62020021D01*
X95950126Y-62031212D01*
X95956478Y-62063433D01*
X95955493Y-62638812D01*
X95949032Y-62671008D01*
X95949031Y-62671009D01*
X95937730Y-62687860D01*
X95931511Y-62692000D01*
X95923799Y-62697134D01*
X95878541Y-62751102D01*
X95869645Y-62820970D01*
X95923444Y-62904998D01*
X95937343Y-62914319D01*
X95948587Y-62931210D01*
X95954939Y-62963431D01*
X95953954Y-63538810D01*
X95947493Y-63571006D01*
X95944703Y-63575165D01*
X95936191Y-63587858D01*
X95924782Y-63595453D01*
X95919302Y-63599101D01*
X95887081Y-63605453D01*
X95311702Y-63604468D01*
X95279506Y-63598007D01*
X95266227Y-63589101D01*
X95262654Y-63586705D01*
X95262496Y-63586468D01*
X95253378Y-63572772D01*
X95199411Y-63527515D01*
X95129542Y-63518619D01*
X95045514Y-63572419D01*
X95036192Y-63586319D01*
X95022471Y-63595453D01*
X95019303Y-63597562D01*
X94987082Y-63603914D01*
X94411703Y-63602929D01*
X94379507Y-63596468D01*
X94374374Y-63593025D01*
X94362655Y-63585166D01*
X94351412Y-63568277D01*
X94349744Y-63559816D01*
X94345060Y-63536056D01*
X94346045Y-62960677D01*
X94352506Y-62928481D01*
X94363809Y-62911628D01*
X94377741Y-62902353D01*
X94422998Y-62848386D01*
X94426684Y-62819432D01*
X94969645Y-62819432D01*
X95023445Y-62903460D01*
X95035626Y-62911629D01*
X95037346Y-62912783D01*
X95046621Y-62926715D01*
X95100588Y-62971972D01*
X95170457Y-62980868D01*
X95254485Y-62927068D01*
X95263807Y-62913168D01*
X95277738Y-62903894D01*
X95322996Y-62849926D01*
X95331892Y-62780058D01*
X95278093Y-62696030D01*
X95264193Y-62686708D01*
X95254918Y-62672775D01*
X95200951Y-62627516D01*
X95131083Y-62618620D01*
X95047053Y-62672420D01*
X95038217Y-62685596D01*
X95037730Y-62686321D01*
X95023798Y-62695596D01*
X94978541Y-62749563D01*
X94969645Y-62819432D01*
X94426684Y-62819432D01*
X94431894Y-62778517D01*
X94378094Y-62694489D01*
X94373618Y-62691487D01*
X94364194Y-62685167D01*
X94352951Y-62668278D01*
X94352869Y-62667860D01*
X94346599Y-62636057D01*
X94347584Y-62060678D01*
X94354045Y-62028482D01*
X94360752Y-62018482D01*
X94365347Y-62011630D01*
X94382236Y-62000387D01*
X94414457Y-61994035D01*
X94989836Y-61995020D01*
G37*
G36*
X86889836Y-61995020D02*
G01*
X86922032Y-62001481D01*
X86926269Y-62004323D01*
X86937165Y-62011630D01*
X86938885Y-62012784D01*
X86948159Y-62026715D01*
X87002126Y-62071974D01*
X87071994Y-62080870D01*
X87156024Y-62027070D01*
X87159953Y-62021212D01*
X87165346Y-62013170D01*
X87182235Y-62001927D01*
X87184492Y-62001482D01*
X87214456Y-61995575D01*
X87789835Y-61996560D01*
X87822031Y-62003021D01*
X87826206Y-62005821D01*
X87838883Y-62014323D01*
X87842676Y-62020021D01*
X87850126Y-62031212D01*
X87856478Y-62063433D01*
X87855493Y-62638812D01*
X87849032Y-62671008D01*
X87849031Y-62671009D01*
X87837730Y-62687860D01*
X87831511Y-62692000D01*
X87823799Y-62697134D01*
X87778541Y-62751102D01*
X87769645Y-62820970D01*
X87823444Y-62904998D01*
X87837343Y-62914319D01*
X87848587Y-62931210D01*
X87854939Y-62963431D01*
X87853954Y-63538810D01*
X87847493Y-63571006D01*
X87844703Y-63575165D01*
X87836191Y-63587858D01*
X87824782Y-63595453D01*
X87819302Y-63599101D01*
X87787081Y-63605453D01*
X87211702Y-63604468D01*
X87179506Y-63598007D01*
X87166227Y-63589101D01*
X87162654Y-63586705D01*
X87162496Y-63586468D01*
X87153378Y-63572772D01*
X87099411Y-63527515D01*
X87029542Y-63518619D01*
X86945514Y-63572419D01*
X86936192Y-63586319D01*
X86922471Y-63595453D01*
X86919303Y-63597562D01*
X86887082Y-63603914D01*
X86311703Y-63602929D01*
X86279507Y-63596468D01*
X86274374Y-63593025D01*
X86262655Y-63585166D01*
X86251412Y-63568277D01*
X86249744Y-63559816D01*
X86245060Y-63536056D01*
X86246045Y-62960677D01*
X86252506Y-62928481D01*
X86263809Y-62911628D01*
X86277741Y-62902353D01*
X86322998Y-62848386D01*
X86326684Y-62819432D01*
X86869645Y-62819432D01*
X86923445Y-62903460D01*
X86935626Y-62911629D01*
X86937346Y-62912783D01*
X86946621Y-62926715D01*
X87000588Y-62971972D01*
X87070457Y-62980868D01*
X87154485Y-62927068D01*
X87163807Y-62913168D01*
X87177738Y-62903894D01*
X87222996Y-62849926D01*
X87231892Y-62780058D01*
X87178093Y-62696030D01*
X87164193Y-62686708D01*
X87154918Y-62672775D01*
X87100951Y-62627516D01*
X87031083Y-62618620D01*
X86947053Y-62672420D01*
X86938217Y-62685596D01*
X86937730Y-62686321D01*
X86923798Y-62695596D01*
X86878541Y-62749563D01*
X86869645Y-62819432D01*
X86326684Y-62819432D01*
X86331894Y-62778517D01*
X86278094Y-62694489D01*
X86273618Y-62691487D01*
X86264194Y-62685167D01*
X86252951Y-62668278D01*
X86252869Y-62667860D01*
X86246599Y-62636057D01*
X86247584Y-62060678D01*
X86254045Y-62028482D01*
X86260752Y-62018482D01*
X86265347Y-62011630D01*
X86282236Y-62000387D01*
X86314457Y-61994035D01*
X86889836Y-61995020D01*
G37*
G36*
X89589836Y-61985020D02*
G01*
X89622032Y-61991481D01*
X89625840Y-61994035D01*
X89637608Y-62001927D01*
X89638885Y-62002784D01*
X89648159Y-62016715D01*
X89702126Y-62061974D01*
X89771994Y-62070870D01*
X89856024Y-62017070D01*
X89858640Y-62013170D01*
X89865346Y-62003170D01*
X89882235Y-61991927D01*
X89884492Y-61991482D01*
X89914456Y-61985575D01*
X90489835Y-61986560D01*
X90522031Y-61993021D01*
X90525011Y-61995020D01*
X90538883Y-62004323D01*
X90547132Y-62016715D01*
X90550126Y-62021212D01*
X90556478Y-62053433D01*
X90555493Y-62628812D01*
X90549032Y-62661008D01*
X90549031Y-62661009D01*
X90537730Y-62677860D01*
X90531511Y-62682000D01*
X90523799Y-62687134D01*
X90478541Y-62741102D01*
X90469645Y-62810970D01*
X90523444Y-62894998D01*
X90537343Y-62904319D01*
X90548587Y-62921210D01*
X90554939Y-62953431D01*
X90553954Y-63528810D01*
X90547493Y-63561006D01*
X90544703Y-63565165D01*
X90536191Y-63577858D01*
X90523481Y-63586319D01*
X90519302Y-63589101D01*
X90487081Y-63595453D01*
X89911702Y-63594468D01*
X89879506Y-63588007D01*
X89866227Y-63579101D01*
X89862654Y-63576705D01*
X89862496Y-63576468D01*
X89853378Y-63562772D01*
X89799411Y-63517515D01*
X89729542Y-63508619D01*
X89645514Y-63562419D01*
X89636192Y-63576319D01*
X89622902Y-63585166D01*
X89619303Y-63587562D01*
X89587082Y-63593914D01*
X89011703Y-63592929D01*
X88979507Y-63586468D01*
X88974374Y-63583025D01*
X88962655Y-63575166D01*
X88951412Y-63558277D01*
X88949697Y-63549576D01*
X88945060Y-63526056D01*
X88946045Y-62950677D01*
X88952506Y-62918481D01*
X88963035Y-62902782D01*
X88963808Y-62901629D01*
X88963809Y-62901629D01*
X88963809Y-62901628D01*
X88977741Y-62892353D01*
X89022998Y-62838386D01*
X89026684Y-62809432D01*
X89569645Y-62809432D01*
X89623445Y-62893460D01*
X89635626Y-62901629D01*
X89637346Y-62902783D01*
X89646621Y-62916715D01*
X89700588Y-62961972D01*
X89770457Y-62970868D01*
X89854485Y-62917068D01*
X89863807Y-62903168D01*
X89877738Y-62893894D01*
X89922996Y-62839926D01*
X89931892Y-62770058D01*
X89878093Y-62686030D01*
X89864193Y-62676708D01*
X89854918Y-62662775D01*
X89800951Y-62617516D01*
X89731083Y-62608620D01*
X89647053Y-62662420D01*
X89638217Y-62675596D01*
X89637730Y-62676321D01*
X89623798Y-62685596D01*
X89578541Y-62739563D01*
X89569645Y-62809432D01*
X89026684Y-62809432D01*
X89031894Y-62768517D01*
X88978094Y-62684489D01*
X88973618Y-62681487D01*
X88964194Y-62675167D01*
X88952951Y-62658278D01*
X88951236Y-62649577D01*
X88946599Y-62626057D01*
X88947584Y-62050678D01*
X88954045Y-62018482D01*
X88960752Y-62008482D01*
X88965347Y-62001630D01*
X88982236Y-61990387D01*
X89014457Y-61984035D01*
X89589836Y-61985020D01*
G37*
G36*
X92289836Y-61975020D02*
G01*
X92322032Y-61981481D01*
X92325840Y-61984035D01*
X92337608Y-61991927D01*
X92338885Y-61992784D01*
X92348159Y-62006715D01*
X92402126Y-62051974D01*
X92471994Y-62060870D01*
X92556024Y-62007070D01*
X92558739Y-62003022D01*
X92565346Y-61993170D01*
X92582235Y-61981927D01*
X92584492Y-61981482D01*
X92614456Y-61975575D01*
X93189835Y-61976560D01*
X93222031Y-61983021D01*
X93225011Y-61985020D01*
X93238883Y-61994323D01*
X93247132Y-62006715D01*
X93250126Y-62011212D01*
X93256478Y-62043433D01*
X93255493Y-62618812D01*
X93249032Y-62651008D01*
X93249031Y-62651009D01*
X93237730Y-62667860D01*
X93227772Y-62674489D01*
X93223799Y-62677134D01*
X93178541Y-62731102D01*
X93169645Y-62800970D01*
X93223444Y-62884998D01*
X93237343Y-62894319D01*
X93248587Y-62911210D01*
X93254939Y-62943431D01*
X93253954Y-63518810D01*
X93247493Y-63551006D01*
X93244693Y-63555181D01*
X93236191Y-63567858D01*
X93223481Y-63576319D01*
X93219302Y-63579101D01*
X93187081Y-63585453D01*
X92611702Y-63584468D01*
X92579506Y-63578007D01*
X92564998Y-63568277D01*
X92562654Y-63566705D01*
X92561629Y-63565166D01*
X92553378Y-63552772D01*
X92499411Y-63507515D01*
X92429542Y-63498619D01*
X92345514Y-63552419D01*
X92336192Y-63566319D01*
X92322902Y-63575166D01*
X92319303Y-63577562D01*
X92287082Y-63583914D01*
X91711703Y-63582929D01*
X91679507Y-63576468D01*
X91675332Y-63573668D01*
X91662655Y-63565166D01*
X91651412Y-63548277D01*
X91647791Y-63529910D01*
X91645060Y-63516056D01*
X91646045Y-62940677D01*
X91652506Y-62908481D01*
X91663035Y-62892782D01*
X91663808Y-62891629D01*
X91663809Y-62891629D01*
X91663809Y-62891628D01*
X91677741Y-62882353D01*
X91722998Y-62828386D01*
X91726684Y-62799432D01*
X92269645Y-62799432D01*
X92323445Y-62883460D01*
X92335626Y-62891629D01*
X92337346Y-62892783D01*
X92346621Y-62906715D01*
X92400588Y-62951972D01*
X92470457Y-62960868D01*
X92554485Y-62907068D01*
X92563807Y-62893168D01*
X92577738Y-62883894D01*
X92622996Y-62829926D01*
X92631892Y-62760058D01*
X92578093Y-62676030D01*
X92564193Y-62666708D01*
X92554918Y-62652775D01*
X92500951Y-62607516D01*
X92431083Y-62598620D01*
X92347053Y-62652420D01*
X92340347Y-62662420D01*
X92337730Y-62666321D01*
X92323798Y-62675596D01*
X92278541Y-62729563D01*
X92269645Y-62799432D01*
X91726684Y-62799432D01*
X91731894Y-62758517D01*
X91678094Y-62674489D01*
X91672904Y-62671008D01*
X91664194Y-62665167D01*
X91652951Y-62648278D01*
X91649568Y-62631117D01*
X91646599Y-62616057D01*
X91647584Y-62040678D01*
X91654045Y-62008482D01*
X91657867Y-62002783D01*
X91665347Y-61991630D01*
X91682236Y-61980387D01*
X91714457Y-61974035D01*
X92289836Y-61975020D01*
G37*
G36*
X86889596Y-60094815D02*
G01*
X86921796Y-60101271D01*
X86938649Y-60112569D01*
X86947926Y-60126499D01*
X87001901Y-60171747D01*
X87071771Y-60180631D01*
X87155790Y-60126815D01*
X87165110Y-60112913D01*
X87165111Y-60112913D01*
X87165111Y-60112912D01*
X87181998Y-60101666D01*
X87214215Y-60095309D01*
X87789595Y-60096183D01*
X87821795Y-60102639D01*
X87838648Y-60113937D01*
X87849895Y-60130825D01*
X87856252Y-60163042D01*
X87855378Y-60738422D01*
X87848922Y-60770622D01*
X87837624Y-60787475D01*
X87823694Y-60796752D01*
X87778446Y-60850727D01*
X87769562Y-60920597D01*
X87823378Y-61004616D01*
X87837280Y-61013936D01*
X87837281Y-61013937D01*
X87848527Y-61030824D01*
X87854884Y-61063041D01*
X87854010Y-61638421D01*
X87847554Y-61670621D01*
X87836256Y-61687474D01*
X87819368Y-61698721D01*
X87787151Y-61705078D01*
X87211771Y-61704204D01*
X87179571Y-61697748D01*
X87162718Y-61686450D01*
X87153441Y-61672520D01*
X87099466Y-61627272D01*
X87029596Y-61618388D01*
X86945577Y-61672204D01*
X86938575Y-61682648D01*
X86936256Y-61686107D01*
X86919369Y-61697353D01*
X86887152Y-61703710D01*
X86311772Y-61702836D01*
X86279572Y-61696380D01*
X86262719Y-61685082D01*
X86251472Y-61668194D01*
X86245115Y-61635977D01*
X86245989Y-61060597D01*
X86252445Y-61028397D01*
X86263743Y-61011544D01*
X86277673Y-61002267D01*
X86322921Y-60948292D01*
X86326616Y-60919229D01*
X86869563Y-60919229D01*
X86923379Y-61003248D01*
X86937281Y-61012568D01*
X86937282Y-61012569D01*
X86946558Y-61026498D01*
X87000533Y-61071746D01*
X87070403Y-61080630D01*
X87154422Y-61026814D01*
X87163742Y-61012912D01*
X87163743Y-61012912D01*
X87163743Y-61012911D01*
X87177672Y-61003635D01*
X87222920Y-60949660D01*
X87231804Y-60879790D01*
X87177988Y-60795771D01*
X87164086Y-60786451D01*
X87163858Y-60786108D01*
X87154809Y-60772521D01*
X87100834Y-60727273D01*
X87030964Y-60718389D01*
X86946945Y-60772205D01*
X86937625Y-60786107D01*
X86937624Y-60786108D01*
X86923695Y-60795384D01*
X86878447Y-60849359D01*
X86869563Y-60919229D01*
X86326616Y-60919229D01*
X86331805Y-60878422D01*
X86277989Y-60794403D01*
X86264087Y-60785083D01*
X86264086Y-60785082D01*
X86252840Y-60768195D01*
X86246483Y-60735978D01*
X86247357Y-60160598D01*
X86253813Y-60128398D01*
X86265111Y-60111545D01*
X86281999Y-60100298D01*
X86314216Y-60093941D01*
X86889596Y-60094815D01*
G37*
G36*
X94989596Y-60094815D02*
G01*
X95021796Y-60101271D01*
X95038649Y-60112569D01*
X95047926Y-60126499D01*
X95101901Y-60171747D01*
X95171771Y-60180631D01*
X95255790Y-60126815D01*
X95265110Y-60112913D01*
X95265111Y-60112913D01*
X95265111Y-60112912D01*
X95281998Y-60101666D01*
X95314215Y-60095309D01*
X95889595Y-60096183D01*
X95921795Y-60102639D01*
X95938648Y-60113937D01*
X95949895Y-60130825D01*
X95956252Y-60163042D01*
X95955378Y-60738422D01*
X95948922Y-60770622D01*
X95937624Y-60787475D01*
X95923694Y-60796752D01*
X95878446Y-60850727D01*
X95869562Y-60920597D01*
X95923378Y-61004616D01*
X95937280Y-61013936D01*
X95937281Y-61013937D01*
X95948527Y-61030824D01*
X95954884Y-61063041D01*
X95954010Y-61638421D01*
X95947554Y-61670621D01*
X95936256Y-61687474D01*
X95919368Y-61698721D01*
X95887151Y-61705078D01*
X95311771Y-61704204D01*
X95279571Y-61697748D01*
X95262718Y-61686450D01*
X95253441Y-61672520D01*
X95199466Y-61627272D01*
X95129596Y-61618388D01*
X95045577Y-61672204D01*
X95038575Y-61682648D01*
X95036256Y-61686107D01*
X95019369Y-61697353D01*
X94987152Y-61703710D01*
X94411772Y-61702836D01*
X94379572Y-61696380D01*
X94362719Y-61685082D01*
X94351472Y-61668194D01*
X94345115Y-61635977D01*
X94345989Y-61060597D01*
X94352445Y-61028397D01*
X94363743Y-61011544D01*
X94377673Y-61002267D01*
X94422921Y-60948292D01*
X94426616Y-60919229D01*
X94969563Y-60919229D01*
X95023379Y-61003248D01*
X95037281Y-61012568D01*
X95037282Y-61012569D01*
X95046558Y-61026498D01*
X95100533Y-61071746D01*
X95170403Y-61080630D01*
X95254422Y-61026814D01*
X95263742Y-61012912D01*
X95263743Y-61012912D01*
X95263743Y-61012911D01*
X95277672Y-61003635D01*
X95322920Y-60949660D01*
X95331804Y-60879790D01*
X95277988Y-60795771D01*
X95264086Y-60786451D01*
X95263858Y-60786108D01*
X95254809Y-60772521D01*
X95200834Y-60727273D01*
X95130964Y-60718389D01*
X95046945Y-60772205D01*
X95037625Y-60786107D01*
X95037624Y-60786108D01*
X95023695Y-60795384D01*
X94978447Y-60849359D01*
X94969563Y-60919229D01*
X94426616Y-60919229D01*
X94431805Y-60878422D01*
X94377989Y-60794403D01*
X94364087Y-60785083D01*
X94364086Y-60785082D01*
X94352840Y-60768195D01*
X94346483Y-60735978D01*
X94347357Y-60160598D01*
X94353813Y-60128398D01*
X94365111Y-60111545D01*
X94381999Y-60100298D01*
X94414216Y-60093941D01*
X94989596Y-60094815D01*
G37*
G36*
X89589596Y-60084815D02*
G01*
X89621796Y-60091271D01*
X89638649Y-60102569D01*
X89647926Y-60116499D01*
X89701901Y-60161747D01*
X89771771Y-60170631D01*
X89855790Y-60116815D01*
X89865110Y-60102913D01*
X89865111Y-60102913D01*
X89865111Y-60102912D01*
X89881998Y-60091666D01*
X89914215Y-60085309D01*
X90489595Y-60086183D01*
X90521795Y-60092639D01*
X90538648Y-60103937D01*
X90549895Y-60120825D01*
X90556252Y-60153042D01*
X90555378Y-60728422D01*
X90548922Y-60760622D01*
X90537624Y-60777475D01*
X90523694Y-60786752D01*
X90478446Y-60840727D01*
X90469562Y-60910597D01*
X90523378Y-60994616D01*
X90537280Y-61003936D01*
X90537281Y-61003937D01*
X90548527Y-61020824D01*
X90554884Y-61053041D01*
X90554010Y-61628421D01*
X90547554Y-61660621D01*
X90536256Y-61677474D01*
X90519368Y-61688721D01*
X90487151Y-61695078D01*
X89911771Y-61694204D01*
X89879571Y-61687748D01*
X89862718Y-61676450D01*
X89853441Y-61662520D01*
X89799466Y-61617272D01*
X89729596Y-61608388D01*
X89645577Y-61662204D01*
X89636943Y-61675082D01*
X89636256Y-61676107D01*
X89619369Y-61687353D01*
X89587152Y-61693710D01*
X89011772Y-61692836D01*
X88979572Y-61686380D01*
X88962719Y-61675082D01*
X88951472Y-61658194D01*
X88945115Y-61625977D01*
X88945989Y-61050597D01*
X88952445Y-61018397D01*
X88963743Y-61001544D01*
X88977673Y-60992267D01*
X89022921Y-60938292D01*
X89026616Y-60909229D01*
X89569563Y-60909229D01*
X89623379Y-60993248D01*
X89637281Y-61002568D01*
X89637282Y-61002569D01*
X89646558Y-61016498D01*
X89700533Y-61061746D01*
X89770403Y-61070630D01*
X89854422Y-61016814D01*
X89863742Y-61002912D01*
X89863743Y-61002912D01*
X89863743Y-61002911D01*
X89877672Y-60993635D01*
X89922920Y-60939660D01*
X89931804Y-60869790D01*
X89877988Y-60785771D01*
X89864086Y-60776451D01*
X89863858Y-60776108D01*
X89854809Y-60762521D01*
X89800834Y-60717273D01*
X89730964Y-60708389D01*
X89646945Y-60762205D01*
X89637625Y-60776107D01*
X89637624Y-60776108D01*
X89623695Y-60785384D01*
X89578447Y-60839359D01*
X89569563Y-60909229D01*
X89026616Y-60909229D01*
X89031805Y-60868422D01*
X88977989Y-60784403D01*
X88964087Y-60775083D01*
X88964086Y-60775082D01*
X88952840Y-60758195D01*
X88946483Y-60725978D01*
X88947357Y-60150598D01*
X88953813Y-60118398D01*
X88965111Y-60101545D01*
X88981999Y-60090298D01*
X89014216Y-60083941D01*
X89589596Y-60084815D01*
G37*
G36*
X92289596Y-60074815D02*
G01*
X92321796Y-60081271D01*
X92338649Y-60092569D01*
X92347926Y-60106499D01*
X92401901Y-60151747D01*
X92471771Y-60160631D01*
X92555790Y-60106815D01*
X92565110Y-60092913D01*
X92565111Y-60092913D01*
X92565111Y-60092912D01*
X92581998Y-60081666D01*
X92614215Y-60075309D01*
X93189595Y-60076183D01*
X93221795Y-60082639D01*
X93238648Y-60093937D01*
X93249895Y-60110825D01*
X93256252Y-60143042D01*
X93255378Y-60718422D01*
X93248922Y-60750622D01*
X93237624Y-60767475D01*
X93223694Y-60776752D01*
X93178446Y-60830727D01*
X93169562Y-60900597D01*
X93223378Y-60984616D01*
X93237280Y-60993936D01*
X93237281Y-60993937D01*
X93248527Y-61010824D01*
X93254884Y-61043041D01*
X93254010Y-61618421D01*
X93247554Y-61650621D01*
X93236256Y-61667474D01*
X93219368Y-61678721D01*
X93187151Y-61685078D01*
X92611771Y-61684204D01*
X92579571Y-61677748D01*
X92562718Y-61666450D01*
X92553441Y-61652520D01*
X92499466Y-61607272D01*
X92429596Y-61598388D01*
X92345577Y-61652204D01*
X92336943Y-61665082D01*
X92336256Y-61666107D01*
X92319369Y-61677353D01*
X92287152Y-61683710D01*
X91711772Y-61682836D01*
X91679572Y-61676380D01*
X91662719Y-61665082D01*
X91651472Y-61648194D01*
X91645115Y-61615977D01*
X91645989Y-61040597D01*
X91652445Y-61008397D01*
X91663743Y-60991544D01*
X91677673Y-60982267D01*
X91722921Y-60928292D01*
X91726616Y-60899229D01*
X92269563Y-60899229D01*
X92323379Y-60983248D01*
X92337281Y-60992568D01*
X92337282Y-60992569D01*
X92346558Y-61006498D01*
X92400533Y-61051746D01*
X92470403Y-61060630D01*
X92554422Y-61006814D01*
X92563742Y-60992912D01*
X92563743Y-60992912D01*
X92563743Y-60992911D01*
X92577672Y-60983635D01*
X92622920Y-60929660D01*
X92631804Y-60859790D01*
X92577988Y-60775771D01*
X92564086Y-60766451D01*
X92563858Y-60766108D01*
X92554809Y-60752521D01*
X92500834Y-60707273D01*
X92430964Y-60698389D01*
X92346945Y-60752205D01*
X92338312Y-60765082D01*
X92337624Y-60766108D01*
X92323695Y-60775384D01*
X92278447Y-60829359D01*
X92269563Y-60899229D01*
X91726616Y-60899229D01*
X91731805Y-60858422D01*
X91677989Y-60774403D01*
X91664087Y-60765083D01*
X91664086Y-60765082D01*
X91652840Y-60748195D01*
X91646483Y-60715978D01*
X91647357Y-60140598D01*
X91653813Y-60108398D01*
X91665111Y-60091545D01*
X91681999Y-60080298D01*
X91714216Y-60073941D01*
X92289596Y-60074815D01*
G37*
G36*
X86889356Y-58194611D02*
G01*
X86901663Y-58197076D01*
X86901665Y-58197076D01*
X86913848Y-58199516D01*
X86921560Y-58201061D01*
X86938414Y-58212355D01*
X86947693Y-58226282D01*
X87001677Y-58271520D01*
X87071548Y-58280391D01*
X87155558Y-58226560D01*
X87164875Y-58212656D01*
X87181760Y-58201407D01*
X87213980Y-58195042D01*
X87789355Y-58195808D01*
X87801662Y-58198273D01*
X87801664Y-58198273D01*
X87811334Y-58200210D01*
X87821559Y-58202258D01*
X87836627Y-58212355D01*
X87838413Y-58213552D01*
X87842202Y-58219240D01*
X87849662Y-58230437D01*
X87856027Y-58262657D01*
X87855261Y-58838032D01*
X87848811Y-58870236D01*
X87837517Y-58887090D01*
X87823590Y-58896369D01*
X87778352Y-58950353D01*
X87769481Y-59020224D01*
X87823312Y-59104234D01*
X87837216Y-59113551D01*
X87848465Y-59130436D01*
X87854830Y-59162656D01*
X87854064Y-59738031D01*
X87847614Y-59770235D01*
X87836321Y-59787088D01*
X87836320Y-59787089D01*
X87819435Y-59798338D01*
X87799531Y-59802270D01*
X87787215Y-59804703D01*
X87211840Y-59803937D01*
X87199533Y-59801472D01*
X87199531Y-59801472D01*
X87183885Y-59798338D01*
X87179636Y-59797487D01*
X87162782Y-59786193D01*
X87153503Y-59772266D01*
X87099519Y-59727028D01*
X87029648Y-59718157D01*
X86945638Y-59771988D01*
X86942220Y-59777089D01*
X86936321Y-59785892D01*
X86919436Y-59797141D01*
X86899532Y-59801073D01*
X86887216Y-59803506D01*
X86311841Y-59802740D01*
X86299534Y-59800275D01*
X86299532Y-59800275D01*
X86287349Y-59797835D01*
X86279637Y-59796290D01*
X86262784Y-59784997D01*
X86262078Y-59783937D01*
X86251534Y-59768111D01*
X86247602Y-59748207D01*
X86245169Y-59735891D01*
X86245935Y-59160516D01*
X86252385Y-59128312D01*
X86263679Y-59111458D01*
X86277606Y-59102179D01*
X86322844Y-59048195D01*
X86326547Y-59019027D01*
X86869482Y-59019027D01*
X86923313Y-59103037D01*
X86924080Y-59103551D01*
X86935880Y-59111458D01*
X86937218Y-59112355D01*
X86946496Y-59126281D01*
X87000480Y-59171519D01*
X87070351Y-59180390D01*
X87154361Y-59126559D01*
X87163679Y-59112654D01*
X87177605Y-59103376D01*
X87222843Y-59049392D01*
X87231714Y-58979521D01*
X87177883Y-58895511D01*
X87165394Y-58887142D01*
X87163979Y-58886194D01*
X87163298Y-58885172D01*
X87154700Y-58872267D01*
X87100716Y-58827029D01*
X87030845Y-58818158D01*
X86946835Y-58871989D01*
X86937517Y-58885894D01*
X86923591Y-58895172D01*
X86878353Y-58949156D01*
X86869482Y-59019027D01*
X86326547Y-59019027D01*
X86331715Y-58978324D01*
X86277884Y-58894314D01*
X86263980Y-58884997D01*
X86252731Y-58868112D01*
X86246366Y-58835892D01*
X86247132Y-58260517D01*
X86253582Y-58228313D01*
X86264875Y-58211460D01*
X86264876Y-58211460D01*
X86264876Y-58211459D01*
X86281761Y-58200210D01*
X86301665Y-58196278D01*
X86313981Y-58193845D01*
X86889356Y-58194611D01*
G37*
G36*
X94989356Y-58194611D02*
G01*
X95001663Y-58197076D01*
X95001665Y-58197076D01*
X95013848Y-58199516D01*
X95021560Y-58201061D01*
X95038414Y-58212355D01*
X95047693Y-58226282D01*
X95101677Y-58271520D01*
X95171548Y-58280391D01*
X95255558Y-58226560D01*
X95264875Y-58212656D01*
X95281760Y-58201407D01*
X95313980Y-58195042D01*
X95889355Y-58195808D01*
X95901662Y-58198273D01*
X95901664Y-58198273D01*
X95911334Y-58200210D01*
X95921559Y-58202258D01*
X95936627Y-58212355D01*
X95938413Y-58213552D01*
X95942202Y-58219240D01*
X95949662Y-58230437D01*
X95956027Y-58262657D01*
X95955261Y-58838032D01*
X95948811Y-58870236D01*
X95937517Y-58887090D01*
X95923590Y-58896369D01*
X95878352Y-58950353D01*
X95869481Y-59020224D01*
X95923312Y-59104234D01*
X95937216Y-59113551D01*
X95948465Y-59130436D01*
X95954830Y-59162656D01*
X95954064Y-59738031D01*
X95947614Y-59770235D01*
X95936321Y-59787088D01*
X95936320Y-59787089D01*
X95919435Y-59798338D01*
X95899531Y-59802270D01*
X95887215Y-59804703D01*
X95311840Y-59803937D01*
X95299533Y-59801472D01*
X95299531Y-59801472D01*
X95283885Y-59798338D01*
X95279636Y-59797487D01*
X95262782Y-59786193D01*
X95253503Y-59772266D01*
X95199519Y-59727028D01*
X95129648Y-59718157D01*
X95045638Y-59771988D01*
X95042220Y-59777089D01*
X95036321Y-59785892D01*
X95019436Y-59797141D01*
X94999532Y-59801073D01*
X94987216Y-59803506D01*
X94411841Y-59802740D01*
X94399534Y-59800275D01*
X94399532Y-59800275D01*
X94387349Y-59797835D01*
X94379637Y-59796290D01*
X94362784Y-59784997D01*
X94362078Y-59783937D01*
X94351534Y-59768111D01*
X94347602Y-59748207D01*
X94345169Y-59735891D01*
X94345935Y-59160516D01*
X94352385Y-59128312D01*
X94363679Y-59111458D01*
X94377606Y-59102179D01*
X94422844Y-59048195D01*
X94426547Y-59019027D01*
X94969482Y-59019027D01*
X95023313Y-59103037D01*
X95024080Y-59103551D01*
X95035880Y-59111458D01*
X95037218Y-59112355D01*
X95046496Y-59126281D01*
X95100480Y-59171519D01*
X95170351Y-59180390D01*
X95254361Y-59126559D01*
X95263679Y-59112654D01*
X95277605Y-59103376D01*
X95322843Y-59049392D01*
X95331714Y-58979521D01*
X95277883Y-58895511D01*
X95265394Y-58887142D01*
X95263979Y-58886194D01*
X95263298Y-58885172D01*
X95254700Y-58872267D01*
X95200716Y-58827029D01*
X95130845Y-58818158D01*
X95046835Y-58871989D01*
X95037517Y-58885894D01*
X95023591Y-58895172D01*
X94978353Y-58949156D01*
X94969482Y-59019027D01*
X94426547Y-59019027D01*
X94431715Y-58978324D01*
X94377884Y-58894314D01*
X94363980Y-58884997D01*
X94352731Y-58868112D01*
X94346366Y-58835892D01*
X94347132Y-58260517D01*
X94353582Y-58228313D01*
X94364875Y-58211460D01*
X94364876Y-58211460D01*
X94364876Y-58211459D01*
X94381761Y-58200210D01*
X94401665Y-58196278D01*
X94413981Y-58193845D01*
X94989356Y-58194611D01*
G37*
G36*
X89589356Y-58184611D02*
G01*
X89601663Y-58187076D01*
X89601665Y-58187076D01*
X89613848Y-58189516D01*
X89621560Y-58191061D01*
X89638414Y-58202355D01*
X89647693Y-58216282D01*
X89701677Y-58261520D01*
X89771548Y-58270391D01*
X89855558Y-58216560D01*
X89864875Y-58202656D01*
X89881760Y-58191407D01*
X89913980Y-58185042D01*
X90489355Y-58185808D01*
X90501662Y-58188273D01*
X90501664Y-58188273D01*
X90511334Y-58190210D01*
X90521559Y-58192258D01*
X90536482Y-58202258D01*
X90538413Y-58203552D01*
X90542202Y-58209240D01*
X90549662Y-58220437D01*
X90556027Y-58252657D01*
X90555261Y-58828032D01*
X90548811Y-58860236D01*
X90537517Y-58877090D01*
X90523590Y-58886369D01*
X90478352Y-58940353D01*
X90469481Y-59010224D01*
X90523312Y-59094234D01*
X90537216Y-59103551D01*
X90548465Y-59120436D01*
X90554830Y-59152656D01*
X90554064Y-59728031D01*
X90547614Y-59760235D01*
X90536321Y-59777088D01*
X90536320Y-59777089D01*
X90519435Y-59788338D01*
X90499531Y-59792270D01*
X90487215Y-59794703D01*
X89911840Y-59793937D01*
X89899533Y-59791472D01*
X89899531Y-59791472D01*
X89883885Y-59788338D01*
X89879636Y-59787487D01*
X89862782Y-59776193D01*
X89853503Y-59762266D01*
X89799519Y-59717028D01*
X89729648Y-59708157D01*
X89645638Y-59761988D01*
X89640733Y-59769308D01*
X89636321Y-59775892D01*
X89619436Y-59787141D01*
X89599532Y-59791073D01*
X89587216Y-59793506D01*
X89011841Y-59792740D01*
X88999534Y-59790275D01*
X88999532Y-59790275D01*
X88987349Y-59787835D01*
X88979637Y-59786290D01*
X88962784Y-59774997D01*
X88960965Y-59772266D01*
X88951534Y-59758111D01*
X88947602Y-59738207D01*
X88945169Y-59725891D01*
X88945935Y-59150516D01*
X88952385Y-59118312D01*
X88963679Y-59101458D01*
X88977606Y-59092179D01*
X89022844Y-59038195D01*
X89026547Y-59009027D01*
X89569482Y-59009027D01*
X89623313Y-59093037D01*
X89624080Y-59093551D01*
X89636956Y-59102179D01*
X89637218Y-59102355D01*
X89646496Y-59116281D01*
X89700480Y-59161519D01*
X89770351Y-59170390D01*
X89854361Y-59116559D01*
X89863679Y-59102654D01*
X89877605Y-59093376D01*
X89922843Y-59039392D01*
X89931714Y-58969521D01*
X89877883Y-58885511D01*
X89865394Y-58877142D01*
X89863979Y-58876194D01*
X89863298Y-58875172D01*
X89854700Y-58862267D01*
X89800716Y-58817029D01*
X89730845Y-58808158D01*
X89646835Y-58861989D01*
X89637517Y-58875894D01*
X89623591Y-58885172D01*
X89578353Y-58939156D01*
X89569482Y-59009027D01*
X89026547Y-59009027D01*
X89031715Y-58968324D01*
X88977884Y-58884314D01*
X88963980Y-58874997D01*
X88952731Y-58858112D01*
X88946366Y-58825892D01*
X88947132Y-58250517D01*
X88953582Y-58218313D01*
X88964875Y-58201460D01*
X88964876Y-58201460D01*
X88964876Y-58201459D01*
X88981761Y-58190210D01*
X89001665Y-58186278D01*
X89013981Y-58183845D01*
X89589356Y-58184611D01*
G37*
G36*
X92289356Y-58174611D02*
G01*
X92301663Y-58177076D01*
X92301665Y-58177076D01*
X92313848Y-58179516D01*
X92321560Y-58181061D01*
X92338414Y-58192355D01*
X92347693Y-58206282D01*
X92401677Y-58251520D01*
X92471548Y-58260391D01*
X92555558Y-58206560D01*
X92564875Y-58192656D01*
X92581760Y-58181407D01*
X92613980Y-58175042D01*
X93189355Y-58175808D01*
X93201662Y-58178273D01*
X93201664Y-58178273D01*
X93211334Y-58180210D01*
X93221559Y-58182258D01*
X93236482Y-58192258D01*
X93238413Y-58193552D01*
X93243646Y-58201407D01*
X93249662Y-58210437D01*
X93256027Y-58242657D01*
X93255261Y-58818032D01*
X93248811Y-58850236D01*
X93237517Y-58867090D01*
X93223590Y-58876369D01*
X93178352Y-58930353D01*
X93169481Y-59000224D01*
X93223312Y-59084234D01*
X93237216Y-59093551D01*
X93248465Y-59110436D01*
X93254830Y-59142656D01*
X93254064Y-59718031D01*
X93247614Y-59750235D01*
X93236321Y-59767088D01*
X93236320Y-59767089D01*
X93219435Y-59778338D01*
X93199531Y-59782270D01*
X93187215Y-59784703D01*
X92611840Y-59783937D01*
X92599533Y-59781472D01*
X92599531Y-59781472D01*
X92583885Y-59778338D01*
X92579636Y-59777487D01*
X92562782Y-59766193D01*
X92553503Y-59752266D01*
X92499519Y-59707028D01*
X92429648Y-59698157D01*
X92345638Y-59751988D01*
X92340733Y-59759308D01*
X92336321Y-59765892D01*
X92319436Y-59777141D01*
X92299532Y-59781073D01*
X92287216Y-59783506D01*
X91711841Y-59782740D01*
X91699534Y-59780275D01*
X91699532Y-59780275D01*
X91687349Y-59777835D01*
X91679637Y-59776290D01*
X91662784Y-59764997D01*
X91660965Y-59762266D01*
X91651534Y-59748111D01*
X91647602Y-59728207D01*
X91645169Y-59715891D01*
X91645935Y-59140516D01*
X91652385Y-59108312D01*
X91663679Y-59091458D01*
X91677606Y-59082179D01*
X91722844Y-59028195D01*
X91726547Y-58999027D01*
X92269482Y-58999027D01*
X92323313Y-59083037D01*
X92325099Y-59084234D01*
X92336956Y-59092179D01*
X92337218Y-59092355D01*
X92346496Y-59106281D01*
X92400480Y-59151519D01*
X92470351Y-59160390D01*
X92554361Y-59106559D01*
X92563679Y-59092654D01*
X92577605Y-59083376D01*
X92622843Y-59029392D01*
X92631714Y-58959521D01*
X92577883Y-58875511D01*
X92568628Y-58869309D01*
X92563979Y-58866194D01*
X92563778Y-58865893D01*
X92554700Y-58852267D01*
X92500716Y-58807029D01*
X92430845Y-58798158D01*
X92346835Y-58851989D01*
X92337517Y-58865894D01*
X92323591Y-58875172D01*
X92278353Y-58929156D01*
X92269482Y-58999027D01*
X91726547Y-58999027D01*
X91731715Y-58958324D01*
X91677884Y-58874314D01*
X91663980Y-58864997D01*
X91652731Y-58848112D01*
X91646366Y-58815892D01*
X91647132Y-58240517D01*
X91653582Y-58208313D01*
X91664875Y-58191460D01*
X91664876Y-58191460D01*
X91664876Y-58191459D01*
X91681761Y-58180210D01*
X91701665Y-58176278D01*
X91713981Y-58173845D01*
X92289356Y-58174611D01*
G37*
G36*
X94989121Y-56294405D02*
G01*
X95021320Y-56300848D01*
X95021321Y-56300849D01*
X95021322Y-56300849D01*
X95037032Y-56311372D01*
X95038180Y-56312141D01*
X95047461Y-56326066D01*
X95101454Y-56371294D01*
X95171327Y-56380151D01*
X95255326Y-56326305D01*
X95260734Y-56318231D01*
X95264641Y-56312398D01*
X95264642Y-56312398D01*
X95264642Y-56312397D01*
X95281524Y-56301145D01*
X95313741Y-56294775D01*
X95889121Y-56295431D01*
X95921320Y-56301874D01*
X95921321Y-56301875D01*
X95921322Y-56301875D01*
X95937032Y-56312398D01*
X95938180Y-56313167D01*
X95949432Y-56330049D01*
X95955802Y-56362266D01*
X95955146Y-56937646D01*
X95948703Y-56969845D01*
X95948702Y-56969846D01*
X95948702Y-56969847D01*
X95938579Y-56984960D01*
X95937410Y-56986705D01*
X95923485Y-56995986D01*
X95878257Y-57049979D01*
X95869400Y-57119852D01*
X95923247Y-57203851D01*
X95937152Y-57213165D01*
X95948405Y-57230048D01*
X95954775Y-57262265D01*
X95954119Y-57837645D01*
X95947676Y-57869844D01*
X95947675Y-57869845D01*
X95947675Y-57869846D01*
X95936899Y-57885934D01*
X95936383Y-57886704D01*
X95919501Y-57897956D01*
X95887284Y-57904326D01*
X95311904Y-57903670D01*
X95279705Y-57897227D01*
X95279704Y-57897226D01*
X95279703Y-57897226D01*
X95262846Y-57885935D01*
X95262845Y-57885934D01*
X95253564Y-57872009D01*
X95199571Y-57826781D01*
X95129698Y-57817924D01*
X95045699Y-57871771D01*
X95037977Y-57883300D01*
X95036384Y-57885678D01*
X95019502Y-57896930D01*
X94987285Y-57903300D01*
X94411905Y-57902644D01*
X94379706Y-57896201D01*
X94379705Y-57896200D01*
X94379704Y-57896200D01*
X94362847Y-57884909D01*
X94362021Y-57883670D01*
X94351594Y-57868026D01*
X94345224Y-57835809D01*
X94345880Y-57260429D01*
X94352323Y-57228230D01*
X94352395Y-57228123D01*
X94363615Y-57211371D01*
X94363616Y-57211371D01*
X94363616Y-57211370D01*
X94377541Y-57202089D01*
X94422769Y-57148096D01*
X94426479Y-57118826D01*
X94969400Y-57118826D01*
X95023247Y-57202825D01*
X95036006Y-57211371D01*
X95037154Y-57212140D01*
X95046435Y-57226065D01*
X95100428Y-57271293D01*
X95170301Y-57280150D01*
X95254300Y-57226303D01*
X95263614Y-57212397D01*
X95263615Y-57212397D01*
X95263615Y-57212396D01*
X95277540Y-57203115D01*
X95322768Y-57149122D01*
X95331625Y-57079249D01*
X95277778Y-56995250D01*
X95263873Y-56985936D01*
X95254591Y-56972010D01*
X95200598Y-56926782D01*
X95130725Y-56917925D01*
X95046726Y-56971771D01*
X95037411Y-56985678D01*
X95033993Y-56987956D01*
X95023485Y-56994960D01*
X94978257Y-57048953D01*
X94969400Y-57118826D01*
X94426479Y-57118826D01*
X94431626Y-57078223D01*
X94377779Y-56994224D01*
X94363873Y-56984910D01*
X94363415Y-56984223D01*
X94352620Y-56968027D01*
X94346250Y-56935810D01*
X94346906Y-56360430D01*
X94353349Y-56328231D01*
X94353421Y-56328124D01*
X94364641Y-56311372D01*
X94364642Y-56311372D01*
X94364642Y-56311371D01*
X94381524Y-56300119D01*
X94413741Y-56293749D01*
X94989121Y-56294405D01*
G37*
G36*
X86889121Y-56294405D02*
G01*
X86921320Y-56300848D01*
X86921321Y-56300849D01*
X86921322Y-56300849D01*
X86937032Y-56311372D01*
X86938180Y-56312141D01*
X86947461Y-56326066D01*
X87001454Y-56371294D01*
X87071327Y-56380151D01*
X87155326Y-56326305D01*
X87160734Y-56318231D01*
X87164641Y-56312398D01*
X87164642Y-56312398D01*
X87164642Y-56312397D01*
X87181524Y-56301145D01*
X87213741Y-56294775D01*
X87789121Y-56295431D01*
X87821320Y-56301874D01*
X87821321Y-56301875D01*
X87821322Y-56301875D01*
X87837032Y-56312398D01*
X87838180Y-56313167D01*
X87849432Y-56330049D01*
X87855802Y-56362266D01*
X87855146Y-56937646D01*
X87848703Y-56969845D01*
X87848702Y-56969846D01*
X87848702Y-56969847D01*
X87838579Y-56984960D01*
X87837410Y-56986705D01*
X87823485Y-56995986D01*
X87778257Y-57049979D01*
X87769400Y-57119852D01*
X87823247Y-57203851D01*
X87837152Y-57213165D01*
X87848405Y-57230048D01*
X87854775Y-57262265D01*
X87854119Y-57837645D01*
X87847676Y-57869844D01*
X87847675Y-57869845D01*
X87847675Y-57869846D01*
X87836899Y-57885934D01*
X87836383Y-57886704D01*
X87819501Y-57897956D01*
X87787284Y-57904326D01*
X87211904Y-57903670D01*
X87179705Y-57897227D01*
X87179704Y-57897226D01*
X87179703Y-57897226D01*
X87162846Y-57885935D01*
X87162845Y-57885934D01*
X87153564Y-57872009D01*
X87099571Y-57826781D01*
X87029698Y-57817924D01*
X86945699Y-57871771D01*
X86937977Y-57883300D01*
X86936384Y-57885678D01*
X86919502Y-57896930D01*
X86887285Y-57903300D01*
X86311905Y-57902644D01*
X86279706Y-57896201D01*
X86279705Y-57896200D01*
X86279704Y-57896200D01*
X86262847Y-57884909D01*
X86262021Y-57883670D01*
X86251594Y-57868026D01*
X86245224Y-57835809D01*
X86245880Y-57260429D01*
X86252323Y-57228230D01*
X86252395Y-57228123D01*
X86263615Y-57211371D01*
X86263616Y-57211371D01*
X86263616Y-57211370D01*
X86277541Y-57202089D01*
X86322769Y-57148096D01*
X86326479Y-57118826D01*
X86869400Y-57118826D01*
X86923247Y-57202825D01*
X86936006Y-57211371D01*
X86937154Y-57212140D01*
X86946435Y-57226065D01*
X87000428Y-57271293D01*
X87070301Y-57280150D01*
X87154300Y-57226303D01*
X87163614Y-57212397D01*
X87163615Y-57212397D01*
X87163615Y-57212396D01*
X87177540Y-57203115D01*
X87222768Y-57149122D01*
X87231625Y-57079249D01*
X87177778Y-56995250D01*
X87163873Y-56985936D01*
X87154591Y-56972010D01*
X87100598Y-56926782D01*
X87030725Y-56917925D01*
X86946726Y-56971771D01*
X86937411Y-56985678D01*
X86933993Y-56987956D01*
X86923485Y-56994960D01*
X86878257Y-57048953D01*
X86869400Y-57118826D01*
X86326479Y-57118826D01*
X86331626Y-57078223D01*
X86277779Y-56994224D01*
X86263873Y-56984910D01*
X86263415Y-56984223D01*
X86252620Y-56968027D01*
X86246250Y-56935810D01*
X86246906Y-56360430D01*
X86253349Y-56328231D01*
X86253421Y-56328124D01*
X86264641Y-56311372D01*
X86264642Y-56311372D01*
X86264642Y-56311371D01*
X86281524Y-56300119D01*
X86313741Y-56293749D01*
X86889121Y-56294405D01*
G37*
G36*
X89589121Y-56284405D02*
G01*
X89621320Y-56290848D01*
X89621321Y-56290849D01*
X89621322Y-56290849D01*
X89637783Y-56301875D01*
X89638180Y-56302141D01*
X89647461Y-56316066D01*
X89701454Y-56361294D01*
X89771327Y-56370151D01*
X89855326Y-56316305D01*
X89857428Y-56313167D01*
X89864641Y-56302398D01*
X89864642Y-56302398D01*
X89864642Y-56302397D01*
X89881524Y-56291145D01*
X89913741Y-56284775D01*
X90489121Y-56285431D01*
X90521320Y-56291874D01*
X90521321Y-56291875D01*
X90521322Y-56291875D01*
X90537032Y-56302398D01*
X90538180Y-56303167D01*
X90549432Y-56320049D01*
X90555802Y-56352266D01*
X90555146Y-56927646D01*
X90548703Y-56959845D01*
X90548702Y-56959846D01*
X90548702Y-56959847D01*
X90538579Y-56974960D01*
X90537410Y-56976705D01*
X90523485Y-56985986D01*
X90478257Y-57039979D01*
X90469400Y-57109852D01*
X90523247Y-57193851D01*
X90537152Y-57203165D01*
X90548405Y-57220048D01*
X90554775Y-57252265D01*
X90554119Y-57827645D01*
X90547676Y-57859844D01*
X90547675Y-57859845D01*
X90547675Y-57859846D01*
X90536899Y-57875934D01*
X90536383Y-57876704D01*
X90519501Y-57887956D01*
X90487284Y-57894326D01*
X89911904Y-57893670D01*
X89879705Y-57887227D01*
X89879704Y-57887226D01*
X89879703Y-57887226D01*
X89862846Y-57875935D01*
X89862845Y-57875934D01*
X89853564Y-57862009D01*
X89799571Y-57816781D01*
X89729698Y-57807924D01*
X89645699Y-57861771D01*
X89636900Y-57874908D01*
X89636384Y-57875678D01*
X89619502Y-57886930D01*
X89587285Y-57893300D01*
X89011905Y-57892644D01*
X88979706Y-57886201D01*
X88979705Y-57886200D01*
X88979704Y-57886200D01*
X88962847Y-57874909D01*
X88960756Y-57871772D01*
X88951594Y-57858026D01*
X88945224Y-57825809D01*
X88945880Y-57250429D01*
X88952323Y-57218230D01*
X88955716Y-57213165D01*
X88963615Y-57201371D01*
X88963616Y-57201371D01*
X88963616Y-57201370D01*
X88977541Y-57192089D01*
X89022769Y-57138096D01*
X89026479Y-57108826D01*
X89569400Y-57108826D01*
X89623247Y-57192825D01*
X89636006Y-57201371D01*
X89637154Y-57202140D01*
X89646435Y-57216065D01*
X89700428Y-57261293D01*
X89770301Y-57270150D01*
X89854300Y-57216303D01*
X89863614Y-57202397D01*
X89863615Y-57202397D01*
X89863615Y-57202396D01*
X89877540Y-57193115D01*
X89922768Y-57139122D01*
X89931625Y-57069249D01*
X89877778Y-56985250D01*
X89863873Y-56975936D01*
X89854591Y-56962010D01*
X89800598Y-56916782D01*
X89730725Y-56907925D01*
X89646726Y-56961771D01*
X89637411Y-56975678D01*
X89633993Y-56977956D01*
X89623485Y-56984960D01*
X89578257Y-57038953D01*
X89569400Y-57108826D01*
X89026479Y-57108826D01*
X89031626Y-57068223D01*
X88977779Y-56984224D01*
X88963873Y-56974910D01*
X88961940Y-56972010D01*
X88952620Y-56958027D01*
X88946250Y-56925810D01*
X88946906Y-56350430D01*
X88953349Y-56318231D01*
X88956742Y-56313166D01*
X88964641Y-56301372D01*
X88964642Y-56301372D01*
X88964642Y-56301371D01*
X88981524Y-56290119D01*
X89013741Y-56283749D01*
X89589121Y-56284405D01*
G37*
G36*
X92289121Y-56274405D02*
G01*
X92321320Y-56280848D01*
X92321321Y-56280849D01*
X92321322Y-56280849D01*
X92337783Y-56291875D01*
X92338180Y-56292141D01*
X92347461Y-56306066D01*
X92401454Y-56351294D01*
X92471327Y-56360151D01*
X92555326Y-56306305D01*
X92557428Y-56303167D01*
X92564641Y-56292398D01*
X92564642Y-56292398D01*
X92564642Y-56292397D01*
X92581524Y-56281145D01*
X92613741Y-56274775D01*
X93189121Y-56275431D01*
X93221320Y-56281874D01*
X93221321Y-56281875D01*
X93221322Y-56281875D01*
X93237032Y-56292398D01*
X93238180Y-56293167D01*
X93249432Y-56310049D01*
X93255802Y-56342266D01*
X93255146Y-56917646D01*
X93248703Y-56949845D01*
X93248702Y-56949846D01*
X93248702Y-56949847D01*
X93238098Y-56965678D01*
X93237410Y-56966705D01*
X93223485Y-56975986D01*
X93178257Y-57029979D01*
X93169400Y-57099852D01*
X93223247Y-57183851D01*
X93237152Y-57193165D01*
X93248405Y-57210048D01*
X93254775Y-57242265D01*
X93254119Y-57817645D01*
X93247676Y-57849844D01*
X93247675Y-57849845D01*
X93247675Y-57849846D01*
X93236899Y-57865934D01*
X93236383Y-57866704D01*
X93219501Y-57877956D01*
X93187284Y-57884326D01*
X92611904Y-57883670D01*
X92579705Y-57877227D01*
X92579704Y-57877226D01*
X92579703Y-57877226D01*
X92562846Y-57865935D01*
X92562845Y-57865934D01*
X92553564Y-57852009D01*
X92499571Y-57806781D01*
X92429698Y-57797924D01*
X92345699Y-57851771D01*
X92336900Y-57864908D01*
X92336384Y-57865678D01*
X92319502Y-57876930D01*
X92287285Y-57883300D01*
X91711905Y-57882644D01*
X91679706Y-57876201D01*
X91679705Y-57876200D01*
X91679704Y-57876200D01*
X91662847Y-57864909D01*
X91660756Y-57861772D01*
X91651594Y-57848026D01*
X91645224Y-57815809D01*
X91645880Y-57240429D01*
X91652323Y-57208230D01*
X91655716Y-57203165D01*
X91663615Y-57191371D01*
X91663616Y-57191371D01*
X91663616Y-57191370D01*
X91677541Y-57182089D01*
X91722769Y-57128096D01*
X91726479Y-57098826D01*
X92269400Y-57098826D01*
X92323247Y-57182825D01*
X92336006Y-57191371D01*
X92337154Y-57192140D01*
X92346435Y-57206065D01*
X92400428Y-57251293D01*
X92470301Y-57260150D01*
X92554300Y-57206303D01*
X92563614Y-57192397D01*
X92563615Y-57192397D01*
X92563615Y-57192396D01*
X92577540Y-57183115D01*
X92622768Y-57129122D01*
X92631625Y-57059249D01*
X92577778Y-56975250D01*
X92563873Y-56965936D01*
X92554591Y-56952010D01*
X92500598Y-56906782D01*
X92430725Y-56897925D01*
X92346726Y-56951771D01*
X92337411Y-56965678D01*
X92333886Y-56968027D01*
X92323485Y-56974960D01*
X92278257Y-57028953D01*
X92269400Y-57098826D01*
X91726479Y-57098826D01*
X91731626Y-57058223D01*
X91677779Y-56974224D01*
X91663873Y-56964910D01*
X91661940Y-56962010D01*
X91652620Y-56948027D01*
X91646250Y-56915810D01*
X91646906Y-56340430D01*
X91653349Y-56308231D01*
X91656742Y-56303166D01*
X91664641Y-56291372D01*
X91664642Y-56291372D01*
X91664642Y-56291371D01*
X91681524Y-56280119D01*
X91713741Y-56273749D01*
X92289121Y-56274405D01*
G37*
G36*
X94988879Y-54394198D02*
G01*
X95021086Y-54400636D01*
X95037945Y-54411924D01*
X95047229Y-54425848D01*
X95101229Y-54471066D01*
X95171104Y-54479911D01*
X95255095Y-54426045D01*
X95264404Y-54412141D01*
X95281287Y-54400883D01*
X95313500Y-54394508D01*
X95888879Y-54395054D01*
X95921086Y-54401492D01*
X95937944Y-54412779D01*
X95949201Y-54429661D01*
X95955576Y-54461874D01*
X95955030Y-55037253D01*
X95948592Y-55069460D01*
X95937305Y-55086318D01*
X95926588Y-55093464D01*
X95924301Y-55094989D01*
X95923381Y-55095602D01*
X95878164Y-55149603D01*
X95869320Y-55219478D01*
X95923183Y-55303468D01*
X95937089Y-55312779D01*
X95948346Y-55329660D01*
X95954721Y-55361873D01*
X95954175Y-55937252D01*
X95947737Y-55969459D01*
X95936450Y-55986317D01*
X95919568Y-55997574D01*
X95887355Y-56003949D01*
X95311976Y-56003403D01*
X95279769Y-55996965D01*
X95262911Y-55985677D01*
X95253626Y-55971753D01*
X95199624Y-55926535D01*
X95129749Y-55917692D01*
X95045760Y-55971557D01*
X95036451Y-55985461D01*
X95019568Y-55996719D01*
X94987355Y-56003094D01*
X94411976Y-56002548D01*
X94379769Y-55996110D01*
X94362911Y-55984823D01*
X94351654Y-55967941D01*
X94345279Y-55935728D01*
X94345825Y-55360349D01*
X94352263Y-55328142D01*
X94363551Y-55311284D01*
X94377475Y-55301999D01*
X94422693Y-55247997D01*
X94426410Y-55218624D01*
X94969319Y-55218624D01*
X95023184Y-55302613D01*
X95037088Y-55311923D01*
X95037089Y-55311924D01*
X95043715Y-55321861D01*
X95046374Y-55325848D01*
X95100376Y-55371066D01*
X95170251Y-55379909D01*
X95254240Y-55326044D01*
X95263549Y-55312140D01*
X95272985Y-55305848D01*
X95277474Y-55302855D01*
X95322691Y-55248854D01*
X95331535Y-55178979D01*
X95277672Y-55094989D01*
X95272481Y-55091513D01*
X95263766Y-55085678D01*
X95263307Y-55084989D01*
X95254481Y-55071754D01*
X95200481Y-55026536D01*
X95130606Y-55017691D01*
X95046615Y-55071557D01*
X95037621Y-55084989D01*
X95037304Y-55085462D01*
X95030368Y-55090087D01*
X95023380Y-55094747D01*
X94978162Y-55148749D01*
X94969319Y-55218624D01*
X94426410Y-55218624D01*
X94431536Y-55178122D01*
X94377671Y-55094133D01*
X94363767Y-55084824D01*
X94352509Y-55067941D01*
X94346134Y-55035728D01*
X94346680Y-54460349D01*
X94353118Y-54428142D01*
X94364405Y-54411284D01*
X94381287Y-54400027D01*
X94413500Y-54393652D01*
X94988879Y-54394198D01*
G37*
G36*
X86888879Y-54394198D02*
G01*
X86921086Y-54400636D01*
X86937945Y-54411924D01*
X86947229Y-54425848D01*
X87001229Y-54471066D01*
X87071104Y-54479911D01*
X87155095Y-54426045D01*
X87164404Y-54412141D01*
X87181287Y-54400883D01*
X87213500Y-54394508D01*
X87788879Y-54395054D01*
X87821086Y-54401492D01*
X87837944Y-54412779D01*
X87849201Y-54429661D01*
X87855576Y-54461874D01*
X87855030Y-55037253D01*
X87848592Y-55069460D01*
X87837305Y-55086318D01*
X87826588Y-55093464D01*
X87824301Y-55094989D01*
X87823381Y-55095602D01*
X87778164Y-55149603D01*
X87769320Y-55219478D01*
X87823183Y-55303468D01*
X87837089Y-55312779D01*
X87848346Y-55329660D01*
X87854721Y-55361873D01*
X87854175Y-55937252D01*
X87847737Y-55969459D01*
X87836450Y-55986317D01*
X87819568Y-55997574D01*
X87787355Y-56003949D01*
X87211976Y-56003403D01*
X87179769Y-55996965D01*
X87162911Y-55985677D01*
X87153626Y-55971753D01*
X87099624Y-55926535D01*
X87029749Y-55917692D01*
X86945760Y-55971557D01*
X86936451Y-55985461D01*
X86919568Y-55996719D01*
X86887355Y-56003094D01*
X86311976Y-56002548D01*
X86279769Y-55996110D01*
X86262911Y-55984823D01*
X86251654Y-55967941D01*
X86245279Y-55935728D01*
X86245825Y-55360349D01*
X86252263Y-55328142D01*
X86263551Y-55311284D01*
X86277475Y-55301999D01*
X86322693Y-55247997D01*
X86326410Y-55218624D01*
X86869319Y-55218624D01*
X86923184Y-55302613D01*
X86937088Y-55311923D01*
X86937089Y-55311924D01*
X86943715Y-55321861D01*
X86946374Y-55325848D01*
X87000376Y-55371066D01*
X87070251Y-55379909D01*
X87154240Y-55326044D01*
X87163549Y-55312140D01*
X87172985Y-55305848D01*
X87177474Y-55302855D01*
X87222691Y-55248854D01*
X87231535Y-55178979D01*
X87177672Y-55094989D01*
X87172481Y-55091513D01*
X87163766Y-55085678D01*
X87163307Y-55084989D01*
X87154481Y-55071754D01*
X87100481Y-55026536D01*
X87030606Y-55017691D01*
X86946615Y-55071557D01*
X86937621Y-55084989D01*
X86937304Y-55085462D01*
X86930368Y-55090087D01*
X86923380Y-55094747D01*
X86878162Y-55148749D01*
X86869319Y-55218624D01*
X86326410Y-55218624D01*
X86331536Y-55178122D01*
X86277671Y-55094133D01*
X86263767Y-55084824D01*
X86252509Y-55067941D01*
X86246134Y-55035728D01*
X86246680Y-54460349D01*
X86253118Y-54428142D01*
X86264405Y-54411284D01*
X86281287Y-54400027D01*
X86313500Y-54393652D01*
X86888879Y-54394198D01*
G37*
G36*
X89588879Y-54384198D02*
G01*
X89621086Y-54390636D01*
X89637945Y-54401924D01*
X89647229Y-54415848D01*
X89701229Y-54461066D01*
X89771104Y-54469911D01*
X89855095Y-54416045D01*
X89864404Y-54402141D01*
X89881287Y-54390883D01*
X89913500Y-54384508D01*
X90488879Y-54385054D01*
X90521086Y-54391492D01*
X90537944Y-54402779D01*
X90549201Y-54419661D01*
X90555576Y-54451874D01*
X90555030Y-55027253D01*
X90548592Y-55059460D01*
X90537305Y-55076318D01*
X90526588Y-55083464D01*
X90523593Y-55085461D01*
X90523381Y-55085602D01*
X90478164Y-55139603D01*
X90469320Y-55209478D01*
X90523183Y-55293468D01*
X90537089Y-55302779D01*
X90548346Y-55319660D01*
X90554721Y-55351873D01*
X90554175Y-55927252D01*
X90547737Y-55959459D01*
X90536450Y-55976317D01*
X90519568Y-55987574D01*
X90487355Y-55993949D01*
X89911976Y-55993403D01*
X89879769Y-55986965D01*
X89862911Y-55975677D01*
X89853626Y-55961753D01*
X89799624Y-55916535D01*
X89729749Y-55907692D01*
X89645760Y-55961557D01*
X89636451Y-55975461D01*
X89619568Y-55986719D01*
X89587355Y-55993094D01*
X89011976Y-55992548D01*
X88979769Y-55986110D01*
X88962911Y-55974823D01*
X88951654Y-55957941D01*
X88945279Y-55925728D01*
X88945825Y-55350349D01*
X88952263Y-55318142D01*
X88963551Y-55301284D01*
X88977475Y-55291999D01*
X89022693Y-55237997D01*
X89026410Y-55208624D01*
X89569319Y-55208624D01*
X89623184Y-55292613D01*
X89637088Y-55301923D01*
X89637089Y-55301924D01*
X89643330Y-55311284D01*
X89646374Y-55315848D01*
X89700376Y-55361066D01*
X89770251Y-55369909D01*
X89854240Y-55316044D01*
X89863549Y-55302140D01*
X89872624Y-55296089D01*
X89877474Y-55292855D01*
X89922691Y-55238854D01*
X89931535Y-55168979D01*
X89877672Y-55084989D01*
X89872481Y-55081513D01*
X89863766Y-55075678D01*
X89863307Y-55074989D01*
X89854481Y-55061754D01*
X89800481Y-55016536D01*
X89730606Y-55007691D01*
X89646615Y-55061557D01*
X89637621Y-55074989D01*
X89637304Y-55075462D01*
X89630368Y-55080087D01*
X89623380Y-55084747D01*
X89578162Y-55138749D01*
X89569319Y-55208624D01*
X89026410Y-55208624D01*
X89031536Y-55168122D01*
X88977671Y-55084133D01*
X88963767Y-55074824D01*
X88952509Y-55057941D01*
X88946134Y-55025728D01*
X88946680Y-54450349D01*
X88953118Y-54418142D01*
X88964405Y-54401284D01*
X88981287Y-54390027D01*
X89013500Y-54383652D01*
X89588879Y-54384198D01*
G37*
G36*
X92288879Y-54374198D02*
G01*
X92321086Y-54380636D01*
X92337945Y-54391924D01*
X92347229Y-54405848D01*
X92401229Y-54451066D01*
X92471104Y-54459911D01*
X92555095Y-54406045D01*
X92564404Y-54392141D01*
X92581287Y-54380883D01*
X92613500Y-54374508D01*
X93188879Y-54375054D01*
X93221086Y-54381492D01*
X93237944Y-54392779D01*
X93249201Y-54409661D01*
X93255576Y-54441874D01*
X93255030Y-55017253D01*
X93248592Y-55049460D01*
X93237305Y-55066318D01*
X93229152Y-55071754D01*
X93223593Y-55075461D01*
X93223381Y-55075602D01*
X93178164Y-55129603D01*
X93169320Y-55199478D01*
X93223183Y-55283468D01*
X93237089Y-55292779D01*
X93248346Y-55309660D01*
X93254721Y-55341873D01*
X93254175Y-55917252D01*
X93247737Y-55949459D01*
X93236450Y-55966317D01*
X93219568Y-55977574D01*
X93187355Y-55983949D01*
X92611976Y-55983403D01*
X92579769Y-55976965D01*
X92562911Y-55965677D01*
X92553626Y-55951753D01*
X92499624Y-55906535D01*
X92429749Y-55897692D01*
X92345760Y-55951557D01*
X92336451Y-55965461D01*
X92319568Y-55976719D01*
X92287355Y-55983094D01*
X91711976Y-55982548D01*
X91679769Y-55976110D01*
X91662911Y-55964823D01*
X91651654Y-55947941D01*
X91645279Y-55915728D01*
X91645825Y-55340349D01*
X91652263Y-55308142D01*
X91663551Y-55291284D01*
X91677475Y-55281999D01*
X91722693Y-55227997D01*
X91726410Y-55198624D01*
X92269319Y-55198624D01*
X92323184Y-55282613D01*
X92337088Y-55291923D01*
X92337089Y-55291924D01*
X92343715Y-55301861D01*
X92346374Y-55305848D01*
X92400376Y-55351066D01*
X92470251Y-55359909D01*
X92554240Y-55306044D01*
X92563549Y-55292140D01*
X92572624Y-55286089D01*
X92577474Y-55282855D01*
X92622691Y-55228854D01*
X92631535Y-55158979D01*
X92577672Y-55074989D01*
X92568135Y-55068603D01*
X92563766Y-55065678D01*
X92563197Y-55064824D01*
X92554481Y-55051754D01*
X92500481Y-55006536D01*
X92430606Y-54997691D01*
X92346615Y-55051557D01*
X92337305Y-55065461D01*
X92337304Y-55065462D01*
X92332301Y-55068798D01*
X92323380Y-55074747D01*
X92278162Y-55128749D01*
X92269319Y-55198624D01*
X91726410Y-55198624D01*
X91731536Y-55158122D01*
X91677671Y-55074133D01*
X91663767Y-55064824D01*
X91652509Y-55047941D01*
X91646134Y-55015728D01*
X91646680Y-54440349D01*
X91653118Y-54408142D01*
X91664405Y-54391284D01*
X91681287Y-54380027D01*
X91713500Y-54373652D01*
X92288879Y-54374198D01*
G37*
G36*
X86888639Y-52493993D02*
G01*
X86900948Y-52496451D01*
X86900952Y-52496451D01*
X86920848Y-52500424D01*
X86921870Y-52501108D01*
X86937710Y-52511709D01*
X86946996Y-52525630D01*
X87001005Y-52570838D01*
X87070881Y-52579670D01*
X87154862Y-52525789D01*
X87164170Y-52511881D01*
X87181049Y-52500622D01*
X87213265Y-52494239D01*
X87788639Y-52494677D01*
X87800948Y-52497135D01*
X87800952Y-52497135D01*
X87820848Y-52501108D01*
X87831232Y-52508058D01*
X87837709Y-52512393D01*
X87848968Y-52529270D01*
X87855351Y-52561487D01*
X87854913Y-53136861D01*
X87852455Y-53149170D01*
X87852455Y-53149174D01*
X87848482Y-53169070D01*
X87848481Y-53169071D01*
X87837197Y-53185932D01*
X87823276Y-53195218D01*
X87778068Y-53249227D01*
X87769236Y-53319103D01*
X87823117Y-53403084D01*
X87837025Y-53412392D01*
X87848284Y-53429270D01*
X87854667Y-53461487D01*
X87854229Y-54036861D01*
X87851771Y-54049170D01*
X87851771Y-54049174D01*
X87847798Y-54069070D01*
X87842363Y-54077190D01*
X87836513Y-54085931D01*
X87819635Y-54097190D01*
X87787419Y-54103573D01*
X87212045Y-54103135D01*
X87199736Y-54100677D01*
X87199732Y-54100677D01*
X87179836Y-54096704D01*
X87174136Y-54092889D01*
X87162974Y-54085419D01*
X87153688Y-54071498D01*
X87099679Y-54026290D01*
X87029803Y-54017458D01*
X86945822Y-54071339D01*
X86936514Y-54085247D01*
X86919635Y-54096506D01*
X86887419Y-54102889D01*
X86312045Y-54102451D01*
X86299736Y-54099993D01*
X86299732Y-54099993D01*
X86279836Y-54096020D01*
X86262975Y-54084735D01*
X86251716Y-54067857D01*
X86249870Y-54058541D01*
X86245333Y-54035641D01*
X86245771Y-53460267D01*
X86248229Y-53447958D01*
X86248229Y-53447954D01*
X86252202Y-53428058D01*
X86258895Y-53418058D01*
X86263487Y-53411196D01*
X86277408Y-53401910D01*
X86322616Y-53347901D01*
X86326342Y-53318419D01*
X86869236Y-53318419D01*
X86923117Y-53402400D01*
X86937026Y-53411709D01*
X86946312Y-53425630D01*
X87000321Y-53470838D01*
X87070197Y-53479670D01*
X87154178Y-53425789D01*
X87163487Y-53411880D01*
X87177408Y-53402594D01*
X87222616Y-53348585D01*
X87231448Y-53278709D01*
X87177567Y-53194728D01*
X87163658Y-53185419D01*
X87154372Y-53171498D01*
X87100363Y-53126290D01*
X87030487Y-53117458D01*
X86946506Y-53171339D01*
X86937197Y-53185248D01*
X86923276Y-53194534D01*
X86878068Y-53248543D01*
X86869236Y-53318419D01*
X86326342Y-53318419D01*
X86331448Y-53278025D01*
X86277567Y-53194044D01*
X86263659Y-53184736D01*
X86252400Y-53167857D01*
X86246017Y-53135641D01*
X86246455Y-52560267D01*
X86248913Y-52547958D01*
X86248913Y-52547954D01*
X86252886Y-52528058D01*
X86264171Y-52511197D01*
X86281049Y-52499938D01*
X86313265Y-52493555D01*
X86888639Y-52493993D01*
G37*
G36*
X94988639Y-52493993D02*
G01*
X95000948Y-52496451D01*
X95000952Y-52496451D01*
X95020848Y-52500424D01*
X95021870Y-52501108D01*
X95037710Y-52511709D01*
X95046996Y-52525630D01*
X95101005Y-52570838D01*
X95170881Y-52579670D01*
X95254862Y-52525789D01*
X95264170Y-52511881D01*
X95281049Y-52500622D01*
X95313265Y-52494239D01*
X95888639Y-52494677D01*
X95900948Y-52497135D01*
X95900952Y-52497135D01*
X95920848Y-52501108D01*
X95931232Y-52508058D01*
X95937709Y-52512393D01*
X95948968Y-52529270D01*
X95955351Y-52561487D01*
X95954913Y-53136861D01*
X95952455Y-53149170D01*
X95952455Y-53149174D01*
X95948482Y-53169070D01*
X95948481Y-53169071D01*
X95937197Y-53185932D01*
X95923276Y-53195218D01*
X95878068Y-53249227D01*
X95869236Y-53319103D01*
X95923117Y-53403084D01*
X95937025Y-53412392D01*
X95948284Y-53429270D01*
X95954667Y-53461487D01*
X95954229Y-54036861D01*
X95951771Y-54049170D01*
X95951771Y-54049174D01*
X95947798Y-54069070D01*
X95942363Y-54077190D01*
X95936513Y-54085931D01*
X95919635Y-54097190D01*
X95887419Y-54103573D01*
X95312045Y-54103135D01*
X95299736Y-54100677D01*
X95299732Y-54100677D01*
X95279836Y-54096704D01*
X95274136Y-54092889D01*
X95262974Y-54085419D01*
X95253688Y-54071498D01*
X95199679Y-54026290D01*
X95129803Y-54017458D01*
X95045822Y-54071339D01*
X95036514Y-54085247D01*
X95019635Y-54096506D01*
X94987419Y-54102889D01*
X94412045Y-54102451D01*
X94399736Y-54099993D01*
X94399732Y-54099993D01*
X94379836Y-54096020D01*
X94362975Y-54084735D01*
X94351716Y-54067857D01*
X94349870Y-54058541D01*
X94345333Y-54035641D01*
X94345771Y-53460267D01*
X94348229Y-53447958D01*
X94348229Y-53447954D01*
X94352202Y-53428058D01*
X94358895Y-53418058D01*
X94363487Y-53411196D01*
X94377408Y-53401910D01*
X94422616Y-53347901D01*
X94426342Y-53318419D01*
X94969236Y-53318419D01*
X95023117Y-53402400D01*
X95037026Y-53411709D01*
X95046312Y-53425630D01*
X95100321Y-53470838D01*
X95170197Y-53479670D01*
X95254178Y-53425789D01*
X95263487Y-53411880D01*
X95277408Y-53402594D01*
X95322616Y-53348585D01*
X95331448Y-53278709D01*
X95277567Y-53194728D01*
X95263658Y-53185419D01*
X95254372Y-53171498D01*
X95200363Y-53126290D01*
X95130487Y-53117458D01*
X95046506Y-53171339D01*
X95037197Y-53185248D01*
X95023276Y-53194534D01*
X94978068Y-53248543D01*
X94969236Y-53318419D01*
X94426342Y-53318419D01*
X94431448Y-53278025D01*
X94377567Y-53194044D01*
X94363659Y-53184736D01*
X94352400Y-53167857D01*
X94346017Y-53135641D01*
X94346455Y-52560267D01*
X94348913Y-52547958D01*
X94348913Y-52547954D01*
X94352886Y-52528058D01*
X94364171Y-52511197D01*
X94381049Y-52499938D01*
X94413265Y-52493555D01*
X94988639Y-52493993D01*
G37*
G36*
X89588639Y-52483993D02*
G01*
X89600948Y-52486451D01*
X89600952Y-52486451D01*
X89620848Y-52490424D01*
X89621870Y-52491108D01*
X89637710Y-52501709D01*
X89646996Y-52515630D01*
X89701005Y-52560838D01*
X89770881Y-52569670D01*
X89854862Y-52515789D01*
X89864170Y-52501881D01*
X89881049Y-52490622D01*
X89913265Y-52484239D01*
X90488639Y-52484677D01*
X90500948Y-52487135D01*
X90500952Y-52487135D01*
X90520848Y-52491108D01*
X90529853Y-52497135D01*
X90537709Y-52502393D01*
X90548968Y-52519271D01*
X90555351Y-52551487D01*
X90554913Y-53126861D01*
X90552455Y-53139170D01*
X90552455Y-53139174D01*
X90548482Y-53159070D01*
X90548481Y-53159071D01*
X90537197Y-53175932D01*
X90523276Y-53185218D01*
X90478068Y-53239227D01*
X90469236Y-53309103D01*
X90523117Y-53393084D01*
X90537025Y-53402392D01*
X90548284Y-53419271D01*
X90554667Y-53451487D01*
X90554229Y-54026861D01*
X90551771Y-54039170D01*
X90551771Y-54039174D01*
X90547798Y-54059070D01*
X90543206Y-54065931D01*
X90536513Y-54075931D01*
X90519635Y-54087190D01*
X90487419Y-54093573D01*
X89912045Y-54093135D01*
X89899736Y-54090677D01*
X89899732Y-54090677D01*
X89879836Y-54086704D01*
X89874136Y-54082889D01*
X89862974Y-54075419D01*
X89853688Y-54061498D01*
X89799679Y-54016290D01*
X89729803Y-54007458D01*
X89645822Y-54061339D01*
X89636514Y-54075247D01*
X89619635Y-54086506D01*
X89587419Y-54092889D01*
X89012045Y-54092451D01*
X88999736Y-54089993D01*
X88999732Y-54089993D01*
X88979836Y-54086020D01*
X88962975Y-54074735D01*
X88951716Y-54057857D01*
X88949975Y-54049070D01*
X88945333Y-54025641D01*
X88945771Y-53450267D01*
X88948229Y-53437958D01*
X88948229Y-53437954D01*
X88952202Y-53418058D01*
X88958895Y-53408058D01*
X88963487Y-53401196D01*
X88977408Y-53391910D01*
X89022616Y-53337901D01*
X89026342Y-53308419D01*
X89569236Y-53308419D01*
X89623117Y-53392400D01*
X89637026Y-53401709D01*
X89646312Y-53415630D01*
X89700321Y-53460838D01*
X89770197Y-53469670D01*
X89854178Y-53415789D01*
X89863487Y-53401880D01*
X89877408Y-53392594D01*
X89922616Y-53338585D01*
X89931448Y-53268709D01*
X89877567Y-53184728D01*
X89863658Y-53175419D01*
X89854372Y-53161498D01*
X89800363Y-53116290D01*
X89730487Y-53107458D01*
X89646506Y-53161339D01*
X89637197Y-53175248D01*
X89623276Y-53184534D01*
X89578068Y-53238543D01*
X89569236Y-53308419D01*
X89026342Y-53308419D01*
X89031448Y-53268025D01*
X88977567Y-53184044D01*
X88963659Y-53174736D01*
X88952400Y-53157857D01*
X88946017Y-53125641D01*
X88946455Y-52550267D01*
X88948913Y-52537958D01*
X88948913Y-52537954D01*
X88952886Y-52518058D01*
X88964171Y-52501197D01*
X88981049Y-52489938D01*
X89013265Y-52483555D01*
X89588639Y-52483993D01*
G37*
G36*
X92288639Y-52473993D02*
G01*
X92300948Y-52476451D01*
X92300952Y-52476451D01*
X92320848Y-52480424D01*
X92321870Y-52481108D01*
X92337710Y-52491709D01*
X92346996Y-52505630D01*
X92401005Y-52550838D01*
X92470881Y-52559670D01*
X92554862Y-52505789D01*
X92564170Y-52491881D01*
X92581049Y-52480622D01*
X92613265Y-52474239D01*
X93188639Y-52474677D01*
X93200948Y-52477135D01*
X93200952Y-52477135D01*
X93220848Y-52481108D01*
X93229853Y-52487135D01*
X93237709Y-52492393D01*
X93248968Y-52509271D01*
X93255351Y-52541487D01*
X93254913Y-53116861D01*
X93252455Y-53129170D01*
X93252455Y-53129174D01*
X93248482Y-53149070D01*
X93248481Y-53149071D01*
X93237197Y-53165932D01*
X93223276Y-53175218D01*
X93178068Y-53229227D01*
X93169236Y-53299103D01*
X93223117Y-53383084D01*
X93237025Y-53392392D01*
X93248284Y-53409271D01*
X93254667Y-53441487D01*
X93254229Y-54016861D01*
X93251771Y-54029170D01*
X93251771Y-54029174D01*
X93247798Y-54049070D01*
X93247797Y-54049071D01*
X93236513Y-54065931D01*
X93219635Y-54077190D01*
X93187419Y-54083573D01*
X92612045Y-54083135D01*
X92599736Y-54080677D01*
X92599732Y-54080677D01*
X92579836Y-54076704D01*
X92574259Y-54072971D01*
X92562974Y-54065419D01*
X92553688Y-54051498D01*
X92499679Y-54006290D01*
X92429803Y-53997458D01*
X92345822Y-54051339D01*
X92336514Y-54065247D01*
X92319635Y-54076506D01*
X92287419Y-54082889D01*
X91712045Y-54082451D01*
X91699736Y-54079993D01*
X91699732Y-54079993D01*
X91679836Y-54076020D01*
X91662975Y-54064735D01*
X91651716Y-54047857D01*
X91649996Y-54039174D01*
X91645333Y-54015641D01*
X91645771Y-53440267D01*
X91648229Y-53427958D01*
X91648229Y-53427954D01*
X91652202Y-53408058D01*
X91657637Y-53399938D01*
X91663487Y-53391196D01*
X91677408Y-53381910D01*
X91722616Y-53327901D01*
X91726342Y-53298419D01*
X92269236Y-53298419D01*
X92323117Y-53382400D01*
X92337025Y-53391708D01*
X92346312Y-53405630D01*
X92400321Y-53450838D01*
X92470197Y-53459670D01*
X92554178Y-53405789D01*
X92563487Y-53391880D01*
X92577408Y-53382594D01*
X92622616Y-53328585D01*
X92631448Y-53258709D01*
X92577567Y-53174728D01*
X92563658Y-53165419D01*
X92554372Y-53151498D01*
X92500363Y-53106290D01*
X92430487Y-53097458D01*
X92346506Y-53151339D01*
X92337197Y-53165248D01*
X92323276Y-53174534D01*
X92278068Y-53228543D01*
X92269236Y-53298419D01*
X91726342Y-53298419D01*
X91731448Y-53258025D01*
X91677567Y-53174044D01*
X91663659Y-53164736D01*
X91652400Y-53147857D01*
X91646017Y-53115641D01*
X91646455Y-52540267D01*
X91648913Y-52527958D01*
X91648913Y-52527954D01*
X91652886Y-52508058D01*
X91664171Y-52491197D01*
X91681049Y-52479938D01*
X91713265Y-52473555D01*
X92288639Y-52473993D01*
G37*
G36*
X94988405Y-50593786D02*
G01*
X95020611Y-50600211D01*
X95037473Y-50611492D01*
X95037474Y-50611493D01*
X95042063Y-50618369D01*
X95046765Y-50625416D01*
X95100784Y-50670612D01*
X95170663Y-50679429D01*
X95254630Y-50625533D01*
X95263936Y-50611622D01*
X95280812Y-50600360D01*
X95280813Y-50600360D01*
X95280814Y-50600359D01*
X95313025Y-50593971D01*
X95888405Y-50594299D01*
X95920611Y-50600724D01*
X95937473Y-50612005D01*
X95937474Y-50612006D01*
X95948671Y-50628784D01*
X95948737Y-50628884D01*
X95955125Y-50661095D01*
X95954797Y-51236475D01*
X95948372Y-51268681D01*
X95937347Y-51285160D01*
X95937090Y-51285544D01*
X95923166Y-51294836D01*
X95877971Y-51348854D01*
X95869154Y-51418733D01*
X95923050Y-51502700D01*
X95936961Y-51512006D01*
X95948223Y-51528882D01*
X95948224Y-51528884D01*
X95954612Y-51561095D01*
X95954284Y-52136475D01*
X95947859Y-52168681D01*
X95936578Y-52185543D01*
X95936577Y-52185544D01*
X95919701Y-52196806D01*
X95919700Y-52196806D01*
X95919699Y-52196807D01*
X95887488Y-52203195D01*
X95312108Y-52202867D01*
X95279902Y-52196442D01*
X95263040Y-52185161D01*
X95262953Y-52185031D01*
X95253747Y-52171236D01*
X95199729Y-52126041D01*
X95129850Y-52117224D01*
X95045883Y-52171120D01*
X95036577Y-52185031D01*
X95019701Y-52196293D01*
X95019700Y-52196293D01*
X95019699Y-52196294D01*
X94987488Y-52202682D01*
X94412108Y-52202354D01*
X94379902Y-52195929D01*
X94363040Y-52184648D01*
X94361509Y-52182354D01*
X94351777Y-52167771D01*
X94351777Y-52167770D01*
X94351776Y-52167769D01*
X94345388Y-52135558D01*
X94345716Y-51560178D01*
X94352141Y-51527972D01*
X94363422Y-51511110D01*
X94363423Y-51511109D01*
X94377347Y-51501817D01*
X94422542Y-51447799D01*
X94426274Y-51418220D01*
X94969154Y-51418220D01*
X95023050Y-51502187D01*
X95036961Y-51511493D01*
X95041893Y-51518884D01*
X95046252Y-51525416D01*
X95100271Y-51570612D01*
X95170150Y-51579429D01*
X95254117Y-51525533D01*
X95263423Y-51511622D01*
X95277347Y-51502330D01*
X95322542Y-51448312D01*
X95331359Y-51378433D01*
X95277463Y-51294466D01*
X95263552Y-51285160D01*
X95254260Y-51271236D01*
X95200242Y-51226041D01*
X95130363Y-51217224D01*
X95046396Y-51271120D01*
X95037090Y-51285031D01*
X95023166Y-51294323D01*
X94977971Y-51348341D01*
X94969154Y-51418220D01*
X94426274Y-51418220D01*
X94431359Y-51377920D01*
X94377463Y-51293953D01*
X94363552Y-51284647D01*
X94352290Y-51267771D01*
X94352290Y-51267770D01*
X94352289Y-51267769D01*
X94345901Y-51235558D01*
X94346229Y-50660178D01*
X94352654Y-50627972D01*
X94363935Y-50611110D01*
X94363936Y-50611109D01*
X94380812Y-50599847D01*
X94380813Y-50599847D01*
X94380814Y-50599846D01*
X94413025Y-50593458D01*
X94988405Y-50593786D01*
G37*
G36*
X86888405Y-50593786D02*
G01*
X86920611Y-50600211D01*
X86937473Y-50611492D01*
X86937474Y-50611493D01*
X86942063Y-50618369D01*
X86946765Y-50625416D01*
X87000784Y-50670612D01*
X87070663Y-50679429D01*
X87154630Y-50625533D01*
X87163936Y-50611622D01*
X87180812Y-50600360D01*
X87180813Y-50600360D01*
X87180814Y-50600359D01*
X87213025Y-50593971D01*
X87788405Y-50594299D01*
X87820611Y-50600724D01*
X87837473Y-50612005D01*
X87837474Y-50612006D01*
X87848671Y-50628784D01*
X87848737Y-50628884D01*
X87855125Y-50661095D01*
X87854797Y-51236475D01*
X87848372Y-51268681D01*
X87837347Y-51285160D01*
X87837090Y-51285544D01*
X87823166Y-51294836D01*
X87777971Y-51348854D01*
X87769154Y-51418733D01*
X87823050Y-51502700D01*
X87836961Y-51512006D01*
X87848223Y-51528882D01*
X87848224Y-51528884D01*
X87854612Y-51561095D01*
X87854284Y-52136475D01*
X87847859Y-52168681D01*
X87836578Y-52185543D01*
X87836577Y-52185544D01*
X87819701Y-52196806D01*
X87819700Y-52196806D01*
X87819699Y-52196807D01*
X87787488Y-52203195D01*
X87212108Y-52202867D01*
X87179902Y-52196442D01*
X87163040Y-52185161D01*
X87162953Y-52185031D01*
X87153747Y-52171236D01*
X87099729Y-52126041D01*
X87029850Y-52117224D01*
X86945883Y-52171120D01*
X86936577Y-52185031D01*
X86919701Y-52196293D01*
X86919700Y-52196293D01*
X86919699Y-52196294D01*
X86887488Y-52202682D01*
X86312108Y-52202354D01*
X86279902Y-52195929D01*
X86263040Y-52184648D01*
X86261509Y-52182354D01*
X86251777Y-52167771D01*
X86251777Y-52167770D01*
X86251776Y-52167769D01*
X86245388Y-52135558D01*
X86245716Y-51560178D01*
X86252141Y-51527972D01*
X86263422Y-51511110D01*
X86263423Y-51511109D01*
X86277347Y-51501817D01*
X86322542Y-51447799D01*
X86326274Y-51418220D01*
X86869154Y-51418220D01*
X86923050Y-51502187D01*
X86936961Y-51511493D01*
X86941893Y-51518884D01*
X86946252Y-51525416D01*
X87000271Y-51570612D01*
X87070150Y-51579429D01*
X87154117Y-51525533D01*
X87163423Y-51511622D01*
X87177347Y-51502330D01*
X87222542Y-51448312D01*
X87231359Y-51378433D01*
X87177463Y-51294466D01*
X87163552Y-51285160D01*
X87154260Y-51271236D01*
X87100242Y-51226041D01*
X87030363Y-51217224D01*
X86946396Y-51271120D01*
X86937090Y-51285031D01*
X86923166Y-51294323D01*
X86877971Y-51348341D01*
X86869154Y-51418220D01*
X86326274Y-51418220D01*
X86331359Y-51377920D01*
X86277463Y-51293953D01*
X86263552Y-51284647D01*
X86252290Y-51267771D01*
X86252290Y-51267770D01*
X86252289Y-51267769D01*
X86245901Y-51235558D01*
X86246229Y-50660178D01*
X86252654Y-50627972D01*
X86263935Y-50611110D01*
X86263936Y-50611109D01*
X86280812Y-50599847D01*
X86280813Y-50599847D01*
X86280814Y-50599846D01*
X86313025Y-50593458D01*
X86888405Y-50593786D01*
G37*
G36*
X89588405Y-50583786D02*
G01*
X89620611Y-50590211D01*
X89637473Y-50601492D01*
X89637474Y-50601493D01*
X89644490Y-50612006D01*
X89646765Y-50615416D01*
X89700784Y-50660612D01*
X89770663Y-50669429D01*
X89854630Y-50615533D01*
X89863936Y-50601622D01*
X89880812Y-50590360D01*
X89880813Y-50590360D01*
X89880814Y-50590359D01*
X89913025Y-50583971D01*
X90488405Y-50584299D01*
X90520611Y-50590724D01*
X90537473Y-50602005D01*
X90537474Y-50602006D01*
X90548394Y-50618369D01*
X90548737Y-50618884D01*
X90555125Y-50651095D01*
X90554797Y-51226475D01*
X90548372Y-51258681D01*
X90537347Y-51275160D01*
X90537090Y-51275544D01*
X90523166Y-51284836D01*
X90477971Y-51338854D01*
X90469154Y-51408733D01*
X90523050Y-51492700D01*
X90536961Y-51502006D01*
X90547958Y-51518485D01*
X90548224Y-51518884D01*
X90554612Y-51551095D01*
X90554284Y-52126475D01*
X90547859Y-52158681D01*
X90536578Y-52175543D01*
X90536577Y-52175544D01*
X90519701Y-52186806D01*
X90519700Y-52186806D01*
X90519699Y-52186807D01*
X90487488Y-52193195D01*
X89912108Y-52192867D01*
X89879902Y-52186442D01*
X89863040Y-52175161D01*
X89862953Y-52175031D01*
X89853747Y-52161236D01*
X89799729Y-52116041D01*
X89729850Y-52107224D01*
X89645883Y-52161120D01*
X89636577Y-52175031D01*
X89619701Y-52186293D01*
X89619700Y-52186293D01*
X89619699Y-52186294D01*
X89587488Y-52192682D01*
X89012108Y-52192354D01*
X88979902Y-52185929D01*
X88963040Y-52174648D01*
X88963039Y-52174647D01*
X88951777Y-52157771D01*
X88951777Y-52157770D01*
X88951776Y-52157769D01*
X88945388Y-52125558D01*
X88945716Y-51550178D01*
X88952141Y-51517972D01*
X88963422Y-51501110D01*
X88963423Y-51501109D01*
X88977347Y-51491817D01*
X89022542Y-51437799D01*
X89026274Y-51408220D01*
X89569154Y-51408220D01*
X89623050Y-51492187D01*
X89636961Y-51501493D01*
X89646252Y-51515416D01*
X89700271Y-51560612D01*
X89770150Y-51569429D01*
X89854117Y-51515533D01*
X89863423Y-51501622D01*
X89877347Y-51492330D01*
X89922542Y-51438312D01*
X89931359Y-51368433D01*
X89877463Y-51284466D01*
X89863552Y-51275160D01*
X89854260Y-51261236D01*
X89800242Y-51216041D01*
X89730363Y-51207224D01*
X89646396Y-51261120D01*
X89637090Y-51275031D01*
X89623166Y-51284323D01*
X89577971Y-51338341D01*
X89569154Y-51408220D01*
X89026274Y-51408220D01*
X89031359Y-51367920D01*
X88977463Y-51283953D01*
X88963552Y-51274647D01*
X88952290Y-51257771D01*
X88952290Y-51257770D01*
X88952289Y-51257769D01*
X88945901Y-51225558D01*
X88946229Y-50650178D01*
X88952654Y-50617972D01*
X88963935Y-50601110D01*
X88963936Y-50601109D01*
X88980812Y-50589847D01*
X88980813Y-50589847D01*
X88980814Y-50589846D01*
X89013025Y-50583458D01*
X89588405Y-50583786D01*
G37*
G36*
X92288405Y-50573786D02*
G01*
X92320611Y-50580211D01*
X92337473Y-50591492D01*
X92337474Y-50591493D01*
X92344490Y-50602006D01*
X92346765Y-50605416D01*
X92400784Y-50650612D01*
X92470663Y-50659429D01*
X92554630Y-50605533D01*
X92563936Y-50591622D01*
X92580812Y-50580360D01*
X92580813Y-50580360D01*
X92580814Y-50580359D01*
X92613025Y-50573971D01*
X93188405Y-50574299D01*
X93220611Y-50580724D01*
X93237473Y-50592005D01*
X93237474Y-50592006D01*
X93248394Y-50608369D01*
X93248737Y-50608884D01*
X93255125Y-50641095D01*
X93254797Y-51216475D01*
X93248372Y-51248681D01*
X93237347Y-51265160D01*
X93237090Y-51265544D01*
X93223166Y-51274836D01*
X93177971Y-51328854D01*
X93169154Y-51398733D01*
X93223050Y-51482700D01*
X93236961Y-51492006D01*
X93247958Y-51508485D01*
X93248224Y-51508884D01*
X93254612Y-51541095D01*
X93254284Y-52116475D01*
X93247859Y-52148681D01*
X93236578Y-52165543D01*
X93236577Y-52165544D01*
X93219701Y-52176806D01*
X93219700Y-52176806D01*
X93219699Y-52176807D01*
X93187488Y-52183195D01*
X92612108Y-52182867D01*
X92579902Y-52176442D01*
X92563040Y-52165161D01*
X92562953Y-52165031D01*
X92553747Y-52151236D01*
X92499729Y-52106041D01*
X92429850Y-52097224D01*
X92345883Y-52151120D01*
X92336577Y-52165031D01*
X92319701Y-52176293D01*
X92319700Y-52176293D01*
X92319699Y-52176294D01*
X92287488Y-52182682D01*
X91712108Y-52182354D01*
X91679902Y-52175929D01*
X91663040Y-52164648D01*
X91663039Y-52164647D01*
X91651777Y-52147771D01*
X91651777Y-52147770D01*
X91651776Y-52147769D01*
X91645388Y-52115558D01*
X91645716Y-51540178D01*
X91652141Y-51507972D01*
X91663422Y-51491110D01*
X91663423Y-51491109D01*
X91677347Y-51481817D01*
X91722542Y-51427799D01*
X91726274Y-51398220D01*
X92269154Y-51398220D01*
X92323050Y-51482187D01*
X92336961Y-51491493D01*
X92346252Y-51505416D01*
X92400271Y-51550612D01*
X92470150Y-51559429D01*
X92554117Y-51505533D01*
X92563423Y-51491622D01*
X92577347Y-51482330D01*
X92622542Y-51428312D01*
X92631359Y-51358433D01*
X92577463Y-51274466D01*
X92563552Y-51265160D01*
X92554260Y-51251236D01*
X92500242Y-51206041D01*
X92430363Y-51197224D01*
X92346396Y-51251120D01*
X92337090Y-51265031D01*
X92323166Y-51274323D01*
X92277971Y-51328341D01*
X92269154Y-51398220D01*
X91726274Y-51398220D01*
X91731359Y-51357920D01*
X91677463Y-51273953D01*
X91663552Y-51264647D01*
X91652290Y-51247771D01*
X91652290Y-51247770D01*
X91652289Y-51247769D01*
X91645901Y-51215558D01*
X91646229Y-50640178D01*
X91652654Y-50607972D01*
X91663935Y-50591110D01*
X91663936Y-50591109D01*
X91680812Y-50579847D01*
X91680813Y-50579847D01*
X91680814Y-50579846D01*
X91713025Y-50573458D01*
X92288405Y-50573786D01*
G37*
G36*
X94988164Y-48693579D02*
G01*
X95000476Y-48696033D01*
X95020373Y-48699999D01*
X95037239Y-48711277D01*
X95046533Y-48725199D01*
X95100558Y-48770384D01*
X95170438Y-48779188D01*
X95254398Y-48725276D01*
X95263701Y-48711363D01*
X95280575Y-48700098D01*
X95280576Y-48700098D01*
X95280577Y-48700097D01*
X95312788Y-48693703D01*
X95888164Y-48693921D01*
X95900476Y-48696375D01*
X95920373Y-48700341D01*
X95937239Y-48711619D01*
X95948438Y-48728394D01*
X95948505Y-48728495D01*
X95954899Y-48760706D01*
X95954681Y-49336082D01*
X95952227Y-49348394D01*
X95948261Y-49368291D01*
X95936983Y-49385157D01*
X95923061Y-49394451D01*
X95877876Y-49448476D01*
X95869072Y-49518356D01*
X95922984Y-49602315D01*
X95936897Y-49611619D01*
X95948096Y-49628394D01*
X95948163Y-49628495D01*
X95954557Y-49660706D01*
X95954339Y-50236082D01*
X95951885Y-50248394D01*
X95947919Y-50268291D01*
X95936641Y-50285157D01*
X95919767Y-50296422D01*
X95919766Y-50296422D01*
X95919765Y-50296423D01*
X95887554Y-50302817D01*
X95312178Y-50302599D01*
X95298151Y-50299803D01*
X95279969Y-50296179D01*
X95263103Y-50284901D01*
X95253809Y-50270979D01*
X95199784Y-50225794D01*
X95129904Y-50216990D01*
X95045945Y-50270902D01*
X95036641Y-50284815D01*
X95019767Y-50296080D01*
X95019766Y-50296080D01*
X95019765Y-50296081D01*
X94987554Y-50302475D01*
X94412178Y-50302257D01*
X94379969Y-50295837D01*
X94375127Y-50292599D01*
X94363103Y-50284559D01*
X94351838Y-50267685D01*
X94351838Y-50267684D01*
X94351837Y-50267683D01*
X94345443Y-50235472D01*
X94345661Y-49660096D01*
X94352081Y-49627887D01*
X94353880Y-49625197D01*
X94363359Y-49611021D01*
X94377281Y-49601727D01*
X94422466Y-49547702D01*
X94426206Y-49518014D01*
X94969072Y-49518014D01*
X95022984Y-49601973D01*
X95036897Y-49611277D01*
X95046191Y-49625199D01*
X95100216Y-49670384D01*
X95170096Y-49679188D01*
X95254056Y-49625276D01*
X95263359Y-49611363D01*
X95277281Y-49602069D01*
X95322466Y-49548044D01*
X95331270Y-49478164D01*
X95277358Y-49394205D01*
X95263445Y-49384901D01*
X95254151Y-49370979D01*
X95200126Y-49325794D01*
X95130246Y-49316990D01*
X95046287Y-49370902D01*
X95036983Y-49384815D01*
X95023061Y-49394109D01*
X94977876Y-49448134D01*
X94969072Y-49518014D01*
X94426206Y-49518014D01*
X94431270Y-49477822D01*
X94377358Y-49393863D01*
X94363445Y-49384559D01*
X94352180Y-49367685D01*
X94352180Y-49367684D01*
X94352179Y-49367683D01*
X94345785Y-49335472D01*
X94346003Y-48760096D01*
X94352423Y-48727887D01*
X94354222Y-48725197D01*
X94363701Y-48711021D01*
X94380575Y-48699756D01*
X94380576Y-48699756D01*
X94380577Y-48699755D01*
X94412788Y-48693361D01*
X94988164Y-48693579D01*
G37*
G36*
X86888164Y-48693579D02*
G01*
X86900476Y-48696033D01*
X86920373Y-48699999D01*
X86937239Y-48711277D01*
X86946533Y-48725199D01*
X87000558Y-48770384D01*
X87070438Y-48779188D01*
X87154398Y-48725276D01*
X87163701Y-48711363D01*
X87180575Y-48700098D01*
X87180576Y-48700098D01*
X87180577Y-48700097D01*
X87212788Y-48693703D01*
X87788164Y-48693921D01*
X87800476Y-48696375D01*
X87820373Y-48700341D01*
X87837239Y-48711619D01*
X87848438Y-48728394D01*
X87848505Y-48728495D01*
X87854899Y-48760706D01*
X87854681Y-49336082D01*
X87852227Y-49348394D01*
X87848261Y-49368291D01*
X87836983Y-49385157D01*
X87823061Y-49394451D01*
X87777876Y-49448476D01*
X87769072Y-49518356D01*
X87822984Y-49602315D01*
X87836897Y-49611619D01*
X87848096Y-49628394D01*
X87848163Y-49628495D01*
X87854557Y-49660706D01*
X87854339Y-50236082D01*
X87851885Y-50248394D01*
X87847919Y-50268291D01*
X87836641Y-50285157D01*
X87819767Y-50296422D01*
X87819766Y-50296422D01*
X87819765Y-50296423D01*
X87787554Y-50302817D01*
X87212178Y-50302599D01*
X87198151Y-50299803D01*
X87179969Y-50296179D01*
X87163103Y-50284901D01*
X87153809Y-50270979D01*
X87099784Y-50225794D01*
X87029904Y-50216990D01*
X86945945Y-50270902D01*
X86936641Y-50284815D01*
X86919767Y-50296080D01*
X86919766Y-50296080D01*
X86919765Y-50296081D01*
X86887554Y-50302475D01*
X86312178Y-50302257D01*
X86279969Y-50295837D01*
X86275127Y-50292599D01*
X86263103Y-50284559D01*
X86251838Y-50267685D01*
X86251838Y-50267684D01*
X86251837Y-50267683D01*
X86245443Y-50235472D01*
X86245661Y-49660096D01*
X86252081Y-49627887D01*
X86253880Y-49625197D01*
X86263359Y-49611021D01*
X86277281Y-49601727D01*
X86322466Y-49547702D01*
X86326206Y-49518014D01*
X86869072Y-49518014D01*
X86922984Y-49601973D01*
X86936897Y-49611277D01*
X86946191Y-49625199D01*
X87000216Y-49670384D01*
X87070096Y-49679188D01*
X87154056Y-49625276D01*
X87163359Y-49611363D01*
X87177281Y-49602069D01*
X87222466Y-49548044D01*
X87231270Y-49478164D01*
X87177358Y-49394205D01*
X87163445Y-49384901D01*
X87154151Y-49370979D01*
X87100126Y-49325794D01*
X87030246Y-49316990D01*
X86946287Y-49370902D01*
X86936983Y-49384815D01*
X86923061Y-49394109D01*
X86877876Y-49448134D01*
X86869072Y-49518014D01*
X86326206Y-49518014D01*
X86331270Y-49477822D01*
X86277358Y-49393863D01*
X86263445Y-49384559D01*
X86252180Y-49367685D01*
X86252180Y-49367684D01*
X86252179Y-49367683D01*
X86245785Y-49335472D01*
X86246003Y-48760096D01*
X86252423Y-48727887D01*
X86254222Y-48725197D01*
X86263701Y-48711021D01*
X86280575Y-48699756D01*
X86280576Y-48699756D01*
X86280577Y-48699755D01*
X86312788Y-48693361D01*
X86888164Y-48693579D01*
G37*
G36*
X89588164Y-48683579D02*
G01*
X89600476Y-48686033D01*
X89620373Y-48689999D01*
X89637239Y-48701277D01*
X89646533Y-48715199D01*
X89700558Y-48760384D01*
X89770438Y-48769188D01*
X89854398Y-48715276D01*
X89863701Y-48701363D01*
X89880575Y-48690098D01*
X89880576Y-48690098D01*
X89880577Y-48690097D01*
X89912788Y-48683703D01*
X90488164Y-48683921D01*
X90500476Y-48686375D01*
X90520373Y-48690341D01*
X90537239Y-48701619D01*
X90548504Y-48718493D01*
X90548505Y-48718495D01*
X90554899Y-48750706D01*
X90554681Y-49326082D01*
X90552227Y-49338394D01*
X90548261Y-49358291D01*
X90536983Y-49375157D01*
X90523061Y-49384451D01*
X90477876Y-49438476D01*
X90469072Y-49508356D01*
X90522984Y-49592315D01*
X90536897Y-49601619D01*
X90548162Y-49618493D01*
X90548163Y-49618495D01*
X90554557Y-49650706D01*
X90554339Y-50226082D01*
X90551885Y-50238394D01*
X90547919Y-50258291D01*
X90536641Y-50275157D01*
X90519767Y-50286422D01*
X90519766Y-50286422D01*
X90519765Y-50286423D01*
X90487554Y-50292817D01*
X89912178Y-50292599D01*
X89898151Y-50289803D01*
X89879969Y-50286179D01*
X89863103Y-50274901D01*
X89853809Y-50260979D01*
X89799784Y-50215794D01*
X89729904Y-50206990D01*
X89645945Y-50260902D01*
X89636641Y-50274815D01*
X89619767Y-50286080D01*
X89619766Y-50286080D01*
X89619765Y-50286081D01*
X89587554Y-50292475D01*
X89012178Y-50292257D01*
X88979969Y-50285837D01*
X88975127Y-50282599D01*
X88963103Y-50274559D01*
X88951838Y-50257685D01*
X88951838Y-50257684D01*
X88951837Y-50257683D01*
X88945443Y-50225472D01*
X88945661Y-49650096D01*
X88952081Y-49617887D01*
X88953880Y-49615197D01*
X88963359Y-49601021D01*
X88977281Y-49591727D01*
X89022466Y-49537702D01*
X89026206Y-49508014D01*
X89569072Y-49508014D01*
X89622984Y-49591973D01*
X89636897Y-49601277D01*
X89646191Y-49615199D01*
X89700216Y-49660384D01*
X89770096Y-49669188D01*
X89854056Y-49615276D01*
X89863359Y-49601363D01*
X89877281Y-49592069D01*
X89922466Y-49538044D01*
X89931270Y-49468164D01*
X89877358Y-49384205D01*
X89863445Y-49374901D01*
X89854151Y-49360979D01*
X89800126Y-49315794D01*
X89730246Y-49306990D01*
X89646287Y-49360902D01*
X89636983Y-49374815D01*
X89623061Y-49384109D01*
X89577876Y-49438134D01*
X89569072Y-49508014D01*
X89026206Y-49508014D01*
X89031270Y-49467822D01*
X88977358Y-49383863D01*
X88963445Y-49374559D01*
X88952180Y-49357685D01*
X88952180Y-49357684D01*
X88952179Y-49357683D01*
X88945785Y-49325472D01*
X88946003Y-48750096D01*
X88952423Y-48717887D01*
X88954222Y-48715197D01*
X88963701Y-48701021D01*
X88980575Y-48689756D01*
X88980576Y-48689756D01*
X88980577Y-48689755D01*
X89012788Y-48683361D01*
X89588164Y-48683579D01*
G37*
G36*
X92288164Y-48673579D02*
G01*
X92300476Y-48676033D01*
X92320373Y-48679999D01*
X92337239Y-48691277D01*
X92346533Y-48705199D01*
X92400558Y-48750384D01*
X92470438Y-48759188D01*
X92554398Y-48705276D01*
X92563701Y-48691363D01*
X92580575Y-48680098D01*
X92580576Y-48680098D01*
X92580577Y-48680097D01*
X92612788Y-48673703D01*
X93188164Y-48673921D01*
X93200476Y-48676375D01*
X93220373Y-48680341D01*
X93237239Y-48691619D01*
X93248504Y-48708493D01*
X93248505Y-48708495D01*
X93254899Y-48740706D01*
X93254681Y-49316082D01*
X93252227Y-49328394D01*
X93248261Y-49348291D01*
X93236983Y-49365157D01*
X93223061Y-49374451D01*
X93177876Y-49428476D01*
X93169072Y-49498356D01*
X93222984Y-49582315D01*
X93236897Y-49591619D01*
X93248162Y-49608493D01*
X93248163Y-49608495D01*
X93254557Y-49640706D01*
X93254339Y-50216082D01*
X93251885Y-50228394D01*
X93247919Y-50248291D01*
X93236641Y-50265157D01*
X93219767Y-50276422D01*
X93219766Y-50276422D01*
X93219765Y-50276423D01*
X93187554Y-50282817D01*
X92612178Y-50282599D01*
X92598151Y-50279803D01*
X92579969Y-50276179D01*
X92563103Y-50264901D01*
X92553809Y-50250979D01*
X92499784Y-50205794D01*
X92429904Y-50196990D01*
X92345945Y-50250902D01*
X92336641Y-50264815D01*
X92319767Y-50276080D01*
X92319766Y-50276080D01*
X92319765Y-50276081D01*
X92287554Y-50282475D01*
X91712178Y-50282257D01*
X91679969Y-50275837D01*
X91672589Y-50270902D01*
X91663103Y-50264559D01*
X91651838Y-50247685D01*
X91651838Y-50247684D01*
X91651837Y-50247683D01*
X91645443Y-50215472D01*
X91645661Y-49640096D01*
X91652081Y-49607887D01*
X91656199Y-49601729D01*
X91663359Y-49591021D01*
X91677281Y-49581727D01*
X91722466Y-49527702D01*
X91726206Y-49498014D01*
X92269072Y-49498014D01*
X92322984Y-49581973D01*
X92336897Y-49591277D01*
X92346191Y-49605199D01*
X92400216Y-49650384D01*
X92470096Y-49659188D01*
X92554056Y-49605276D01*
X92563359Y-49591363D01*
X92577281Y-49582069D01*
X92622466Y-49528044D01*
X92631270Y-49458164D01*
X92577358Y-49374205D01*
X92563445Y-49364901D01*
X92554151Y-49350979D01*
X92500126Y-49305794D01*
X92430246Y-49296990D01*
X92346287Y-49350902D01*
X92336983Y-49364815D01*
X92323061Y-49374109D01*
X92277876Y-49428134D01*
X92269072Y-49498014D01*
X91726206Y-49498014D01*
X91731270Y-49457822D01*
X91677358Y-49373863D01*
X91663445Y-49364559D01*
X91652180Y-49347685D01*
X91652180Y-49347684D01*
X91652179Y-49347683D01*
X91645785Y-49315472D01*
X91646003Y-48740096D01*
X91652423Y-48707887D01*
X91654222Y-48705197D01*
X91663701Y-48691021D01*
X91680575Y-48679756D01*
X91680576Y-48679756D01*
X91680577Y-48679755D01*
X91712788Y-48673361D01*
X92288164Y-48673579D01*
G37*
G36*
X94987929Y-46793374D02*
G01*
X95020135Y-46799786D01*
X95036813Y-46810934D01*
X95037004Y-46811062D01*
X95046301Y-46824982D01*
X95100333Y-46870156D01*
X95170215Y-46878947D01*
X95254164Y-46825021D01*
X95263466Y-46811105D01*
X95272638Y-46804979D01*
X95280338Y-46799836D01*
X95300238Y-46795882D01*
X95300239Y-46795882D01*
X95312552Y-46793435D01*
X95887929Y-46793545D01*
X95920135Y-46799957D01*
X95927648Y-46804979D01*
X95937004Y-46811233D01*
X95948273Y-46828105D01*
X95952166Y-46847700D01*
X95954674Y-46860319D01*
X95954564Y-47435696D01*
X95948152Y-47467902D01*
X95936962Y-47484643D01*
X95936876Y-47484771D01*
X95922956Y-47494068D01*
X95877782Y-47548100D01*
X95868991Y-47617982D01*
X95922917Y-47701931D01*
X95936833Y-47711233D01*
X95948102Y-47728105D01*
X95951995Y-47747700D01*
X95954503Y-47760319D01*
X95954393Y-48335696D01*
X95947981Y-48367902D01*
X95947980Y-48367903D01*
X95936705Y-48384771D01*
X95919833Y-48396040D01*
X95899933Y-48399994D01*
X95899932Y-48399994D01*
X95887619Y-48402441D01*
X95312242Y-48402331D01*
X95280036Y-48395919D01*
X95263168Y-48384644D01*
X95263167Y-48384643D01*
X95253870Y-48370723D01*
X95199838Y-48325549D01*
X95129956Y-48316758D01*
X95046007Y-48370684D01*
X95042427Y-48376040D01*
X95036705Y-48384600D01*
X95019833Y-48395869D01*
X94999933Y-48399823D01*
X94999932Y-48399823D01*
X94987619Y-48402270D01*
X94412242Y-48402160D01*
X94380036Y-48395748D01*
X94363167Y-48384472D01*
X94351898Y-48367600D01*
X94347944Y-48347700D01*
X94347944Y-48347699D01*
X94345497Y-48335386D01*
X94345607Y-47760009D01*
X94352019Y-47727803D01*
X94363294Y-47710935D01*
X94363295Y-47710934D01*
X94377215Y-47701637D01*
X94422389Y-47647605D01*
X94426137Y-47617811D01*
X94968991Y-47617811D01*
X95022917Y-47701760D01*
X95036833Y-47711062D01*
X95046130Y-47724982D01*
X95100162Y-47770156D01*
X95170044Y-47778947D01*
X95253993Y-47725021D01*
X95258704Y-47717973D01*
X95263295Y-47711105D01*
X95277215Y-47701808D01*
X95322389Y-47647776D01*
X95331180Y-47577894D01*
X95277254Y-47493945D01*
X95274151Y-47491871D01*
X95263338Y-47484643D01*
X95254041Y-47470723D01*
X95200009Y-47425549D01*
X95130127Y-47416758D01*
X95046178Y-47470684D01*
X95036876Y-47484600D01*
X95022956Y-47493897D01*
X94977782Y-47547929D01*
X94968991Y-47617811D01*
X94426137Y-47617811D01*
X94431180Y-47577723D01*
X94377254Y-47493774D01*
X94363338Y-47484472D01*
X94357592Y-47475869D01*
X94352069Y-47467600D01*
X94348115Y-47447700D01*
X94348115Y-47447699D01*
X94345668Y-47435386D01*
X94345778Y-46860009D01*
X94352190Y-46827803D01*
X94363466Y-46810934D01*
X94372382Y-46804979D01*
X94380338Y-46799665D01*
X94400238Y-46795711D01*
X94400239Y-46795711D01*
X94412552Y-46793264D01*
X94987929Y-46793374D01*
G37*
G36*
X86887929Y-46793374D02*
G01*
X86920135Y-46799786D01*
X86936813Y-46810934D01*
X86937004Y-46811062D01*
X86946301Y-46824982D01*
X87000333Y-46870156D01*
X87070215Y-46878947D01*
X87154164Y-46825021D01*
X87163466Y-46811105D01*
X87172638Y-46804979D01*
X87180338Y-46799836D01*
X87200238Y-46795882D01*
X87200239Y-46795882D01*
X87212552Y-46793435D01*
X87787929Y-46793545D01*
X87820135Y-46799957D01*
X87827648Y-46804979D01*
X87837004Y-46811233D01*
X87848273Y-46828105D01*
X87852166Y-46847700D01*
X87854674Y-46860319D01*
X87854564Y-47435696D01*
X87848152Y-47467902D01*
X87836962Y-47484643D01*
X87836876Y-47484771D01*
X87822956Y-47494068D01*
X87777782Y-47548100D01*
X87768991Y-47617982D01*
X87822917Y-47701931D01*
X87836833Y-47711233D01*
X87848102Y-47728105D01*
X87851995Y-47747700D01*
X87854503Y-47760319D01*
X87854393Y-48335696D01*
X87847981Y-48367902D01*
X87847980Y-48367903D01*
X87836705Y-48384771D01*
X87819833Y-48396040D01*
X87799933Y-48399994D01*
X87799932Y-48399994D01*
X87787619Y-48402441D01*
X87212242Y-48402331D01*
X87180036Y-48395919D01*
X87163168Y-48384644D01*
X87163167Y-48384643D01*
X87153870Y-48370723D01*
X87099838Y-48325549D01*
X87029956Y-48316758D01*
X86946007Y-48370684D01*
X86942427Y-48376040D01*
X86936705Y-48384600D01*
X86919833Y-48395869D01*
X86899933Y-48399823D01*
X86899932Y-48399823D01*
X86887619Y-48402270D01*
X86312242Y-48402160D01*
X86280036Y-48395748D01*
X86263167Y-48384472D01*
X86251898Y-48367600D01*
X86247944Y-48347700D01*
X86247944Y-48347699D01*
X86245497Y-48335386D01*
X86245607Y-47760009D01*
X86252019Y-47727803D01*
X86263294Y-47710935D01*
X86263295Y-47710934D01*
X86277215Y-47701637D01*
X86322389Y-47647605D01*
X86326137Y-47617811D01*
X86868991Y-47617811D01*
X86922917Y-47701760D01*
X86936833Y-47711062D01*
X86946130Y-47724982D01*
X87000162Y-47770156D01*
X87070044Y-47778947D01*
X87153993Y-47725021D01*
X87158704Y-47717973D01*
X87163295Y-47711105D01*
X87177215Y-47701808D01*
X87222389Y-47647776D01*
X87231180Y-47577894D01*
X87177254Y-47493945D01*
X87174151Y-47491871D01*
X87163338Y-47484643D01*
X87154041Y-47470723D01*
X87100009Y-47425549D01*
X87030127Y-47416758D01*
X86946178Y-47470684D01*
X86936876Y-47484600D01*
X86922956Y-47493897D01*
X86877782Y-47547929D01*
X86868991Y-47617811D01*
X86326137Y-47617811D01*
X86331180Y-47577723D01*
X86277254Y-47493774D01*
X86263338Y-47484472D01*
X86257592Y-47475869D01*
X86252069Y-47467600D01*
X86248115Y-47447700D01*
X86248115Y-47447699D01*
X86245668Y-47435386D01*
X86245778Y-46860009D01*
X86252190Y-46827803D01*
X86263466Y-46810934D01*
X86272382Y-46804979D01*
X86280338Y-46799665D01*
X86300238Y-46795711D01*
X86300239Y-46795711D01*
X86312552Y-46793264D01*
X86887929Y-46793374D01*
G37*
G36*
X89587929Y-46783374D02*
G01*
X89620135Y-46789786D01*
X89636813Y-46800934D01*
X89637004Y-46801062D01*
X89646301Y-46814982D01*
X89700333Y-46860156D01*
X89770215Y-46868947D01*
X89854164Y-46815021D01*
X89863466Y-46801105D01*
X89865185Y-46799957D01*
X89880338Y-46789836D01*
X89900238Y-46785882D01*
X89900239Y-46785882D01*
X89912552Y-46783435D01*
X90487929Y-46783545D01*
X90520135Y-46789957D01*
X90528999Y-46795882D01*
X90537004Y-46801233D01*
X90548273Y-46818105D01*
X90552166Y-46837700D01*
X90554674Y-46850319D01*
X90554564Y-47425696D01*
X90548152Y-47457902D01*
X90536962Y-47474643D01*
X90536876Y-47474771D01*
X90522956Y-47484068D01*
X90477782Y-47538100D01*
X90468991Y-47607982D01*
X90522917Y-47691931D01*
X90528828Y-47695882D01*
X90536833Y-47701233D01*
X90548102Y-47718105D01*
X90551995Y-47737700D01*
X90554503Y-47750319D01*
X90554393Y-48325696D01*
X90547981Y-48357902D01*
X90541296Y-48367903D01*
X90536705Y-48374771D01*
X90519833Y-48386040D01*
X90499933Y-48389994D01*
X90499932Y-48389994D01*
X90487619Y-48392441D01*
X89912242Y-48392331D01*
X89880036Y-48385919D01*
X89863168Y-48374644D01*
X89863167Y-48374643D01*
X89853870Y-48360723D01*
X89799838Y-48315549D01*
X89729956Y-48306758D01*
X89646007Y-48360684D01*
X89636791Y-48374472D01*
X89636705Y-48374600D01*
X89619833Y-48385869D01*
X89599933Y-48389823D01*
X89599932Y-48389823D01*
X89587619Y-48392270D01*
X89012242Y-48392160D01*
X88980036Y-48385748D01*
X88963167Y-48374472D01*
X88960637Y-48370684D01*
X88951898Y-48357600D01*
X88947944Y-48337700D01*
X88947944Y-48337699D01*
X88945497Y-48325386D01*
X88945607Y-47750009D01*
X88952019Y-47717803D01*
X88963294Y-47700935D01*
X88963295Y-47700934D01*
X88977215Y-47691637D01*
X89022389Y-47637605D01*
X89026137Y-47607811D01*
X89568991Y-47607811D01*
X89622917Y-47691760D01*
X89636833Y-47701062D01*
X89646130Y-47714982D01*
X89700162Y-47760156D01*
X89770044Y-47768947D01*
X89853993Y-47715021D01*
X89856611Y-47711105D01*
X89863295Y-47701105D01*
X89877215Y-47691808D01*
X89922389Y-47637776D01*
X89931180Y-47567894D01*
X89877254Y-47483945D01*
X89874151Y-47481871D01*
X89863338Y-47474643D01*
X89854041Y-47460723D01*
X89800009Y-47415549D01*
X89730127Y-47406758D01*
X89646178Y-47460684D01*
X89636876Y-47474600D01*
X89622956Y-47483897D01*
X89577782Y-47537929D01*
X89568991Y-47607811D01*
X89026137Y-47607811D01*
X89031180Y-47567723D01*
X88977254Y-47483774D01*
X88963338Y-47474472D01*
X88960808Y-47470684D01*
X88952069Y-47457600D01*
X88948115Y-47437700D01*
X88948115Y-47437699D01*
X88945668Y-47425386D01*
X88945778Y-46850009D01*
X88952190Y-46817803D01*
X88963466Y-46800934D01*
X88965185Y-46799786D01*
X88980338Y-46789665D01*
X89000238Y-46785711D01*
X89000239Y-46785711D01*
X89012552Y-46783264D01*
X89587929Y-46783374D01*
G37*
G36*
X92287929Y-46773374D02*
G01*
X92320135Y-46779786D01*
X92336813Y-46790934D01*
X92337004Y-46791062D01*
X92346301Y-46804982D01*
X92400333Y-46850156D01*
X92470215Y-46858947D01*
X92554164Y-46805021D01*
X92563466Y-46791105D01*
X92565185Y-46789957D01*
X92580338Y-46779836D01*
X92600238Y-46775882D01*
X92600239Y-46775882D01*
X92612552Y-46773435D01*
X93187929Y-46773545D01*
X93220135Y-46779957D01*
X93228999Y-46785882D01*
X93237004Y-46791233D01*
X93248273Y-46808105D01*
X93251626Y-46824979D01*
X93254674Y-46840319D01*
X93254564Y-47415696D01*
X93248152Y-47447902D01*
X93236962Y-47464643D01*
X93236876Y-47464771D01*
X93222956Y-47474068D01*
X93177782Y-47528100D01*
X93168991Y-47597982D01*
X93222917Y-47681931D01*
X93228828Y-47685882D01*
X93236833Y-47691233D01*
X93248102Y-47708105D01*
X93251455Y-47724979D01*
X93254503Y-47740319D01*
X93254393Y-48315696D01*
X93247981Y-48347902D01*
X93241296Y-48357903D01*
X93236705Y-48364771D01*
X93219833Y-48376040D01*
X93199933Y-48379994D01*
X93199932Y-48379994D01*
X93187619Y-48382441D01*
X92612242Y-48382331D01*
X92580036Y-48375919D01*
X92563168Y-48364644D01*
X92563167Y-48364643D01*
X92553870Y-48350723D01*
X92499838Y-48305549D01*
X92429956Y-48296758D01*
X92346007Y-48350684D01*
X92336791Y-48364472D01*
X92336705Y-48364600D01*
X92319833Y-48375869D01*
X92299933Y-48379823D01*
X92299932Y-48379823D01*
X92287619Y-48382270D01*
X91712242Y-48382160D01*
X91680036Y-48375748D01*
X91663167Y-48364472D01*
X91660637Y-48360684D01*
X91651898Y-48347600D01*
X91647944Y-48327700D01*
X91647944Y-48327699D01*
X91645497Y-48315386D01*
X91645607Y-47740009D01*
X91652019Y-47707803D01*
X91663294Y-47690935D01*
X91663295Y-47690934D01*
X91677215Y-47681637D01*
X91722389Y-47627605D01*
X91726137Y-47597811D01*
X92268991Y-47597811D01*
X92322917Y-47681760D01*
X92336833Y-47691062D01*
X92346130Y-47704982D01*
X92400162Y-47750156D01*
X92470044Y-47758947D01*
X92553993Y-47705021D01*
X92556611Y-47701105D01*
X92563295Y-47691105D01*
X92577215Y-47681808D01*
X92622389Y-47627776D01*
X92631180Y-47557894D01*
X92577254Y-47473945D01*
X92574151Y-47471871D01*
X92563338Y-47464643D01*
X92554041Y-47450723D01*
X92500009Y-47405549D01*
X92430127Y-47396758D01*
X92346178Y-47450684D01*
X92336876Y-47464600D01*
X92322956Y-47473897D01*
X92277782Y-47527929D01*
X92268991Y-47597811D01*
X91726137Y-47597811D01*
X91731180Y-47557723D01*
X91677254Y-47473774D01*
X91663338Y-47464472D01*
X91660808Y-47460684D01*
X91652069Y-47447600D01*
X91648115Y-47427700D01*
X91648115Y-47427699D01*
X91645668Y-47415386D01*
X91645778Y-46840009D01*
X91652190Y-46807803D01*
X91663466Y-46790934D01*
X91665185Y-46789786D01*
X91680338Y-46779665D01*
X91700238Y-46775711D01*
X91700239Y-46775711D01*
X91712552Y-46773264D01*
X92287929Y-46773374D01*
G37*
G36*
X95000000Y-44895616D02*
G01*
X95019899Y-44899574D01*
X95036769Y-44910846D01*
X95039386Y-44914762D01*
X95046067Y-44924762D01*
X95100111Y-44969929D01*
X95169994Y-44978707D01*
X95253933Y-44924762D01*
X95260615Y-44914762D01*
X95263231Y-44910846D01*
X95280101Y-44899574D01*
X95300000Y-44895616D01*
X95312312Y-44893167D01*
X95887688Y-44893167D01*
X95919899Y-44899574D01*
X95936769Y-44910846D01*
X95948041Y-44927716D01*
X95954448Y-44959927D01*
X95954448Y-45535303D01*
X95948664Y-45564384D01*
X95948041Y-45567514D01*
X95936769Y-45584384D01*
X95928942Y-45589614D01*
X95922853Y-45593682D01*
X95877686Y-45647726D01*
X95868908Y-45717609D01*
X95922853Y-45801548D01*
X95936769Y-45810846D01*
X95948041Y-45827716D01*
X95954448Y-45859927D01*
X95954448Y-46435303D01*
X95948664Y-46464384D01*
X95948041Y-46467514D01*
X95936769Y-46484384D01*
X95919899Y-46495656D01*
X95900000Y-46499614D01*
X95887688Y-46502063D01*
X95312312Y-46502063D01*
X95280101Y-46495656D01*
X95263231Y-46484384D01*
X95253933Y-46470468D01*
X95199889Y-46425301D01*
X95130006Y-46416523D01*
X95046067Y-46470468D01*
X95036769Y-46484384D01*
X95019899Y-46495656D01*
X95000000Y-46499614D01*
X94987688Y-46502063D01*
X94412312Y-46502063D01*
X94380101Y-46495656D01*
X94363231Y-46484384D01*
X94351959Y-46467514D01*
X94345552Y-46435303D01*
X94345552Y-45859927D01*
X94351959Y-45827716D01*
X94363231Y-45810846D01*
X94377147Y-45801547D01*
X94422314Y-45747504D01*
X94426069Y-45717609D01*
X94968908Y-45717609D01*
X95022853Y-45801548D01*
X95036769Y-45810846D01*
X95039386Y-45814762D01*
X95046067Y-45824762D01*
X95100111Y-45869929D01*
X95169994Y-45878707D01*
X95253933Y-45824762D01*
X95260615Y-45814762D01*
X95263231Y-45810846D01*
X95277147Y-45801547D01*
X95322314Y-45747504D01*
X95331092Y-45677621D01*
X95277147Y-45593682D01*
X95271059Y-45589614D01*
X95263231Y-45584384D01*
X95253932Y-45570468D01*
X95199889Y-45525301D01*
X95130006Y-45516523D01*
X95046067Y-45570468D01*
X95036769Y-45584384D01*
X95028942Y-45589614D01*
X95022853Y-45593682D01*
X94977686Y-45647726D01*
X94968908Y-45717609D01*
X94426069Y-45717609D01*
X94431092Y-45677621D01*
X94377147Y-45593682D01*
X94371059Y-45589614D01*
X94363231Y-45584384D01*
X94351959Y-45567514D01*
X94351336Y-45564384D01*
X94345552Y-45535303D01*
X94345552Y-44959927D01*
X94351959Y-44927716D01*
X94363231Y-44910846D01*
X94380101Y-44899574D01*
X94412312Y-44893167D01*
X94987688Y-44893167D01*
X95000000Y-44895616D01*
G37*
G36*
X86900000Y-44895616D02*
G01*
X86919899Y-44899574D01*
X86936769Y-44910846D01*
X86939386Y-44914762D01*
X86946067Y-44924762D01*
X87000111Y-44969929D01*
X87069994Y-44978707D01*
X87153933Y-44924762D01*
X87160615Y-44914762D01*
X87163231Y-44910846D01*
X87180101Y-44899574D01*
X87200000Y-44895616D01*
X87212312Y-44893167D01*
X87787688Y-44893167D01*
X87819899Y-44899574D01*
X87836769Y-44910846D01*
X87848041Y-44927716D01*
X87854448Y-44959927D01*
X87854448Y-45535303D01*
X87848664Y-45564384D01*
X87848041Y-45567514D01*
X87836769Y-45584384D01*
X87828942Y-45589614D01*
X87822853Y-45593682D01*
X87777686Y-45647726D01*
X87768908Y-45717609D01*
X87822853Y-45801548D01*
X87836769Y-45810846D01*
X87848041Y-45827716D01*
X87854448Y-45859927D01*
X87854448Y-46435303D01*
X87848664Y-46464384D01*
X87848041Y-46467514D01*
X87836769Y-46484384D01*
X87819899Y-46495656D01*
X87800000Y-46499614D01*
X87787688Y-46502063D01*
X87212312Y-46502063D01*
X87180101Y-46495656D01*
X87163231Y-46484384D01*
X87153933Y-46470468D01*
X87099889Y-46425301D01*
X87030006Y-46416523D01*
X86946067Y-46470468D01*
X86936769Y-46484384D01*
X86919899Y-46495656D01*
X86900000Y-46499614D01*
X86887688Y-46502063D01*
X86312312Y-46502063D01*
X86280101Y-46495656D01*
X86263231Y-46484384D01*
X86251959Y-46467514D01*
X86245552Y-46435303D01*
X86245552Y-45859927D01*
X86251959Y-45827716D01*
X86263231Y-45810846D01*
X86277147Y-45801547D01*
X86322314Y-45747504D01*
X86326069Y-45717609D01*
X86868908Y-45717609D01*
X86922853Y-45801548D01*
X86936769Y-45810846D01*
X86939386Y-45814762D01*
X86946067Y-45824762D01*
X87000111Y-45869929D01*
X87069994Y-45878707D01*
X87153933Y-45824762D01*
X87160615Y-45814762D01*
X87163231Y-45810846D01*
X87177147Y-45801547D01*
X87222314Y-45747504D01*
X87231092Y-45677621D01*
X87177147Y-45593682D01*
X87171059Y-45589614D01*
X87163231Y-45584384D01*
X87153932Y-45570468D01*
X87099889Y-45525301D01*
X87030006Y-45516523D01*
X86946067Y-45570468D01*
X86936769Y-45584384D01*
X86928942Y-45589614D01*
X86922853Y-45593682D01*
X86877686Y-45647726D01*
X86868908Y-45717609D01*
X86326069Y-45717609D01*
X86331092Y-45677621D01*
X86277147Y-45593682D01*
X86271059Y-45589614D01*
X86263231Y-45584384D01*
X86251959Y-45567514D01*
X86251336Y-45564384D01*
X86245552Y-45535303D01*
X86245552Y-44959927D01*
X86251959Y-44927716D01*
X86263231Y-44910846D01*
X86280101Y-44899574D01*
X86312312Y-44893167D01*
X86887688Y-44893167D01*
X86900000Y-44895616D01*
G37*
G36*
X89600000Y-44885616D02*
G01*
X89619899Y-44889574D01*
X89636769Y-44900846D01*
X89639386Y-44904762D01*
X89646067Y-44914762D01*
X89700111Y-44959929D01*
X89769994Y-44968707D01*
X89853933Y-44914762D01*
X89860615Y-44904762D01*
X89863231Y-44900846D01*
X89880101Y-44889574D01*
X89900000Y-44885616D01*
X89912312Y-44883167D01*
X90487688Y-44883167D01*
X90519899Y-44889574D01*
X90536769Y-44900846D01*
X90548041Y-44917716D01*
X90554448Y-44949927D01*
X90554448Y-45525301D01*
X90551999Y-45537614D01*
X90551999Y-45537615D01*
X90548041Y-45557514D01*
X90536769Y-45574384D01*
X90528942Y-45579614D01*
X90522853Y-45583682D01*
X90477686Y-45637726D01*
X90468908Y-45707609D01*
X90522853Y-45791548D01*
X90534865Y-45799574D01*
X90536769Y-45800846D01*
X90548041Y-45817716D01*
X90554448Y-45849927D01*
X90554448Y-46425301D01*
X90551999Y-46437614D01*
X90551999Y-46437615D01*
X90548041Y-46457514D01*
X90536769Y-46474384D01*
X90519899Y-46485656D01*
X90500000Y-46489614D01*
X90487688Y-46492063D01*
X89912312Y-46492063D01*
X89880101Y-46485656D01*
X89863231Y-46474384D01*
X89853932Y-46460468D01*
X89799889Y-46415301D01*
X89730006Y-46406523D01*
X89646067Y-46460468D01*
X89636769Y-46474384D01*
X89619899Y-46485656D01*
X89600000Y-46489614D01*
X89587688Y-46492063D01*
X89012312Y-46492063D01*
X88980101Y-46485656D01*
X88963231Y-46474384D01*
X88951959Y-46457514D01*
X88945552Y-46425301D01*
X88945552Y-45849927D01*
X88951959Y-45817716D01*
X88963231Y-45800846D01*
X88965135Y-45799574D01*
X88977147Y-45791547D01*
X89022314Y-45737504D01*
X89026069Y-45707609D01*
X89568908Y-45707609D01*
X89622853Y-45791548D01*
X89636769Y-45800846D01*
X89639386Y-45804762D01*
X89646067Y-45814762D01*
X89700111Y-45859929D01*
X89769994Y-45868707D01*
X89853933Y-45814762D01*
X89860615Y-45804762D01*
X89863231Y-45800846D01*
X89877147Y-45791547D01*
X89922314Y-45737504D01*
X89931092Y-45667621D01*
X89877147Y-45583682D01*
X89871059Y-45579614D01*
X89863231Y-45574384D01*
X89853932Y-45560468D01*
X89799889Y-45515301D01*
X89730006Y-45506523D01*
X89646067Y-45560468D01*
X89636769Y-45574384D01*
X89628942Y-45579614D01*
X89622853Y-45583682D01*
X89577686Y-45637726D01*
X89568908Y-45707609D01*
X89026069Y-45707609D01*
X89031092Y-45667621D01*
X88977147Y-45583682D01*
X88971059Y-45579614D01*
X88963231Y-45574384D01*
X88951959Y-45557514D01*
X88948001Y-45537615D01*
X88948001Y-45537614D01*
X88945552Y-45525301D01*
X88945552Y-44949927D01*
X88951959Y-44917716D01*
X88963231Y-44900846D01*
X88980101Y-44889574D01*
X89012312Y-44883167D01*
X89587688Y-44883167D01*
X89600000Y-44885616D01*
G37*
G36*
X92319899Y-44879574D02*
G01*
X92336769Y-44890846D01*
X92346067Y-44904762D01*
X92400111Y-44949929D01*
X92469994Y-44958707D01*
X92553933Y-44904762D01*
X92563231Y-44890846D01*
X92580101Y-44879574D01*
X92612312Y-44873167D01*
X93187688Y-44873167D01*
X93219899Y-44879574D01*
X93236769Y-44890846D01*
X93248041Y-44907716D01*
X93254448Y-44939927D01*
X93254448Y-45515301D01*
X93251999Y-45527614D01*
X93251999Y-45527615D01*
X93248041Y-45547514D01*
X93236769Y-45564384D01*
X93227664Y-45570468D01*
X93222853Y-45573682D01*
X93177686Y-45627726D01*
X93168908Y-45697609D01*
X93222853Y-45781548D01*
X93234865Y-45789574D01*
X93236769Y-45790846D01*
X93248041Y-45807716D01*
X93254448Y-45839927D01*
X93254448Y-46415301D01*
X93251999Y-46427614D01*
X93251999Y-46427615D01*
X93248041Y-46447514D01*
X93236769Y-46464384D01*
X93219899Y-46475656D01*
X93200000Y-46479614D01*
X93187688Y-46482063D01*
X92612312Y-46482063D01*
X92580101Y-46475656D01*
X92563231Y-46464384D01*
X92553932Y-46450468D01*
X92499889Y-46405301D01*
X92430006Y-46396523D01*
X92346067Y-46450468D01*
X92336769Y-46464384D01*
X92319899Y-46475656D01*
X92300000Y-46479614D01*
X92287688Y-46482063D01*
X91712312Y-46482063D01*
X91680101Y-46475656D01*
X91663231Y-46464384D01*
X91651959Y-46447514D01*
X91645552Y-46415301D01*
X91645552Y-45839927D01*
X91651959Y-45807716D01*
X91663231Y-45790846D01*
X91665135Y-45789574D01*
X91677147Y-45781547D01*
X91722314Y-45727504D01*
X91726069Y-45697609D01*
X92268908Y-45697609D01*
X92322853Y-45781548D01*
X92334865Y-45789574D01*
X92336769Y-45790846D01*
X92346067Y-45804762D01*
X92400111Y-45849929D01*
X92469994Y-45858707D01*
X92553933Y-45804762D01*
X92563231Y-45790846D01*
X92565135Y-45789574D01*
X92577147Y-45781547D01*
X92622314Y-45727504D01*
X92631092Y-45657621D01*
X92577147Y-45573682D01*
X92572337Y-45570468D01*
X92563231Y-45564384D01*
X92553932Y-45550468D01*
X92499889Y-45505301D01*
X92430006Y-45496523D01*
X92346067Y-45550468D01*
X92336769Y-45564384D01*
X92327664Y-45570468D01*
X92322853Y-45573682D01*
X92277686Y-45627726D01*
X92268908Y-45697609D01*
X91726069Y-45697609D01*
X91731092Y-45657621D01*
X91677147Y-45573682D01*
X91672337Y-45570468D01*
X91663231Y-45564384D01*
X91651959Y-45547514D01*
X91648001Y-45527615D01*
X91648001Y-45527614D01*
X91645552Y-45515301D01*
X91645552Y-44939927D01*
X91651959Y-44907716D01*
X91663231Y-44890846D01*
X91680101Y-44879574D01*
X91712312Y-44873167D01*
X92287688Y-44873167D01*
X92319899Y-44879574D01*
G37*
M02*
