G04 #@! TF.GenerationSoftware,KiCad,Pcbnew,(5.99.0-286-g11f0acefe)*
G04 #@! TF.CreationDate,2020-01-02T20:44:44-05:00*
G04 #@! TF.ProjectId,output3,6f757470-7574-4332-9e6b-696361645f70,rev?*
G04 #@! TF.SameCoordinates,Original*
G04 #@! TF.FileFunction,Legend,Top*
G04 #@! TF.FilePolarity,Positive*
%FSLAX46Y46*%
G04 Gerber Fmt 4.6, Leading zero omitted, Abs format (unit mm)*
G04 Created by KiCad (PCBNEW (5.99.0-286-g11f0acefe)) date 2020-01-02 20:44:44*
%MOMM*%
%LPD*%
G04 APERTURE LIST*
%ADD10C,0.050000*%
%ADD11C,0.120000*%
%ADD12C,0.150000*%
G04 APERTURE END LIST*
D10*
X93750000Y-45080000D02*
X93750002Y-45099999D01*
X93750000Y-75280000D02*
X93750000Y-75300000D01*
X91050000Y-75280000D02*
X91050000Y-75290000D01*
X88350000Y-75290000D02*
X88350000Y-75300000D01*
X88350002Y-45089999D02*
X88350000Y-45100000D01*
X91050002Y-45079999D02*
X91050000Y-45090000D01*
X93750002Y-45099999D02*
G75*
G02X94300001Y-44550002I549998J-1D01*
G01*
X96350000Y-131800000D02*
G75*
G02X93950000Y-131800000I-1200000J0D01*
G01*
X94300000Y-127600000D02*
X94300000Y-75850000D01*
X94300000Y-75850000D02*
X93750000Y-75300000D01*
X94300000Y-44550000D02*
X95900003Y-44550001D01*
X96450000Y-45100000D02*
X96450000Y-75300000D01*
X96450000Y-75300000D02*
X95900000Y-75850000D01*
X95900003Y-44550001D02*
G75*
G02X96450000Y-45100000I-1J-549998D01*
G01*
X96350000Y-128000000D02*
X95900000Y-127600000D01*
X94300000Y-127600000D02*
X93950000Y-127950000D01*
X96350000Y-131800000D02*
X96350000Y-128000000D01*
X93950000Y-127950000D02*
X93950000Y-131800000D01*
X95900000Y-75850000D02*
X95900000Y-127600000D01*
X91050002Y-45079999D02*
G75*
G02X91600001Y-44530002I549998J-1D01*
G01*
X93650000Y-131780000D02*
G75*
G02X91250000Y-131780000I-1200000J0D01*
G01*
X91600000Y-127580000D02*
X91600000Y-75830000D01*
X91600000Y-75830000D02*
X91050000Y-75280000D01*
X91600000Y-44530000D02*
X93200003Y-44530001D01*
X93750000Y-75280000D02*
X93200000Y-75830000D01*
X93200003Y-44530001D02*
G75*
G02X93750000Y-45080000I-1J-549998D01*
G01*
X93650000Y-127980000D02*
X93200000Y-127580000D01*
X91600000Y-127580000D02*
X91250000Y-127930000D01*
X93650000Y-131780000D02*
X93650000Y-127980000D01*
X91250000Y-127930000D02*
X91250000Y-131780000D01*
X93200000Y-75830000D02*
X93200000Y-127580000D01*
X88350002Y-45089999D02*
G75*
G02X88900001Y-44540002I549998J-1D01*
G01*
X90950000Y-131790000D02*
G75*
G02X88550000Y-131790000I-1200000J0D01*
G01*
X88900000Y-127590000D02*
X88900000Y-75840000D01*
X88900000Y-75840000D02*
X88350000Y-75290000D01*
X88900000Y-44540000D02*
X90500003Y-44540001D01*
X91050000Y-75290000D02*
X90500000Y-75840000D01*
X90500003Y-44540001D02*
G75*
G02X91050000Y-45090000I-1J-549998D01*
G01*
X90950000Y-127990000D02*
X90500000Y-127590000D01*
X88900000Y-127590000D02*
X88550000Y-127940000D01*
X90950000Y-131790000D02*
X90950000Y-127990000D01*
X88550000Y-127940000D02*
X88550000Y-131790000D01*
X90500000Y-75840000D02*
X90500000Y-127590000D01*
X87800003Y-44550001D02*
G75*
G02X88350000Y-45100000I-1J-549998D01*
G01*
X85650002Y-45099999D02*
G75*
G02X86200001Y-44550002I549998J-1D01*
G01*
X85850000Y-127950000D02*
X85850000Y-131800000D01*
X86200000Y-127600000D02*
X85850000Y-127950000D01*
X88250000Y-128000000D02*
X87800000Y-127600000D01*
X88250000Y-131800000D02*
X88250000Y-128000000D01*
X87800000Y-75850000D02*
X87800000Y-127600000D01*
X88350000Y-75300000D02*
X87800000Y-75850000D01*
X86200000Y-44550000D02*
X87800003Y-44550001D01*
X85650000Y-75300000D02*
X85650002Y-45099999D01*
X86200000Y-75850000D02*
X85650000Y-75300000D01*
X86200000Y-127600000D02*
X86200000Y-75850000D01*
X88250000Y-131800000D02*
G75*
G02X85850000Y-131800000I-1200000J0D01*
G01*
D11*
X80000000Y-46897615D02*
X79500000Y-47300000D01*
X79999772Y-52597842D02*
X79600000Y-52900000D01*
X79550000Y-60500000D02*
X79950000Y-60200000D01*
X79700000Y-69950000D02*
X80150000Y-69550000D01*
X79650000Y-71850000D02*
X80099260Y-71498824D01*
X79700000Y-73700000D02*
X80100000Y-73400000D01*
X80108114Y-75550000D02*
G75*
G03X80108114Y-75550000I-158114J0D01*
G01*
X79500000Y-45400000D02*
X79550000Y-75600000D01*
X81850000Y-45100000D02*
X79650000Y-45100000D01*
X82000000Y-75500000D02*
X82000000Y-45200000D01*
X79750000Y-75550000D02*
X81900000Y-75600000D01*
D10*
X94403422Y-73449006D02*
X95903416Y-73453281D01*
X95903416Y-73453281D02*
X95899140Y-74953275D01*
X95899140Y-74953275D02*
X94399146Y-74949000D01*
X94399146Y-74949000D02*
X94403422Y-73449006D01*
D12*
X94398860Y-75048714D02*
G75*
G03X94398860Y-75048714I-99999J0D01*
G01*
D10*
X94403194Y-71548918D02*
X95903188Y-71552909D01*
X95903188Y-71552909D02*
X95899198Y-73052904D01*
X95899198Y-73052904D02*
X94399203Y-73048913D01*
X94399203Y-73048913D02*
X94403194Y-71548918D01*
D12*
X94398936Y-73148646D02*
G75*
G03X94398936Y-73148646I-99999J0D01*
G01*
D10*
X94402965Y-69648829D02*
X95902961Y-69652534D01*
X95902961Y-69652534D02*
X95899255Y-71152530D01*
X95899255Y-71152530D02*
X94399260Y-71148824D01*
X94399260Y-71148824D02*
X94402965Y-69648829D01*
D12*
X94399013Y-71248577D02*
G75*
G03X94399013Y-71248577I-100000J0D01*
G01*
D10*
X94402737Y-67748738D02*
X95902733Y-67752159D01*
X95902733Y-67752159D02*
X95899313Y-69252155D01*
X95899313Y-69252155D02*
X94399317Y-69248734D01*
X94399317Y-69248734D02*
X94402737Y-67748738D01*
D12*
X94399089Y-69348506D02*
G75*
G03X94399089Y-69348506I-100000J0D01*
G01*
D10*
X94402509Y-65848648D02*
X95902506Y-65851783D01*
X95902506Y-65851783D02*
X95899370Y-67351780D01*
X95899370Y-67351780D02*
X94399374Y-67348644D01*
X94399374Y-67348644D02*
X94402509Y-65848648D01*
D12*
X94399165Y-67448435D02*
G75*
G03X94399165Y-67448435I-100000J0D01*
G01*
D10*
X94402281Y-63948555D02*
X95902278Y-63951406D01*
X95902278Y-63951406D02*
X95899428Y-65451403D01*
X95899428Y-65451403D02*
X94399430Y-65448552D01*
X94399430Y-65448552D02*
X94402281Y-63948555D01*
D12*
X94399241Y-65548362D02*
G75*
G03X94399241Y-65548362I-100000J0D01*
G01*
D10*
X94402053Y-62048463D02*
X95902051Y-62051028D01*
X95902051Y-62051028D02*
X95899485Y-63551026D01*
X95899485Y-63551026D02*
X94399487Y-63548460D01*
X94399487Y-63548460D02*
X94402053Y-62048463D01*
D12*
X94399316Y-63648289D02*
G75*
G03X94399316Y-63648289I-100000J0D01*
G01*
D10*
X94401825Y-60148370D02*
X95901823Y-60150651D01*
X95901823Y-60150651D02*
X95899543Y-61650649D01*
X95899543Y-61650649D02*
X94399544Y-61648369D01*
X94399544Y-61648369D02*
X94401825Y-60148370D01*
D12*
X94399391Y-61748216D02*
G75*
G03X94399391Y-61748216I-99999J0D01*
G01*
D10*
X94401597Y-58248277D02*
X95901595Y-58250272D01*
X95901595Y-58250272D02*
X95899600Y-59750271D01*
X95899600Y-59750271D02*
X94399601Y-59748276D01*
X94399601Y-59748276D02*
X94401597Y-58248277D01*
D12*
X94399468Y-59848143D02*
G75*
G03X94399468Y-59848143I-100000J0D01*
G01*
D10*
X94401368Y-56348183D02*
X95901367Y-56349893D01*
X95901367Y-56349893D02*
X95899657Y-57849892D01*
X95899657Y-57849892D02*
X94399658Y-57848182D01*
X94399658Y-57848182D02*
X94401368Y-56348183D01*
D12*
X94399544Y-57948068D02*
G75*
G03X94399544Y-57948068I-100000J0D01*
G01*
D10*
X94401140Y-54448088D02*
X95901140Y-54449514D01*
X95901140Y-54449514D02*
X95899714Y-55949513D01*
X95899714Y-55949513D02*
X94399715Y-55948088D01*
X94399715Y-55948088D02*
X94401140Y-54448088D01*
D12*
X94399620Y-56047993D02*
G75*
G03X94399620Y-56047993I-100000J0D01*
G01*
D10*
X94400912Y-52547994D02*
X95900912Y-52549135D01*
X95900912Y-52549135D02*
X95899772Y-54049134D01*
X95899772Y-54049134D02*
X94399772Y-54047994D01*
X94399772Y-54047994D02*
X94400912Y-52547994D01*
D12*
X94399696Y-54147918D02*
G75*
G03X94399696Y-54147918I-100000J0D01*
G01*
D10*
X94400684Y-50647899D02*
X95900684Y-50648754D01*
X95900684Y-50648754D02*
X95899829Y-52148754D01*
X95899829Y-52148754D02*
X94399829Y-52147899D01*
X94399829Y-52147899D02*
X94400684Y-50647899D01*
D12*
X94399772Y-52247842D02*
G75*
G03X94399772Y-52247842I-100000J0D01*
G01*
D10*
X94400456Y-48747804D02*
X95900456Y-48748374D01*
X95900456Y-48748374D02*
X95899886Y-50248374D01*
X95899886Y-50248374D02*
X94399886Y-50247804D01*
X94399886Y-50247804D02*
X94400456Y-48747804D01*
D12*
X94399848Y-50347766D02*
G75*
G03X94399848Y-50347766I-100000J0D01*
G01*
D10*
X94400228Y-46847710D02*
X95900228Y-46847995D01*
X95900228Y-46847995D02*
X95899943Y-48347995D01*
X95899943Y-48347995D02*
X94399943Y-48347710D01*
X94399943Y-48347710D02*
X94400228Y-46847710D01*
D12*
X94399924Y-48447691D02*
G75*
G03X94399924Y-48447691I-100000J0D01*
G01*
D10*
X94400000Y-44947615D02*
X95900000Y-44947615D01*
X95900000Y-44947615D02*
X95900000Y-46447615D01*
X95900000Y-46447615D02*
X94400000Y-46447615D01*
X94400000Y-46447615D02*
X94400000Y-44947615D01*
D12*
X94400000Y-46547615D02*
G75*
G03X94400000Y-46547615I-100000J0D01*
G01*
D10*
X91703422Y-73429006D02*
X93203416Y-73433281D01*
X93203416Y-73433281D02*
X93199140Y-74933275D01*
X93199140Y-74933275D02*
X91699146Y-74929000D01*
X91699146Y-74929000D02*
X91703422Y-73429006D01*
D12*
X91698860Y-75028714D02*
G75*
G03X91698860Y-75028714I-99999J0D01*
G01*
D10*
X91703194Y-71528918D02*
X93203188Y-71532909D01*
X93203188Y-71532909D02*
X93199198Y-73032904D01*
X93199198Y-73032904D02*
X91699203Y-73028913D01*
X91699203Y-73028913D02*
X91703194Y-71528918D01*
D12*
X91698936Y-73128646D02*
G75*
G03X91698936Y-73128646I-99999J0D01*
G01*
D10*
X91702965Y-69628829D02*
X93202961Y-69632534D01*
X93202961Y-69632534D02*
X93199255Y-71132530D01*
X93199255Y-71132530D02*
X91699260Y-71128824D01*
X91699260Y-71128824D02*
X91702965Y-69628829D01*
D12*
X91699013Y-71228577D02*
G75*
G03X91699013Y-71228577I-100000J0D01*
G01*
D10*
X91702737Y-67728738D02*
X93202733Y-67732159D01*
X93202733Y-67732159D02*
X93199313Y-69232155D01*
X93199313Y-69232155D02*
X91699317Y-69228734D01*
X91699317Y-69228734D02*
X91702737Y-67728738D01*
D12*
X91699089Y-69328506D02*
G75*
G03X91699089Y-69328506I-100000J0D01*
G01*
D10*
X91702509Y-65828648D02*
X93202506Y-65831783D01*
X93202506Y-65831783D02*
X93199370Y-67331780D01*
X93199370Y-67331780D02*
X91699374Y-67328644D01*
X91699374Y-67328644D02*
X91702509Y-65828648D01*
D12*
X91699165Y-67428435D02*
G75*
G03X91699165Y-67428435I-100000J0D01*
G01*
D10*
X91702281Y-63928555D02*
X93202278Y-63931406D01*
X93202278Y-63931406D02*
X93199428Y-65431403D01*
X93199428Y-65431403D02*
X91699430Y-65428552D01*
X91699430Y-65428552D02*
X91702281Y-63928555D01*
D12*
X91699241Y-65528362D02*
G75*
G03X91699241Y-65528362I-100000J0D01*
G01*
D10*
X91702053Y-62028463D02*
X93202051Y-62031028D01*
X93202051Y-62031028D02*
X93199485Y-63531026D01*
X93199485Y-63531026D02*
X91699487Y-63528460D01*
X91699487Y-63528460D02*
X91702053Y-62028463D01*
D12*
X91699316Y-63628289D02*
G75*
G03X91699316Y-63628289I-100000J0D01*
G01*
D10*
X91701825Y-60128370D02*
X93201823Y-60130651D01*
X93201823Y-60130651D02*
X93199543Y-61630649D01*
X93199543Y-61630649D02*
X91699544Y-61628369D01*
X91699544Y-61628369D02*
X91701825Y-60128370D01*
D12*
X91699391Y-61728216D02*
G75*
G03X91699391Y-61728216I-99999J0D01*
G01*
D10*
X91701597Y-58228277D02*
X93201595Y-58230272D01*
X93201595Y-58230272D02*
X93199600Y-59730271D01*
X93199600Y-59730271D02*
X91699601Y-59728276D01*
X91699601Y-59728276D02*
X91701597Y-58228277D01*
D12*
X91699468Y-59828143D02*
G75*
G03X91699468Y-59828143I-100000J0D01*
G01*
D10*
X91701368Y-56328183D02*
X93201367Y-56329893D01*
X93201367Y-56329893D02*
X93199657Y-57829892D01*
X93199657Y-57829892D02*
X91699658Y-57828182D01*
X91699658Y-57828182D02*
X91701368Y-56328183D01*
D12*
X91699544Y-57928068D02*
G75*
G03X91699544Y-57928068I-100000J0D01*
G01*
D10*
X91701140Y-54428088D02*
X93201140Y-54429514D01*
X93201140Y-54429514D02*
X93199714Y-55929513D01*
X93199714Y-55929513D02*
X91699715Y-55928088D01*
X91699715Y-55928088D02*
X91701140Y-54428088D01*
D12*
X91699620Y-56027993D02*
G75*
G03X91699620Y-56027993I-100000J0D01*
G01*
D10*
X91700912Y-52527994D02*
X93200912Y-52529135D01*
X93200912Y-52529135D02*
X93199772Y-54029134D01*
X93199772Y-54029134D02*
X91699772Y-54027994D01*
X91699772Y-54027994D02*
X91700912Y-52527994D01*
D12*
X91699696Y-54127918D02*
G75*
G03X91699696Y-54127918I-100000J0D01*
G01*
D10*
X91700684Y-50627899D02*
X93200684Y-50628754D01*
X93200684Y-50628754D02*
X93199829Y-52128754D01*
X93199829Y-52128754D02*
X91699829Y-52127899D01*
X91699829Y-52127899D02*
X91700684Y-50627899D01*
D12*
X91699772Y-52227842D02*
G75*
G03X91699772Y-52227842I-100000J0D01*
G01*
D10*
X91700456Y-48727804D02*
X93200456Y-48728374D01*
X93200456Y-48728374D02*
X93199886Y-50228374D01*
X93199886Y-50228374D02*
X91699886Y-50227804D01*
X91699886Y-50227804D02*
X91700456Y-48727804D01*
D12*
X91699848Y-50327766D02*
G75*
G03X91699848Y-50327766I-100000J0D01*
G01*
D10*
X91700228Y-46827710D02*
X93200228Y-46827995D01*
X93200228Y-46827995D02*
X93199943Y-48327995D01*
X93199943Y-48327995D02*
X91699943Y-48327710D01*
X91699943Y-48327710D02*
X91700228Y-46827710D01*
D12*
X91699924Y-48427691D02*
G75*
G03X91699924Y-48427691I-100000J0D01*
G01*
D10*
X91700000Y-44927615D02*
X93200000Y-44927615D01*
X93200000Y-44927615D02*
X93200000Y-46427615D01*
X93200000Y-46427615D02*
X91700000Y-46427615D01*
X91700000Y-46427615D02*
X91700000Y-44927615D01*
D12*
X91700000Y-46527615D02*
G75*
G03X91700000Y-46527615I-100000J0D01*
G01*
D10*
X89003422Y-73439006D02*
X90503416Y-73443281D01*
X90503416Y-73443281D02*
X90499140Y-74943275D01*
X90499140Y-74943275D02*
X88999146Y-74939000D01*
X88999146Y-74939000D02*
X89003422Y-73439006D01*
D12*
X88998860Y-75038714D02*
G75*
G03X88998860Y-75038714I-99999J0D01*
G01*
D10*
X89003194Y-71538918D02*
X90503188Y-71542909D01*
X90503188Y-71542909D02*
X90499198Y-73042904D01*
X90499198Y-73042904D02*
X88999203Y-73038913D01*
X88999203Y-73038913D02*
X89003194Y-71538918D01*
D12*
X88998936Y-73138646D02*
G75*
G03X88998936Y-73138646I-99999J0D01*
G01*
D10*
X89002965Y-69638829D02*
X90502961Y-69642534D01*
X90502961Y-69642534D02*
X90499255Y-71142530D01*
X90499255Y-71142530D02*
X88999260Y-71138824D01*
X88999260Y-71138824D02*
X89002965Y-69638829D01*
D12*
X88999013Y-71238577D02*
G75*
G03X88999013Y-71238577I-100000J0D01*
G01*
D10*
X89002737Y-67738738D02*
X90502733Y-67742159D01*
X90502733Y-67742159D02*
X90499313Y-69242155D01*
X90499313Y-69242155D02*
X88999317Y-69238734D01*
X88999317Y-69238734D02*
X89002737Y-67738738D01*
D12*
X88999089Y-69338506D02*
G75*
G03X88999089Y-69338506I-100000J0D01*
G01*
D10*
X89002509Y-65838648D02*
X90502506Y-65841783D01*
X90502506Y-65841783D02*
X90499370Y-67341780D01*
X90499370Y-67341780D02*
X88999374Y-67338644D01*
X88999374Y-67338644D02*
X89002509Y-65838648D01*
D12*
X88999165Y-67438435D02*
G75*
G03X88999165Y-67438435I-100000J0D01*
G01*
D10*
X89002281Y-63938555D02*
X90502278Y-63941406D01*
X90502278Y-63941406D02*
X90499428Y-65441403D01*
X90499428Y-65441403D02*
X88999430Y-65438552D01*
X88999430Y-65438552D02*
X89002281Y-63938555D01*
D12*
X88999241Y-65538362D02*
G75*
G03X88999241Y-65538362I-100000J0D01*
G01*
D10*
X89002053Y-62038463D02*
X90502051Y-62041028D01*
X90502051Y-62041028D02*
X90499485Y-63541026D01*
X90499485Y-63541026D02*
X88999487Y-63538460D01*
X88999487Y-63538460D02*
X89002053Y-62038463D01*
D12*
X88999316Y-63638289D02*
G75*
G03X88999316Y-63638289I-100000J0D01*
G01*
D10*
X89001825Y-60138370D02*
X90501823Y-60140651D01*
X90501823Y-60140651D02*
X90499543Y-61640649D01*
X90499543Y-61640649D02*
X88999544Y-61638369D01*
X88999544Y-61638369D02*
X89001825Y-60138370D01*
D12*
X88999391Y-61738216D02*
G75*
G03X88999391Y-61738216I-99999J0D01*
G01*
D10*
X89001597Y-58238277D02*
X90501595Y-58240272D01*
X90501595Y-58240272D02*
X90499600Y-59740271D01*
X90499600Y-59740271D02*
X88999601Y-59738276D01*
X88999601Y-59738276D02*
X89001597Y-58238277D01*
D12*
X88999468Y-59838143D02*
G75*
G03X88999468Y-59838143I-100000J0D01*
G01*
D10*
X89001368Y-56338183D02*
X90501367Y-56339893D01*
X90501367Y-56339893D02*
X90499657Y-57839892D01*
X90499657Y-57839892D02*
X88999658Y-57838182D01*
X88999658Y-57838182D02*
X89001368Y-56338183D01*
D12*
X88999544Y-57938068D02*
G75*
G03X88999544Y-57938068I-100000J0D01*
G01*
D10*
X89001140Y-54438088D02*
X90501140Y-54439514D01*
X90501140Y-54439514D02*
X90499714Y-55939513D01*
X90499714Y-55939513D02*
X88999715Y-55938088D01*
X88999715Y-55938088D02*
X89001140Y-54438088D01*
D12*
X88999620Y-56037993D02*
G75*
G03X88999620Y-56037993I-100000J0D01*
G01*
D10*
X89000912Y-52537994D02*
X90500912Y-52539135D01*
X90500912Y-52539135D02*
X90499772Y-54039134D01*
X90499772Y-54039134D02*
X88999772Y-54037994D01*
X88999772Y-54037994D02*
X89000912Y-52537994D01*
D12*
X88999696Y-54137918D02*
G75*
G03X88999696Y-54137918I-100000J0D01*
G01*
D10*
X89000684Y-50637899D02*
X90500684Y-50638754D01*
X90500684Y-50638754D02*
X90499829Y-52138754D01*
X90499829Y-52138754D02*
X88999829Y-52137899D01*
X88999829Y-52137899D02*
X89000684Y-50637899D01*
D12*
X88999772Y-52237842D02*
G75*
G03X88999772Y-52237842I-100000J0D01*
G01*
D10*
X89000456Y-48737804D02*
X90500456Y-48738374D01*
X90500456Y-48738374D02*
X90499886Y-50238374D01*
X90499886Y-50238374D02*
X88999886Y-50237804D01*
X88999886Y-50237804D02*
X89000456Y-48737804D01*
D12*
X88999848Y-50337766D02*
G75*
G03X88999848Y-50337766I-100000J0D01*
G01*
D10*
X89000228Y-46837710D02*
X90500228Y-46837995D01*
X90500228Y-46837995D02*
X90499943Y-48337995D01*
X90499943Y-48337995D02*
X88999943Y-48337710D01*
X88999943Y-48337710D02*
X89000228Y-46837710D01*
D12*
X88999924Y-48437691D02*
G75*
G03X88999924Y-48437691I-100000J0D01*
G01*
D10*
X89000000Y-44937615D02*
X90500000Y-44937615D01*
X90500000Y-44937615D02*
X90500000Y-46437615D01*
X90500000Y-46437615D02*
X89000000Y-46437615D01*
X89000000Y-46437615D02*
X89000000Y-44937615D01*
D12*
X89000000Y-46537615D02*
G75*
G03X89000000Y-46537615I-100000J0D01*
G01*
D10*
X86300000Y-44947615D02*
X87800000Y-44947615D01*
X87800000Y-44947615D02*
X87800000Y-46447615D01*
X87800000Y-46447615D02*
X86300000Y-46447615D01*
X86300000Y-46447615D02*
X86300000Y-44947615D01*
D12*
X86300000Y-46547615D02*
G75*
G03X86300000Y-46547615I-100000J0D01*
G01*
D10*
X86300228Y-46847710D02*
X87800228Y-46847995D01*
X87800228Y-46847995D02*
X87799943Y-48347995D01*
X87799943Y-48347995D02*
X86299943Y-48347710D01*
X86299943Y-48347710D02*
X86300228Y-46847710D01*
D12*
X86299924Y-48447691D02*
G75*
G03X86299924Y-48447691I-100000J0D01*
G01*
D10*
X86300456Y-48747804D02*
X87800456Y-48748374D01*
X87800456Y-48748374D02*
X87799886Y-50248374D01*
X87799886Y-50248374D02*
X86299886Y-50247804D01*
X86299886Y-50247804D02*
X86300456Y-48747804D01*
D12*
X86299848Y-50347766D02*
G75*
G03X86299848Y-50347766I-100000J0D01*
G01*
D10*
X86300684Y-50647899D02*
X87800684Y-50648754D01*
X87800684Y-50648754D02*
X87799829Y-52148754D01*
X87799829Y-52148754D02*
X86299829Y-52147899D01*
X86299829Y-52147899D02*
X86300684Y-50647899D01*
D12*
X86299772Y-52247842D02*
G75*
G03X86299772Y-52247842I-100000J0D01*
G01*
D10*
X86300912Y-52547994D02*
X87800912Y-52549135D01*
X87800912Y-52549135D02*
X87799772Y-54049134D01*
X87799772Y-54049134D02*
X86299772Y-54047994D01*
X86299772Y-54047994D02*
X86300912Y-52547994D01*
D12*
X86299696Y-54147918D02*
G75*
G03X86299696Y-54147918I-100000J0D01*
G01*
D10*
X86301140Y-54448088D02*
X87801140Y-54449514D01*
X87801140Y-54449514D02*
X87799714Y-55949513D01*
X87799714Y-55949513D02*
X86299715Y-55948088D01*
X86299715Y-55948088D02*
X86301140Y-54448088D01*
D12*
X86299620Y-56047993D02*
G75*
G03X86299620Y-56047993I-100000J0D01*
G01*
D10*
X86301368Y-56348183D02*
X87801367Y-56349893D01*
X87801367Y-56349893D02*
X87799657Y-57849892D01*
X87799657Y-57849892D02*
X86299658Y-57848182D01*
X86299658Y-57848182D02*
X86301368Y-56348183D01*
D12*
X86299544Y-57948068D02*
G75*
G03X86299544Y-57948068I-100000J0D01*
G01*
D10*
X86301597Y-58248277D02*
X87801595Y-58250272D01*
X87801595Y-58250272D02*
X87799600Y-59750271D01*
X87799600Y-59750271D02*
X86299601Y-59748276D01*
X86299601Y-59748276D02*
X86301597Y-58248277D01*
D12*
X86299468Y-59848143D02*
G75*
G03X86299468Y-59848143I-100000J0D01*
G01*
D10*
X86301825Y-60148370D02*
X87801823Y-60150651D01*
X87801823Y-60150651D02*
X87799543Y-61650649D01*
X87799543Y-61650649D02*
X86299544Y-61648369D01*
X86299544Y-61648369D02*
X86301825Y-60148370D01*
D12*
X86299391Y-61748216D02*
G75*
G03X86299391Y-61748216I-99999J0D01*
G01*
D10*
X86302053Y-62048463D02*
X87802051Y-62051028D01*
X87802051Y-62051028D02*
X87799485Y-63551026D01*
X87799485Y-63551026D02*
X86299487Y-63548460D01*
X86299487Y-63548460D02*
X86302053Y-62048463D01*
D12*
X86299316Y-63648289D02*
G75*
G03X86299316Y-63648289I-100000J0D01*
G01*
D10*
X86302281Y-63948555D02*
X87802278Y-63951406D01*
X87802278Y-63951406D02*
X87799428Y-65451403D01*
X87799428Y-65451403D02*
X86299430Y-65448552D01*
X86299430Y-65448552D02*
X86302281Y-63948555D01*
D12*
X86299241Y-65548362D02*
G75*
G03X86299241Y-65548362I-100000J0D01*
G01*
D10*
X86302509Y-65848648D02*
X87802506Y-65851783D01*
X87802506Y-65851783D02*
X87799370Y-67351780D01*
X87799370Y-67351780D02*
X86299374Y-67348644D01*
X86299374Y-67348644D02*
X86302509Y-65848648D01*
D12*
X86299165Y-67448435D02*
G75*
G03X86299165Y-67448435I-100000J0D01*
G01*
D10*
X86302737Y-67748738D02*
X87802733Y-67752159D01*
X87802733Y-67752159D02*
X87799313Y-69252155D01*
X87799313Y-69252155D02*
X86299317Y-69248734D01*
X86299317Y-69248734D02*
X86302737Y-67748738D01*
D12*
X86299089Y-69348506D02*
G75*
G03X86299089Y-69348506I-100000J0D01*
G01*
D10*
X86302965Y-69648829D02*
X87802961Y-69652534D01*
X87802961Y-69652534D02*
X87799255Y-71152530D01*
X87799255Y-71152530D02*
X86299260Y-71148824D01*
X86299260Y-71148824D02*
X86302965Y-69648829D01*
D12*
X86299013Y-71248577D02*
G75*
G03X86299013Y-71248577I-100000J0D01*
G01*
D10*
X86303194Y-71548918D02*
X87803188Y-71552909D01*
X87803188Y-71552909D02*
X87799198Y-73052904D01*
X87799198Y-73052904D02*
X86299203Y-73048913D01*
X86299203Y-73048913D02*
X86303194Y-71548918D01*
D12*
X86298936Y-73148646D02*
G75*
G03X86298936Y-73148646I-99999J0D01*
G01*
D10*
X86303422Y-73449006D02*
X87803416Y-73453281D01*
X87803416Y-73453281D02*
X87799140Y-74953275D01*
X87799140Y-74953275D02*
X86299146Y-74949000D01*
X86299146Y-74949000D02*
X86303422Y-73449006D01*
D12*
X86298860Y-75048714D02*
G75*
G03X86298860Y-75048714I-99999J0D01*
G01*
M02*
