G04 #@! TF.GenerationSoftware,KiCad,Pcbnew,(5.99.0-286-g11f0acefe)*
G04 #@! TF.CreationDate,2020-01-02T20:44:45-05:00*
G04 #@! TF.ProjectId,output3,6f757470-7574-4332-9e6b-696361645f70,rev?*
G04 #@! TF.SameCoordinates,Original*
G04 #@! TF.FileFunction,Soldermask,Bot*
G04 #@! TF.FilePolarity,Negative*
%FSLAX46Y46*%
G04 Gerber Fmt 4.6, Leading zero omitted, Abs format (unit mm)*
G04 Created by KiCad (PCBNEW (5.99.0-286-g11f0acefe)) date 2020-01-02 20:44:45*
%MOMM*%
%LPD*%
G04 APERTURE LIST*
%ADD10C,0.050000*%
G04 APERTURE END LIST*
D10*
X93750000Y-45080000D02*
X93750002Y-45099999D01*
X93750000Y-75280000D02*
X93750000Y-75300000D01*
X91050000Y-75280000D02*
X91050000Y-75290000D01*
X88350000Y-75290000D02*
X88350000Y-75300000D01*
X88350002Y-45089999D02*
X88350000Y-45100000D01*
X91050002Y-45079999D02*
X91050000Y-45090000D01*
X93750002Y-45099999D02*
G75*
G02X94300001Y-44550002I549998J-1D01*
G01*
X96350000Y-131800000D02*
G75*
G02X93950000Y-131800000I-1200000J0D01*
G01*
X94300000Y-127600000D02*
X94300000Y-75850000D01*
X94300000Y-75850000D02*
X93750000Y-75300000D01*
X94300000Y-44550000D02*
X95900003Y-44550001D01*
X96450000Y-45100000D02*
X96450000Y-75300000D01*
X96450000Y-75300000D02*
X95900000Y-75850000D01*
X95900003Y-44550001D02*
G75*
G02X96450000Y-45100000I-1J-549998D01*
G01*
X96350000Y-128000000D02*
X95900000Y-127600000D01*
X94300000Y-127600000D02*
X93950000Y-127950000D01*
X96350000Y-131800000D02*
X96350000Y-128000000D01*
X93950000Y-127950000D02*
X93950000Y-131800000D01*
X95900000Y-75850000D02*
X95900000Y-127600000D01*
X91050002Y-45079999D02*
G75*
G02X91600001Y-44530002I549998J-1D01*
G01*
X93650000Y-131780000D02*
G75*
G02X91250000Y-131780000I-1200000J0D01*
G01*
X91600000Y-127580000D02*
X91600000Y-75830000D01*
X91600000Y-75830000D02*
X91050000Y-75280000D01*
X91600000Y-44530000D02*
X93200003Y-44530001D01*
X93750000Y-75280000D02*
X93200000Y-75830000D01*
X93200003Y-44530001D02*
G75*
G02X93750000Y-45080000I-1J-549998D01*
G01*
X93650000Y-127980000D02*
X93200000Y-127580000D01*
X91600000Y-127580000D02*
X91250000Y-127930000D01*
X93650000Y-131780000D02*
X93650000Y-127980000D01*
X91250000Y-127930000D02*
X91250000Y-131780000D01*
X93200000Y-75830000D02*
X93200000Y-127580000D01*
X88350002Y-45089999D02*
G75*
G02X88900001Y-44540002I549998J-1D01*
G01*
X90950000Y-131790000D02*
G75*
G02X88550000Y-131790000I-1200000J0D01*
G01*
X88900000Y-127590000D02*
X88900000Y-75840000D01*
X88900000Y-75840000D02*
X88350000Y-75290000D01*
X88900000Y-44540000D02*
X90500003Y-44540001D01*
X91050000Y-75290000D02*
X90500000Y-75840000D01*
X90500003Y-44540001D02*
G75*
G02X91050000Y-45090000I-1J-549998D01*
G01*
X90950000Y-127990000D02*
X90500000Y-127590000D01*
X88900000Y-127590000D02*
X88550000Y-127940000D01*
X90950000Y-131790000D02*
X90950000Y-127990000D01*
X88550000Y-127940000D02*
X88550000Y-131790000D01*
X90500000Y-75840000D02*
X90500000Y-127590000D01*
X87800003Y-44550001D02*
G75*
G02X88350000Y-45100000I-1J-549998D01*
G01*
X85650002Y-45099999D02*
G75*
G02X86200001Y-44550002I549998J-1D01*
G01*
X85850000Y-127950000D02*
X85850000Y-131800000D01*
X86200000Y-127600000D02*
X85850000Y-127950000D01*
X88250000Y-128000000D02*
X87800000Y-127600000D01*
X88250000Y-131800000D02*
X88250000Y-128000000D01*
X87800000Y-75850000D02*
X87800000Y-127600000D01*
X88350000Y-75300000D02*
X87800000Y-75850000D01*
X86200000Y-44550000D02*
X87800003Y-44550001D01*
X85650000Y-75300000D02*
X85650002Y-45099999D01*
X86200000Y-75850000D02*
X85650000Y-75300000D01*
X86200000Y-127600000D02*
X86200000Y-75850000D01*
X88250000Y-131800000D02*
G75*
G02X85850000Y-131800000I-1200000J0D01*
G01*
G36*
X95217381Y-131246783D02*
G01*
X95240734Y-131245314D01*
X95291992Y-131256209D01*
X95335218Y-131261670D01*
X95356974Y-131270021D01*
X95388399Y-131276701D01*
X95427154Y-131296961D01*
X95459724Y-131309464D01*
X95485993Y-131327721D01*
X95522185Y-131346642D01*
X95547727Y-131370628D01*
X95569239Y-131385579D01*
X95596135Y-131416086D01*
X95632233Y-131449985D01*
X95645865Y-131472493D01*
X95657433Y-131485615D01*
X95680289Y-131529334D01*
X95710437Y-131579114D01*
X95715164Y-131596043D01*
X95719220Y-131603802D01*
X95733047Y-131660095D01*
X95751034Y-131724518D01*
X95749333Y-131887006D01*
X95729987Y-131951082D01*
X95714997Y-132007026D01*
X95710781Y-132014695D01*
X95705699Y-132031527D01*
X95674508Y-132080676D01*
X95650747Y-132123898D01*
X95638908Y-132136772D01*
X95624808Y-132158991D01*
X95588006Y-132192128D01*
X95560478Y-132222064D01*
X95538657Y-132236562D01*
X95512620Y-132260006D01*
X95476045Y-132278162D01*
X95449394Y-132295869D01*
X95416565Y-132307688D01*
X95377399Y-132327130D01*
X95345839Y-132333150D01*
X95323916Y-132341043D01*
X95280593Y-132345597D01*
X95229108Y-132355418D01*
X95205787Y-132353460D01*
X95191284Y-132354984D01*
X95139548Y-132347897D01*
X95078673Y-132342785D01*
X95064937Y-132337677D01*
X95059150Y-132336884D01*
X95002595Y-132314492D01*
X94937177Y-132290163D01*
X94878252Y-132247352D01*
X94826441Y-132210532D01*
X94824537Y-132208326D01*
X94815044Y-132201429D01*
X94775302Y-132151287D01*
X94739300Y-132109579D01*
X94734001Y-132099179D01*
X94721272Y-132083119D01*
X94699838Y-132032129D01*
X94678754Y-131990749D01*
X94674096Y-131970892D01*
X94662771Y-131943950D01*
X94656928Y-131897696D01*
X94648299Y-131860909D01*
X94648604Y-131831808D01*
X94643850Y-131794176D01*
X94649392Y-131756647D01*
X94649697Y-131727552D01*
X94659092Y-131690961D01*
X94665904Y-131644831D01*
X94677791Y-131618132D01*
X94682864Y-131598375D01*
X94704815Y-131557436D01*
X94727307Y-131506918D01*
X94740366Y-131491132D01*
X94745883Y-131480843D01*
X94782753Y-131439895D01*
X94823535Y-131390598D01*
X94833171Y-131383901D01*
X94835122Y-131381734D01*
X94887700Y-131346002D01*
X94947500Y-131304440D01*
X95013435Y-131281479D01*
X95070424Y-131260285D01*
X95076223Y-131259614D01*
X95090067Y-131254793D01*
X95151037Y-131250957D01*
X95202909Y-131244955D01*
X95217381Y-131246783D01*
G37*
G36*
X87117381Y-131246783D02*
G01*
X87140734Y-131245314D01*
X87191992Y-131256209D01*
X87235218Y-131261670D01*
X87256974Y-131270021D01*
X87288399Y-131276701D01*
X87327154Y-131296961D01*
X87359724Y-131309464D01*
X87385993Y-131327721D01*
X87422185Y-131346642D01*
X87447727Y-131370628D01*
X87469239Y-131385579D01*
X87496135Y-131416086D01*
X87532233Y-131449985D01*
X87545865Y-131472493D01*
X87557433Y-131485615D01*
X87580289Y-131529334D01*
X87610437Y-131579114D01*
X87615164Y-131596043D01*
X87619220Y-131603802D01*
X87633047Y-131660095D01*
X87651034Y-131724518D01*
X87649333Y-131887006D01*
X87629987Y-131951082D01*
X87614997Y-132007026D01*
X87610781Y-132014695D01*
X87605699Y-132031527D01*
X87574508Y-132080676D01*
X87550747Y-132123898D01*
X87538908Y-132136772D01*
X87524808Y-132158991D01*
X87488006Y-132192128D01*
X87460478Y-132222064D01*
X87438657Y-132236562D01*
X87412620Y-132260006D01*
X87376045Y-132278162D01*
X87349394Y-132295869D01*
X87316565Y-132307688D01*
X87277399Y-132327130D01*
X87245839Y-132333150D01*
X87223916Y-132341043D01*
X87180593Y-132345597D01*
X87129108Y-132355418D01*
X87105787Y-132353460D01*
X87091284Y-132354984D01*
X87039548Y-132347897D01*
X86978673Y-132342785D01*
X86964937Y-132337677D01*
X86959150Y-132336884D01*
X86902595Y-132314492D01*
X86837177Y-132290163D01*
X86778252Y-132247352D01*
X86726441Y-132210532D01*
X86724537Y-132208326D01*
X86715044Y-132201429D01*
X86675302Y-132151287D01*
X86639300Y-132109579D01*
X86634001Y-132099179D01*
X86621272Y-132083119D01*
X86599838Y-132032129D01*
X86578754Y-131990749D01*
X86574096Y-131970892D01*
X86562771Y-131943950D01*
X86556928Y-131897696D01*
X86548299Y-131860909D01*
X86548604Y-131831808D01*
X86543850Y-131794176D01*
X86549392Y-131756647D01*
X86549697Y-131727552D01*
X86559092Y-131690961D01*
X86565904Y-131644831D01*
X86577791Y-131618132D01*
X86582864Y-131598375D01*
X86604815Y-131557436D01*
X86627307Y-131506918D01*
X86640366Y-131491132D01*
X86645883Y-131480843D01*
X86682753Y-131439895D01*
X86723535Y-131390598D01*
X86733171Y-131383901D01*
X86735122Y-131381734D01*
X86787700Y-131346002D01*
X86847500Y-131304440D01*
X86913435Y-131281479D01*
X86970424Y-131260285D01*
X86976223Y-131259614D01*
X86990067Y-131254793D01*
X87051037Y-131250957D01*
X87102909Y-131244955D01*
X87117381Y-131246783D01*
G37*
G36*
X89817381Y-131236783D02*
G01*
X89840734Y-131235314D01*
X89891992Y-131246209D01*
X89935218Y-131251670D01*
X89956974Y-131260021D01*
X89988399Y-131266701D01*
X90027154Y-131286961D01*
X90059724Y-131299464D01*
X90085993Y-131317721D01*
X90122185Y-131336642D01*
X90147727Y-131360628D01*
X90169239Y-131375579D01*
X90196135Y-131406086D01*
X90232233Y-131439985D01*
X90245865Y-131462493D01*
X90257433Y-131475615D01*
X90280289Y-131519334D01*
X90310437Y-131569114D01*
X90315164Y-131586043D01*
X90319220Y-131593802D01*
X90333047Y-131650095D01*
X90351034Y-131714518D01*
X90349333Y-131877006D01*
X90329987Y-131941082D01*
X90314997Y-131997026D01*
X90310781Y-132004695D01*
X90305699Y-132021527D01*
X90274508Y-132070676D01*
X90250747Y-132113898D01*
X90238908Y-132126772D01*
X90224808Y-132148991D01*
X90188006Y-132182128D01*
X90160478Y-132212064D01*
X90138657Y-132226562D01*
X90112620Y-132250006D01*
X90076045Y-132268162D01*
X90049394Y-132285869D01*
X90016565Y-132297688D01*
X89977399Y-132317130D01*
X89945839Y-132323150D01*
X89923916Y-132331043D01*
X89880593Y-132335597D01*
X89829108Y-132345418D01*
X89805787Y-132343460D01*
X89791284Y-132344984D01*
X89739548Y-132337897D01*
X89678673Y-132332785D01*
X89664937Y-132327677D01*
X89659150Y-132326884D01*
X89602595Y-132304492D01*
X89537177Y-132280163D01*
X89478252Y-132237352D01*
X89426441Y-132200532D01*
X89424537Y-132198326D01*
X89415044Y-132191429D01*
X89375302Y-132141287D01*
X89339300Y-132099579D01*
X89334001Y-132089179D01*
X89321272Y-132073119D01*
X89299838Y-132022129D01*
X89278754Y-131980749D01*
X89274096Y-131960892D01*
X89262771Y-131933950D01*
X89256928Y-131887696D01*
X89248299Y-131850909D01*
X89248604Y-131821808D01*
X89243850Y-131784176D01*
X89249392Y-131746647D01*
X89249697Y-131717552D01*
X89259092Y-131680961D01*
X89265904Y-131634831D01*
X89277791Y-131608132D01*
X89282864Y-131588375D01*
X89304815Y-131547436D01*
X89327307Y-131496918D01*
X89340366Y-131481132D01*
X89345883Y-131470843D01*
X89382753Y-131429895D01*
X89423535Y-131380598D01*
X89433171Y-131373901D01*
X89435122Y-131371734D01*
X89487700Y-131336002D01*
X89547500Y-131294440D01*
X89613435Y-131271479D01*
X89670424Y-131250285D01*
X89676223Y-131249614D01*
X89690067Y-131244793D01*
X89751037Y-131240957D01*
X89802909Y-131234955D01*
X89817381Y-131236783D01*
G37*
G36*
X92517381Y-131226783D02*
G01*
X92540734Y-131225314D01*
X92591992Y-131236209D01*
X92635218Y-131241670D01*
X92656974Y-131250021D01*
X92688399Y-131256701D01*
X92727154Y-131276961D01*
X92759724Y-131289464D01*
X92785993Y-131307721D01*
X92822185Y-131326642D01*
X92847727Y-131350628D01*
X92869239Y-131365579D01*
X92896135Y-131396086D01*
X92932233Y-131429985D01*
X92945865Y-131452493D01*
X92957433Y-131465615D01*
X92980289Y-131509334D01*
X93010437Y-131559114D01*
X93015164Y-131576043D01*
X93019220Y-131583802D01*
X93033047Y-131640095D01*
X93051034Y-131704518D01*
X93049333Y-131867006D01*
X93029987Y-131931082D01*
X93014997Y-131987026D01*
X93010781Y-131994695D01*
X93005699Y-132011527D01*
X92974508Y-132060676D01*
X92950747Y-132103898D01*
X92938908Y-132116772D01*
X92924808Y-132138991D01*
X92888006Y-132172128D01*
X92860478Y-132202064D01*
X92838657Y-132216562D01*
X92812620Y-132240006D01*
X92776045Y-132258162D01*
X92749394Y-132275869D01*
X92716565Y-132287688D01*
X92677399Y-132307130D01*
X92645839Y-132313150D01*
X92623916Y-132321043D01*
X92580593Y-132325597D01*
X92529108Y-132335418D01*
X92505787Y-132333460D01*
X92491284Y-132334984D01*
X92439548Y-132327897D01*
X92378673Y-132322785D01*
X92364937Y-132317677D01*
X92359150Y-132316884D01*
X92302595Y-132294492D01*
X92237177Y-132270163D01*
X92178252Y-132227352D01*
X92126441Y-132190532D01*
X92124537Y-132188326D01*
X92115044Y-132181429D01*
X92075302Y-132131287D01*
X92039300Y-132089579D01*
X92034001Y-132079179D01*
X92021272Y-132063119D01*
X91999838Y-132012129D01*
X91978754Y-131970749D01*
X91974096Y-131950892D01*
X91962771Y-131923950D01*
X91956928Y-131877696D01*
X91948299Y-131840909D01*
X91948604Y-131811808D01*
X91943850Y-131774176D01*
X91949392Y-131736647D01*
X91949697Y-131707552D01*
X91959092Y-131670961D01*
X91965904Y-131624831D01*
X91977791Y-131598132D01*
X91982864Y-131578375D01*
X92004815Y-131537436D01*
X92027307Y-131486918D01*
X92040366Y-131471132D01*
X92045883Y-131460843D01*
X92082753Y-131419895D01*
X92123535Y-131370598D01*
X92133171Y-131363901D01*
X92135122Y-131361734D01*
X92187700Y-131326002D01*
X92247500Y-131284440D01*
X92313435Y-131261479D01*
X92370424Y-131240285D01*
X92376223Y-131239614D01*
X92390067Y-131234793D01*
X92451037Y-131230957D01*
X92502909Y-131224955D01*
X92517381Y-131226783D01*
G37*
M02*
