G04 #@! TF.GenerationSoftware,KiCad,Pcbnew,(5.99.0-218-ga43b00b66)*
G04 #@! TF.CreationDate,2019-10-26T16:03:55-04:00*
G04 #@! TF.ProjectId,output3,6f757470-7574-4332-9e6b-696361645f70,rev?*
G04 #@! TF.SameCoordinates,Original*
G04 #@! TF.FileFunction,Soldermask,Top*
G04 #@! TF.FilePolarity,Negative*
%FSLAX46Y46*%
G04 Gerber Fmt 4.6, Leading zero omitted, Abs format (unit mm)*
G04 Created by KiCad (PCBNEW (5.99.0-218-ga43b00b66)) date 2019-10-26 16:03:55*
%MOMM*%
%LPD*%
G04 APERTURE LIST*
%ADD10C,0.050000*%
%ADD11C,0.100000*%
G04 APERTURE END LIST*
D10*
X82600000Y-44300000D02*
X82100000Y-44300000D01*
X85500000Y-44300000D02*
X85100000Y-44300000D01*
X88100000Y-76200000D02*
X88100000Y-44300000D01*
X82500000Y-76200000D02*
X82100000Y-76200000D01*
X85400000Y-76200000D02*
X85500000Y-76200000D01*
X85100000Y-76200000D02*
X85400000Y-76200000D01*
X85500000Y-44300000D02*
X85600000Y-44300000D01*
D11*
G36*
X86800000Y-76100000D02*
G01*
X86400000Y-76100000D01*
X86400000Y-75600000D01*
X86800000Y-75600000D01*
X86800000Y-76100000D01*
X86800000Y-76100000D01*
G37*
X86800000Y-76100000D02*
X86400000Y-76100000D01*
X86400000Y-75600000D01*
X86800000Y-75600000D01*
X86800000Y-76100000D01*
G36*
X87600000Y-76100000D02*
G01*
X87100000Y-76100000D01*
X87100000Y-75500000D01*
X87600000Y-75500000D01*
X87600000Y-76100000D01*
X87600000Y-76100000D01*
G37*
X87600000Y-76100000D02*
X87100000Y-76100000D01*
X87100000Y-75500000D01*
X87600000Y-75500000D01*
X87600000Y-76100000D01*
G36*
X86100000Y-76100000D02*
G01*
X85700000Y-76100000D01*
X85700000Y-75600000D01*
X86100000Y-75600000D01*
X86100000Y-76100000D01*
X86100000Y-76100000D01*
G37*
X86100000Y-76100000D02*
X85700000Y-76100000D01*
X85700000Y-75600000D01*
X86100000Y-75600000D01*
X86100000Y-76100000D01*
G36*
X86900000Y-45000000D02*
G01*
X86700000Y-45000000D01*
X86700000Y-44500000D01*
X86900000Y-44500000D01*
X86900000Y-45000000D01*
X86900000Y-45000000D01*
G37*
X86900000Y-45000000D02*
X86700000Y-45000000D01*
X86700000Y-44500000D01*
X86900000Y-44500000D01*
X86900000Y-45000000D01*
G36*
X87700000Y-45000000D02*
G01*
X87200000Y-45000000D01*
X87200000Y-44500000D01*
X87700000Y-44500000D01*
X87700000Y-45000000D01*
X87700000Y-45000000D01*
G37*
X87700000Y-45000000D02*
X87200000Y-45000000D01*
X87200000Y-44500000D01*
X87700000Y-44500000D01*
X87700000Y-45000000D01*
D10*
X85600000Y-44300000D02*
X88100000Y-44300000D01*
X88100000Y-76200000D02*
X85500000Y-76200000D01*
D11*
G36*
X86400000Y-45100000D02*
G01*
X86000000Y-45100000D01*
X86000000Y-44500000D01*
X86400000Y-44500000D01*
X86400000Y-45100000D01*
X86400000Y-45100000D01*
G37*
X86400000Y-45100000D02*
X86000000Y-45100000D01*
X86000000Y-44500000D01*
X86400000Y-44500000D01*
X86400000Y-45100000D01*
G36*
X83900000Y-45000000D02*
G01*
X83700000Y-45000000D01*
X83700000Y-44500000D01*
X83900000Y-44500000D01*
X83900000Y-45000000D01*
X83900000Y-45000000D01*
G37*
X83900000Y-45000000D02*
X83700000Y-45000000D01*
X83700000Y-44500000D01*
X83900000Y-44500000D01*
X83900000Y-45000000D01*
G36*
X84700000Y-45000000D02*
G01*
X84200000Y-45000000D01*
X84200000Y-44500000D01*
X84700000Y-44500000D01*
X84700000Y-45000000D01*
X84700000Y-45000000D01*
G37*
X84700000Y-45000000D02*
X84200000Y-45000000D01*
X84200000Y-44500000D01*
X84700000Y-44500000D01*
X84700000Y-45000000D01*
G36*
X83400000Y-45100000D02*
G01*
X83000000Y-45100000D01*
X83000000Y-44500000D01*
X83400000Y-44500000D01*
X83400000Y-45100000D01*
X83400000Y-45100000D01*
G37*
X83400000Y-45100000D02*
X83000000Y-45100000D01*
X83000000Y-44500000D01*
X83400000Y-44500000D01*
X83400000Y-45100000D01*
G36*
X83100000Y-76100000D02*
G01*
X82700000Y-76100000D01*
X82700000Y-75600000D01*
X83100000Y-75600000D01*
X83100000Y-76100000D01*
X83100000Y-76100000D01*
G37*
X83100000Y-76100000D02*
X82700000Y-76100000D01*
X82700000Y-75600000D01*
X83100000Y-75600000D01*
X83100000Y-76100000D01*
G36*
X83800000Y-76100000D02*
G01*
X83400000Y-76100000D01*
X83400000Y-75600000D01*
X83800000Y-75600000D01*
X83800000Y-76100000D01*
X83800000Y-76100000D01*
G37*
X83800000Y-76100000D02*
X83400000Y-76100000D01*
X83400000Y-75600000D01*
X83800000Y-75600000D01*
X83800000Y-76100000D01*
D10*
X85100000Y-76200000D02*
X82500000Y-76200000D01*
D11*
G36*
X84600000Y-76100000D02*
G01*
X84100000Y-76100000D01*
X84100000Y-75500000D01*
X84600000Y-75500000D01*
X84600000Y-76100000D01*
X84600000Y-76100000D01*
G37*
X84600000Y-76100000D02*
X84100000Y-76100000D01*
X84100000Y-75500000D01*
X84600000Y-75500000D01*
X84600000Y-76100000D01*
D10*
X82500000Y-44300000D02*
X82600000Y-44300000D01*
X82600000Y-44300000D02*
X85100000Y-44300000D01*
X79500000Y-76200000D02*
X79500000Y-75300000D01*
X82100000Y-76200000D02*
X79500000Y-76200000D01*
D11*
G36*
X80100000Y-76100000D02*
G01*
X79700000Y-76100000D01*
X79700000Y-75600000D01*
X80100000Y-75600000D01*
X80100000Y-76100000D01*
X80100000Y-76100000D01*
G37*
X80100000Y-76100000D02*
X79700000Y-76100000D01*
X79700000Y-75600000D01*
X80100000Y-75600000D01*
X80100000Y-76100000D01*
G36*
X80800000Y-76100000D02*
G01*
X80400000Y-76100000D01*
X80400000Y-75600000D01*
X80800000Y-75600000D01*
X80800000Y-76100000D01*
X80800000Y-76100000D01*
G37*
X80800000Y-76100000D02*
X80400000Y-76100000D01*
X80400000Y-75600000D01*
X80800000Y-75600000D01*
X80800000Y-76100000D01*
G36*
X81600000Y-76100000D02*
G01*
X81100000Y-76100000D01*
X81100000Y-75500000D01*
X81600000Y-75500000D01*
X81600000Y-76100000D01*
X81600000Y-76100000D01*
G37*
X81600000Y-76100000D02*
X81100000Y-76100000D01*
X81100000Y-75500000D01*
X81600000Y-75500000D01*
X81600000Y-76100000D01*
D10*
X79500000Y-44300000D02*
X79600000Y-44300000D01*
X79500000Y-44500000D02*
X79500000Y-44300000D01*
X79500000Y-75300000D02*
X79500000Y-44500000D01*
X79600000Y-44300000D02*
X82100000Y-44300000D01*
D11*
G36*
X81700000Y-45000000D02*
G01*
X81200000Y-45000000D01*
X81200000Y-44500000D01*
X81700000Y-44500000D01*
X81700000Y-45000000D01*
X81700000Y-45000000D01*
G37*
X81700000Y-45000000D02*
X81200000Y-45000000D01*
X81200000Y-44500000D01*
X81700000Y-44500000D01*
X81700000Y-45000000D01*
G36*
X80900000Y-45000000D02*
G01*
X80700000Y-45000000D01*
X80700000Y-44500000D01*
X80900000Y-44500000D01*
X80900000Y-45000000D01*
X80900000Y-45000000D01*
G37*
X80900000Y-45000000D02*
X80700000Y-45000000D01*
X80700000Y-44500000D01*
X80900000Y-44500000D01*
X80900000Y-45000000D01*
G36*
X80400000Y-45100000D02*
G01*
X80000000Y-45100000D01*
X80000000Y-44500000D01*
X80400000Y-44500000D01*
X80400000Y-45100000D01*
X80400000Y-45100000D01*
G37*
X80400000Y-45100000D02*
X80000000Y-45100000D01*
X80000000Y-44500000D01*
X80400000Y-44500000D01*
X80400000Y-45100000D01*
G36*
X80691262Y-73746233D02*
G01*
X80703567Y-73748717D01*
X80723455Y-73752732D01*
X80740291Y-73764051D01*
X80749550Y-73777994D01*
X80803466Y-73823314D01*
X80873324Y-73832291D01*
X80957414Y-73778588D01*
X80966753Y-73764698D01*
X80983655Y-73753474D01*
X80996744Y-73750909D01*
X81003566Y-73749572D01*
X81003567Y-73749572D01*
X81015886Y-73747158D01*
X81591259Y-73748798D01*
X81623452Y-73755297D01*
X81640290Y-73766617D01*
X81651513Y-73783518D01*
X81657829Y-73815749D01*
X81656189Y-74391122D01*
X81649690Y-74423315D01*
X81641386Y-74435667D01*
X81638370Y-74440152D01*
X81624427Y-74449411D01*
X81579108Y-74503326D01*
X81570131Y-74573184D01*
X81623834Y-74657275D01*
X81634869Y-74664694D01*
X81637724Y-74666614D01*
X81648947Y-74683514D01*
X81655263Y-74715745D01*
X81653623Y-75291118D01*
X81647124Y-75323311D01*
X81635804Y-75340149D01*
X81618903Y-75351372D01*
X81612080Y-75352709D01*
X81598992Y-75355274D01*
X81598991Y-75355274D01*
X81586672Y-75357688D01*
X81011299Y-75356048D01*
X80986289Y-75350999D01*
X80979106Y-75349549D01*
X80975291Y-75346984D01*
X80962270Y-75338230D01*
X80953011Y-75324287D01*
X80899095Y-75278967D01*
X80829237Y-75269990D01*
X80745145Y-75323695D01*
X80735807Y-75337584D01*
X80718907Y-75348807D01*
X80709795Y-75350593D01*
X80698996Y-75352709D01*
X80698995Y-75352709D01*
X80686676Y-75355123D01*
X80111303Y-75353483D01*
X80079110Y-75346984D01*
X80062272Y-75335664D01*
X80051049Y-75318763D01*
X80044733Y-75286532D01*
X80046373Y-74711159D01*
X80052872Y-74678966D01*
X80064191Y-74662130D01*
X80064192Y-74662130D01*
X80064192Y-74662129D01*
X80078135Y-74652870D01*
X80123454Y-74598955D01*
X80127095Y-74570619D01*
X80670134Y-74570619D01*
X80723839Y-74654710D01*
X80737727Y-74664048D01*
X80746985Y-74677990D01*
X80800901Y-74723310D01*
X80870759Y-74732287D01*
X80954851Y-74678582D01*
X80955249Y-74677990D01*
X80964188Y-74664694D01*
X80978131Y-74655435D01*
X81023450Y-74601520D01*
X81032427Y-74531662D01*
X80978724Y-74447571D01*
X80964836Y-74438234D01*
X80955577Y-74424291D01*
X80901661Y-74378971D01*
X80831803Y-74369994D01*
X80747713Y-74423697D01*
X80738376Y-74437585D01*
X80738373Y-74437587D01*
X80724430Y-74446846D01*
X80679111Y-74500761D01*
X80670134Y-74570619D01*
X80127095Y-74570619D01*
X80132431Y-74529097D01*
X80078726Y-74445005D01*
X80064838Y-74435668D01*
X80064837Y-74435667D01*
X80053614Y-74418767D01*
X80047298Y-74386536D01*
X80048938Y-73811163D01*
X80055437Y-73778970D01*
X80066757Y-73762132D01*
X80083658Y-73750909D01*
X80092770Y-73749123D01*
X80103569Y-73747007D01*
X80103570Y-73747007D01*
X80115889Y-73744593D01*
X80691262Y-73746233D01*
X80691262Y-73746233D01*
G37*
G36*
X83691262Y-73746233D02*
G01*
X83703567Y-73748717D01*
X83723455Y-73752732D01*
X83740291Y-73764051D01*
X83749550Y-73777994D01*
X83803466Y-73823314D01*
X83873324Y-73832291D01*
X83957414Y-73778588D01*
X83966753Y-73764698D01*
X83983655Y-73753474D01*
X83996744Y-73750909D01*
X84003566Y-73749572D01*
X84003567Y-73749572D01*
X84015886Y-73747158D01*
X84591259Y-73748798D01*
X84623452Y-73755297D01*
X84640290Y-73766617D01*
X84651513Y-73783518D01*
X84657829Y-73815749D01*
X84656189Y-74391122D01*
X84649690Y-74423315D01*
X84641386Y-74435667D01*
X84638370Y-74440152D01*
X84624427Y-74449411D01*
X84579108Y-74503326D01*
X84570131Y-74573184D01*
X84623834Y-74657275D01*
X84634869Y-74664694D01*
X84637724Y-74666614D01*
X84648947Y-74683514D01*
X84655263Y-74715745D01*
X84653623Y-75291118D01*
X84647124Y-75323311D01*
X84635804Y-75340149D01*
X84618903Y-75351372D01*
X84612080Y-75352709D01*
X84598992Y-75355274D01*
X84598991Y-75355274D01*
X84586672Y-75357688D01*
X84011299Y-75356048D01*
X83986289Y-75350999D01*
X83979106Y-75349549D01*
X83975291Y-75346984D01*
X83962270Y-75338230D01*
X83953011Y-75324287D01*
X83899095Y-75278967D01*
X83829237Y-75269990D01*
X83745145Y-75323695D01*
X83735807Y-75337584D01*
X83718907Y-75348807D01*
X83709795Y-75350593D01*
X83698996Y-75352709D01*
X83698995Y-75352709D01*
X83686676Y-75355123D01*
X83111303Y-75353483D01*
X83079110Y-75346984D01*
X83062272Y-75335664D01*
X83051049Y-75318763D01*
X83044733Y-75286532D01*
X83046373Y-74711159D01*
X83052872Y-74678966D01*
X83064191Y-74662130D01*
X83064192Y-74662130D01*
X83064192Y-74662129D01*
X83078135Y-74652870D01*
X83123454Y-74598955D01*
X83127095Y-74570619D01*
X83670134Y-74570619D01*
X83723839Y-74654710D01*
X83737727Y-74664048D01*
X83746985Y-74677990D01*
X83800901Y-74723310D01*
X83870759Y-74732287D01*
X83954851Y-74678582D01*
X83955249Y-74677990D01*
X83964188Y-74664694D01*
X83978131Y-74655435D01*
X84023450Y-74601520D01*
X84032427Y-74531662D01*
X83978724Y-74447571D01*
X83964836Y-74438234D01*
X83955577Y-74424291D01*
X83901661Y-74378971D01*
X83831803Y-74369994D01*
X83747713Y-74423697D01*
X83738376Y-74437585D01*
X83738373Y-74437587D01*
X83724430Y-74446846D01*
X83679111Y-74500761D01*
X83670134Y-74570619D01*
X83127095Y-74570619D01*
X83132431Y-74529097D01*
X83078726Y-74445005D01*
X83064838Y-74435668D01*
X83064837Y-74435667D01*
X83053614Y-74418767D01*
X83047298Y-74386536D01*
X83048938Y-73811163D01*
X83055437Y-73778970D01*
X83066757Y-73762132D01*
X83083658Y-73750909D01*
X83092770Y-73749123D01*
X83103569Y-73747007D01*
X83103570Y-73747007D01*
X83115889Y-73744593D01*
X83691262Y-73746233D01*
X83691262Y-73746233D01*
G37*
G36*
X86691262Y-73746233D02*
G01*
X86703567Y-73748717D01*
X86723455Y-73752732D01*
X86740291Y-73764051D01*
X86749550Y-73777994D01*
X86803466Y-73823314D01*
X86873324Y-73832291D01*
X86957414Y-73778588D01*
X86966753Y-73764698D01*
X86983655Y-73753474D01*
X86996744Y-73750909D01*
X87003566Y-73749572D01*
X87003567Y-73749572D01*
X87015886Y-73747158D01*
X87591259Y-73748798D01*
X87623452Y-73755297D01*
X87640290Y-73766617D01*
X87651513Y-73783518D01*
X87657829Y-73815749D01*
X87656189Y-74391122D01*
X87649690Y-74423315D01*
X87641386Y-74435667D01*
X87638370Y-74440152D01*
X87624427Y-74449411D01*
X87579108Y-74503326D01*
X87570131Y-74573184D01*
X87623834Y-74657275D01*
X87634869Y-74664694D01*
X87637724Y-74666614D01*
X87648947Y-74683514D01*
X87655263Y-74715745D01*
X87653623Y-75291118D01*
X87647124Y-75323311D01*
X87635804Y-75340149D01*
X87618903Y-75351372D01*
X87612080Y-75352709D01*
X87598992Y-75355274D01*
X87598991Y-75355274D01*
X87586672Y-75357688D01*
X87011299Y-75356048D01*
X86986289Y-75350999D01*
X86979106Y-75349549D01*
X86975291Y-75346984D01*
X86962270Y-75338230D01*
X86953011Y-75324287D01*
X86899095Y-75278967D01*
X86829237Y-75269990D01*
X86745145Y-75323695D01*
X86735807Y-75337584D01*
X86718907Y-75348807D01*
X86709795Y-75350593D01*
X86698996Y-75352709D01*
X86698995Y-75352709D01*
X86686676Y-75355123D01*
X86111303Y-75353483D01*
X86079110Y-75346984D01*
X86062272Y-75335664D01*
X86051049Y-75318763D01*
X86044733Y-75286532D01*
X86046373Y-74711159D01*
X86052872Y-74678966D01*
X86064191Y-74662130D01*
X86064192Y-74662130D01*
X86064192Y-74662129D01*
X86078135Y-74652870D01*
X86123454Y-74598955D01*
X86127095Y-74570619D01*
X86670134Y-74570619D01*
X86723839Y-74654710D01*
X86737727Y-74664048D01*
X86746985Y-74677990D01*
X86800901Y-74723310D01*
X86870759Y-74732287D01*
X86954851Y-74678582D01*
X86955249Y-74677990D01*
X86964188Y-74664694D01*
X86978131Y-74655435D01*
X87023450Y-74601520D01*
X87032427Y-74531662D01*
X86978724Y-74447571D01*
X86964836Y-74438234D01*
X86955577Y-74424291D01*
X86901661Y-74378971D01*
X86831803Y-74369994D01*
X86747713Y-74423697D01*
X86738376Y-74437585D01*
X86738373Y-74437587D01*
X86724430Y-74446846D01*
X86679111Y-74500761D01*
X86670134Y-74570619D01*
X86127095Y-74570619D01*
X86132431Y-74529097D01*
X86078726Y-74445005D01*
X86064838Y-74435668D01*
X86064837Y-74435667D01*
X86053614Y-74418767D01*
X86047298Y-74386536D01*
X86048938Y-73811163D01*
X86055437Y-73778970D01*
X86066757Y-73762132D01*
X86083658Y-73750909D01*
X86092770Y-73749123D01*
X86103569Y-73747007D01*
X86103570Y-73747007D01*
X86115889Y-73744593D01*
X86691262Y-73746233D01*
X86691262Y-73746233D01*
G37*
G36*
X80691026Y-71846034D02*
G01*
X80703329Y-71848515D01*
X80723218Y-71852526D01*
X80740058Y-71863843D01*
X80749321Y-71877786D01*
X80803241Y-71923094D01*
X80873101Y-71932058D01*
X80957183Y-71878339D01*
X80966519Y-71864446D01*
X80983419Y-71853219D01*
X81003328Y-71849314D01*
X81003333Y-71849314D01*
X81015646Y-71846899D01*
X81591023Y-71848429D01*
X81603326Y-71850910D01*
X81623215Y-71854921D01*
X81640055Y-71866238D01*
X81651282Y-71883138D01*
X81655187Y-71903047D01*
X81655187Y-71903052D01*
X81657602Y-71915365D01*
X81656072Y-72490742D01*
X81653591Y-72503045D01*
X81649580Y-72522934D01*
X81638263Y-72539774D01*
X81624322Y-72549035D01*
X81579014Y-72602957D01*
X81570050Y-72672817D01*
X81623769Y-72756898D01*
X81637661Y-72766234D01*
X81648888Y-72783134D01*
X81652793Y-72803043D01*
X81652793Y-72803048D01*
X81655208Y-72815361D01*
X81653678Y-73390738D01*
X81651197Y-73403041D01*
X81647186Y-73422930D01*
X81635869Y-73439770D01*
X81618969Y-73450997D01*
X81599060Y-73454902D01*
X81599055Y-73454902D01*
X81586742Y-73457317D01*
X81011365Y-73455787D01*
X80979173Y-73449295D01*
X80975611Y-73446901D01*
X80962333Y-73437978D01*
X80953071Y-73424036D01*
X80899148Y-73378727D01*
X80829288Y-73369764D01*
X80745208Y-73423483D01*
X80735872Y-73437376D01*
X80718972Y-73448603D01*
X80699063Y-73452508D01*
X80699058Y-73452508D01*
X80686745Y-73454923D01*
X80111368Y-73453393D01*
X80079176Y-73446901D01*
X80062336Y-73435584D01*
X80051109Y-73418684D01*
X80047204Y-73398775D01*
X80047204Y-73398770D01*
X80044789Y-73386457D01*
X80046319Y-72811080D01*
X80052811Y-72778888D01*
X80053555Y-72777781D01*
X80064128Y-72762048D01*
X80078070Y-72752786D01*
X80123379Y-72698863D01*
X80127027Y-72670424D01*
X80670052Y-72670424D01*
X80723771Y-72754504D01*
X80737664Y-72763840D01*
X80739254Y-72766234D01*
X80746925Y-72777781D01*
X80800849Y-72823091D01*
X80870709Y-72832054D01*
X80954789Y-72778335D01*
X80964125Y-72764442D01*
X80978066Y-72755181D01*
X81023374Y-72701259D01*
X81032338Y-72631399D01*
X80978619Y-72547318D01*
X80967392Y-72539773D01*
X80964727Y-72537982D01*
X80955464Y-72524039D01*
X80901544Y-72478731D01*
X80831684Y-72469767D01*
X80747602Y-72523486D01*
X80738266Y-72537379D01*
X80724325Y-72546640D01*
X80679015Y-72600564D01*
X80670052Y-72670424D01*
X80127027Y-72670424D01*
X80132342Y-72629003D01*
X80078623Y-72544923D01*
X80064730Y-72535587D01*
X80053503Y-72518687D01*
X80049598Y-72498778D01*
X80049598Y-72498773D01*
X80047183Y-72486460D01*
X80048713Y-71911083D01*
X80055205Y-71878891D01*
X80063708Y-71866239D01*
X80066522Y-71862051D01*
X80080860Y-71852526D01*
X80083420Y-71850825D01*
X80083421Y-71850825D01*
X80083422Y-71850824D01*
X80103331Y-71846919D01*
X80103336Y-71846919D01*
X80115649Y-71844504D01*
X80691026Y-71846034D01*
X80691026Y-71846034D01*
G37*
G36*
X86691026Y-71846034D02*
G01*
X86703329Y-71848515D01*
X86723218Y-71852526D01*
X86740058Y-71863843D01*
X86749321Y-71877786D01*
X86803241Y-71923094D01*
X86873101Y-71932058D01*
X86957183Y-71878339D01*
X86966519Y-71864446D01*
X86983419Y-71853219D01*
X87003328Y-71849314D01*
X87003333Y-71849314D01*
X87015646Y-71846899D01*
X87591023Y-71848429D01*
X87603326Y-71850910D01*
X87623215Y-71854921D01*
X87640055Y-71866238D01*
X87651282Y-71883138D01*
X87655187Y-71903047D01*
X87655187Y-71903052D01*
X87657602Y-71915365D01*
X87656072Y-72490742D01*
X87653591Y-72503045D01*
X87649580Y-72522934D01*
X87638263Y-72539774D01*
X87624322Y-72549035D01*
X87579014Y-72602957D01*
X87570050Y-72672817D01*
X87623769Y-72756898D01*
X87637661Y-72766234D01*
X87648888Y-72783134D01*
X87652793Y-72803043D01*
X87652793Y-72803048D01*
X87655208Y-72815361D01*
X87653678Y-73390738D01*
X87651197Y-73403041D01*
X87647186Y-73422930D01*
X87635869Y-73439770D01*
X87618969Y-73450997D01*
X87599060Y-73454902D01*
X87599055Y-73454902D01*
X87586742Y-73457317D01*
X87011365Y-73455787D01*
X86979173Y-73449295D01*
X86975611Y-73446901D01*
X86962333Y-73437978D01*
X86953071Y-73424036D01*
X86899148Y-73378727D01*
X86829288Y-73369764D01*
X86745208Y-73423483D01*
X86735872Y-73437376D01*
X86718972Y-73448603D01*
X86699063Y-73452508D01*
X86699058Y-73452508D01*
X86686745Y-73454923D01*
X86111368Y-73453393D01*
X86079176Y-73446901D01*
X86062336Y-73435584D01*
X86051109Y-73418684D01*
X86047204Y-73398775D01*
X86047204Y-73398770D01*
X86044789Y-73386457D01*
X86046319Y-72811080D01*
X86052811Y-72778888D01*
X86053555Y-72777781D01*
X86064128Y-72762048D01*
X86078070Y-72752786D01*
X86123379Y-72698863D01*
X86127027Y-72670424D01*
X86670052Y-72670424D01*
X86723771Y-72754504D01*
X86737664Y-72763840D01*
X86739254Y-72766234D01*
X86746925Y-72777781D01*
X86800849Y-72823091D01*
X86870709Y-72832054D01*
X86954789Y-72778335D01*
X86964125Y-72764442D01*
X86978066Y-72755181D01*
X87023374Y-72701259D01*
X87032338Y-72631399D01*
X86978619Y-72547318D01*
X86967392Y-72539773D01*
X86964727Y-72537982D01*
X86955464Y-72524039D01*
X86901544Y-72478731D01*
X86831684Y-72469767D01*
X86747602Y-72523486D01*
X86738266Y-72537379D01*
X86724325Y-72546640D01*
X86679015Y-72600564D01*
X86670052Y-72670424D01*
X86127027Y-72670424D01*
X86132342Y-72629003D01*
X86078623Y-72544923D01*
X86064730Y-72535587D01*
X86053503Y-72518687D01*
X86049598Y-72498778D01*
X86049598Y-72498773D01*
X86047183Y-72486460D01*
X86048713Y-71911083D01*
X86055205Y-71878891D01*
X86063708Y-71866239D01*
X86066522Y-71862051D01*
X86080860Y-71852526D01*
X86083420Y-71850825D01*
X86083421Y-71850825D01*
X86083422Y-71850824D01*
X86103331Y-71846919D01*
X86103336Y-71846919D01*
X86115649Y-71844504D01*
X86691026Y-71846034D01*
X86691026Y-71846034D01*
G37*
G36*
X83691026Y-71846034D02*
G01*
X83703329Y-71848515D01*
X83723218Y-71852526D01*
X83740058Y-71863843D01*
X83749321Y-71877786D01*
X83803241Y-71923094D01*
X83873101Y-71932058D01*
X83957183Y-71878339D01*
X83966519Y-71864446D01*
X83983419Y-71853219D01*
X84003328Y-71849314D01*
X84003333Y-71849314D01*
X84015646Y-71846899D01*
X84591023Y-71848429D01*
X84603326Y-71850910D01*
X84623215Y-71854921D01*
X84640055Y-71866238D01*
X84651282Y-71883138D01*
X84655187Y-71903047D01*
X84655187Y-71903052D01*
X84657602Y-71915365D01*
X84656072Y-72490742D01*
X84653591Y-72503045D01*
X84649580Y-72522934D01*
X84638263Y-72539774D01*
X84624322Y-72549035D01*
X84579014Y-72602957D01*
X84570050Y-72672817D01*
X84623769Y-72756898D01*
X84637661Y-72766234D01*
X84648888Y-72783134D01*
X84652793Y-72803043D01*
X84652793Y-72803048D01*
X84655208Y-72815361D01*
X84653678Y-73390738D01*
X84651197Y-73403041D01*
X84647186Y-73422930D01*
X84635869Y-73439770D01*
X84618969Y-73450997D01*
X84599060Y-73454902D01*
X84599055Y-73454902D01*
X84586742Y-73457317D01*
X84011365Y-73455787D01*
X83979173Y-73449295D01*
X83975611Y-73446901D01*
X83962333Y-73437978D01*
X83953071Y-73424036D01*
X83899148Y-73378727D01*
X83829288Y-73369764D01*
X83745208Y-73423483D01*
X83735872Y-73437376D01*
X83718972Y-73448603D01*
X83699063Y-73452508D01*
X83699058Y-73452508D01*
X83686745Y-73454923D01*
X83111368Y-73453393D01*
X83079176Y-73446901D01*
X83062336Y-73435584D01*
X83051109Y-73418684D01*
X83047204Y-73398775D01*
X83047204Y-73398770D01*
X83044789Y-73386457D01*
X83046319Y-72811080D01*
X83052811Y-72778888D01*
X83053555Y-72777781D01*
X83064128Y-72762048D01*
X83078070Y-72752786D01*
X83123379Y-72698863D01*
X83127027Y-72670424D01*
X83670052Y-72670424D01*
X83723771Y-72754504D01*
X83737664Y-72763840D01*
X83739254Y-72766234D01*
X83746925Y-72777781D01*
X83800849Y-72823091D01*
X83870709Y-72832054D01*
X83954789Y-72778335D01*
X83964125Y-72764442D01*
X83978066Y-72755181D01*
X84023374Y-72701259D01*
X84032338Y-72631399D01*
X83978619Y-72547318D01*
X83967392Y-72539773D01*
X83964727Y-72537982D01*
X83955464Y-72524039D01*
X83901544Y-72478731D01*
X83831684Y-72469767D01*
X83747602Y-72523486D01*
X83738266Y-72537379D01*
X83724325Y-72546640D01*
X83679015Y-72600564D01*
X83670052Y-72670424D01*
X83127027Y-72670424D01*
X83132342Y-72629003D01*
X83078623Y-72544923D01*
X83064730Y-72535587D01*
X83053503Y-72518687D01*
X83049598Y-72498778D01*
X83049598Y-72498773D01*
X83047183Y-72486460D01*
X83048713Y-71911083D01*
X83055205Y-71878891D01*
X83063708Y-71866239D01*
X83066522Y-71862051D01*
X83080860Y-71852526D01*
X83083420Y-71850825D01*
X83083421Y-71850825D01*
X83083422Y-71850824D01*
X83103331Y-71846919D01*
X83103336Y-71846919D01*
X83115649Y-71844504D01*
X83691026Y-71846034D01*
X83691026Y-71846034D01*
G37*
G36*
X86690787Y-69945834D02*
G01*
X86703086Y-69948312D01*
X86703091Y-69948312D01*
X86722981Y-69952319D01*
X86739823Y-69963633D01*
X86749087Y-69977573D01*
X86803020Y-70022872D01*
X86872881Y-70031822D01*
X86956950Y-69978088D01*
X86966285Y-69964192D01*
X86971883Y-69960472D01*
X86983182Y-69952962D01*
X87015404Y-69946635D01*
X87590785Y-69948057D01*
X87603084Y-69950535D01*
X87603089Y-69950535D01*
X87622979Y-69954542D01*
X87639821Y-69965856D01*
X87639823Y-69965858D01*
X87639822Y-69965858D01*
X87651051Y-69982753D01*
X87657378Y-70014975D01*
X87655956Y-70590356D01*
X87653478Y-70602655D01*
X87653478Y-70602660D01*
X87649471Y-70622550D01*
X87638157Y-70639392D01*
X87629964Y-70644837D01*
X87624216Y-70648657D01*
X87578918Y-70702590D01*
X87569969Y-70772452D01*
X87623704Y-70856520D01*
X87637597Y-70865853D01*
X87648827Y-70882750D01*
X87655154Y-70914972D01*
X87653732Y-71490353D01*
X87651254Y-71502652D01*
X87651254Y-71502657D01*
X87647247Y-71522547D01*
X87635933Y-71539389D01*
X87635931Y-71539390D01*
X87619036Y-71550619D01*
X87586814Y-71556946D01*
X87011433Y-71555524D01*
X86999134Y-71553046D01*
X86999129Y-71553046D01*
X86979239Y-71549039D01*
X86962397Y-71537725D01*
X86953132Y-71523784D01*
X86899199Y-71478486D01*
X86829337Y-71469537D01*
X86745270Y-71523272D01*
X86735936Y-71537166D01*
X86735935Y-71537167D01*
X86719039Y-71548396D01*
X86686817Y-71554723D01*
X86111436Y-71553301D01*
X86099137Y-71550823D01*
X86099132Y-71550823D01*
X86079242Y-71546816D01*
X86062400Y-71535502D01*
X86058680Y-71529904D01*
X86051170Y-71518605D01*
X86044843Y-71486383D01*
X86046265Y-70911002D01*
X86048743Y-70898703D01*
X86048743Y-70898698D01*
X86052750Y-70878808D01*
X86064064Y-70861966D01*
X86078005Y-70852701D01*
X86123303Y-70798768D01*
X86126958Y-70770229D01*
X86669971Y-70770229D01*
X86723706Y-70854296D01*
X86735123Y-70861966D01*
X86737600Y-70863630D01*
X86746865Y-70877571D01*
X86800798Y-70922869D01*
X86870660Y-70931818D01*
X86954727Y-70878083D01*
X86964061Y-70864189D01*
X86978002Y-70854924D01*
X87023300Y-70800991D01*
X87032249Y-70731129D01*
X86978514Y-70647061D01*
X86964622Y-70637729D01*
X86955357Y-70623788D01*
X86901424Y-70578489D01*
X86831563Y-70569539D01*
X86747494Y-70623273D01*
X86738159Y-70637169D01*
X86726789Y-70644725D01*
X86724218Y-70646434D01*
X86678920Y-70700367D01*
X86669971Y-70770229D01*
X86126958Y-70770229D01*
X86132252Y-70728906D01*
X86078517Y-70644839D01*
X86064623Y-70635505D01*
X86056836Y-70623788D01*
X86053393Y-70618608D01*
X86047066Y-70586386D01*
X86048488Y-70011005D01*
X86050966Y-69998706D01*
X86050966Y-69998701D01*
X86054973Y-69978811D01*
X86066287Y-69961969D01*
X86077461Y-69954543D01*
X86083184Y-69950739D01*
X86115406Y-69944412D01*
X86690787Y-69945834D01*
X86690787Y-69945834D01*
G37*
G36*
X80690787Y-69945834D02*
G01*
X80703086Y-69948312D01*
X80703091Y-69948312D01*
X80722981Y-69952319D01*
X80739823Y-69963633D01*
X80749087Y-69977573D01*
X80803020Y-70022872D01*
X80872881Y-70031822D01*
X80956950Y-69978088D01*
X80966285Y-69964192D01*
X80971883Y-69960472D01*
X80983182Y-69952962D01*
X81015404Y-69946635D01*
X81590785Y-69948057D01*
X81603084Y-69950535D01*
X81603089Y-69950535D01*
X81622979Y-69954542D01*
X81639821Y-69965856D01*
X81639823Y-69965858D01*
X81639822Y-69965858D01*
X81651051Y-69982753D01*
X81657378Y-70014975D01*
X81655956Y-70590356D01*
X81653478Y-70602655D01*
X81653478Y-70602660D01*
X81649471Y-70622550D01*
X81638157Y-70639392D01*
X81629964Y-70644837D01*
X81624216Y-70648657D01*
X81578918Y-70702590D01*
X81569969Y-70772452D01*
X81623704Y-70856520D01*
X81637597Y-70865853D01*
X81648827Y-70882750D01*
X81655154Y-70914972D01*
X81653732Y-71490353D01*
X81651254Y-71502652D01*
X81651254Y-71502657D01*
X81647247Y-71522547D01*
X81635933Y-71539389D01*
X81635931Y-71539390D01*
X81619036Y-71550619D01*
X81586814Y-71556946D01*
X81011433Y-71555524D01*
X80999134Y-71553046D01*
X80999129Y-71553046D01*
X80979239Y-71549039D01*
X80962397Y-71537725D01*
X80953132Y-71523784D01*
X80899199Y-71478486D01*
X80829337Y-71469537D01*
X80745270Y-71523272D01*
X80735936Y-71537166D01*
X80735935Y-71537167D01*
X80719039Y-71548396D01*
X80686817Y-71554723D01*
X80111436Y-71553301D01*
X80099137Y-71550823D01*
X80099132Y-71550823D01*
X80079242Y-71546816D01*
X80062400Y-71535502D01*
X80058680Y-71529904D01*
X80051170Y-71518605D01*
X80044843Y-71486383D01*
X80046265Y-70911002D01*
X80048743Y-70898703D01*
X80048743Y-70898698D01*
X80052750Y-70878808D01*
X80064064Y-70861966D01*
X80078005Y-70852701D01*
X80123303Y-70798768D01*
X80126958Y-70770229D01*
X80669971Y-70770229D01*
X80723706Y-70854296D01*
X80735123Y-70861966D01*
X80737600Y-70863630D01*
X80746865Y-70877571D01*
X80800798Y-70922869D01*
X80870660Y-70931818D01*
X80954727Y-70878083D01*
X80964061Y-70864189D01*
X80978002Y-70854924D01*
X81023300Y-70800991D01*
X81032249Y-70731129D01*
X80978514Y-70647061D01*
X80964622Y-70637729D01*
X80955357Y-70623788D01*
X80901424Y-70578489D01*
X80831563Y-70569539D01*
X80747494Y-70623273D01*
X80738159Y-70637169D01*
X80726789Y-70644725D01*
X80724218Y-70646434D01*
X80678920Y-70700367D01*
X80669971Y-70770229D01*
X80126958Y-70770229D01*
X80132252Y-70728906D01*
X80078517Y-70644839D01*
X80064623Y-70635505D01*
X80056836Y-70623788D01*
X80053393Y-70618608D01*
X80047066Y-70586386D01*
X80048488Y-70011005D01*
X80050966Y-69998706D01*
X80050966Y-69998701D01*
X80054973Y-69978811D01*
X80066287Y-69961969D01*
X80077461Y-69954543D01*
X80083184Y-69950739D01*
X80115406Y-69944412D01*
X80690787Y-69945834D01*
X80690787Y-69945834D01*
G37*
G36*
X83690787Y-69945834D02*
G01*
X83703086Y-69948312D01*
X83703091Y-69948312D01*
X83722981Y-69952319D01*
X83739823Y-69963633D01*
X83749087Y-69977573D01*
X83803020Y-70022872D01*
X83872881Y-70031822D01*
X83956950Y-69978088D01*
X83966285Y-69964192D01*
X83971883Y-69960472D01*
X83983182Y-69952962D01*
X84015404Y-69946635D01*
X84590785Y-69948057D01*
X84603084Y-69950535D01*
X84603089Y-69950535D01*
X84622979Y-69954542D01*
X84639821Y-69965856D01*
X84639823Y-69965858D01*
X84639822Y-69965858D01*
X84651051Y-69982753D01*
X84657378Y-70014975D01*
X84655956Y-70590356D01*
X84653478Y-70602655D01*
X84653478Y-70602660D01*
X84649471Y-70622550D01*
X84638157Y-70639392D01*
X84629964Y-70644837D01*
X84624216Y-70648657D01*
X84578918Y-70702590D01*
X84569969Y-70772452D01*
X84623704Y-70856520D01*
X84637597Y-70865853D01*
X84648827Y-70882750D01*
X84655154Y-70914972D01*
X84653732Y-71490353D01*
X84651254Y-71502652D01*
X84651254Y-71502657D01*
X84647247Y-71522547D01*
X84635933Y-71539389D01*
X84635931Y-71539390D01*
X84619036Y-71550619D01*
X84586814Y-71556946D01*
X84011433Y-71555524D01*
X83999134Y-71553046D01*
X83999129Y-71553046D01*
X83979239Y-71549039D01*
X83962397Y-71537725D01*
X83953132Y-71523784D01*
X83899199Y-71478486D01*
X83829337Y-71469537D01*
X83745270Y-71523272D01*
X83735936Y-71537166D01*
X83735935Y-71537167D01*
X83719039Y-71548396D01*
X83686817Y-71554723D01*
X83111436Y-71553301D01*
X83099137Y-71550823D01*
X83099132Y-71550823D01*
X83079242Y-71546816D01*
X83062400Y-71535502D01*
X83058680Y-71529904D01*
X83051170Y-71518605D01*
X83044843Y-71486383D01*
X83046265Y-70911002D01*
X83048743Y-70898703D01*
X83048743Y-70898698D01*
X83052750Y-70878808D01*
X83064064Y-70861966D01*
X83078005Y-70852701D01*
X83123303Y-70798768D01*
X83126958Y-70770229D01*
X83669971Y-70770229D01*
X83723706Y-70854296D01*
X83735123Y-70861966D01*
X83737600Y-70863630D01*
X83746865Y-70877571D01*
X83800798Y-70922869D01*
X83870660Y-70931818D01*
X83954727Y-70878083D01*
X83964061Y-70864189D01*
X83978002Y-70854924D01*
X84023300Y-70800991D01*
X84032249Y-70731129D01*
X83978514Y-70647061D01*
X83964622Y-70637729D01*
X83955357Y-70623788D01*
X83901424Y-70578489D01*
X83831563Y-70569539D01*
X83747494Y-70623273D01*
X83738159Y-70637169D01*
X83726789Y-70644725D01*
X83724218Y-70646434D01*
X83678920Y-70700367D01*
X83669971Y-70770229D01*
X83126958Y-70770229D01*
X83132252Y-70728906D01*
X83078517Y-70644839D01*
X83064623Y-70635505D01*
X83056836Y-70623788D01*
X83053393Y-70618608D01*
X83047066Y-70586386D01*
X83048488Y-70011005D01*
X83050966Y-69998706D01*
X83050966Y-69998701D01*
X83054973Y-69978811D01*
X83066287Y-69961969D01*
X83077461Y-69954543D01*
X83083184Y-69950739D01*
X83115406Y-69944412D01*
X83690787Y-69945834D01*
X83690787Y-69945834D01*
G37*
G36*
X86690548Y-68045630D02*
G01*
X86702853Y-68048107D01*
X86702854Y-68048107D01*
X86722744Y-68052111D01*
X86737302Y-68061886D01*
X86739589Y-68063422D01*
X86748856Y-68077359D01*
X86802797Y-68122648D01*
X86872660Y-68131585D01*
X86956721Y-68077832D01*
X86957039Y-68077359D01*
X86966050Y-68063938D01*
X86982945Y-68052705D01*
X86982946Y-68052705D01*
X86982947Y-68052704D01*
X87015167Y-68046371D01*
X87590546Y-68047683D01*
X87602851Y-68050160D01*
X87602852Y-68050160D01*
X87615489Y-68052704D01*
X87622742Y-68054164D01*
X87639585Y-68065473D01*
X87650820Y-68082371D01*
X87657153Y-68114591D01*
X87655841Y-68689970D01*
X87649360Y-68722166D01*
X87639082Y-68737474D01*
X87638050Y-68739010D01*
X87624113Y-68748276D01*
X87578824Y-68802217D01*
X87569887Y-68872080D01*
X87623640Y-68956142D01*
X87637534Y-68965471D01*
X87647403Y-68980314D01*
X87648768Y-68982368D01*
X87655101Y-69014588D01*
X87653789Y-69589967D01*
X87647308Y-69622163D01*
X87637030Y-69637471D01*
X87635998Y-69639007D01*
X87621297Y-69648781D01*
X87619101Y-69650241D01*
X87586881Y-69656574D01*
X87011502Y-69655262D01*
X86999197Y-69652785D01*
X86999196Y-69652785D01*
X86979306Y-69648781D01*
X86962462Y-69637471D01*
X86962461Y-69637470D01*
X86953194Y-69623533D01*
X86899253Y-69578244D01*
X86829390Y-69569307D01*
X86745330Y-69623060D01*
X86736000Y-69636955D01*
X86721299Y-69646729D01*
X86719103Y-69648189D01*
X86686883Y-69654522D01*
X86111504Y-69653210D01*
X86099199Y-69650733D01*
X86099198Y-69650733D01*
X86079308Y-69646729D01*
X86062465Y-69635420D01*
X86054562Y-69623533D01*
X86051231Y-69618524D01*
X86051231Y-69618523D01*
X86051230Y-69618522D01*
X86044897Y-69586302D01*
X86046209Y-69010923D01*
X86052690Y-68978727D01*
X86064001Y-68961882D01*
X86077938Y-68952615D01*
X86123227Y-68898674D01*
X86126891Y-68870029D01*
X86669888Y-68870029D01*
X86723641Y-68954089D01*
X86737536Y-68963419D01*
X86737537Y-68963421D01*
X86737539Y-68963422D01*
X86746804Y-68977357D01*
X86800745Y-69022646D01*
X86870608Y-69031583D01*
X86954668Y-68977830D01*
X86963998Y-68963935D01*
X86977936Y-68954668D01*
X87023224Y-68900728D01*
X87032161Y-68830865D01*
X86978408Y-68746803D01*
X86964514Y-68737474D01*
X86964512Y-68737472D01*
X86955246Y-68723536D01*
X86901305Y-68678247D01*
X86831442Y-68669310D01*
X86747381Y-68723063D01*
X86738052Y-68736957D01*
X86738050Y-68736959D01*
X86724114Y-68746225D01*
X86678825Y-68800166D01*
X86669888Y-68870029D01*
X86126891Y-68870029D01*
X86132164Y-68828811D01*
X86078411Y-68744751D01*
X86064516Y-68735421D01*
X86053283Y-68718526D01*
X86053283Y-68718525D01*
X86053282Y-68718524D01*
X86046949Y-68686304D01*
X86048261Y-68110925D01*
X86054742Y-68078729D01*
X86066051Y-68061886D01*
X86066052Y-68061886D01*
X86066052Y-68061885D01*
X86082947Y-68050652D01*
X86082948Y-68050652D01*
X86082949Y-68050651D01*
X86115169Y-68044318D01*
X86690548Y-68045630D01*
X86690548Y-68045630D01*
G37*
G36*
X80690548Y-68045630D02*
G01*
X80702853Y-68048107D01*
X80702854Y-68048107D01*
X80722744Y-68052111D01*
X80737302Y-68061886D01*
X80739589Y-68063422D01*
X80748856Y-68077359D01*
X80802797Y-68122648D01*
X80872660Y-68131585D01*
X80956721Y-68077832D01*
X80957039Y-68077359D01*
X80966050Y-68063938D01*
X80982945Y-68052705D01*
X80982946Y-68052705D01*
X80982947Y-68052704D01*
X81015167Y-68046371D01*
X81590546Y-68047683D01*
X81602851Y-68050160D01*
X81602852Y-68050160D01*
X81615489Y-68052704D01*
X81622742Y-68054164D01*
X81639585Y-68065473D01*
X81650820Y-68082371D01*
X81657153Y-68114591D01*
X81655841Y-68689970D01*
X81649360Y-68722166D01*
X81639082Y-68737474D01*
X81638050Y-68739010D01*
X81624113Y-68748276D01*
X81578824Y-68802217D01*
X81569887Y-68872080D01*
X81623640Y-68956142D01*
X81637534Y-68965471D01*
X81647403Y-68980314D01*
X81648768Y-68982368D01*
X81655101Y-69014588D01*
X81653789Y-69589967D01*
X81647308Y-69622163D01*
X81637030Y-69637471D01*
X81635998Y-69639007D01*
X81621297Y-69648781D01*
X81619101Y-69650241D01*
X81586881Y-69656574D01*
X81011502Y-69655262D01*
X80999197Y-69652785D01*
X80999196Y-69652785D01*
X80979306Y-69648781D01*
X80962462Y-69637471D01*
X80962461Y-69637470D01*
X80953194Y-69623533D01*
X80899253Y-69578244D01*
X80829390Y-69569307D01*
X80745330Y-69623060D01*
X80736000Y-69636955D01*
X80721299Y-69646729D01*
X80719103Y-69648189D01*
X80686883Y-69654522D01*
X80111504Y-69653210D01*
X80099199Y-69650733D01*
X80099198Y-69650733D01*
X80079308Y-69646729D01*
X80062465Y-69635420D01*
X80054562Y-69623533D01*
X80051231Y-69618524D01*
X80051231Y-69618523D01*
X80051230Y-69618522D01*
X80044897Y-69586302D01*
X80046209Y-69010923D01*
X80052690Y-68978727D01*
X80064001Y-68961882D01*
X80077938Y-68952615D01*
X80123227Y-68898674D01*
X80126891Y-68870029D01*
X80669888Y-68870029D01*
X80723641Y-68954089D01*
X80737536Y-68963419D01*
X80737537Y-68963421D01*
X80737539Y-68963422D01*
X80746804Y-68977357D01*
X80800745Y-69022646D01*
X80870608Y-69031583D01*
X80954668Y-68977830D01*
X80963998Y-68963935D01*
X80977936Y-68954668D01*
X81023224Y-68900728D01*
X81032161Y-68830865D01*
X80978408Y-68746803D01*
X80964514Y-68737474D01*
X80964512Y-68737472D01*
X80955246Y-68723536D01*
X80901305Y-68678247D01*
X80831442Y-68669310D01*
X80747381Y-68723063D01*
X80738052Y-68736957D01*
X80738050Y-68736959D01*
X80724114Y-68746225D01*
X80678825Y-68800166D01*
X80669888Y-68870029D01*
X80126891Y-68870029D01*
X80132164Y-68828811D01*
X80078411Y-68744751D01*
X80064516Y-68735421D01*
X80053283Y-68718526D01*
X80053283Y-68718525D01*
X80053282Y-68718524D01*
X80046949Y-68686304D01*
X80048261Y-68110925D01*
X80054742Y-68078729D01*
X80066051Y-68061886D01*
X80066052Y-68061886D01*
X80066052Y-68061885D01*
X80082947Y-68050652D01*
X80082948Y-68050652D01*
X80082949Y-68050651D01*
X80115169Y-68044318D01*
X80690548Y-68045630D01*
X80690548Y-68045630D01*
G37*
G36*
X83690548Y-68045630D02*
G01*
X83702853Y-68048107D01*
X83702854Y-68048107D01*
X83722744Y-68052111D01*
X83737302Y-68061886D01*
X83739589Y-68063422D01*
X83748856Y-68077359D01*
X83802797Y-68122648D01*
X83872660Y-68131585D01*
X83956721Y-68077832D01*
X83957039Y-68077359D01*
X83966050Y-68063938D01*
X83982945Y-68052705D01*
X83982946Y-68052705D01*
X83982947Y-68052704D01*
X84015167Y-68046371D01*
X84590546Y-68047683D01*
X84602851Y-68050160D01*
X84602852Y-68050160D01*
X84615489Y-68052704D01*
X84622742Y-68054164D01*
X84639585Y-68065473D01*
X84650820Y-68082371D01*
X84657153Y-68114591D01*
X84655841Y-68689970D01*
X84649360Y-68722166D01*
X84639082Y-68737474D01*
X84638050Y-68739010D01*
X84624113Y-68748276D01*
X84578824Y-68802217D01*
X84569887Y-68872080D01*
X84623640Y-68956142D01*
X84637534Y-68965471D01*
X84647403Y-68980314D01*
X84648768Y-68982368D01*
X84655101Y-69014588D01*
X84653789Y-69589967D01*
X84647308Y-69622163D01*
X84637030Y-69637471D01*
X84635998Y-69639007D01*
X84621297Y-69648781D01*
X84619101Y-69650241D01*
X84586881Y-69656574D01*
X84011502Y-69655262D01*
X83999197Y-69652785D01*
X83999196Y-69652785D01*
X83979306Y-69648781D01*
X83962462Y-69637471D01*
X83962461Y-69637470D01*
X83953194Y-69623533D01*
X83899253Y-69578244D01*
X83829390Y-69569307D01*
X83745330Y-69623060D01*
X83736000Y-69636955D01*
X83721299Y-69646729D01*
X83719103Y-69648189D01*
X83686883Y-69654522D01*
X83111504Y-69653210D01*
X83099199Y-69650733D01*
X83099198Y-69650733D01*
X83079308Y-69646729D01*
X83062465Y-69635420D01*
X83054562Y-69623533D01*
X83051231Y-69618524D01*
X83051231Y-69618523D01*
X83051230Y-69618522D01*
X83044897Y-69586302D01*
X83046209Y-69010923D01*
X83052690Y-68978727D01*
X83064001Y-68961882D01*
X83077938Y-68952615D01*
X83123227Y-68898674D01*
X83126891Y-68870029D01*
X83669888Y-68870029D01*
X83723641Y-68954089D01*
X83737536Y-68963419D01*
X83737537Y-68963421D01*
X83737539Y-68963422D01*
X83746804Y-68977357D01*
X83800745Y-69022646D01*
X83870608Y-69031583D01*
X83954668Y-68977830D01*
X83963998Y-68963935D01*
X83977936Y-68954668D01*
X84023224Y-68900728D01*
X84032161Y-68830865D01*
X83978408Y-68746803D01*
X83964514Y-68737474D01*
X83964512Y-68737472D01*
X83955246Y-68723536D01*
X83901305Y-68678247D01*
X83831442Y-68669310D01*
X83747381Y-68723063D01*
X83738052Y-68736957D01*
X83738050Y-68736959D01*
X83724114Y-68746225D01*
X83678825Y-68800166D01*
X83669888Y-68870029D01*
X83126891Y-68870029D01*
X83132164Y-68828811D01*
X83078411Y-68744751D01*
X83064516Y-68735421D01*
X83053283Y-68718526D01*
X83053283Y-68718525D01*
X83053282Y-68718524D01*
X83046949Y-68686304D01*
X83048261Y-68110925D01*
X83054742Y-68078729D01*
X83066051Y-68061886D01*
X83066052Y-68061886D01*
X83066052Y-68061885D01*
X83082947Y-68050652D01*
X83082948Y-68050652D01*
X83082949Y-68050651D01*
X83115169Y-68044318D01*
X83690548Y-68045630D01*
X83690548Y-68045630D01*
G37*
G36*
X83690311Y-66145428D02*
G01*
X83722507Y-66151902D01*
X83739351Y-66163208D01*
X83739353Y-66163210D01*
X83748622Y-66177146D01*
X83802572Y-66222424D01*
X83872437Y-66231348D01*
X83956487Y-66177581D01*
X83965815Y-66163683D01*
X83968643Y-66161802D01*
X83982707Y-66152446D01*
X84014931Y-66146107D01*
X84590309Y-66147309D01*
X84622505Y-66153783D01*
X84639351Y-66165090D01*
X84650588Y-66181983D01*
X84656927Y-66214207D01*
X84655725Y-66789585D01*
X84649251Y-66821781D01*
X84637945Y-66838625D01*
X84637943Y-66838627D01*
X84626835Y-66846015D01*
X84624007Y-66847896D01*
X84578729Y-66901846D01*
X84569805Y-66971711D01*
X84623572Y-67055761D01*
X84637470Y-67065089D01*
X84637472Y-67065091D01*
X84637471Y-67065091D01*
X84648707Y-67081981D01*
X84655046Y-67114205D01*
X84653844Y-67689583D01*
X84647370Y-67721779D01*
X84636063Y-67738625D01*
X84619170Y-67749862D01*
X84586946Y-67756201D01*
X84011568Y-67754999D01*
X83979372Y-67748525D01*
X83962528Y-67737219D01*
X83962526Y-67737217D01*
X83953257Y-67723281D01*
X83899307Y-67678003D01*
X83829442Y-67669079D01*
X83745392Y-67722846D01*
X83736064Y-67736744D01*
X83733267Y-67738605D01*
X83719172Y-67747981D01*
X83686948Y-67754320D01*
X83111570Y-67753118D01*
X83079374Y-67746644D01*
X83062528Y-67735337D01*
X83051291Y-67718444D01*
X83044952Y-67686220D01*
X83046154Y-67110842D01*
X83052628Y-67078646D01*
X83063934Y-67061802D01*
X83063936Y-67061800D01*
X83077872Y-67052531D01*
X83123150Y-66998581D01*
X83126822Y-66969830D01*
X83669807Y-66969830D01*
X83723574Y-67053880D01*
X83737472Y-67063208D01*
X83738724Y-67065091D01*
X83746741Y-67077144D01*
X83800691Y-67122422D01*
X83870556Y-67131346D01*
X83954606Y-67077579D01*
X83963934Y-67063681D01*
X83977870Y-67054412D01*
X84023148Y-67000462D01*
X84032072Y-66930597D01*
X83978305Y-66846547D01*
X83964407Y-66837219D01*
X83955138Y-66823283D01*
X83901188Y-66778005D01*
X83831323Y-66769081D01*
X83747273Y-66822848D01*
X83737945Y-66836746D01*
X83726039Y-66844665D01*
X83724009Y-66846015D01*
X83678731Y-66899965D01*
X83669807Y-66969830D01*
X83126822Y-66969830D01*
X83132074Y-66928716D01*
X83078307Y-66844666D01*
X83064409Y-66835338D01*
X83062548Y-66832541D01*
X83053172Y-66818446D01*
X83046833Y-66786222D01*
X83048035Y-66210844D01*
X83054509Y-66178648D01*
X83065816Y-66161802D01*
X83082709Y-66150565D01*
X83114933Y-66144226D01*
X83690311Y-66145428D01*
X83690311Y-66145428D01*
G37*
G36*
X86690311Y-66145428D02*
G01*
X86722507Y-66151902D01*
X86739351Y-66163208D01*
X86739353Y-66163210D01*
X86748622Y-66177146D01*
X86802572Y-66222424D01*
X86872437Y-66231348D01*
X86956487Y-66177581D01*
X86965815Y-66163683D01*
X86968643Y-66161802D01*
X86982707Y-66152446D01*
X87014931Y-66146107D01*
X87590309Y-66147309D01*
X87622505Y-66153783D01*
X87639351Y-66165090D01*
X87650588Y-66181983D01*
X87656927Y-66214207D01*
X87655725Y-66789585D01*
X87649251Y-66821781D01*
X87637945Y-66838625D01*
X87637943Y-66838627D01*
X87626835Y-66846015D01*
X87624007Y-66847896D01*
X87578729Y-66901846D01*
X87569805Y-66971711D01*
X87623572Y-67055761D01*
X87637470Y-67065089D01*
X87637472Y-67065091D01*
X87637471Y-67065091D01*
X87648707Y-67081981D01*
X87655046Y-67114205D01*
X87653844Y-67689583D01*
X87647370Y-67721779D01*
X87636063Y-67738625D01*
X87619170Y-67749862D01*
X87586946Y-67756201D01*
X87011568Y-67754999D01*
X86979372Y-67748525D01*
X86962528Y-67737219D01*
X86962526Y-67737217D01*
X86953257Y-67723281D01*
X86899307Y-67678003D01*
X86829442Y-67669079D01*
X86745392Y-67722846D01*
X86736064Y-67736744D01*
X86733267Y-67738605D01*
X86719172Y-67747981D01*
X86686948Y-67754320D01*
X86111570Y-67753118D01*
X86079374Y-67746644D01*
X86062528Y-67735337D01*
X86051291Y-67718444D01*
X86044952Y-67686220D01*
X86046154Y-67110842D01*
X86052628Y-67078646D01*
X86063934Y-67061802D01*
X86063936Y-67061800D01*
X86077872Y-67052531D01*
X86123150Y-66998581D01*
X86126822Y-66969830D01*
X86669807Y-66969830D01*
X86723574Y-67053880D01*
X86737472Y-67063208D01*
X86738724Y-67065091D01*
X86746741Y-67077144D01*
X86800691Y-67122422D01*
X86870556Y-67131346D01*
X86954606Y-67077579D01*
X86963934Y-67063681D01*
X86977870Y-67054412D01*
X87023148Y-67000462D01*
X87032072Y-66930597D01*
X86978305Y-66846547D01*
X86964407Y-66837219D01*
X86955138Y-66823283D01*
X86901188Y-66778005D01*
X86831323Y-66769081D01*
X86747273Y-66822848D01*
X86737945Y-66836746D01*
X86726039Y-66844665D01*
X86724009Y-66846015D01*
X86678731Y-66899965D01*
X86669807Y-66969830D01*
X86126822Y-66969830D01*
X86132074Y-66928716D01*
X86078307Y-66844666D01*
X86064409Y-66835338D01*
X86062548Y-66832541D01*
X86053172Y-66818446D01*
X86046833Y-66786222D01*
X86048035Y-66210844D01*
X86054509Y-66178648D01*
X86065816Y-66161802D01*
X86082709Y-66150565D01*
X86114933Y-66144226D01*
X86690311Y-66145428D01*
X86690311Y-66145428D01*
G37*
G36*
X80690311Y-66145428D02*
G01*
X80722507Y-66151902D01*
X80739351Y-66163208D01*
X80739353Y-66163210D01*
X80748622Y-66177146D01*
X80802572Y-66222424D01*
X80872437Y-66231348D01*
X80956487Y-66177581D01*
X80965815Y-66163683D01*
X80968643Y-66161802D01*
X80982707Y-66152446D01*
X81014931Y-66146107D01*
X81590309Y-66147309D01*
X81622505Y-66153783D01*
X81639351Y-66165090D01*
X81650588Y-66181983D01*
X81656927Y-66214207D01*
X81655725Y-66789585D01*
X81649251Y-66821781D01*
X81637945Y-66838625D01*
X81637943Y-66838627D01*
X81626835Y-66846015D01*
X81624007Y-66847896D01*
X81578729Y-66901846D01*
X81569805Y-66971711D01*
X81623572Y-67055761D01*
X81637470Y-67065089D01*
X81637472Y-67065091D01*
X81637471Y-67065091D01*
X81648707Y-67081981D01*
X81655046Y-67114205D01*
X81653844Y-67689583D01*
X81647370Y-67721779D01*
X81636063Y-67738625D01*
X81619170Y-67749862D01*
X81586946Y-67756201D01*
X81011568Y-67754999D01*
X80979372Y-67748525D01*
X80962528Y-67737219D01*
X80962526Y-67737217D01*
X80953257Y-67723281D01*
X80899307Y-67678003D01*
X80829442Y-67669079D01*
X80745392Y-67722846D01*
X80736064Y-67736744D01*
X80733267Y-67738605D01*
X80719172Y-67747981D01*
X80686948Y-67754320D01*
X80111570Y-67753118D01*
X80079374Y-67746644D01*
X80062528Y-67735337D01*
X80051291Y-67718444D01*
X80044952Y-67686220D01*
X80046154Y-67110842D01*
X80052628Y-67078646D01*
X80063934Y-67061802D01*
X80063936Y-67061800D01*
X80077872Y-67052531D01*
X80123150Y-66998581D01*
X80126822Y-66969830D01*
X80669807Y-66969830D01*
X80723574Y-67053880D01*
X80737472Y-67063208D01*
X80738724Y-67065091D01*
X80746741Y-67077144D01*
X80800691Y-67122422D01*
X80870556Y-67131346D01*
X80954606Y-67077579D01*
X80963934Y-67063681D01*
X80977870Y-67054412D01*
X81023148Y-67000462D01*
X81032072Y-66930597D01*
X80978305Y-66846547D01*
X80964407Y-66837219D01*
X80955138Y-66823283D01*
X80901188Y-66778005D01*
X80831323Y-66769081D01*
X80747273Y-66822848D01*
X80737945Y-66836746D01*
X80726039Y-66844665D01*
X80724009Y-66846015D01*
X80678731Y-66899965D01*
X80669807Y-66969830D01*
X80126822Y-66969830D01*
X80132074Y-66928716D01*
X80078307Y-66844666D01*
X80064409Y-66835338D01*
X80062548Y-66832541D01*
X80053172Y-66818446D01*
X80046833Y-66786222D01*
X80048035Y-66210844D01*
X80054509Y-66178648D01*
X80065816Y-66161802D01*
X80082709Y-66150565D01*
X80114933Y-66144226D01*
X80690311Y-66145428D01*
X80690311Y-66145428D01*
G37*
G36*
X83690071Y-64245225D02*
G01*
X83702378Y-64247697D01*
X83702379Y-64247697D01*
X83705211Y-64248266D01*
X83722272Y-64251693D01*
X83737210Y-64261716D01*
X83739119Y-64262997D01*
X83748391Y-64276931D01*
X83802349Y-64322199D01*
X83872215Y-64331109D01*
X83956256Y-64277325D01*
X83965582Y-64263425D01*
X83982472Y-64252186D01*
X84014692Y-64245840D01*
X84590070Y-64246935D01*
X84602377Y-64249407D01*
X84602378Y-64249407D01*
X84607699Y-64250476D01*
X84622271Y-64253403D01*
X84639119Y-64264707D01*
X84650358Y-64281598D01*
X84656704Y-64313818D01*
X84655609Y-64889196D01*
X84649141Y-64921397D01*
X84638696Y-64936964D01*
X84637837Y-64938244D01*
X84623903Y-64947516D01*
X84578635Y-65001475D01*
X84569726Y-65071342D01*
X84623509Y-65155380D01*
X84637408Y-65164705D01*
X84648647Y-65181596D01*
X84654993Y-65213816D01*
X84653898Y-65789194D01*
X84647430Y-65821395D01*
X84636126Y-65838243D01*
X84619235Y-65849482D01*
X84587015Y-65855828D01*
X84011637Y-65854733D01*
X83999330Y-65852261D01*
X83999329Y-65852261D01*
X83990817Y-65850551D01*
X83979436Y-65848265D01*
X83962589Y-65836962D01*
X83953319Y-65823030D01*
X83899361Y-65777760D01*
X83829494Y-65768850D01*
X83745454Y-65822632D01*
X83736127Y-65836533D01*
X83719237Y-65847772D01*
X83687017Y-65854118D01*
X83111639Y-65853023D01*
X83099332Y-65850551D01*
X83099331Y-65850551D01*
X83092173Y-65849113D01*
X83079438Y-65846555D01*
X83062590Y-65835251D01*
X83051351Y-65818360D01*
X83045005Y-65786140D01*
X83046100Y-65210762D01*
X83052568Y-65178561D01*
X83063871Y-65161714D01*
X83075962Y-65153669D01*
X83077804Y-65152443D01*
X83123073Y-65098486D01*
X83126753Y-65069629D01*
X83669727Y-65069629D01*
X83723509Y-65153669D01*
X83737409Y-65162995D01*
X83746679Y-65176926D01*
X83800637Y-65222196D01*
X83870504Y-65231106D01*
X83954544Y-65177324D01*
X83963011Y-65164705D01*
X83963870Y-65163424D01*
X83977805Y-65154151D01*
X84023072Y-65100193D01*
X84031981Y-65030326D01*
X83978198Y-64946288D01*
X83964301Y-64936964D01*
X83963162Y-64935253D01*
X83955028Y-64923029D01*
X83901070Y-64877761D01*
X83831204Y-64868851D01*
X83747163Y-64922635D01*
X83737838Y-64936534D01*
X83723907Y-64945804D01*
X83678637Y-64999762D01*
X83669727Y-65069629D01*
X83126753Y-65069629D01*
X83131983Y-65028619D01*
X83078201Y-64944579D01*
X83068758Y-64938243D01*
X83064301Y-64935253D01*
X83053061Y-64918362D01*
X83049741Y-64901504D01*
X83046715Y-64886142D01*
X83047810Y-64310764D01*
X83054278Y-64278563D01*
X83065582Y-64261715D01*
X83082473Y-64250476D01*
X83114693Y-64244130D01*
X83690071Y-64245225D01*
X83690071Y-64245225D01*
G37*
G36*
X86690071Y-64245225D02*
G01*
X86702378Y-64247697D01*
X86702379Y-64247697D01*
X86705211Y-64248266D01*
X86722272Y-64251693D01*
X86737210Y-64261716D01*
X86739119Y-64262997D01*
X86748391Y-64276931D01*
X86802349Y-64322199D01*
X86872215Y-64331109D01*
X86956256Y-64277325D01*
X86965582Y-64263425D01*
X86982472Y-64252186D01*
X87014692Y-64245840D01*
X87590070Y-64246935D01*
X87602377Y-64249407D01*
X87602378Y-64249407D01*
X87607699Y-64250476D01*
X87622271Y-64253403D01*
X87639119Y-64264707D01*
X87650358Y-64281598D01*
X87656704Y-64313818D01*
X87655609Y-64889196D01*
X87649141Y-64921397D01*
X87638696Y-64936964D01*
X87637837Y-64938244D01*
X87623903Y-64947516D01*
X87578635Y-65001475D01*
X87569726Y-65071342D01*
X87623509Y-65155380D01*
X87637408Y-65164705D01*
X87648647Y-65181596D01*
X87654993Y-65213816D01*
X87653898Y-65789194D01*
X87647430Y-65821395D01*
X87636126Y-65838243D01*
X87619235Y-65849482D01*
X87587015Y-65855828D01*
X87011637Y-65854733D01*
X86999330Y-65852261D01*
X86999329Y-65852261D01*
X86990817Y-65850551D01*
X86979436Y-65848265D01*
X86962589Y-65836962D01*
X86953319Y-65823030D01*
X86899361Y-65777760D01*
X86829494Y-65768850D01*
X86745454Y-65822632D01*
X86736127Y-65836533D01*
X86719237Y-65847772D01*
X86687017Y-65854118D01*
X86111639Y-65853023D01*
X86099332Y-65850551D01*
X86099331Y-65850551D01*
X86092173Y-65849113D01*
X86079438Y-65846555D01*
X86062590Y-65835251D01*
X86051351Y-65818360D01*
X86045005Y-65786140D01*
X86046100Y-65210762D01*
X86052568Y-65178561D01*
X86063871Y-65161714D01*
X86075962Y-65153669D01*
X86077804Y-65152443D01*
X86123073Y-65098486D01*
X86126753Y-65069629D01*
X86669727Y-65069629D01*
X86723509Y-65153669D01*
X86737409Y-65162995D01*
X86746679Y-65176926D01*
X86800637Y-65222196D01*
X86870504Y-65231106D01*
X86954544Y-65177324D01*
X86963011Y-65164705D01*
X86963870Y-65163424D01*
X86977805Y-65154151D01*
X87023072Y-65100193D01*
X87031981Y-65030326D01*
X86978198Y-64946288D01*
X86964301Y-64936964D01*
X86963162Y-64935253D01*
X86955028Y-64923029D01*
X86901070Y-64877761D01*
X86831204Y-64868851D01*
X86747163Y-64922635D01*
X86737838Y-64936534D01*
X86723907Y-64945804D01*
X86678637Y-64999762D01*
X86669727Y-65069629D01*
X86126753Y-65069629D01*
X86131983Y-65028619D01*
X86078201Y-64944579D01*
X86068758Y-64938243D01*
X86064301Y-64935253D01*
X86053061Y-64918362D01*
X86049741Y-64901504D01*
X86046715Y-64886142D01*
X86047810Y-64310764D01*
X86054278Y-64278563D01*
X86065582Y-64261715D01*
X86082473Y-64250476D01*
X86114693Y-64244130D01*
X86690071Y-64245225D01*
X86690071Y-64245225D01*
G37*
G36*
X80690071Y-64245225D02*
G01*
X80702378Y-64247697D01*
X80702379Y-64247697D01*
X80705211Y-64248266D01*
X80722272Y-64251693D01*
X80737210Y-64261716D01*
X80739119Y-64262997D01*
X80748391Y-64276931D01*
X80802349Y-64322199D01*
X80872215Y-64331109D01*
X80956256Y-64277325D01*
X80965582Y-64263425D01*
X80982472Y-64252186D01*
X81014692Y-64245840D01*
X81590070Y-64246935D01*
X81602377Y-64249407D01*
X81602378Y-64249407D01*
X81607699Y-64250476D01*
X81622271Y-64253403D01*
X81639119Y-64264707D01*
X81650358Y-64281598D01*
X81656704Y-64313818D01*
X81655609Y-64889196D01*
X81649141Y-64921397D01*
X81638696Y-64936964D01*
X81637837Y-64938244D01*
X81623903Y-64947516D01*
X81578635Y-65001475D01*
X81569726Y-65071342D01*
X81623509Y-65155380D01*
X81637408Y-65164705D01*
X81648647Y-65181596D01*
X81654993Y-65213816D01*
X81653898Y-65789194D01*
X81647430Y-65821395D01*
X81636126Y-65838243D01*
X81619235Y-65849482D01*
X81587015Y-65855828D01*
X81011637Y-65854733D01*
X80999330Y-65852261D01*
X80999329Y-65852261D01*
X80990817Y-65850551D01*
X80979436Y-65848265D01*
X80962589Y-65836962D01*
X80953319Y-65823030D01*
X80899361Y-65777760D01*
X80829494Y-65768850D01*
X80745454Y-65822632D01*
X80736127Y-65836533D01*
X80719237Y-65847772D01*
X80687017Y-65854118D01*
X80111639Y-65853023D01*
X80099332Y-65850551D01*
X80099331Y-65850551D01*
X80092173Y-65849113D01*
X80079438Y-65846555D01*
X80062590Y-65835251D01*
X80051351Y-65818360D01*
X80045005Y-65786140D01*
X80046100Y-65210762D01*
X80052568Y-65178561D01*
X80063871Y-65161714D01*
X80075962Y-65153669D01*
X80077804Y-65152443D01*
X80123073Y-65098486D01*
X80126753Y-65069629D01*
X80669727Y-65069629D01*
X80723509Y-65153669D01*
X80737409Y-65162995D01*
X80746679Y-65176926D01*
X80800637Y-65222196D01*
X80870504Y-65231106D01*
X80954544Y-65177324D01*
X80963011Y-65164705D01*
X80963870Y-65163424D01*
X80977805Y-65154151D01*
X81023072Y-65100193D01*
X81031981Y-65030326D01*
X80978198Y-64946288D01*
X80964301Y-64936964D01*
X80963162Y-64935253D01*
X80955028Y-64923029D01*
X80901070Y-64877761D01*
X80831204Y-64868851D01*
X80747163Y-64922635D01*
X80737838Y-64936534D01*
X80723907Y-64945804D01*
X80678637Y-64999762D01*
X80669727Y-65069629D01*
X80126753Y-65069629D01*
X80131983Y-65028619D01*
X80078201Y-64944579D01*
X80068758Y-64938243D01*
X80064301Y-64935253D01*
X80053061Y-64918362D01*
X80049741Y-64901504D01*
X80046715Y-64886142D01*
X80047810Y-64310764D01*
X80054278Y-64278563D01*
X80065582Y-64261715D01*
X80082473Y-64250476D01*
X80114693Y-64244130D01*
X80690071Y-64245225D01*
X80690071Y-64245225D01*
G37*
G36*
X80689836Y-62345020D02*
G01*
X80722032Y-62351481D01*
X80730459Y-62357133D01*
X80737165Y-62361630D01*
X80738885Y-62362784D01*
X80748159Y-62376715D01*
X80802126Y-62421974D01*
X80871994Y-62430870D01*
X80956024Y-62377070D01*
X80956866Y-62375815D01*
X80965346Y-62363170D01*
X80982235Y-62351927D01*
X80984492Y-62351482D01*
X81014456Y-62345575D01*
X81589835Y-62346560D01*
X81622031Y-62353021D01*
X81622033Y-62353022D01*
X81622032Y-62353022D01*
X81638883Y-62364323D01*
X81647132Y-62376715D01*
X81650126Y-62381212D01*
X81656478Y-62413433D01*
X81655493Y-62988812D01*
X81649032Y-63021008D01*
X81649031Y-63021009D01*
X81637730Y-63037860D01*
X81627772Y-63044489D01*
X81623799Y-63047134D01*
X81578541Y-63101102D01*
X81569645Y-63170970D01*
X81623444Y-63254998D01*
X81637343Y-63264319D01*
X81648587Y-63281210D01*
X81654939Y-63313431D01*
X81653954Y-63888810D01*
X81647493Y-63921006D01*
X81644693Y-63925181D01*
X81636191Y-63937858D01*
X81623259Y-63946467D01*
X81619302Y-63949101D01*
X81587081Y-63955453D01*
X81011702Y-63954468D01*
X80979506Y-63948007D01*
X80971079Y-63942355D01*
X80962654Y-63936705D01*
X80961629Y-63935166D01*
X80953378Y-63922772D01*
X80899411Y-63877515D01*
X80829542Y-63868619D01*
X80745514Y-63922419D01*
X80736192Y-63936319D01*
X80720948Y-63946467D01*
X80719303Y-63947562D01*
X80687082Y-63953914D01*
X80111703Y-63952929D01*
X80079507Y-63946468D01*
X80075332Y-63943668D01*
X80062655Y-63935166D01*
X80051412Y-63918277D01*
X80047791Y-63899910D01*
X80045060Y-63886056D01*
X80046045Y-63310677D01*
X80052506Y-63278481D01*
X80063809Y-63261628D01*
X80077741Y-63252353D01*
X80122998Y-63198386D01*
X80126684Y-63169432D01*
X80669645Y-63169432D01*
X80723445Y-63253460D01*
X80735626Y-63261629D01*
X80737346Y-63262783D01*
X80746621Y-63276715D01*
X80800588Y-63321972D01*
X80870457Y-63330868D01*
X80954485Y-63277068D01*
X80963807Y-63263168D01*
X80977738Y-63253894D01*
X81022996Y-63199926D01*
X81031892Y-63130058D01*
X80978093Y-63046030D01*
X80964193Y-63036708D01*
X80954918Y-63022775D01*
X80900951Y-62977516D01*
X80831083Y-62968620D01*
X80747053Y-63022420D01*
X80737730Y-63036321D01*
X80723798Y-63045596D01*
X80678541Y-63099563D01*
X80669645Y-63169432D01*
X80126684Y-63169432D01*
X80131894Y-63128517D01*
X80078094Y-63044489D01*
X80068210Y-63037860D01*
X80064194Y-63035167D01*
X80052951Y-63018278D01*
X80049568Y-63001117D01*
X80046599Y-62986057D01*
X80047584Y-62410678D01*
X80054045Y-62378482D01*
X80056845Y-62374307D01*
X80065347Y-62361630D01*
X80082236Y-62350387D01*
X80114457Y-62344035D01*
X80689836Y-62345020D01*
X80689836Y-62345020D01*
G37*
G36*
X83689836Y-62345020D02*
G01*
X83722032Y-62351481D01*
X83730459Y-62357133D01*
X83737165Y-62361630D01*
X83738885Y-62362784D01*
X83748159Y-62376715D01*
X83802126Y-62421974D01*
X83871994Y-62430870D01*
X83956024Y-62377070D01*
X83956866Y-62375815D01*
X83965346Y-62363170D01*
X83982235Y-62351927D01*
X83984492Y-62351482D01*
X84014456Y-62345575D01*
X84589835Y-62346560D01*
X84622031Y-62353021D01*
X84622033Y-62353022D01*
X84622032Y-62353022D01*
X84638883Y-62364323D01*
X84647132Y-62376715D01*
X84650126Y-62381212D01*
X84656478Y-62413433D01*
X84655493Y-62988812D01*
X84649032Y-63021008D01*
X84649031Y-63021009D01*
X84637730Y-63037860D01*
X84627772Y-63044489D01*
X84623799Y-63047134D01*
X84578541Y-63101102D01*
X84569645Y-63170970D01*
X84623444Y-63254998D01*
X84637343Y-63264319D01*
X84648587Y-63281210D01*
X84654939Y-63313431D01*
X84653954Y-63888810D01*
X84647493Y-63921006D01*
X84644693Y-63925181D01*
X84636191Y-63937858D01*
X84623259Y-63946467D01*
X84619302Y-63949101D01*
X84587081Y-63955453D01*
X84011702Y-63954468D01*
X83979506Y-63948007D01*
X83971079Y-63942355D01*
X83962654Y-63936705D01*
X83961629Y-63935166D01*
X83953378Y-63922772D01*
X83899411Y-63877515D01*
X83829542Y-63868619D01*
X83745514Y-63922419D01*
X83736192Y-63936319D01*
X83720948Y-63946467D01*
X83719303Y-63947562D01*
X83687082Y-63953914D01*
X83111703Y-63952929D01*
X83079507Y-63946468D01*
X83075332Y-63943668D01*
X83062655Y-63935166D01*
X83051412Y-63918277D01*
X83047791Y-63899910D01*
X83045060Y-63886056D01*
X83046045Y-63310677D01*
X83052506Y-63278481D01*
X83063809Y-63261628D01*
X83077741Y-63252353D01*
X83122998Y-63198386D01*
X83126684Y-63169432D01*
X83669645Y-63169432D01*
X83723445Y-63253460D01*
X83735626Y-63261629D01*
X83737346Y-63262783D01*
X83746621Y-63276715D01*
X83800588Y-63321972D01*
X83870457Y-63330868D01*
X83954485Y-63277068D01*
X83963807Y-63263168D01*
X83977738Y-63253894D01*
X84022996Y-63199926D01*
X84031892Y-63130058D01*
X83978093Y-63046030D01*
X83964193Y-63036708D01*
X83954918Y-63022775D01*
X83900951Y-62977516D01*
X83831083Y-62968620D01*
X83747053Y-63022420D01*
X83737730Y-63036321D01*
X83723798Y-63045596D01*
X83678541Y-63099563D01*
X83669645Y-63169432D01*
X83126684Y-63169432D01*
X83131894Y-63128517D01*
X83078094Y-63044489D01*
X83068210Y-63037860D01*
X83064194Y-63035167D01*
X83052951Y-63018278D01*
X83049568Y-63001117D01*
X83046599Y-62986057D01*
X83047584Y-62410678D01*
X83054045Y-62378482D01*
X83056845Y-62374307D01*
X83065347Y-62361630D01*
X83082236Y-62350387D01*
X83114457Y-62344035D01*
X83689836Y-62345020D01*
X83689836Y-62345020D01*
G37*
G36*
X86689836Y-62345020D02*
G01*
X86722032Y-62351481D01*
X86730459Y-62357133D01*
X86737165Y-62361630D01*
X86738885Y-62362784D01*
X86748159Y-62376715D01*
X86802126Y-62421974D01*
X86871994Y-62430870D01*
X86956024Y-62377070D01*
X86956866Y-62375815D01*
X86965346Y-62363170D01*
X86982235Y-62351927D01*
X86984492Y-62351482D01*
X87014456Y-62345575D01*
X87589835Y-62346560D01*
X87622031Y-62353021D01*
X87622033Y-62353022D01*
X87622032Y-62353022D01*
X87638883Y-62364323D01*
X87647132Y-62376715D01*
X87650126Y-62381212D01*
X87656478Y-62413433D01*
X87655493Y-62988812D01*
X87649032Y-63021008D01*
X87649031Y-63021009D01*
X87637730Y-63037860D01*
X87627772Y-63044489D01*
X87623799Y-63047134D01*
X87578541Y-63101102D01*
X87569645Y-63170970D01*
X87623444Y-63254998D01*
X87637343Y-63264319D01*
X87648587Y-63281210D01*
X87654939Y-63313431D01*
X87653954Y-63888810D01*
X87647493Y-63921006D01*
X87644693Y-63925181D01*
X87636191Y-63937858D01*
X87623259Y-63946467D01*
X87619302Y-63949101D01*
X87587081Y-63955453D01*
X87011702Y-63954468D01*
X86979506Y-63948007D01*
X86971079Y-63942355D01*
X86962654Y-63936705D01*
X86961629Y-63935166D01*
X86953378Y-63922772D01*
X86899411Y-63877515D01*
X86829542Y-63868619D01*
X86745514Y-63922419D01*
X86736192Y-63936319D01*
X86720948Y-63946467D01*
X86719303Y-63947562D01*
X86687082Y-63953914D01*
X86111703Y-63952929D01*
X86079507Y-63946468D01*
X86075332Y-63943668D01*
X86062655Y-63935166D01*
X86051412Y-63918277D01*
X86047791Y-63899910D01*
X86045060Y-63886056D01*
X86046045Y-63310677D01*
X86052506Y-63278481D01*
X86063809Y-63261628D01*
X86077741Y-63252353D01*
X86122998Y-63198386D01*
X86126684Y-63169432D01*
X86669645Y-63169432D01*
X86723445Y-63253460D01*
X86735626Y-63261629D01*
X86737346Y-63262783D01*
X86746621Y-63276715D01*
X86800588Y-63321972D01*
X86870457Y-63330868D01*
X86954485Y-63277068D01*
X86963807Y-63263168D01*
X86977738Y-63253894D01*
X87022996Y-63199926D01*
X87031892Y-63130058D01*
X86978093Y-63046030D01*
X86964193Y-63036708D01*
X86954918Y-63022775D01*
X86900951Y-62977516D01*
X86831083Y-62968620D01*
X86747053Y-63022420D01*
X86737730Y-63036321D01*
X86723798Y-63045596D01*
X86678541Y-63099563D01*
X86669645Y-63169432D01*
X86126684Y-63169432D01*
X86131894Y-63128517D01*
X86078094Y-63044489D01*
X86068210Y-63037860D01*
X86064194Y-63035167D01*
X86052951Y-63018278D01*
X86049568Y-63001117D01*
X86046599Y-62986057D01*
X86047584Y-62410678D01*
X86054045Y-62378482D01*
X86056845Y-62374307D01*
X86065347Y-62361630D01*
X86082236Y-62350387D01*
X86114457Y-62344035D01*
X86689836Y-62345020D01*
X86689836Y-62345020D01*
G37*
G36*
X83689596Y-60444815D02*
G01*
X83721796Y-60451271D01*
X83738649Y-60462569D01*
X83747926Y-60476499D01*
X83801901Y-60521747D01*
X83871771Y-60530631D01*
X83955790Y-60476815D01*
X83965110Y-60462913D01*
X83965111Y-60462913D01*
X83965111Y-60462912D01*
X83981998Y-60451666D01*
X84014215Y-60445309D01*
X84589595Y-60446183D01*
X84621795Y-60452639D01*
X84638648Y-60463937D01*
X84649895Y-60480825D01*
X84656252Y-60513042D01*
X84655378Y-61088422D01*
X84648922Y-61120622D01*
X84637624Y-61137475D01*
X84623694Y-61146752D01*
X84578446Y-61200727D01*
X84569562Y-61270597D01*
X84623378Y-61354616D01*
X84637280Y-61363936D01*
X84637281Y-61363937D01*
X84648527Y-61380824D01*
X84654884Y-61413041D01*
X84654010Y-61988421D01*
X84647554Y-62020621D01*
X84636256Y-62037474D01*
X84619368Y-62048721D01*
X84587151Y-62055078D01*
X84011771Y-62054204D01*
X83979571Y-62047748D01*
X83962718Y-62036450D01*
X83953441Y-62022520D01*
X83899466Y-61977272D01*
X83829596Y-61968388D01*
X83745577Y-62022204D01*
X83736943Y-62035082D01*
X83736256Y-62036107D01*
X83719369Y-62047353D01*
X83687152Y-62053710D01*
X83111772Y-62052836D01*
X83079572Y-62046380D01*
X83062719Y-62035082D01*
X83051472Y-62018194D01*
X83045115Y-61985977D01*
X83045989Y-61410597D01*
X83052445Y-61378397D01*
X83063743Y-61361544D01*
X83077673Y-61352267D01*
X83122921Y-61298292D01*
X83126616Y-61269229D01*
X83669563Y-61269229D01*
X83723379Y-61353248D01*
X83737281Y-61362568D01*
X83737282Y-61362569D01*
X83746558Y-61376498D01*
X83800533Y-61421746D01*
X83870403Y-61430630D01*
X83954422Y-61376814D01*
X83963742Y-61362912D01*
X83963743Y-61362912D01*
X83963743Y-61362911D01*
X83977672Y-61353635D01*
X84022920Y-61299660D01*
X84031804Y-61229790D01*
X83977988Y-61145771D01*
X83964086Y-61136451D01*
X83963858Y-61136108D01*
X83954809Y-61122521D01*
X83900834Y-61077273D01*
X83830964Y-61068389D01*
X83746945Y-61122205D01*
X83738312Y-61135082D01*
X83737624Y-61136108D01*
X83723695Y-61145384D01*
X83678447Y-61199359D01*
X83669563Y-61269229D01*
X83126616Y-61269229D01*
X83131805Y-61228422D01*
X83077989Y-61144403D01*
X83064087Y-61135083D01*
X83055511Y-61122206D01*
X83052840Y-61118195D01*
X83046483Y-61085978D01*
X83047357Y-60510598D01*
X83053813Y-60478398D01*
X83065111Y-60461545D01*
X83081999Y-60450298D01*
X83114216Y-60443941D01*
X83689596Y-60444815D01*
X83689596Y-60444815D01*
G37*
G36*
X86689596Y-60444815D02*
G01*
X86721796Y-60451271D01*
X86738649Y-60462569D01*
X86747926Y-60476499D01*
X86801901Y-60521747D01*
X86871771Y-60530631D01*
X86955790Y-60476815D01*
X86965110Y-60462913D01*
X86965111Y-60462913D01*
X86965111Y-60462912D01*
X86981998Y-60451666D01*
X87014215Y-60445309D01*
X87589595Y-60446183D01*
X87621795Y-60452639D01*
X87638648Y-60463937D01*
X87649895Y-60480825D01*
X87656252Y-60513042D01*
X87655378Y-61088422D01*
X87648922Y-61120622D01*
X87637624Y-61137475D01*
X87623694Y-61146752D01*
X87578446Y-61200727D01*
X87569562Y-61270597D01*
X87623378Y-61354616D01*
X87637280Y-61363936D01*
X87637281Y-61363937D01*
X87648527Y-61380824D01*
X87654884Y-61413041D01*
X87654010Y-61988421D01*
X87647554Y-62020621D01*
X87636256Y-62037474D01*
X87619368Y-62048721D01*
X87587151Y-62055078D01*
X87011771Y-62054204D01*
X86979571Y-62047748D01*
X86962718Y-62036450D01*
X86953441Y-62022520D01*
X86899466Y-61977272D01*
X86829596Y-61968388D01*
X86745577Y-62022204D01*
X86736943Y-62035082D01*
X86736256Y-62036107D01*
X86719369Y-62047353D01*
X86687152Y-62053710D01*
X86111772Y-62052836D01*
X86079572Y-62046380D01*
X86062719Y-62035082D01*
X86051472Y-62018194D01*
X86045115Y-61985977D01*
X86045989Y-61410597D01*
X86052445Y-61378397D01*
X86063743Y-61361544D01*
X86077673Y-61352267D01*
X86122921Y-61298292D01*
X86126616Y-61269229D01*
X86669563Y-61269229D01*
X86723379Y-61353248D01*
X86737281Y-61362568D01*
X86737282Y-61362569D01*
X86746558Y-61376498D01*
X86800533Y-61421746D01*
X86870403Y-61430630D01*
X86954422Y-61376814D01*
X86963742Y-61362912D01*
X86963743Y-61362912D01*
X86963743Y-61362911D01*
X86977672Y-61353635D01*
X87022920Y-61299660D01*
X87031804Y-61229790D01*
X86977988Y-61145771D01*
X86964086Y-61136451D01*
X86963858Y-61136108D01*
X86954809Y-61122521D01*
X86900834Y-61077273D01*
X86830964Y-61068389D01*
X86746945Y-61122205D01*
X86738312Y-61135082D01*
X86737624Y-61136108D01*
X86723695Y-61145384D01*
X86678447Y-61199359D01*
X86669563Y-61269229D01*
X86126616Y-61269229D01*
X86131805Y-61228422D01*
X86077989Y-61144403D01*
X86064087Y-61135083D01*
X86055511Y-61122206D01*
X86052840Y-61118195D01*
X86046483Y-61085978D01*
X86047357Y-60510598D01*
X86053813Y-60478398D01*
X86065111Y-60461545D01*
X86081999Y-60450298D01*
X86114216Y-60443941D01*
X86689596Y-60444815D01*
X86689596Y-60444815D01*
G37*
G36*
X80689596Y-60444815D02*
G01*
X80721796Y-60451271D01*
X80738649Y-60462569D01*
X80747926Y-60476499D01*
X80801901Y-60521747D01*
X80871771Y-60530631D01*
X80955790Y-60476815D01*
X80965110Y-60462913D01*
X80965111Y-60462913D01*
X80965111Y-60462912D01*
X80981998Y-60451666D01*
X81014215Y-60445309D01*
X81589595Y-60446183D01*
X81621795Y-60452639D01*
X81638648Y-60463937D01*
X81649895Y-60480825D01*
X81656252Y-60513042D01*
X81655378Y-61088422D01*
X81648922Y-61120622D01*
X81637624Y-61137475D01*
X81623694Y-61146752D01*
X81578446Y-61200727D01*
X81569562Y-61270597D01*
X81623378Y-61354616D01*
X81637280Y-61363936D01*
X81637281Y-61363937D01*
X81648527Y-61380824D01*
X81654884Y-61413041D01*
X81654010Y-61988421D01*
X81647554Y-62020621D01*
X81636256Y-62037474D01*
X81619368Y-62048721D01*
X81587151Y-62055078D01*
X81011771Y-62054204D01*
X80979571Y-62047748D01*
X80962718Y-62036450D01*
X80953441Y-62022520D01*
X80899466Y-61977272D01*
X80829596Y-61968388D01*
X80745577Y-62022204D01*
X80736943Y-62035082D01*
X80736256Y-62036107D01*
X80719369Y-62047353D01*
X80687152Y-62053710D01*
X80111772Y-62052836D01*
X80079572Y-62046380D01*
X80062719Y-62035082D01*
X80051472Y-62018194D01*
X80045115Y-61985977D01*
X80045989Y-61410597D01*
X80052445Y-61378397D01*
X80063743Y-61361544D01*
X80077673Y-61352267D01*
X80122921Y-61298292D01*
X80126616Y-61269229D01*
X80669563Y-61269229D01*
X80723379Y-61353248D01*
X80737281Y-61362568D01*
X80737282Y-61362569D01*
X80746558Y-61376498D01*
X80800533Y-61421746D01*
X80870403Y-61430630D01*
X80954422Y-61376814D01*
X80963742Y-61362912D01*
X80963743Y-61362912D01*
X80963743Y-61362911D01*
X80977672Y-61353635D01*
X81022920Y-61299660D01*
X81031804Y-61229790D01*
X80977988Y-61145771D01*
X80964086Y-61136451D01*
X80963858Y-61136108D01*
X80954809Y-61122521D01*
X80900834Y-61077273D01*
X80830964Y-61068389D01*
X80746945Y-61122205D01*
X80738312Y-61135082D01*
X80737624Y-61136108D01*
X80723695Y-61145384D01*
X80678447Y-61199359D01*
X80669563Y-61269229D01*
X80126616Y-61269229D01*
X80131805Y-61228422D01*
X80077989Y-61144403D01*
X80064087Y-61135083D01*
X80055511Y-61122206D01*
X80052840Y-61118195D01*
X80046483Y-61085978D01*
X80047357Y-60510598D01*
X80053813Y-60478398D01*
X80065111Y-60461545D01*
X80081999Y-60450298D01*
X80114216Y-60443941D01*
X80689596Y-60444815D01*
X80689596Y-60444815D01*
G37*
G36*
X80689356Y-58544611D02*
G01*
X80701663Y-58547076D01*
X80701665Y-58547076D01*
X80713848Y-58549516D01*
X80721560Y-58551061D01*
X80738414Y-58562355D01*
X80747693Y-58576282D01*
X80801677Y-58621520D01*
X80871548Y-58630391D01*
X80955558Y-58576560D01*
X80964875Y-58562656D01*
X80981760Y-58551407D01*
X81013980Y-58545042D01*
X81589355Y-58545808D01*
X81601662Y-58548273D01*
X81601664Y-58548273D01*
X81611334Y-58550210D01*
X81621559Y-58552258D01*
X81638412Y-58563551D01*
X81649662Y-58580437D01*
X81656027Y-58612657D01*
X81655261Y-59188032D01*
X81648811Y-59220236D01*
X81637517Y-59237090D01*
X81623590Y-59246369D01*
X81578352Y-59300353D01*
X81569481Y-59370224D01*
X81623312Y-59454234D01*
X81637216Y-59463551D01*
X81648465Y-59480436D01*
X81654830Y-59512656D01*
X81654064Y-60088031D01*
X81647614Y-60120235D01*
X81636321Y-60137088D01*
X81636320Y-60137089D01*
X81619435Y-60148338D01*
X81599531Y-60152270D01*
X81587215Y-60154703D01*
X81011840Y-60153937D01*
X80999533Y-60151472D01*
X80999531Y-60151472D01*
X80983885Y-60148338D01*
X80979636Y-60147487D01*
X80962782Y-60136193D01*
X80953503Y-60122266D01*
X80899519Y-60077028D01*
X80829648Y-60068157D01*
X80745638Y-60121988D01*
X80736921Y-60134996D01*
X80736321Y-60135892D01*
X80719436Y-60147141D01*
X80699532Y-60151073D01*
X80687216Y-60153506D01*
X80111841Y-60152740D01*
X80099534Y-60150275D01*
X80099532Y-60150275D01*
X80087349Y-60147835D01*
X80079637Y-60146290D01*
X80062784Y-60134997D01*
X80051534Y-60118111D01*
X80045169Y-60085891D01*
X80045935Y-59510516D01*
X80052385Y-59478312D01*
X80063679Y-59461458D01*
X80077606Y-59452179D01*
X80122844Y-59398195D01*
X80126547Y-59369027D01*
X80669482Y-59369027D01*
X80723313Y-59453037D01*
X80725099Y-59454234D01*
X80735880Y-59461458D01*
X80737218Y-59462355D01*
X80746496Y-59476281D01*
X80800480Y-59521519D01*
X80870351Y-59530390D01*
X80954361Y-59476559D01*
X80963679Y-59462654D01*
X80977605Y-59453376D01*
X81022843Y-59399392D01*
X81031714Y-59329521D01*
X80977883Y-59245511D01*
X80970520Y-59240577D01*
X80963979Y-59236194D01*
X80963778Y-59235893D01*
X80954700Y-59222267D01*
X80900716Y-59177029D01*
X80830845Y-59168158D01*
X80746835Y-59221989D01*
X80737517Y-59235894D01*
X80723591Y-59245172D01*
X80678353Y-59299156D01*
X80669482Y-59369027D01*
X80126547Y-59369027D01*
X80131715Y-59328324D01*
X80077884Y-59244314D01*
X80063980Y-59234997D01*
X80052731Y-59218112D01*
X80046366Y-59185892D01*
X80047132Y-58610517D01*
X80053582Y-58578313D01*
X80064875Y-58561460D01*
X80064876Y-58561460D01*
X80064876Y-58561459D01*
X80081761Y-58550210D01*
X80101665Y-58546278D01*
X80113981Y-58543845D01*
X80689356Y-58544611D01*
X80689356Y-58544611D01*
G37*
G36*
X83689356Y-58544611D02*
G01*
X83701663Y-58547076D01*
X83701665Y-58547076D01*
X83713848Y-58549516D01*
X83721560Y-58551061D01*
X83738414Y-58562355D01*
X83747693Y-58576282D01*
X83801677Y-58621520D01*
X83871548Y-58630391D01*
X83955558Y-58576560D01*
X83964875Y-58562656D01*
X83981760Y-58551407D01*
X84013980Y-58545042D01*
X84589355Y-58545808D01*
X84601662Y-58548273D01*
X84601664Y-58548273D01*
X84611334Y-58550210D01*
X84621559Y-58552258D01*
X84638412Y-58563551D01*
X84649662Y-58580437D01*
X84656027Y-58612657D01*
X84655261Y-59188032D01*
X84648811Y-59220236D01*
X84637517Y-59237090D01*
X84623590Y-59246369D01*
X84578352Y-59300353D01*
X84569481Y-59370224D01*
X84623312Y-59454234D01*
X84637216Y-59463551D01*
X84648465Y-59480436D01*
X84654830Y-59512656D01*
X84654064Y-60088031D01*
X84647614Y-60120235D01*
X84636321Y-60137088D01*
X84636320Y-60137089D01*
X84619435Y-60148338D01*
X84599531Y-60152270D01*
X84587215Y-60154703D01*
X84011840Y-60153937D01*
X83999533Y-60151472D01*
X83999531Y-60151472D01*
X83983885Y-60148338D01*
X83979636Y-60147487D01*
X83962782Y-60136193D01*
X83953503Y-60122266D01*
X83899519Y-60077028D01*
X83829648Y-60068157D01*
X83745638Y-60121988D01*
X83736921Y-60134996D01*
X83736321Y-60135892D01*
X83719436Y-60147141D01*
X83699532Y-60151073D01*
X83687216Y-60153506D01*
X83111841Y-60152740D01*
X83099534Y-60150275D01*
X83099532Y-60150275D01*
X83087349Y-60147835D01*
X83079637Y-60146290D01*
X83062784Y-60134997D01*
X83051534Y-60118111D01*
X83045169Y-60085891D01*
X83045935Y-59510516D01*
X83052385Y-59478312D01*
X83063679Y-59461458D01*
X83077606Y-59452179D01*
X83122844Y-59398195D01*
X83126547Y-59369027D01*
X83669482Y-59369027D01*
X83723313Y-59453037D01*
X83725099Y-59454234D01*
X83735880Y-59461458D01*
X83737218Y-59462355D01*
X83746496Y-59476281D01*
X83800480Y-59521519D01*
X83870351Y-59530390D01*
X83954361Y-59476559D01*
X83963679Y-59462654D01*
X83977605Y-59453376D01*
X84022843Y-59399392D01*
X84031714Y-59329521D01*
X83977883Y-59245511D01*
X83970520Y-59240577D01*
X83963979Y-59236194D01*
X83963778Y-59235893D01*
X83954700Y-59222267D01*
X83900716Y-59177029D01*
X83830845Y-59168158D01*
X83746835Y-59221989D01*
X83737517Y-59235894D01*
X83723591Y-59245172D01*
X83678353Y-59299156D01*
X83669482Y-59369027D01*
X83126547Y-59369027D01*
X83131715Y-59328324D01*
X83077884Y-59244314D01*
X83063980Y-59234997D01*
X83052731Y-59218112D01*
X83046366Y-59185892D01*
X83047132Y-58610517D01*
X83053582Y-58578313D01*
X83064875Y-58561460D01*
X83064876Y-58561460D01*
X83064876Y-58561459D01*
X83081761Y-58550210D01*
X83101665Y-58546278D01*
X83113981Y-58543845D01*
X83689356Y-58544611D01*
X83689356Y-58544611D01*
G37*
G36*
X86689356Y-58544611D02*
G01*
X86701663Y-58547076D01*
X86701665Y-58547076D01*
X86713848Y-58549516D01*
X86721560Y-58551061D01*
X86738414Y-58562355D01*
X86747693Y-58576282D01*
X86801677Y-58621520D01*
X86871548Y-58630391D01*
X86955558Y-58576560D01*
X86964875Y-58562656D01*
X86981760Y-58551407D01*
X87013980Y-58545042D01*
X87589355Y-58545808D01*
X87601662Y-58548273D01*
X87601664Y-58548273D01*
X87611334Y-58550210D01*
X87621559Y-58552258D01*
X87638412Y-58563551D01*
X87649662Y-58580437D01*
X87656027Y-58612657D01*
X87655261Y-59188032D01*
X87648811Y-59220236D01*
X87637517Y-59237090D01*
X87623590Y-59246369D01*
X87578352Y-59300353D01*
X87569481Y-59370224D01*
X87623312Y-59454234D01*
X87637216Y-59463551D01*
X87648465Y-59480436D01*
X87654830Y-59512656D01*
X87654064Y-60088031D01*
X87647614Y-60120235D01*
X87636321Y-60137088D01*
X87636320Y-60137089D01*
X87619435Y-60148338D01*
X87599531Y-60152270D01*
X87587215Y-60154703D01*
X87011840Y-60153937D01*
X86999533Y-60151472D01*
X86999531Y-60151472D01*
X86983885Y-60148338D01*
X86979636Y-60147487D01*
X86962782Y-60136193D01*
X86953503Y-60122266D01*
X86899519Y-60077028D01*
X86829648Y-60068157D01*
X86745638Y-60121988D01*
X86736921Y-60134996D01*
X86736321Y-60135892D01*
X86719436Y-60147141D01*
X86699532Y-60151073D01*
X86687216Y-60153506D01*
X86111841Y-60152740D01*
X86099534Y-60150275D01*
X86099532Y-60150275D01*
X86087349Y-60147835D01*
X86079637Y-60146290D01*
X86062784Y-60134997D01*
X86051534Y-60118111D01*
X86045169Y-60085891D01*
X86045935Y-59510516D01*
X86052385Y-59478312D01*
X86063679Y-59461458D01*
X86077606Y-59452179D01*
X86122844Y-59398195D01*
X86126547Y-59369027D01*
X86669482Y-59369027D01*
X86723313Y-59453037D01*
X86725099Y-59454234D01*
X86735880Y-59461458D01*
X86737218Y-59462355D01*
X86746496Y-59476281D01*
X86800480Y-59521519D01*
X86870351Y-59530390D01*
X86954361Y-59476559D01*
X86963679Y-59462654D01*
X86977605Y-59453376D01*
X87022843Y-59399392D01*
X87031714Y-59329521D01*
X86977883Y-59245511D01*
X86970520Y-59240577D01*
X86963979Y-59236194D01*
X86963778Y-59235893D01*
X86954700Y-59222267D01*
X86900716Y-59177029D01*
X86830845Y-59168158D01*
X86746835Y-59221989D01*
X86737517Y-59235894D01*
X86723591Y-59245172D01*
X86678353Y-59299156D01*
X86669482Y-59369027D01*
X86126547Y-59369027D01*
X86131715Y-59328324D01*
X86077884Y-59244314D01*
X86063980Y-59234997D01*
X86052731Y-59218112D01*
X86046366Y-59185892D01*
X86047132Y-58610517D01*
X86053582Y-58578313D01*
X86064875Y-58561460D01*
X86064876Y-58561460D01*
X86064876Y-58561459D01*
X86081761Y-58550210D01*
X86101665Y-58546278D01*
X86113981Y-58543845D01*
X86689356Y-58544611D01*
X86689356Y-58544611D01*
G37*
G36*
X83689121Y-56644405D02*
G01*
X83721320Y-56650848D01*
X83721321Y-56650849D01*
X83721322Y-56650849D01*
X83737032Y-56661372D01*
X83738180Y-56662141D01*
X83747461Y-56676066D01*
X83801454Y-56721294D01*
X83871327Y-56730151D01*
X83955326Y-56676305D01*
X83964642Y-56662397D01*
X83981524Y-56651145D01*
X84013741Y-56644775D01*
X84589121Y-56645431D01*
X84621320Y-56651874D01*
X84621321Y-56651875D01*
X84621322Y-56651875D01*
X84637032Y-56662398D01*
X84638180Y-56663167D01*
X84649432Y-56680049D01*
X84655802Y-56712266D01*
X84655146Y-57287646D01*
X84648703Y-57319845D01*
X84648702Y-57319846D01*
X84648702Y-57319847D01*
X84638098Y-57335678D01*
X84637410Y-57336705D01*
X84623485Y-57345986D01*
X84578257Y-57399979D01*
X84569400Y-57469852D01*
X84623247Y-57553851D01*
X84637152Y-57563165D01*
X84648405Y-57580048D01*
X84654775Y-57612265D01*
X84654119Y-58187645D01*
X84647676Y-58219844D01*
X84647675Y-58219845D01*
X84647675Y-58219846D01*
X84636899Y-58235934D01*
X84636383Y-58236704D01*
X84619501Y-58247956D01*
X84587284Y-58254326D01*
X84011904Y-58253670D01*
X83979705Y-58247227D01*
X83979704Y-58247226D01*
X83979703Y-58247226D01*
X83962846Y-58235935D01*
X83962845Y-58235934D01*
X83953564Y-58222009D01*
X83899571Y-58176781D01*
X83829698Y-58167924D01*
X83745699Y-58221771D01*
X83736900Y-58234908D01*
X83736384Y-58235678D01*
X83719502Y-58246930D01*
X83687285Y-58253300D01*
X83111905Y-58252644D01*
X83079706Y-58246201D01*
X83079705Y-58246200D01*
X83079704Y-58246200D01*
X83062847Y-58234909D01*
X83062846Y-58234908D01*
X83051594Y-58218026D01*
X83045224Y-58185809D01*
X83045880Y-57610429D01*
X83052323Y-57578230D01*
X83062414Y-57563165D01*
X83063615Y-57561371D01*
X83063616Y-57561371D01*
X83063616Y-57561370D01*
X83077541Y-57552089D01*
X83122769Y-57498096D01*
X83126479Y-57468826D01*
X83669400Y-57468826D01*
X83723247Y-57552825D01*
X83736006Y-57561371D01*
X83737154Y-57562140D01*
X83746435Y-57576065D01*
X83800428Y-57621293D01*
X83870301Y-57630150D01*
X83954300Y-57576303D01*
X83963614Y-57562397D01*
X83963615Y-57562397D01*
X83963615Y-57562396D01*
X83977540Y-57553115D01*
X84022768Y-57499122D01*
X84031625Y-57429249D01*
X83977778Y-57345250D01*
X83963873Y-57335936D01*
X83954591Y-57322010D01*
X83900598Y-57276782D01*
X83830725Y-57267925D01*
X83746726Y-57321771D01*
X83737411Y-57335678D01*
X83730856Y-57340047D01*
X83723485Y-57344960D01*
X83678257Y-57398953D01*
X83669400Y-57468826D01*
X83126479Y-57468826D01*
X83131626Y-57428223D01*
X83077779Y-57344224D01*
X83063873Y-57334910D01*
X83063872Y-57334909D01*
X83052620Y-57318027D01*
X83046250Y-57285810D01*
X83046906Y-56710430D01*
X83053349Y-56678231D01*
X83063440Y-56663166D01*
X83064641Y-56661372D01*
X83064642Y-56661372D01*
X83064642Y-56661371D01*
X83081524Y-56650119D01*
X83113741Y-56643749D01*
X83689121Y-56644405D01*
X83689121Y-56644405D01*
G37*
G36*
X80689121Y-56644405D02*
G01*
X80721320Y-56650848D01*
X80721321Y-56650849D01*
X80721322Y-56650849D01*
X80737032Y-56661372D01*
X80738180Y-56662141D01*
X80747461Y-56676066D01*
X80801454Y-56721294D01*
X80871327Y-56730151D01*
X80955326Y-56676305D01*
X80964642Y-56662397D01*
X80981524Y-56651145D01*
X81013741Y-56644775D01*
X81589121Y-56645431D01*
X81621320Y-56651874D01*
X81621321Y-56651875D01*
X81621322Y-56651875D01*
X81637032Y-56662398D01*
X81638180Y-56663167D01*
X81649432Y-56680049D01*
X81655802Y-56712266D01*
X81655146Y-57287646D01*
X81648703Y-57319845D01*
X81648702Y-57319846D01*
X81648702Y-57319847D01*
X81638098Y-57335678D01*
X81637410Y-57336705D01*
X81623485Y-57345986D01*
X81578257Y-57399979D01*
X81569400Y-57469852D01*
X81623247Y-57553851D01*
X81637152Y-57563165D01*
X81648405Y-57580048D01*
X81654775Y-57612265D01*
X81654119Y-58187645D01*
X81647676Y-58219844D01*
X81647675Y-58219845D01*
X81647675Y-58219846D01*
X81636899Y-58235934D01*
X81636383Y-58236704D01*
X81619501Y-58247956D01*
X81587284Y-58254326D01*
X81011904Y-58253670D01*
X80979705Y-58247227D01*
X80979704Y-58247226D01*
X80979703Y-58247226D01*
X80962846Y-58235935D01*
X80962845Y-58235934D01*
X80953564Y-58222009D01*
X80899571Y-58176781D01*
X80829698Y-58167924D01*
X80745699Y-58221771D01*
X80736900Y-58234908D01*
X80736384Y-58235678D01*
X80719502Y-58246930D01*
X80687285Y-58253300D01*
X80111905Y-58252644D01*
X80079706Y-58246201D01*
X80079705Y-58246200D01*
X80079704Y-58246200D01*
X80062847Y-58234909D01*
X80062846Y-58234908D01*
X80051594Y-58218026D01*
X80045224Y-58185809D01*
X80045880Y-57610429D01*
X80052323Y-57578230D01*
X80062414Y-57563165D01*
X80063615Y-57561371D01*
X80063616Y-57561371D01*
X80063616Y-57561370D01*
X80077541Y-57552089D01*
X80122769Y-57498096D01*
X80126479Y-57468826D01*
X80669400Y-57468826D01*
X80723247Y-57552825D01*
X80736006Y-57561371D01*
X80737154Y-57562140D01*
X80746435Y-57576065D01*
X80800428Y-57621293D01*
X80870301Y-57630150D01*
X80954300Y-57576303D01*
X80963614Y-57562397D01*
X80963615Y-57562397D01*
X80963615Y-57562396D01*
X80977540Y-57553115D01*
X81022768Y-57499122D01*
X81031625Y-57429249D01*
X80977778Y-57345250D01*
X80963873Y-57335936D01*
X80954591Y-57322010D01*
X80900598Y-57276782D01*
X80830725Y-57267925D01*
X80746726Y-57321771D01*
X80737411Y-57335678D01*
X80730856Y-57340047D01*
X80723485Y-57344960D01*
X80678257Y-57398953D01*
X80669400Y-57468826D01*
X80126479Y-57468826D01*
X80131626Y-57428223D01*
X80077779Y-57344224D01*
X80063873Y-57334910D01*
X80063872Y-57334909D01*
X80052620Y-57318027D01*
X80046250Y-57285810D01*
X80046906Y-56710430D01*
X80053349Y-56678231D01*
X80063440Y-56663166D01*
X80064641Y-56661372D01*
X80064642Y-56661372D01*
X80064642Y-56661371D01*
X80081524Y-56650119D01*
X80113741Y-56643749D01*
X80689121Y-56644405D01*
X80689121Y-56644405D01*
G37*
G36*
X86689121Y-56644405D02*
G01*
X86721320Y-56650848D01*
X86721321Y-56650849D01*
X86721322Y-56650849D01*
X86737032Y-56661372D01*
X86738180Y-56662141D01*
X86747461Y-56676066D01*
X86801454Y-56721294D01*
X86871327Y-56730151D01*
X86955326Y-56676305D01*
X86964642Y-56662397D01*
X86981524Y-56651145D01*
X87013741Y-56644775D01*
X87589121Y-56645431D01*
X87621320Y-56651874D01*
X87621321Y-56651875D01*
X87621322Y-56651875D01*
X87637032Y-56662398D01*
X87638180Y-56663167D01*
X87649432Y-56680049D01*
X87655802Y-56712266D01*
X87655146Y-57287646D01*
X87648703Y-57319845D01*
X87648702Y-57319846D01*
X87648702Y-57319847D01*
X87638098Y-57335678D01*
X87637410Y-57336705D01*
X87623485Y-57345986D01*
X87578257Y-57399979D01*
X87569400Y-57469852D01*
X87623247Y-57553851D01*
X87637152Y-57563165D01*
X87648405Y-57580048D01*
X87654775Y-57612265D01*
X87654119Y-58187645D01*
X87647676Y-58219844D01*
X87647675Y-58219845D01*
X87647675Y-58219846D01*
X87636899Y-58235934D01*
X87636383Y-58236704D01*
X87619501Y-58247956D01*
X87587284Y-58254326D01*
X87011904Y-58253670D01*
X86979705Y-58247227D01*
X86979704Y-58247226D01*
X86979703Y-58247226D01*
X86962846Y-58235935D01*
X86962845Y-58235934D01*
X86953564Y-58222009D01*
X86899571Y-58176781D01*
X86829698Y-58167924D01*
X86745699Y-58221771D01*
X86736900Y-58234908D01*
X86736384Y-58235678D01*
X86719502Y-58246930D01*
X86687285Y-58253300D01*
X86111905Y-58252644D01*
X86079706Y-58246201D01*
X86079705Y-58246200D01*
X86079704Y-58246200D01*
X86062847Y-58234909D01*
X86062846Y-58234908D01*
X86051594Y-58218026D01*
X86045224Y-58185809D01*
X86045880Y-57610429D01*
X86052323Y-57578230D01*
X86062414Y-57563165D01*
X86063615Y-57561371D01*
X86063616Y-57561371D01*
X86063616Y-57561370D01*
X86077541Y-57552089D01*
X86122769Y-57498096D01*
X86126479Y-57468826D01*
X86669400Y-57468826D01*
X86723247Y-57552825D01*
X86736006Y-57561371D01*
X86737154Y-57562140D01*
X86746435Y-57576065D01*
X86800428Y-57621293D01*
X86870301Y-57630150D01*
X86954300Y-57576303D01*
X86963614Y-57562397D01*
X86963615Y-57562397D01*
X86963615Y-57562396D01*
X86977540Y-57553115D01*
X87022768Y-57499122D01*
X87031625Y-57429249D01*
X86977778Y-57345250D01*
X86963873Y-57335936D01*
X86954591Y-57322010D01*
X86900598Y-57276782D01*
X86830725Y-57267925D01*
X86746726Y-57321771D01*
X86737411Y-57335678D01*
X86730856Y-57340047D01*
X86723485Y-57344960D01*
X86678257Y-57398953D01*
X86669400Y-57468826D01*
X86126479Y-57468826D01*
X86131626Y-57428223D01*
X86077779Y-57344224D01*
X86063873Y-57334910D01*
X86063872Y-57334909D01*
X86052620Y-57318027D01*
X86046250Y-57285810D01*
X86046906Y-56710430D01*
X86053349Y-56678231D01*
X86063440Y-56663166D01*
X86064641Y-56661372D01*
X86064642Y-56661372D01*
X86064642Y-56661371D01*
X86081524Y-56650119D01*
X86113741Y-56643749D01*
X86689121Y-56644405D01*
X86689121Y-56644405D01*
G37*
G36*
X83688879Y-54744198D02*
G01*
X83721086Y-54750636D01*
X83737945Y-54761924D01*
X83747229Y-54775848D01*
X83801229Y-54821066D01*
X83871104Y-54829911D01*
X83955095Y-54776045D01*
X83964404Y-54762141D01*
X83981287Y-54750883D01*
X84013500Y-54744508D01*
X84588879Y-54745054D01*
X84621086Y-54751492D01*
X84637944Y-54762779D01*
X84649201Y-54779661D01*
X84655576Y-54811874D01*
X84655030Y-55387253D01*
X84648592Y-55419460D01*
X84637305Y-55436318D01*
X84626588Y-55443464D01*
X84624301Y-55444989D01*
X84623381Y-55445602D01*
X84578164Y-55499603D01*
X84569320Y-55569478D01*
X84623183Y-55653468D01*
X84637089Y-55662779D01*
X84648346Y-55679660D01*
X84654721Y-55711873D01*
X84654175Y-56287252D01*
X84647737Y-56319459D01*
X84636450Y-56336317D01*
X84619568Y-56347574D01*
X84587355Y-56353949D01*
X84011976Y-56353403D01*
X83979769Y-56346965D01*
X83962911Y-56335677D01*
X83953626Y-56321753D01*
X83899624Y-56276535D01*
X83829749Y-56267692D01*
X83745760Y-56321557D01*
X83736451Y-56335461D01*
X83719568Y-56346719D01*
X83687355Y-56353094D01*
X83111976Y-56352548D01*
X83079769Y-56346110D01*
X83062911Y-56334823D01*
X83051654Y-56317941D01*
X83045279Y-56285728D01*
X83045825Y-55710349D01*
X83052263Y-55678142D01*
X83063551Y-55661284D01*
X83077475Y-55651999D01*
X83122693Y-55597997D01*
X83126410Y-55568624D01*
X83669319Y-55568624D01*
X83723184Y-55652613D01*
X83737088Y-55661923D01*
X83746374Y-55675848D01*
X83800376Y-55721066D01*
X83870251Y-55729909D01*
X83954240Y-55676044D01*
X83963549Y-55662140D01*
X83972263Y-55656330D01*
X83977474Y-55652855D01*
X84022691Y-55598854D01*
X84031535Y-55528979D01*
X83977672Y-55444989D01*
X83963765Y-55435677D01*
X83954481Y-55421754D01*
X83900481Y-55376536D01*
X83830606Y-55367691D01*
X83746615Y-55421557D01*
X83737305Y-55435461D01*
X83737304Y-55435462D01*
X83736980Y-55435678D01*
X83723380Y-55444747D01*
X83678162Y-55498749D01*
X83669319Y-55568624D01*
X83126410Y-55568624D01*
X83131536Y-55528122D01*
X83077671Y-55444133D01*
X83063767Y-55434824D01*
X83052509Y-55417941D01*
X83046134Y-55385728D01*
X83046680Y-54810349D01*
X83053118Y-54778142D01*
X83064405Y-54761284D01*
X83081287Y-54750027D01*
X83113500Y-54743652D01*
X83688879Y-54744198D01*
X83688879Y-54744198D01*
G37*
G36*
X86688879Y-54744198D02*
G01*
X86721086Y-54750636D01*
X86737945Y-54761924D01*
X86747229Y-54775848D01*
X86801229Y-54821066D01*
X86871104Y-54829911D01*
X86955095Y-54776045D01*
X86964404Y-54762141D01*
X86981287Y-54750883D01*
X87013500Y-54744508D01*
X87588879Y-54745054D01*
X87621086Y-54751492D01*
X87637944Y-54762779D01*
X87649201Y-54779661D01*
X87655576Y-54811874D01*
X87655030Y-55387253D01*
X87648592Y-55419460D01*
X87637305Y-55436318D01*
X87626588Y-55443464D01*
X87624301Y-55444989D01*
X87623381Y-55445602D01*
X87578164Y-55499603D01*
X87569320Y-55569478D01*
X87623183Y-55653468D01*
X87637089Y-55662779D01*
X87648346Y-55679660D01*
X87654721Y-55711873D01*
X87654175Y-56287252D01*
X87647737Y-56319459D01*
X87636450Y-56336317D01*
X87619568Y-56347574D01*
X87587355Y-56353949D01*
X87011976Y-56353403D01*
X86979769Y-56346965D01*
X86962911Y-56335677D01*
X86953626Y-56321753D01*
X86899624Y-56276535D01*
X86829749Y-56267692D01*
X86745760Y-56321557D01*
X86736451Y-56335461D01*
X86719568Y-56346719D01*
X86687355Y-56353094D01*
X86111976Y-56352548D01*
X86079769Y-56346110D01*
X86062911Y-56334823D01*
X86051654Y-56317941D01*
X86045279Y-56285728D01*
X86045825Y-55710349D01*
X86052263Y-55678142D01*
X86063551Y-55661284D01*
X86077475Y-55651999D01*
X86122693Y-55597997D01*
X86126410Y-55568624D01*
X86669319Y-55568624D01*
X86723184Y-55652613D01*
X86737088Y-55661923D01*
X86746374Y-55675848D01*
X86800376Y-55721066D01*
X86870251Y-55729909D01*
X86954240Y-55676044D01*
X86963549Y-55662140D01*
X86972263Y-55656330D01*
X86977474Y-55652855D01*
X87022691Y-55598854D01*
X87031535Y-55528979D01*
X86977672Y-55444989D01*
X86963765Y-55435677D01*
X86954481Y-55421754D01*
X86900481Y-55376536D01*
X86830606Y-55367691D01*
X86746615Y-55421557D01*
X86737305Y-55435461D01*
X86737304Y-55435462D01*
X86736980Y-55435678D01*
X86723380Y-55444747D01*
X86678162Y-55498749D01*
X86669319Y-55568624D01*
X86126410Y-55568624D01*
X86131536Y-55528122D01*
X86077671Y-55444133D01*
X86063767Y-55434824D01*
X86052509Y-55417941D01*
X86046134Y-55385728D01*
X86046680Y-54810349D01*
X86053118Y-54778142D01*
X86064405Y-54761284D01*
X86081287Y-54750027D01*
X86113500Y-54743652D01*
X86688879Y-54744198D01*
X86688879Y-54744198D01*
G37*
G36*
X80688879Y-54744198D02*
G01*
X80721086Y-54750636D01*
X80737945Y-54761924D01*
X80747229Y-54775848D01*
X80801229Y-54821066D01*
X80871104Y-54829911D01*
X80955095Y-54776045D01*
X80964404Y-54762141D01*
X80981287Y-54750883D01*
X81013500Y-54744508D01*
X81588879Y-54745054D01*
X81621086Y-54751492D01*
X81637944Y-54762779D01*
X81649201Y-54779661D01*
X81655576Y-54811874D01*
X81655030Y-55387253D01*
X81648592Y-55419460D01*
X81637305Y-55436318D01*
X81626588Y-55443464D01*
X81624301Y-55444989D01*
X81623381Y-55445602D01*
X81578164Y-55499603D01*
X81569320Y-55569478D01*
X81623183Y-55653468D01*
X81637089Y-55662779D01*
X81648346Y-55679660D01*
X81654721Y-55711873D01*
X81654175Y-56287252D01*
X81647737Y-56319459D01*
X81636450Y-56336317D01*
X81619568Y-56347574D01*
X81587355Y-56353949D01*
X81011976Y-56353403D01*
X80979769Y-56346965D01*
X80962911Y-56335677D01*
X80953626Y-56321753D01*
X80899624Y-56276535D01*
X80829749Y-56267692D01*
X80745760Y-56321557D01*
X80736451Y-56335461D01*
X80719568Y-56346719D01*
X80687355Y-56353094D01*
X80111976Y-56352548D01*
X80079769Y-56346110D01*
X80062911Y-56334823D01*
X80051654Y-56317941D01*
X80045279Y-56285728D01*
X80045825Y-55710349D01*
X80052263Y-55678142D01*
X80063551Y-55661284D01*
X80077475Y-55651999D01*
X80122693Y-55597997D01*
X80126410Y-55568624D01*
X80669319Y-55568624D01*
X80723184Y-55652613D01*
X80737088Y-55661923D01*
X80746374Y-55675848D01*
X80800376Y-55721066D01*
X80870251Y-55729909D01*
X80954240Y-55676044D01*
X80963549Y-55662140D01*
X80972263Y-55656330D01*
X80977474Y-55652855D01*
X81022691Y-55598854D01*
X81031535Y-55528979D01*
X80977672Y-55444989D01*
X80963765Y-55435677D01*
X80954481Y-55421754D01*
X80900481Y-55376536D01*
X80830606Y-55367691D01*
X80746615Y-55421557D01*
X80737305Y-55435461D01*
X80737304Y-55435462D01*
X80736980Y-55435678D01*
X80723380Y-55444747D01*
X80678162Y-55498749D01*
X80669319Y-55568624D01*
X80126410Y-55568624D01*
X80131536Y-55528122D01*
X80077671Y-55444133D01*
X80063767Y-55434824D01*
X80052509Y-55417941D01*
X80046134Y-55385728D01*
X80046680Y-54810349D01*
X80053118Y-54778142D01*
X80064405Y-54761284D01*
X80081287Y-54750027D01*
X80113500Y-54743652D01*
X80688879Y-54744198D01*
X80688879Y-54744198D01*
G37*
G36*
X83688639Y-52843993D02*
G01*
X83700948Y-52846451D01*
X83700952Y-52846451D01*
X83720848Y-52850424D01*
X83721870Y-52851108D01*
X83737710Y-52861709D01*
X83746996Y-52875630D01*
X83801005Y-52920838D01*
X83870881Y-52929670D01*
X83954862Y-52875789D01*
X83964170Y-52861881D01*
X83981049Y-52850622D01*
X84013265Y-52844239D01*
X84588639Y-52844677D01*
X84600948Y-52847135D01*
X84600952Y-52847135D01*
X84620848Y-52851108D01*
X84620850Y-52851109D01*
X84620849Y-52851109D01*
X84637709Y-52862393D01*
X84648968Y-52879271D01*
X84655351Y-52911487D01*
X84654913Y-53486861D01*
X84652455Y-53499170D01*
X84652455Y-53499174D01*
X84648482Y-53519070D01*
X84648481Y-53519071D01*
X84637197Y-53535932D01*
X84623276Y-53545218D01*
X84578068Y-53599227D01*
X84569236Y-53669103D01*
X84623117Y-53753084D01*
X84637025Y-53762392D01*
X84648284Y-53779271D01*
X84654667Y-53811487D01*
X84654229Y-54386861D01*
X84651771Y-54399170D01*
X84651771Y-54399174D01*
X84647798Y-54419070D01*
X84647797Y-54419071D01*
X84636513Y-54435931D01*
X84619635Y-54447190D01*
X84587419Y-54453573D01*
X84012045Y-54453135D01*
X83999736Y-54450677D01*
X83999732Y-54450677D01*
X83979836Y-54446704D01*
X83974259Y-54442971D01*
X83962974Y-54435419D01*
X83953688Y-54421498D01*
X83899679Y-54376290D01*
X83829803Y-54367458D01*
X83745822Y-54421339D01*
X83736514Y-54435247D01*
X83719635Y-54446506D01*
X83687419Y-54452889D01*
X83112045Y-54452451D01*
X83099736Y-54449993D01*
X83099732Y-54449993D01*
X83079836Y-54446020D01*
X83062975Y-54434735D01*
X83051716Y-54417857D01*
X83045333Y-54385641D01*
X83045771Y-53810267D01*
X83048229Y-53797958D01*
X83048229Y-53797954D01*
X83052202Y-53778058D01*
X83055935Y-53772481D01*
X83063487Y-53761196D01*
X83077408Y-53751910D01*
X83122616Y-53697901D01*
X83126342Y-53668419D01*
X83669236Y-53668419D01*
X83723117Y-53752400D01*
X83737026Y-53761709D01*
X83746312Y-53775630D01*
X83800321Y-53820838D01*
X83870197Y-53829670D01*
X83954178Y-53775789D01*
X83963487Y-53761880D01*
X83977408Y-53752594D01*
X84022616Y-53698585D01*
X84031448Y-53628709D01*
X83977567Y-53544728D01*
X83963658Y-53535419D01*
X83954372Y-53521498D01*
X83900363Y-53476290D01*
X83830487Y-53467458D01*
X83746506Y-53521339D01*
X83737197Y-53535248D01*
X83723276Y-53544534D01*
X83678068Y-53598543D01*
X83669236Y-53668419D01*
X83126342Y-53668419D01*
X83131448Y-53628025D01*
X83077567Y-53544044D01*
X83063659Y-53534736D01*
X83052400Y-53517857D01*
X83046017Y-53485641D01*
X83046455Y-52910267D01*
X83048913Y-52897958D01*
X83048913Y-52897954D01*
X83052886Y-52878058D01*
X83064171Y-52861197D01*
X83081049Y-52849938D01*
X83113265Y-52843555D01*
X83688639Y-52843993D01*
X83688639Y-52843993D01*
G37*
G36*
X86688639Y-52843993D02*
G01*
X86700948Y-52846451D01*
X86700952Y-52846451D01*
X86720848Y-52850424D01*
X86721870Y-52851108D01*
X86737710Y-52861709D01*
X86746996Y-52875630D01*
X86801005Y-52920838D01*
X86870881Y-52929670D01*
X86954862Y-52875789D01*
X86964170Y-52861881D01*
X86981049Y-52850622D01*
X87013265Y-52844239D01*
X87588639Y-52844677D01*
X87600948Y-52847135D01*
X87600952Y-52847135D01*
X87620848Y-52851108D01*
X87620850Y-52851109D01*
X87620849Y-52851109D01*
X87637709Y-52862393D01*
X87648968Y-52879271D01*
X87655351Y-52911487D01*
X87654913Y-53486861D01*
X87652455Y-53499170D01*
X87652455Y-53499174D01*
X87648482Y-53519070D01*
X87648481Y-53519071D01*
X87637197Y-53535932D01*
X87623276Y-53545218D01*
X87578068Y-53599227D01*
X87569236Y-53669103D01*
X87623117Y-53753084D01*
X87637025Y-53762392D01*
X87648284Y-53779271D01*
X87654667Y-53811487D01*
X87654229Y-54386861D01*
X87651771Y-54399170D01*
X87651771Y-54399174D01*
X87647798Y-54419070D01*
X87647797Y-54419071D01*
X87636513Y-54435931D01*
X87619635Y-54447190D01*
X87587419Y-54453573D01*
X87012045Y-54453135D01*
X86999736Y-54450677D01*
X86999732Y-54450677D01*
X86979836Y-54446704D01*
X86974259Y-54442971D01*
X86962974Y-54435419D01*
X86953688Y-54421498D01*
X86899679Y-54376290D01*
X86829803Y-54367458D01*
X86745822Y-54421339D01*
X86736514Y-54435247D01*
X86719635Y-54446506D01*
X86687419Y-54452889D01*
X86112045Y-54452451D01*
X86099736Y-54449993D01*
X86099732Y-54449993D01*
X86079836Y-54446020D01*
X86062975Y-54434735D01*
X86051716Y-54417857D01*
X86045333Y-54385641D01*
X86045771Y-53810267D01*
X86048229Y-53797958D01*
X86048229Y-53797954D01*
X86052202Y-53778058D01*
X86055935Y-53772481D01*
X86063487Y-53761196D01*
X86077408Y-53751910D01*
X86122616Y-53697901D01*
X86126342Y-53668419D01*
X86669236Y-53668419D01*
X86723117Y-53752400D01*
X86737026Y-53761709D01*
X86746312Y-53775630D01*
X86800321Y-53820838D01*
X86870197Y-53829670D01*
X86954178Y-53775789D01*
X86963487Y-53761880D01*
X86977408Y-53752594D01*
X87022616Y-53698585D01*
X87031448Y-53628709D01*
X86977567Y-53544728D01*
X86963658Y-53535419D01*
X86954372Y-53521498D01*
X86900363Y-53476290D01*
X86830487Y-53467458D01*
X86746506Y-53521339D01*
X86737197Y-53535248D01*
X86723276Y-53544534D01*
X86678068Y-53598543D01*
X86669236Y-53668419D01*
X86126342Y-53668419D01*
X86131448Y-53628025D01*
X86077567Y-53544044D01*
X86063659Y-53534736D01*
X86052400Y-53517857D01*
X86046017Y-53485641D01*
X86046455Y-52910267D01*
X86048913Y-52897958D01*
X86048913Y-52897954D01*
X86052886Y-52878058D01*
X86064171Y-52861197D01*
X86081049Y-52849938D01*
X86113265Y-52843555D01*
X86688639Y-52843993D01*
X86688639Y-52843993D01*
G37*
G36*
X80688639Y-52843993D02*
G01*
X80700948Y-52846451D01*
X80700952Y-52846451D01*
X80720848Y-52850424D01*
X80721870Y-52851108D01*
X80737710Y-52861709D01*
X80746996Y-52875630D01*
X80801005Y-52920838D01*
X80870881Y-52929670D01*
X80954862Y-52875789D01*
X80964170Y-52861881D01*
X80981049Y-52850622D01*
X81013265Y-52844239D01*
X81588639Y-52844677D01*
X81600948Y-52847135D01*
X81600952Y-52847135D01*
X81620848Y-52851108D01*
X81620850Y-52851109D01*
X81620849Y-52851109D01*
X81637709Y-52862393D01*
X81648968Y-52879271D01*
X81655351Y-52911487D01*
X81654913Y-53486861D01*
X81652455Y-53499170D01*
X81652455Y-53499174D01*
X81648482Y-53519070D01*
X81648481Y-53519071D01*
X81637197Y-53535932D01*
X81623276Y-53545218D01*
X81578068Y-53599227D01*
X81569236Y-53669103D01*
X81623117Y-53753084D01*
X81637025Y-53762392D01*
X81648284Y-53779271D01*
X81654667Y-53811487D01*
X81654229Y-54386861D01*
X81651771Y-54399170D01*
X81651771Y-54399174D01*
X81647798Y-54419070D01*
X81647797Y-54419071D01*
X81636513Y-54435931D01*
X81619635Y-54447190D01*
X81587419Y-54453573D01*
X81012045Y-54453135D01*
X80999736Y-54450677D01*
X80999732Y-54450677D01*
X80979836Y-54446704D01*
X80974259Y-54442971D01*
X80962974Y-54435419D01*
X80953688Y-54421498D01*
X80899679Y-54376290D01*
X80829803Y-54367458D01*
X80745822Y-54421339D01*
X80736514Y-54435247D01*
X80719635Y-54446506D01*
X80687419Y-54452889D01*
X80112045Y-54452451D01*
X80099736Y-54449993D01*
X80099732Y-54449993D01*
X80079836Y-54446020D01*
X80062975Y-54434735D01*
X80051716Y-54417857D01*
X80045333Y-54385641D01*
X80045771Y-53810267D01*
X80048229Y-53797958D01*
X80048229Y-53797954D01*
X80052202Y-53778058D01*
X80055935Y-53772481D01*
X80063487Y-53761196D01*
X80077408Y-53751910D01*
X80122616Y-53697901D01*
X80126342Y-53668419D01*
X80669236Y-53668419D01*
X80723117Y-53752400D01*
X80737026Y-53761709D01*
X80746312Y-53775630D01*
X80800321Y-53820838D01*
X80870197Y-53829670D01*
X80954178Y-53775789D01*
X80963487Y-53761880D01*
X80977408Y-53752594D01*
X81022616Y-53698585D01*
X81031448Y-53628709D01*
X80977567Y-53544728D01*
X80963658Y-53535419D01*
X80954372Y-53521498D01*
X80900363Y-53476290D01*
X80830487Y-53467458D01*
X80746506Y-53521339D01*
X80737197Y-53535248D01*
X80723276Y-53544534D01*
X80678068Y-53598543D01*
X80669236Y-53668419D01*
X80126342Y-53668419D01*
X80131448Y-53628025D01*
X80077567Y-53544044D01*
X80063659Y-53534736D01*
X80052400Y-53517857D01*
X80046017Y-53485641D01*
X80046455Y-52910267D01*
X80048913Y-52897958D01*
X80048913Y-52897954D01*
X80052886Y-52878058D01*
X80064171Y-52861197D01*
X80081049Y-52849938D01*
X80113265Y-52843555D01*
X80688639Y-52843993D01*
X80688639Y-52843993D01*
G37*
G36*
X83688405Y-50943786D02*
G01*
X83720611Y-50950211D01*
X83737473Y-50961492D01*
X83737474Y-50961493D01*
X83737816Y-50962005D01*
X83746765Y-50975416D01*
X83800784Y-51020612D01*
X83870663Y-51029429D01*
X83954630Y-50975533D01*
X83963936Y-50961622D01*
X83980812Y-50950360D01*
X83980813Y-50950360D01*
X83980814Y-50950359D01*
X84013025Y-50943971D01*
X84588405Y-50944299D01*
X84620611Y-50950724D01*
X84637473Y-50962005D01*
X84637474Y-50962006D01*
X84648394Y-50978369D01*
X84648737Y-50978884D01*
X84655125Y-51011095D01*
X84654797Y-51586475D01*
X84648372Y-51618681D01*
X84637347Y-51635160D01*
X84637090Y-51635544D01*
X84623166Y-51644836D01*
X84577971Y-51698854D01*
X84569154Y-51768733D01*
X84623050Y-51852700D01*
X84636961Y-51862006D01*
X84647958Y-51878485D01*
X84648224Y-51878884D01*
X84654612Y-51911095D01*
X84654284Y-52486475D01*
X84647859Y-52518681D01*
X84636578Y-52535543D01*
X84636577Y-52535544D01*
X84619701Y-52546806D01*
X84619700Y-52546806D01*
X84619699Y-52546807D01*
X84587488Y-52553195D01*
X84012108Y-52552867D01*
X83979902Y-52546442D01*
X83963040Y-52535161D01*
X83962953Y-52535031D01*
X83953747Y-52521236D01*
X83899729Y-52476041D01*
X83829850Y-52467224D01*
X83745883Y-52521120D01*
X83736577Y-52535031D01*
X83719701Y-52546293D01*
X83719700Y-52546293D01*
X83719699Y-52546294D01*
X83687488Y-52552682D01*
X83112108Y-52552354D01*
X83079902Y-52545929D01*
X83063040Y-52534648D01*
X83054013Y-52521121D01*
X83051777Y-52517771D01*
X83051777Y-52517770D01*
X83051776Y-52517769D01*
X83045388Y-52485558D01*
X83045716Y-51910178D01*
X83052141Y-51877972D01*
X83063422Y-51861110D01*
X83063423Y-51861109D01*
X83077347Y-51851817D01*
X83122542Y-51797799D01*
X83126274Y-51768220D01*
X83669154Y-51768220D01*
X83723050Y-51852187D01*
X83736961Y-51861493D01*
X83746252Y-51875416D01*
X83800271Y-51920612D01*
X83870150Y-51929429D01*
X83954117Y-51875533D01*
X83963423Y-51861622D01*
X83977347Y-51852330D01*
X84022542Y-51798312D01*
X84031359Y-51728433D01*
X83977463Y-51644466D01*
X83963552Y-51635160D01*
X83954260Y-51621236D01*
X83900242Y-51576041D01*
X83830363Y-51567224D01*
X83746396Y-51621120D01*
X83737090Y-51635031D01*
X83723166Y-51644323D01*
X83677971Y-51698341D01*
X83669154Y-51768220D01*
X83126274Y-51768220D01*
X83131359Y-51727920D01*
X83077463Y-51643953D01*
X83063552Y-51634647D01*
X83052290Y-51617771D01*
X83052290Y-51617770D01*
X83052289Y-51617769D01*
X83045901Y-51585558D01*
X83046229Y-51010178D01*
X83052654Y-50977972D01*
X83063935Y-50961110D01*
X83063936Y-50961109D01*
X83080812Y-50949847D01*
X83080813Y-50949847D01*
X83080814Y-50949846D01*
X83113025Y-50943458D01*
X83688405Y-50943786D01*
X83688405Y-50943786D01*
G37*
G36*
X86688405Y-50943786D02*
G01*
X86720611Y-50950211D01*
X86737473Y-50961492D01*
X86737474Y-50961493D01*
X86737816Y-50962005D01*
X86746765Y-50975416D01*
X86800784Y-51020612D01*
X86870663Y-51029429D01*
X86954630Y-50975533D01*
X86963936Y-50961622D01*
X86980812Y-50950360D01*
X86980813Y-50950360D01*
X86980814Y-50950359D01*
X87013025Y-50943971D01*
X87588405Y-50944299D01*
X87620611Y-50950724D01*
X87637473Y-50962005D01*
X87637474Y-50962006D01*
X87648394Y-50978369D01*
X87648737Y-50978884D01*
X87655125Y-51011095D01*
X87654797Y-51586475D01*
X87648372Y-51618681D01*
X87637347Y-51635160D01*
X87637090Y-51635544D01*
X87623166Y-51644836D01*
X87577971Y-51698854D01*
X87569154Y-51768733D01*
X87623050Y-51852700D01*
X87636961Y-51862006D01*
X87647958Y-51878485D01*
X87648224Y-51878884D01*
X87654612Y-51911095D01*
X87654284Y-52486475D01*
X87647859Y-52518681D01*
X87636578Y-52535543D01*
X87636577Y-52535544D01*
X87619701Y-52546806D01*
X87619700Y-52546806D01*
X87619699Y-52546807D01*
X87587488Y-52553195D01*
X87012108Y-52552867D01*
X86979902Y-52546442D01*
X86963040Y-52535161D01*
X86962953Y-52535031D01*
X86953747Y-52521236D01*
X86899729Y-52476041D01*
X86829850Y-52467224D01*
X86745883Y-52521120D01*
X86736577Y-52535031D01*
X86719701Y-52546293D01*
X86719700Y-52546293D01*
X86719699Y-52546294D01*
X86687488Y-52552682D01*
X86112108Y-52552354D01*
X86079902Y-52545929D01*
X86063040Y-52534648D01*
X86054013Y-52521121D01*
X86051777Y-52517771D01*
X86051777Y-52517770D01*
X86051776Y-52517769D01*
X86045388Y-52485558D01*
X86045716Y-51910178D01*
X86052141Y-51877972D01*
X86063422Y-51861110D01*
X86063423Y-51861109D01*
X86077347Y-51851817D01*
X86122542Y-51797799D01*
X86126274Y-51768220D01*
X86669154Y-51768220D01*
X86723050Y-51852187D01*
X86736961Y-51861493D01*
X86746252Y-51875416D01*
X86800271Y-51920612D01*
X86870150Y-51929429D01*
X86954117Y-51875533D01*
X86963423Y-51861622D01*
X86977347Y-51852330D01*
X87022542Y-51798312D01*
X87031359Y-51728433D01*
X86977463Y-51644466D01*
X86963552Y-51635160D01*
X86954260Y-51621236D01*
X86900242Y-51576041D01*
X86830363Y-51567224D01*
X86746396Y-51621120D01*
X86737090Y-51635031D01*
X86723166Y-51644323D01*
X86677971Y-51698341D01*
X86669154Y-51768220D01*
X86126274Y-51768220D01*
X86131359Y-51727920D01*
X86077463Y-51643953D01*
X86063552Y-51634647D01*
X86052290Y-51617771D01*
X86052290Y-51617770D01*
X86052289Y-51617769D01*
X86045901Y-51585558D01*
X86046229Y-51010178D01*
X86052654Y-50977972D01*
X86063935Y-50961110D01*
X86063936Y-50961109D01*
X86080812Y-50949847D01*
X86080813Y-50949847D01*
X86080814Y-50949846D01*
X86113025Y-50943458D01*
X86688405Y-50943786D01*
X86688405Y-50943786D01*
G37*
G36*
X80688405Y-50943786D02*
G01*
X80720611Y-50950211D01*
X80737473Y-50961492D01*
X80737474Y-50961493D01*
X80737816Y-50962005D01*
X80746765Y-50975416D01*
X80800784Y-51020612D01*
X80870663Y-51029429D01*
X80954630Y-50975533D01*
X80963936Y-50961622D01*
X80980812Y-50950360D01*
X80980813Y-50950360D01*
X80980814Y-50950359D01*
X81013025Y-50943971D01*
X81588405Y-50944299D01*
X81620611Y-50950724D01*
X81637473Y-50962005D01*
X81637474Y-50962006D01*
X81648394Y-50978369D01*
X81648737Y-50978884D01*
X81655125Y-51011095D01*
X81654797Y-51586475D01*
X81648372Y-51618681D01*
X81637347Y-51635160D01*
X81637090Y-51635544D01*
X81623166Y-51644836D01*
X81577971Y-51698854D01*
X81569154Y-51768733D01*
X81623050Y-51852700D01*
X81636961Y-51862006D01*
X81647958Y-51878485D01*
X81648224Y-51878884D01*
X81654612Y-51911095D01*
X81654284Y-52486475D01*
X81647859Y-52518681D01*
X81636578Y-52535543D01*
X81636577Y-52535544D01*
X81619701Y-52546806D01*
X81619700Y-52546806D01*
X81619699Y-52546807D01*
X81587488Y-52553195D01*
X81012108Y-52552867D01*
X80979902Y-52546442D01*
X80963040Y-52535161D01*
X80962953Y-52535031D01*
X80953747Y-52521236D01*
X80899729Y-52476041D01*
X80829850Y-52467224D01*
X80745883Y-52521120D01*
X80736577Y-52535031D01*
X80719701Y-52546293D01*
X80719700Y-52546293D01*
X80719699Y-52546294D01*
X80687488Y-52552682D01*
X80112108Y-52552354D01*
X80079902Y-52545929D01*
X80063040Y-52534648D01*
X80054013Y-52521121D01*
X80051777Y-52517771D01*
X80051777Y-52517770D01*
X80051776Y-52517769D01*
X80045388Y-52485558D01*
X80045716Y-51910178D01*
X80052141Y-51877972D01*
X80063422Y-51861110D01*
X80063423Y-51861109D01*
X80077347Y-51851817D01*
X80122542Y-51797799D01*
X80126274Y-51768220D01*
X80669154Y-51768220D01*
X80723050Y-51852187D01*
X80736961Y-51861493D01*
X80746252Y-51875416D01*
X80800271Y-51920612D01*
X80870150Y-51929429D01*
X80954117Y-51875533D01*
X80963423Y-51861622D01*
X80977347Y-51852330D01*
X81022542Y-51798312D01*
X81031359Y-51728433D01*
X80977463Y-51644466D01*
X80963552Y-51635160D01*
X80954260Y-51621236D01*
X80900242Y-51576041D01*
X80830363Y-51567224D01*
X80746396Y-51621120D01*
X80737090Y-51635031D01*
X80723166Y-51644323D01*
X80677971Y-51698341D01*
X80669154Y-51768220D01*
X80126274Y-51768220D01*
X80131359Y-51727920D01*
X80077463Y-51643953D01*
X80063552Y-51634647D01*
X80052290Y-51617771D01*
X80052290Y-51617770D01*
X80052289Y-51617769D01*
X80045901Y-51585558D01*
X80046229Y-51010178D01*
X80052654Y-50977972D01*
X80063935Y-50961110D01*
X80063936Y-50961109D01*
X80080812Y-50949847D01*
X80080813Y-50949847D01*
X80080814Y-50949846D01*
X80113025Y-50943458D01*
X80688405Y-50943786D01*
X80688405Y-50943786D01*
G37*
G36*
X86688164Y-49043579D02*
G01*
X86700476Y-49046033D01*
X86720373Y-49049999D01*
X86737239Y-49061277D01*
X86746533Y-49075199D01*
X86800558Y-49120384D01*
X86870438Y-49129188D01*
X86954398Y-49075276D01*
X86963701Y-49061363D01*
X86980575Y-49050098D01*
X86980576Y-49050098D01*
X86980577Y-49050097D01*
X87012788Y-49043703D01*
X87588164Y-49043921D01*
X87600476Y-49046375D01*
X87620373Y-49050341D01*
X87637239Y-49061619D01*
X87648504Y-49078493D01*
X87648505Y-49078495D01*
X87654899Y-49110706D01*
X87654681Y-49686082D01*
X87652227Y-49698394D01*
X87648261Y-49718291D01*
X87636983Y-49735157D01*
X87623061Y-49744451D01*
X87577876Y-49798476D01*
X87569072Y-49868356D01*
X87622984Y-49952315D01*
X87636897Y-49961619D01*
X87648162Y-49978493D01*
X87648163Y-49978495D01*
X87654557Y-50010706D01*
X87654339Y-50586082D01*
X87651885Y-50598394D01*
X87647919Y-50618291D01*
X87636641Y-50635157D01*
X87619767Y-50646422D01*
X87619766Y-50646422D01*
X87619765Y-50646423D01*
X87587554Y-50652817D01*
X87012178Y-50652599D01*
X86998151Y-50649803D01*
X86979969Y-50646179D01*
X86963103Y-50634901D01*
X86953809Y-50620979D01*
X86899784Y-50575794D01*
X86829904Y-50566990D01*
X86745945Y-50620902D01*
X86736641Y-50634815D01*
X86719767Y-50646080D01*
X86719766Y-50646080D01*
X86719765Y-50646081D01*
X86687554Y-50652475D01*
X86112178Y-50652257D01*
X86079969Y-50645837D01*
X86063103Y-50634559D01*
X86051838Y-50617685D01*
X86051838Y-50617684D01*
X86051837Y-50617683D01*
X86045443Y-50585472D01*
X86045661Y-50010096D01*
X86052081Y-49977887D01*
X86053880Y-49975197D01*
X86063359Y-49961021D01*
X86077281Y-49951727D01*
X86122466Y-49897702D01*
X86126206Y-49868014D01*
X86669072Y-49868014D01*
X86722984Y-49951973D01*
X86736897Y-49961277D01*
X86746191Y-49975199D01*
X86800216Y-50020384D01*
X86870096Y-50029188D01*
X86954056Y-49975276D01*
X86963359Y-49961363D01*
X86977281Y-49952069D01*
X87022466Y-49898044D01*
X87031270Y-49828164D01*
X86977358Y-49744205D01*
X86963445Y-49734901D01*
X86954151Y-49720979D01*
X86900126Y-49675794D01*
X86830246Y-49666990D01*
X86746287Y-49720902D01*
X86736983Y-49734815D01*
X86723061Y-49744109D01*
X86677876Y-49798134D01*
X86669072Y-49868014D01*
X86126206Y-49868014D01*
X86131270Y-49827822D01*
X86077358Y-49743863D01*
X86063445Y-49734559D01*
X86052180Y-49717685D01*
X86052180Y-49717684D01*
X86052179Y-49717683D01*
X86045785Y-49685472D01*
X86046003Y-49110096D01*
X86052423Y-49077887D01*
X86054222Y-49075197D01*
X86063701Y-49061021D01*
X86080575Y-49049756D01*
X86080576Y-49049756D01*
X86080577Y-49049755D01*
X86112788Y-49043361D01*
X86688164Y-49043579D01*
X86688164Y-49043579D01*
G37*
G36*
X83688164Y-49043579D02*
G01*
X83700476Y-49046033D01*
X83720373Y-49049999D01*
X83737239Y-49061277D01*
X83746533Y-49075199D01*
X83800558Y-49120384D01*
X83870438Y-49129188D01*
X83954398Y-49075276D01*
X83963701Y-49061363D01*
X83980575Y-49050098D01*
X83980576Y-49050098D01*
X83980577Y-49050097D01*
X84012788Y-49043703D01*
X84588164Y-49043921D01*
X84600476Y-49046375D01*
X84620373Y-49050341D01*
X84637239Y-49061619D01*
X84648504Y-49078493D01*
X84648505Y-49078495D01*
X84654899Y-49110706D01*
X84654681Y-49686082D01*
X84652227Y-49698394D01*
X84648261Y-49718291D01*
X84636983Y-49735157D01*
X84623061Y-49744451D01*
X84577876Y-49798476D01*
X84569072Y-49868356D01*
X84622984Y-49952315D01*
X84636897Y-49961619D01*
X84648162Y-49978493D01*
X84648163Y-49978495D01*
X84654557Y-50010706D01*
X84654339Y-50586082D01*
X84651885Y-50598394D01*
X84647919Y-50618291D01*
X84636641Y-50635157D01*
X84619767Y-50646422D01*
X84619766Y-50646422D01*
X84619765Y-50646423D01*
X84587554Y-50652817D01*
X84012178Y-50652599D01*
X83998151Y-50649803D01*
X83979969Y-50646179D01*
X83963103Y-50634901D01*
X83953809Y-50620979D01*
X83899784Y-50575794D01*
X83829904Y-50566990D01*
X83745945Y-50620902D01*
X83736641Y-50634815D01*
X83719767Y-50646080D01*
X83719766Y-50646080D01*
X83719765Y-50646081D01*
X83687554Y-50652475D01*
X83112178Y-50652257D01*
X83079969Y-50645837D01*
X83063103Y-50634559D01*
X83051838Y-50617685D01*
X83051838Y-50617684D01*
X83051837Y-50617683D01*
X83045443Y-50585472D01*
X83045661Y-50010096D01*
X83052081Y-49977887D01*
X83053880Y-49975197D01*
X83063359Y-49961021D01*
X83077281Y-49951727D01*
X83122466Y-49897702D01*
X83126206Y-49868014D01*
X83669072Y-49868014D01*
X83722984Y-49951973D01*
X83736897Y-49961277D01*
X83746191Y-49975199D01*
X83800216Y-50020384D01*
X83870096Y-50029188D01*
X83954056Y-49975276D01*
X83963359Y-49961363D01*
X83977281Y-49952069D01*
X84022466Y-49898044D01*
X84031270Y-49828164D01*
X83977358Y-49744205D01*
X83963445Y-49734901D01*
X83954151Y-49720979D01*
X83900126Y-49675794D01*
X83830246Y-49666990D01*
X83746287Y-49720902D01*
X83736983Y-49734815D01*
X83723061Y-49744109D01*
X83677876Y-49798134D01*
X83669072Y-49868014D01*
X83126206Y-49868014D01*
X83131270Y-49827822D01*
X83077358Y-49743863D01*
X83063445Y-49734559D01*
X83052180Y-49717685D01*
X83052180Y-49717684D01*
X83052179Y-49717683D01*
X83045785Y-49685472D01*
X83046003Y-49110096D01*
X83052423Y-49077887D01*
X83054222Y-49075197D01*
X83063701Y-49061021D01*
X83080575Y-49049756D01*
X83080576Y-49049756D01*
X83080577Y-49049755D01*
X83112788Y-49043361D01*
X83688164Y-49043579D01*
X83688164Y-49043579D01*
G37*
G36*
X80688164Y-49043579D02*
G01*
X80700476Y-49046033D01*
X80720373Y-49049999D01*
X80737239Y-49061277D01*
X80746533Y-49075199D01*
X80800558Y-49120384D01*
X80870438Y-49129188D01*
X80954398Y-49075276D01*
X80963701Y-49061363D01*
X80980575Y-49050098D01*
X80980576Y-49050098D01*
X80980577Y-49050097D01*
X81012788Y-49043703D01*
X81588164Y-49043921D01*
X81600476Y-49046375D01*
X81620373Y-49050341D01*
X81637239Y-49061619D01*
X81648504Y-49078493D01*
X81648505Y-49078495D01*
X81654899Y-49110706D01*
X81654681Y-49686082D01*
X81652227Y-49698394D01*
X81648261Y-49718291D01*
X81636983Y-49735157D01*
X81623061Y-49744451D01*
X81577876Y-49798476D01*
X81569072Y-49868356D01*
X81622984Y-49952315D01*
X81636897Y-49961619D01*
X81648162Y-49978493D01*
X81648163Y-49978495D01*
X81654557Y-50010706D01*
X81654339Y-50586082D01*
X81651885Y-50598394D01*
X81647919Y-50618291D01*
X81636641Y-50635157D01*
X81619767Y-50646422D01*
X81619766Y-50646422D01*
X81619765Y-50646423D01*
X81587554Y-50652817D01*
X81012178Y-50652599D01*
X80998151Y-50649803D01*
X80979969Y-50646179D01*
X80963103Y-50634901D01*
X80953809Y-50620979D01*
X80899784Y-50575794D01*
X80829904Y-50566990D01*
X80745945Y-50620902D01*
X80736641Y-50634815D01*
X80719767Y-50646080D01*
X80719766Y-50646080D01*
X80719765Y-50646081D01*
X80687554Y-50652475D01*
X80112178Y-50652257D01*
X80079969Y-50645837D01*
X80063103Y-50634559D01*
X80051838Y-50617685D01*
X80051838Y-50617684D01*
X80051837Y-50617683D01*
X80045443Y-50585472D01*
X80045661Y-50010096D01*
X80052081Y-49977887D01*
X80053880Y-49975197D01*
X80063359Y-49961021D01*
X80077281Y-49951727D01*
X80122466Y-49897702D01*
X80126206Y-49868014D01*
X80669072Y-49868014D01*
X80722984Y-49951973D01*
X80736897Y-49961277D01*
X80746191Y-49975199D01*
X80800216Y-50020384D01*
X80870096Y-50029188D01*
X80954056Y-49975276D01*
X80963359Y-49961363D01*
X80977281Y-49952069D01*
X81022466Y-49898044D01*
X81031270Y-49828164D01*
X80977358Y-49744205D01*
X80963445Y-49734901D01*
X80954151Y-49720979D01*
X80900126Y-49675794D01*
X80830246Y-49666990D01*
X80746287Y-49720902D01*
X80736983Y-49734815D01*
X80723061Y-49744109D01*
X80677876Y-49798134D01*
X80669072Y-49868014D01*
X80126206Y-49868014D01*
X80131270Y-49827822D01*
X80077358Y-49743863D01*
X80063445Y-49734559D01*
X80052180Y-49717685D01*
X80052180Y-49717684D01*
X80052179Y-49717683D01*
X80045785Y-49685472D01*
X80046003Y-49110096D01*
X80052423Y-49077887D01*
X80054222Y-49075197D01*
X80063701Y-49061021D01*
X80080575Y-49049756D01*
X80080576Y-49049756D01*
X80080577Y-49049755D01*
X80112788Y-49043361D01*
X80688164Y-49043579D01*
X80688164Y-49043579D01*
G37*
G36*
X86687929Y-47143374D02*
G01*
X86720135Y-47149786D01*
X86720392Y-47149958D01*
X86737004Y-47161062D01*
X86746301Y-47174982D01*
X86800333Y-47220156D01*
X86870215Y-47228947D01*
X86954164Y-47175021D01*
X86963466Y-47161105D01*
X86963722Y-47160934D01*
X86980338Y-47149836D01*
X87000238Y-47145882D01*
X87000239Y-47145882D01*
X87012552Y-47143435D01*
X87587929Y-47143545D01*
X87620135Y-47149957D01*
X87620137Y-47149958D01*
X87620136Y-47149958D01*
X87637004Y-47161233D01*
X87648273Y-47178105D01*
X87652166Y-47197700D01*
X87654674Y-47210319D01*
X87654564Y-47785696D01*
X87648152Y-47817902D01*
X87636962Y-47834643D01*
X87636876Y-47834771D01*
X87622956Y-47844068D01*
X87577782Y-47898100D01*
X87568991Y-47967982D01*
X87622917Y-48051931D01*
X87636833Y-48061233D01*
X87648102Y-48078105D01*
X87651995Y-48097700D01*
X87654503Y-48110319D01*
X87654393Y-48685696D01*
X87647981Y-48717902D01*
X87647980Y-48717903D01*
X87636705Y-48734771D01*
X87619833Y-48746040D01*
X87599933Y-48749994D01*
X87599932Y-48749994D01*
X87587619Y-48752441D01*
X87012242Y-48752331D01*
X86980036Y-48745919D01*
X86963168Y-48734644D01*
X86963167Y-48734643D01*
X86953870Y-48720723D01*
X86899838Y-48675549D01*
X86829956Y-48666758D01*
X86746007Y-48720684D01*
X86736705Y-48734600D01*
X86719833Y-48745869D01*
X86699933Y-48749823D01*
X86699932Y-48749823D01*
X86687619Y-48752270D01*
X86112242Y-48752160D01*
X86080036Y-48745748D01*
X86063167Y-48734472D01*
X86053958Y-48720684D01*
X86051898Y-48717600D01*
X86047944Y-48697700D01*
X86047944Y-48697699D01*
X86045497Y-48685386D01*
X86045607Y-48110009D01*
X86052019Y-48077803D01*
X86063294Y-48060935D01*
X86063295Y-48060934D01*
X86077215Y-48051637D01*
X86122389Y-47997605D01*
X86126137Y-47967811D01*
X86668991Y-47967811D01*
X86722917Y-48051760D01*
X86736833Y-48061062D01*
X86746130Y-48074982D01*
X86800162Y-48120156D01*
X86870044Y-48128947D01*
X86953993Y-48075021D01*
X86956067Y-48071918D01*
X86963295Y-48061105D01*
X86977215Y-48051808D01*
X87022389Y-47997776D01*
X87031180Y-47927894D01*
X86977254Y-47843945D01*
X86974151Y-47841871D01*
X86963338Y-47834643D01*
X86954041Y-47820723D01*
X86900009Y-47775549D01*
X86830127Y-47766758D01*
X86746178Y-47820684D01*
X86736876Y-47834600D01*
X86722956Y-47843897D01*
X86677782Y-47897929D01*
X86668991Y-47967811D01*
X86126137Y-47967811D01*
X86131180Y-47927723D01*
X86077254Y-47843774D01*
X86063338Y-47834472D01*
X86054129Y-47820684D01*
X86052069Y-47817600D01*
X86048115Y-47797700D01*
X86048115Y-47797699D01*
X86045668Y-47785386D01*
X86045778Y-47210009D01*
X86052190Y-47177803D01*
X86063466Y-47160934D01*
X86080338Y-47149665D01*
X86100238Y-47145711D01*
X86100239Y-47145711D01*
X86112552Y-47143264D01*
X86687929Y-47143374D01*
X86687929Y-47143374D01*
G37*
G36*
X83687929Y-47143374D02*
G01*
X83720135Y-47149786D01*
X83720392Y-47149958D01*
X83737004Y-47161062D01*
X83746301Y-47174982D01*
X83800333Y-47220156D01*
X83870215Y-47228947D01*
X83954164Y-47175021D01*
X83963466Y-47161105D01*
X83963722Y-47160934D01*
X83980338Y-47149836D01*
X84000238Y-47145882D01*
X84000239Y-47145882D01*
X84012552Y-47143435D01*
X84587929Y-47143545D01*
X84620135Y-47149957D01*
X84620137Y-47149958D01*
X84620136Y-47149958D01*
X84637004Y-47161233D01*
X84648273Y-47178105D01*
X84652166Y-47197700D01*
X84654674Y-47210319D01*
X84654564Y-47785696D01*
X84648152Y-47817902D01*
X84636962Y-47834643D01*
X84636876Y-47834771D01*
X84622956Y-47844068D01*
X84577782Y-47898100D01*
X84568991Y-47967982D01*
X84622917Y-48051931D01*
X84636833Y-48061233D01*
X84648102Y-48078105D01*
X84651995Y-48097700D01*
X84654503Y-48110319D01*
X84654393Y-48685696D01*
X84647981Y-48717902D01*
X84647980Y-48717903D01*
X84636705Y-48734771D01*
X84619833Y-48746040D01*
X84599933Y-48749994D01*
X84599932Y-48749994D01*
X84587619Y-48752441D01*
X84012242Y-48752331D01*
X83980036Y-48745919D01*
X83963168Y-48734644D01*
X83963167Y-48734643D01*
X83953870Y-48720723D01*
X83899838Y-48675549D01*
X83829956Y-48666758D01*
X83746007Y-48720684D01*
X83736705Y-48734600D01*
X83719833Y-48745869D01*
X83699933Y-48749823D01*
X83699932Y-48749823D01*
X83687619Y-48752270D01*
X83112242Y-48752160D01*
X83080036Y-48745748D01*
X83063167Y-48734472D01*
X83053958Y-48720684D01*
X83051898Y-48717600D01*
X83047944Y-48697700D01*
X83047944Y-48697699D01*
X83045497Y-48685386D01*
X83045607Y-48110009D01*
X83052019Y-48077803D01*
X83063294Y-48060935D01*
X83063295Y-48060934D01*
X83077215Y-48051637D01*
X83122389Y-47997605D01*
X83126137Y-47967811D01*
X83668991Y-47967811D01*
X83722917Y-48051760D01*
X83736833Y-48061062D01*
X83746130Y-48074982D01*
X83800162Y-48120156D01*
X83870044Y-48128947D01*
X83953993Y-48075021D01*
X83956067Y-48071918D01*
X83963295Y-48061105D01*
X83977215Y-48051808D01*
X84022389Y-47997776D01*
X84031180Y-47927894D01*
X83977254Y-47843945D01*
X83974151Y-47841871D01*
X83963338Y-47834643D01*
X83954041Y-47820723D01*
X83900009Y-47775549D01*
X83830127Y-47766758D01*
X83746178Y-47820684D01*
X83736876Y-47834600D01*
X83722956Y-47843897D01*
X83677782Y-47897929D01*
X83668991Y-47967811D01*
X83126137Y-47967811D01*
X83131180Y-47927723D01*
X83077254Y-47843774D01*
X83063338Y-47834472D01*
X83054129Y-47820684D01*
X83052069Y-47817600D01*
X83048115Y-47797700D01*
X83048115Y-47797699D01*
X83045668Y-47785386D01*
X83045778Y-47210009D01*
X83052190Y-47177803D01*
X83063466Y-47160934D01*
X83080338Y-47149665D01*
X83100238Y-47145711D01*
X83100239Y-47145711D01*
X83112552Y-47143264D01*
X83687929Y-47143374D01*
X83687929Y-47143374D01*
G37*
G36*
X80687929Y-47143374D02*
G01*
X80720135Y-47149786D01*
X80720392Y-47149958D01*
X80737004Y-47161062D01*
X80746301Y-47174982D01*
X80800333Y-47220156D01*
X80870215Y-47228947D01*
X80954164Y-47175021D01*
X80963466Y-47161105D01*
X80963722Y-47160934D01*
X80980338Y-47149836D01*
X81000238Y-47145882D01*
X81000239Y-47145882D01*
X81012552Y-47143435D01*
X81587929Y-47143545D01*
X81620135Y-47149957D01*
X81620137Y-47149958D01*
X81620136Y-47149958D01*
X81637004Y-47161233D01*
X81648273Y-47178105D01*
X81652166Y-47197700D01*
X81654674Y-47210319D01*
X81654564Y-47785696D01*
X81648152Y-47817902D01*
X81636962Y-47834643D01*
X81636876Y-47834771D01*
X81622956Y-47844068D01*
X81577782Y-47898100D01*
X81568991Y-47967982D01*
X81622917Y-48051931D01*
X81636833Y-48061233D01*
X81648102Y-48078105D01*
X81651995Y-48097700D01*
X81654503Y-48110319D01*
X81654393Y-48685696D01*
X81647981Y-48717902D01*
X81647980Y-48717903D01*
X81636705Y-48734771D01*
X81619833Y-48746040D01*
X81599933Y-48749994D01*
X81599932Y-48749994D01*
X81587619Y-48752441D01*
X81012242Y-48752331D01*
X80980036Y-48745919D01*
X80963168Y-48734644D01*
X80963167Y-48734643D01*
X80953870Y-48720723D01*
X80899838Y-48675549D01*
X80829956Y-48666758D01*
X80746007Y-48720684D01*
X80736705Y-48734600D01*
X80719833Y-48745869D01*
X80699933Y-48749823D01*
X80699932Y-48749823D01*
X80687619Y-48752270D01*
X80112242Y-48752160D01*
X80080036Y-48745748D01*
X80063167Y-48734472D01*
X80053958Y-48720684D01*
X80051898Y-48717600D01*
X80047944Y-48697700D01*
X80047944Y-48697699D01*
X80045497Y-48685386D01*
X80045607Y-48110009D01*
X80052019Y-48077803D01*
X80063294Y-48060935D01*
X80063295Y-48060934D01*
X80077215Y-48051637D01*
X80122389Y-47997605D01*
X80126137Y-47967811D01*
X80668991Y-47967811D01*
X80722917Y-48051760D01*
X80736833Y-48061062D01*
X80746130Y-48074982D01*
X80800162Y-48120156D01*
X80870044Y-48128947D01*
X80953993Y-48075021D01*
X80956067Y-48071918D01*
X80963295Y-48061105D01*
X80977215Y-48051808D01*
X81022389Y-47997776D01*
X81031180Y-47927894D01*
X80977254Y-47843945D01*
X80974151Y-47841871D01*
X80963338Y-47834643D01*
X80954041Y-47820723D01*
X80900009Y-47775549D01*
X80830127Y-47766758D01*
X80746178Y-47820684D01*
X80736876Y-47834600D01*
X80722956Y-47843897D01*
X80677782Y-47897929D01*
X80668991Y-47967811D01*
X80126137Y-47967811D01*
X80131180Y-47927723D01*
X80077254Y-47843774D01*
X80063338Y-47834472D01*
X80054129Y-47820684D01*
X80052069Y-47817600D01*
X80048115Y-47797700D01*
X80048115Y-47797699D01*
X80045668Y-47785386D01*
X80045778Y-47210009D01*
X80052190Y-47177803D01*
X80063466Y-47160934D01*
X80080338Y-47149665D01*
X80100238Y-47145711D01*
X80100239Y-47145711D01*
X80112552Y-47143264D01*
X80687929Y-47143374D01*
X80687929Y-47143374D01*
G37*
G36*
X83719899Y-45249574D02*
G01*
X83736769Y-45260846D01*
X83746067Y-45274762D01*
X83800111Y-45319929D01*
X83869994Y-45328707D01*
X83953933Y-45274762D01*
X83963231Y-45260846D01*
X83980101Y-45249574D01*
X84012312Y-45243167D01*
X84587688Y-45243167D01*
X84619899Y-45249574D01*
X84636769Y-45260846D01*
X84648041Y-45277716D01*
X84654448Y-45309927D01*
X84654448Y-45885303D01*
X84648041Y-45917514D01*
X84636769Y-45934384D01*
X84622853Y-45943682D01*
X84577686Y-45997726D01*
X84568908Y-46067609D01*
X84622853Y-46151548D01*
X84636769Y-46160846D01*
X84648041Y-46177716D01*
X84654448Y-46209927D01*
X84654448Y-46785303D01*
X84651999Y-46797615D01*
X84648041Y-46817514D01*
X84636769Y-46834384D01*
X84619899Y-46845656D01*
X84600000Y-46849614D01*
X84587688Y-46852063D01*
X84012312Y-46852063D01*
X83980101Y-46845656D01*
X83963231Y-46834384D01*
X83953933Y-46820468D01*
X83899889Y-46775301D01*
X83830006Y-46766523D01*
X83746067Y-46820468D01*
X83736769Y-46834384D01*
X83719899Y-46845656D01*
X83700000Y-46849614D01*
X83687688Y-46852063D01*
X83112312Y-46852063D01*
X83080101Y-46845656D01*
X83063231Y-46834384D01*
X83051959Y-46817514D01*
X83045552Y-46785303D01*
X83045552Y-46209927D01*
X83051959Y-46177716D01*
X83063231Y-46160846D01*
X83077147Y-46151548D01*
X83122314Y-46097504D01*
X83126069Y-46067609D01*
X83668908Y-46067609D01*
X83722853Y-46151548D01*
X83736769Y-46160846D01*
X83746067Y-46174762D01*
X83800111Y-46219929D01*
X83869994Y-46228707D01*
X83953933Y-46174762D01*
X83963231Y-46160846D01*
X83977147Y-46151548D01*
X84022314Y-46097504D01*
X84031092Y-46027621D01*
X83977147Y-45943682D01*
X83963231Y-45934384D01*
X83953933Y-45920468D01*
X83899889Y-45875301D01*
X83830006Y-45866523D01*
X83746067Y-45920468D01*
X83736769Y-45934384D01*
X83722853Y-45943682D01*
X83677686Y-45997726D01*
X83668908Y-46067609D01*
X83126069Y-46067609D01*
X83131092Y-46027621D01*
X83077147Y-45943682D01*
X83063231Y-45934384D01*
X83051959Y-45917514D01*
X83045552Y-45885303D01*
X83045552Y-45309927D01*
X83051959Y-45277716D01*
X83063231Y-45260846D01*
X83080101Y-45249574D01*
X83112312Y-45243167D01*
X83687688Y-45243167D01*
X83719899Y-45249574D01*
X83719899Y-45249574D01*
G37*
G36*
X80719899Y-45249574D02*
G01*
X80736769Y-45260846D01*
X80746067Y-45274762D01*
X80800111Y-45319929D01*
X80869994Y-45328707D01*
X80953933Y-45274762D01*
X80963231Y-45260846D01*
X80980101Y-45249574D01*
X81012312Y-45243167D01*
X81587688Y-45243167D01*
X81619899Y-45249574D01*
X81636769Y-45260846D01*
X81648041Y-45277716D01*
X81654448Y-45309927D01*
X81654448Y-45885303D01*
X81648041Y-45917514D01*
X81636769Y-45934384D01*
X81622853Y-45943682D01*
X81577686Y-45997726D01*
X81568908Y-46067609D01*
X81622853Y-46151548D01*
X81636769Y-46160846D01*
X81648041Y-46177716D01*
X81654448Y-46209927D01*
X81654448Y-46785303D01*
X81651999Y-46797615D01*
X81648041Y-46817514D01*
X81636769Y-46834384D01*
X81619899Y-46845656D01*
X81600000Y-46849614D01*
X81587688Y-46852063D01*
X81012312Y-46852063D01*
X80980101Y-46845656D01*
X80963231Y-46834384D01*
X80953933Y-46820468D01*
X80899889Y-46775301D01*
X80830006Y-46766523D01*
X80746067Y-46820468D01*
X80736769Y-46834384D01*
X80719899Y-46845656D01*
X80700000Y-46849614D01*
X80687688Y-46852063D01*
X80112312Y-46852063D01*
X80080101Y-46845656D01*
X80063231Y-46834384D01*
X80051959Y-46817514D01*
X80045552Y-46785303D01*
X80045552Y-46209927D01*
X80051959Y-46177716D01*
X80063231Y-46160846D01*
X80077147Y-46151548D01*
X80122314Y-46097504D01*
X80126069Y-46067609D01*
X80668908Y-46067609D01*
X80722853Y-46151548D01*
X80736769Y-46160846D01*
X80746067Y-46174762D01*
X80800111Y-46219929D01*
X80869994Y-46228707D01*
X80953933Y-46174762D01*
X80963231Y-46160846D01*
X80977147Y-46151548D01*
X81022314Y-46097504D01*
X81031092Y-46027621D01*
X80977147Y-45943682D01*
X80963231Y-45934384D01*
X80953933Y-45920468D01*
X80899889Y-45875301D01*
X80830006Y-45866523D01*
X80746067Y-45920468D01*
X80736769Y-45934384D01*
X80722853Y-45943682D01*
X80677686Y-45997726D01*
X80668908Y-46067609D01*
X80126069Y-46067609D01*
X80131092Y-46027621D01*
X80077147Y-45943682D01*
X80063231Y-45934384D01*
X80051959Y-45917514D01*
X80045552Y-45885303D01*
X80045552Y-45309927D01*
X80051959Y-45277716D01*
X80063231Y-45260846D01*
X80080101Y-45249574D01*
X80112312Y-45243167D01*
X80687688Y-45243167D01*
X80719899Y-45249574D01*
X80719899Y-45249574D01*
G37*
G36*
X86719899Y-45249574D02*
G01*
X86736769Y-45260846D01*
X86746067Y-45274762D01*
X86800111Y-45319929D01*
X86869994Y-45328707D01*
X86953933Y-45274762D01*
X86963231Y-45260846D01*
X86980101Y-45249574D01*
X87012312Y-45243167D01*
X87587688Y-45243167D01*
X87619899Y-45249574D01*
X87636769Y-45260846D01*
X87648041Y-45277716D01*
X87654448Y-45309927D01*
X87654448Y-45885303D01*
X87648041Y-45917514D01*
X87636769Y-45934384D01*
X87622853Y-45943682D01*
X87577686Y-45997726D01*
X87568908Y-46067609D01*
X87622853Y-46151548D01*
X87636769Y-46160846D01*
X87648041Y-46177716D01*
X87654448Y-46209927D01*
X87654448Y-46785303D01*
X87651999Y-46797615D01*
X87648041Y-46817514D01*
X87636769Y-46834384D01*
X87619899Y-46845656D01*
X87600000Y-46849614D01*
X87587688Y-46852063D01*
X87012312Y-46852063D01*
X86980101Y-46845656D01*
X86963231Y-46834384D01*
X86953933Y-46820468D01*
X86899889Y-46775301D01*
X86830006Y-46766523D01*
X86746067Y-46820468D01*
X86736769Y-46834384D01*
X86719899Y-46845656D01*
X86700000Y-46849614D01*
X86687688Y-46852063D01*
X86112312Y-46852063D01*
X86080101Y-46845656D01*
X86063231Y-46834384D01*
X86051959Y-46817514D01*
X86045552Y-46785303D01*
X86045552Y-46209927D01*
X86051959Y-46177716D01*
X86063231Y-46160846D01*
X86077147Y-46151548D01*
X86122314Y-46097504D01*
X86126069Y-46067609D01*
X86668908Y-46067609D01*
X86722853Y-46151548D01*
X86736769Y-46160846D01*
X86746067Y-46174762D01*
X86800111Y-46219929D01*
X86869994Y-46228707D01*
X86953933Y-46174762D01*
X86963231Y-46160846D01*
X86977147Y-46151548D01*
X87022314Y-46097504D01*
X87031092Y-46027621D01*
X86977147Y-45943682D01*
X86963231Y-45934384D01*
X86953933Y-45920468D01*
X86899889Y-45875301D01*
X86830006Y-45866523D01*
X86746067Y-45920468D01*
X86736769Y-45934384D01*
X86722853Y-45943682D01*
X86677686Y-45997726D01*
X86668908Y-46067609D01*
X86126069Y-46067609D01*
X86131092Y-46027621D01*
X86077147Y-45943682D01*
X86063231Y-45934384D01*
X86051959Y-45917514D01*
X86045552Y-45885303D01*
X86045552Y-45309927D01*
X86051959Y-45277716D01*
X86063231Y-45260846D01*
X86080101Y-45249574D01*
X86112312Y-45243167D01*
X86687688Y-45243167D01*
X86719899Y-45249574D01*
X86719899Y-45249574D01*
G37*
M02*
