G04 #@! TF.GenerationSoftware,KiCad,Pcbnew,(5.99.0-286-g11f0acefe)*
G04 #@! TF.CreationDate,2020-01-02T20:44:44-05:00*
G04 #@! TF.ProjectId,output3,6f757470-7574-4332-9e6b-696361645f70,rev?*
G04 #@! TF.SameCoordinates,Original*
G04 #@! TF.FileFunction,Legend,Bot*
G04 #@! TF.FilePolarity,Positive*
%FSLAX46Y46*%
G04 Gerber Fmt 4.6, Leading zero omitted, Abs format (unit mm)*
G04 Created by KiCad (PCBNEW (5.99.0-286-g11f0acefe)) date 2020-01-02 20:44:44*
%MOMM*%
%LPD*%
G04 APERTURE LIST*
%ADD10C,0.050000*%
G04 APERTURE END LIST*
D10*
X93750000Y-45080000D02*
X93750002Y-45099999D01*
X93750000Y-75280000D02*
X93750000Y-75300000D01*
X91050000Y-75280000D02*
X91050000Y-75290000D01*
X88350000Y-75290000D02*
X88350000Y-75300000D01*
X88350002Y-45089999D02*
X88350000Y-45100000D01*
X91050002Y-45079999D02*
X91050000Y-45090000D01*
X93750002Y-45099999D02*
G75*
G02X94300001Y-44550002I549998J-1D01*
G01*
X96350000Y-131800000D02*
G75*
G02X93950000Y-131800000I-1200000J0D01*
G01*
X94300000Y-127600000D02*
X94300000Y-75850000D01*
X94300000Y-75850000D02*
X93750000Y-75300000D01*
X94300000Y-44550000D02*
X95900003Y-44550001D01*
X96450000Y-45100000D02*
X96450000Y-75300000D01*
X96450000Y-75300000D02*
X95900000Y-75850000D01*
X95900003Y-44550001D02*
G75*
G02X96450000Y-45100000I-1J-549998D01*
G01*
X96350000Y-128000000D02*
X95900000Y-127600000D01*
X94300000Y-127600000D02*
X93950000Y-127950000D01*
X96350000Y-131800000D02*
X96350000Y-128000000D01*
X93950000Y-127950000D02*
X93950000Y-131800000D01*
X95900000Y-75850000D02*
X95900000Y-127600000D01*
X91050002Y-45079999D02*
G75*
G02X91600001Y-44530002I549998J-1D01*
G01*
X93650000Y-131780000D02*
G75*
G02X91250000Y-131780000I-1200000J0D01*
G01*
X91600000Y-127580000D02*
X91600000Y-75830000D01*
X91600000Y-75830000D02*
X91050000Y-75280000D01*
X91600000Y-44530000D02*
X93200003Y-44530001D01*
X93750000Y-75280000D02*
X93200000Y-75830000D01*
X93200003Y-44530001D02*
G75*
G02X93750000Y-45080000I-1J-549998D01*
G01*
X93650000Y-127980000D02*
X93200000Y-127580000D01*
X91600000Y-127580000D02*
X91250000Y-127930000D01*
X93650000Y-131780000D02*
X93650000Y-127980000D01*
X91250000Y-127930000D02*
X91250000Y-131780000D01*
X93200000Y-75830000D02*
X93200000Y-127580000D01*
X88350002Y-45089999D02*
G75*
G02X88900001Y-44540002I549998J-1D01*
G01*
X90950000Y-131790000D02*
G75*
G02X88550000Y-131790000I-1200000J0D01*
G01*
X88900000Y-127590000D02*
X88900000Y-75840000D01*
X88900000Y-75840000D02*
X88350000Y-75290000D01*
X88900000Y-44540000D02*
X90500003Y-44540001D01*
X91050000Y-75290000D02*
X90500000Y-75840000D01*
X90500003Y-44540001D02*
G75*
G02X91050000Y-45090000I-1J-549998D01*
G01*
X90950000Y-127990000D02*
X90500000Y-127590000D01*
X88900000Y-127590000D02*
X88550000Y-127940000D01*
X90950000Y-131790000D02*
X90950000Y-127990000D01*
X88550000Y-127940000D02*
X88550000Y-131790000D01*
X90500000Y-75840000D02*
X90500000Y-127590000D01*
X87800003Y-44550001D02*
G75*
G02X88350000Y-45100000I-1J-549998D01*
G01*
X85650002Y-45099999D02*
G75*
G02X86200001Y-44550002I549998J-1D01*
G01*
X85850000Y-127950000D02*
X85850000Y-131800000D01*
X86200000Y-127600000D02*
X85850000Y-127950000D01*
X88250000Y-128000000D02*
X87800000Y-127600000D01*
X88250000Y-131800000D02*
X88250000Y-128000000D01*
X87800000Y-75850000D02*
X87800000Y-127600000D01*
X88350000Y-75300000D02*
X87800000Y-75850000D01*
X86200000Y-44550000D02*
X87800003Y-44550001D01*
X85650000Y-75300000D02*
X85650002Y-45099999D01*
X86200000Y-75850000D02*
X85650000Y-75300000D01*
X86200000Y-127600000D02*
X86200000Y-75850000D01*
X88250000Y-131800000D02*
G75*
G02X85850000Y-131800000I-1200000J0D01*
G01*
M02*
